<?xml version="1.0" encoding="utf-8"?>
<!-- Generator: Adobe Illustrator 21.1.0, SVG Export Plug-In . SVG Version: 6.00 Build 0)  -->
<svg version="1.1" id="Capa_1" xmlns="http://www.w3.org/2000/svg" xmlns:xlink="http://www.w3.org/1999/xlink" x="0px" y="0px"
	 viewBox="0 0 1370 305" style="enable-background:new 0 0 1370 305;" xml:space="preserve">
<style type="text/css">
	.st0{fill:#FFFFFF;}
	.st1{fill:#323D6B;}
	.st2{fill:#BC2E34;}
	.st3{fill:#313C68;}
</style>
<path class="st0" d="M154.6,5.2c81.2,0,147,65.8,147,147s-65.8,147-147,147s-147-65.8-147-147C7.6,71,73.4,5.2,154.6,5.2"/>
<path class="st1" d="M154.6,41.5c61.2,0,110.8,49.6,110.8,110.8S215.8,263,154.6,263S43.8,213.5,43.8,152.2S93.4,41.5,154.6,41.5"/>
<polygon class="st0" points="123.5,70.8 151.5,54 151.5,79.5 126.2,94.4 91.8,94.4 91.8,71.1 "/>
<polygon class="st2" points="97.4,75.9 97.4,89.6 124.9,89.6 146.7,76.8 146.7,62.5 124.9,75.5 "/>
<polygon class="st0" points="91.8,103.1 124.9,103.1 151.5,88.1 151.5,83.4 124.9,98.4 91.8,98.4 "/>
<polygon class="st0" points="91.8,112.9 124.9,112.9 151.5,98 151.5,93.1 124.9,108.1 91.8,108.1 "/>
<polygon class="st0" points="125.2,151.3 161,171.5 161,192.8 153.9,196.5 146.7,192.8 146.7,179.2 125.2,167 125.2,201.5 
	152.3,216.7 152.2,250.5 92.6,217 92.6,148.8 87.1,148.8 87.1,116.4 125.2,116.4 "/>
<polygon class="st2" points="91.9,121.1 97.4,121.1 120.4,121.1 120.4,144.2 120.4,154.2 156.2,174.2 156.2,189.8 153.9,191.2 
	151.5,189.8 151.5,176.3 120.4,158.8 120.4,204.2 147.5,219.5 147.5,242.3 97.4,214.2 97.4,144.2 91.9,144.2 "/>
<polygon class="st0" points="161,135 184,148 184,116.4 222.1,116.4 222.1,148.8 216.6,148.8 216.6,217 157,250.5 156.9,216.7 
	184,201.5 184,163.7 146.7,142.7 146.7,121.4 153.8,117.5 161,121.4 "/>
<polygon class="st2" points="156.2,124.2 156.2,137.8 188.8,156 188.8,144.2 188.8,121.1 211.8,121.1 217.3,121.1 217.3,144.2 
	211.8,144.2 211.8,214.2 161.7,242.3 161.7,219.5 188.8,204.2 188.8,161.5 188,160.3 151.5,139.8 151.5,124.2 153.9,123 "/>
<polygon class="st0" points="184.2,70.8 156.2,54 156.2,79.5 181.5,94.4 215.9,94.4 215.9,71.1 "/>
<polygon class="st2" points="210.3,75.9 210.3,89.6 182.8,89.6 161,76.8 161,62.5 182.8,75.5 "/>
<polygon class="st0" points="215.9,103.1 182.8,103.1 156.2,88.1 156.2,83.4 182.8,98.4 215.9,98.4 "/>
<polygon class="st0" points="215.9,112.9 182.8,112.9 156.2,98 156.2,93.1 182.8,108.1 215.9,108.1 "/>
<path class="st1" d="M65.7,215.2L43.9,237c25.5,33.3,65.6,54.7,110.7,54.7s85.2-21.5,110.7-54.7l-21.8-21.8l1.1-1.1l21.6,21.6
	c17.4-23.3,27.7-52.1,27.7-83.4c0-77-62.4-139.3-139.3-139.3S15.3,75.4,15.3,152.2c0,31.3,10.3,60.2,27.7,83.4L64.7,214L65.7,215.2z
	 M154.6,10.8c78.2,0,141.5,63.4,141.5,141.5s-63.3,141.5-141.5,141.5S13.1,230.3,13.1,152.2S76.4,10.8,154.6,10.8"/>
<path class="st1" d="M23.7,142h-0.4l0.3-4.3h0.5l-0.1,1.5l13,1c0.6,0,1.2,0.3,1.6,0.7c0.5,0.4,0.8,1,1,1.6s0.3,1.3,0.3,1.9
	c0,0.6-0.2,1.3-0.4,2.1c-0.3,0.8-0.5,1.4-0.9,1.8c-0.7,0.8-1.6,1.2-2.8,1.1l-11.3-0.9c-0.8-0.1-1.2,0.5-1.3,1.8h-0.5l0.4-5.2h0.5
	l-0.1,1.6l12.6,1c0.9,0.1,1.6-0.2,2.2-0.9c0.6-0.6,0.9-1.5,1-2.5c0.1-0.9-0.2-1.7-0.7-2.3s-1.2-1-2-1L25.1,140
	c-0.8-0.1-1.2,0.4-1.2,1.4L23.7,142z M39.9,135.3l0.3-1.5l-12.8-2.3c-0.7-0.1-1.2-0.1-1.6,0c-0.5,0.2-0.9,0.7-1.1,1.8l-0.4-0.1
	l0.5-2.7l14.5-5v-0.1l-11.1-2c-0.5-0.1-0.9,0-1.3,0.3s-0.6,0.7-0.7,1.3l-0.4-0.1l0.7-4.1l0.4,0.1l-0.2,1.4l16.3,2.9l-0.1,0.5
	l-14.6,5.1l0,0l10.1,1.8c0.8,0.1,1.4,0,1.7-0.3c0.2-0.3,0.4-0.8,0.5-1.5l0.4,0.1l-0.8,4.5L39.9,135.3z M42.9,120.1l0.5-1.7
	l-13.6-3.9c-0.4-0.1-0.8,0-1,0.2c-0.2,0.3-0.4,0.7-0.6,1.3l-0.4-0.1l1.4-5l0.4,0.1l-0.5,1.6l13.2,3.8c0.4,0.1,0.7,0.2,0.8,0.2
	c0.3,0,0.5-0.1,0.6-0.2c0.1-0.2,0.3-0.7,0.5-1.4l0.4,0.1l-1.4,5.1L42.9,120.1z M47.5,103.5l-9.3-7.8c-0.4-0.3-0.6-0.4-0.7-0.5
	c-0.4-0.2-0.8-0.2-1.1,0c-0.3,0.2-0.5,0.6-0.8,1.1l-0.1,0.3l-0.4-0.2l2.1-4.7l0.4,0.2l-0.7,1.5L50,104.6l-0.2,0.6l-14.8-1
	c-0.9,0-1.5-0.1-2,0c-0.4,0.1-0.8,0.2-1,0.4c-0.2,0.2-0.4,0.5-0.6,0.9l-0.2,0.5l-0.4-0.2l2.4-5.3l0.4,0.2l-0.8,1.9L47.5,103.5z
	 M57.9,88.1L53.4,96L53,95.8l0.9-1.5l-12.2-7c-0.4-0.2-0.8-0.3-1.1-0.1c-0.3,0.2-0.6,0.6-0.9,1.1l-0.4-0.2l4.6-8L43,79.6l0.3-0.5
	l4.7,2.7l-0.3,0.5l-0.8-0.4c-1.2-0.7-2.1-0.8-2.8-0.3c-0.7,0.4-1.4,1.4-2.3,3l-0.4,0.7l3.4,2l1.3-2.2L44,83.8l0.2-0.4l5.2,3
	l-0.2,0.4c-0.6-0.4-1.2-0.6-1.7-0.7s-1,0-1.4,0.4c-0.2,0.2-0.5,0.5-0.8,1.1l9.3,5.4c0.6-1.1,1.1-2.1,1.6-3.1c0.2-0.8,0.2-1.5-0.1-2
	c-0.3-0.5-0.7-1-1.4-1.4l-1.1-0.6l0.3-0.5l5.1,2.9l-0.3,0.5L57.9,88.1z M47.7,73.8L50,71l1.2,1c0.4-2.2,1.2-3.9,2.4-5.4
	c0.9-1.1,2-1.9,3.4-2.5c1.3-0.6,2.6-0.9,3.9-0.8s2.4,0.5,3.3,1.3c1,0.8,1.6,1.9,1.9,3.2c0.3,1.3,0.2,2.6-0.2,3.9
	c-0.4,1.4-1.1,2.7-2,3.9l0,0c0.4-0.2,1.1-0.6,2.3-1.2c1.2-0.6,2.1-1.1,2.8-1.5c0.7-0.5,1.4-1,1.9-1.6c0.4-0.5,0.6-0.9,0.7-1.2h0.3
	c0,0.7-0.4,1.3-1,2c-0.5,0.6-1,1.1-1.7,1.6c-0.6,0.5-1.2,0.9-1.7,1.2c-0.5,0.3-1.4,0.8-2.5,1.5c-2.2,1.2-4.1,2.1-5.7,2.7l1.7,1.5
	c0.3,0.2,0.5,0.4,0.7,0.4s0.4,0,0.6-0.2s0.5-0.5,0.8-0.7c0.1-0.2,0.3-0.4,0.5-0.7l0.3,0.3l-3.8,4.4l-0.3-0.3l1.1-1.2l-10.7-9.3
	c-0.5-0.5-1.2-0.3-1.9,0.5L48.1,74L47.7,73.8z M51.9,72.8l6.7,5.8L58.5,78c2.3-0.7,3.9-1.7,5-2.9c0.8-0.9,1.3-1.9,1.6-3.1
	c0.3-1.1,0.3-2.2,0-3.3c-0.3-1.1-0.8-1.9-1.6-2.6c-0.9-0.7-1.9-1.1-3.1-1.2S58,65,56.9,65.4c-1.2,0.5-2.2,1.2-3.1,2.2
	C52.4,69.1,51.8,70.9,51.9,72.8 M71.2,48l4.1,4.8l-0.4,0.4l-1-1.1c-0.7-0.8-1.4-1.3-2.1-1.6c-0.7-0.3-1.4-0.1-2.2,0.6
	c-0.4,0.3-0.6,0.7-0.8,1.1c-0.2,0.4-0.3,0.8-0.2,1.2c0,0.4,0.2,0.8,0.5,1.1c0.4,0.4,0.9,0.7,1.4,0.8c0.6,0.1,1.2,0,1.8-0.1
	c0.6-0.1,1.5-0.4,2.5-0.7c1.1-0.3,2.1-0.6,2.9-0.8c0.8-0.2,1.6-0.2,2.4,0c0.8,0.1,1.4,0.5,1.9,1.1s0.9,1.3,1,2.1
	c0.1,0.8,0.1,1.6-0.2,2.5c-0.2,0.9-0.6,1.7-1.2,2.5c-0.5,0.8-1.2,1.6-2,2.2c-1,0.9-2.1,1.5-3.2,1.9s-2.2,0.5-3.2,0.3
	s-1.9-0.7-2.6-1.5c-0.5-0.6-0.9-1.4-1-2.2c-0.1-0.8,0-1.7,0.3-2.6s0.9-1.6,1.6-2.2c0.4-0.4,1-0.7,1.6-0.9c0.6-0.2,1.2-0.3,1.8-0.3
	c0.6,0.1,1,0.3,1.4,0.7c0.3,0.4,0.5,0.9,0.4,1.4c-0.1,0.6-0.3,1-0.8,1.4c-0.1,0.1-0.3,0.2-0.6,0.4L75.1,60c0.6-0.7,0.6-1.3,0.1-1.9
	c-0.2-0.2-0.5-0.4-0.9-0.5s-0.8-0.1-1.2,0c-0.4,0.1-0.8,0.3-1.2,0.6c-0.5,0.5-0.9,1-1.1,1.7c-0.2,0.6-0.2,1.3-0.1,1.9
	s0.4,1.2,0.8,1.6c0.6,0.7,1.3,1.1,2.2,1.4c0.9,0.3,1.8,0.3,2.9,0c1-0.2,2-0.8,2.9-1.5c0.8-0.7,1.5-1.5,1.9-2.5
	c0.5-0.9,0.7-1.8,0.6-2.7c0-0.9-0.3-1.7-0.9-2.3c-0.5-0.5-1-0.8-1.7-0.9S78,54.8,77.3,55c-0.8,0.1-1.7,0.4-2.7,0.7
	c-1,0.3-1.8,0.5-2.5,0.6s-1.4,0.1-2,0s-1.2-0.5-1.6-1c-0.6-0.7-0.8-1.5-0.5-2.6c0.2-1,0.8-1.9,1.6-2.7c0.4-0.3,1-0.7,1.8-1l-0.6-0.7
	L71.2,48z M87.5,56.9l1.4-1l-8.2-11.5c-0.3-0.4-0.6-0.5-0.9-0.5c-0.4,0.1-0.8,0.3-1.3,0.7l-0.3-0.4l4.3-3l0.3,0.4l-1.4,1l8,11.2
	c0.2,0.3,0.4,0.6,0.5,0.6c0.2,0.2,0.4,0.2,0.6,0.2c0.2-0.1,0.7-0.3,1.3-0.8l0.3,0.4l-4.3,3L87.5,56.9z M94.5,51.9l1.6-0.8l-6.4-12.5
	c-0.4-0.7-1-0.8-1.9-0.3l-0.3,0.2l-0.2-0.4l7.2-3.7c1.4-0.7,2.7-1.2,3.9-1.4c1.2-0.2,2.3-0.2,3.4,0c0.7,0.2,1.4,0.4,2.1,0.7
	c0.7,0.3,1.3,0.7,1.8,1.2s1,1.1,1.3,1.7c0.9,1.9,1,3.8,0.3,5.9c-0.3,0.8-0.7,1.6-1.1,2.4c-0.5,0.7-1.2,1.5-2.1,2.3s-2.1,1.5-3.5,2.2
	l-5.7,2.9L94.5,51.9z M105.4,37.4c-0.6-1.1-1.6-2-2.8-2.6c-1.2-0.6-2.6-0.9-4.1-0.9s-2.9,0.4-4.3,1.1c-1.6,0.8-2.8,1.6-3.4,2.3
	l6.4,12.6c1.1-0.2,2.5-0.7,4.2-1.6c1.4-0.7,2.5-1.7,3.4-2.9c0.8-1.2,1.3-2.6,1.4-4C106.3,39.9,106.1,38.5,105.4,37.4 M124.2,39.4
	l-6.4-8.6l-2.3,0.7l-0.1,7.5c0,0.7,0,1.3,0.2,1.8c0.1,0.4,0.3,0.6,0.5,0.7s0.6,0.1,1,0c0.3,0,0.7-0.1,1.3-0.3l0.1,0.4l-5,1.4
	l-0.1-0.4l1.2-0.3V25.1l0.5-0.1l8.5,11.5c0.3,0.4,0.6,0.8,0.9,1.3c0.3,0.4,0.7,0.8,1.1,1s0.9,0.3,1.4,0.1l0.1,0.4l-4.6,1.3l-0.1-0.4
	L124.2,39.4z M117.5,30.1l-1.9-2.7h-0.1v3.3L117.5,30.1z M129.7,37.5l1.7-0.2l-1.8-14c-0.1-0.8-0.7-1.1-1.7-1h-0.4l-0.1-0.4l8-1
	c1.6-0.2,2.9-0.2,4.1,0s2.2,0.6,3.2,1.2c0.6,0.4,1.2,0.9,1.7,1.4s0.9,1.1,1.3,1.8c0.3,0.6,0.6,1.3,0.6,2c0.2,2.1-0.3,4-1.7,5.7
	c-0.6,0.7-1.2,1.3-1.9,1.9c-0.7,0.5-1.6,1-2.7,1.4s-2.4,0.7-4,0.9l-6.4,0.8L129.7,37.5z M144.9,27.6c-0.2-1.3-0.8-2.4-1.8-3.4
	s-2.1-1.7-3.6-2.2c-1.4-0.5-2.9-0.6-4.4-0.4c-1.8,0.2-3.1,0.6-4,1l1.8,14c1.1,0.2,2.6,0.2,4.5-0.1c1.6-0.2,2.9-0.7,4.1-1.6
	s2.1-2,2.7-3.3C144.9,30.4,145.1,29,144.9,27.6 M160,35.1l1.7,0.2l1.8-14c0.1-0.8-0.4-1.2-1.4-1.4h-0.4l0.1-0.4l8,1
	c1.6,0.2,2.9,0.5,4,1s2,1.1,2.8,1.9c0.5,0.5,0.9,1.1,1.3,1.8c0.4,0.7,0.6,1.3,0.8,2c0.2,0.7,0.2,1.4,0.1,2.1
	c-0.3,2.1-1.3,3.7-3.1,5.1c-0.7,0.5-1.5,1-2.3,1.3s-1.8,0.6-3,0.7s-2.5,0.1-4.1-0.1l-6.4-0.8L160,35.1z M177.2,29.4
	c0.1-1.3-0.2-2.5-0.9-3.8c-0.7-1.2-1.6-2.2-2.9-3.1c-1.3-0.8-2.6-1.3-4.2-1.5c-1.8-0.2-3.2-0.2-4.1,0l-1.8,14c1,0.5,2.5,0.8,4.3,1.1
	c1.6,0.2,3,0,4.4-0.5c1.4-0.6,2.5-1.4,3.4-2.5C176.5,32,177,30.8,177.2,29.4 M189.9,41.5l-8.7-2.5l0.1-0.4l1.7,0.5l3.8-13.5
	c0.1-0.5,0.1-0.8-0.2-1c-0.3-0.2-0.7-0.4-1.3-0.6l0.1-0.4l8.8,2.5l0.3-1l0.5,0.1l-1.5,5.3l-0.5-0.1l0.2-0.8c0.4-1.3,0.2-2.2-0.4-2.8
	c-0.6-0.5-1.7-1-3.5-1.5l-0.7-0.2l-1.1,3.8l2.4,0.7l0.7-2.3l0.4,0.1l-1.6,5.7L189,33c0.2-0.7,0.3-1.3,0.3-1.8s-0.2-0.9-0.7-1.2
	c-0.2-0.2-0.6-0.3-1.2-0.5l-2.9,10.3c1.2,0.3,2.3,0.6,3.4,0.8c0.8,0,1.5-0.2,1.9-0.6s0.8-1,1-1.7l0.3-1.2l0.5,0.1l-1.6,5.7l-0.5-0.1
	L189.9,41.5z M213.9,34l-0.2,0.4l-1.5-0.8l-7,13.6c0.9,0.4,1.6,0.8,2.3,1c0.7,0.2,1.4,0.3,2,0.2c0.6-0.1,1.1-0.4,1.5-1.1l1.8-3.5
	l0.5,0.2l-3.6,7l-0.5-0.2l0.4-0.9L202,46l0.2-0.4l1.5,0.8l6.5-12.6c0.2-0.4,0.2-0.7,0-1s-0.6-0.6-1.1-0.8l0.2-0.4L213.9,34z
	 M222.9,57.5l2.3-10.5l-2-1.3l-5.7,4.9c-0.5,0.4-0.9,0.9-1.2,1.3c-0.2,0.3-0.3,0.6-0.2,0.8c0.1,0.2,0.3,0.5,0.7,0.8
	c0.2,0.2,0.6,0.4,1.1,0.7l-0.2,0.4l-4.4-2.8l0.2-0.4l1,0.7l12.9-11.4l0.5,0.3l-3,14c-0.1,0.5-0.2,1-0.3,1.5c-0.1,0.5-0.1,1,0,1.5
	s0.4,0.8,0.8,1.1l-0.2,0.4l-4-2.6l0.2-0.4L222.9,57.5z M225.3,46.4l0.8-3.3l0,0l-2.5,2.2L225.3,46.4z M253.5,62.9l-4.6,4.3l-0.4-0.4
	l1.1-1c0.8-0.7,1.3-1.4,1.5-2.1c0.3-0.7,0-1.4-0.7-2.2c-0.4-0.3-0.8-0.6-1.2-0.8c-0.4-0.2-0.8-0.2-1.2-0.2c-0.4,0.1-0.8,0.2-1,0.5
	c-0.4,0.4-0.7,0.9-0.7,1.5c-0.1,0.6,0,1.2,0.2,1.8c0.2,0.6,0.4,1.4,0.8,2.5c0.4,1.1,0.7,2.1,0.9,2.9s0.2,1.6,0.1,2.4
	c-0.1,0.8-0.5,1.4-1,2c-0.6,0.6-1.3,0.9-2,1.1c-0.8,0.2-1.6,0.1-2.5,0c-0.9-0.2-1.7-0.5-2.5-1s-1.6-1.1-2.3-1.8c-0.9-1-1.6-2-2-3.1
	c-0.5-1.1-0.6-2.2-0.5-3.2s0.6-1.9,1.4-2.6c0.6-0.6,1.3-0.9,2.2-1.1c0.8-0.2,1.7-0.1,2.6,0.2c0.9,0.3,1.6,0.8,2.3,1.5
	c0.4,0.4,0.7,0.9,1,1.5s0.4,1.2,0.4,1.7c0,0.6-0.2,1-0.6,1.4c-0.4,0.4-0.8,0.5-1.4,0.5c-0.6,0-1.1-0.3-1.5-0.7
	c-0.1-0.1-0.2-0.3-0.4-0.6l0.4-0.3c0.7,0.5,1.3,0.5,1.9,0c0.2-0.2,0.4-0.5,0.5-0.9s0-0.8-0.1-1.2c-0.1-0.4-0.4-0.8-0.7-1.2
	c-0.5-0.5-1.1-0.9-1.7-1c-0.7-0.2-1.3-0.2-1.9,0c-0.6,0.2-1.2,0.5-1.6,0.8c-0.6,0.6-1.1,1.4-1.3,2.3s-0.2,1.9,0.1,2.9
	s0.9,1.9,1.7,2.8c0.7,0.8,1.6,1.4,2.5,1.8c1,0.4,1.9,0.6,2.8,0.5c0.9-0.1,1.6-0.4,2.3-1c0.5-0.5,0.7-1.1,0.8-1.8
	c0.1-0.7,0-1.4-0.2-2.1s-0.5-1.6-0.8-2.7c-0.4-1-0.6-1.8-0.8-2.4c-0.2-0.7-0.2-1.3-0.1-2c0.1-0.6,0.4-1.2,0.9-1.7
	c0.7-0.6,1.5-0.8,2.5-0.6c1,0.2,1.9,0.7,2.8,1.5c0.3,0.4,0.7,1,1.1,1.8l0.7-0.7L253.5,62.9z M250.5,87.1l-5.3-7.4l0.4-0.3l1,1.4
	l11.5-8.2c0.4-0.3,0.6-0.6,0.5-0.9s-0.3-0.8-0.6-1.3l0.4-0.3l5.3,7.5l0.8-0.6l0.3,0.4l-4.4,3.2l-0.3-0.4l0.7-0.5
	c1.1-0.8,1.6-1.6,1.4-2.4c-0.1-0.8-0.7-1.9-1.8-3.4l-0.4-0.6l-3.2,2.3l1.5,2.1l2-1.4l0.3,0.4l-4.8,3.4l-0.3-0.4
	c0.6-0.4,1-0.8,1.4-1.2c0.3-0.4,0.4-0.9,0.2-1.4c-0.1-0.3-0.3-0.6-0.6-1.1l-8.8,6.2c0.7,1,1.4,1.9,2.2,2.7c0.7,0.5,1.3,0.8,1.9,0.7
	c0.6,0,1.2-0.3,1.8-0.7l1-0.7l0.3,0.4l-4.8,3.4l-0.3-0.4L250.5,87.1z M267.7,83.1l1.6,3.1l-1.4,0.7c1.8,1.2,3.2,2.6,4.1,4.3
	c0.6,1.3,1,2.6,1.1,4s-0.2,2.7-0.7,3.9c-0.5,1.2-1.3,2-2.4,2.6c-1.1,0.6-2.4,0.8-3.6,0.6c-1.3-0.2-2.5-0.8-3.6-1.6
	c-1.1-0.9-2.1-2-2.8-3.3l0,0c0.1,0.4,0.1,1.3,0.2,2.5c0.1,1.3,0.2,2.3,0.4,3.2c0.2,0.9,0.4,1.6,0.8,2.4c0.3,0.5,0.6,0.9,0.8,1.1
	l-0.1,0.3c-0.6-0.3-1.1-0.8-1.5-1.7c-0.3-0.7-0.6-1.4-0.8-2.1c-0.2-0.8-0.4-1.4-0.5-2s-0.3-1.6-0.5-2.9c-0.2-2.5-0.4-4.6-0.4-6.3
	l-2,1c-0.3,0.2-0.5,0.3-0.6,0.5s-0.1,0.3-0.1,0.6c0.1,0.3,0.2,0.6,0.4,1c0.1,0.2,0.3,0.4,0.4,0.8l-0.4,0.2l-2.7-5.2l0.4-0.2l0.7,1.5
	l12.6-6.5c0.6-0.3,0.7-1,0.2-1.9l-0.1-0.2L267.7,83.1z M267.1,87.5l-7.9,4l0.5,0.1c-0.2,2.4,0.1,4.3,0.8,5.7
	c0.5,1.1,1.3,1.9,2.2,2.6c1,0.7,2,1.1,3,1.2c1.1,0.1,2.1,0,3-0.5c1-0.5,1.7-1.3,2.3-2.4s0.8-2.2,0.8-3.5s-0.3-2.5-0.9-3.7
	C270.2,89.1,268.8,88,267.1,87.5 M265.3,118.6l-2.9-8.6l0.4-0.1l0.6,1.7l13.3-4.5c0.5-0.2,0.7-0.4,0.7-0.8c0-0.3,0-0.8-0.2-1.4
	l0.4-0.1l2.9,8.7l1-0.3l0.2,0.5l-5.2,1.7l-0.2-0.5l0.8-0.3c1.3-0.4,2-1.1,2.1-1.9s-0.1-2-0.7-3.7l-0.2-0.7l-3.8,1.3l0.8,2.4l2.3-0.8
	l0.1,0.4l-5.6,1.9l-0.1-0.4c0.7-0.2,1.2-0.5,1.7-0.8c0.4-0.3,0.6-0.7,0.6-1.3c0-0.3-0.1-0.7-0.3-1.3l-10.2,3.4
	c0.4,1.2,0.8,2.2,1.3,3.2c0.5,0.7,1,1.1,1.6,1.2s1.2,0.1,2-0.2l1.2-0.4l0.2,0.5l-5.6,1.9l-0.2-0.5L265.3,118.6z M267.3,123l0.3,1.5
	l12.8-2.3c0.7-0.1,1.2-0.3,1.5-0.5c0.4-0.3,0.6-1,0.4-2l0.4-0.1l0.5,2.7l-11.9,9.7v0.1l11.1-2c0.5-0.1,0.8-0.3,1.1-0.8
	c0.2-0.4,0.3-0.9,0.2-1.5l0.4-0.1l0.7,4.1l-0.4,0.1l-0.2-1.4l-16.3,2.9l-0.1-0.5l12-9.9l0,0l-10.1,1.8c-0.8,0.1-1.3,0.4-1.5,0.9
	c-0.1,0.4-0.1,0.9,0,1.6l-0.4,0.1l-0.8-4.5L267.3,123z M270.7,149l9.7-4.5l-0.2-2.4l-7.3-1.6c-0.7-0.1-1.3-0.2-1.8-0.2
	c-0.4,0-0.6,0.1-0.8,0.4c-0.1,0.2-0.2,0.6-0.2,1c0,0.3,0,0.7,0,1.3h-0.5l-0.4-5.2h0.5l0.1,1.2l16.9,3.4v0.5l-12.9,6
	c-0.5,0.2-0.9,0.4-1.4,0.6c-0.5,0.2-0.9,0.5-1.2,0.9s-0.4,0.8-0.4,1.3h-0.5l-0.4-4.8h0.4L270.7,149z M281,144.2l3.1-1.4v-0.1
	l-3.3-0.6L281,144.2z"/>
<path class="st1" d="M132.4,268.8l0.3-1.4l0.5,0.1l-1.4,6.3l-0.5-0.1c0.3-1.1,0.4-2,0.4-2.6s-0.2-1.2-0.6-1.7s-1-1-1.8-1.4
	s-1.7-0.8-2.6-1c-1.7-0.4-3.4-0.4-4.9,0s-2.8,1.1-3.7,2.1c-1,1-1.6,2.1-1.9,3.4c-0.2,1-0.2,2.1,0,3.2c0.2,1.1,0.7,2.1,1.3,3.1
	c0.6,1,1.5,1.8,2.5,2.5s2.2,1.2,3.4,1.5c1.3,0.3,2.6,0.4,3.7,0.2c1.2-0.2,2.2-0.5,3.1-1l0.4,0.7c-1.1,0.5-2.4,0.8-3.7,0.9
	c-1.4,0.1-2.7,0-4-0.2c-1.9-0.4-3.5-1.2-4.9-2.3s-2.4-2.4-3.1-3.9c-0.6-1.5-0.8-3-0.4-4.5c0.3-1.2,0.8-2.3,1.7-3.2
	c0.8-0.9,1.9-1.7,3.1-2.2s2.5-0.9,4-1c1.4-0.1,2.8,0,4.2,0.3C129.3,267,130.9,267.7,132.4,268.8 M154.8,286.2h1.7l-0.4-14.4
	c0-0.5-0.2-0.8-0.5-0.9c-0.3-0.1-0.8-0.2-1.5-0.2v-0.5l5.3-0.1v0.5h-1.7l0.4,14c0,0.4,0,0.7,0.1,0.8c0.1,0.3,0.2,0.4,0.4,0.6
	c0.2,0.1,0.7,0.1,1.5,0.1v0.5l-5.3,0.1V286.2z M168.5,269.5l0.1,0.5l-1.7,0.2l2,15.4c1-0.1,1.8-0.3,2.5-0.5s1.3-0.5,1.8-1
	c0.5-0.4,0.7-1,0.6-1.7l-0.5-4l0.5-0.1l1,8l-0.5,0.1l-0.1-1l-8.6,1.1l-0.1-0.5l1.7-0.2l-1.8-14.3c-0.1-0.4-0.3-0.7-0.6-0.8
	c-0.3-0.1-0.8-0.1-1.4,0l-0.1-0.5L168.5,269.5z M189.8,282.2l-9,2.1l-0.1-0.5l1.7-0.4l-3.2-13.9c-0.1-0.5-0.3-0.7-0.7-0.8
	c-0.3-0.1-0.8-0.1-1.4,0.1l-0.1-0.4l9.1-2.1l-0.2-1l0.5-0.1l1.2,5.4l-0.5,0.1l-0.2-0.9c-0.3-1.3-0.9-2.1-1.7-2.3
	c-0.8-0.2-2.1-0.1-3.9,0.3l-0.7,0.2l0.9,3.9l2.5-0.6l-0.6-2.4l0.5-0.1l1.4,5.9l-0.5,0.1c-0.2-0.7-0.4-1.3-0.6-1.8
	c-0.3-0.5-0.7-0.7-1.2-0.7c-0.3,0-0.7,0-1.3,0.1l2.5,10.6c1.2-0.3,2.3-0.6,3.4-1c0.7-0.4,1.2-0.9,1.4-1.5c0.2-0.6,0.2-1.2,0-2
	l-0.3-1.2l0.5-0.1l1.3,5.8L190,283L189.8,282.2z M148.1,270.3l-1.1,14.2c0,0.5,0,0.8,0.2,1s0.6,0.3,1.2,0.4c0.1,0,0.3,0,0.5,0v0.5
	l-5.3-0.4v-0.5l1.7,0.1l0.8-10.8l-6.3-0.5l-0.7,9.6c0,0.6,0.1,1,0.4,1.2c0.2,0.1,0.7,0.2,1.4,0.2v0.5l-5.3-0.4v-0.5l1.7,0.1
	l1.1-14.3c0.1-0.8-0.5-1.2-1.5-1.3h-0.4v-0.5l5.3,0.4v0.5l-1.7-0.1l-0.3,4.1l6.3,0.5l0.2-2.9c0-0.4-0.1-0.7-0.4-0.9
	s-0.6-0.3-1.1-0.4h-0.4v-0.5l5.3,0.4v0.5L148.1,270.3z"/>
<path class="st3" d="M398.5,132.8c0,11,7.8,18.6,19.6,18.6c11.7,0,19.5-7.6,19.5-18.6V110c0-1,0.6-1.5,1.5-1.5h3v-7.8h-9
	c-3.4,0-4.8,1.5-4.8,4.8v26.9c0,6.6-4.1,10.4-10.4,10.4c-6.2,0-10.4-3.8-10.4-10.3v-27c0-3.3-1.4-4.8-4.8-4.8h-9v7.8h3
	c1,0,1.5,0.6,1.5,1.5v22.7H398.5z M446,150.5h9c3.4,0,4.8-1.4,4.8-4.8V123c0-2.9-0.5-7-0.5-7h0.1c0,0,2.2,4.2,4.1,7l18.9,27.4h8.2
	V110c0-1,0.6-1.5,1.5-1.5h3v-7.7h-9c-3.4,0-4.8,1.5-4.8,4.8v22.8c0,2.9,0.5,7,0.5,7h-0.1c0,0-2.2-4.1-4.1-7l-18.8-27.6h-8.3v40.4
	c0,1-0.6,1.5-1.5,1.5h-3V150.5z M500.2,150.5h18.6v-7.8h-5v-34.2h5v-7.7h-18.6v7.8h5v34.2h-5V150.5z M540.6,150.5h9.7l14.8-40.4
	c0.4-1.2,1-1.5,2.2-1.5h1.3v-7.8h-5.9c-3.5,0-4.7,0.9-5.8,4.1l-9.5,27.7c-1,2.8-1.9,7.3-1.9,7.3h-0.1c0,0-0.9-4.5-1.9-7.3l-9.5-27.8
	c-1.1-3.2-2.4-4.1-5.9-4.1h-5.8v7.8h1.3c1.2,0,1.7,0.3,2.2,1.5L540.6,150.5z M576.3,145.7c0,3.4,1.4,4.8,4.8,4.8h22.5
	c3.3,0,4.8-1.4,4.8-4.8v-7.6h-8.3v3c0,1-0.6,1.5-1.5,1.5H587c-1,0-1.5-0.6-1.5-1.5v-11.8h16.1v-7.8h-16.1v-13h11.2
	c1,0,1.5,0.6,1.5,1.5v3h8.3v-7.6c0-3.3-1.5-4.8-4.8-4.8h-30v7.8h4.6V145.7z M616.8,150.5h9.2v-18.6h4.6c2.6,0,3.6,0.3,4.7,2.3
	l6.4,12.5c1.6,3.2,3.2,3.7,6.9,3.7h4.8v-7.8h-0.9c-1.5,0-2.7-0.1-3.5-1.6l-4.8-9.6c-0.9-1.8-2.5-2.5-2.5-2.5v-0.1
	c2.1-0.4,8.3-4.1,8.3-13.1c0-9.4-6.4-15-15.5-15h-22.3v7.8h4.6V150.5z M626,124v-15.5h7.4c4.5,0,7.2,2.8,7.2,7.7
	c0,5-2.7,7.8-7.4,7.8H626z M656.3,143.5c0,0,6.1,7.7,17.1,7.7c10.4,0,16.5-6.7,16.5-14.6c0-16.3-23.4-14.6-23.4-23.1
	c0-3.2,3.1-5.3,7.3-5.3c3.3,0,6.6,1.5,6.6,3.8v2.2h8.3v-4.6c0-7.1-9-9.8-14.8-9.8c-9.6,0-16.6,6-16.6,14c0,15.5,23.4,14.8,23.4,23.2
	c0,3.8-3.4,5.9-7.1,5.9c-6.9,0-12-5.9-12-5.9L656.3,143.5z M695.2,150.5h18.6v-7.8h-5v-34.2h5v-7.7h-18.6v7.8h5v34.2h-5V150.5z
	 M723.4,145.7c0,3.4,1.4,4.8,4.8,4.8h10.9c15.3,0,25.3-9.2,25.3-24.9s-10-24.8-25.3-24.8h-20.2v7.8h4.5V145.7z M732.6,141.2v-32.6h6
	c9.8,0,16.3,6,16.3,17c0,11.2-6.4,17.2-16.3,17.2h-4.5C733.1,142.7,732.6,142.2,732.6,141.2 M766.4,150.5h5.5c3.5,0,4.7-0.9,5.8-4.1
	l3.1-8.7h16.8l3.1,8.7c1.1,3.2,2.4,4.1,5.9,4.1h5.5v-7.8H811c-1.2,0-1.7-0.3-2.2-1.5l-14.7-40.4h-9.6l-14.8,40.4
	c-0.4,1.3-1,1.5-2.2,1.5h-1.1L766.4,150.5L766.4,150.5z M782.9,130.2l4.3-12.5c0.9-2.7,2-7.4,2-7.4h0.1c0,0,1.1,4.7,2,7.4l4.3,12.5
	H782.9z M819.8,145.7c0,3.4,1.4,4.8,4.8,4.8h10.9c15.3,0,25.3-9.2,25.3-24.9s-10-24.8-25.3-24.8h-20.2v7.8h4.6v37.1H819.8z
	 M828.9,141.2v-32.6h6c9.8,0,16.3,6,16.3,17c0,11.2-6.4,17.2-16.3,17.2h-4.5C829.5,142.7,828.9,142.2,828.9,141.2 M888.4,145.7
	c0,3.4,1.4,4.8,4.8,4.8h10.9c15.3,0,25.3-9.2,25.3-24.9s-10-24.8-25.3-24.8h-20.2v7.8h4.6v37.1H888.4z M897.5,141.2v-32.6h6
	c9.8,0,16.3,6,16.3,17c0,11.2-6.4,17.2-16.3,17.2H899C898.1,142.7,897.5,142.2,897.5,141.2 M938.4,145.7c0,3.4,1.4,4.8,4.8,4.8h22.5
	c3.3,0,4.8-1.4,4.8-4.8v-7.6h-8.3v3c0,1-0.6,1.5-1.5,1.5h-11.5c-1,0-1.5-0.6-1.5-1.5v-11.8h16.1v-7.8h-16.1v-13h11.2
	c1,0,1.5,0.6,1.5,1.5v3h8.3v-7.6c0-3.3-1.5-4.8-4.8-4.8h-30v7.8h4.5V145.7z M997.5,145.7c0,3.4,1.4,4.8,4.8,4.8h21.9
	c3.4,0,4.8-1.4,4.8-4.8v-7.6h-8.3v3c0,1-0.6,1.5-1.5,1.5h-10.8c-1,0-1.5-0.6-1.5-1.5v-35.6c0-3.3-1.4-4.8-4.8-4.8h-9v7.8h3
	c1,0,1.5,0.6,1.5,1.5L997.5,145.7L997.5,145.7z M1031.1,150.5h5.5c3.5,0,4.7-0.9,5.8-4.1l3.1-8.7h16.8l3.1,8.7
	c1.1,3.2,2.4,4.1,5.9,4.1h5.5v-7.8h-1.1c-1.2,0-1.7-0.3-2.2-1.5l-14.7-40.4h-9.6l-14.8,40.4c-0.4,1.3-1,1.5-2.2,1.5h-1.1
	L1031.1,150.5L1031.1,150.5z M1047.6,130.2l4.3-12.5c0.9-2.7,2-7.4,2-7.4h0.1c0,0,1.1,4.7,2,7.4l4.3,12.5H1047.6z M1098.3,143.5
	c0,0,6.1,7.7,17.1,7.7c10.4,0,16.5-6.7,16.5-14.6c0-16.3-23.4-14.6-23.4-23.1c0-3.2,3.1-5.3,7.3-5.3c3.3,0,6.6,1.5,6.6,3.8v2.2h8.3
	v-4.6c0-7.1-9-9.8-14.8-9.8c-9.6,0-16.6,6-16.6,14c0,15.5,23.4,14.8,23.4,23.2c0,3.8-3.4,5.9-7.1,5.9c-6.9,0-12-5.9-12-5.9
	L1098.3,143.5z M1141.4,145.7c0,3.4,1.4,4.8,4.8,4.8h22.5c3.3,0,4.8-1.4,4.8-4.8v-7.6h-8.3v3c0,1-0.6,1.5-1.5,1.5h-11.5
	c-1,0-1.5-0.6-1.5-1.5v-11.8h16.1v-7.8h-16.1v-13h11.2c1,0,1.5,0.6,1.5,1.5v3h8.3v-7.6c0-3.3-1.5-4.8-4.8-4.8h-30v7.8h4.6
	L1141.4,145.7L1141.4,145.7z M1181.9,150.5h9.2v-18.6h4.6c2.6,0,3.6,0.3,4.7,2.3l6.4,12.5c1.6,3.2,3.2,3.7,6.9,3.7h4.8v-7.8h-0.9
	c-1.5,0-2.7-0.1-3.5-1.6l-4.8-9.6c-0.9-1.8-2.4-2.5-2.4-2.5v-0.1c2.1-0.4,8.3-4.1,8.3-13.1c0-9.4-6.4-15-15.5-15h-22.3v7.8h4.6
	L1181.9,150.5L1181.9,150.5z M1191.1,124v-15.5h7.4c4.5,0,7.2,2.8,7.2,7.7c0,5-2.7,7.8-7.4,7.8H1191.1z M1226.1,145.7
	c0,3.4,1.4,4.8,4.8,4.8h22.5c3.3,0,4.8-1.4,4.8-4.8v-7.6h-8.3v3c0,1-0.6,1.5-1.5,1.5h-11.5c-1,0-1.5-0.6-1.5-1.5v-11.8h16.1v-7.8
	h-16.1v-13h11.2c1,0,1.5,0.6,1.5,1.5v3h8.3v-7.6c0-3.3-1.5-4.8-4.8-4.8h-30v7.8h4.6L1226.1,145.7L1226.1,145.7z M1262.1,150.5h9
	c3.4,0,4.8-1.4,4.8-4.8V123c0-2.9-0.5-7-0.5-7h0.1c0,0,2.2,4.2,4.1,7l18.9,27.4h8.2V110c0-1,0.6-1.5,1.5-1.5h3v-7.7h-9
	c-3.4,0-4.8,1.5-4.8,4.8v22.8c0,2.9,0.5,7,0.5,7h-0.1c0,0-2.2-4.1-4.1-7l-18.8-27.5h-8.3v40.4c0,1-0.6,1.5-1.5,1.5h-3L1262.1,150.5
	L1262.1,150.5z M1314.4,150.5h5.5c3.5,0,4.7-0.9,5.8-4.1l3.1-8.7h16.8l3.1,8.7c1.1,3.2,2.4,4.1,5.9,4.1h5.5v-7.8h-1.1
	c-1.2,0-1.8-0.3-2.2-1.5l-14.8-40.4h-9.6l-14.8,40.4c-0.4,1.3-1,1.5-2.2,1.5h-1.1L1314.4,150.5L1314.4,150.5z M1330.9,130.2
	l4.3-12.5c0.9-2.7,2-7.4,2-7.4h0.1c0,0,1.1,4.7,2,7.4l4.3,12.5H1330.9z"/>
<path class="st3" d="M404,202h3v-27.6h7.5c0.6,0,0.9,0.3,0.9,0.9v2h2.8v-3.2c0-1.9-0.6-2.5-2.5-2.5h-20.5c-1.9,0-2.5,0.6-2.5,2.5
	v3.2h2.8v-2c0-0.7,0.3-0.9,0.9-0.9h7.5L404,202L404,202z M420.6,194c0,5.6,2.2,8.4,7.3,8.4c4.7,0,7.6-3.4,8.4-5.5h0.1
	c0,0-0.1,0.7-0.1,1.6v1c0,1.6,0.8,2.4,2.6,2.4h3v-2.5h-1.8c-0.6,0-0.9-0.3-0.9-1v-18.2h-2.9v10.4c0,4.7-3.1,9-8,9
	c-4.2,0-4.7-3-4.7-6.4v-10.5c0-1.8-0.8-2.5-2.6-2.5h-3.1v2.5h1.8c0.6,0,0.9,0.3,0.9,0.9V194z M458.9,191.5c0,6.5,4.5,10.9,11.2,10.9
	s11.2-4.4,11.2-10.9v-16.3c0-0.6,0.3-0.9,1-0.9h1.9v-2.7H481c-1.9,0-2.6,0.8-2.6,2.6v17.1c0,5.1-3.2,8.3-8.2,8.3s-8.1-3.1-8.1-8.2
	v-17.1c0-1.9-0.8-2.6-2.6-2.6h-3.2v2.7h1.9c0.6,0,0.9,0.3,0.9,0.9v16.2H458.9z M489.3,202h2.9v-10.4c0-1,0.1-2,0.3-2.9
	c1-3.6,4.2-6.1,7.9-6.1c4.2,0,4.7,3,4.7,6.4v10.4c0,1.9,0.8,2.6,2.6,2.6h3.1v-2.5H509c-0.6,0-0.9-0.3-0.9-1v-10.3
	c0-5.3-1.9-8.4-7.3-8.4c-5.1,0-7.8,3.5-8.6,5.5h-0.1c0,0,0.1-0.7,0.1-1.6v-1c0-1.6-0.8-2.4-2.6-2.4h-3v2.5h1.8
	c0.6,0,0.9,0.3,0.9,0.9L489.3,202L489.3,202z M515.6,175.3h2.8v-3.7h-2.8V175.3z M515.7,199.3c0,1.9,0.8,2.6,2.6,2.6h3.1v-2.5h-1.8
	c-0.6,0-0.9-0.3-0.9-1v-15.6c0-1.9-0.8-2.6-2.6-2.6H513v2.5h1.8c0.6,0,0.9,0.3,0.9,0.9V199.3z M532.1,202h3.2l7.1-18.1
	c0.3-0.8,0.7-1,1.5-1h0.4v-2.5h-1.1c-2,0-2.7,0.4-3.4,2.4l-5.2,13.5c-0.4,1.1-0.7,2.5-0.7,2.5h-0.1c0,0-0.3-1.5-0.7-2.5l-5.2-13.5
	c-0.7-1.9-1.4-2.4-3.4-2.4h-1.2v2.5h0.4c0.8,0,1.2,0.2,1.5,1L532.1,202z M546.2,191.2c0,6.7,4.9,11.3,11.3,11.3
	c4.9,0,8.1-3.1,8.1-3.1l-1.4-2.2c0,0-2.5,2.7-6.5,2.7c-4.5,0-8.3-3.1-8.4-8.6h16.6c0,0,0.1-0.9,0.1-1.5c0-5.4-3.1-10-9.1-10
	C551,179.8,546.2,184,546.2,191.2 M549.4,188.8c0.7-4.4,3.9-6.7,7.5-6.7c3.2,0,5.9,2.2,6.1,6.7H549.4z M571.8,202h2.9v-9.1
	c0-1.4,0.2-2.8,0.6-4.2c1-3.2,3.2-5.6,6.3-5.6c0.6,0,1.1,0.1,1.1,0.1v-2.9c0,0-0.6-0.1-1.2-0.1c-3.4,0-5.8,2.5-6.9,5.8h-0.1
	c0,0,0.1-0.7,0.1-1.6v-1.6c0-1.7-0.8-2.5-2.6-2.5h-3v2.5h1.8c0.6,0,0.9,0.3,0.9,0.9V202H571.8z M584.9,198.7c0,0,2.7,3.8,8.3,3.8
	c4.3,0,7.6-2.5,7.6-6.1c0-7.2-12.2-6.1-12.2-10.9c0-2.1,1.8-3.1,4.8-3.1c1.4,0,3.7,0.6,3.7,2.2v1h2.8v-1.9c0-3.1-4.4-3.9-6.6-3.9
	c-4.4,0-7.7,1.9-7.7,5.9c0,7,12.1,6.1,12.1,10.9c0,2.3-2.2,3.4-4.6,3.4c-4.3,0-6.7-3.3-6.7-3.3L584.9,198.7z M606.5,175.3h2.8v-3.7
	h-2.8V175.3z M606.6,199.3c0,1.9,0.8,2.6,2.6,2.6h3.1v-2.5h-1.8c-0.6,0-0.9-0.3-0.9-1v-15.6c0-1.9-0.8-2.6-2.6-2.6h-3.1v2.5h1.8
	c0.6,0,1,0.3,1,0.9L606.6,199.3L606.6,199.3z M615.3,191.2c0,6.7,3.6,11.4,9.4,11.4c5.7,0,7.5-4.3,7.5-4.3h0.1c0,0-0.1,0.6-0.1,1.4
	c0,1.6,0.8,2.4,2.6,2.4h3v-2.5H636c-0.6,0-0.9-0.3-0.9-1v-24.2c0-1.9-0.8-2.6-2.6-2.6h-3.1v2.5h1.8c0.6,0,0.9,0.3,0.9,0.9v7
	c0,0.9,0.1,1.6,0.1,1.6h-0.1c0,0-1.8-4.1-7.1-4.1C619.3,179.8,615.3,184.2,615.3,191.2 M625.1,199.8c-4,0-6.9-3.4-6.9-8.7
	c0-5.5,3.1-8.7,7-8.7c4.7,0,6.9,4.3,6.9,8.7C632.1,197.2,628.7,199.8,625.1,199.8 M640.5,196c0,4.3,3.7,6.4,7.4,6.4
	c5.4,0,7.2-4.7,7.2-4.7h0.1c0,0,0,0.6,0,1.6c0,1.8,0.7,2.6,2.6,2.6h3v-2.5H659c-0.6,0-0.9-0.3-0.9-1V188c0-4.7-1.6-8.3-8.5-8.3
	c-1.9,0-7.1,0.6-7.1,3.7v2.1h2.8v-1.4c0-1.6,3.1-1.9,4.2-1.9c4,0,5.6,1.6,5.6,6.1v0.3h-1.2C650,188.7,640.5,188.8,640.5,196
	 M643.5,195.8c0-4.9,6.8-5,10.2-5h1.2v1c0,3.7-2.5,8.1-6.6,8.1C645.1,200,643.5,198,643.5,195.8 M663.4,191.2
	c0,6.7,3.6,11.4,9.4,11.4c5.7,0,7.5-4.3,7.5-4.3h0.1c0,0-0.1,0.6-0.1,1.4c0,1.6,0.8,2.4,2.6,2.4h3v-2.5h-1.8c-0.6,0-0.9-0.3-0.9-1
	v-24.2c0-1.9-0.8-2.6-2.6-2.6h-3.1v2.5h1.8c0.6,0,0.9,0.3,0.9,0.9v7c0,0.9,0.1,1.6,0.1,1.6h-0.1c0,0-1.8-4.1-7.1-4.1
	C667.4,179.8,663.4,184.2,663.4,191.2 M673.3,199.8c-4,0-6.9-3.4-6.9-8.7c0-5.5,3.1-8.7,7-8.7c4.7,0,6.9,4.3,6.9,8.7
	C680.3,197.2,676.9,199.8,673.3,199.8 M703.2,199.3c0,1.9,0.8,2.6,2.6,2.6H719c1.9,0,2.6-0.8,2.6-2.6v-3h-2.8v2
	c0,0.6-0.3,0.9-0.9,0.9h-10.6c-0.6,0-1-0.3-1-0.9V188h11.4v-2.7h-11.4v-11h10.3c0.6,0,0.9,0.3,0.9,0.9v2h2.8v-3
	c0-1.9-0.8-2.6-2.6-2.6h-17.3v2.7h2.8V199.3z M723.9,198.7c0,0,2.7,3.8,8.3,3.8c4.3,0,7.6-2.5,7.6-6.1c0-7.2-12.1-6.1-12.1-10.9
	c0-2.1,1.8-3.1,4.8-3.1c1.4,0,3.7,0.6,3.7,2.2v1h2.8v-1.9c0-3.1-4.4-3.9-6.6-3.9c-4.4,0-7.7,1.9-7.7,5.9c0,7,12.2,6.1,12.2,10.9
	c0,2.3-2.2,3.4-4.6,3.4c-4.3,0-6.7-3.3-6.7-3.3L723.9,198.7z M745.6,194c0,7.2,5,8.1,7.5,8.1c0.7,0,1.2-0.1,1.2-0.1v-2.6
	c0,0-0.4,0.1-1,0.1c-1.6,0-4.9-0.6-4.9-5.7v-11h5.4v-2.5h-5.4v-6h-2.9v6h-2.9v2.5h2.8V194H745.6z M757.5,196c0,4.3,3.7,6.4,7.4,6.4
	c5.4,0,7.2-4.7,7.2-4.7h0.1c0,0,0,0.6,0,1.6c0,1.8,0.7,2.6,2.6,2.6h3v-2.5H776c-0.6,0-0.9-0.3-0.9-1V188c0-4.7-1.6-8.3-8.5-8.3
	c-1.9,0-7.1,0.6-7.1,3.7v2.1h2.8v-1.4c0-1.6,3.1-1.9,4.2-1.9c4,0,5.6,1.6,5.6,6.1v0.3h-1.2C767,188.7,757.5,188.8,757.5,196
	 M760.5,195.8c0-4.9,6.8-5,10.2-5h1.3v1c0,3.7-2.5,8.1-6.6,8.1C762.1,200,760.5,198,760.5,195.8 M782.6,194c0,7.2,5,8.1,7.5,8.1
	c0.7,0,1.2-0.1,1.2-0.1v-2.6c0,0-0.4,0.1-1,0.1c-1.6,0-4.9-0.6-4.9-5.7v-11h5.4v-2.5h-5.4v-6h-2.9v6h-2.9v2.5h2.8V194H782.6z
	 M794.7,196c0,4.3,3.7,6.4,7.4,6.4c5.4,0,7.2-4.7,7.2-4.7h0.1c0,0,0,0.6,0,1.6c0,1.8,0.7,2.6,2.6,2.6h3v-2.5h-1.8c-0.6,0-1-0.3-1-1
	V188c0-4.7-1.6-8.3-8.5-8.3c-1.9,0-7.1,0.6-7.1,3.7v2.1h2.8v-1.4c0-1.6,3.1-1.9,4.2-1.9c4,0,5.6,1.6,5.6,6.1v0.3H808
	C804.2,188.7,794.7,188.8,794.7,196 M797.7,195.8c0-4.9,6.8-5,10.2-5h1.2v1c0,3.7-2.5,8.1-6.6,8.1C799.3,200,797.7,198,797.7,195.8
	 M819.5,199.3c0,1.9,0.8,2.6,2.6,2.6h3.1v-2.5h-1.8c-0.6,0-0.9-0.3-0.9-1v-24.2c0-1.9-0.8-2.6-2.6-2.6h-3.1v2.5h1.8
	c0.6,0,0.9,0.3,0.9,0.9V199.3z M839.8,191.2c0,6.7,4.9,11.3,11.3,11.3c4.9,0,8.1-3.1,8.1-3.1l-1.4-2.2c0,0-2.5,2.7-6.5,2.7
	c-4.5,0-8.3-3.1-8.4-8.6h16.6c0,0,0.1-0.9,0.1-1.5c0-5.4-3.1-10-9.1-10C844.7,179.8,839.8,184,839.8,191.2 M843,188.8
	c0.7-4.4,3.9-6.7,7.5-6.7c3.2,0,5.9,2.2,6.1,6.7H843z M865.4,202h2.9v-10.4c0-1,0.1-2,0.3-2.9c1-3.6,4.2-6.1,7.9-6.1
	c4.2,0,4.7,3,4.7,6.4v10.4c0,1.9,0.8,2.6,2.6,2.6h3.1v-2.5h-1.8c-0.6,0-0.9-0.3-0.9-1v-10.3c0-5.3-1.9-8.4-7.3-8.4
	c-5.1,0-7.8,3.5-8.6,5.5h-0.1c0,0,0.1-0.7,0.1-1.6v-1c0-1.6-0.8-2.4-2.6-2.4h-3v2.5h1.8c0.6,0,1,0.3,1,0.9L865.4,202L865.4,202z
	 M903.3,199.3c0,1.9,0.8,2.6,2.6,2.6h3.1v-2.5h-1.8c-0.6,0-0.9-0.3-0.9-1v-24.2c0-1.9-0.8-2.6-2.6-2.6h-3.1v2.5h1.8
	c0.6,0,1,0.3,1,0.9L903.3,199.3L903.3,199.3z M911.9,196c0,4.3,3.7,6.4,7.4,6.4c5.4,0,7.2-4.7,7.2-4.7h0.1c0,0,0,0.6,0,1.6
	c0,1.8,0.7,2.6,2.6,2.6h3v-2.5h-1.8c-0.6,0-1-0.3-1-1V188c0-4.7-1.6-8.3-8.5-8.3c-1.9,0-7.1,0.6-7.1,3.7v2.1h2.8v-1.4
	c0-1.6,3.1-1.9,4.2-1.9c4,0,5.6,1.6,5.6,6.1v0.3h-1.2C921.4,188.7,911.9,188.8,911.9,196 M914.9,195.8c0-4.9,6.8-5,10.2-5h1.2v1
	c0,3.7-2.5,8.1-6.6,8.1C916.5,200,914.9,198,914.9,195.8 M949.3,202h3v-12.8h5.1c1.7,0,2.2,0.2,3.1,1.8l4.4,8.7c1,2,1.7,2.3,4.2,2.3
	h1.3v-2.7h-0.6c-1.1,0-1.7-0.1-2.2-1l-4.4-8.6c-0.4-0.9-1-1.2-1-1.2v-0.1c3-0.6,5.9-3.4,5.9-8.1c0-5.3-3.6-8.6-8.7-8.6h-12.8v2.7
	h2.8V202H949.3z M952.3,186.5v-12.2h6.8c3.6,0,5.8,2.3,5.8,6c0,3.8-2.2,6.2-5.9,6.2H952.3z M972.2,191.2c0,6.7,4.9,11.3,11.3,11.3
	c4.9,0,8.1-3.1,8.1-3.1l-1.4-2.2c0,0-2.5,2.7-6.5,2.7c-4.5,0-8.3-3.1-8.4-8.6h16.6c0,0,0.1-0.9,0.1-1.5c0-5.4-3.1-10-9.1-10
	C977,179.8,972.2,184,972.2,191.2 M975.4,188.8c0.7-4.4,3.9-6.7,7.5-6.7c3.2,0,6,2.2,6.1,6.7H975.4z M995.9,190.8
	c0,6.5,3.8,11.1,9.7,11.1c3.4,0,5.5-1.4,6.8-3.7h0.1c0,0,0,0.7,0,1.6v1.9c0,4.8-3.4,6.8-7.6,6.8c-3.2,0-5.9-1.5-5.9-1.5l-1.1,2.5
	c2.1,1.1,4.6,1.7,7.1,1.7c5.3,0,10.4-2.7,10.4-9.6v-17.8c0-0.6,0.3-0.9,0.9-0.9h1.8v-2.5h-3c-1.8,0-2.5,0.8-2.5,2.4v0.8h-0.1
	c0,0-1.4-3.7-7.2-3.7S995.9,184.2,995.9,190.8 M1006,199.2c-4.3,0-7.1-3.4-7.1-8.5c0-5.2,2.5-8.2,6.7-8.2c3.8,0,6.9,1.9,6.9,8.3
	C1012.4,197,1009.4,199.2,1006,199.2 M1022.9,175.3h2.8v-3.7h-2.8V175.3z M1023,199.3c0,1.9,0.8,2.6,2.6,2.6h3.1v-2.5h-1.8
	c-0.6,0-0.9-0.3-0.9-1v-15.6c0-1.9-0.8-2.6-2.6-2.6h-3.1v2.5h1.8c0.6,0,0.9,0.3,0.9,0.9V199.3z M1031.5,191
	c0,6.5,5.1,11.5,11.5,11.5c6.3,0,11.4-4.9,11.4-11.5c0-6.4-5.1-11.2-11.5-11.2C1036.7,179.8,1031.5,184.5,1031.5,191 M1034.6,191
	c0-4.9,3.8-8.6,8.4-8.6s8.4,3.7,8.4,8.6c0,5-3.8,8.8-8.4,8.8S1034.6,196,1034.6,191 M1041.7,176.8h2.5l3.7-5.1h-3.3L1041.7,176.8z
	 M1059.9,202h2.9v-10.4c0-1,0.1-2,0.3-2.9c1-3.6,4.2-6.1,7.9-6.1c4.2,0,4.7,3,4.7,6.4v10.4c0,1.9,0.8,2.6,2.6,2.6h3.1v-2.5h-1.8
	c-0.6,0-1-0.3-1-1v-10.3c0-5.3-1.9-8.4-7.3-8.4c-5.1,0-7.8,3.5-8.6,5.5h-0.1c0,0,0.1-0.7,0.1-1.6v-1c0-1.6-0.8-2.4-2.6-2.4h-3v2.5
	h1.8c0.6,0,1,0.3,1,0.9V202z M1095.9,191.2c0,6.7,3.6,11.4,9.4,11.4c5.7,0,7.5-4.3,7.5-4.3h0.1c0,0-0.1,0.6-0.1,1.4
	c0,1.6,0.8,2.4,2.6,2.4h3v-2.5h-1.8c-0.6,0-0.9-0.3-0.9-1v-24.2c0-1.9-0.8-2.6-2.6-2.6h-3.1v2.5h1.8c0.6,0,0.9,0.3,0.9,0.9v7
	c0,0.9,0.1,1.6,0.1,1.6h-0.1c0,0-1.8-4.1-7.1-4.1C1099.9,179.8,1095.9,184.2,1095.9,191.2 M1105.8,199.8c-4,0-6.9-3.4-6.9-8.7
	c0-5.5,3.1-8.7,7-8.7c4.7,0,6.9,4.3,6.9,8.7C1112.8,197.2,1109.4,199.8,1105.8,199.8 M1121.1,191.2c0,6.7,4.9,11.3,11.3,11.3
	c4.9,0,8.1-3.1,8.1-3.1l-1.4-2.2c0,0-2.5,2.7-6.5,2.7c-4.5,0-8.3-3.1-8.4-8.6h16.6c0,0,0.1-0.9,0.1-1.5c0-5.4-3.1-10-9.1-10
	C1126,179.8,1121.1,184,1121.1,191.2 M1124.3,188.8c0.7-4.4,3.9-6.7,7.5-6.7c3.2,0,5.9,2.2,6.1,6.7H1124.3z M1156.4,186.5
	c0,8.8,6.2,15.9,15.1,15.9c7.5,0,11.7-4.9,11.7-4.9l-1.7-2.2c0,0-3.7,4.3-9.9,4.3c-6.9,0-12-5.8-12-13.1s5.2-12.6,11.9-12.6
	c3.5,0,8.4,1.6,8.4,4.4v1.7h2.8v-2.5c0-4.6-7-6.4-11.3-6.4C1162.8,171.2,1156.4,177.8,1156.4,186.5 M1186.4,191
	c0,6.5,5.1,11.5,11.5,11.5c6.3,0,11.4-4.9,11.4-11.5c0-6.4-5.1-11.2-11.5-11.2C1191.5,179.8,1186.4,184.5,1186.4,191 M1189.4,191
	c0-4.9,3.8-8.6,8.4-8.6s8.4,3.7,8.4,8.6c0,5-3.8,8.8-8.4,8.8C1193.2,199.8,1189.4,196,1189.4,191 M1212.8,191.2
	c0,6.7,3.6,11.4,9.4,11.4c5.6,0,7.4-4.2,7.4-4.2h0.1c0,0-0.1,0.8-0.1,1.9v10.4h2.9v-26.9c0-0.6,0.3-0.9,0.9-0.9h1.8v-2.5h-3
	c-1.8,0-2.6,0.7-2.6,2.2c0,0.8,0,1.4,0,1.4h-0.1c0,0-1.9-4.2-7.2-4.2C1216.9,179.8,1212.8,184.2,1212.8,191.2 M1222.7,199.8
	c-4.1,0-6.9-3.4-6.9-8.7c0-5.5,3.2-8.7,7-8.7c4.6,0,6.9,4.3,6.9,8.7C1229.7,197.2,1226.3,199.8,1222.7,199.8 M1240,194
	c0,5.6,2.2,8.4,7.3,8.4c4.7,0,7.6-3.4,8.4-5.5h0.1c0,0-0.1,0.7-0.1,1.6v1c0,1.6,0.8,2.4,2.6,2.4h3v-2.5h-1.8c-0.6,0-0.9-0.3-0.9-1
	v-18.2h-2.9v10.4c0,4.7-3.1,9-8,9c-4.2,0-4.7-3-4.7-6.4v-10.5c0-1.8-0.8-2.5-2.6-2.5h-3.1v2.5h1.8c0.6,0,1,0.3,1,0.9V194H1240z
	 M1266.2,175.3h2.8v-3.7h-2.8V175.3z M1266.3,199.3c0,1.9,0.8,2.6,2.6,2.6h3.1v-2.5h-1.8c-0.6,0-0.9-0.3-0.9-1v-15.6
	c0-1.9-0.8-2.6-2.6-2.6h-3.1v2.5h1.8c0.6,0,1,0.3,1,0.9L1266.3,199.3L1266.3,199.3z M1276.9,202h2.9v-10.2c0-1,0.1-2,0.3-2.9
	c0.9-3.3,3.5-6.4,7.1-6.4c4.1,0,4.6,3.2,4.6,6.5V202h2.9v-10.3c0-1.2,0.1-2.2,0.4-3.1c0.9-3.2,3.6-6.1,6.9-6.1c4,0,4.7,2.9,4.7,6.5
	v10.4c0,1.9,0.8,2.6,2.6,2.6h3.1v-2.5h-1.8c-0.6,0-0.9-0.3-0.9-1v-10.3c0-5.3-1.9-8.4-7.2-8.4c-3.7,0-6.8,2.5-8,5.4h-0.1
	c-0.6-3.6-2.7-5.4-6.7-5.4c-3.4,0-6.8,2.5-7.8,5.5h-0.1c0,0,0.1-0.7,0.1-1.6v-1c0-1.6-0.8-2.4-2.6-2.4h-3v2.5h1.8c0.6,0,1,0.3,1,0.9
	V202H1276.9z M1316.9,202h2.8V200c0-1-0.1-1.8-0.1-1.8h0.1c0,0,1.9,4.2,7.1,4.2c5.7,0,9.8-4.5,9.8-11.3c0-6.7-3.6-11.4-9.4-11.4
	c-5.6,0-7.4,4.1-7.4,4.1h-0.1c0,0,0.1-0.8,0.1-1.8v-7.8c0-1.9-0.8-2.6-2.6-2.6h-3.1v2.5h1.8c0.6,0,1,0.3,1,0.9L1316.9,202
	L1316.9,202z M1319.7,191.2c0-6.2,3.4-8.7,7-8.7c4,0,6.9,3.4,6.9,8.7c0,5.5-3.1,8.7-7,8.7C1321.9,199.8,1319.7,195.5,1319.7,191.2
	 M1340.1,191c0,6.5,5.1,11.5,11.5,11.5c6.3,0,11.4-4.9,11.4-11.5c0-6.4-5.1-11.2-11.5-11.2C1345.2,179.8,1340.1,184.5,1340.1,191
	 M1343.1,191c0-4.9,3.8-8.6,8.4-8.6s8.4,3.7,8.4,8.6c0,5-3.8,8.8-8.4,8.8S1343.1,196,1343.1,191"/>
<rect x="360.3" y="47.9" class="st3" width="3.2" height="208.9"/>
</svg>
