<?xml version="1.0" encoding="utf-8"?>
<!-- Generator: Adobe Illustrator 21.1.0, SVG Export Plug-In . SVG Version: 6.00 Build 0)  -->
<svg version="1.1" id="Capa_1" xmlns="http://www.w3.org/2000/svg" xmlns:xlink="http://www.w3.org/1999/xlink" x="0px" y="0px"
	 viewBox="0 0 635 115" style="enable-background:new 0 0 635 115;" xml:space="preserve">
<style type="text/css">
	.st0{enable-background:new    ;}
	.st1{fill:#696969;}
	.st2{fill:#FFFFFF;stroke:#003671;stroke-miterlimit:22.93;}
	.st3{fill:#003671;}
	.st4{fill:#FFFFFF;}
	.st5{fill:#DB2F34;}
	.st6{fill:none;stroke:#003671;stroke-miterlimit:22.93;}
</style>
<g class="st0">
	<path class="st1" d="M142,102.1c-3.3-4.3-4.9-10.5-4.9-18.6V54.4c0-8,1.6-14,4.9-18.1c3.3-4.1,8.7-6.2,16.1-6.2
		c7.5,0,12.8,2.1,16.1,6.2c3.3,4.1,4.9,10.2,4.9,18.1v29.3c0,8-1.6,14.1-4.9,18.4c-3.3,4.3-8.6,6.5-16.1,6.5
		C150.6,108.5,145.2,106.4,142,102.1z M166.2,96.5c1.4-2.3,2.1-5.9,2.1-10.6V52.2c0-4.7-0.7-8.2-2.1-10.4c-1.4-2.2-4.1-3.4-8.1-3.4
		c-4.1,0-6.8,1.1-8.2,3.4c-1.4,2.2-2.1,5.7-2.1,10.4v33.7c0,4.8,0.7,8.3,2.1,10.6c1.4,2.3,4.1,3.5,8.2,3.5
		C162.1,100.1,164.8,98.9,166.2,96.5z"/>
	<path class="st1" d="M189.7,30.7h16.7c8.3,0,14.2,1.9,17.6,5.7c3.5,3.8,5.2,9.7,5.2,17.8v28.3c0,8.5-1.7,14.8-5.1,19
		c-3.4,4.1-9,6.2-16.9,6.2h-17.6V30.7z M206.5,100c3.7,0,6.4-0.7,8.1-2.2c1.7-1.5,2.7-3.4,3.1-5.9c0.4-2.5,0.6-6.3,0.6-11.4v-25
		c0-4.4-0.3-7.7-0.8-10c-0.5-2.3-1.7-4-3.4-5.1c-1.7-1.1-4.4-1.7-8-1.7h-5.8V100H206.5z"/>
	<path class="st1" d="M243.2,102.1c-3.3-4.3-4.9-10.5-4.9-18.6V54.4c0-8,1.6-14,4.9-18.1c3.3-4.1,8.7-6.2,16.2-6.2
		c7.5,0,12.8,2.1,16.1,6.2c3.3,4.1,4.9,10.2,4.9,18.1v29.3c0,8-1.6,14.1-4.9,18.4c-3.3,4.3-8.6,6.5-16.1,6.5
		C251.9,108.5,246.5,106.4,243.2,102.1z M267.5,96.5c1.4-2.3,2.1-5.9,2.1-10.6V52.2c0-4.7-0.7-8.2-2.1-10.4
		c-1.4-2.2-4.1-3.4-8.1-3.4c-4.1,0-6.8,1.1-8.2,3.4c-1.4,2.2-2.1,5.7-2.1,10.4v33.7c0,4.8,0.7,8.3,2.1,10.6c1.4,2.3,4.1,3.5,8.2,3.5
		C263.4,100.1,266.1,98.9,267.5,96.5z"/>
	<path class="st1" d="M291,30.7h7.3l21.9,51.1V30.7h8.9v77h-6.8l-22.1-52.5v52.5H291V30.7z"/>
	<path class="st1" d="M349.6,38.7h-13v-8h36.4v8h-12.6v69h-10.7V38.7z"/>
	<path class="st1" d="M383.8,102.1c-3.3-4.3-4.9-10.5-4.9-18.6V54.4c0-8,1.6-14,4.9-18.1c3.3-4.1,8.7-6.2,16.2-6.2
		c7.5,0,12.8,2.1,16.1,6.2c3.3,4.1,4.9,10.2,4.9,18.1v29.3c0,8-1.6,14.1-4.9,18.4c-3.3,4.3-8.6,6.5-16.1,6.5
		C392.5,108.5,387.1,106.4,383.8,102.1z M408.1,96.5c1.4-2.3,2.1-5.9,2.1-10.6V52.2c0-4.7-0.7-8.2-2.1-10.4
		c-1.4-2.2-4.1-3.4-8.1-3.4c-4.1,0-6.8,1.1-8.2,3.4c-1.4,2.2-2.1,5.7-2.1,10.4v33.7c0,4.8,0.7,8.3,2.1,10.6c1.4,2.3,4.1,3.5,8.2,3.5
		C404,100.1,406.7,98.9,408.1,96.5z"/>
	<path class="st1" d="M431.6,30.7h10.7V100H462v7.7h-30.4V30.7z"/>
	<path class="st1" d="M472.2,102.1c-3.3-4.3-4.9-10.5-4.9-18.6V54.4c0-8,1.6-14,4.9-18.1c3.3-4.1,8.7-6.2,16.2-6.2
		c7.5,0,12.8,2.1,16.1,6.2c3.3,4.1,4.9,10.2,4.9,18.1v29.3c0,8-1.6,14.1-4.9,18.4c-3.3,4.3-8.6,6.5-16.1,6.5
		C480.8,108.5,475.4,106.4,472.2,102.1z M496.4,96.5c1.4-2.3,2.1-5.9,2.1-10.6V52.2c0-4.7-0.7-8.2-2.1-10.4
		c-1.4-2.2-4.1-3.4-8.1-3.4c-4.1,0-6.8,1.1-8.2,3.4c-1.4,2.2-2.1,5.7-2.1,10.4v33.7c0,4.8,0.7,8.3,2.1,10.6c1.4,2.3,4.1,3.5,8.2,3.5
		C492.4,100.1,495,98.9,496.4,96.5z"/>
	<path class="st1" d="M523.1,102c-3.1-4.4-4.7-10.9-4.7-19.6V56.6c0-6,0.6-10.8,1.9-14.7c1.2-3.8,3.4-6.8,6.4-8.8
		c3-2.1,7.1-3.1,12.4-3.1c7.1,0,12.2,1.8,15.3,5.4c3.1,3.6,4.7,9.3,4.7,17v2.9h-10.1v-2.4c0-3.7-0.2-6.5-0.7-8.5
		c-0.4-2-1.4-3.5-2.8-4.5c-1.4-1-3.5-1.5-6.3-1.5c-3,0-5.2,0.7-6.7,2c-1.5,1.4-2.4,3.2-2.8,5.5c-0.4,2.3-0.6,5.3-0.6,9.1v28.5
		c0,5.9,0.7,10.1,2.1,12.7c1.4,2.6,4.2,3.8,8.2,3.8c4,0,6.7-1.4,8.2-4.2c1.5-2.8,2.2-7.3,2.2-13.4v-5.3h-9.8v-7.6h19.5v38.1H553
		l-1-8.8c-2.4,6.5-7,9.8-13.7,9.8C531.3,108.6,526.2,106.4,523.1,102z"/>
	<path class="st1" d="M571.3,30.7h10.5v77h-10.5V30.7z M579.5,7.3h10.2L579,26.2h-5.1L579.5,7.3z"/>
	<path class="st1" d="M606.4,30.7h10.4l16.4,77h-10.2l-3.5-19.4h-15.7l-3.7,19.4h-10.1L606.4,30.7z M618.1,80.6l-6.5-34.7l-6.4,34.7
		H618.1z"/>
</g>
<path class="st2" d="M52.6,107.2c26.8,0,48.6-21.8,48.6-48.6S79.4,10,52.6,10S4,31.9,4,58.6S25.9,107.2,52.6,107.2z"/>
<path class="st3" d="M52.9,97.4c21.5,0,39-17.6,39-39.2S74.3,19,52.9,19s-39,17.6-39,39.2S31.4,97.4,52.9,97.4z"/>
<polygon class="st4" points="74.5,28.7 63.4,28.7 53.5,23 53.5,31 63.4,36.7 74.5,36.7 "/>
<polygon class="st4" points="30.9,28.7 42.4,28.7 51.9,23 51.9,31 42.4,36.7 30.9,36.7 "/>
<polygon class="st4" points="76,44.8 63.4,44.8 63.4,55.9 55.4,51.3 55.4,46.7 52.7,45.1 50.4,46.7 50.4,53.6 63.4,60.8 63.4,74.6 
	53.5,80.3 53.5,91.4 74.5,79.2 74.5,56.2 76,56.2 "/>
<polygon class="st4" points="29.4,44.8 42.4,44.8 42.4,57 55.4,64.3 55.4,71.2 52.7,72.7 50.4,71.2 50.4,66.2 42.4,61.6 42.4,74.6 
	51.9,80 51.9,91.4 30.9,79.2 30.9,56.2 29.4,56.2 "/>
<polygon class="st4" points="30.9,41.7 42.4,41.7 51.9,36 51.9,37.5 42.4,43.2 30.9,43.2 "/>
<polygon class="st4" points="74.5,41.7 63.4,41.7 53.5,36 53.5,37.5 63.4,43.2 74.5,43.2 "/>
<polygon class="st4" points="74.5,38.3 63.4,38.3 53.5,32.9 53.5,34.4 63,39.8 74.5,39.8 "/>
<polygon class="st4" points="30.9,38.3 42.4,38.3 51.9,32.9 51.9,34.4 42.4,39.8 30.9,39.8 "/>
<polygon class="st5" points="32.8,30.2 42.4,30.2 50.4,25.6 50.4,30.6 42.4,35.2 32.8,35.2 "/>
<polygon class="st5" points="73,30.2 63.4,30.2 55.4,25.6 55.4,30.6 63.4,35.2 73,35.2 "/>
<polygon class="st5" points="74.5,46.3 65,46.3 65,58.5 53.5,52 53.5,47.4 52.7,46.7 51.9,47.4 51.9,52.8 65,60.1 65,75.4 
	55.4,80.7 55.4,88.8 73,78.8 73,54.3 74.5,54.3 "/>
<polygon class="st5" points="30.9,46.3 40.9,46.3 40.9,57.4 53.5,65 53.5,70.4 52.7,70.8 51.9,70.4 51.9,65.8 40.9,59.3 40.9,75.4 
	50.4,80.7 50.4,88.8 32.8,78.8 32.8,54.3 30.9,54.3 "/>
<path class="st3" d="M7,62.1H6.8L6.7,61h0.1v0.4l4.1-0.3c0.2,0,0.4,0,0.5,0.1c0.2,0.1,0.3,0.2,0.4,0.4c0.1,0.1,0.1,0.3,0.2,0.5
	c0,0.2,0,0.4-0.1,0.6c0,0.2-0.1,0.3-0.2,0.5c-0.2,0.2-0.5,0.4-0.8,0.4l-3.6,0.2C7.1,63.8,7,64,7,64.3h0L6.9,63H7v0.4l4-0.3
	c0.3,0,0.5-0.1,0.7-0.3s0.2-0.4,0.2-0.7c0-0.2-0.1-0.4-0.3-0.6c-0.2-0.1-0.4-0.2-0.7-0.2l-3.6,0.3c-0.2,0-0.3,0.1-0.3,0.3L7,62.1
	L7,62.1z"/>
<path class="st3" d="M11.6,57.7v-0.4l-4.1-0.1c-0.2,0-0.3,0-0.5,0c-0.2,0.1-0.2,0.2-0.2,0.5H6.7V57l4.3-1.8l0,0l-3.5-0.1
	c-0.1,0-0.3,0-0.4,0.1s-0.2,0.2-0.2,0.4H6.7v-1.1h0.1v0.4l5.2,0.2v0.1L7.8,57l0,0l3.2,0.1c0.2,0,0.4,0,0.5-0.1s0.1-0.3,0.1-0.4h0.1
	L11.6,57.7L11.6,57.7z"/>
<path class="st3" d="M12.1,51.7l0.1-0.4l-4.4-0.8c-0.1,0-0.2,0-0.3,0.1c-0.1,0.1-0.1,0.2-0.1,0.4H7.3l0.3-1.3h0.1l-0.1,0.4l4.2,0.8
	c0.1,0,0.2,0,0.3,0s0.1,0,0.2-0.1c0.1-0.1,0.1-0.2,0.1-0.4h0.1l-0.3,1.3H12.1z"/>
<path class="st3" d="M13.1,45.3l-3.2-2c-0.1,0-0.2-0.1-0.2-0.1c-0.1-0.1-0.2,0-0.3,0c-0.1,0.1-0.1,0.2-0.2,0.3v0.1H9.1l0.4-1.3h0.1
	l-0.1,0.4l4.5,2.9l-0.1,0.1l-4.6-0.1c-0.2,0-0.4,0-0.6,0c-0.1,0-0.2,0-0.3,0.1s-0.1,0.1-0.1,0.2V46H8.2l0.5-1.4h0.1l-0.2,0.5
	L13.1,45.3z"/>
<path class="st3" d="M16.4,39.3l-1.1,2.1l-0.1-0.1l0.2-0.4l-3.9-2c-0.1-0.1-0.2-0.1-0.3,0S11,39.1,11,39.2l-0.1-0.1L12,37l-0.3-0.1
	l0.1-0.1l1.5,0.8l-0.1,0.1L13,37.6c-0.4-0.2-0.7-0.2-0.9-0.1c-0.3,0.2-0.5,0.5-0.6,0.8l-0.1,0.2l1.1,0.6l0.3-0.6L12,38l0.1-0.1
	l1.7,0.8l-0.1,0.1c-0.2-0.1-0.4-0.2-0.5-0.2s-0.3,0-0.4,0.1c-0.1,0.1-0.2,0.2-0.2,0.3l3,1.5c0.1-0.3,0.3-0.5,0.4-0.8
	c0-0.2,0-0.4-0.1-0.6c-0.1-0.2-0.3-0.3-0.5-0.4L15,38.6l0.1-0.1l1.6,0.8l-0.1,0.1L16.4,39.3z"/>
<path class="st3" d="M16.7,30.7c0.1,0,0.2,0,0.3,0c0.4,0,0.7,0.1,1,0.4c0.3,0.2,0.6,0.5,0.7,0.9c0.1,0.3,0.2,0.7,0.1,1.1
	c0,0.4-0.2,0.8-0.4,1.1l0,0c0.1-0.1,0.3-0.2,0.6-0.3c0.3-0.1,0.5-0.3,0.7-0.4c0.2-0.1,0.3-0.3,0.5-0.5c0.1-0.1,0.1-0.2,0.1-0.3h0.1
	c0,0.2-0.1,0.4-0.2,0.6c-0.1,0.2-0.2,0.3-0.4,0.5c-0.1,0.1-0.3,0.2-0.4,0.3s-0.4,0.2-0.7,0.4c-0.5,0.3-1,0.5-1.5,0.7l0.6,0.4
	c0.1,0.1,0.1,0.1,0.2,0.1s0.1,0,0.2,0c0.1-0.1,0.1-0.1,0.2-0.2c0-0.1,0.1-0.1,0.1-0.2l0.1,0.1l-0.9,1.2l-0.1-0.1l0.3-0.3l-1.2-0.9
	v-0.5l0.4,0.3L17,34.8c0.6-0.2,1.1-0.5,1.3-0.8c0.2-0.2,0.3-0.5,0.3-0.9c0-0.6-0.2-1.3-0.8-1.6c-0.3-0.2-0.6-0.3-1-0.3
	c-0.1,0-0.1,0-0.2,0L16.7,30.7L16.7,30.7z M13.6,33.6l0.5-0.7l0.4,0.3c0-0.5,0.1-1.1,0.4-1.5c0.2-0.3,0.5-0.5,0.9-0.7
	c0.3-0.1,0.6-0.2,0.8-0.2v0.4c-0.3,0-0.5,0.1-0.8,0.2S15.2,31.7,15,32c-0.3,0.4-0.4,0.9-0.3,1.4l1.9,1.4v0.5l-2.4-1.7
	C14,33.5,13.8,33.5,13.6,33.6l0.1,0.2L13.6,33.6z"/>
<path class="st3" d="M20.5,24.8l1.4,1.4l-0.1,0.1L21.5,26c-0.2-0.2-0.4-0.4-0.7-0.5c-0.2-0.1-0.5,0-0.6,0.2
	c-0.1,0.1-0.1,0.2-0.2,0.3c0,0.1,0,0.2,0,0.4c0,0.1,0.1,0.2,0.2,0.3c0.1,0.1,0.3,0.2,0.5,0.2s0.3,0,0.5,0s0.4-0.1,0.7-0.2
	c0.3-0.1,0.5-0.2,0.8-0.2c0.2,0,0.5,0,0.7,0s0.4,0.2,0.6,0.3c0.2,0.2,0.3,0.4,0.4,0.6s0.1,0.5,0.1,0.7s-0.1,0.5-0.2,0.7
	s-0.3,0.5-0.4,0.6c-0.2,0.2-0.5,0.4-0.8,0.5c-0.4,0.1-0.7,0.1-1,0.1c-0.3-0.1-0.6-0.2-0.8-0.4c-0.2-0.2-0.3-0.4-0.4-0.6
	s-0.1-0.5,0-0.7s0.2-0.5,0.3-0.6c0.1-0.1,0.3-0.2,0.4-0.3c0.2-0.1,0.3-0.1,0.5-0.1s0.3,0.1,0.4,0.2s0.2,0.2,0.2,0.4
	c0,0.2,0,0.3-0.2,0.4l-0.1,0.1l-0.1-0.1c0.1-0.2,0.1-0.4-0.1-0.5c-0.1-0.1-0.2-0.1-0.3-0.1c-0.1,0-0.2,0-0.4,0
	c-0.1,0-0.2,0.1-0.3,0.2C21.1,28,21,28.2,21,28.4s0,0.4,0.1,0.6s0.2,0.3,0.3,0.5c0.2,0.2,0.4,0.3,0.7,0.4c0.3,0.1,0.5,0.1,0.8,0
	s0.5-0.2,0.7-0.4c0.2-0.2,0.3-0.4,0.4-0.7c0.1-0.3,0.1-0.5,0-0.8s-0.2-0.5-0.4-0.7c-0.1-0.1-0.3-0.2-0.5-0.3c-0.2,0-0.4,0-0.6,0
	s-0.5,0.1-0.7,0.2s-0.4,0.1-0.7,0.2c-0.2,0-0.4,0-0.6,0s-0.4-0.1-0.5-0.3c-0.2-0.2-0.3-0.5-0.3-0.7c0-0.3,0.1-0.5,0.3-0.8
	c0.1-0.1,0.3-0.2,0.5-0.3l-0.2-0.2L20.5,24.8z"/>
<path class="st3" d="M27.1,25.9l0.4-0.3l-2.7-3.5C24.7,22,24.6,22,24.5,22s-0.2,0.1-0.3,0.2L24,22.1l1.1-0.8l0.1,0.1l-0.3,0.3
	l2.7,3.4c0.1,0.1,0.1,0.1,0.2,0.2c0.1,0,0.1,0.1,0.2,0.1c0.1-0.1,0.2-0.1,0.3-0.2l0.1,0.1L27.2,26L27.1,25.9z"/>
<path class="st3" d="M31.1,17.7c0.2,0,0.4,0,0.6,0.1s0.4,0.1,0.6,0.2c0.2,0.1,0.4,0.2,0.5,0.4c0.2,0.2,0.3,0.3,0.4,0.5
	c0.3,0.5,0.4,1.2,0.3,1.8c0,0.2-0.1,0.5-0.2,0.7c-0.1,0.2-0.3,0.5-0.5,0.7c-0.3,0.3-0.5,0.5-0.9,0.6L31,23.2v-0.4v0.1
	c0.4-0.1,0.7-0.2,1.1-0.4c0.3-0.2,0.6-0.5,0.8-0.9s0.3-0.8,0.2-1.2c0-0.4-0.1-0.8-0.3-1.2c-0.2-0.3-0.5-0.6-0.9-0.8
	c-0.3-0.2-0.6-0.3-1-0.3L31.1,17.7L31.1,17.7z M30.4,23.5l0.4-0.2l-2.2-3.8c-0.1-0.2-0.3-0.3-0.5-0.2c0,0-0.1,0-0.1,0.1h-0.1
	l-0.1-0.1l1.8-1c0.3-0.2,0.6-0.3,1-0.4c0.1,0,0.2,0,0.3,0v0.3c-0.1,0-0.1,0-0.2,0c-0.4,0-0.8,0.1-1.1,0.3c-0.3,0.2-0.6,0.4-0.8,0.7
	l2.2,3.7v0.5l-0.6,0.3L30.4,23.5z"/>
<path class="st3" d="M39.9,19l-2-2.7l-0.4,0.1v-0.2l0.3-0.1l-0.3-0.4v-0.6l2.1,2.9c0.1,0.1,0.2,0.3,0.3,0.4s0.2,0.2,0.3,0.3
	c0.1,0.1,0.3,0.1,0.4,0v0.1l-1.2,0.4v-0.1L39.9,19L39.9,19L39.9,19z M37.6,18.6v0.2c0,0.2,0,0.4,0.1,0.5c0,0.1,0.1,0.2,0.2,0.2
	c0.1,0,0.2,0,0.3,0s0.2-0.1,0.3-0.1v0.1l-0.9,0.3L37.6,18.6L37.6,18.6z M37.6,16.5l-0.2,0.1l0.2,2.1V20l-0.4,0.1V20l0.3-0.1L37,14.6
	h0.1l0.5,0.7v0.6l-0.3-0.4l0,0l0.1,1l0.2-0.1L37.6,16.5L37.6,16.5z"/>
<path class="st3" d="M45.2,12.7c0.1,0,0.2,0,0.3,0c0.3,0.1,0.6,0.2,0.9,0.3c0.4,0.3,0.6,0.6,0.9,1c0.1,0.2,0.2,0.4,0.2,0.6
	c0.1,0.6,0,1.2-0.3,1.8c-0.1,0.2-0.3,0.4-0.4,0.6c-0.2,0.2-0.4,0.4-0.7,0.5c-0.2,0.1-0.5,0.2-0.8,0.3v-0.2h0.1
	c0.4-0.1,0.8-0.3,1.1-0.5c0.3-0.3,0.5-0.6,0.6-1s0.2-0.8,0.1-1.2c-0.1-0.4-0.3-0.8-0.5-1.1c-0.3-0.3-0.6-0.5-1-0.7
	c-0.1,0-0.2-0.1-0.3-0.1v-0.3H45.2z M43.2,18l0.5-0.1l-0.8-4.3c0-0.2-0.2-0.3-0.4-0.3h-0.1h-0.1v-0.1l2.1-0.4c0.3,0,0.5-0.1,0.8-0.1
	V13c-0.3-0.1-0.6-0.1-0.9,0c-0.4,0-0.7,0.2-1,0.3l0.8,4.3c0.4,0.1,0.7,0,1.1,0v0.2l-0.3,0.1l-1.7,0.3L43.2,18z"/>
<path class="st3" d="M57.8,12.3c0.3,0,0.7,0.1,1,0.3c0.3,0.1,0.5,0.3,0.7,0.6c0.1,0.2,0.2,0.4,0.3,0.5c0.1,0.2,0.2,0.4,0.2,0.6
	c0,0.2,0,0.4,0,0.7c-0.1,0.6-0.4,1.2-0.8,1.6c-0.2,0.2-0.4,0.3-0.6,0.4c-0.2,0.1-0.5,0.2-0.8,0.2l0,0V17c0.2,0,0.3-0.1,0.5-0.2
	c0.4-0.2,0.7-0.5,0.9-0.8s0.4-0.7,0.4-1.2c0-0.4,0-0.8-0.2-1.2s-0.4-0.7-0.7-0.9S58.1,12.4,57.8,12.3L57.8,12.3L57.8,12.3z
	 M55.1,16.9l0.5,0.1l0.5-4.4c0-0.2-0.1-0.4-0.3-0.4h-0.1h-0.1v-0.1l2.1,0.3h0.1v0.2c-0.1,0-0.1,0-0.2,0c-0.4-0.1-0.7-0.1-1.1,0
	L56,16.8c0.4,0.2,0.7,0.3,1.1,0.3c0.2,0,0.5,0,0.7,0v0.2c-0.4,0-0.7,0-1.1,0L55.1,17V16.9z"/>
<path class="st3" d="M64.9,18.8l-2.3-0.6v-0.1l0.4,0.1l1.1-4.3c0-0.1,0-0.2,0-0.3c-0.1-0.1-0.2-0.1-0.3-0.2v-0.1l2.3,0.6l0.1-0.3
	h0.1L66,15.3h-0.1L66,15c0.1-0.4,0.1-0.7-0.1-0.9c-0.3-0.2-0.6-0.4-0.9-0.4l-0.2-0.1l-0.3,1.2l0.6,0.2l0.2-0.7h0.1l-0.5,1.8h-0.1
	c0.1-0.2,0.1-0.4,0.1-0.6c0-0.1-0.1-0.3-0.2-0.4C64.6,15,64.5,15,64.4,15l-0.9,3.2c0.3,0.1,0.6,0.1,0.9,0.2c0.2,0,0.4-0.1,0.5-0.2
	c0.1-0.2,0.2-0.3,0.3-0.5l0.1-0.4h0.1L65,19.2h-0.1V18.8z"/>
<path class="st3" d="M75.5,18l-0.1,0.1L75,17.9L72.6,22c0.2,0.1,0.4,0.2,0.6,0.3c0.2,0.1,0.4,0.1,0.5,0.1c0.2,0,0.4-0.2,0.4-0.3
	l0.6-1.1l0.1,0.1l-1.2,2.1l-0.1-0.1l0.2-0.3l-1.9-1.1l0.1-0.1l0.4,0.2l2.2-3.8c0.1-0.1,0.1-0.2,0-0.3c-0.1-0.1-0.2-0.2-0.3-0.2
	l0.1-0.1L75.5,18z"/>
<path class="st3" d="M79.8,21.9l0.9-0.7l0.1,0.1l-1,2.7v-1.1l0,0l0.4-1l0,0l-0.4,0.3V21.9L79.8,21.9z M78.6,26.1l1.2-3.1l-0.5-0.4
	L77.5,24c-0.1,0.1-0.3,0.2-0.4,0.4C77,24.5,77,24.6,77,24.7s0.1,0.2,0.1,0.2c0.1,0.1,0.2,0.2,0.3,0.2l-0.1,0.1l-1.1-0.8l0.1-0.1
	l0.3,0.2l3.3-2.6v0.3l-0.4,0.3l0.4,0.3V24l-0.5,1.4c-0.1,0.1-0.1,0.3-0.2,0.4C79.1,26,79,26.1,79,26.3c0,0.1,0.1,0.3,0.2,0.3
	l-0.1,0.1l-1-0.8l0.1-0.1L78.6,26.1z"/>
<path class="st3" d="M90.1,30.6l-1.6,1.2l-0.1-0.1l0.4-0.3c0.2-0.2,0.4-0.4,0.6-0.6c0.1-0.2,0.1-0.5-0.1-0.6
	C89.2,30.1,89.1,30,89,30c-0.2-0.1-0.5-0.1-0.7,0.1c-0.1,0.1-0.2,0.2-0.3,0.4c0,0.2-0.1,0.3,0,0.5c0,0.2,0.1,0.4,0.1,0.7
	c0.1,0.3,0.1,0.5,0.1,0.8c0,0.2,0,0.5-0.1,0.7s-0.2,0.4-0.4,0.6C87.5,33.9,87.2,34,87,34s-0.5,0-0.7,0c-0.2-0.1-0.5-0.2-0.7-0.3
	s-0.4-0.3-0.6-0.5c-0.2-0.3-0.3-0.6-0.4-0.9c-0.1-0.3-0.1-0.6,0-0.9s0.3-0.6,0.5-0.7c0.2-0.2,0.4-0.3,0.7-0.3c0.2,0,0.5,0,0.7,0.1
	s0.4,0.2,0.6,0.4c0.1,0.1,0.2,0.3,0.2,0.4c0,0.2,0,0.3,0,0.5s-0.1,0.3-0.3,0.4c-0.1,0.1-0.3,0.1-0.4,0.1c-0.2,0-0.3-0.1-0.4-0.2
	c0-0.1-0.1-0.1-0.1-0.2l0.1-0.1c0.2,0.1,0.4,0.1,0.5,0s0.1-0.2,0.2-0.3c0-0.1,0.1-0.2,0-0.4c0-0.1-0.1-0.2-0.1-0.3
	c-0.1-0.1-0.3-0.3-0.4-0.3c-0.2,0-0.4,0-0.6,0s-0.4,0.1-0.5,0.2c-0.2,0.2-0.4,0.4-0.5,0.6c-0.2,0.5-0.2,1.1,0.2,1.6
	c0.2,0.2,0.4,0.4,0.6,0.5s0.5,0.2,0.8,0.1c0.3,0,0.5-0.1,0.7-0.3c0.2-0.1,0.3-0.3,0.3-0.5c0.1-0.2,0.1-0.4,0.1-0.6
	c0-0.3,0-0.5-0.1-0.8c0-0.2-0.1-0.5-0.1-0.7s0-0.4,0.1-0.6s0.2-0.3,0.4-0.5c0.2-0.2,0.5-0.2,0.8-0.2c0.3,0.1,0.5,0.2,0.7,0.4
	c0.1,0.2,0.2,0.3,0.2,0.5l0.2-0.2L90.1,30.6z"/>
<path class="st3" d="M89,39l-1.2-2l0.1-0.1l0.2,0.4l3.8-2.2c0.1,0,0.2-0.1,0.2-0.3c0-0.1,0-0.2-0.1-0.4l0.1-0.1l1.2,2.1l0.3-0.2
	l0.1,0.1l-1.5,0.8L92.1,37l0.2-0.1c0.4-0.2,0.5-0.4,0.6-0.7c0-0.3-0.2-0.7-0.3-0.9l-0.1-0.2l-1.1,0.6l0.3,0.6l0.7-0.4l0.1,0.1
	l-1.6,0.9l0,0.1c0.2-0.1,0.3-0.2,0.5-0.3c0.1-0.1,0.2-0.2,0.1-0.4c0-0.1-0.1-0.2-0.1-0.3l-2.9,1.7c0.2,0.3,0.3,0.5,0.5,0.8
	c0.1,0.1,0.3,0.2,0.5,0.2s0.4-0.1,0.6-0.2l0.3-0.2l0.1,0.1l-1.6,0.9l-0.1-0.1L89,39z"/>
<path class="st3" d="M95.1,39.9l0.3,0.9L95,40.9c0.5,0.3,0.8,0.7,1.1,1.2c0.1,0.3,0.2,0.7,0.1,1.1c0,0.4-0.2,0.7-0.4,1
	c-0.2,0.3-0.5,0.5-0.8,0.7c-0.3,0.1-0.6,0.2-0.9,0.2v-0.3c0.2,0,0.4-0.1,0.6-0.1c0.3-0.1,0.6-0.4,0.8-0.6c0.2-0.3,0.4-0.6,0.4-0.9
	c0.1-0.3,0-0.7-0.1-1c-0.2-0.5-0.6-0.8-1.1-1L94,41.3v-0.5l0.8-0.3C95,40.4,95.1,40.2,95.1,39.9L95.1,39.9L95.1,39.9z M94,45.1
	c-0.1,0-0.1,0-0.2,0c-0.4-0.1-0.7-0.2-1-0.5c-0.3-0.2-0.5-0.6-0.7-0.9l0,0c0,0.1,0,0.3,0,0.7c0,0.3,0,0.6,0,0.9
	c0,0.2,0.1,0.4,0.1,0.6c0,0.1,0.1,0.2,0.2,0.3v0.1c-0.2-0.1-0.3-0.3-0.4-0.5s-0.1-0.4-0.2-0.6c0-0.2,0-0.4-0.1-0.6
	c0-0.2,0-0.4,0-0.8c0-0.6,0.1-1.1,0.2-1.7l-0.7,0.3c-0.1,0-0.1,0.1-0.2,0.1c0,0-0.1,0.1,0,0.2c0,0.1,0,0.2,0.1,0.3
	c0,0.1,0.1,0.1,0.1,0.2l-0.1,0.1l-0.6-1.4l0.1-0.1l0.2,0.4l3.3-1.3v0.5l-1.9,0.8h0.1c-0.2,0.6-0.2,1.2,0,1.5
	c0.1,0.3,0.3,0.5,0.6,0.7c0.3,0.2,0.6,0.3,0.9,0.3c0.1,0,0.2,0,0.3,0L94,45.1L94,45.1z"/>
<path class="st3" d="M93.2,51.3L92.7,49h0.1l0.1,0.4l4.3-0.8c0.1,0,0.2-0.1,0.3-0.2c0-0.1,0-0.3,0-0.4h0.1l0.5,2.3l0.3-0.1v0.1
	l-1.7,0.3v-0.1l0.3-0.1c0.4-0.1,0.7-0.2,0.7-0.4c0.1-0.3,0.1-0.7,0-1v-0.2L96.5,49l0.1,0.6l0.8-0.1v0.1L95.6,50v-0.1
	c0.2,0,0.4-0.1,0.6-0.2c0.1-0.1,0.2-0.2,0.2-0.3s0-0.2,0-0.3L93,49.9c0.1,0.3,0.1,0.6,0.2,0.9c0.1,0.2,0.2,0.3,0.4,0.4
	c0.2,0.1,0.4,0.1,0.6,0l0.4-0.1v0.1l-1.8,0.4v-0.1L93.2,51.3z"/>
<path class="st3" d="M93.7,54.5v0.4l4.1-0.4c0.2,0,0.3,0,0.5-0.1c0.1-0.1,0.2-0.3,0.2-0.5h0.1l0.1,0.7l-4,2.3l0,0l3.5-0.3
	c0.1,0,0.3-0.1,0.4-0.2c0.1-0.1,0.1-0.2,0.1-0.4h0.2l0.1,1.1h-0.1v-0.4l-5.2,0.5v-0.1l4-2.3l0,0l-3.2,0.3c-0.2,0-0.4,0.1-0.5,0.2
	c-0.1,0.1-0.1,0.3-0.1,0.4h-0.1L93.7,54.5L93.7,54.5z"/>
<path class="st3" d="M97.6,61.8l1.4,0.4v0.1l-1.4,0.3v-0.4l0.5-0.1l0,0L97.6,61.8L97.6,61.8L97.6,61.8z M93.7,63.2l3.2-0.8v-0.6
	l-2.2-0.7C94.5,61,94.3,61,94.2,61s-0.2,0-0.3,0.1c-0.1,0.1-0.1,0.2-0.1,0.3s0,0.2,0,0.3h-0.1l0.1-1.3h0.1v0.3l3.7,1.2v0.2L97.1,62
	v0.5l0.5-0.1v0.4l-2.9,0.7l-0.5,0.1c-0.1,0-0.3,0.1-0.4,0.2c-0.1,0.1-0.2,0.2-0.2,0.3h-0.1l0.1-1.2h0.1L93.7,63.2z"/>
<path class="st6" d="M7,62.1H6.8L6.7,61h0.1v0.4l4.1-0.3c0.2,0,0.4,0,0.5,0.1c0.2,0.1,0.3,0.2,0.4,0.4c0.1,0.1,0.1,0.3,0.2,0.5
	c0,0.2,0,0.4-0.1,0.6c0,0.2-0.1,0.3-0.2,0.5c-0.2,0.2-0.5,0.4-0.8,0.4l-3.6,0.2C7.1,63.8,7,64,7,64.3h0L6.9,63H7v0.4l4-0.3
	c0.3,0,0.5-0.1,0.7-0.3s0.2-0.4,0.2-0.7c0-0.2-0.1-0.4-0.3-0.6c-0.2-0.1-0.4-0.2-0.7-0.2l-3.6,0.3c-0.2,0-0.3,0.1-0.3,0.3L7,62.1
	L7,62.1z"/>
<path class="st6" d="M11.6,57.7v-0.4l-4.1-0.1c-0.2,0-0.3,0-0.5,0c-0.2,0.1-0.2,0.2-0.2,0.5H6.7V57l4.3-1.8l0,0l-3.5-0.1
	c-0.1,0-0.3,0-0.4,0.1s-0.2,0.2-0.2,0.4H6.7v-1.1h0.1v0.4l5.2,0.2v0.1L7.8,57l0,0l3.2,0.1c0.2,0,0.4,0,0.5-0.1s0.1-0.3,0.1-0.4h0.1
	L11.6,57.7L11.6,57.7z"/>
<path class="st6" d="M12.1,51.7l0.1-0.4l-4.4-0.8c-0.1,0-0.2,0-0.3,0.1c-0.1,0.1-0.1,0.2-0.1,0.4H7.3l0.3-1.3h0.1l-0.1,0.4l4.2,0.8
	c0.1,0,0.2,0,0.3,0s0.1,0,0.2-0.1c0.1-0.1,0.1-0.2,0.1-0.4h0.1l-0.3,1.3H12.1z"/>
<path class="st6" d="M13.1,45.3l-3.2-2c-0.1,0-0.2-0.1-0.2-0.1c-0.1-0.1-0.2,0-0.3,0c-0.1,0.1-0.1,0.2-0.2,0.3v0.1H9.1l0.4-1.3h0.1
	l-0.1,0.4l4.5,2.9l-0.1,0.1l-4.6-0.1c-0.2,0-0.4,0-0.6,0c-0.1,0-0.2,0-0.3,0.1s-0.1,0.1-0.1,0.2V46H8.2l0.5-1.4h0.1l-0.2,0.5
	L13.1,45.3z"/>
<path class="st6" d="M16.4,39.3l-1.1,2.1l-0.1-0.1l0.2-0.4l-3.9-2c-0.1-0.1-0.2-0.1-0.3,0S11,39.1,11,39.2l-0.1-0.1L12,37l-0.3-0.1
	l0.1-0.1l1.5,0.8l-0.1,0.1L13,37.6c-0.4-0.2-0.7-0.2-0.9-0.1c-0.3,0.2-0.5,0.5-0.6,0.8l-0.1,0.2l1.1,0.6l0.3-0.6L12,38l0.1-0.1
	l1.7,0.8l-0.1,0.1c-0.2-0.1-0.4-0.2-0.5-0.2s-0.3,0-0.4,0.1c-0.1,0.1-0.2,0.2-0.2,0.3l3,1.5c0.1-0.3,0.3-0.5,0.4-0.8
	c0-0.2,0-0.4-0.1-0.6c-0.1-0.2-0.3-0.3-0.5-0.4L15,38.6l0.1-0.1l1.6,0.8l-0.1,0.1L16.4,39.3z"/>
<path class="st6" d="M13.6,33.6l0.5-0.7l0.4,0.3c0-0.5,0.1-1.1,0.4-1.5c0.2-0.3,0.5-0.5,0.9-0.7c0.3-0.2,0.7-0.2,1.1-0.2
	s0.7,0.1,1,0.4c0.3,0.2,0.6,0.5,0.7,0.9c0.1,0.3,0.2,0.7,0.1,1.1c0,0.4-0.2,0.8-0.4,1.1l0,0c0.1-0.1,0.3-0.2,0.6-0.3
	c0.3-0.1,0.5-0.3,0.7-0.4c0.2-0.1,0.3-0.3,0.5-0.5c0.1-0.1,0.1-0.2,0.1-0.3h0.1c0,0.2-0.1,0.4-0.2,0.6c-0.1,0.2-0.2,0.3-0.4,0.5
	c-0.1,0.1-0.3,0.2-0.4,0.3s-0.4,0.2-0.7,0.4c-0.5,0.3-1,0.5-1.5,0.7l0.6,0.4c0.1,0.1,0.1,0.1,0.2,0.1s0.1,0,0.2,0
	c0.1-0.1,0.1-0.1,0.2-0.2c0-0.1,0.1-0.1,0.1-0.2l0.1,0.1l-0.9,1.2l-0.1-0.1l0.3-0.3l-3.6-2.6c-0.2-0.1-0.4-0.1-0.5,0.1v0.1
	L13.6,33.6L13.6,33.6L13.6,33.6z M14.8,33.3l2.2,1.6v-0.1c0.6-0.2,1.1-0.5,1.3-0.8c0.2-0.2,0.3-0.5,0.3-0.9c0-0.6-0.2-1.3-0.8-1.6
	c-0.3-0.2-0.6-0.3-1-0.3c-0.3,0-0.7,0-1,0.1c-0.3,0.1-0.6,0.3-0.8,0.6C14.8,32.3,14.7,32.8,14.8,33.3L14.8,33.3z"/>
<path class="st6" d="M20.5,24.8l1.4,1.4l-0.1,0.1L21.5,26c-0.2-0.2-0.4-0.4-0.7-0.5c-0.2-0.1-0.5,0-0.6,0.2
	c-0.1,0.1-0.1,0.2-0.2,0.3c0,0.1,0,0.2,0,0.4c0,0.1,0.1,0.2,0.2,0.3c0.1,0.1,0.3,0.2,0.5,0.2s0.3,0,0.5,0s0.4-0.1,0.7-0.2
	c0.3-0.1,0.5-0.2,0.8-0.2c0.2,0,0.5,0,0.7,0s0.4,0.2,0.6,0.3c0.2,0.2,0.3,0.4,0.4,0.6s0.1,0.5,0.1,0.7s-0.1,0.5-0.2,0.7
	s-0.3,0.5-0.4,0.6c-0.2,0.2-0.5,0.4-0.8,0.5c-0.4,0.1-0.7,0.1-1,0.1c-0.3-0.1-0.6-0.2-0.8-0.4c-0.2-0.2-0.3-0.4-0.4-0.6
	s-0.1-0.5,0-0.7s0.2-0.5,0.3-0.6c0.1-0.1,0.3-0.2,0.4-0.3c0.2-0.1,0.3-0.1,0.5-0.1s0.3,0.1,0.4,0.2s0.2,0.2,0.2,0.4
	c0,0.2,0,0.3-0.2,0.4l-0.1,0.1l-0.1-0.1c0.1-0.2,0.1-0.4-0.1-0.5c-0.1-0.1-0.2-0.1-0.3-0.1c-0.1,0-0.2,0-0.4,0
	c-0.1,0-0.2,0.1-0.3,0.2C21.1,28,21,28.2,21,28.4s0,0.4,0.1,0.6s0.2,0.3,0.3,0.5c0.2,0.2,0.4,0.3,0.7,0.4c0.3,0.1,0.5,0.1,0.8,0
	s0.5-0.2,0.7-0.4c0.2-0.2,0.3-0.4,0.4-0.7c0.1-0.3,0.1-0.5,0-0.8s-0.2-0.5-0.4-0.7c-0.1-0.1-0.3-0.2-0.5-0.3c-0.2,0-0.4,0-0.6,0
	s-0.5,0.1-0.7,0.2s-0.4,0.1-0.7,0.2c-0.2,0-0.4,0-0.6,0s-0.4-0.1-0.5-0.3c-0.2-0.2-0.3-0.5-0.3-0.7c0-0.3,0.1-0.5,0.3-0.8
	c0.1-0.1,0.3-0.2,0.5-0.3l-0.2-0.2L20.5,24.8z"/>
<path class="st6" d="M27.1,25.9l0.4-0.3l-2.7-3.5C24.7,22,24.6,22,24.5,22s-0.2,0.1-0.3,0.2L24,22.1l1.1-0.8l0.1,0.1l-0.3,0.3
	l2.7,3.4c0.1,0.1,0.1,0.1,0.2,0.2c0.1,0,0.1,0.1,0.2,0.1c0.1-0.1,0.2-0.1,0.3-0.2l0.1,0.1L27.2,26L27.1,25.9z"/>
<path class="st6" d="M30.4,23.5l0.4-0.2l-2.2-3.8c-0.1-0.2-0.3-0.3-0.5-0.2c0,0-0.1,0-0.1,0.1h-0.1l-0.1-0.1l1.8-1
	c0.3-0.2,0.6-0.3,1-0.4c0.3-0.1,0.6,0,0.9,0c0.2,0.1,0.4,0.1,0.6,0.2c0.2,0.1,0.4,0.2,0.5,0.4c0.2,0.2,0.3,0.3,0.4,0.5
	c0.3,0.5,0.4,1.2,0.3,1.8c0,0.2-0.1,0.5-0.2,0.7c-0.1,0.2-0.3,0.5-0.5,0.7c-0.3,0.3-0.5,0.5-0.9,0.6l-1.5,0.8L30.4,23.5L30.4,23.5
	L30.4,23.5z M32.9,19.2c-0.2-0.3-0.5-0.6-0.9-0.8c-0.4-0.2-0.7-0.3-1.2-0.3c-0.4,0-0.8,0.1-1.1,0.3c-0.3,0.2-0.6,0.4-0.8,0.7
	l2.2,3.8c0.4-0.1,0.7-0.2,1.1-0.4c0.3-0.2,0.6-0.5,0.8-0.9s0.3-0.8,0.2-1.2C33.2,20,33.1,19.6,32.9,19.2z"/>
<path class="st6" d="M39.9,19l-2-2.7l-0.6,0.2l0.2,2.3c0,0.2,0,0.4,0.1,0.5c0,0.1,0.1,0.2,0.2,0.2c0.1,0,0.2,0,0.3,0
	s0.2-0.1,0.3-0.1v0.1l-1.3,0.4v-0.1l0.3-0.1l-0.5-5.3H37l2.6,3.5c0.1,0.1,0.2,0.3,0.3,0.4s0.2,0.2,0.3,0.3c0.1,0.1,0.3,0.1,0.4,0
	v0.1l-1.2,0.4V19L39.9,19L39.9,19L39.9,19z M37.9,16.2l-0.6-0.8l0,0l0.1,1L37.9,16.2z"/>
<path class="st6" d="M43.2,18l0.5-0.1l-0.8-4.3c0-0.2-0.2-0.3-0.4-0.3h-0.1h-0.1v-0.1l2.1-0.4c0.4-0.1,0.7-0.1,1.1,0
	c0.3,0.1,0.6,0.2,0.9,0.3c0.4,0.3,0.6,0.6,0.9,1c0.1,0.2,0.2,0.4,0.2,0.6c0.1,0.6,0,1.2-0.3,1.8c-0.1,0.2-0.3,0.4-0.4,0.6
	c-0.2,0.2-0.4,0.4-0.7,0.5s-0.7,0.3-1,0.3l-1.7,0.3L43.2,18L43.2,18L43.2,18z M47,14.8c-0.1-0.4-0.3-0.8-0.5-1.1
	c-0.3-0.3-0.6-0.5-1-0.7c-0.4-0.1-0.8-0.2-1.2-0.1c-0.4,0-0.7,0.2-1,0.3l0.8,4.3c0.4,0.1,0.8,0,1.2,0c0.4-0.1,0.8-0.3,1.1-0.5
	c0.3-0.3,0.5-0.6,0.6-1C47.1,15.6,47.1,15.2,47,14.8z"/>
<path class="st6" d="M55.1,16.9l0.5,0.1l0.5-4.4c0-0.2-0.1-0.4-0.3-0.4h-0.1h-0.1v-0.1l2.1,0.3c0.4,0,0.7,0.1,1,0.3
	c0.3,0.1,0.5,0.3,0.7,0.6c0.1,0.2,0.2,0.4,0.3,0.5c0.1,0.2,0.2,0.4,0.2,0.6c0,0.2,0,0.4,0,0.7c-0.1,0.6-0.4,1.2-0.8,1.6
	c-0.2,0.2-0.4,0.3-0.6,0.4c-0.2,0.1-0.5,0.2-0.8,0.2c-0.4,0-0.7,0-1.1,0L55.1,17V16.9L55.1,16.9L55.1,16.9z M59.6,15
	c0-0.4,0-0.8-0.2-1.2s-0.4-0.7-0.7-0.9s-0.7-0.4-1.1-0.4c-0.4-0.1-0.7-0.1-1.1,0L56,16.8c0.4,0.2,0.7,0.3,1.1,0.3
	c0.4,0.1,0.8,0,1.2-0.2s0.7-0.5,0.9-0.8C59.4,15.8,59.6,15.4,59.6,15L59.6,15z"/>
<path class="st6" d="M64.9,18.8l-2.3-0.6v-0.1l0.4,0.1l1.1-4.3c0-0.1,0-0.2,0-0.3c-0.1-0.1-0.2-0.1-0.3-0.2v-0.1l2.3,0.6l0.1-0.3
	h0.1L66,15.3h-0.1L66,15c0.1-0.4,0.1-0.7-0.1-0.9c-0.3-0.2-0.6-0.4-0.9-0.4l-0.2-0.1l-0.3,1.2l0.6,0.2l0.2-0.7h0.1l-0.5,1.8h-0.1
	c0.1-0.2,0.1-0.4,0.1-0.6c0-0.1-0.1-0.3-0.2-0.4C64.6,15,64.5,15,64.4,15l-0.9,3.2c0.3,0.1,0.6,0.1,0.9,0.2c0.2,0,0.4-0.1,0.5-0.2
	c0.1-0.2,0.2-0.3,0.3-0.5l0.1-0.4h0.1L65,19.2h-0.1V18.8z"/>
<path class="st6" d="M75.5,18l-0.1,0.1L75,17.9L72.6,22c0.2,0.1,0.4,0.2,0.6,0.3c0.2,0.1,0.4,0.1,0.5,0.1c0.2,0,0.4-0.2,0.4-0.3
	l0.6-1.1l0.1,0.1l-1.2,2.1l-0.1-0.1l0.2-0.3l-1.9-1.1l0.1-0.1l0.4,0.2l2.2-3.8c0.1-0.1,0.1-0.2,0-0.3c-0.1-0.1-0.2-0.2-0.3-0.2
	l0.1-0.1L75.5,18z"/>
<path class="st6" d="M78.6,26.1l1.2-3.1l-0.5-0.4L77.5,24c-0.1,0.1-0.3,0.2-0.4,0.4C77,24.5,77,24.6,77,24.7s0.1,0.2,0.1,0.2
	c0.1,0.1,0.2,0.2,0.3,0.2l-0.1,0.1l-1.1-0.8l0.1-0.1l0.3,0.2l4.2-3.3l0.1,0.1l-1.5,4.1c-0.1,0.1-0.1,0.3-0.2,0.4
	C79.1,26,79,26.1,79,26.3c0,0.1,0.1,0.3,0.2,0.3l-0.1,0.1l-1-0.8l0.1-0.1L78.6,26.1L78.6,26.1L78.6,26.1z M79.9,22.9l0.4-1l0,0
	l-0.8,0.6L79.9,22.9z"/>
<path class="st6" d="M90.1,30.6l-1.6,1.2l-0.1-0.1l0.4-0.3c0.2-0.2,0.4-0.4,0.6-0.6c0.1-0.2,0.1-0.5-0.1-0.6
	C89.2,30.1,89.1,30,89,30c-0.2-0.1-0.5-0.1-0.7,0.1c-0.1,0.1-0.2,0.2-0.3,0.4c0,0.2-0.1,0.3,0,0.5c0,0.2,0.1,0.4,0.1,0.7
	c0.1,0.3,0.1,0.5,0.1,0.8c0,0.2,0,0.5-0.1,0.7s-0.2,0.4-0.4,0.6C87.5,33.9,87.2,34,87,34s-0.5,0-0.7,0c-0.2-0.1-0.5-0.2-0.7-0.3
	s-0.4-0.3-0.6-0.5c-0.2-0.3-0.3-0.6-0.4-0.9c-0.1-0.3-0.1-0.6,0-0.9s0.3-0.6,0.5-0.7c0.2-0.2,0.4-0.3,0.7-0.3c0.2,0,0.5,0,0.7,0.1
	s0.4,0.2,0.6,0.4c0.1,0.1,0.2,0.3,0.2,0.4c0,0.2,0,0.3,0,0.5s-0.1,0.3-0.3,0.4c-0.1,0.1-0.3,0.1-0.4,0.1c-0.2,0-0.3-0.1-0.4-0.2
	c0-0.1-0.1-0.1-0.1-0.2l0.1-0.1c0.2,0.1,0.4,0.1,0.5,0s0.1-0.2,0.2-0.3c0-0.1,0.1-0.2,0-0.4c0-0.1-0.1-0.2-0.1-0.3
	c-0.1-0.1-0.3-0.3-0.4-0.3c-0.2,0-0.4,0-0.6,0s-0.4,0.1-0.5,0.2c-0.2,0.2-0.4,0.4-0.5,0.6c-0.2,0.5-0.2,1.1,0.2,1.6
	c0.2,0.2,0.4,0.4,0.6,0.5s0.5,0.2,0.8,0.1c0.3,0,0.5-0.1,0.7-0.3c0.2-0.1,0.3-0.3,0.3-0.5c0.1-0.2,0.1-0.4,0.1-0.6
	c0-0.3,0-0.5-0.1-0.8c0-0.2-0.1-0.5-0.1-0.7s0-0.4,0.1-0.6s0.2-0.3,0.4-0.5c0.2-0.2,0.5-0.2,0.8-0.2c0.3,0.1,0.5,0.2,0.7,0.4
	c0.1,0.2,0.2,0.3,0.2,0.5l0.2-0.2L90.1,30.6z"/>
<path class="st6" d="M89,39l-1.2-2l0.1-0.1l0.2,0.4l3.8-2.2c0.1,0,0.2-0.1,0.2-0.3c0-0.1,0-0.2-0.1-0.4l0.1-0.1l1.2,2.1l0.3-0.2
	l0.1,0.1l-1.5,0.8L92.1,37l0.2-0.1c0.4-0.2,0.5-0.4,0.6-0.7c0-0.3-0.2-0.7-0.3-0.9l-0.1-0.2l-1.1,0.6l0.3,0.6l0.7-0.4l0.1,0.1
	l-1.6,0.9l0,0.1c0.2-0.1,0.3-0.2,0.5-0.3c0.1-0.1,0.2-0.2,0.1-0.4c0-0.1-0.1-0.2-0.1-0.3l-2.9,1.7c0.2,0.3,0.3,0.5,0.5,0.8
	c0.1,0.1,0.3,0.2,0.5,0.2s0.4-0.1,0.6-0.2l0.3-0.2l0.1,0.1l-1.6,0.9l-0.1-0.1L89,39z"/>
<path class="st6" d="M93.2,51.3L92.7,49h0.1l0.1,0.4l4.3-0.8c0.1,0,0.2-0.1,0.3-0.2c0-0.1,0-0.3,0-0.4h0.1l0.5,2.3l0.3-0.1v0.1
	l-1.7,0.3v-0.1l0.3-0.1c0.4-0.1,0.7-0.2,0.7-0.4c0.1-0.3,0.1-0.7,0-1v-0.2L96.5,49l0.1,0.6l0.8-0.1v0.1L95.6,50v-0.1
	c0.2,0,0.4-0.1,0.6-0.2c0.1-0.1,0.2-0.2,0.2-0.3s0-0.2,0-0.3L93,49.9c0.1,0.3,0.1,0.6,0.2,0.9c0.1,0.2,0.2,0.3,0.4,0.4
	c0.2,0.1,0.4,0.1,0.6,0l0.4-0.1v0.1l-1.8,0.4v-0.1L93.2,51.3z"/>
<path class="st6" d="M93.7,54.5v0.4l4.1-0.4c0.2,0,0.3,0,0.5-0.1c0.1-0.1,0.2-0.3,0.2-0.5h0.1l0.1,0.7l-4,2.3l0,0l3.5-0.3
	c0.1,0,0.3-0.1,0.4-0.2c0.1-0.1,0.1-0.2,0.1-0.4h0.2l0.1,1.1h-0.1v-0.4l-5.2,0.5v-0.1l4-2.3l0,0l-3.2,0.3c-0.2,0-0.4,0.1-0.5,0.2
	c-0.1,0.1-0.1,0.3-0.1,0.4h-0.1L93.7,54.5L93.7,54.5z"/>
<path class="st6" d="M93.7,63.2l3.2-0.8v-0.6l-2.2-0.7C94.5,61,94.3,61,94.2,61s-0.2,0-0.3,0.1c-0.1,0.1-0.1,0.2-0.1,0.3
	s0,0.2,0,0.3h-0.1l0.1-1.3h0.1v0.3l5.1,1.6v0.1l-4.3,1l-0.5,0.1c-0.1,0-0.3,0.1-0.4,0.2c-0.1,0.1-0.2,0.2-0.2,0.3h-0.1l0.1-1.2h0.1
	L93.7,63.2L93.7,63.2L93.7,63.2z M97.1,62.5l1-0.2l0,0l-1-0.3V62.5z"/>
<line class="st6" x1="21.2" y1="80.9" x2="13.8" y2="88.3"/>
<path class="st3" d="M42.5,99.5l0.1-0.4h0.1L42,101h-0.1c0.1-0.3,0.2-0.5,0.2-0.8c0-0.2,0-0.4-0.1-0.5c-0.1-0.2-0.2-0.3-0.4-0.5
	c-0.2-0.1-0.4-0.3-0.6-0.3c-0.4-0.1-0.9-0.2-1.3-0.1c-0.4,0.1-0.8,0.3-1.1,0.6c-0.3,0.3-0.5,0.6-0.7,1c-0.1,0.3-0.2,0.6-0.1,1
	c0,0.3,0.1,0.7,0.2,1c0.1,0.3,0.3,0.6,0.5,0.8c0.2,0.2,0.5,0.4,0.8,0.5s0.6,0.2,1,0.1c0.3,0,0.6-0.1,0.9-0.2l0.1,0.2
	c-0.3,0.1-0.7,0.2-1,0.2c-0.4,0-0.7,0-1-0.1c-0.5-0.2-0.9-0.4-1.2-0.8s-0.5-0.8-0.6-1.3c-0.2-0.9,0.1-1.7,0.7-2.4
	c0.3-0.3,0.6-0.5,0.9-0.6c0.3-0.1,0.7-0.2,1.1-0.2c0.4,0,0.7,0,1.1,0.2C41.8,98.8,42.2,99.1,42.5,99.5z"/>
<path class="st3" d="M48.7,100.2l-0.6,4.4c0,0.1,0,0.2,0,0.3c0.1,0.1,0.2,0.1,0.3,0.1h0.1v0.1l-1.4-0.2v-0.1l0.5,0.1l0.5-3.4
	l-1.6-0.2l-0.4,3c0,0.1,0,0.3,0.1,0.4s0.2,0.1,0.4,0.1v0.1l-1.4-0.2v-0.1l0.5,0.1l0.6-4.5c0-0.2-0.1-0.4-0.4-0.4h-0.1v-0.1l1.4,0.2
	v0.1l-0.4-0.1l-0.2,1.3l1.6,0.2l0.1-0.9c0-0.1,0-0.2-0.1-0.3c-0.1-0.1-0.2-0.1-0.3-0.1h-0.1V100l1.4,0.2v0.1L48.7,100.2z"/>
<path class="st3" d="M52.4,105.2h0.5l-0.2-4.5c0-0.1,0-0.2-0.1-0.3c-0.1,0-0.3-0.1-0.4-0.1v-0.1h1.4v0.1h-0.4l0.2,4.4
	c0,0.1,0,0.2,0,0.3c0,0.1,0.1,0.1,0.1,0.2c0.1,0,0.3,0,0.4,0v0.1L52.4,105.2L52.4,105.2L52.4,105.2z"/>
<path class="st3" d="M57.9,99.6L57.9,99.6l-0.5,0.2l0.9,4.8c0.2,0,0.4-0.1,0.7-0.2c0.2-0.1,0.3-0.2,0.5-0.3c0.1-0.2,0.2-0.4,0.1-0.6
	l-0.2-1.2h0.1l0.5,2.5h-0.1l-0.1-0.3l-2.2,0.4v-0.1l0.4-0.1l-0.9-4.4c0-0.1-0.1-0.2-0.2-0.2c-0.1,0-0.3,0-0.4,0V100L57.9,99.6z"/>
<path class="st3" d="M66,102.9l-2.3,0.8v-0.1l0.4-0.2l-1.5-4.2c0-0.1-0.1-0.2-0.2-0.2c-0.1,0-0.3,0-0.4,0.1V99l2.3-0.8l-0.1-0.3h0.1
	l0.6,1.6h-0.1l-0.1-0.3c-0.1-0.4-0.3-0.6-0.5-0.7c-0.3,0-0.7,0-1,0.2L63,98.8l0.4,1.2l0.6-0.2l-0.3-0.7h0.1l0.6,1.8h-0.1
	c-0.1-0.2-0.1-0.4-0.2-0.5s-0.2-0.2-0.4-0.2c-0.1,0-0.2,0-0.3,0.1l1.1,3.2c0.3-0.1,0.6-0.2,0.9-0.4c0.2-0.1,0.3-0.3,0.3-0.5
	s0-0.4-0.1-0.6l-0.1-0.4h0.1l0.6,1.8h-0.1L66,102.9z"/>
<path class="st6" d="M42.5,99.5l0.1-0.4h0.1L42,101h-0.1c0.1-0.3,0.2-0.5,0.2-0.8c0-0.2,0-0.4-0.1-0.5c-0.1-0.2-0.2-0.3-0.4-0.5
	c-0.2-0.1-0.4-0.3-0.6-0.3c-0.4-0.1-0.9-0.2-1.3-0.1c-0.4,0.1-0.8,0.3-1.1,0.6c-0.3,0.3-0.5,0.6-0.7,1c-0.1,0.3-0.2,0.6-0.1,1
	c0,0.3,0.1,0.7,0.2,1c0.1,0.3,0.3,0.6,0.5,0.8c0.2,0.2,0.5,0.4,0.8,0.5s0.6,0.2,1,0.1c0.3,0,0.6-0.1,0.9-0.2l0.1,0.2
	c-0.3,0.1-0.7,0.2-1,0.2c-0.4,0-0.7,0-1-0.1c-0.5-0.2-0.9-0.4-1.2-0.8s-0.5-0.8-0.6-1.3c-0.2-0.9,0.1-1.7,0.7-2.4
	c0.3-0.3,0.6-0.5,0.9-0.6c0.3-0.1,0.7-0.2,1.1-0.2c0.4,0,0.7,0,1.1,0.2C41.8,98.8,42.2,99.1,42.5,99.5z"/>
<path class="st6" d="M48.7,100.2l-0.6,4.4c0,0.1,0,0.2,0,0.3c0.1,0.1,0.2,0.1,0.3,0.1h0.1v0.1l-1.4-0.2v-0.1l0.5,0.1l0.5-3.4
	l-1.6-0.2l-0.4,3c0,0.1,0,0.3,0.1,0.4s0.2,0.1,0.4,0.1v0.1l-1.4-0.2v-0.1l0.5,0.1l0.6-4.5c0-0.2-0.1-0.4-0.4-0.4h-0.1v-0.1l1.4,0.2
	v0.1l-0.4-0.1l-0.2,1.3l1.6,0.2l0.1-0.9c0-0.1,0-0.2-0.1-0.3c-0.1-0.1-0.2-0.1-0.3-0.1h-0.1V100l1.4,0.2v0.1L48.7,100.2z"/>
<path class="st6" d="M52.4,105.2h0.5l-0.2-4.5c0-0.1,0-0.2-0.1-0.3c-0.1,0-0.3-0.1-0.4-0.1v-0.1h1.4v0.1h-0.4l0.2,4.4
	c0,0.1,0,0.2,0,0.3c0,0.1,0.1,0.1,0.1,0.2c0.1,0,0.3,0,0.4,0v0.1L52.4,105.2L52.4,105.2L52.4,105.2z"/>
<path class="st6" d="M57.9,99.6L57.9,99.6l-0.5,0.2l0.9,4.8c0.2,0,0.4-0.1,0.7-0.2c0.2-0.1,0.3-0.2,0.5-0.3c0.1-0.2,0.2-0.4,0.1-0.6
	l-0.2-1.2h0.1l0.5,2.5h-0.1l-0.1-0.3l-2.2,0.4v-0.1l0.4-0.1l-0.9-4.4c0-0.1-0.1-0.2-0.2-0.2c-0.1,0-0.3,0-0.4,0V100L57.9,99.6z"/>
<path class="st6" d="M66,102.9l-2.3,0.8v-0.1l0.4-0.2l-1.5-4.2c0-0.1-0.1-0.2-0.2-0.2c-0.1,0-0.3,0-0.4,0.1V99l2.3-0.8l-0.1-0.3h0.1
	l0.6,1.6h-0.1l-0.1-0.3c-0.1-0.4-0.3-0.6-0.5-0.7c-0.3,0-0.7,0-1,0.2L63,98.8l0.4,1.2l0.6-0.2l-0.3-0.7h0.1l0.6,1.8h-0.1
	c-0.1-0.2-0.1-0.4-0.2-0.5s-0.2-0.2-0.4-0.2c-0.1,0-0.2,0-0.3,0.1l1.1,3.2c0.3-0.1,0.6-0.2,0.9-0.4c0.2-0.1,0.3-0.3,0.3-0.5
	s0-0.4-0.1-0.6l-0.1-0.4h0.1l0.6,1.8h-0.1L66,102.9z"/>
<line class="st6" x1="83.4" y1="80.7" x2="91.5" y2="88.3"/>
<path class="st6" d="M95.1,39.9l0.3,0.9L95,40.9c0.4,0.3,0.8,0.7,1,1.2c0.1,0.4,0.2,0.7,0.1,1.1c0,0.4-0.2,0.7-0.4,1
	c-0.2,0.3-0.5,0.5-0.9,0.7c-0.4,0.1-0.7,0.2-1.1,0.1c-0.4-0.1-0.7-0.2-1-0.5s-0.5-0.6-0.7-0.9l0,0c0,0.1,0,0.3-0.1,0.7
	c0,0.3-0.1,0.6-0.1,0.9c0,0.2,0.1,0.4,0.1,0.6c0,0.1,0.1,0.2,0.2,0.3L92,46.2c-0.2-0.1-0.3-0.3-0.4-0.5s-0.1-0.4-0.2-0.6
	c0-0.2,0-0.4,0-0.6c0-0.2,0-0.4,0-0.8c0-0.6,0.1-1.1,0.2-1.7l-0.7,0.3c-0.1,0-0.2,0.1-0.2,0.1s-0.1,0.1,0,0.2c0,0.1,0,0.2,0.1,0.3
	c0,0.1,0.1,0.1,0.1,0.2l-0.1,0.1l-0.5-1.4h0.1l0.1,0.4l4.2-1.6c0.2-0.1,0.3-0.2,0.2-0.5V40L95.1,39.9L95.1,39.9L95.1,39.9z M94.7,41
	l-2.6,1h0.1c-0.2,0.6-0.2,1.1,0,1.5c0.1,0.3,0.3,0.5,0.5,0.7c0.5,0.4,1.2,0.5,1.8,0.3c0.3-0.1,0.6-0.3,0.8-0.6
	c0.2-0.3,0.4-0.6,0.4-0.9c0.1-0.3,0-0.7-0.1-1C95.6,41.6,95.2,41.2,94.7,41L94.7,41z"/>
</svg>
