<?xml version="1.0" encoding="utf-8"?>
<!-- Generator: Adobe Illustrator 21.1.0, SVG Export Plug-In . SVG Version: 6.00 Build 0)  -->
<svg version="1.1" id="Capa_1" xmlns="http://www.w3.org/2000/svg" xmlns:xlink="http://www.w3.org/1999/xlink" x="0px" y="0px"
	 viewBox="0 0 1370 305" style="enable-background:new 0 0 1370 305;" xml:space="preserve">
<style type="text/css">
	.st0{fill:#FFFFFF;}
	.st1{fill:#323D6B;}
	.st2{fill:#BC2E34;}
</style>
<path class="st0" d="M155.6,6c81.2,0,147,65.8,147,147s-65.8,147-147,147s-147-65.8-147-147C8.6,71.8,74.4,6,155.6,6"/>
<path class="st1" d="M155.6,42.2c61.2,0,110.8,49.6,110.8,110.8s-49.6,110.8-110.8,110.8S44.8,214.2,44.8,153S94.4,42.2,155.6,42.2"
	/>
<polygon class="st0" points="124.5,71.5 152.5,54.7 152.5,80.2 127.2,95.1 92.8,95.1 92.8,71.9 "/>
<polygon class="st2" points="98.4,76.6 98.4,90.4 125.9,90.4 147.7,77.5 147.7,63.2 125.9,76.3 "/>
<polygon class="st0" points="92.8,103.9 125.9,103.9 152.5,88.9 152.5,84.1 125.9,99.1 92.8,99.1 "/>
<polygon class="st0" points="92.8,113.6 125.9,113.6 152.5,98.7 152.5,93.9 125.9,108.9 92.8,108.9 "/>
<polygon class="st0" points="126.2,152.1 162,172.3 162,193.5 154.9,197.3 147.7,193.5 147.7,179.9 126.2,167.8 126.2,202.2 
	153.3,217.4 153.2,251.3 93.6,217.7 93.6,149.6 88.1,149.6 88.1,117.1 126.2,117.1 "/>
<polygon class="st2" points="92.9,121.9 98.4,121.9 121.4,121.9 121.4,144.9 121.4,154.9 157.2,175 157.2,190.6 154.9,191.9 
	152.5,190.6 152.5,177.1 121.4,159.6 121.4,205 148.5,220.2 148.5,243.1 98.4,214.9 98.4,144.9 92.9,144.9 "/>
<polygon class="st0" points="162,135.7 185,148.7 185,117.1 223.1,117.1 223.1,149.6 217.6,149.6 217.6,217.7 158,251.3 
	157.9,217.4 185,202.2 185,164.4 147.7,143.4 147.7,122.1 154.8,118.3 162,122.1 "/>
<polygon class="st2" points="157.2,125 157.2,138.5 189.8,156.8 189.8,144.9 189.8,121.9 212.8,121.9 218.3,121.9 218.3,144.9 
	212.8,144.9 212.8,214.9 162.7,243.1 162.7,220.2 189.8,205 189.8,162.2 189,161.1 152.5,140.6 152.5,125 154.9,123.7 "/>
<polygon class="st0" points="185.2,71.5 157.2,54.7 157.2,80.2 182.5,95.1 216.9,95.1 216.9,71.9 "/>
<polygon class="st2" points="211.3,76.6 211.3,90.4 183.8,90.4 162,77.5 162,63.2 183.8,76.3 "/>
<polygon class="st0" points="216.9,103.9 183.8,103.9 157.2,88.9 157.2,84.1 183.8,99.1 216.9,99.1 "/>
<polygon class="st0" points="216.9,113.6 183.8,113.6 157.2,98.7 157.2,93.9 183.8,108.9 216.9,108.9 "/>
<path class="st1" d="M66.7,215.9l-21.8,21.8c25.5,33.3,65.6,54.7,110.7,54.7s85.2-21.5,110.7-54.7l-21.8-21.8l1.1-1.1l21.6,21.6
	c17.4-23.3,27.7-52.1,27.7-83.4c0-77-62.4-139.3-139.3-139.3S16.3,76.1,16.3,153c0,31.3,10.3,60.2,27.7,83.4l21.7-21.7L66.7,215.9z
	 M155.6,11.5c78.2,0,141.5,63.4,141.5,141.5s-63.3,141.5-141.5,141.5S14.1,231.1,14.1,153S77.4,11.5,155.6,11.5"/>
<path class="st1" d="M24.7,142.7h-0.4l0.3-4.3h0.5l-0.1,1.5l13,1c0.6,0,1.2,0.3,1.6,0.7c0.5,0.4,0.8,1,1,1.6s0.3,1.3,0.3,1.9
	c0,0.6-0.2,1.3-0.4,2.1c-0.3,0.8-0.5,1.4-0.9,1.8c-0.7,0.8-1.6,1.2-2.8,1.1l-11.3-0.9c-0.8-0.1-1.2,0.5-1.3,1.8h-0.5l0.4-5.2h0.5
	l-0.1,1.6l12.6,1c0.9,0.1,1.6-0.2,2.2-0.9c0.6-0.6,0.9-1.5,1-2.5c0.1-0.9-0.2-1.7-0.7-2.3s-1.2-1-2-1l-11.5-0.9
	c-0.8-0.1-1.2,0.4-1.2,1.4L24.7,142.7z M40.9,136.1l0.3-1.5l-12.8-2.3c-0.7-0.1-1.2-0.1-1.6,0c-0.5,0.2-0.9,0.7-1.1,1.8l-0.4-0.1
	l0.5-2.7l14.5-5v-0.1l-11.1-2c-0.5-0.1-0.9,0-1.3,0.3s-0.6,0.7-0.7,1.3l-0.4-0.1l0.7-4.1l0.4,0.1l-0.2,1.4L44,126l-0.1,0.5
	l-14.6,5.1l0,0l10.1,1.8c0.8,0.1,1.4,0,1.7-0.3c0.2-0.3,0.4-0.8,0.5-1.5l0.4,0.1l-0.8,4.5L40.9,136.1z M43.9,120.9l0.5-1.7
	l-13.6-3.9c-0.4-0.1-0.8,0-1,0.2c-0.2,0.3-0.4,0.7-0.6,1.3l-0.4-0.1l1.4-5l0.4,0.1l-0.5,1.6l13.2,3.8c0.4,0.1,0.7,0.2,0.8,0.2
	c0.3,0,0.5-0.1,0.6-0.2c0.1-0.2,0.3-0.7,0.5-1.4l0.4,0.1l-1.4,5.1L43.9,120.9z M48.5,104.2l-9.3-7.8c-0.4-0.3-0.6-0.4-0.7-0.5
	c-0.4-0.2-0.8-0.2-1.1,0c-0.3,0.2-0.5,0.6-0.8,1.1l-0.1,0.3l-0.4-0.2l2.1-4.7l0.4,0.2l-0.7,1.5L51,105.3l-0.2,0.6l-14.8-1
	c-0.9,0-1.5-0.1-2,0c-0.4,0.1-0.8,0.2-1,0.4c-0.2,0.2-0.4,0.5-0.6,0.9l-0.2,0.5l-0.4-0.2l2.4-5.3l0.4,0.2l-0.8,1.9L48.5,104.2z
	 M58.9,88.9l-4.5,7.9L54,96.6l0.9-1.5l-12.2-7c-0.4-0.2-0.8-0.3-1.1-0.1c-0.3,0.2-0.6,0.6-0.9,1.1l-0.4-0.2l4.6-8L44,80.4l0.3-0.5
	l4.7,2.7l-0.3,0.5l-0.8-0.4c-1.2-0.7-2.1-0.8-2.8-0.3c-0.7,0.4-1.4,1.4-2.3,3l-0.4,0.7l3.4,2l1.3-2.2L45,84.5l0.2-0.4l5.2,3
	l-0.2,0.4c-0.6-0.4-1.2-0.6-1.7-0.7s-1,0-1.4,0.4c-0.2,0.2-0.5,0.5-0.8,1.1l9.3,5.4c0.6-1.1,1.1-2.1,1.6-3.1c0.2-0.8,0.2-1.5-0.1-2
	c-0.3-0.5-0.7-1-1.4-1.4l-1.1-0.6l0.3-0.5L60,89l-0.3,0.5L58.9,88.9z M48.7,74.5l2.3-2.7l1.2,1c0.4-2.2,1.2-3.9,2.4-5.4
	c0.9-1.1,2-1.9,3.4-2.5c1.3-0.6,2.6-0.9,3.9-0.8s2.4,0.5,3.3,1.3c1,0.8,1.6,1.9,1.9,3.2c0.3,1.3,0.2,2.6-0.2,3.9
	c-0.4,1.4-1.1,2.7-2,3.9l0,0c0.4-0.2,1.1-0.6,2.3-1.2c1.2-0.6,2.1-1.1,2.8-1.5c0.7-0.5,1.4-1,1.9-1.6c0.4-0.5,0.6-0.9,0.7-1.2h0.3
	c0,0.7-0.4,1.3-1,2c-0.5,0.6-1,1.1-1.7,1.6c-0.6,0.5-1.2,0.9-1.7,1.2C68,76,67.1,76.5,66,77.2c-2.2,1.2-4.1,2.1-5.7,2.7l1.7,1.5
	c0.3,0.2,0.5,0.4,0.7,0.4s0.4,0,0.6-0.2s0.5-0.5,0.8-0.7c0.1-0.2,0.3-0.4,0.5-0.7l0.3,0.3l-3.8,4.4l-0.3-0.3l1.1-1.2l-10.7-9.3
	c-0.5-0.5-1.2-0.3-1.9,0.5l-0.2,0.2L48.7,74.5z M52.9,73.5l6.7,5.8l-0.1-0.5c2.3-0.7,3.9-1.7,5-2.9c0.8-0.9,1.3-1.9,1.6-3.1
	c0.3-1.1,0.3-2.2,0-3.3c-0.3-1.1-0.8-1.9-1.6-2.6c-0.9-0.7-1.9-1.1-3.1-1.2s-2.4,0.1-3.5,0.5c-1.2,0.5-2.2,1.2-3.1,2.2
	C53.4,69.9,52.8,71.6,52.9,73.5 M72.2,48.8l4.1,4.8L75.9,54l-1-1.1c-0.7-0.8-1.4-1.3-2.1-1.6c-0.7-0.3-1.4-0.1-2.2,0.6
	c-0.4,0.3-0.6,0.7-0.8,1.1c-0.2,0.4-0.3,0.8-0.2,1.2c0,0.4,0.2,0.8,0.5,1.1c0.4,0.4,0.9,0.7,1.4,0.8c0.6,0.1,1.2,0,1.8-0.1
	c0.6-0.1,1.5-0.4,2.5-0.7c1.1-0.3,2.1-0.6,2.9-0.8c0.8-0.2,1.6-0.2,2.4,0c0.8,0.1,1.4,0.5,1.9,1.1s0.9,1.3,1,2.1
	c0.1,0.8,0.1,1.6-0.2,2.5c-0.2,0.9-0.6,1.7-1.2,2.5c-0.5,0.8-1.2,1.6-2,2.2c-1,0.9-2.1,1.5-3.2,1.9s-2.2,0.5-3.2,0.3
	s-1.9-0.7-2.6-1.5c-0.5-0.6-0.9-1.4-1-2.2c-0.1-0.8,0-1.7,0.3-2.6s0.9-1.6,1.6-2.2c0.4-0.4,1-0.7,1.6-0.9c0.6-0.2,1.2-0.3,1.8-0.3
	c0.6,0.1,1,0.3,1.4,0.7c0.3,0.4,0.5,0.9,0.4,1.4c-0.1,0.6-0.3,1-0.8,1.4c-0.1,0.1-0.3,0.2-0.6,0.4l-0.2-0.5c0.6-0.7,0.6-1.3,0.1-1.9
	c-0.2-0.2-0.5-0.4-0.9-0.5s-0.8-0.1-1.2,0c-0.4,0.1-0.8,0.3-1.2,0.6c-0.5,0.5-0.9,1-1.1,1.7c-0.2,0.6-0.2,1.3-0.1,1.9
	s0.4,1.2,0.8,1.6c0.6,0.7,1.3,1.1,2.2,1.4c0.9,0.3,1.8,0.3,2.9,0c1-0.2,2-0.8,2.9-1.5c0.8-0.7,1.5-1.5,1.9-2.5
	c0.5-0.9,0.7-1.8,0.6-2.7c0-0.9-0.3-1.7-0.9-2.3c-0.5-0.5-1-0.8-1.7-0.9s-1.4-0.1-2.1,0.1c-0.8,0.1-1.7,0.4-2.7,0.7
	c-1,0.3-1.8,0.5-2.5,0.6s-1.4,0.1-2,0s-1.2-0.5-1.6-1c-0.6-0.7-0.8-1.5-0.5-2.6c0.2-1,0.8-1.9,1.6-2.7c0.4-0.3,1-0.7,1.8-1l-0.6-0.7
	L72.2,48.8z M88.5,57.6l1.4-1l-8.2-11.5c-0.3-0.4-0.6-0.5-0.9-0.5c-0.4,0.1-0.8,0.3-1.3,0.7l-0.3-0.4l4.3-3l0.3,0.4l-1.4,1l8,11.2
	c0.2,0.3,0.4,0.6,0.5,0.6c0.2,0.2,0.4,0.2,0.6,0.2c0.2-0.1,0.7-0.3,1.3-0.8l0.3,0.4l-4.3,3L88.5,57.6z M95.5,52.6l1.6-0.8l-6.4-12.5
	c-0.4-0.7-1-0.8-1.9-0.3l-0.3,0.2l-0.2-0.4l7.2-3.7c1.4-0.7,2.7-1.2,3.9-1.4c1.2-0.2,2.3-0.2,3.4,0c0.7,0.2,1.4,0.4,2.1,0.7
	c0.7,0.3,1.3,0.7,1.8,1.2s1,1.1,1.3,1.7c0.9,1.9,1,3.8,0.3,5.9c-0.3,0.8-0.7,1.6-1.1,2.4c-0.5,0.7-1.2,1.5-2.1,2.3s-2.1,1.5-3.5,2.2
	L95.9,53L95.5,52.6z M106.4,38.1c-0.6-1.1-1.6-2-2.8-2.6c-1.2-0.6-2.6-0.9-4.1-0.9s-2.9,0.4-4.3,1.1c-1.6,0.8-2.8,1.6-3.4,2.3
	l6.4,12.6c1.1-0.2,2.5-0.7,4.2-1.6c1.4-0.7,2.5-1.7,3.4-2.9c0.8-1.2,1.3-2.6,1.4-4C107.3,40.6,107.1,39.3,106.4,38.1 M125.2,40.1
	l-6.4-8.6l-2.3,0.7l-0.1,7.5c0,0.7,0,1.3,0.2,1.8c0.1,0.4,0.3,0.6,0.5,0.7s0.6,0.1,1,0c0.3,0,0.7-0.1,1.3-0.3l0.1,0.4l-5,1.4
	l-0.1-0.4l1.2-0.3V25.8l0.5-0.1l8.5,11.5c0.3,0.4,0.6,0.8,0.9,1.3c0.3,0.4,0.7,0.8,1.1,1s0.9,0.3,1.4,0.1l0.1,0.4l-4.6,1.3l-0.1-0.4
	L125.2,40.1z M118.5,30.9l-1.9-2.7h-0.1v3.3L118.5,30.9z M130.7,38.3l1.7-0.2l-1.8-14c-0.1-0.8-0.7-1.1-1.7-1h-0.4l-0.1-0.4l8-1
	c1.6-0.2,2.9-0.2,4.1,0s2.2,0.6,3.2,1.2c0.6,0.4,1.2,0.9,1.7,1.4s0.9,1.1,1.3,1.8c0.3,0.6,0.6,1.3,0.6,2c0.2,2.1-0.3,4-1.7,5.7
	c-0.6,0.7-1.2,1.3-1.9,1.9c-0.7,0.5-1.6,1-2.7,1.4s-2.4,0.7-4,0.9l-6.4,0.8L130.7,38.3z M145.9,28.4c-0.2-1.3-0.8-2.4-1.8-3.4
	s-2.1-1.7-3.6-2.2c-1.4-0.5-2.9-0.6-4.4-0.4c-1.8,0.2-3.1,0.6-4,1l1.8,14c1.1,0.2,2.6,0.2,4.5-0.1c1.6-0.2,2.9-0.7,4.1-1.6
	s2.1-2,2.7-3.3C145.9,31.1,146.1,29.8,145.9,28.4 M161,35.9l1.7,0.2l1.8-14c0.1-0.8-0.4-1.2-1.4-1.4h-0.4l0.1-0.4l8,1
	c1.6,0.2,2.9,0.5,4,1s2,1.1,2.8,1.9c0.5,0.5,0.9,1.1,1.3,1.8c0.4,0.7,0.6,1.3,0.8,2c0.2,0.7,0.2,1.4,0.1,2.1
	c-0.3,2.1-1.3,3.7-3.1,5.1c-0.7,0.5-1.5,1-2.3,1.3s-1.8,0.6-3,0.7s-2.5,0.1-4.1-0.1l-6.4-0.8L161,35.9z M178.2,30.1
	c0.1-1.3-0.2-2.5-0.9-3.8c-0.7-1.2-1.6-2.2-2.9-3.1c-1.3-0.8-2.6-1.3-4.2-1.5c-1.8-0.2-3.2-0.2-4.1,0l-1.8,14c1,0.5,2.5,0.8,4.3,1.1
	c1.6,0.2,3,0,4.4-0.5c1.4-0.6,2.5-1.4,3.4-2.5C177.5,32.7,178,31.5,178.2,30.1 M190.9,42.2l-8.7-2.5l0.1-0.4l1.7,0.5l3.8-13.5
	c0.1-0.5,0.1-0.8-0.2-1c-0.3-0.2-0.7-0.4-1.3-0.6l0.1-0.4l8.8,2.5l0.3-1l0.5,0.1l-1.5,5.3l-0.5-0.1l0.2-0.8c0.4-1.3,0.2-2.2-0.4-2.8
	c-0.6-0.5-1.7-1-3.5-1.5l-0.7-0.2l-1.1,3.8l2.4,0.7l0.7-2.3l0.4,0.1l-1.6,5.7l-0.4-0.1c0.2-0.7,0.3-1.3,0.3-1.8s-0.2-0.9-0.7-1.2
	c-0.2-0.2-0.6-0.3-1.2-0.5l-2.9,10.3c1.2,0.3,2.3,0.6,3.4,0.8c0.8,0,1.5-0.2,1.9-0.6s0.8-1,1-1.7l0.3-1.2l0.5,0.1l-1.6,5.7l-0.5-0.1
	L190.9,42.2z M214.9,34.7l-0.2,0.4l-1.5-0.8l-7,13.6c0.9,0.4,1.6,0.8,2.3,1c0.7,0.2,1.4,0.3,2,0.2c0.6-0.1,1.1-0.4,1.5-1.1l1.8-3.5
	l0.5,0.2l-3.6,7l-0.5-0.2l0.4-0.9l-7.6-3.9l0.2-0.4l1.5,0.8l6.5-12.6c0.2-0.4,0.2-0.7,0-1s-0.6-0.6-1.1-0.8l0.2-0.4L214.9,34.7z
	 M223.9,58.2l2.3-10.5l-2-1.3l-5.7,4.9c-0.5,0.4-0.9,0.9-1.2,1.3c-0.2,0.3-0.3,0.6-0.2,0.8c0.1,0.2,0.3,0.5,0.7,0.8
	c0.2,0.2,0.6,0.4,1.1,0.7l-0.2,0.4l-4.4-2.8l0.2-0.4l1,0.7l12.9-11.4l0.5,0.3l-3,14c-0.1,0.5-0.2,1-0.3,1.5c-0.1,0.5-0.1,1,0,1.5
	s0.4,0.8,0.8,1.1l-0.2,0.4l-4-2.6l0.2-0.4L223.9,58.2z M226.3,47.1l0.8-3.3l0,0l-2.5,2.2L226.3,47.1z M254.5,63.6l-4.6,4.3l-0.4-0.4
	l1.1-1c0.8-0.7,1.3-1.4,1.5-2.1c0.3-0.7,0-1.4-0.7-2.2c-0.4-0.3-0.8-0.6-1.2-0.8c-0.4-0.2-0.8-0.2-1.2-0.2c-0.4,0.1-0.8,0.2-1,0.5
	c-0.4,0.4-0.7,0.9-0.7,1.5c-0.1,0.6,0,1.2,0.2,1.8c0.2,0.6,0.4,1.4,0.8,2.5c0.4,1.1,0.7,2.1,0.9,2.9s0.2,1.6,0.1,2.4
	c-0.1,0.8-0.5,1.4-1,2c-0.6,0.6-1.3,0.9-2,1.1c-0.8,0.2-1.6,0.1-2.5,0c-0.9-0.2-1.7-0.5-2.5-1s-1.6-1.1-2.3-1.8c-0.9-1-1.6-2-2-3.1
	c-0.5-1.1-0.6-2.2-0.5-3.2s0.6-1.9,1.4-2.6c0.6-0.6,1.3-0.9,2.2-1.1c0.8-0.2,1.7-0.1,2.6,0.2c0.9,0.3,1.6,0.8,2.3,1.5
	c0.4,0.4,0.7,0.9,1,1.5s0.4,1.2,0.4,1.7c0,0.6-0.2,1-0.6,1.4c-0.4,0.4-0.8,0.5-1.4,0.5c-0.6,0-1.1-0.3-1.5-0.7
	c-0.1-0.1-0.2-0.3-0.4-0.6l0.4-0.3c0.7,0.5,1.3,0.5,1.9,0c0.2-0.2,0.4-0.5,0.5-0.9s0-0.8-0.1-1.2c-0.1-0.4-0.4-0.8-0.7-1.2
	c-0.5-0.5-1.1-0.9-1.7-1c-0.7-0.2-1.3-0.2-1.9,0c-0.6,0.2-1.2,0.5-1.6,0.8c-0.6,0.6-1.1,1.4-1.3,2.3s-0.2,1.9,0.1,2.9
	s0.9,1.9,1.7,2.8c0.7,0.8,1.6,1.4,2.5,1.8c1,0.4,1.9,0.6,2.8,0.5c0.9-0.1,1.6-0.4,2.3-1c0.5-0.5,0.7-1.1,0.8-1.8
	c0.1-0.7,0-1.4-0.2-2.1s-0.5-1.6-0.8-2.7c-0.4-1-0.6-1.8-0.8-2.4c-0.2-0.7-0.2-1.3-0.1-2c0.1-0.6,0.4-1.2,0.9-1.7
	c0.7-0.6,1.5-0.8,2.5-0.6c1,0.2,1.9,0.7,2.8,1.5c0.3,0.4,0.7,1,1.1,1.8l0.7-0.7L254.5,63.6z M251.5,87.9l-5.3-7.4l0.4-0.3l1,1.4
	l11.5-8.2c0.4-0.3,0.6-0.6,0.5-0.9s-0.3-0.8-0.6-1.3l0.4-0.3l5.3,7.5l0.8-0.6l0.3,0.4l-4.4,3.2l-0.3-0.4l0.7-0.5
	c1.1-0.8,1.6-1.6,1.4-2.4c-0.1-0.8-0.7-1.9-1.8-3.4l-0.4-0.6l-3.2,2.3l1.5,2.1l2-1.4l0.3,0.4l-4.8,3.4l-0.3-0.4
	c0.6-0.4,1-0.8,1.4-1.2c0.3-0.4,0.4-0.9,0.2-1.4c-0.1-0.3-0.3-0.6-0.6-1.1l-8.8,6.2c0.7,1,1.4,1.9,2.2,2.7c0.7,0.5,1.3,0.8,1.9,0.7
	c0.6,0,1.2-0.3,1.8-0.7l1-0.7l0.3,0.4l-4.8,3.4l-0.3-0.4L251.5,87.9z M268.7,83.9l1.6,3.1l-1.4,0.7c1.8,1.2,3.2,2.6,4.1,4.3
	c0.6,1.3,1,2.6,1.1,4s-0.2,2.7-0.7,3.9c-0.5,1.2-1.3,2-2.4,2.6c-1.1,0.6-2.4,0.8-3.6,0.6c-1.3-0.2-2.5-0.8-3.6-1.6
	c-1.1-0.9-2.1-2-2.8-3.3l0,0c0.1,0.4,0.1,1.3,0.2,2.5c0.1,1.3,0.2,2.3,0.4,3.2c0.2,0.9,0.4,1.6,0.8,2.4c0.3,0.5,0.6,0.9,0.8,1.1
	l-0.1,0.3c-0.6-0.3-1.1-0.8-1.5-1.7c-0.3-0.7-0.6-1.4-0.8-2.1c-0.2-0.8-0.4-1.4-0.5-2s-0.3-1.6-0.5-2.9c-0.2-2.5-0.4-4.6-0.4-6.3
	l-2,1c-0.3,0.2-0.5,0.3-0.6,0.5s-0.1,0.3-0.1,0.6c0.1,0.3,0.2,0.6,0.4,1c0.1,0.2,0.3,0.4,0.4,0.8l-0.4,0.2l-2.7-5.2l0.4-0.2l0.7,1.5
	l12.6-6.5c0.6-0.3,0.7-1,0.2-1.9l-0.1-0.2L268.7,83.9z M268.1,88.2l-7.9,4l0.5,0.1c-0.2,2.4,0.1,4.3,0.8,5.7
	c0.5,1.1,1.3,1.9,2.2,2.6c1,0.7,2,1.1,3,1.2c1.1,0.1,2.1,0,3-0.5c1-0.5,1.7-1.3,2.3-2.4s0.8-2.2,0.8-3.5s-0.3-2.5-0.9-3.7
	C271.2,89.9,269.8,88.7,268.1,88.2 M266.3,119.4l-2.9-8.6l0.4-0.1l0.6,1.7l13.3-4.5c0.5-0.2,0.7-0.4,0.7-0.8c0-0.3,0-0.8-0.2-1.4
	l0.4-0.1l2.9,8.7l1-0.3l0.2,0.5l-5.2,1.7l-0.2-0.5l0.8-0.3c1.3-0.4,2-1.1,2.1-1.9s-0.1-2-0.7-3.7l-0.2-0.7l-3.8,1.3l0.8,2.4l2.3-0.8
	l0.1,0.4l-5.6,1.9l-0.1-0.4c0.7-0.2,1.2-0.5,1.7-0.8c0.4-0.3,0.6-0.7,0.6-1.3c0-0.3-0.1-0.7-0.3-1.3l-10.2,3.4
	c0.4,1.2,0.8,2.2,1.3,3.2c0.5,0.7,1,1.1,1.6,1.2s1.2,0.1,2-0.2l1.2-0.4l0.2,0.5l-5.6,1.9l-0.2-0.5L266.3,119.4z M268.3,123.8
	l0.3,1.5l12.8-2.3c0.7-0.1,1.2-0.3,1.5-0.5c0.4-0.3,0.6-1,0.4-2l0.4-0.1l0.5,2.7l-11.9,9.7v0.1l11.1-2c0.5-0.1,0.8-0.3,1.1-0.8
	c0.2-0.4,0.3-0.9,0.2-1.5l0.4-0.1l0.7,4.1l-0.4,0.1l-0.2-1.4l-16.3,2.9l-0.1-0.5l12-9.9l0,0l-10.1,1.8c-0.8,0.1-1.3,0.4-1.5,0.9
	c-0.1,0.4-0.1,0.9,0,1.6l-0.4,0.1l-0.8-4.5L268.3,123.8z M271.7,149.8l9.7-4.5l-0.2-2.4l-7.3-1.6c-0.7-0.1-1.3-0.2-1.8-0.2
	c-0.4,0-0.6,0.1-0.8,0.4c-0.1,0.2-0.2,0.6-0.2,1c0,0.3,0,0.7,0,1.3h-0.5l-0.4-5.2h0.5l0.1,1.2l16.9,3.4v0.5l-12.9,6
	c-0.5,0.2-0.9,0.4-1.4,0.6c-0.5,0.2-0.9,0.5-1.2,0.9s-0.4,0.8-0.4,1.3h-0.5l-0.4-4.8h0.4L271.7,149.8z M282,145l3.1-1.4v-0.1
	l-3.3-0.6L282,145z"/>
<path class="st1" d="M133.4,269.6l0.3-1.4l0.5,0.1l-1.4,6.3l-0.5-0.1c0.3-1.1,0.4-2,0.4-2.6s-0.2-1.2-0.6-1.7s-1-1-1.8-1.4
	s-1.7-0.8-2.6-1c-1.7-0.4-3.4-0.4-4.9,0s-2.8,1.1-3.7,2.1c-1,1-1.6,2.1-1.9,3.4c-0.2,1-0.2,2.1,0,3.2c0.2,1.1,0.7,2.1,1.3,3.1
	c0.6,1,1.5,1.8,2.5,2.5s2.2,1.2,3.4,1.5c1.3,0.3,2.6,0.4,3.7,0.2c1.2-0.2,2.2-0.5,3.1-1l0.4,0.7c-1.1,0.5-2.4,0.8-3.7,0.9
	c-1.4,0.1-2.7,0-4-0.2c-1.9-0.4-3.5-1.2-4.9-2.3s-2.4-2.4-3.1-3.9c-0.6-1.5-0.8-3-0.4-4.5c0.3-1.2,0.8-2.3,1.7-3.2
	c0.8-0.9,1.9-1.7,3.1-2.2s2.5-0.9,4-1c1.4-0.1,2.8,0,4.2,0.3C130.3,267.7,131.9,268.4,133.4,269.6 M155.8,286.9h1.7l-0.4-14.4
	c0-0.5-0.2-0.8-0.5-0.9c-0.3-0.1-0.8-0.2-1.5-0.2v-0.5l5.3-0.1v0.5h-1.7l0.4,14c0,0.4,0,0.7,0.1,0.8c0.1,0.3,0.2,0.4,0.4,0.6
	c0.2,0.1,0.7,0.1,1.5,0.1v0.5l-5.3,0.1V286.9z M169.5,270.2l0.1,0.5l-1.7,0.2l2,15.4c1-0.1,1.8-0.3,2.5-0.5s1.3-0.5,1.8-1
	c0.5-0.4,0.7-1,0.6-1.7l-0.5-4l0.5-0.1l1,8l-0.5,0.1l-0.1-1l-8.6,1.1l-0.1-0.5l1.7-0.2l-1.8-14.3c-0.1-0.4-0.3-0.7-0.6-0.8
	c-0.3-0.1-0.8-0.1-1.4,0l-0.1-0.5L169.5,270.2z M190.8,282.9l-9,2.1l-0.1-0.5l1.7-0.4l-3.2-13.9c-0.1-0.5-0.3-0.7-0.7-0.8
	c-0.3-0.1-0.8-0.1-1.4,0.1l-0.1-0.4l9.1-2.1l-0.2-1l0.5-0.1l1.2,5.4l-0.5,0.1l-0.2-0.9c-0.3-1.3-0.9-2.1-1.7-2.3
	c-0.8-0.2-2.1-0.1-3.9,0.3l-0.7,0.2l0.9,3.9l2.5-0.6l-0.6-2.4l0.5-0.1l1.4,5.9l-0.5,0.1c-0.2-0.7-0.4-1.3-0.6-1.8
	c-0.3-0.5-0.7-0.7-1.2-0.7c-0.3,0-0.7,0-1.3,0.1l2.5,10.6c1.2-0.3,2.3-0.6,3.4-1c0.7-0.4,1.2-0.9,1.4-1.5c0.2-0.6,0.2-1.2,0-2
	l-0.3-1.2l0.5-0.1l1.3,5.8l-0.5,0.1L190.8,282.9z M149.1,271.1l-1.1,14.2c0,0.5,0,0.8,0.2,1s0.6,0.3,1.2,0.4c0.1,0,0.3,0,0.5,0v0.5
	l-5.3-0.4v-0.5l1.7,0.1l0.8-10.8l-6.3-0.5l-0.7,9.6c0,0.6,0.1,1,0.4,1.2c0.2,0.1,0.7,0.2,1.4,0.2v0.5l-5.3-0.4v-0.5l1.7,0.1
	l1.1-14.3c0.1-0.8-0.5-1.2-1.5-1.3h-0.4v-0.5l5.3,0.4v0.5l-1.7-0.1l-0.3,4.1l6.3,0.5l0.2-2.9c0-0.4-0.1-0.7-0.4-0.9
	s-0.6-0.3-1.1-0.4h-0.4v-0.5l5.3,0.4v0.5L149.1,271.1z"/>
<path class="st0" d="M399.5,133.5c0,11,7.8,18.6,19.6,18.6c11.7,0,19.5-7.6,19.5-18.6v-22.7c0-1,0.6-1.5,1.5-1.5h3v-7.8h-9
	c-3.4,0-4.8,1.5-4.8,4.8v26.9c0,6.6-4.1,10.4-10.4,10.4c-6.2,0-10.4-3.8-10.4-10.3v-27c0-3.3-1.4-4.8-4.8-4.8h-9v7.8h3
	c1,0,1.5,0.6,1.5,1.5v22.7H399.5z M447,151.2h9c3.4,0,4.8-1.4,4.8-4.8v-22.7c0-2.9-0.5-7-0.5-7h0.1c0,0,2.2,4.2,4.1,7l18.9,27.4h8.2
	v-40.4c0-1,0.6-1.5,1.5-1.5h3v-7.7h-9c-3.4,0-4.8,1.5-4.8,4.8v22.8c0,2.9,0.5,7,0.5,7h-0.1c0,0-2.2-4.1-4.1-7l-18.8-27.6h-8.3v40.4
	c0,1-0.6,1.5-1.5,1.5h-3V151.2z M501.2,151.2h18.6v-7.8h-5v-34.2h5v-7.7h-18.6v7.8h5v34.2h-5V151.2z M541.6,151.2h9.7l14.8-40.4
	c0.4-1.2,1-1.5,2.2-1.5h1.3v-7.8h-5.9c-3.5,0-4.7,0.9-5.8,4.1l-9.5,27.7c-1,2.8-1.9,7.3-1.9,7.3h-0.1c0,0-0.9-4.5-1.9-7.3l-9.5-27.8
	c-1.1-3.2-2.4-4.1-5.9-4.1h-5.8v7.8h1.3c1.2,0,1.7,0.3,2.2,1.5L541.6,151.2z M577.3,146.4c0,3.4,1.4,4.8,4.8,4.8h22.5
	c3.3,0,4.8-1.4,4.8-4.8v-7.6h-8.3v3c0,1-0.6,1.5-1.5,1.5H588c-1,0-1.5-0.6-1.5-1.5V130h16.1v-7.8h-16.1v-13h11.2
	c1,0,1.5,0.6,1.5,1.5v3h8.3v-7.6c0-3.3-1.5-4.8-4.8-4.8h-30v7.8h4.6V146.4z M617.8,151.2h9.2v-18.6h4.6c2.6,0,3.6,0.3,4.7,2.3
	l6.4,12.5c1.6,3.2,3.2,3.7,6.9,3.7h4.8v-7.8h-0.9c-1.5,0-2.7-0.1-3.5-1.6l-4.8-9.6c-0.9-1.8-2.5-2.5-2.5-2.5v-0.1
	c2.1-0.4,8.3-4.1,8.3-13.1c0-9.4-6.4-15-15.5-15h-22.3v7.8h4.6V151.2z M627,124.8v-15.5h7.4c4.5,0,7.2,2.8,7.2,7.7
	c0,5-2.7,7.8-7.4,7.8H627z M657.3,144.3c0,0,6.1,7.7,17.1,7.7c10.4,0,16.5-6.7,16.5-14.6c0-16.3-23.4-14.6-23.4-23.1
	c0-3.2,3.1-5.3,7.3-5.3c3.3,0,6.6,1.5,6.6,3.8v2.2h8.3v-4.6c0-7.1-9-9.8-14.8-9.8c-9.6,0-16.6,6-16.6,14c0,15.5,23.4,14.8,23.4,23.2
	c0,3.8-3.4,5.9-7.1,5.9c-6.9,0-12-5.9-12-5.9L657.3,144.3z M696.2,151.2h18.6v-7.8h-5v-34.2h5v-7.7h-18.6v7.8h5v34.2h-5V151.2z
	 M724.4,146.4c0,3.4,1.4,4.8,4.8,4.8h10.9c15.3,0,25.3-9.2,25.3-24.9s-10-24.8-25.3-24.8h-20.2v7.8h4.5V146.4z M733.6,141.9v-32.6h6
	c9.8,0,16.3,6,16.3,17c0,11.2-6.4,17.2-16.3,17.2h-4.5C734.1,143.4,733.6,142.9,733.6,141.9 M767.4,151.2h5.5c3.5,0,4.7-0.9,5.8-4.1
	l3.1-8.7h16.8l3.1,8.7c1.1,3.2,2.4,4.1,5.9,4.1h5.5v-7.8H812c-1.2,0-1.7-0.3-2.2-1.5l-14.7-40.4h-9.6l-14.8,40.4
	c-0.4,1.3-1,1.5-2.2,1.5h-1.1L767.4,151.2L767.4,151.2z M783.9,130.9l4.3-12.5c0.9-2.7,2-7.4,2-7.4h0.1c0,0,1.1,4.7,2,7.4l4.3,12.5
	H783.9z M820.8,146.4c0,3.4,1.4,4.8,4.8,4.8h10.9c15.3,0,25.3-9.2,25.3-24.9s-10-24.8-25.3-24.8h-20.2v7.8h4.6v37.1L820.8,146.4
	L820.8,146.4z M829.9,141.9v-32.6h6c9.8,0,16.3,6,16.3,17c0,11.2-6.4,17.2-16.3,17.2h-4.5C830.5,143.4,829.9,142.9,829.9,141.9
	 M889.4,146.4c0,3.4,1.4,4.8,4.8,4.8h10.9c15.3,0,25.3-9.2,25.3-24.9s-10-24.8-25.3-24.8h-20.2v7.8h4.6v37.1L889.4,146.4
	L889.4,146.4z M898.5,141.9v-32.6h6c9.8,0,16.3,6,16.3,17c0,11.2-6.4,17.2-16.3,17.2H900C899.1,143.4,898.5,142.9,898.5,141.9
	 M939.4,146.4c0,3.4,1.4,4.8,4.8,4.8h22.5c3.3,0,4.8-1.4,4.8-4.8v-7.6h-8.3v3c0,1-0.6,1.5-1.5,1.5h-11.5c-1,0-1.5-0.6-1.5-1.5V130
	h16.1v-7.8h-16.1v-13h11.2c1,0,1.5,0.6,1.5,1.5v3h8.3v-7.6c0-3.3-1.5-4.8-4.8-4.8h-30v7.8h4.5V146.4z M998.5,146.4
	c0,3.4,1.4,4.8,4.8,4.8h21.9c3.4,0,4.8-1.4,4.8-4.8v-7.6h-8.3v3c0,1-0.6,1.5-1.5,1.5h-10.8c-1,0-1.5-0.6-1.5-1.5v-35.6
	c0-3.3-1.4-4.8-4.8-4.8h-9v7.8h3c1,0,1.5,0.6,1.5,1.5L998.5,146.4L998.5,146.4z M1032.1,151.2h5.5c3.5,0,4.7-0.9,5.8-4.1l3.1-8.7
	h16.8l3.1,8.7c1.1,3.2,2.4,4.1,5.9,4.1h5.5v-7.8h-1.1c-1.2,0-1.7-0.3-2.2-1.5l-14.7-40.4h-9.6l-14.8,40.4c-0.4,1.3-1,1.5-2.2,1.5
	h-1.1L1032.1,151.2L1032.1,151.2z M1048.6,130.9l4.3-12.5c0.9-2.7,2-7.4,2-7.4h0.1c0,0,1.1,4.7,2,7.4l4.3,12.5H1048.6z
	 M1099.3,144.3c0,0,6.1,7.7,17.1,7.7c10.4,0,16.5-6.7,16.5-14.6c0-16.3-23.4-14.6-23.4-23.1c0-3.2,3.1-5.3,7.3-5.3
	c3.3,0,6.6,1.5,6.6,3.8v2.2h8.3v-4.6c0-7.1-9-9.8-14.8-9.8c-9.6,0-16.6,6-16.6,14c0,15.5,23.4,14.8,23.4,23.2c0,3.8-3.4,5.9-7.1,5.9
	c-6.9,0-12-5.9-12-5.9L1099.3,144.3z M1142.4,146.4c0,3.4,1.4,4.8,4.8,4.8h22.5c3.3,0,4.8-1.4,4.8-4.8v-7.6h-8.3v3
	c0,1-0.6,1.5-1.5,1.5h-11.5c-1,0-1.5-0.6-1.5-1.5V130h16.1v-7.8h-16.1v-13h11.2c1,0,1.5,0.6,1.5,1.5v3h8.3v-7.6
	c0-3.3-1.5-4.8-4.8-4.8h-30v7.8h4.6L1142.4,146.4L1142.4,146.4z M1182.9,151.2h9.2v-18.6h4.6c2.6,0,3.6,0.3,4.7,2.3l6.4,12.5
	c1.6,3.2,3.2,3.7,6.9,3.7h4.8v-7.8h-0.9c-1.5,0-2.7-0.1-3.5-1.6l-4.8-9.6c-0.9-1.8-2.4-2.5-2.4-2.5v-0.1c2.1-0.4,8.3-4.1,8.3-13.1
	c0-9.4-6.4-15-15.5-15h-22.3v7.8h4.6L1182.9,151.2L1182.9,151.2z M1192.1,124.8v-15.5h7.4c4.5,0,7.2,2.8,7.2,7.7
	c0,5-2.7,7.8-7.4,7.8H1192.1z M1227.1,146.4c0,3.4,1.4,4.8,4.8,4.8h22.5c3.3,0,4.8-1.4,4.8-4.8v-7.6h-8.3v3c0,1-0.6,1.5-1.5,1.5
	h-11.5c-1,0-1.5-0.6-1.5-1.5V130h16.1v-7.8h-16.1v-13h11.2c1,0,1.5,0.6,1.5,1.5v3h8.3v-7.6c0-3.3-1.5-4.8-4.8-4.8h-30v7.8h4.6
	L1227.1,146.4L1227.1,146.4z M1263.1,151.2h9c3.4,0,4.8-1.4,4.8-4.8v-22.7c0-2.9-0.5-7-0.5-7h0.1c0,0,2.2,4.2,4.1,7l18.9,27.4h8.2
	v-40.4c0-1,0.6-1.5,1.5-1.5h3v-7.7h-9c-3.4,0-4.8,1.5-4.8,4.8v22.8c0,2.9,0.5,7,0.5,7h-0.1c0,0-2.2-4.1-4.1-7l-18.8-27.5h-8.3V142
	c0,1-0.6,1.5-1.5,1.5h-3L1263.1,151.2L1263.1,151.2z M1315.4,151.2h5.5c3.5,0,4.7-0.9,5.8-4.1l3.1-8.7h16.8l3.1,8.7
	c1.1,3.2,2.4,4.1,5.9,4.1h5.5v-7.8h-1.1c-1.2,0-1.8-0.3-2.2-1.5l-14.8-40.4h-9.6l-14.8,40.4c-0.4,1.3-1,1.5-2.2,1.5h-1.1
	L1315.4,151.2L1315.4,151.2z M1331.9,130.9l4.3-12.5c0.9-2.7,2-7.4,2-7.4h0.1c0,0,1.1,4.7,2,7.4l4.3,12.5H1331.9z"/>
<path class="st0" d="M405,202.7h3v-27.6h7.5c0.6,0,0.9,0.3,0.9,0.9v2h2.8v-3.2c0-1.9-0.6-2.5-2.5-2.5h-20.5c-1.9,0-2.5,0.6-2.5,2.5
	v3.2h2.8v-2c0-0.7,0.3-0.9,0.9-0.9h7.5L405,202.7L405,202.7z M421.6,194.8c0,5.6,2.2,8.4,7.3,8.4c4.7,0,7.6-3.4,8.4-5.5h0.1
	c0,0-0.1,0.7-0.1,1.6v1c0,1.6,0.8,2.4,2.6,2.4h3v-2.5h-1.8c-0.6,0-0.9-0.3-0.9-1V181h-2.9v10.4c0,4.7-3.1,9-8,9
	c-4.2,0-4.7-3-4.7-6.4v-10.5c0-1.8-0.8-2.5-2.6-2.5h-3.1v2.5h1.8c0.6,0,0.9,0.3,0.9,0.9V194.8z M459.9,192.3
	c0,6.5,4.5,10.9,11.2,10.9s11.2-4.4,11.2-10.9V176c0-0.6,0.3-0.9,1-0.9h1.9v-2.7H482c-1.9,0-2.6,0.8-2.6,2.6v17.1
	c0,5.1-3.2,8.3-8.2,8.3s-8.1-3.1-8.1-8.2v-17.1c0-1.9-0.8-2.6-2.6-2.6h-3.2v2.7h1.9c0.6,0,0.9,0.3,0.9,0.9v16.2H459.9z M490.3,202.7
	h2.9v-10.4c0-1,0.1-2,0.3-2.9c1-3.6,4.2-6.1,7.9-6.1c4.2,0,4.7,3,4.7,6.4v10.4c0,1.9,0.8,2.6,2.6,2.6h3.1v-2.5H510
	c-0.6,0-0.9-0.3-0.9-1v-10.3c0-5.3-1.9-8.4-7.3-8.4c-5.1,0-7.8,3.5-8.6,5.5h-0.1c0,0,0.1-0.7,0.1-1.6v-1c0-1.6-0.8-2.4-2.6-2.4h-3
	v2.5h1.8c0.6,0,0.9,0.3,0.9,0.9L490.3,202.7L490.3,202.7z M516.6,176.1h2.8v-3.7h-2.8V176.1z M516.7,200.1c0,1.9,0.8,2.6,2.6,2.6
	h3.1v-2.5h-1.8c-0.6,0-0.9-0.3-0.9-1v-15.6c0-1.9-0.8-2.6-2.6-2.6H514v2.5h1.8c0.6,0,0.9,0.3,0.9,0.9V200.1z M533.1,202.7h3.2
	l7.1-18.1c0.3-0.8,0.7-1,1.5-1h0.4v-2.5h-1.1c-2,0-2.7,0.4-3.4,2.4l-5.2,13.5c-0.4,1.1-0.7,2.5-0.7,2.5h-0.1c0,0-0.3-1.5-0.7-2.5
	l-5.2-13.5c-0.7-1.9-1.4-2.4-3.4-2.4h-1.2v2.5h0.4c0.8,0,1.2,0.2,1.5,1L533.1,202.7z M547.2,191.9c0,6.7,4.9,11.3,11.3,11.3
	c4.9,0,8.1-3.1,8.1-3.1l-1.4-2.2c0,0-2.5,2.7-6.5,2.7c-4.5,0-8.3-3.1-8.4-8.6h16.6c0,0,0.1-0.9,0.1-1.5c0-5.4-3.1-10-9.1-10
	C552,180.5,547.2,184.8,547.2,191.9 M550.4,189.6c0.7-4.4,3.9-6.7,7.5-6.7c3.2,0,5.9,2.2,6.1,6.7H550.4z M572.8,202.7h2.9v-9.1
	c0-1.4,0.2-2.8,0.6-4.2c1-3.2,3.2-5.6,6.3-5.6c0.6,0,1.1,0.1,1.1,0.1V181c0,0-0.6-0.1-1.2-0.1c-3.4,0-5.8,2.5-6.9,5.8h-0.1
	c0,0,0.1-0.7,0.1-1.6v-1.6c0-1.7-0.8-2.5-2.6-2.5h-3v2.5h1.8c0.6,0,0.9,0.3,0.9,0.9v18.3H572.8z M585.9,199.4c0,0,2.7,3.8,8.3,3.8
	c4.3,0,7.6-2.5,7.6-6.1c0-7.2-12.2-6.1-12.2-10.9c0-2.1,1.8-3.1,4.8-3.1c1.4,0,3.7,0.6,3.7,2.2v1h2.8v-1.9c0-3.1-4.4-3.9-6.6-3.9
	c-4.4,0-7.7,1.9-7.7,5.9c0,7,12.1,6.1,12.1,10.9c0,2.3-2.2,3.4-4.6,3.4c-4.3,0-6.7-3.3-6.7-3.3L585.9,199.4z M607.5,176.1h2.8v-3.7
	h-2.8V176.1z M607.6,200.1c0,1.9,0.8,2.6,2.6,2.6h3.1v-2.5h-1.8c-0.6,0-0.9-0.3-0.9-1v-15.6c0-1.9-0.8-2.6-2.6-2.6h-3.1v2.5h1.8
	c0.6,0,1,0.3,1,0.9L607.6,200.1L607.6,200.1z M616.3,191.9c0,6.7,3.6,11.4,9.4,11.4c5.7,0,7.5-4.3,7.5-4.3h0.1c0,0-0.1,0.6-0.1,1.4
	c0,1.6,0.8,2.4,2.6,2.4h3v-2.5H637c-0.6,0-0.9-0.3-0.9-1v-24.2c0-1.9-0.8-2.6-2.6-2.6h-3.1v2.5h1.8c0.6,0,0.9,0.3,0.9,0.9v7
	c0,0.9,0.1,1.6,0.1,1.6h-0.1c0,0-1.8-4.1-7.1-4.1C620.3,180.5,616.3,185,616.3,191.9 M626.1,200.6c-4,0-6.9-3.4-6.9-8.7
	c0-5.5,3.1-8.7,7-8.7c4.7,0,6.9,4.3,6.9,8.7C633.1,198,629.7,200.6,626.1,200.6 M641.5,196.8c0,4.3,3.7,6.4,7.4,6.4
	c5.4,0,7.2-4.7,7.2-4.7h0.1c0,0,0,0.6,0,1.6c0,1.8,0.7,2.6,2.6,2.6h3v-2.5H660c-0.6,0-0.9-0.3-0.9-1v-10.4c0-4.7-1.6-8.3-8.5-8.3
	c-1.9,0-7.1,0.6-7.1,3.7v2.1h2.8v-1.4c0-1.6,3.1-1.9,4.2-1.9c4,0,5.6,1.6,5.6,6.1v0.3h-1.2C651,189.4,641.5,189.6,641.5,196.8
	 M644.5,196.6c0-4.9,6.8-5,10.2-5h1.2v1c0,3.7-2.5,8.1-6.6,8.1C646.1,200.7,644.5,198.7,644.5,196.6 M664.4,191.9
	c0,6.7,3.6,11.4,9.4,11.4c5.7,0,7.5-4.3,7.5-4.3h0.1c0,0-0.1,0.6-0.1,1.4c0,1.6,0.8,2.4,2.6,2.4h3v-2.5h-1.8c-0.6,0-0.9-0.3-0.9-1
	v-24.2c0-1.9-0.8-2.6-2.6-2.6h-3.1v2.5h1.8c0.6,0,0.9,0.3,0.9,0.9v7c0,0.9,0.1,1.6,0.1,1.6h-0.1c0,0-1.8-4.1-7.1-4.1
	C668.4,180.5,664.4,185,664.4,191.9 M674.3,200.6c-4,0-6.9-3.4-6.9-8.7c0-5.5,3.1-8.7,7-8.7c4.7,0,6.9,4.3,6.9,8.7
	C681.3,198,677.9,200.6,674.3,200.6 M704.2,200.1c0,1.9,0.8,2.6,2.6,2.6H720c1.9,0,2.6-0.8,2.6-2.6v-3h-2.8v2c0,0.6-0.3,0.9-0.9,0.9
	h-10.6c-0.6,0-1-0.3-1-0.9v-10.3h11.4v-2.7h-11.4v-11h10.3c0.6,0,0.9,0.3,0.9,0.9v2h2.8v-3c0-1.9-0.8-2.6-2.6-2.6h-17.3v2.7h2.8
	V200.1z M724.9,199.4c0,0,2.7,3.8,8.3,3.8c4.3,0,7.6-2.5,7.6-6.1c0-7.2-12.1-6.1-12.1-10.9c0-2.1,1.8-3.1,4.8-3.1
	c1.4,0,3.7,0.6,3.7,2.2v1h2.8v-1.9c0-3.1-4.4-3.9-6.6-3.9c-4.4,0-7.7,1.9-7.7,5.9c0,7,12.2,6.1,12.2,10.9c0,2.3-2.2,3.4-4.6,3.4
	c-4.3,0-6.7-3.3-6.7-3.3L724.9,199.4z M746.6,194.8c0,7.2,5,8.1,7.5,8.1c0.7,0,1.2-0.1,1.2-0.1v-2.6c0,0-0.4,0.1-1,0.1
	c-1.6,0-4.9-0.6-4.9-5.7v-11h5.4v-2.5h-5.4v-6h-2.9v6h-2.9v2.5h2.8v11.2H746.6z M758.5,196.8c0,4.3,3.7,6.4,7.4,6.4
	c5.4,0,7.2-4.7,7.2-4.7h0.1c0,0,0,0.6,0,1.6c0,1.8,0.7,2.6,2.6,2.6h3v-2.5H777c-0.6,0-0.9-0.3-0.9-1v-10.4c0-4.7-1.6-8.3-8.5-8.3
	c-1.9,0-7.1,0.6-7.1,3.7v2.1h2.8v-1.4c0-1.6,3.1-1.9,4.2-1.9c4,0,5.6,1.6,5.6,6.1v0.3h-1.2C768,189.4,758.5,189.6,758.5,196.8
	 M761.5,196.6c0-4.9,6.8-5,10.2-5h1.3v1c0,3.7-2.5,8.1-6.6,8.1C763.1,200.7,761.5,198.7,761.5,196.6 M783.6,194.8
	c0,7.2,5,8.1,7.5,8.1c0.7,0,1.2-0.1,1.2-0.1v-2.6c0,0-0.4,0.1-1,0.1c-1.6,0-4.9-0.6-4.9-5.7v-11h5.4v-2.5h-5.4v-6h-2.9v6h-2.9v2.5
	h2.8v11.2H783.6z M795.7,196.8c0,4.3,3.7,6.4,7.4,6.4c5.4,0,7.2-4.7,7.2-4.7h0.1c0,0,0,0.6,0,1.6c0,1.8,0.7,2.6,2.6,2.6h3v-2.5h-1.8
	c-0.6,0-1-0.3-1-1v-10.4c0-4.7-1.6-8.3-8.5-8.3c-1.9,0-7.1,0.6-7.1,3.7v2.1h2.8v-1.4c0-1.6,3.1-1.9,4.2-1.9c4,0,5.6,1.6,5.6,6.1v0.3
	H809C805.2,189.4,795.7,189.6,795.7,196.8 M798.7,196.6c0-4.9,6.8-5,10.2-5h1.2v1c0,3.7-2.5,8.1-6.6,8.1
	C800.3,200.7,798.7,198.7,798.7,196.6 M820.5,200.1c0,1.9,0.8,2.6,2.6,2.6h3.1v-2.5h-1.8c-0.6,0-0.9-0.3-0.9-1V175
	c0-1.9-0.8-2.6-2.6-2.6h-3.1v2.5h1.8c0.6,0,0.9,0.3,0.9,0.9V200.1z M840.8,191.9c0,6.7,4.9,11.3,11.3,11.3c4.9,0,8.1-3.1,8.1-3.1
	l-1.4-2.2c0,0-2.5,2.7-6.5,2.7c-4.5,0-8.3-3.1-8.4-8.6h16.6c0,0,0.1-0.9,0.1-1.5c0-5.4-3.1-10-9.1-10
	C845.7,180.5,840.8,184.8,840.8,191.9 M844,189.6c0.7-4.4,3.9-6.7,7.5-6.7c3.2,0,5.9,2.2,6.1,6.7H844z M866.4,202.7h2.9v-10.4
	c0-1,0.1-2,0.3-2.9c1-3.6,4.2-6.1,7.9-6.1c4.2,0,4.7,3,4.7,6.4v10.4c0,1.9,0.8,2.6,2.6,2.6h3.1v-2.5h-1.8c-0.6,0-0.9-0.3-0.9-1
	v-10.3c0-5.3-1.9-8.4-7.3-8.4c-5.1,0-7.8,3.5-8.6,5.5h-0.1c0,0,0.1-0.7,0.1-1.6v-1c0-1.6-0.8-2.4-2.6-2.4h-3v2.5h1.8
	c0.6,0,1,0.3,1,0.9L866.4,202.7L866.4,202.7z M904.3,200.1c0,1.9,0.8,2.6,2.6,2.6h3.1v-2.5h-1.8c-0.6,0-0.9-0.3-0.9-1V175
	c0-1.9-0.8-2.6-2.6-2.6h-3.1v2.5h1.8c0.6,0,1,0.3,1,0.9L904.3,200.1L904.3,200.1z M912.9,196.8c0,4.3,3.7,6.4,7.4,6.4
	c5.4,0,7.2-4.7,7.2-4.7h0.1c0,0,0,0.6,0,1.6c0,1.8,0.7,2.6,2.6,2.6h3v-2.5h-1.8c-0.6,0-1-0.3-1-1v-10.4c0-4.7-1.6-8.3-8.5-8.3
	c-1.9,0-7.1,0.6-7.1,3.7v2.1h2.8v-1.4c0-1.6,3.1-1.9,4.2-1.9c4,0,5.6,1.6,5.6,6.1v0.3h-1.2C922.4,189.4,912.9,189.6,912.9,196.8
	 M915.9,196.6c0-4.9,6.8-5,10.2-5h1.2v1c0,3.7-2.5,8.1-6.6,8.1C917.5,200.7,915.9,198.7,915.9,196.6 M950.3,202.7h3v-12.8h5.1
	c1.7,0,2.2,0.2,3.1,1.8l4.4,8.7c1,2,1.7,2.3,4.2,2.3h1.3V200h-0.6c-1.1,0-1.7-0.1-2.2-1l-4.4-8.6c-0.4-0.9-1-1.2-1-1.2v-0.1
	c3-0.6,5.9-3.4,5.9-8.1c0-5.3-3.6-8.6-8.7-8.6h-12.8v2.7h2.8v27.6L950.3,202.7L950.3,202.7z M953.3,187.3v-12.2h6.8
	c3.6,0,5.8,2.3,5.8,6c0,3.8-2.2,6.2-5.9,6.2H953.3z M973.2,191.9c0,6.7,4.9,11.3,11.3,11.3c4.9,0,8.1-3.1,8.1-3.1l-1.4-2.2
	c0,0-2.5,2.7-6.5,2.7c-4.5,0-8.3-3.1-8.4-8.6h16.6c0,0,0.1-0.9,0.1-1.5c0-5.4-3.1-10-9.1-10C978,180.5,973.2,184.8,973.2,191.9
	 M976.4,189.6c0.7-4.4,3.9-6.7,7.5-6.7c3.2,0,6,2.2,6.1,6.7H976.4z M996.9,191.5c0,6.5,3.8,11.1,9.7,11.1c3.4,0,5.5-1.4,6.8-3.7h0.1
	c0,0,0,0.7,0,1.6v1.9c0,4.8-3.4,6.8-7.6,6.8c-3.2,0-5.9-1.5-5.9-1.5l-1.1,2.5c2.1,1.1,4.6,1.7,7.1,1.7c5.3,0,10.4-2.7,10.4-9.6
	v-17.8c0-0.6,0.3-0.9,0.9-0.9h1.8v-2.5h-3c-1.8,0-2.5,0.8-2.5,2.4v0.8h-0.1c0,0-1.4-3.7-7.2-3.7S996.9,185,996.9,191.5 M1007,200
	c-4.3,0-7.1-3.4-7.1-8.5c0-5.2,2.5-8.2,6.7-8.2c3.8,0,6.9,1.9,6.9,8.3C1013.4,197.8,1010.4,200,1007,200 M1023.9,176.1h2.8v-3.7
	h-2.8V176.1z M1024,200.1c0,1.9,0.8,2.6,2.6,2.6h3.1v-2.5h-1.8c-0.6,0-0.9-0.3-0.9-1v-15.6c0-1.9-0.8-2.6-2.6-2.6h-3.1v2.5h1.8
	c0.6,0,0.9,0.3,0.9,0.9V200.1z M1032.5,191.8c0,6.5,5.1,11.5,11.5,11.5c6.3,0,11.4-4.9,11.4-11.5c0-6.4-5.1-11.2-11.5-11.2
	C1037.7,180.5,1032.5,185.3,1032.5,191.8 M1035.6,191.8c0-4.9,3.8-8.6,8.4-8.6s8.4,3.7,8.4,8.6c0,5-3.8,8.8-8.4,8.8
	S1035.6,196.8,1035.6,191.8 M1042.7,177.5h2.5l3.7-5.1h-3.3L1042.7,177.5z M1060.9,202.7h2.9v-10.4c0-1,0.1-2,0.3-2.9
	c1-3.6,4.2-6.1,7.9-6.1c4.2,0,4.7,3,4.7,6.4v10.4c0,1.9,0.8,2.6,2.6,2.6h3.1v-2.5h-1.8c-0.6,0-1-0.3-1-1v-10.3
	c0-5.3-1.9-8.4-7.3-8.4c-5.1,0-7.8,3.5-8.6,5.5h-0.1c0,0,0.1-0.7,0.1-1.6v-1c0-1.6-0.8-2.4-2.6-2.4h-3v2.5h1.8c0.6,0,1,0.3,1,0.9
	V202.7z M1096.9,191.9c0,6.7,3.6,11.4,9.4,11.4c5.7,0,7.5-4.3,7.5-4.3h0.1c0,0-0.1,0.6-0.1,1.4c0,1.6,0.8,2.4,2.6,2.4h3v-2.5h-1.8
	c-0.6,0-0.9-0.3-0.9-1v-24.2c0-1.9-0.8-2.6-2.6-2.6h-3.1v2.5h1.8c0.6,0,0.9,0.3,0.9,0.9v7c0,0.9,0.1,1.6,0.1,1.6h-0.1
	c0,0-1.8-4.1-7.1-4.1C1100.9,180.5,1096.9,185,1096.9,191.9 M1106.8,200.6c-4,0-6.9-3.4-6.9-8.7c0-5.5,3.1-8.7,7-8.7
	c4.7,0,6.9,4.3,6.9,8.7C1113.8,198,1110.4,200.6,1106.8,200.6 M1122.1,191.9c0,6.7,4.9,11.3,11.3,11.3c4.9,0,8.1-3.1,8.1-3.1
	l-1.4-2.2c0,0-2.5,2.7-6.5,2.7c-4.5,0-8.3-3.1-8.4-8.6h16.6c0,0,0.1-0.9,0.1-1.5c0-5.4-3.1-10-9.1-10
	C1127,180.5,1122.1,184.8,1122.1,191.9 M1125.3,189.6c0.7-4.4,3.9-6.7,7.5-6.7c3.2,0,5.9,2.2,6.1,6.7H1125.3z M1157.4,187.3
	c0,8.8,6.2,15.9,15.1,15.9c7.5,0,11.7-4.9,11.7-4.9l-1.7-2.2c0,0-3.7,4.3-9.9,4.3c-6.9,0-12-5.8-12-13.1s5.2-12.6,11.9-12.6
	c3.5,0,8.4,1.6,8.4,4.4v1.7h2.8v-2.5c0-4.6-7-6.4-11.3-6.4C1163.8,171.9,1157.4,178.6,1157.4,187.3 M1187.4,191.8
	c0,6.5,5.1,11.5,11.5,11.5c6.3,0,11.4-4.9,11.4-11.5c0-6.4-5.1-11.2-11.5-11.2C1192.5,180.5,1187.4,185.3,1187.4,191.8
	 M1190.4,191.8c0-4.9,3.8-8.6,8.4-8.6s8.4,3.7,8.4,8.6c0,5-3.8,8.8-8.4,8.8C1194.2,200.6,1190.4,196.8,1190.4,191.8 M1213.8,191.9
	c0,6.7,3.6,11.4,9.4,11.4c5.6,0,7.4-4.2,7.4-4.2h0.1c0,0-0.1,0.8-0.1,1.9v10.4h2.9v-26.9c0-0.6,0.3-0.9,0.9-0.9h1.8v-2.5h-3
	c-1.8,0-2.6,0.7-2.6,2.2c0,0.8,0,1.4,0,1.4h-0.1c0,0-1.9-4.2-7.2-4.2C1217.9,180.5,1213.8,185,1213.8,191.9 M1223.7,200.6
	c-4.1,0-6.9-3.4-6.9-8.7c0-5.5,3.2-8.7,7-8.7c4.6,0,6.9,4.3,6.9,8.7C1230.7,198,1227.3,200.6,1223.7,200.6 M1241,194.8
	c0,5.6,2.2,8.4,7.3,8.4c4.7,0,7.6-3.4,8.4-5.5h0.1c0,0-0.1,0.7-0.1,1.6v1c0,1.6,0.8,2.4,2.6,2.4h3v-2.5h-1.8c-0.6,0-0.9-0.3-0.9-1
	V181h-2.9v10.4c0,4.7-3.1,9-8,9c-4.2,0-4.7-3-4.7-6.4v-10.5c0-1.8-0.8-2.5-2.6-2.5h-3.1v2.5h1.8c0.6,0,1,0.3,1,0.9v10.4L1241,194.8
	L1241,194.8z M1267.2,176.1h2.8v-3.7h-2.8V176.1z M1267.3,200.1c0,1.9,0.8,2.6,2.6,2.6h3.1v-2.5h-1.8c-0.6,0-0.9-0.3-0.9-1v-15.6
	c0-1.9-0.8-2.6-2.6-2.6h-3.1v2.5h1.8c0.6,0,1,0.3,1,0.9L1267.3,200.1L1267.3,200.1z M1277.9,202.7h2.9v-10.2c0-1,0.1-2,0.3-2.9
	c0.9-3.3,3.5-6.4,7.1-6.4c4.1,0,4.6,3.2,4.6,6.5v13.1h2.9v-10.3c0-1.2,0.1-2.2,0.4-3.1c0.9-3.2,3.6-6.1,6.9-6.1c4,0,4.7,2.9,4.7,6.5
	v10.4c0,1.9,0.8,2.6,2.6,2.6h3.1v-2.5h-1.8c-0.6,0-0.9-0.3-0.9-1V189c0-5.3-1.9-8.4-7.2-8.4c-3.7,0-6.8,2.5-8,5.4h-0.1
	c-0.6-3.6-2.7-5.4-6.7-5.4c-3.4,0-6.8,2.5-7.8,5.5h-0.1c0,0,0.1-0.7,0.1-1.6v-1c0-1.6-0.8-2.4-2.6-2.4h-3v2.5h1.8c0.6,0,1,0.3,1,0.9
	v18.2L1277.9,202.7L1277.9,202.7z M1317.9,202.7h2.8v-1.9c0-1-0.1-1.8-0.1-1.8h0.1c0,0,1.9,4.2,7.1,4.2c5.7,0,9.8-4.5,9.8-11.3
	c0-6.7-3.6-11.4-9.4-11.4c-5.6,0-7.4,4.1-7.4,4.1h-0.1c0,0,0.1-0.8,0.1-1.8V175c0-1.9-0.8-2.6-2.6-2.6h-3.1v2.5h1.8
	c0.6,0,1,0.3,1,0.9L1317.9,202.7L1317.9,202.7z M1320.7,191.9c0-6.2,3.4-8.7,7-8.7c4,0,6.9,3.4,6.9,8.7c0,5.5-3.1,8.7-7,8.7
	C1322.9,200.6,1320.7,196.3,1320.7,191.9 M1341.1,191.8c0,6.5,5.1,11.5,11.5,11.5c6.3,0,11.4-4.9,11.4-11.5
	c0-6.4-5.1-11.2-11.5-11.2C1346.2,180.5,1341.1,185.3,1341.1,191.8 M1344.1,191.8c0-4.9,3.8-8.6,8.4-8.6s8.4,3.7,8.4,8.6
	c0,5-3.8,8.8-8.4,8.8S1344.1,196.8,1344.1,191.8"/>
<rect x="361.3" y="48.6" class="st0" width="3.2" height="208.9"/>
</svg>
