<?xml version="1.0" encoding="utf-8"?>
<!-- Generator: Adobe Illustrator 21.1.0, SVG Export Plug-In . SVG Version: 6.00 Build 0)  -->
<svg version="1.1" id="Capa_1" xmlns="http://www.w3.org/2000/svg" xmlns:xlink="http://www.w3.org/1999/xlink" x="0px" y="0px"
	 viewBox="0 0 1370 305" style="enable-background:new 0 0 1370 305;" xml:space="preserve">
<style type="text/css">
	.st0{enable-background:new    ;}
	.st1{fill:#696969;}
</style>
<g class="st0">
	<path class="st1" d="M24.2,273.2c-9-11.7-13.4-28.6-13.4-50.7v-79.3c0-21.8,4.4-38.1,13.4-49.3S47.9,77.1,68,77.1
		c20.4,0,34.9,5.7,43.9,16.9s13.4,27.8,13.4,49.3v79.8c0,21.8-4.4,38.4-13.4,50.1C102.9,285,88.5,291,68,291
		C47.6,290.7,32.9,285,24.2,273.2z M90.1,258c3.8-6.3,5.7-16.1,5.7-28.9v-91.8c0-12.8-1.9-22.3-5.7-28.3c-3.8-6-11.2-9.3-22.1-9.3
		c-11.2,0-18.5,3-22.3,9.3c-3.8,6-5.7,15.5-5.7,28.3v91.8c0,13.1,1.9,22.6,5.7,28.9s11.2,9.5,22.3,9.5
		C78.9,267.8,86.3,264.5,90.1,258z"/>
	<path class="st1" d="M154.1,78.7h45.5c22.6,0,38.7,5.2,48,15.5c9.5,10.4,14.2,26.4,14.2,48.5v77.1c0,23.2-4.6,40.3-13.9,51.8
		c-9.3,11.2-24.5,16.9-46,16.9h-48V78.7C153.8,78.7,154.1,78.7,154.1,78.7z M199.9,267.5c10.1,0,17.4-1.9,22.1-6s7.4-9.3,8.4-16.1
		c1.1-6.8,1.6-17.2,1.6-31.1v-68.1c0-12-0.8-21-2.2-27.2c-1.4-6.3-4.6-10.9-9.3-13.9c-4.6-3-12-4.6-21.8-4.6H183v167H199.9z"/>
	<path class="st1" d="M299.9,273.2c-9-11.7-13.4-28.6-13.4-50.7v-79.3c0-21.8,4.4-38.1,13.4-49.3s23.7-16.9,44.1-16.9
		c20.4,0,34.9,5.7,43.9,16.9s13.4,27.8,13.4,49.3v79.8c0,21.8-4.4,38.4-13.4,50.1c-9,11.7-23.4,17.7-43.9,17.7
		C323.6,290.7,308.9,285,299.9,273.2z M366.1,258c3.8-6.3,5.7-16.1,5.7-28.9v-91.8c0-12.8-1.9-22.3-5.7-28.3
		c-3.8-6-11.2-9.3-22.1-9.3c-11.2,0-18.5,3-22.3,9.3c-3.8,6-5.7,15.5-5.7,28.3v91.8c0,13.1,1.9,22.6,5.7,28.9s11.2,9.5,22.3,9.5
		C354.9,267.8,362.3,264.5,366.1,258z"/>
	<path class="st1" d="M430.1,78.7H450l59.7,139.2V78.7h24.2v209.8h-18.5l-60.2-143v143h-25.1V78.7z"/>
	<path class="st1" d="M589.8,100.5h-35.4V78.7h99.2v21.8h-34.3v188h-29.2L589.8,100.5L589.8,100.5z"/>
	<path class="st1" d="M683,273.2c-9-11.7-13.4-28.6-13.4-50.7v-79.3c0-21.8,4.4-38.1,13.4-49.3s23.7-16.9,44.1-16.9
		c20.4,0,34.9,5.7,43.9,16.9c9,11.2,13.4,27.8,13.4,49.3v79.8c0,21.8-4.4,38.4-13.4,50.1c-9,11.7-23.4,17.7-43.9,17.7
		C706.7,290.7,692,285,683,273.2z M749.2,258c3.8-6.3,5.7-16.1,5.7-28.9v-91.8c0-12.8-1.9-22.3-5.7-28.3c-3.8-6-11.2-9.3-22.1-9.3
		c-11.2,0-18.5,3-22.3,9.3c-3.8,6-5.7,15.5-5.7,28.3v91.8c0,13.1,1.9,22.6,5.7,28.9s11.2,9.5,22.3,9.5
		C738,267.8,745.4,264.5,749.2,258z"/>
	<path class="st1" d="M813.2,78.7h29.2v188.8H896v21h-82.8V78.7z"/>
	<path class="st1" d="M923.8,273.2c-9-11.7-13.4-28.6-13.4-50.7v-79.3c0-21.8,4.4-38.1,13.4-49.3s23.7-16.9,44.1-16.9
		c20.4,0,34.9,5.7,43.9,16.9c9,11.2,13.4,27.8,13.4,49.3v79.8c0,21.8-4.4,38.4-13.4,50.1c-9,11.7-23.4,17.7-43.9,17.7
		C947.3,290.7,932.5,285,923.8,273.2z M989.8,258c3.8-6.3,5.7-16.1,5.7-28.9v-91.8c0-12.8-1.9-22.3-5.7-28.3
		c-3.8-6-11.2-9.3-22.1-9.3c-11.2,0-18.5,3-22.3,9.3c-3.8,6-5.7,15.5-5.7,28.3v91.8c0,13.1,1.9,22.6,5.7,28.9
		c3.8,6.3,11.2,9.5,22.3,9.5C978.9,267.8,986,264.5,989.8,258z"/>
	<path class="st1" d="M1062.5,273c-8.4-12-12.8-29.7-12.8-53.4v-70.3c0-16.3,1.6-29.4,5.2-40.1c3.3-10.4,9.3-18.5,17.4-24
		c8.2-5.7,19.3-8.4,33.8-8.4c19.3,0,33.2,4.9,41.7,14.7c8.4,9.8,12.8,25.3,12.8,46.3v7.9h-27.5v-6.5c0-10.1-0.5-17.7-1.9-23.2
		c-1.1-5.4-3.8-9.5-7.6-12.3c-3.8-2.7-9.5-4.1-17.2-4.1c-8.2,0-14.2,1.9-18.3,5.4c-4.1,3.8-6.5,8.7-7.6,15
		c-1.1,6.3-1.6,14.4-1.6,24.8v77.7c0,16.1,1.9,27.5,5.7,34.6c3.8,7.1,11.4,10.4,22.3,10.4c10.9,0,18.3-3.8,22.3-11.4
		c4.1-7.6,6-19.9,6-36.5v-14.4h-26.7v-20.7h53.1v103.8H1144l-2.7-24c-6.5,17.7-19.1,26.7-37.3,26.7C1084.9,291,1071,285,1062.5,273z
		"/>
	<path class="st1" d="M1193.8,78.7h28.6v209.8h-28.6V78.7z M1216.2,14.9h27.8l-29.2,51.5h-13.9L1216.2,14.9z"/>
	<path class="st1" d="M1289.5,78.7h28.3l44.7,209.8h-27.8l-9.5-52.9h-42.8l-10.1,52.9h-27.5L1289.5,78.7z M1321.4,214.7l-17.7-94.5
		l-17.4,94.5H1321.4z"/>
</g>
</svg>
