<?xml version="1.0" encoding="utf-8"?>
<!-- Generator: Adobe Illustrator 21.1.0, SVG Export Plug-In . SVG Version: 6.00 Build 0)  -->
<svg version="1.1" id="Capa_1" xmlns="http://www.w3.org/2000/svg" xmlns:xlink="http://www.w3.org/1999/xlink" x="0px" y="0px"
	 viewBox="0 0 1724 305" style="enable-background:new 0 0 1724 305;" xml:space="preserve">
<style type="text/css">
	.st0{enable-background:new    ;}
	.st1{fill:#696969;}
	.st2{fill:#FFFFFF;}
	.st3{fill:#323D6B;}
	.st4{fill:#BC2E34;}
</style>
<g class="st0">
	<path class="st1" d="M378.2,273.2c-9-11.7-13.4-28.6-13.4-50.7v-79.3c0-21.8,4.4-38.1,13.4-49.3s23.7-16.8,43.8-16.8
		c20.4,0,34.9,5.7,43.9,16.9s13.4,27.8,13.4,49.3v79.8c0,21.8-4.4,38.4-13.4,50.1c-9,11.8-23.4,17.8-43.9,17.8
		C401.6,290.7,386.9,285,378.2,273.2z M444.1,258c3.8-6.3,5.7-16.1,5.7-28.9v-91.8c0-12.8-1.9-22.3-5.7-28.3
		c-3.8-6-11.2-9.3-22.1-9.3c-11.2,0-18.5,3-22.3,9.3c-3.8,6-5.7,15.5-5.7,28.3v91.8c0,13.1,1.9,22.6,5.7,28.9
		c3.8,6.3,11.2,9.5,22.3,9.5C432.9,267.8,440.3,264.5,444.1,258z"/>
	<path class="st1" d="M508.1,78.7h45.5c22.6,0,38.7,5.2,48,15.5c9.5,10.4,14.2,26.4,14.2,48.5v77.1c0,23.2-4.6,40.3-13.9,51.8
		c-9.3,11.2-24.5,16.9-46,16.9h-48V78.7C507.8,78.7,508.1,78.7,508.1,78.7z M553.9,267.5c10.1,0,17.4-1.9,22.1-6s7.4-9.3,8.4-16.1
		c1.1-6.8,1.6-17.2,1.6-31.1v-68.1c0-12-0.8-21-2.2-27.2c-1.4-6.3-4.6-10.9-9.3-13.9c-4.6-3-12-4.6-21.8-4.6H537v167H553.9z"/>
	<path class="st1" d="M653.9,273.2c-9-11.7-13.4-28.6-13.4-50.7v-79.3c0-21.8,4.4-38.1,13.4-49.3S677.6,77,698,77
		s34.9,5.7,43.9,16.9s13.4,27.8,13.4,49.3V223c0,21.8-4.4,38.4-13.4,50.1c-9,11.7-23.4,17.7-43.9,17.7
		C677.6,290.7,662.9,285,653.9,273.2z M720.1,258c3.8-6.3,5.7-16.1,5.7-28.9v-91.8c0-12.8-1.9-22.3-5.7-28.3
		c-3.8-6-11.2-9.3-22.1-9.3c-11.2,0-18.5,3-22.3,9.3c-3.8,6-5.7,15.5-5.7,28.3v91.8c0,13.1,1.9,22.6,5.7,28.9s11.2,9.5,22.3,9.5
		C708.9,267.8,716.3,264.5,720.1,258z"/>
	<path class="st1" d="M784.1,78.7H804l59.7,139.2V78.7h24.2v209.8h-18.5l-60.2-143v143h-25.1V78.7z"/>
	<path class="st1" d="M943.8,100.5h-35.4V78.7h99.2v21.8h-34.3v188h-29.2L943.8,100.5L943.8,100.5z"/>
	<path class="st1" d="M1037,273.2c-9-11.7-13.4-28.6-13.4-50.7v-79.3c0-21.8,4.4-38.1,13.4-49.3s23.7-16.9,44.1-16.9
		s34.9,5.7,43.9,16.9s13.4,27.8,13.4,49.3V223c0,21.8-4.4,38.4-13.4,50.1c-9,11.7-23.4,17.7-43.9,17.7
		C1060.7,290.7,1046,285,1037,273.2z M1103.2,258c3.8-6.3,5.7-16.1,5.7-28.9v-91.8c0-12.8-1.9-22.3-5.7-28.3
		c-3.8-6-11.2-9.3-22.1-9.3c-11.2,0-18.5,3-22.3,9.3c-3.8,6-5.7,15.5-5.7,28.3v91.8c0,13.1,1.9,22.6,5.7,28.9s11.2,9.5,22.3,9.5
		C1092,267.8,1099.4,264.5,1103.2,258z"/>
	<path class="st1" d="M1167.2,78.7h29.2v188.8h53.6v21h-82.8V78.7z"/>
	<path class="st1" d="M1277.8,273.2c-9-11.7-13.4-28.6-13.4-50.7v-79.3c0-21.8,4.4-38.1,13.4-49.3s23.7-16.9,44.1-16.9
		c20.4,0,34.9,5.7,43.9,16.9s13.4,27.8,13.4,49.3V223c0,21.8-4.4,38.4-13.4,50.1c-9,11.7-23.4,17.7-43.9,17.7
		C1301.3,290.7,1286.5,285,1277.8,273.2z M1343.8,258c3.8-6.3,5.7-16.1,5.7-28.9v-91.8c0-12.8-1.9-22.3-5.7-28.3
		c-3.8-6-11.2-9.3-22.1-9.3c-11.2,0-18.5,3-22.3,9.3c-3.8,6-5.7,15.5-5.7,28.3v91.8c0,13.1,1.9,22.6,5.7,28.9s11.2,9.5,22.3,9.5
		C1332.9,267.8,1340,264.5,1343.8,258z"/>
	<path class="st1" d="M1416.5,273c-8.4-12-12.8-29.7-12.8-53.4v-70.3c0-16.3,1.6-29.4,5.2-40.1c3.3-10.4,9.3-18.5,17.4-24
		c8.2-5.7,19.3-8.4,33.8-8.4c19.3,0,33.2,4.9,41.7,14.7c8.4,9.8,12.8,25.3,12.8,46.3v7.9h-27.5v-6.5c0-10.1-0.5-17.7-1.9-23.2
		c-1.1-5.4-3.8-9.5-7.6-12.3c-3.8-2.7-9.5-4.1-17.2-4.1c-8.2,0-14.2,1.9-18.3,5.4c-4.1,3.8-6.5,8.7-7.6,15s-1.6,14.4-1.6,24.8v77.7
		c0,16.1,1.9,27.5,5.7,34.6c3.8,7.1,11.4,10.4,22.3,10.4s18.3-3.8,22.3-11.4c4.1-7.6,6-19.9,6-36.5v-14.4h-26.7v-20.7h53.1v103.8
		H1498l-2.7-24c-6.5,17.7-19.1,26.7-37.3,26.7C1438.9,291,1425,285,1416.5,273z"/>
	<path class="st1" d="M1547.8,78.7h28.6v209.8h-28.6V78.7z M1570.2,14.9h27.8l-29.2,51.5h-13.9L1570.2,14.9z"/>
	<path class="st1" d="M1643.5,78.7h28.3l44.7,209.8h-27.8l-9.5-52.9h-42.8l-10.1,52.9h-27.5L1643.5,78.7z M1675.4,214.7l-17.7-94.5
		l-17.4,94.5H1675.4z"/>
</g>
<path class="st2" d="M165.6,5.5c81.2,0,147,65.8,147,147s-65.8,147-147,147s-147-65.8-147-147C18.6,71.3,84.4,5.5,165.6,5.5"/>
<path class="st3" d="M165.6,41.8c61.2,0,110.8,49.6,110.8,110.8s-49.6,110.7-110.8,110.7S54.8,213.8,54.8,152.5
	S104.4,41.8,165.6,41.8"/>
<polygon class="st2" points="134.5,71.1 162.5,54.3 162.5,79.8 137.2,94.7 102.8,94.7 102.8,71.4 "/>
<polygon class="st4" points="108.4,76.2 108.4,89.9 135.9,89.9 157.7,77.1 157.7,62.8 135.9,75.8 "/>
<polygon class="st2" points="102.8,103.4 135.9,103.4 162.5,88.4 162.5,83.7 135.9,98.7 102.8,98.7 "/>
<polygon class="st2" points="102.8,113.2 135.9,113.2 162.5,98.3 162.5,93.4 135.9,108.4 102.8,108.4 "/>
<polygon class="st2" points="136.2,151.6 172,171.8 172,193.1 164.9,196.8 157.7,193.1 157.7,179.5 136.2,167.3 136.2,201.8 
	163.3,217 163.2,250.8 103.6,217.3 103.6,149.1 98.1,149.1 98.1,116.7 136.2,116.7 "/>
<polygon class="st4" points="102.9,121.4 108.4,121.4 131.4,121.4 131.4,144.5 131.4,154.5 167.2,174.5 167.2,190.1 164.9,191.5 
	162.5,190.1 162.5,176.6 131.4,159.1 131.4,204.5 158.5,219.8 158.5,242.6 108.4,214.5 108.4,144.5 102.9,144.5 "/>
<polygon class="st2" points="172,135.3 195,148.3 195,116.7 233.1,116.7 233.1,149.1 227.6,149.1 227.6,217.3 168,250.8 167.9,217 
	195,201.8 195,164 157.7,143 157.7,121.7 164.8,117.8 172,121.7 "/>
<polygon class="st4" points="167.2,124.5 167.2,138.1 199.8,156.3 199.8,144.5 199.8,121.4 222.8,121.4 228.3,121.4 228.3,144.5 
	222.8,144.5 222.8,214.5 172.7,242.6 172.7,219.8 199.8,204.5 199.8,161.8 199,160.6 162.5,140.1 162.5,124.5 164.9,123.3 "/>
<polygon class="st2" points="195.2,71.1 167.2,54.3 167.2,79.8 192.5,94.7 226.9,94.7 226.9,71.4 "/>
<polygon class="st4" points="221.3,76.2 221.3,89.9 193.8,89.9 172,77.1 172,62.8 193.8,75.8 "/>
<polygon class="st2" points="226.9,103.4 193.8,103.4 167.2,88.4 167.2,83.7 193.8,98.7 226.9,98.7 "/>
<polygon class="st2" points="226.9,113.2 193.8,113.2 167.2,98.3 167.2,93.4 193.8,108.4 226.9,108.4 "/>
<path class="st3" d="M76.7,215.5l-21.8,21.8c25.5,33.3,65.6,54.7,110.7,54.7s85.2-21.5,110.7-54.7l-21.8-21.8l1.1-1.1l21.6,21.6
	c17.4-23.3,27.7-52.1,27.7-83.4c0-77-62.4-139.3-139.3-139.3S26.3,75.7,26.3,152.5c0,31.3,10.3,60.2,27.7,83.4l21.7-21.6L76.7,215.5
	z M165.6,11.1c78.2,0,141.5,63.4,141.5,141.5s-63.3,141.5-141.5,141.5S24.1,230.6,24.1,152.5S87.4,11.1,165.6,11.1"/>
<path class="st3" d="M34.7,142.3h-0.4l0.3-4.3h0.5l-0.1,1.5l13,1c0.6,0,1.2,0.3,1.6,0.7c0.5,0.4,0.8,1,1,1.6s0.3,1.3,0.3,1.9
	c0,0.6-0.2,1.3-0.4,2.1c-0.3,0.8-0.5,1.4-0.9,1.8c-0.7,0.8-1.6,1.2-2.8,1.1l-11.3-0.9c-0.8-0.1-1.2,0.5-1.3,1.8h-0.5l0.4-5.2h0.5
	l-0.1,1.6l12.6,1c0.9,0.1,1.6-0.2,2.2-0.9c0.6-0.6,0.9-1.5,1-2.5c0.1-0.9-0.2-1.7-0.7-2.3s-1.2-1-2-1l-11.5-1
	c-0.8-0.1-1.2,0.4-1.2,1.4L34.7,142.3z M50.9,135.6l0.3-1.5l-12.8-2.3c-0.7-0.1-1.2-0.1-1.6,0c-0.5,0.2-0.9,0.7-1.1,1.8l-0.4-0.1
	l0.5-2.7l14.5-5v-0.1l-11.1-2c-0.5-0.1-0.9,0-1.3,0.3c-0.4,0.3-0.6,0.7-0.7,1.3l-0.4-0.1l0.7-4.1l0.4,0.1l-0.2,1.4l16.3,2.9
	l-0.1,0.5l-14.6,5.1l0,0l10.1,1.8c0.8,0.1,1.4,0,1.7-0.3c0.2-0.3,0.4-0.8,0.5-1.5l0.4,0.1l-0.8,4.5L50.9,135.6z M53.9,120.4l0.5-1.7
	l-13.6-3.9c-0.4-0.1-0.8,0-1,0.2c-0.2,0.3-0.4,0.7-0.6,1.3l-0.4-0.1l1.4-5l0.4,0.1l-0.5,1.6l13.2,3.8c0.4,0.1,0.7,0.2,0.8,0.2
	c0.3,0,0.5-0.1,0.6-0.2c0.1-0.2,0.3-0.7,0.5-1.4l0.4,0.1l-1.4,5.1L53.9,120.4z M58.5,103.8L49.2,96c-0.4-0.3-0.6-0.4-0.7-0.5
	c-0.4-0.2-0.8-0.2-1.1,0s-0.5,0.6-0.8,1.1l-0.1,0.3l-0.4-0.2l2.1-4.7l0.4,0.2l-0.7,1.5L61,104.9l-0.2,0.6l-14.8-1
	c-0.9,0-1.5-0.1-2,0c-0.4,0.1-0.8,0.2-1,0.4c-0.2,0.2-0.4,0.5-0.6,0.9l-0.2,0.5l-0.4-0.2l2.4-5.3l0.4,0.2l-0.8,1.9L58.5,103.8z
	 M68.9,88.4l-4.5,7.9L64,96.1l0.9-1.5l-12.2-7c-0.4-0.2-0.8-0.3-1.1-0.1c-0.3,0.2-0.6,0.6-0.9,1.1l-0.4-0.2l4.6-8L54,79.9l0.3-0.5
	l4.7,2.7l-0.3,0.5l-0.8-0.4c-1.2-0.7-2.1-0.8-2.8-0.3c-0.7,0.4-1.4,1.4-2.3,3l-0.4,0.7l3.4,2l1.3-2.2L55,84.1l0.2-0.4l5.2,3
	l-0.2,0.4c-0.6-0.4-1.2-0.6-1.7-0.7s-1,0-1.4,0.4c-0.2,0.2-0.5,0.5-0.8,1.1l9.3,5.4c0.6-1.1,1.1-2.1,1.6-3.1c0.2-0.8,0.2-1.5-0.1-2
	s-0.7-1-1.4-1.4l-1.1-0.6l0.3-0.5l5.1,2.9l-0.3,0.5L68.9,88.4z M58.7,74.1l2.3-2.8l1.2,1c0.4-2.2,1.2-3.9,2.4-5.4
	c0.9-1.1,2-1.9,3.4-2.5c1.3-0.6,2.6-0.9,3.9-0.8s2.4,0.5,3.3,1.3c1,0.8,1.6,1.9,1.9,3.2c0.3,1.3,0.2,2.6-0.2,3.9
	c-0.4,1.4-1.1,2.7-2,3.9l0,0c0.4-0.2,1.1-0.6,2.3-1.2c1.2-0.6,2.1-1.1,2.8-1.5c0.7-0.5,1.4-1,1.9-1.6c0.4-0.5,0.6-0.9,0.7-1.2h0.3
	c0,0.7-0.4,1.3-1,2c-0.5,0.6-1,1.1-1.7,1.6c-0.6,0.5-1.2,0.9-1.7,1.2C78,75.5,77.1,76,76,76.7c-2.2,1.2-4.1,2.1-5.7,2.7l1.7,1.5
	c0.3,0.2,0.5,0.4,0.7,0.4c0.2,0,0.4,0,0.6-0.2s0.5-0.5,0.8-0.7c0.1-0.2,0.3-0.4,0.5-0.7l0.3,0.3l-3.8,4.4l-0.3-0.3l1.1-1.2
	l-10.7-9.3c-0.5-0.5-1.2-0.3-1.9,0.5l-0.2,0.2L58.7,74.1z M62.9,73.1l6.7,5.8l-0.1-0.6c2.3-0.7,3.9-1.7,5-2.9
	c0.8-0.9,1.3-1.9,1.6-3.1c0.3-1.1,0.3-2.2,0-3.3c-0.3-1.1-0.8-1.9-1.6-2.6c-0.9-0.7-1.9-1.1-3.1-1.2s-2.4,0.1-3.5,0.5
	c-1.2,0.5-2.2,1.2-3.1,2.2C63.4,69.4,62.8,71.2,62.9,73.1 M82.2,48.3l4.1,4.8l-0.4,0.4l-1-1.1c-0.7-0.8-1.4-1.3-2.1-1.6
	s-1.4-0.1-2.2,0.6c-0.4,0.3-0.6,0.7-0.8,1.1c-0.2,0.4-0.3,0.8-0.2,1.2c0,0.4,0.2,0.8,0.5,1.1c0.4,0.4,0.9,0.7,1.4,0.8
	c0.6,0.1,1.2,0,1.8-0.1c0.6-0.1,1.5-0.4,2.5-0.7c1.1-0.3,2.1-0.6,2.9-0.8s1.6-0.2,2.4,0c0.8,0.1,1.4,0.5,1.9,1.1s0.9,1.3,1,2.1
	s0.1,1.6-0.2,2.5c-0.2,0.9-0.6,1.7-1.2,2.5c-0.5,0.8-1.2,1.6-2,2.2c-1,0.9-2.1,1.5-3.2,1.9s-2.2,0.5-3.2,0.3s-1.9-0.7-2.6-1.5
	c-0.5-0.6-0.9-1.4-1-2.2s0-1.7,0.3-2.6s0.9-1.6,1.6-2.2c0.4-0.4,1-0.7,1.6-0.9s1.2-0.3,1.8-0.3c0.6,0.1,1,0.3,1.4,0.7
	c0.3,0.4,0.5,0.9,0.4,1.4c-0.1,0.6-0.3,1-0.8,1.4c-0.1,0.1-0.3,0.2-0.6,0.4l-0.2-0.5c0.6-0.7,0.6-1.3,0.1-1.9
	c-0.2-0.2-0.5-0.4-0.9-0.5s-0.8-0.1-1.2,0c-0.4,0.1-0.8,0.3-1.2,0.6c-0.5,0.5-0.9,1-1.1,1.7c-0.2,0.6-0.2,1.3-0.1,1.9
	s0.4,1.2,0.8,1.6c0.6,0.7,1.3,1.1,2.2,1.4c0.9,0.3,1.8,0.3,2.9,0c1-0.2,2-0.8,2.9-1.5c0.8-0.7,1.5-1.5,1.9-2.5
	c0.5-0.9,0.7-1.8,0.6-2.7c0-0.9-0.3-1.7-0.9-2.3c-0.5-0.5-1-0.8-1.7-0.9s-1.4-0.1-2.1,0.1c-0.8,0.1-1.7,0.4-2.7,0.7
	s-1.8,0.5-2.5,0.6s-1.4,0.1-2,0s-1.2-0.5-1.6-1c-0.6-0.7-0.8-1.5-0.5-2.6c0.2-1,0.8-1.9,1.6-2.7c0.4-0.3,1-0.7,1.8-1l-0.6-0.7
	L82.2,48.3z M98.5,57.2l1.4-1l-8.2-11.5c-0.3-0.4-0.6-0.5-0.9-0.5c-0.4,0.1-0.8,0.3-1.3,0.7l-0.3-0.4l4.3-3l0.3,0.4l-1.4,1l8,11.2
	c0.2,0.3,0.4,0.6,0.5,0.6c0.2,0.2,0.4,0.2,0.6,0.2c0.2-0.1,0.7-0.3,1.3-0.8l0.3,0.4l-4.3,3L98.5,57.2z M105.5,52.2l1.6-0.8
	l-6.4-12.5c-0.4-0.7-1-0.8-1.9-0.3l-0.3,0.2l-0.2-0.4l7.2-3.7c1.4-0.7,2.7-1.2,3.9-1.4c1.2-0.2,2.3-0.2,3.4,0
	c0.7,0.2,1.4,0.4,2.1,0.7s1.3,0.7,1.8,1.2s1,1.1,1.3,1.7c0.9,1.9,1,3.8,0.3,5.9c-0.3,0.8-0.7,1.6-1.1,2.4c-0.5,0.7-1.2,1.5-2.1,2.3
	s-2.1,1.5-3.5,2.2l-5.7,2.9L105.5,52.2z M116.4,37.7c-0.6-1.1-1.6-2-2.8-2.6c-1.2-0.6-2.6-0.9-4.1-0.9s-2.9,0.4-4.3,1.1
	c-1.6,0.8-2.8,1.6-3.4,2.3l6.4,12.6c1.1-0.2,2.5-0.7,4.2-1.6c1.4-0.7,2.5-1.7,3.4-2.9c0.8-1.2,1.3-2.6,1.4-4
	C117.3,40.2,117.1,38.8,116.4,37.7 M135.2,39.7l-6.4-8.6l-2.3,0.7l-0.1,7.5c0,0.7,0,1.3,0.2,1.8c0.1,0.4,0.3,0.6,0.5,0.7
	s0.6,0.1,1,0c0.3,0,0.7-0.1,1.3-0.3l0.1,0.4l-5,1.4l-0.1-0.4l1.2-0.3V25.4l0.5-0.1l8.5,11.5c0.3,0.4,0.6,0.8,0.9,1.3
	c0.3,0.4,0.7,0.8,1.1,1s0.9,0.3,1.4,0.1l0.1,0.4l-4.6,1.3l-0.1-0.4L135.2,39.7z M128.5,30.4l-1.9-2.7h-0.1V31L128.5,30.4z
	 M140.7,37.8l1.7-0.2l-1.8-14c-0.1-0.8-0.7-1.1-1.7-1h-0.4l-0.1-0.4l8-1c1.6-0.2,2.9-0.2,4.1,0s2.2,0.6,3.2,1.2
	c0.6,0.4,1.2,0.9,1.7,1.4s0.9,1.1,1.3,1.8c0.3,0.6,0.6,1.3,0.6,2c0.2,2.1-0.3,4-1.7,5.7c-0.6,0.7-1.2,1.3-1.9,1.9
	c-0.7,0.5-1.6,1-2.7,1.4s-2.4,0.7-4,0.9l-6.4,0.8L140.7,37.8z M155.9,27.9c-0.2-1.3-0.8-2.4-1.8-3.4s-2.1-1.7-3.6-2.2
	c-1.4-0.5-2.9-0.6-4.4-0.4c-1.8,0.2-3.1,0.6-4,1l1.8,14c1.1,0.2,2.6,0.2,4.5-0.1c1.6-0.2,2.9-0.7,4.1-1.6s2.1-2,2.7-3.3
	C155.9,30.7,156.1,29.3,155.9,27.9 M171,35.4l1.7,0.2l1.8-14c0.1-0.8-0.4-1.2-1.4-1.4h-0.4l0.1-0.4l8,1c1.6,0.2,2.9,0.5,4,1
	s2,1.1,2.8,1.9c0.5,0.5,0.9,1.1,1.3,1.8c0.4,0.7,0.6,1.3,0.8,2s0.2,1.4,0.1,2.1c-0.3,2.1-1.3,3.7-3.1,5.1c-0.7,0.5-1.5,1-2.3,1.3
	s-1.8,0.6-3,0.7s-2.5,0.1-4.1-0.1l-6.4-0.8L171,35.4z M188.2,29.7c0.1-1.3-0.2-2.5-0.9-3.8c-0.7-1.2-1.6-2.2-2.9-3.1
	c-1.3-0.8-2.6-1.3-4.2-1.5c-1.8-0.2-3.2-0.2-4.1,0l-1.8,14c1,0.5,2.5,0.8,4.3,1.1c1.6,0.2,3,0,4.4-0.5c1.4-0.6,2.5-1.4,3.4-2.5
	C187.5,32.3,188,31.1,188.2,29.7 M200.9,41.8l-8.7-2.5l0.1-0.4l1.7,0.5l3.8-13.5c0.1-0.5,0.1-0.8-0.2-1s-0.7-0.4-1.3-0.6l0.1-0.4
	l8.8,2.5l0.3-1l0.5,0.1l-1.5,5.3l-0.5-0.1l0.2-0.8c0.4-1.3,0.2-2.2-0.4-2.8c-0.6-0.5-1.7-1-3.5-1.5l-0.7-0.2l-1.1,3.8l2.4,0.7
	l0.7-2.3l0.4,0.1l-1.6,5.7l-0.4-0.1c0.2-0.7,0.3-1.3,0.3-1.8s-0.2-0.9-0.7-1.2c-0.2-0.2-0.6-0.3-1.2-0.5l-2.9,10.3
	c1.2,0.3,2.3,0.6,3.4,0.8c0.8,0,1.5-0.2,1.9-0.6s0.8-1,1-1.7l0.3-1.2l0.5,0.1l-1.6,5.7l-0.5-0.1L200.9,41.8z M224.9,34.3l-0.2,0.4
	l-1.5-0.8l-7,13.6c0.9,0.4,1.6,0.8,2.3,1s1.4,0.3,2,0.2s1.1-0.4,1.5-1.1l1.8-3.5l0.5,0.2l-3.6,7l-0.5-0.2l0.4-0.9l-7.6-3.9l0.2-0.4
	l1.5,0.8l6.5-12.6c0.2-0.4,0.2-0.7,0-1s-0.6-0.6-1.1-0.8l0.2-0.4L224.9,34.3z M233.9,57.8l2.3-10.5l-2-1.3l-5.7,4.9
	c-0.5,0.4-0.9,0.9-1.2,1.3c-0.2,0.3-0.3,0.6-0.2,0.8s0.3,0.5,0.7,0.8c0.2,0.2,0.6,0.4,1.1,0.7l-0.2,0.4l-4.4-2.8l0.2-0.4l1,0.7
	L238.4,41l0.5,0.3l-3,14c-0.1,0.5-0.2,1-0.3,1.5s-0.1,1,0,1.5s0.4,0.8,0.8,1.1l-0.2,0.4l-4-2.6l0.2-0.4L233.9,57.8z M236.3,46.7
	l0.8-3.3l0,0l-2.5,2.2L236.3,46.7z M264.5,63.2l-4.6,4.3l-0.4-0.4l1.1-1c0.8-0.7,1.3-1.4,1.5-2.1c0.3-0.7,0-1.4-0.7-2.2
	c-0.4-0.3-0.8-0.6-1.2-0.8s-0.8-0.2-1.2-0.2c-0.4,0.1-0.8,0.2-1,0.5c-0.4,0.4-0.7,0.9-0.7,1.5c-0.1,0.6,0,1.2,0.2,1.8
	c0.2,0.6,0.4,1.4,0.8,2.5s0.7,2.1,0.9,2.9s0.2,1.6,0.1,2.4s-0.5,1.4-1,2c-0.6,0.6-1.3,0.9-2,1.1c-0.8,0.2-1.6,0.1-2.5,0
	c-0.9-0.2-1.7-0.5-2.5-1s-1.6-1.1-2.3-1.8c-0.9-1-1.6-2-2-3.1c-0.5-1.1-0.6-2.2-0.5-3.2s0.6-1.9,1.4-2.6c0.6-0.6,1.3-0.9,2.2-1.1
	c0.8-0.2,1.7-0.1,2.6,0.2c0.9,0.3,1.6,0.8,2.3,1.5c0.4,0.4,0.7,0.9,1,1.5c0.3,0.6,0.4,1.2,0.4,1.7c0,0.6-0.2,1-0.6,1.4
	c-0.4,0.4-0.8,0.5-1.4,0.5c-0.6,0-1.1-0.3-1.5-0.7c-0.1-0.1-0.2-0.3-0.4-0.6l0.4-0.3c0.7,0.5,1.3,0.5,1.9,0c0.2-0.2,0.4-0.5,0.5-0.9
	s0-0.8-0.1-1.2c-0.1-0.4-0.4-0.8-0.7-1.2c-0.5-0.5-1.1-0.9-1.7-1c-0.7-0.2-1.3-0.2-1.9,0c-0.6,0.2-1.2,0.5-1.6,0.8
	c-0.6,0.6-1.1,1.4-1.3,2.3s-0.2,1.9,0.1,2.9s0.9,1.9,1.7,2.8c0.7,0.8,1.6,1.4,2.5,1.8c1,0.4,1.9,0.6,2.8,0.5c0.9-0.1,1.6-0.4,2.3-1
	c0.5-0.5,0.7-1.1,0.8-1.8c0.1-0.7,0-1.4-0.2-2.1c-0.2-0.7-0.5-1.6-0.8-2.7c-0.4-1-0.6-1.8-0.8-2.4c-0.2-0.7-0.2-1.3-0.1-2
	c0.1-0.6,0.4-1.2,0.9-1.7c0.7-0.6,1.5-0.8,2.5-0.6s1.9,0.7,2.8,1.5c0.3,0.4,0.7,1,1.1,1.8l0.7-0.7L264.5,63.2z M261.5,87.4l-5.3-7.4
	l0.4-0.3l1,1.4l11.5-8.2c0.4-0.3,0.6-0.6,0.5-0.9s-0.3-0.8-0.6-1.3l0.4-0.3l5.3,7.5l0.8-0.6l0.3,0.4l-4.4,3.2l-0.3-0.4l0.7-0.5
	c1.1-0.8,1.6-1.6,1.4-2.4c-0.1-0.8-0.7-1.9-1.8-3.4l-0.4-0.6l-3.2,2.3l1.5,2.1l2-1.4l0.3,0.4l-4.8,3.4l-0.3-0.4
	c0.6-0.4,1-0.8,1.4-1.2c0.3-0.4,0.4-0.9,0.2-1.4c-0.1-0.3-0.3-0.6-0.6-1.1l-8.8,6.2c0.7,1,1.4,1.9,2.2,2.7c0.7,0.5,1.3,0.8,1.9,0.7
	c0.6,0,1.2-0.3,1.8-0.7l1-0.7l0.3,0.4l-4.8,3.4l-0.3-0.4L261.5,87.4z M278.7,83.4l1.6,3.1l-1.4,0.7c1.8,1.2,3.2,2.6,4.1,4.3
	c0.6,1.3,1,2.6,1.1,4s-0.2,2.7-0.7,3.9c-0.5,1.2-1.3,2-2.4,2.6s-2.4,0.8-3.6,0.6c-1.3-0.2-2.5-0.8-3.6-1.6c-1.1-0.9-2.1-2-2.8-3.3
	l0,0c0.1,0.4,0.1,1.3,0.2,2.5c0.1,1.3,0.2,2.3,0.4,3.2c0.2,0.9,0.4,1.6,0.8,2.4c0.3,0.5,0.6,0.9,0.8,1.1l-0.1,0.3
	c-0.6-0.3-1.1-0.8-1.5-1.7c-0.3-0.7-0.6-1.4-0.8-2.1c-0.2-0.8-0.4-1.4-0.5-2s-0.3-1.6-0.5-2.9c-0.2-2.5-0.4-4.6-0.4-6.3l-2,1
	c-0.3,0.2-0.5,0.3-0.6,0.5s-0.1,0.3-0.1,0.6c0.1,0.3,0.2,0.6,0.4,1c0.1,0.2,0.3,0.4,0.4,0.8l-0.4,0.2l-2.7-5.2l0.4-0.2l0.7,1.5
	l12.6-6.5c0.6-0.3,0.7-1,0.2-1.9l-0.1-0.2L278.7,83.4z M278.1,87.8l-7.9,4l0.5,0.1c-0.2,2.4,0.1,4.3,0.8,5.7
	c0.5,1.1,1.3,1.9,2.2,2.6c1,0.7,2,1.1,3,1.2c1.1,0.1,2.1,0,3-0.5c1-0.5,1.7-1.3,2.3-2.4s0.8-2.2,0.8-3.5s-0.3-2.5-0.9-3.7
	C281.2,89.4,279.8,88.3,278.1,87.8 M276.3,118.9l-2.9-8.6l0.4-0.1l0.6,1.7l13.3-4.5c0.5-0.2,0.7-0.4,0.7-0.8c0-0.3,0-0.8-0.2-1.4
	l0.4-0.1l2.9,8.7l1-0.3l0.2,0.5l-5.2,1.7l-0.2-0.5l0.8-0.3c1.3-0.4,2-1.1,2.1-1.9s-0.1-2-0.7-3.7l-0.2-0.7l-3.8,1.3l0.8,2.4l2.3-0.8
	l0.1,0.4l-5.6,1.9l-0.1-0.4c0.7-0.2,1.2-0.5,1.7-0.8c0.4-0.3,0.6-0.7,0.6-1.3c0-0.3-0.1-0.7-0.3-1.3l-10.2,3.4
	c0.4,1.2,0.8,2.2,1.3,3.2c0.5,0.7,1,1.1,1.6,1.2s1.2,0.1,2-0.2l1.2-0.4l0.2,0.5l-5.6,1.9l-0.2-0.5L276.3,118.9z M278.3,123.3
	l0.3,1.5l12.8-2.3c0.7-0.1,1.2-0.3,1.5-0.5c0.4-0.3,0.6-1,0.4-2l0.4-0.1l0.5,2.7l-11.9,9.7v0.1l11.1-2c0.5-0.1,0.8-0.3,1.1-0.8
	c0.2-0.4,0.3-0.9,0.2-1.5l0.4-0.1l0.7,4.1l-0.4,0.1l-0.2-1.4l-16.3,2.9l-0.1-0.5l12-9.9l0,0l-10.1,1.8c-0.8,0.1-1.3,0.4-1.5,0.9
	c-0.1,0.4-0.1,0.9,0,1.6l-0.4,0.1l-0.8-4.5L278.3,123.3z M281.7,149.3l9.7-4.5l-0.2-2.4l-7.3-1.6c-0.7-0.1-1.3-0.2-1.8-0.2
	c-0.4,0-0.6,0.1-0.8,0.4c-0.1,0.2-0.2,0.6-0.2,1c0,0.3,0,0.7,0,1.3h-0.5l-0.4-5.2h0.5l0.1,1.2l16.9,3.4v0.5l-12.9,6
	c-0.5,0.2-0.9,0.4-1.4,0.6c-0.5,0.2-0.9,0.5-1.2,0.9s-0.4,0.8-0.4,1.3h-0.5l-0.4-4.8h0.4L281.7,149.3z M292,144.5l3.1-1.4V143
	l-3.3-0.6L292,144.5z"/>
<path class="st3" d="M143.4,269.1l0.3-1.4l0.5,0.1l-1.4,6.3l-0.5-0.1c0.3-1.1,0.4-2,0.4-2.6s-0.2-1.2-0.6-1.7s-1-1-1.8-1.4
	s-1.7-0.8-2.6-1c-1.7-0.4-3.4-0.4-4.9,0s-2.8,1.1-3.7,2.1c-1,1-1.6,2.1-1.9,3.4c-0.2,1-0.2,2.1,0,3.2s0.7,2.1,1.3,3.1
	c0.6,1,1.5,1.8,2.5,2.5s2.2,1.2,3.4,1.5c1.3,0.3,2.6,0.4,3.7,0.2c1.2-0.2,2.2-0.5,3.1-1l0.4,0.7c-1.1,0.5-2.4,0.8-3.7,0.9
	c-1.4,0.1-2.7,0-4-0.2c-1.9-0.4-3.5-1.2-4.9-2.3c-1.4-1.1-2.4-2.4-3.1-3.9c-0.6-1.5-0.8-3-0.4-4.5c0.3-1.2,0.8-2.3,1.7-3.2
	c0.8-0.9,1.9-1.7,3.1-2.2s2.5-0.9,4-1c1.4-0.1,2.8,0,4.2,0.3C140.3,267.3,141.9,268,143.4,269.1 M165.8,286.5h1.7l-0.4-14.4
	c0-0.5-0.2-0.8-0.5-0.9s-0.8-0.2-1.5-0.2v-0.5l5.3-0.1v0.5h-1.7l0.4,14c0,0.4,0,0.7,0.1,0.8c0.1,0.3,0.2,0.4,0.4,0.6
	c0.2,0.1,0.7,0.1,1.5,0.1v0.5l-5.3,0.1V286.5z M179.5,269.8l0.1,0.5l-1.7,0.2l2,15.4c1-0.1,1.8-0.3,2.5-0.5s1.3-0.5,1.8-1
	c0.5-0.4,0.7-1,0.6-1.7l-0.5-4l0.5-0.1l1,8l-0.5,0.1l-0.1-1l-8.6,1.1l-0.1-0.5l1.7-0.2l-1.8-14.3c-0.1-0.4-0.3-0.7-0.6-0.8
	c-0.3-0.1-0.8-0.1-1.4,0l-0.1-0.5L179.5,269.8z M200.8,282.5l-9,2.1l-0.1-0.5l1.7-0.4l-3.2-13.9c-0.1-0.5-0.3-0.7-0.7-0.8
	c-0.3-0.1-0.8-0.1-1.4,0.1l-0.1-0.4l9.1-2.1l-0.2-1l0.5-0.1l1.2,5.4l-0.5,0.1l-0.2-0.9c-0.3-1.3-0.9-2.1-1.7-2.3
	c-0.8-0.2-2.1-0.1-3.9,0.3l-0.7,0.2l0.9,3.9l2.5-0.6l-0.6-2.4l0.5-0.1l1.4,5.9l-0.5,0.1c-0.2-0.7-0.4-1.3-0.6-1.8
	c-0.3-0.5-0.7-0.7-1.2-0.7c-0.3,0-0.7,0-1.3,0.1l2.5,10.6c1.2-0.3,2.3-0.6,3.4-1c0.7-0.4,1.2-0.9,1.4-1.5s0.2-1.2,0-2l-0.3-1.2
	l0.5-0.1l1.3,5.8l-0.5,0L200.8,282.5z M159.1,270.6l-1.1,14.2c0,0.5,0,0.8,0.2,1s0.6,0.3,1.2,0.4c0.1,0,0.3,0,0.5,0v0.5l-5.3-0.4
	v-0.5l1.7,0.1l0.8-10.8l-6.3-0.5l-0.7,9.6c0,0.6,0.1,1,0.4,1.2c0.2,0.1,0.7,0.2,1.4,0.2v0.5l-5.3-0.4v-0.5l1.7,0.1l1.1-14.3
	c0.1-0.8-0.5-1.2-1.5-1.3h-0.4v-0.5l5.3,0.4v0.5l-1.7-0.1l-0.3,4.1l6.3,0.5l0.2-2.9c0-0.4-0.1-0.7-0.4-0.9s-0.6-0.3-1.1-0.4h-0.4
	v-0.5l5.3,0.4v0.5L159.1,270.6z"/>
</svg>
