<?xml version="1.0" encoding="utf-8"?>
<!-- Generator: Adobe Illustrator 21.1.0, SVG Export Plug-In . SVG Version: 6.00 Build 0)  -->
<svg version="1.1" id="Capa_1" xmlns="http://www.w3.org/2000/svg" xmlns:xlink="http://www.w3.org/1999/xlink" x="0px" y="0px"
	 viewBox="0 0 1370 305" style="enable-background:new 0 0 1370 305;" xml:space="preserve">
<style type="text/css">
	.st0{enable-background:new    ;}
	.st1{fill:#F1F1F1;}
</style>
<g class="st0">
	<path class="st1" d="M26.1,272.9c-9-11.7-13.3-28.5-13.3-50.5v-79.1c0-21.7,4.3-38,13.3-49.2s23.6-16.8,43.7-16.8
		c20.4,0,34.8,5.7,43.7,16.8s13.3,27.7,13.3,49.2v79.6c0,21.7-4.3,38.3-13.3,50s-23.4,17.7-43.7,17.7
		C49.5,290.3,34.8,284.6,26.1,272.9z M91.9,257.7c3.8-6.2,5.7-16,5.7-28.8v-91.5c0-12.8-1.9-22.3-5.7-28.3c-3.8-6-11.1-9.2-22-9.2
		c-11.1,0-18.5,3-22.3,9.2c-3.8,6-5.7,15.5-5.7,28.3v91.5c0,13,1.9,22.5,5.7,28.8c3.8,6.2,11.1,9.5,22.3,9.5
		C80.7,267.5,88,264.2,91.9,257.7z"/>
	<path class="st1" d="M155.7,78.9h45.4c22.5,0,38.6,5.2,47.8,15.5c9.5,10.3,14.1,26.4,14.1,48.4v76.9c0,23.1-4.6,40.2-13.9,51.6
		c-9.2,11.1-24.4,16.8-45.9,16.8h-47.8V78.9C155.4,78.9,155.7,78.9,155.7,78.9z M201.3,267.2c10.1,0,17.4-1.9,22-6
		c4.6-4.1,7.3-9.2,8.4-16s1.6-17.1,1.6-31v-67.9c0-12-0.8-20.9-2.2-27.2s-4.6-10.9-9.2-13.9c-4.6-3-12-4.6-21.7-4.6h-15.8v166.5
		H201.3z"/>
	<path class="st1" d="M301,272.9c-9-11.7-13.3-28.5-13.3-50.5v-79.1c0-21.7,4.3-38,13.3-49.2s23.6-16.8,44-16.8
		c20.4,0,34.8,5.7,43.7,16.8c9,11.1,13.3,27.7,13.3,49.2v79.6c0,21.7-4.3,38.3-13.3,50s-23.4,17.7-43.7,17.7
		C324.7,290.3,310,284.6,301,272.9z M367,257.7c3.8-6.2,5.7-16,5.7-28.8v-91.5c0-12.8-1.9-22.3-5.7-28.3c-3.8-6-11.1-9.2-22-9.2
		c-11.1,0-18.5,3-22.3,9.2c-3.8,6-5.7,15.5-5.7,28.3v91.5c0,13,1.9,22.5,5.7,28.8c3.8,6.2,11.1,9.5,22.3,9.5
		C355.9,267.5,363.2,264.2,367,257.7z"/>
	<path class="st1" d="M430.9,78.9h19.8l59.5,138.8V78.9h24.2v209.2h-18.5l-60-142.6v142.6h-25V78.9z"/>
	<path class="st1" d="M590.1,100.7h-35.3V78.9h98.9v21.7h-34.2v187.4h-29.1L590.1,100.7L590.1,100.7z"/>
	<path class="st1" d="M683,272.9c-9-11.7-13.3-28.5-13.3-50.5v-79.1c0-21.7,4.3-38,13.3-49.2c9-11.1,23.6-16.8,44-16.8
		c20.4,0,34.8,5.7,43.7,16.8c9,11.1,13.3,27.7,13.3,49.2v79.6c0,21.7-4.3,38.3-13.3,50c-9,11.7-23.4,17.7-43.7,17.7
		C706.6,290.3,691.9,284.6,683,272.9z M749,257.7c3.8-6.2,5.7-16,5.7-28.8v-91.5c0-12.8-1.9-22.3-5.7-28.3c-3.8-6-11.1-9.2-22-9.2
		c-11.1,0-18.5,3-22.3,9.2c-3.8,6-5.7,15.5-5.7,28.3v91.5c0,13,1.9,22.5,5.7,28.8c3.8,6.2,11.1,9.5,22.3,9.5
		C737.9,267.5,745.2,264.2,749,257.7z"/>
	<path class="st1" d="M812.8,78.9h29.1v188.3h53.5v20.9h-82.6V78.9z"/>
	<path class="st1" d="M923.1,272.9c-9-11.7-13.3-28.5-13.3-50.5v-79.1c0-21.7,4.3-38,13.3-49.2s23.6-16.8,44-16.8
		c20.4,0,34.8,5.7,43.7,16.8c9,11.1,13.3,27.7,13.3,49.2v79.6c0,21.7-4.3,38.3-13.3,50s-23.4,17.7-43.7,17.7
		C946.5,290.3,931.8,284.6,923.1,272.9z M988.9,257.7c3.8-6.2,5.7-16,5.7-28.8v-91.5c0-12.8-1.9-22.3-5.7-28.3
		c-3.8-6-11.1-9.2-22-9.2c-11.1,0-18.5,3-22.3,9.2c-3.8,6-5.7,15.5-5.7,28.3v91.5c0,13,1.9,22.5,5.7,28.8c3.8,6.2,11.1,9.5,22.3,9.5
		C978,267.5,985.1,264.2,988.9,257.7z"/>
	<path class="st1" d="M1061.4,272.6c-8.4-12-12.8-29.6-12.8-53.2v-70.1c0-16.3,1.6-29.3,5.2-39.9c3.3-10.3,9.2-18.5,17.4-23.9
		c8.1-5.7,19.3-8.4,33.7-8.4c19.3,0,33.1,4.9,41.6,14.7c8.4,9.8,12.8,25.3,12.8,46.2v7.9h-27.4v-6.5c0-10.1-0.5-17.7-1.9-23.1
		c-1.1-5.4-3.8-9.5-7.6-12.2c-3.8-2.7-9.5-4.1-17.1-4.1c-8.1,0-14.1,1.9-18.2,5.4c-4.1,3.8-6.5,8.7-7.6,14.9
		c-1.1,6.2-1.6,14.4-1.6,24.7v77.4c0,16,1.9,27.4,5.7,34.5c3.8,7.1,11.4,10.3,22.3,10.3c10.9,0,18.2-3.8,22.3-11.4
		c4.1-7.6,6-19.8,6-36.4V205h-26.6v-20.6h53v103.5h-17.7l-2.7-23.9c-6.5,17.7-19,26.6-37.2,26.6
		C1083.7,290.5,1069.8,284.6,1061.4,272.6z"/>
	<path class="st1" d="M1192.3,78.9h28.5v209.2h-28.5V78.9z M1214.6,15.4h27.7l-29.1,51.3h-13.9L1214.6,15.4z"/>
	<path class="st1" d="M1287.7,78.9h28.3l44.6,209.2h-27.7l-9.5-52.7h-42.7l-10.1,52.7h-27.4L1287.7,78.9z M1319.5,214.5l-17.7-94.3
		l-17.4,94.3H1319.5z"/>
</g>
</svg>
