<?xml version="1.0" encoding="utf-8"?>
<!-- Generator: Adobe Illustrator 21.1.0, SVG Export Plug-In . SVG Version: 6.00 Build 0)  -->
<svg version="1.1" xmlns="http://www.w3.org/2000/svg" xmlns:xlink="http://www.w3.org/1999/xlink" x="0px" y="0px"
	 viewBox="0 0 800 800" style="enable-background:new 0 0 800 800;" xml:space="preserve">
<style type="text/css">
	.st0{fill:#FFFFFF;}
	.st1{fill:#E8E8E8;}
</style>
<g id="Background">
</g>
<g id="Objects">
	<g>
		<g>
			<path class="st0" d="M170.4,330.3c-29.5-90.1-74-226.4,24-288.3c33.5-21.1,66.1-31.4,99.5-31.4c36,0,65.5,12.5,87,21.6
				c9.8,4.2,22.1,9.4,27,9.4s17.1-5.2,27-9.4c21.5-9.1,50.9-21.6,86.9-21.6c33.4,0,66,10.3,99.5,31.4c98.1,61.9,53.5,198.1,24,288.3
				c-9.1,27.9-17.7,54.2-19,68.4c-2.3,25,0.3,57.1,2.9,90.9c4.3,53.9,8.7,109.6-4.1,156.5c-21.7,79.5-90.7,137.3-93.7,139.7
				c-6.4,5.3-14.2,8.2-22.2,8.6c-0.7,0-1.4,0.1-2.1,0.1c-20.9,0-37.9-17-37.9-37.9c0-3.4,0.5-6.8,1.3-10
				c3.2-19.1,19.8-126.5-5.1-195.1c-18.6-51.1-45.9-78-57.6-85.1c-11.7,7.1-39,34-57.6,85.1c-27.3,75.1-4.9,196.8-4.6,198
				c3,15.7-4.2,31.5-18,39.6c-6,3.5-12.6,5.3-19.3,5.3c-8.6,0-17.2-2.9-24.1-8.7c-2.9-2.4-72-60.2-93.7-139.7
				c-12.8-47-8.4-102.7-4.1-156.5c2.7-33.9,5.2-65.9,2.9-90.9C188.1,384.5,179.5,358.2,170.4,330.3z"/>
		</g>
		<g>
			<path class="st1" d="M230.8,43.2c-38,102.2,187.4,59,187.4,59S268.8,112.6,230.8,43.2z"/>
		</g>
		<g>
			<path class="st1" d="M467.9,98.2c0,0,47.2,2.6,86.5-45.9c119.2,30.1,47.2,255.5,47.2,255.5s0-93-38-146.7
				C525.6,107.4,467.9,98.2,467.9,98.2z"/>
		</g>
		<g>
			<g>
				<g>
					<path class="st1" d="M342.2,200.8c2.5,0,4.6-1.8,5-4.3c0.1-0.8,3.5-21.3,31.2-21.3c26.9,0,29,18.8,29.2,20.9
						c0.2,2.8,2.6,4.9,5.3,4.7c2.8-0.2,4.9-2.5,4.7-5.3c0-0.3-2.2-30.4-39.2-30.4c-36.6,0-41.1,29.7-41.2,30
						c-0.4,2.7,1.5,5.3,4.3,5.7C341.8,200.8,342,200.8,342.2,200.8z"/>
				</g>
			</g>
			<g>
				<g>
					<path class="st1" d="M220.1,200.8c2.5,0,4.6-1.8,5-4.3c0.1-0.8,3.5-21.3,31.2-21.3c26.9,0,29,18.8,29.2,20.9
						c0.2,2.8,2.6,4.9,5.3,4.7c2.8-0.2,4.8-2.5,4.7-5.3c0-0.3-2.2-30.4-39.2-30.4c-36.6,0-41.1,29.7-41.2,30
						c-0.4,2.7,1.5,5.3,4.3,5.7C219.6,200.8,219.9,200.8,220.1,200.8z"/>
				</g>
			</g>
		</g>
		<g>
			<path class="st1" d="M620.2,333.4c0.9,63.7-1.9,127.5,20.3,188.3c8.1,22.2,21.7,43,37,60.7c15.9,18.4,36.1,34.9,60.6,39.4
				c12.6,2.3,7.2,21.5-5.3,19.2c-50.5-9.4-88.6-60.6-107.8-105c-27.7-63.9-23.8-134.6-24.7-202.6
				C600.2,320.6,620.1,320.6,620.2,333.4L620.2,333.4z"/>
		</g>
		<g>
			<path class="st1" d="M367,292.2c-24.2,8.4-49.3,14.4-75,14.9c-10.1,0.2-21.4-0.3-32.7-2.1c0,14.2-2.9,29-1.4,43.1
				c30.4,11.1,64.2,16.6,95.3,7.5c19-5.6,36.2-16.2,48.8-31.7c14.3-17.5,26.9-40,32.4-62.3C413.5,275.2,390.3,284.1,367,292.2z"/>
			<g>
				<path class="st0" d="M352.5,353.7c-26.6,7.8-58.4,5.4-92.9-7c-0.7-8,0-16.4,0.6-24.5c0.4-4.9,0.8-9.9,0.9-14.9
					c8.5,1.2,17.4,1.8,26.6,1.8c1.4,0,2.8,0,4.2,0c23-0.5,47.7-5.4,75.6-15.1c19.9-6.9,42.6-15.3,63.4-28
					c-5.5,18.9-16.5,39.3-30.7,56.6C388.5,337.3,372,348,352.5,353.7z"/>
				<path class="st1" d="M192.1,263.6c8.5,21.8,29.6,36.4,61.1,42.5c-0.1,5.2-0.5,10.7-0.9,15.9c-0.6,7.1-1.2,14.5-0.9,21.6
					c-4.2-1.7-8.4-3.5-12.5-5.4c-2.4-1.1-5.3,0.5-5.8,2.9c-0.4,1.7,0.4,3.4,2.1,4.1c29.7,13.7,58.1,20.7,84.4,20.7
					c12.1,0,23.9-1.5,35-4.5c18.7-5,35.9-15.8,49.8-31.2c15.9-17.7,29.1-42.1,35-64.7c3,5.1,5.1,10.8,6.6,15.5
					c0.6,1.7,2.1,2.7,3.8,2.7c1.4,0,2.6-0.6,3.4-1.7c0.7-1,0.9-2.2,0.5-3.4c-5.5-16.2-13.7-33.2-33.2-35.9c-2.7-0.4-4.6,1.8-4.8,3.9
					c-0.1,2,1.2,3.6,3.2,3.9c4.9,0.7,9.2,2.5,12.9,5.6c-18,11.8-37.3,19.4-60.4,28.1c-23.1,8.7-44.7,13.9-65.9,16.1
					c-23.8,2.4-44.2,1-61-4.3c-10.7-3.4-36.5-13.5-44.8-34.9c-0.6-1.6-2.1-2.6-3.9-2.6c-1.4,0-2.7,0.7-3.4,1.7
					C191.8,261.1,191.6,262.4,192.1,263.6z M431,266.1c-5.5,18.9-16.5,39.3-30.7,56.6c-11.9,14.6-28.4,25.3-47.8,31
					c-26.6,7.8-58.4,5.4-92.9-7c-0.7-8,0-16.4,0.6-24.5c0.4-4.9,0.8-9.9,0.9-14.9c8.5,1.2,17.4,1.8,26.6,1.8c1.4,0,2.8,0,4.2,0
					c23-0.5,47.7-5.4,75.6-15.1C387.5,287.1,410.3,278.8,431,266.1z"/>
			</g>
		</g>
		<g>
			<path class="st1" d="M203.3,350c-20.5,27.9-37.1,58.6-58.5,85.9c-15.2,19.4-45.7,52.9-73.1,34.8c-26.9-17.8-9.9-57.2,1.1-78.9
				c14.7-29,33.7-55.4,46.1-85.6c4.8-11.7,24-6.6,19.2,5.3c-10.4,25.3-24.9,47.7-37.9,71.6c-5.5,10.2-11.3,20.3-16,30.9
				c-4.4,9.9-9.9,24.5-5.1,35.3c11.3,25.5,51.2-26.6,57.6-35.3c17.6-23.9,31.9-50.1,49.5-74.1C193.6,329.8,210.9,339.7,203.3,350
				L203.3,350z"/>
		</g>
	</g>
</g>
</svg>
