<?xml version="1.0" encoding="utf-8"?>
<!-- Generator: Adobe Illustrator 21.1.0, SVG Export Plug-In . SVG Version: 6.00 Build 0)  -->
<svg version="1.1" xmlns="http://www.w3.org/2000/svg" xmlns:xlink="http://www.w3.org/1999/xlink" x="0px" y="0px"
	 viewBox="0 0 800 800" style="enable-background:new 0 0 800 800;" xml:space="preserve">
<style type="text/css">
	.st0{fill:#FFFFFF;}
	.st1{fill:#FCFCFC;}
</style>
<g id="Background">
</g>
<g id="Objects">
	<g>
		<g>
			<g>
				<path class="st0" d="M191.8,728l97.3,4.7c2.8,0.1,4.9,2.5,4.8,5.3c-0.1,2.8-2.5,4.9-5.3,4.8l-102.1-5L191.8,728z"/>
				<path class="st1" d="M191.8,728l97.3,4.7c2.8,0.1,4.9,2.5,4.8,5.3l-104.7-5.1L191.8,728z"/>
			</g>
			<g>
				<path class="st1" d="M186.5,737.8L114,668.5c-2-1.9-2.1-5.1-0.2-7.1c1.9-2,5.1-2.1,7.1-0.2l70.9,66.9L186.5,737.8z"/>
				<path class="st0" d="M186.5,737.8L114,668.5c-2-1.9-2.1-5.1-0.2-7.1l75.3,71.6L186.5,737.8z"/>
			</g>
			<g>
				
					<ellipse transform="matrix(0.4421 -0.897 0.897 0.4421 -553.4713 471.7364)" class="st0" cx="102.5" cy="680.8" rx="52.6" ry="88.6"/>
				<path class="st1" d="M189.5,707.1c-0.3,5.2-1.5,10.2-3.8,14.7c-6.9,14-22.2,22.6-43.1,24.2c-20.1,1.6-43.3-3.5-65.2-14.3
					c-21.9-10.8-40-26.1-51-43c-11.4-17.6-14-35-7.1-48.9c6.9-14,22.2-22.6,43.1-24.2c20.1-1.6,43.3,3.5,65.2,14.3l0,0
					c21.9,10.8,40,26,51,43C186.3,684.7,190,696.4,189.5,707.1z M23.8,654.9c-0.4,8.9,2.8,19,9.5,29.3
					c10.2,15.7,27.2,29.9,47.7,40.1c20.6,10.1,42.2,14.9,60.9,13.5c17.9-1.4,30.8-8.4,36.3-19.6c5.5-11.2,3.2-25.7-6.6-40.7
					c-10.2-15.7-27.2-29.9-47.7-40.1l0,0c-20.6-10.1-42.2-14.9-60.9-13.5c-17.9,1.4-30.8,8.4-36.3,19.6C25,647,24,650.8,23.8,654.9z
					"/>
			</g>
			<g>
				<path class="st0" d="M102.1,711c-25.8-7.8-45.7-26.4-55.5-51.4c-1.9-5-9.3-1.1-7.4,3.8c10.5,26.9,32.6,47.2,60.3,55.5
					C104.7,720.4,107.3,712.5,102.1,711L102.1,711z"/>
			</g>
			<g>
				<path class="st0" d="M799,742.4l-540-26.3c-9.5-0.5-17.7,8.1-18.2,19.2c-0.5,11.1,6.7,20.5,16.3,20.9l542,26.4V742.4z"/>
				<path class="st1" d="M799,742.4l-540-26.3c-9.5-0.5-17.7,8.1-18.2,19.2L799,762.5V742.4z"/>
			</g>
		</g>
		<g>
			<g>
				<g>
					<path class="st0" d="M242.7,661.6l242.5,2.1c2.1,0,3.9,1.8,3.9,3.9c0,2.1-1.8,3.9-3.9,3.9l-246.2-2.2L242.7,661.6z"/>
					<path class="st1" d="M242.7,661.6l242.5,2.1c2.1,0,3.9,1.8,3.9,3.9l-248.3-2.2L242.7,661.6z"/>
				</g>
				<g>
					<polygon class="st1" points="238.9,669.4 221.1,647.9 242.7,661.6 					"/>
					<polygon class="st0" points="238.9,669.4 221.1,647.9 240.8,665.5 					"/>
				</g>
				<g>
					<path class="st0" d="M799,654.8l-331-2.9c-8.6-0.1-15.6,6.8-15.7,15.4c-0.1,8.6,6.8,15.6,15.4,15.7l331.3,2.9V654.8z"/>
					<path class="st1" d="M799,654.8l-331-2.9c-8.6-0.1-15.6,6.8-15.7,15.4l346.7,3V654.8z"/>
				</g>
			</g>
			<g>
				<g>
					<g>
						<polygon class="st0" points="561.3,593.1 245.2,585 248.1,578.5 560.6,558 560.6,558 560.6,558 697.7,561.6 698.1,584.2 
							561.3,593.1 561.3,593.1 						"/>
						<polygon class="st1" points="246.6,581.8 248.1,578.5 560.6,558 560.6,558 560.6,558 697.7,561.6 697.9,572.9 560.4,575.6 
													"/>
						<g>
							<path class="st1" d="M245.2,585l-49.1-41c-1.4-1.1-1.6-3.1-0.4-4.5c1.1-1.4,3.1-1.6,4.5-0.4l48,39.4L245.2,585z"/>
							<path class="st0" d="M245.2,585l-49.1-41c-1.4-1.1-1.6-3.1-0.4-4.5l51,42.2L245.2,585z"/>
						</g>
					</g>
					<g>
						<path class="st1" d="M239.8,601.5l-50.6-39.1c-1.4-1.1-1.7-3.1-0.6-4.5c1.1-1.4,3.1-1.7,4.5-0.6l49.4,37.6L239.8,601.5z"/>
						<path class="st0" d="M239.8,601.5l-50.6-39.1c-1.4-1.1-1.7-3.1-0.6-4.5l52.6,40.3L239.8,601.5z"/>
					</g>
					<g>
						<polygon class="st0" points="799,542.7 796,541.9 642.8,560.2 554.1,562.7 242.5,595 239.8,601.5 556.1,597.7 644.4,588.7 
							799,587.9 						"/>
						<polygon class="st1" points="799,566.2 799,542.7 796,541.9 642.8,560.2 554.1,562.7 242.5,595 241.2,598.3 554.5,580.2 
							643.7,575.1 643.7,575.1 						"/>
					</g>
				</g>
			</g>
		</g>
	</g>
</g>
</svg>
