<?xml version="1.0" encoding="utf-8"?>
<!-- Generator: Adobe Illustrator 21.1.0, SVG Export Plug-In . SVG Version: 6.00 Build 0)  -->
<svg version="1.1" id="Capa_1" xmlns="http://www.w3.org/2000/svg" xmlns:xlink="http://www.w3.org/1999/xlink" x="0px" y="0px"
	 viewBox="0 0 635 115" style="enable-background:new 0 0 635 115;" xml:space="preserve">
<defs>
  	<style type="text/css">
    	@import url('https://fonts.googleapis.com/css?family=Oswald');
 	</style>
</defs>
<style type="text/css">
	.st0{fill:#F1F1F1;}
	.st1{font-family:'Oswald';}
	.st2{font-size:95px;}
	.st3{fill:#FFFFFF;stroke:#003671;stroke-miterlimit:22.93;}
	.st4{fill:#003671;}
	.st5{fill:#FFFFFF;}
	.st6{fill:#DB2F34;}
	.st7{fill:none;stroke:#003671;stroke-miterlimit:22.93;}
</style>
<text transform="matrix(1 0 0 1 132.5 107.6627)" class="st0 st1 st2">ODONTOLOGÍA</text>
<path class="st3" d="M52.6,107.2c26.8,0,48.6-21.8,48.6-48.6S79.4,10,52.6,10S4,31.9,4,58.6S25.9,107.2,52.6,107.2z"/>
<path class="st4" d="M52.9,97.4c21.5,0,39-17.6,39-39.2S74.3,19,52.9,19s-39,17.6-39,39.2S31.4,97.4,52.9,97.4z"/>
<polygon class="st5" points="74.5,28.7 63.4,28.7 53.5,23 53.5,31 63.4,36.7 74.5,36.7 "/>
<polygon class="st5" points="30.9,28.7 42.4,28.7 51.9,23 51.9,31 42.4,36.7 30.9,36.7 "/>
<polygon class="st5" points="76,44.8 63.4,44.8 63.4,55.9 55.4,51.3 55.4,46.7 52.7,45.1 50.4,46.7 50.4,53.6 63.4,60.8 63.4,74.6 
	53.5,80.3 53.5,91.4 74.5,79.2 74.5,56.2 76,56.2 "/>
<polygon class="st5" points="29.4,44.8 42.4,44.8 42.4,57 55.4,64.3 55.4,71.2 52.7,72.7 50.4,71.2 50.4,66.2 42.4,61.6 42.4,74.6 
	51.9,80 51.9,91.4 30.9,79.2 30.9,56.2 29.4,56.2 "/>
<polygon class="st5" points="30.9,41.7 42.4,41.7 51.9,36 51.9,37.5 42.4,43.2 30.9,43.2 "/>
<polygon class="st5" points="74.5,41.7 63.4,41.7 53.5,36 53.5,37.5 63.4,43.2 74.5,43.2 "/>
<polygon class="st5" points="74.5,38.3 63.4,38.3 53.5,32.9 53.5,34.4 63,39.8 74.5,39.8 "/>
<polygon class="st5" points="30.9,38.3 42.4,38.3 51.9,32.9 51.9,34.4 42.4,39.8 30.9,39.8 "/>
<polygon class="st6" points="32.8,30.2 42.4,30.2 50.4,25.6 50.4,30.6 42.4,35.2 32.8,35.2 "/>
<polygon class="st6" points="73,30.2 63.4,30.2 55.4,25.6 55.4,30.6 63.4,35.2 73,35.2 "/>
<polygon class="st6" points="74.5,46.3 65,46.3 65,58.5 53.5,52 53.5,47.4 52.7,46.7 51.9,47.4 51.9,52.8 65,60.1 65,75.4 
	55.4,80.7 55.4,88.8 73,78.8 73,54.3 74.5,54.3 "/>
<polygon class="st6" points="30.9,46.3 40.9,46.3 40.9,57.4 53.5,65 53.5,70.4 52.7,70.8 51.9,70.4 51.9,65.8 40.9,59.3 40.9,75.4 
	50.4,80.7 50.4,88.8 32.8,78.8 32.8,54.3 30.9,54.3 "/>
<path class="st4" d="M7,62.1H6.8L6.7,61h0.1l0,0.4l4.1-0.3c0.2,0,0.4,0,0.5,0.1c0.2,0.1,0.3,0.2,0.4,0.4c0.1,0.1,0.1,0.3,0.2,0.5
	c0,0.2,0,0.4-0.1,0.6c0,0.2-0.1,0.3-0.2,0.5c-0.2,0.2-0.5,0.4-0.8,0.4l-3.6,0.2c-0.2,0-0.3,0.2-0.3,0.5H7l-0.1-1.3H7l0,0.4l4-0.3
	c0.3,0,0.5-0.1,0.7-0.3c0.2-0.2,0.2-0.4,0.2-0.7c0-0.2-0.1-0.4-0.3-0.6c-0.2-0.1-0.4-0.2-0.7-0.2l-3.6,0.3c-0.2,0-0.3,0.1-0.3,0.3
	c0,0,0,0.1,0,0.1L7,62.1z"/>
<path class="st4" d="M11.6,57.7l0-0.4l-4.1-0.1c-0.2,0-0.3,0-0.5,0c-0.2,0.1-0.2,0.2-0.2,0.5H6.7l0-0.7l4.3-1.8v0l-3.5-0.1
	c-0.1,0-0.3,0-0.4,0.1c-0.1,0.1-0.2,0.2-0.2,0.4H6.7l0-1.1h0.1l0,0.4l5.2,0.2v0.1L7.8,57l0,0l3.2,0.1c0.2,0,0.4,0,0.5-0.1
	c0.1-0.1,0.1-0.3,0.1-0.4h0.1l-0.1,1.2L11.6,57.7z"/>
<path class="st4" d="M12.1,51.7l0.1-0.4l-4.4-0.8c-0.1,0-0.2,0-0.3,0.1c-0.1,0.1-0.1,0.2-0.1,0.4l-0.1,0l0.3-1.3l0.1,0l-0.1,0.4
	l4.2,0.8c0.1,0,0.2,0,0.3,0c0.1,0,0.1,0,0.2-0.1c0.1-0.1,0.1-0.2,0.1-0.4l0.1,0l-0.3,1.3L12.1,51.7z"/>
<path class="st4" d="M13.1,45.3l-3.2-2c-0.1,0-0.2-0.1-0.2-0.1c-0.1-0.1-0.2,0-0.3,0c-0.1,0.1-0.1,0.2-0.2,0.3l0,0.1l-0.1,0l0.4-1.3
	l0.1,0l-0.1,0.4l4.5,2.9l-0.1,0.1l-4.6-0.1c-0.2,0-0.4,0-0.6,0c-0.1,0-0.2,0-0.3,0.1c-0.1,0.1-0.1,0.1-0.1,0.2l0,0.1l-0.1,0l0.5-1.4
	l0.1,0l-0.2,0.5L13.1,45.3z"/>
<path class="st4" d="M16.4,39.3l-1.1,2.1l-0.1-0.1l0.2-0.4l-3.9-2c-0.1-0.1-0.2-0.1-0.3,0c-0.1,0.1-0.2,0.2-0.2,0.3l-0.1-0.1
	l1.1-2.1l-0.3-0.1l0.1-0.1l1.5,0.8l-0.1,0.1l-0.2-0.1c-0.4-0.2-0.7-0.2-0.9-0.1c-0.3,0.2-0.5,0.5-0.6,0.8l-0.1,0.2l1.1,0.6l0.3-0.6
	L12,38l0.1-0.1l1.7,0.8l-0.1,0.1c-0.2-0.1-0.4-0.2-0.5-0.2c-0.1,0-0.3,0-0.4,0.1c-0.1,0.1-0.2,0.2-0.2,0.3l3,1.5
	c0.1-0.3,0.3-0.5,0.4-0.8c0-0.2,0-0.4-0.1-0.6c-0.1-0.2-0.3-0.3-0.5-0.4L15,38.6l0.1-0.1l1.6,0.8l-0.1,0.1L16.4,39.3z"/>
<path class="st4" d="M16.7,30.7c0.1,0,0.2,0,0.3,0c0.4,0,0.7,0.1,1,0.4c0.3,0.2,0.6,0.5,0.7,0.9c0.1,0.3,0.2,0.7,0.1,1.1
	c0,0.4-0.2,0.8-0.4,1.1h0c0.1-0.1,0.3-0.2,0.6-0.3c0.3-0.1,0.5-0.3,0.7-0.4c0.2-0.1,0.3-0.3,0.5-0.5c0.1-0.1,0.1-0.2,0.1-0.3h0.1
	c0,0.2-0.1,0.4-0.2,0.6c-0.1,0.2-0.2,0.3-0.4,0.5c-0.1,0.1-0.3,0.2-0.4,0.3c-0.1,0.1-0.4,0.2-0.7,0.4c-0.5,0.3-1,0.5-1.5,0.7
	l0.6,0.4c0.1,0.1,0.1,0.1,0.2,0.1c0.1,0,0.1,0,0.2,0c0.1-0.1,0.1-0.1,0.2-0.2c0-0.1,0.1-0.1,0.1-0.2l0.1,0.1l-0.9,1.2l-0.1-0.1
	l0.3-0.3l-1.2-0.9v-0.5l0.4,0.3L17,34.8c0.6-0.2,1.1-0.5,1.3-0.8c0.2-0.2,0.3-0.5,0.3-0.9c0-0.6-0.2-1.3-0.8-1.6
	c-0.3-0.2-0.6-0.3-1-0.3c-0.1,0-0.1,0-0.2,0L16.7,30.7L16.7,30.7z M13.6,33.6l0.5-0.7l0.4,0.3c0-0.5,0.1-1.1,0.4-1.5
	c0.2-0.3,0.5-0.5,0.9-0.7c0.3-0.1,0.6-0.2,0.8-0.2v0.4c-0.3,0-0.5,0.1-0.8,0.2c-0.3,0.1-0.6,0.3-0.8,0.6c-0.3,0.4-0.4,0.9-0.3,1.4
	l1.9,1.4v0.5l-2.4-1.7c-0.2-0.1-0.4-0.1-0.5,0.1l0,0.1L13.6,33.6z"/>
<path class="st4" d="M20.5,24.8l1.4,1.4l-0.1,0.1l-0.3-0.3c-0.2-0.2-0.4-0.4-0.7-0.5c-0.2-0.1-0.5,0-0.6,0.2
	c-0.1,0.1-0.1,0.2-0.2,0.3c0,0.1,0,0.2,0,0.4c0,0.1,0.1,0.2,0.2,0.3c0.1,0.1,0.3,0.2,0.5,0.2c0.2,0,0.3,0,0.5,0
	c0.2,0,0.4-0.1,0.7-0.2c0.3-0.1,0.5-0.2,0.8-0.2c0.2,0,0.5,0,0.7,0c0.2,0,0.4,0.2,0.6,0.3c0.2,0.2,0.3,0.4,0.4,0.6
	c0.1,0.2,0.1,0.5,0.1,0.7c0,0.2-0.1,0.5-0.2,0.7c-0.1,0.2-0.3,0.5-0.4,0.6c-0.2,0.2-0.5,0.4-0.8,0.5C22.7,30,22.4,30,22.1,30
	c-0.3-0.1-0.6-0.2-0.8-0.4c-0.2-0.2-0.3-0.4-0.4-0.6c-0.1-0.2-0.1-0.5,0-0.7c0.1-0.2,0.2-0.5,0.3-0.6c0.1-0.1,0.3-0.2,0.4-0.3
	c0.2-0.1,0.3-0.1,0.5-0.1c0.2,0,0.3,0.1,0.4,0.2c0.1,0.1,0.2,0.2,0.2,0.4c0,0.2,0,0.3-0.2,0.4c0,0-0.1,0.1-0.1,0.1l-0.1-0.1
	c0.1-0.2,0.1-0.4-0.1-0.5c-0.1-0.1-0.2-0.1-0.3-0.1c-0.1,0-0.2,0-0.4,0c-0.1,0-0.2,0.1-0.3,0.2c-0.1,0.1-0.2,0.3-0.2,0.5
	c0,0.2,0,0.4,0.1,0.6c0.1,0.2,0.2,0.3,0.3,0.5c0.2,0.2,0.4,0.3,0.7,0.4c0.3,0.1,0.5,0.1,0.8,0c0.3-0.1,0.5-0.2,0.7-0.4
	c0.2-0.2,0.3-0.4,0.4-0.7c0.1-0.3,0.1-0.5,0-0.8c-0.1-0.3-0.2-0.5-0.4-0.7c-0.1-0.1-0.3-0.2-0.5-0.3c-0.2,0-0.4,0-0.6,0
	c-0.2,0-0.5,0.1-0.7,0.2c-0.2,0.1-0.4,0.1-0.7,0.2c-0.2,0-0.4,0-0.6,0c-0.2,0-0.4-0.1-0.5-0.3c-0.2-0.2-0.3-0.5-0.3-0.7
	c0-0.3,0.1-0.5,0.3-0.8c0.1-0.1,0.3-0.2,0.5-0.3l-0.2-0.2L20.5,24.8z"/>
<path class="st4" d="M27.1,25.9l0.4-0.3l-2.7-3.5C24.7,22,24.6,22,24.5,22c-0.1,0-0.2,0.1-0.3,0.2L24,22.1l1.1-0.8l0.1,0.1l-0.3,0.3
	l2.7,3.4c0.1,0.1,0.1,0.1,0.2,0.2c0.1,0,0.1,0.1,0.2,0.1c0.1-0.1,0.2-0.1,0.3-0.2l0.1,0.1L27.2,26L27.1,25.9z"/>
<path class="st4" d="M31.1,17.7c0.2,0,0.4,0,0.6,0.1c0.2,0.1,0.4,0.1,0.6,0.2c0.2,0.1,0.4,0.2,0.5,0.4c0.2,0.2,0.3,0.3,0.4,0.5
	c0.3,0.5,0.4,1.2,0.3,1.8c0,0.2-0.1,0.5-0.2,0.7c-0.1,0.2-0.3,0.5-0.5,0.7c-0.3,0.3-0.5,0.5-0.9,0.6l-0.9,0.5v-0.4l0,0.1
	c0.4-0.1,0.7-0.2,1.1-0.4c0.3-0.2,0.6-0.5,0.8-0.9c0.2-0.4,0.3-0.8,0.2-1.2c0-0.4-0.1-0.8-0.3-1.2c-0.2-0.3-0.5-0.6-0.9-0.8
	c-0.3-0.2-0.6-0.3-1-0.3L31.1,17.7L31.1,17.7z M30.4,23.5l0.4-0.2l-2.2-3.8c-0.1-0.2-0.3-0.3-0.5-0.2c0,0-0.1,0-0.1,0.1l-0.1,0
	l-0.1-0.1l1.8-1c0.3-0.2,0.6-0.3,1-0.4c0.1,0,0.2,0,0.3,0v0.3c-0.1,0-0.1,0-0.2,0c-0.4,0-0.8,0.1-1.1,0.3c-0.3,0.2-0.6,0.4-0.8,0.7
	l2.2,3.7v0.5l-0.6,0.3L30.4,23.5z"/>
<path class="st4" d="M39.9,19l-2-2.7l-0.4,0.1v-0.2l0.3-0.1l-0.3-0.4v-0.6l2.1,2.9c0.1,0.1,0.2,0.3,0.3,0.4c0.1,0.1,0.2,0.2,0.3,0.3
	c0.1,0.1,0.3,0.1,0.4,0l0,0.1l-1.2,0.4l0-0.1L39.9,19L39.9,19L39.9,19z M37.6,18.6l0,0.2c0,0.2,0,0.4,0.1,0.5c0,0.1,0.1,0.2,0.2,0.2
	c0.1,0,0.2,0,0.3,0c0.1,0,0.2-0.1,0.3-0.1l0,0.1l-0.9,0.3L37.6,18.6L37.6,18.6z M37.6,16.5l-0.2,0.1l0.2,2.1V20l-0.4,0.1l0-0.1
	l0.3-0.1l-0.5-5.3l0.1,0l0.5,0.7v0.6l-0.3-0.4h0l0.1,1l0.2-0.1L37.6,16.5L37.6,16.5z"/>
<path class="st4" d="M45.2,12.7c0.1,0,0.2,0,0.3,0c0.3,0.1,0.6,0.2,0.9,0.3c0.4,0.3,0.6,0.6,0.9,1c0.1,0.2,0.2,0.4,0.2,0.6
	c0.1,0.6,0,1.2-0.3,1.8c-0.1,0.2-0.3,0.4-0.4,0.6c-0.2,0.2-0.4,0.4-0.7,0.5c-0.2,0.1-0.5,0.2-0.8,0.3v-0.2h0.1
	c0.4-0.1,0.8-0.3,1.1-0.5c0.3-0.3,0.5-0.6,0.6-1c0.1-0.4,0.2-0.8,0.1-1.2c-0.1-0.4-0.3-0.8-0.5-1.1c-0.3-0.3-0.6-0.5-1-0.7
	c-0.1,0-0.2-0.1-0.3-0.1V12.7L45.2,12.7z M43.2,18l0.5-0.1l-0.8-4.3c0-0.2-0.2-0.3-0.4-0.3c0,0-0.1,0-0.1,0l-0.1,0l0-0.1l2.1-0.4
	c0.3,0,0.5-0.1,0.8-0.1V13c-0.3-0.1-0.6-0.1-0.9,0c-0.4,0-0.7,0.2-1,0.3l0.8,4.3c0.4,0.1,0.7,0,1.1,0v0.2l-0.3,0.1l-1.7,0.3L43.2,18
	z"/>
<path class="st4" d="M57.8,12.3c0.3,0,0.7,0.1,1,0.3c0.3,0.1,0.5,0.3,0.7,0.6c0.1,0.2,0.2,0.4,0.3,0.5c0.1,0.2,0.2,0.4,0.2,0.6
	c0,0.2,0,0.4,0,0.7c-0.1,0.6-0.4,1.2-0.8,1.6c-0.2,0.2-0.4,0.3-0.6,0.4c-0.2,0.1-0.5,0.2-0.8,0.2h0v-0.2c0.2,0,0.3-0.1,0.5-0.2
	c0.4-0.2,0.7-0.5,0.9-0.8c0.2-0.3,0.4-0.7,0.4-1.2c0-0.4,0-0.8-0.2-1.2c-0.2-0.4-0.4-0.7-0.7-0.9c-0.3-0.2-0.6-0.3-0.9-0.4
	L57.8,12.3L57.8,12.3z M55.1,16.9l0.5,0.1l0.5-4.4c0-0.2-0.1-0.4-0.3-0.4c0,0-0.1,0-0.1,0l-0.1,0l0-0.1l2.1,0.3h0.1v0.2
	c-0.1,0-0.1,0-0.2,0c-0.4-0.1-0.7-0.1-1.1,0L56,16.8c0.4,0.2,0.7,0.3,1.1,0.3c0.2,0,0.5,0,0.7,0v0.2c-0.4,0-0.7,0-1.1,0L55.1,17
	L55.1,16.9z"/>
<path class="st4" d="M64.9,18.8l-2.3-0.6l0-0.1l0.4,0.1l1.1-4.3c0-0.1,0-0.2,0-0.3c-0.1-0.1-0.2-0.1-0.3-0.2l0-0.1l2.3,0.6l0.1-0.3
	l0.1,0L66,15.3l-0.1,0L66,15c0.1-0.4,0.1-0.7-0.1-0.9c-0.3-0.2-0.6-0.4-0.9-0.4l-0.2-0.1l-0.3,1.2l0.6,0.2l0.2-0.7l0.1,0l-0.5,1.8
	l-0.1,0c0.1-0.2,0.1-0.4,0.1-0.6c0-0.1-0.1-0.3-0.2-0.4c-0.1-0.1-0.2-0.1-0.3-0.1l-0.9,3.2c0.3,0.1,0.6,0.1,0.9,0.2
	c0.2,0,0.4-0.1,0.5-0.2c0.1-0.2,0.2-0.3,0.3-0.5l0.1-0.4l0.1,0L65,19.2l-0.1,0L64.9,18.8z"/>
<path class="st4" d="M75.5,18l-0.1,0.1L75,17.9L72.6,22c0.2,0.1,0.4,0.2,0.6,0.3c0.2,0.1,0.4,0.1,0.5,0.1c0.2,0,0.4-0.2,0.4-0.3
	l0.6-1.1l0.1,0.1l-1.2,2.1l-0.1-0.1l0.2-0.3l-1.9-1.1l0.1-0.1l0.4,0.2l2.2-3.8c0.1-0.1,0.1-0.2,0-0.3c-0.1-0.1-0.2-0.2-0.3-0.2
	l0.1-0.1L75.5,18z"/>
<path class="st4" d="M79.8,21.9l0.9-0.7l0.1,0.1l-1,2.7v-1.1l0,0l0.4-1h0l-0.4,0.3V21.9L79.8,21.9z M78.6,26.1l1.2-3.1l-0.5-0.4
	l-1.8,1.4c-0.1,0.1-0.3,0.2-0.4,0.4C77,24.5,77,24.6,77,24.7c0,0.1,0.1,0.2,0.1,0.2c0.1,0.1,0.2,0.2,0.3,0.2l-0.1,0.1l-1.1-0.8
	l0.1-0.1l0.3,0.2l3.3-2.6v0.3l-0.4,0.3l0.4,0.3V24l-0.5,1.4c-0.1,0.1-0.1,0.3-0.2,0.4C79.1,26,79,26.1,79,26.3
	c0,0.1,0.1,0.3,0.2,0.3l-0.1,0.1l-1-0.8l0.1-0.1L78.6,26.1z"/>
<path class="st4" d="M90.1,30.6l-1.6,1.2l-0.1-0.1l0.4-0.3c0.2-0.2,0.4-0.4,0.6-0.6c0.1-0.2,0.1-0.5-0.1-0.6
	C89.2,30.1,89.1,30,89,30c-0.2-0.1-0.5-0.1-0.7,0.1c-0.1,0.1-0.2,0.2-0.3,0.4c0,0.2-0.1,0.3,0,0.5c0,0.2,0.1,0.4,0.1,0.7
	c0.1,0.3,0.1,0.5,0.1,0.8c0,0.2,0,0.5-0.1,0.7c-0.1,0.2-0.2,0.4-0.4,0.6C87.5,33.9,87.2,34,87,34c-0.2,0-0.5,0-0.7,0
	c-0.2-0.1-0.5-0.2-0.7-0.3c-0.2-0.1-0.4-0.3-0.6-0.5c-0.2-0.3-0.3-0.6-0.4-0.9c-0.1-0.3-0.1-0.6,0-0.9c0.1-0.3,0.3-0.6,0.5-0.7
	c0.2-0.2,0.4-0.3,0.7-0.3c0.2,0,0.5,0,0.7,0.1c0.2,0.1,0.4,0.2,0.6,0.4c0.1,0.1,0.2,0.3,0.2,0.4c0,0.2,0,0.3,0,0.5
	c0,0.2-0.1,0.3-0.3,0.4c-0.1,0.1-0.3,0.1-0.4,0.1c-0.2,0-0.3-0.1-0.4-0.2c0-0.1-0.1-0.1-0.1-0.2l0.1-0.1c0.2,0.1,0.4,0.1,0.5,0
	c0.1-0.1,0.1-0.2,0.2-0.3c0-0.1,0.1-0.2,0-0.4c0-0.1-0.1-0.2-0.1-0.3c-0.1-0.1-0.3-0.3-0.4-0.3c-0.2,0-0.4,0-0.6,0
	c-0.2,0-0.4,0.1-0.5,0.2c-0.2,0.2-0.4,0.4-0.5,0.6c-0.2,0.5-0.2,1.1,0.2,1.6c0.2,0.2,0.4,0.4,0.6,0.5c0.2,0.1,0.5,0.2,0.8,0.1
	c0.3,0,0.5-0.1,0.7-0.3c0.2-0.1,0.3-0.3,0.3-0.5c0.1-0.2,0.1-0.4,0.1-0.6c0-0.3,0-0.5-0.1-0.8c0-0.2-0.1-0.5-0.1-0.7
	c0-0.2,0-0.4,0.1-0.6c0.1-0.2,0.2-0.3,0.4-0.5c0.2-0.2,0.5-0.2,0.8-0.2c0.3,0.1,0.5,0.2,0.7,0.4c0.1,0.2,0.2,0.3,0.2,0.5l0.2-0.2
	L90.1,30.6z"/>
<path class="st4" d="M89,39l-1.2-2l0.1-0.1l0.2,0.4l3.8-2.2c0.1,0,0.2-0.1,0.2-0.3c0-0.1,0-0.2-0.1-0.4l0.1-0.1l1.2,2.1l0.3-0.2
	l0.1,0.1l-1.5,0.8l-0.1-0.1l0.2-0.1c0.4-0.2,0.5-0.4,0.6-0.7c0-0.3-0.2-0.7-0.3-0.9l-0.1-0.2l-1.1,0.6l0.3,0.6l0.7-0.4l0.1,0.1
	l-1.6,0.9L90.9,37c0.2-0.1,0.3-0.2,0.5-0.3c0.1-0.1,0.2-0.2,0.1-0.4c0-0.1-0.1-0.2-0.1-0.3l-2.9,1.7c0.2,0.3,0.3,0.5,0.5,0.8
	c0.1,0.1,0.3,0.2,0.5,0.2c0.2,0,0.4-0.1,0.6-0.2l0.3-0.2l0.1,0.1l-1.6,0.9l-0.1-0.1L89,39z"/>
<path class="st4" d="M95.1,39.9l0.3,0.9L95,40.9c0.5,0.3,0.8,0.7,1.1,1.2c0.1,0.3,0.2,0.7,0.1,1.1c0,0.4-0.2,0.7-0.4,1
	c-0.2,0.3-0.5,0.5-0.8,0.7c-0.3,0.1-0.6,0.2-0.9,0.2v-0.3c0.2,0,0.4-0.1,0.6-0.1c0.3-0.1,0.6-0.4,0.8-0.6c0.2-0.3,0.4-0.6,0.4-0.9
	c0.1-0.3,0-0.7-0.1-1c-0.2-0.5-0.6-0.8-1.1-1L94,41.3v-0.5l0.8-0.3c0.2-0.1,0.3-0.3,0.2-0.5l0-0.1L95.1,39.9z M94,45.1
	c-0.1,0-0.1,0-0.2,0c-0.4-0.1-0.7-0.2-1-0.5c-0.3-0.2-0.5-0.6-0.7-0.9h0c0,0.1,0,0.3,0,0.7c0,0.3,0,0.6,0,0.9c0,0.2,0.1,0.4,0.1,0.6
	c0,0.1,0.1,0.2,0.2,0.3l0,0.1c-0.2-0.1-0.3-0.3-0.4-0.5c-0.1-0.2-0.1-0.4-0.2-0.6c0-0.2,0-0.4-0.1-0.6c0-0.2,0-0.4,0-0.8
	c0-0.6,0.1-1.1,0.2-1.7l-0.7,0.3c-0.1,0-0.1,0.1-0.2,0.1c0,0-0.1,0.1,0,0.2c0,0.1,0,0.2,0.1,0.3c0,0.1,0.1,0.1,0.1,0.2l-0.1,0.1
	l-0.6-1.4l0.1-0.1l0.2,0.4l3.3-1.3v0.5l-1.9,0.8l0.1,0c-0.2,0.6-0.2,1.2,0,1.5c0.1,0.3,0.3,0.5,0.6,0.7c0.3,0.2,0.6,0.3,0.9,0.3
	c0.1,0,0.2,0,0.3,0L94,45.1L94,45.1z"/>
<path class="st4" d="M93.2,51.3L92.7,49l0.1,0l0.1,0.4l4.3-0.8c0.1,0,0.2-0.1,0.3-0.2c0-0.1,0-0.3,0-0.4l0.1,0l0.5,2.3l0.3-0.1
	l0,0.1l-1.7,0.3l0-0.1l0.3-0.1c0.4-0.1,0.7-0.2,0.7-0.4c0.1-0.3,0.1-0.7,0-1l0-0.2l-1.2,0.2l0.1,0.6l0.8-0.1l0,0.1l-1.8,0.4l0-0.1
	c0.2,0,0.4-0.1,0.6-0.2c0.1-0.1,0.2-0.2,0.2-0.3c0-0.1,0-0.2,0-0.3L93,49.9c0.1,0.3,0.1,0.6,0.2,0.9c0.1,0.2,0.2,0.3,0.4,0.4
	c0.2,0.1,0.4,0.1,0.6,0l0.4-0.1l0,0.1l-1.8,0.4l0-0.1L93.2,51.3z"/>
<path class="st4" d="M93.7,54.5l0,0.4l4.1-0.4c0.2,0,0.3,0,0.5-0.1c0.1-0.1,0.2-0.3,0.2-0.5l0.1,0l0.1,0.7l-4,2.3v0l3.5-0.3
	c0.1,0,0.3-0.1,0.4-0.2c0.1-0.1,0.1-0.2,0.1-0.4l0.2,0l0.1,1.1l-0.1,0l0-0.4l-5.2,0.5v-0.1l4-2.3l0,0l-3.2,0.3
	c-0.2,0-0.4,0.1-0.5,0.2c-0.1,0.1-0.1,0.3-0.1,0.4l-0.1,0l-0.1-1.2L93.7,54.5z"/>
<path class="st4" d="M97.6,61.8l1.4,0.4v0.1l-1.4,0.3v-0.4l0.5-0.1v0l-0.5-0.2L97.6,61.8L97.6,61.8z M93.7,63.2l3.2-0.8l0-0.6
	l-2.2-0.7c-0.2-0.1-0.4-0.1-0.5-0.1c-0.1,0-0.2,0-0.3,0.1c-0.1,0.1-0.1,0.2-0.1,0.3c0,0.1,0,0.2,0,0.3h-0.1l0.1-1.3h0.1l0,0.3
	l3.7,1.2v0.2l-0.5-0.1l0,0.5l0.5-0.1v0.4l-2.9,0.7l-0.5,0.1c-0.1,0-0.3,0.1-0.4,0.2c-0.1,0.1-0.2,0.2-0.2,0.3h-0.1l0.1-1.2h0.1
	L93.7,63.2z"/>
<path class="st7" d="M7,62.1H6.8L6.7,61h0.1l0,0.4l4.1-0.3c0.2,0,0.4,0,0.5,0.1c0.2,0.1,0.3,0.2,0.4,0.4c0.1,0.1,0.1,0.3,0.2,0.5
	c0,0.2,0,0.4-0.1,0.6c0,0.2-0.1,0.3-0.2,0.5c-0.2,0.2-0.5,0.4-0.8,0.4l-3.6,0.2c-0.2,0-0.3,0.2-0.3,0.5H7l-0.1-1.3H7l0,0.4l4-0.3
	c0.3,0,0.5-0.1,0.7-0.3c0.2-0.2,0.2-0.4,0.2-0.7c0-0.2-0.1-0.4-0.3-0.6c-0.2-0.1-0.4-0.2-0.7-0.2l-3.6,0.3c-0.2,0-0.3,0.1-0.3,0.3
	c0,0,0,0.1,0,0.1L7,62.1z"/>
<path class="st7" d="M11.6,57.7l0-0.4l-4.1-0.1c-0.2,0-0.3,0-0.5,0c-0.2,0.1-0.2,0.2-0.2,0.5H6.7l0-0.7l4.3-1.8v0l-3.5-0.1
	c-0.1,0-0.3,0-0.4,0.1c-0.1,0.1-0.2,0.2-0.2,0.4H6.7l0-1.1h0.1l0,0.4l5.2,0.2v0.1L7.8,57l0,0l3.2,0.1c0.2,0,0.4,0,0.5-0.1
	c0.1-0.1,0.1-0.3,0.1-0.4h0.1l-0.1,1.2L11.6,57.7z"/>
<path class="st7" d="M12.1,51.7l0.1-0.4l-4.4-0.8c-0.1,0-0.2,0-0.3,0.1c-0.1,0.1-0.1,0.2-0.1,0.4l-0.1,0l0.3-1.3l0.1,0l-0.1,0.4
	l4.2,0.8c0.1,0,0.2,0,0.3,0c0.1,0,0.1,0,0.2-0.1c0.1-0.1,0.1-0.2,0.1-0.4l0.1,0l-0.3,1.3L12.1,51.7z"/>
<path class="st7" d="M13.1,45.3l-3.2-2c-0.1,0-0.2-0.1-0.2-0.1c-0.1-0.1-0.2,0-0.3,0c-0.1,0.1-0.1,0.2-0.2,0.3l0,0.1l-0.1,0l0.4-1.3
	l0.1,0l-0.1,0.4l4.5,2.9l-0.1,0.1l-4.6-0.1c-0.2,0-0.4,0-0.6,0c-0.1,0-0.2,0-0.3,0.1c-0.1,0.1-0.1,0.1-0.1,0.2l0,0.1l-0.1,0l0.5-1.4
	l0.1,0l-0.2,0.5L13.1,45.3z"/>
<path class="st7" d="M16.4,39.3l-1.1,2.1l-0.1-0.1l0.2-0.4l-3.9-2c-0.1-0.1-0.2-0.1-0.3,0c-0.1,0.1-0.2,0.2-0.2,0.3l-0.1-0.1
	l1.1-2.1l-0.3-0.1l0.1-0.1l1.5,0.8l-0.1,0.1l-0.2-0.1c-0.4-0.2-0.7-0.2-0.9-0.1c-0.3,0.2-0.5,0.5-0.6,0.8l-0.1,0.2l1.1,0.6l0.3-0.6
	L12,38l0.1-0.1l1.7,0.8l-0.1,0.1c-0.2-0.1-0.4-0.2-0.5-0.2c-0.1,0-0.3,0-0.4,0.1c-0.1,0.1-0.2,0.2-0.2,0.3l3,1.5
	c0.1-0.3,0.3-0.5,0.4-0.8c0-0.2,0-0.4-0.1-0.6c-0.1-0.2-0.3-0.3-0.5-0.4L15,38.6l0.1-0.1l1.6,0.8l-0.1,0.1L16.4,39.3z"/>
<path class="st7" d="M13.6,33.6l0.5-0.7l0.4,0.3c0-0.5,0.1-1.1,0.4-1.5c0.2-0.3,0.5-0.5,0.9-0.7c0.3-0.2,0.7-0.2,1.1-0.2
	c0.4,0,0.7,0.1,1,0.4c0.3,0.2,0.6,0.5,0.7,0.9c0.1,0.3,0.2,0.7,0.1,1.1c0,0.4-0.2,0.8-0.4,1.1h0c0.1-0.1,0.3-0.2,0.6-0.3
	c0.3-0.1,0.5-0.3,0.7-0.4c0.2-0.1,0.3-0.3,0.5-0.5c0.1-0.1,0.1-0.2,0.1-0.3h0.1c0,0.2-0.1,0.4-0.2,0.6c-0.1,0.2-0.2,0.3-0.4,0.5
	c-0.1,0.1-0.3,0.2-0.4,0.3c-0.1,0.1-0.4,0.2-0.7,0.4c-0.5,0.3-1,0.5-1.5,0.7l0.6,0.4c0.1,0.1,0.1,0.1,0.2,0.1c0.1,0,0.1,0,0.2,0
	c0.1-0.1,0.1-0.1,0.2-0.2c0-0.1,0.1-0.1,0.1-0.2l0.1,0.1l-0.9,1.2l-0.1-0.1l0.3-0.3l-3.6-2.6c-0.2-0.1-0.4-0.1-0.5,0.1l0,0.1
	L13.6,33.6L13.6,33.6L13.6,33.6z M14.8,33.3l2.2,1.6L17,34.8c0.6-0.2,1.1-0.5,1.3-0.8c0.2-0.2,0.3-0.5,0.3-0.9
	c0-0.6-0.2-1.3-0.8-1.6c-0.3-0.2-0.6-0.3-1-0.3c-0.3,0-0.7,0-1,0.1c-0.3,0.1-0.6,0.3-0.8,0.6C14.8,32.3,14.7,32.8,14.8,33.3
	L14.8,33.3z"/>
<path class="st7" d="M20.5,24.8l1.4,1.4l-0.1,0.1l-0.3-0.3c-0.2-0.2-0.4-0.4-0.7-0.5c-0.2-0.1-0.5,0-0.6,0.2
	c-0.1,0.1-0.1,0.2-0.2,0.3c0,0.1,0,0.2,0,0.4c0,0.1,0.1,0.2,0.2,0.3c0.1,0.1,0.3,0.2,0.5,0.2c0.2,0,0.3,0,0.5,0
	c0.2,0,0.4-0.1,0.7-0.2c0.3-0.1,0.5-0.2,0.8-0.2c0.2,0,0.5,0,0.7,0c0.2,0,0.4,0.2,0.6,0.3c0.2,0.2,0.3,0.4,0.4,0.6
	c0.1,0.2,0.1,0.5,0.1,0.7c0,0.2-0.1,0.5-0.2,0.7c-0.1,0.2-0.3,0.5-0.4,0.6c-0.2,0.2-0.5,0.4-0.8,0.5C22.7,30,22.4,30,22.1,30
	c-0.3-0.1-0.6-0.2-0.8-0.4c-0.2-0.2-0.3-0.4-0.4-0.6c-0.1-0.2-0.1-0.5,0-0.7c0.1-0.2,0.2-0.5,0.3-0.6c0.1-0.1,0.3-0.2,0.4-0.3
	c0.2-0.1,0.3-0.1,0.5-0.1c0.2,0,0.3,0.1,0.4,0.2c0.1,0.1,0.2,0.2,0.2,0.4c0,0.2,0,0.3-0.2,0.4c0,0-0.1,0.1-0.1,0.1l-0.1-0.1
	c0.1-0.2,0.1-0.4-0.1-0.5c-0.1-0.1-0.2-0.1-0.3-0.1c-0.1,0-0.2,0-0.4,0c-0.1,0-0.2,0.1-0.3,0.2c-0.1,0.1-0.2,0.3-0.2,0.5
	c0,0.2,0,0.4,0.1,0.6c0.1,0.2,0.2,0.3,0.3,0.5c0.2,0.2,0.4,0.3,0.7,0.4c0.3,0.1,0.5,0.1,0.8,0c0.3-0.1,0.5-0.2,0.7-0.4
	c0.2-0.2,0.3-0.4,0.4-0.7c0.1-0.3,0.1-0.5,0-0.8c-0.1-0.3-0.2-0.5-0.4-0.7c-0.1-0.1-0.3-0.2-0.5-0.3c-0.2,0-0.4,0-0.6,0
	c-0.2,0-0.5,0.1-0.7,0.2c-0.2,0.1-0.4,0.1-0.7,0.2c-0.2,0-0.4,0-0.6,0c-0.2,0-0.4-0.1-0.5-0.3c-0.2-0.2-0.3-0.5-0.3-0.7
	c0-0.3,0.1-0.5,0.3-0.8c0.1-0.1,0.3-0.2,0.5-0.3l-0.2-0.2L20.5,24.8z"/>
<path class="st7" d="M27.1,25.9l0.4-0.3l-2.7-3.5C24.7,22,24.6,22,24.5,22c-0.1,0-0.2,0.1-0.3,0.2L24,22.1l1.1-0.8l0.1,0.1l-0.3,0.3
	l2.7,3.4c0.1,0.1,0.1,0.1,0.2,0.2c0.1,0,0.1,0.1,0.2,0.1c0.1-0.1,0.2-0.1,0.3-0.2l0.1,0.1L27.2,26L27.1,25.9z"/>
<path class="st7" d="M30.4,23.5l0.4-0.2l-2.2-3.8c-0.1-0.2-0.3-0.3-0.5-0.2c0,0-0.1,0-0.1,0.1l-0.1,0l-0.1-0.1l1.8-1
	c0.3-0.2,0.6-0.3,1-0.4c0.3-0.1,0.6,0,0.9,0c0.2,0.1,0.4,0.1,0.6,0.2c0.2,0.1,0.4,0.2,0.5,0.4c0.2,0.2,0.3,0.3,0.4,0.5
	c0.3,0.5,0.4,1.2,0.3,1.8c0,0.2-0.1,0.5-0.2,0.7c-0.1,0.2-0.3,0.5-0.5,0.7c-0.3,0.3-0.5,0.5-0.9,0.6l-1.5,0.8L30.4,23.5L30.4,23.5
	L30.4,23.5z M32.9,19.2c-0.2-0.3-0.5-0.6-0.9-0.8c-0.4-0.2-0.7-0.3-1.2-0.3c-0.4,0-0.8,0.1-1.1,0.3c-0.3,0.2-0.6,0.4-0.8,0.7
	l2.2,3.8c0.4-0.1,0.7-0.2,1.1-0.4c0.3-0.2,0.6-0.5,0.8-0.9c0.2-0.4,0.3-0.8,0.2-1.2C33.2,20,33.1,19.6,32.9,19.2z"/>
<path class="st7" d="M39.9,19l-2-2.7l-0.6,0.2l0.2,2.3c0,0.2,0,0.4,0.1,0.5c0,0.1,0.1,0.2,0.2,0.2c0.1,0,0.2,0,0.3,0
	c0.1,0,0.2-0.1,0.3-0.1l0,0.1l-1.3,0.4l0-0.1l0.3-0.1l-0.5-5.3l0.1,0l2.6,3.5c0.1,0.1,0.2,0.3,0.3,0.4c0.1,0.1,0.2,0.2,0.3,0.3
	c0.1,0.1,0.3,0.1,0.4,0l0,0.1l-1.2,0.4l0-0.1L39.9,19L39.9,19L39.9,19z M37.9,16.2l-0.6-0.8h0l0.1,1L37.9,16.2z"/>
<path class="st7" d="M43.2,18l0.5-0.1l-0.8-4.3c0-0.2-0.2-0.3-0.4-0.3c0,0-0.1,0-0.1,0l-0.1,0l0-0.1l2.1-0.4c0.4-0.1,0.7-0.1,1.1,0
	c0.3,0.1,0.6,0.2,0.9,0.3c0.4,0.3,0.6,0.6,0.9,1c0.1,0.2,0.2,0.4,0.2,0.6c0.1,0.6,0,1.2-0.3,1.8c-0.1,0.2-0.3,0.4-0.4,0.6
	c-0.2,0.2-0.4,0.4-0.7,0.5c-0.3,0.1-0.7,0.3-1,0.3l-1.7,0.3L43.2,18L43.2,18L43.2,18z M47,14.8c-0.1-0.4-0.3-0.8-0.5-1.1
	c-0.3-0.3-0.6-0.5-1-0.7c-0.4-0.1-0.8-0.2-1.2-0.1c-0.4,0-0.7,0.2-1,0.3l0.8,4.3c0.4,0.1,0.8,0,1.2,0c0.4-0.1,0.8-0.3,1.1-0.5
	c0.3-0.3,0.5-0.6,0.6-1C47.1,15.6,47.1,15.2,47,14.8z"/>
<path class="st7" d="M55.1,16.9l0.5,0.1l0.5-4.4c0-0.2-0.1-0.4-0.3-0.4c0,0-0.1,0-0.1,0l-0.1,0l0-0.1l2.1,0.3c0.4,0,0.7,0.1,1,0.3
	c0.3,0.1,0.5,0.3,0.7,0.6c0.1,0.2,0.2,0.4,0.3,0.5c0.1,0.2,0.2,0.4,0.2,0.6c0,0.2,0,0.4,0,0.7c-0.1,0.6-0.4,1.2-0.8,1.6
	c-0.2,0.2-0.4,0.3-0.6,0.4c-0.2,0.1-0.5,0.2-0.8,0.2c-0.4,0-0.7,0-1.1,0L55.1,17L55.1,16.9L55.1,16.9L55.1,16.9z M59.6,15
	c0-0.4,0-0.8-0.2-1.2c-0.2-0.4-0.4-0.7-0.7-0.9c-0.3-0.2-0.7-0.4-1.1-0.4c-0.4-0.1-0.7-0.1-1.1,0L56,16.8c0.4,0.2,0.7,0.3,1.1,0.3
	c0.4,0.1,0.8,0,1.2-0.2c0.4-0.2,0.7-0.5,0.9-0.8C59.4,15.8,59.6,15.4,59.6,15L59.6,15z"/>
<path class="st7" d="M64.9,18.8l-2.3-0.6l0-0.1l0.4,0.1l1.1-4.3c0-0.1,0-0.2,0-0.3c-0.1-0.1-0.2-0.1-0.3-0.2l0-0.1l2.3,0.6l0.1-0.3
	l0.1,0L66,15.3l-0.1,0L66,15c0.1-0.4,0.1-0.7-0.1-0.9c-0.3-0.2-0.6-0.4-0.9-0.4l-0.2-0.1l-0.3,1.2l0.6,0.2l0.2-0.7l0.1,0l-0.5,1.8
	l-0.1,0c0.1-0.2,0.1-0.4,0.1-0.6c0-0.1-0.1-0.3-0.2-0.4c-0.1-0.1-0.2-0.1-0.3-0.1l-0.9,3.2c0.3,0.1,0.6,0.1,0.9,0.2
	c0.2,0,0.4-0.1,0.5-0.2c0.1-0.2,0.2-0.3,0.3-0.5l0.1-0.4l0.1,0L65,19.2l-0.1,0L64.9,18.8z"/>
<path class="st7" d="M75.5,18l-0.1,0.1L75,17.9L72.6,22c0.2,0.1,0.4,0.2,0.6,0.3c0.2,0.1,0.4,0.1,0.5,0.1c0.2,0,0.4-0.2,0.4-0.3
	l0.6-1.1l0.1,0.1l-1.2,2.1l-0.1-0.1l0.2-0.3l-1.9-1.1l0.1-0.1l0.4,0.2l2.2-3.8c0.1-0.1,0.1-0.2,0-0.3c-0.1-0.1-0.2-0.2-0.3-0.2
	l0.1-0.1L75.5,18z"/>
<path class="st7" d="M78.6,26.1l1.2-3.1l-0.5-0.4l-1.8,1.4c-0.1,0.1-0.3,0.2-0.4,0.4C77,24.5,77,24.6,77,24.7c0,0.1,0.1,0.2,0.1,0.2
	c0.1,0.1,0.2,0.2,0.3,0.2l-0.1,0.1l-1.1-0.8l0.1-0.1l0.3,0.2l4.2-3.3l0.1,0.1l-1.5,4.1c-0.1,0.1-0.1,0.3-0.2,0.4
	C79.1,26,79,26.1,79,26.3c0,0.1,0.1,0.3,0.2,0.3l-0.1,0.1l-1-0.8l0.1-0.1L78.6,26.1L78.6,26.1L78.6,26.1z M79.9,22.9l0.4-1h0
	l-0.8,0.6L79.9,22.9z"/>
<path class="st7" d="M90.1,30.6l-1.6,1.2l-0.1-0.1l0.4-0.3c0.2-0.2,0.4-0.4,0.6-0.6c0.1-0.2,0.1-0.5-0.1-0.6
	C89.2,30.1,89.1,30,89,30c-0.2-0.1-0.5-0.1-0.7,0.1c-0.1,0.1-0.2,0.2-0.3,0.4c0,0.2-0.1,0.3,0,0.5c0,0.2,0.1,0.4,0.1,0.7
	c0.1,0.3,0.1,0.5,0.1,0.8c0,0.2,0,0.5-0.1,0.7c-0.1,0.2-0.2,0.4-0.4,0.6C87.5,33.9,87.2,34,87,34c-0.2,0-0.5,0-0.7,0
	c-0.2-0.1-0.5-0.2-0.7-0.3c-0.2-0.1-0.4-0.3-0.6-0.5c-0.2-0.3-0.3-0.6-0.4-0.9c-0.1-0.3-0.1-0.6,0-0.9c0.1-0.3,0.3-0.6,0.5-0.7
	c0.2-0.2,0.4-0.3,0.7-0.3c0.2,0,0.5,0,0.7,0.1c0.2,0.1,0.4,0.2,0.6,0.4c0.1,0.1,0.2,0.3,0.2,0.4c0,0.2,0,0.3,0,0.5
	c0,0.2-0.1,0.3-0.3,0.4c-0.1,0.1-0.3,0.1-0.4,0.1c-0.2,0-0.3-0.1-0.4-0.2c0-0.1-0.1-0.1-0.1-0.2l0.1-0.1c0.2,0.1,0.4,0.1,0.5,0
	c0.1-0.1,0.1-0.2,0.2-0.3c0-0.1,0.1-0.2,0-0.4c0-0.1-0.1-0.2-0.1-0.3c-0.1-0.1-0.3-0.3-0.4-0.3c-0.2,0-0.4,0-0.6,0
	c-0.2,0-0.4,0.1-0.5,0.2c-0.2,0.2-0.4,0.4-0.5,0.6c-0.2,0.5-0.2,1.1,0.2,1.6c0.2,0.2,0.4,0.4,0.6,0.5c0.2,0.1,0.5,0.2,0.8,0.1
	c0.3,0,0.5-0.1,0.7-0.3c0.2-0.1,0.3-0.3,0.3-0.5c0.1-0.2,0.1-0.4,0.1-0.6c0-0.3,0-0.5-0.1-0.8c0-0.2-0.1-0.5-0.1-0.7
	c0-0.2,0-0.4,0.1-0.6c0.1-0.2,0.2-0.3,0.4-0.5c0.2-0.2,0.5-0.2,0.8-0.2c0.3,0.1,0.5,0.2,0.7,0.4c0.1,0.2,0.2,0.3,0.2,0.5l0.2-0.2
	L90.1,30.6z"/>
<path class="st7" d="M89,39l-1.2-2l0.1-0.1l0.2,0.4l3.8-2.2c0.1,0,0.2-0.1,0.2-0.3c0-0.1,0-0.2-0.1-0.4l0.1-0.1l1.2,2.1l0.3-0.2
	l0.1,0.1l-1.5,0.8l-0.1-0.1l0.2-0.1c0.4-0.2,0.5-0.4,0.6-0.7c0-0.3-0.2-0.7-0.3-0.9l-0.1-0.2l-1.1,0.6l0.3,0.6l0.7-0.4l0.1,0.1
	l-1.6,0.9L90.9,37c0.2-0.1,0.3-0.2,0.5-0.3c0.1-0.1,0.2-0.2,0.1-0.4c0-0.1-0.1-0.2-0.1-0.3l-2.9,1.7c0.2,0.3,0.3,0.5,0.5,0.8
	c0.1,0.1,0.3,0.2,0.5,0.2c0.2,0,0.4-0.1,0.6-0.2l0.3-0.2l0.1,0.1l-1.6,0.9l-0.1-0.1L89,39z"/>
<path class="st7" d="M93.2,51.3L92.7,49l0.1,0l0.1,0.4l4.3-0.8c0.1,0,0.2-0.1,0.3-0.2c0-0.1,0-0.3,0-0.4l0.1,0l0.5,2.3l0.3-0.1
	l0,0.1l-1.7,0.3l0-0.1l0.3-0.1c0.4-0.1,0.7-0.2,0.7-0.4c0.1-0.3,0.1-0.7,0-1l0-0.2l-1.2,0.2l0.1,0.6l0.8-0.1l0,0.1l-1.8,0.4l0-0.1
	c0.2,0,0.4-0.1,0.6-0.2c0.1-0.1,0.2-0.2,0.2-0.3c0-0.1,0-0.2,0-0.3L93,49.9c0.1,0.3,0.1,0.6,0.2,0.9c0.1,0.2,0.2,0.3,0.4,0.4
	c0.2,0.1,0.4,0.1,0.6,0l0.4-0.1l0,0.1l-1.8,0.4l0-0.1L93.2,51.3z"/>
<path class="st7" d="M93.7,54.5l0,0.4l4.1-0.4c0.2,0,0.3,0,0.5-0.1c0.1-0.1,0.2-0.3,0.2-0.5l0.1,0l0.1,0.7l-4,2.3v0l3.5-0.3
	c0.1,0,0.3-0.1,0.4-0.2c0.1-0.1,0.1-0.2,0.1-0.4l0.2,0l0.1,1.1l-0.1,0l0-0.4l-5.2,0.5v-0.1l4-2.3l0,0l-3.2,0.3
	c-0.2,0-0.4,0.1-0.5,0.2c-0.1,0.1-0.1,0.3-0.1,0.4l-0.1,0l-0.1-1.2L93.7,54.5z"/>
<path class="st7" d="M93.7,63.2l3.2-0.8l0-0.6l-2.2-0.7c-0.2-0.1-0.4-0.1-0.5-0.1c-0.1,0-0.2,0-0.3,0.1c-0.1,0.1-0.1,0.2-0.1,0.3
	c0,0.1,0,0.2,0,0.3h-0.1l0.1-1.3h0.1l0,0.3l5.1,1.6v0.1l-4.3,1l-0.5,0.1c-0.1,0-0.3,0.1-0.4,0.2c-0.1,0.1-0.2,0.2-0.2,0.3h-0.1
	l0.1-1.2h0.1L93.7,63.2L93.7,63.2L93.7,63.2z M97.1,62.5l1-0.2v0l-1-0.3L97.1,62.5z"/>
<line class="st7" x1="21.2" y1="80.9" x2="13.8" y2="88.3"/>
<path class="st4" d="M42.5,99.5l0.1-0.4l0.1,0l-0.7,1.9l-0.1,0c0.1-0.3,0.2-0.5,0.2-0.8c0-0.2,0-0.4-0.1-0.5
	c-0.1-0.2-0.2-0.3-0.4-0.5c-0.2-0.1-0.4-0.3-0.6-0.3c-0.4-0.1-0.9-0.2-1.3-0.1c-0.4,0.1-0.8,0.3-1.1,0.6c-0.3,0.3-0.5,0.6-0.7,1
	c-0.1,0.3-0.2,0.6-0.1,1c0,0.3,0.1,0.7,0.2,1c0.1,0.3,0.3,0.6,0.5,0.8c0.2,0.2,0.5,0.4,0.8,0.5c0.3,0.1,0.6,0.2,1,0.1
	c0.3,0,0.6-0.1,0.9-0.2l0.1,0.2c-0.3,0.1-0.7,0.2-1,0.2c-0.4,0-0.7,0-1-0.1c-0.5-0.2-0.9-0.4-1.2-0.8c-0.3-0.4-0.5-0.8-0.6-1.3
	c-0.2-0.9,0.1-1.7,0.7-2.4c0.3-0.3,0.6-0.5,0.9-0.6c0.3-0.1,0.7-0.2,1.1-0.2c0.4,0,0.7,0,1.1,0.2C41.8,98.8,42.2,99.1,42.5,99.5z"/>
<path class="st4" d="M48.7,100.2l-0.6,4.4c0,0.1,0,0.2,0,0.3c0.1,0.1,0.2,0.1,0.3,0.1c0,0,0.1,0,0.1,0l0,0.1l-1.4-0.2l0-0.1l0.5,0.1
	l0.5-3.4l-1.6-0.2l-0.4,3c0,0.1,0,0.3,0.1,0.4c0.1,0.1,0.2,0.1,0.4,0.1l0,0.1l-1.4-0.2l0-0.1l0.5,0.1l0.6-4.5c0-0.2-0.1-0.4-0.4-0.4
	l-0.1,0l0-0.1l1.4,0.2l0,0.1l-0.4-0.1l-0.2,1.3l1.6,0.2l0.1-0.9c0-0.1,0-0.2-0.1-0.3c-0.1-0.1-0.2-0.1-0.3-0.1l-0.1,0l0-0.1l1.4,0.2
	l0,0.1L48.7,100.2z"/>
<path class="st4" d="M52.4,105.2l0.5,0l-0.2-4.5c0-0.1,0-0.2-0.1-0.3c-0.1,0-0.3-0.1-0.4-0.1v-0.1l1.4,0v0.1l-0.4,0l0.2,4.4
	c0,0.1,0,0.2,0,0.3c0,0.1,0.1,0.1,0.1,0.2c0.1,0,0.3,0,0.4,0v0.1l-1.4,0V105.2z"/>
<path class="st4" d="M57.9,99.6l0,0.1l-0.5,0.1l0.9,4.8c0.2,0,0.4-0.1,0.7-0.2c0.2-0.1,0.3-0.2,0.5-0.3c0.1-0.2,0.2-0.4,0.1-0.6
	l-0.2-1.2l0.1,0l0.5,2.5l-0.1,0l-0.1-0.3l-2.2,0.4l0-0.1l0.4-0.1l-0.9-4.4c0-0.1-0.1-0.2-0.2-0.2c-0.1,0-0.3,0-0.4,0l0-0.1
	L57.9,99.6z"/>
<path class="st4" d="M66,102.9l-2.3,0.8l0-0.1l0.4-0.2l-1.5-4.2c0-0.1-0.1-0.2-0.2-0.2c-0.1,0-0.3,0-0.4,0.1l0-0.1l2.3-0.8l-0.1-0.3
	l0.1,0l0.6,1.6l-0.1,0l-0.1-0.3c-0.1-0.4-0.3-0.6-0.5-0.7c-0.3,0-0.7,0-1,0.2l-0.2,0.1l0.4,1.2l0.6-0.2l-0.3-0.7l0.1,0l0.6,1.8
	l-0.1,0c-0.1-0.2-0.1-0.4-0.2-0.5c-0.1-0.1-0.2-0.2-0.4-0.2c-0.1,0-0.2,0-0.3,0.1l1.1,3.2c0.3-0.1,0.6-0.2,0.9-0.4
	c0.2-0.1,0.3-0.3,0.3-0.5c0-0.2,0-0.4-0.1-0.6l-0.1-0.4l0.1,0l0.6,1.8l-0.1,0L66,102.9z"/>
<path class="st7" d="M42.5,99.5l0.1-0.4l0.1,0l-0.7,1.9l-0.1,0c0.1-0.3,0.2-0.5,0.2-0.8c0-0.2,0-0.4-0.1-0.5
	c-0.1-0.2-0.2-0.3-0.4-0.5c-0.2-0.1-0.4-0.3-0.6-0.3c-0.4-0.1-0.9-0.2-1.3-0.1c-0.4,0.1-0.8,0.3-1.1,0.6c-0.3,0.3-0.5,0.6-0.7,1
	c-0.1,0.3-0.2,0.6-0.1,1c0,0.3,0.1,0.7,0.2,1c0.1,0.3,0.3,0.6,0.5,0.8c0.2,0.2,0.5,0.4,0.8,0.5c0.3,0.1,0.6,0.2,1,0.1
	c0.3,0,0.6-0.1,0.9-0.2l0.1,0.2c-0.3,0.1-0.7,0.2-1,0.2c-0.4,0-0.7,0-1-0.1c-0.5-0.2-0.9-0.4-1.2-0.8c-0.3-0.4-0.5-0.8-0.6-1.3
	c-0.2-0.9,0.1-1.7,0.7-2.4c0.3-0.3,0.6-0.5,0.9-0.6c0.3-0.1,0.7-0.2,1.1-0.2c0.4,0,0.7,0,1.1,0.2C41.8,98.8,42.2,99.1,42.5,99.5z"/>
<path class="st7" d="M48.7,100.2l-0.6,4.4c0,0.1,0,0.2,0,0.3c0.1,0.1,0.2,0.1,0.3,0.1c0,0,0.1,0,0.1,0l0,0.1l-1.4-0.2l0-0.1l0.5,0.1
	l0.5-3.4l-1.6-0.2l-0.4,3c0,0.1,0,0.3,0.1,0.4c0.1,0.1,0.2,0.1,0.4,0.1l0,0.1l-1.4-0.2l0-0.1l0.5,0.1l0.6-4.5c0-0.2-0.1-0.4-0.4-0.4
	l-0.1,0l0-0.1l1.4,0.2l0,0.1l-0.4-0.1l-0.2,1.3l1.6,0.2l0.1-0.9c0-0.1,0-0.2-0.1-0.3c-0.1-0.1-0.2-0.1-0.3-0.1l-0.1,0l0-0.1l1.4,0.2
	l0,0.1L48.7,100.2z"/>
<path class="st7" d="M52.4,105.2l0.5,0l-0.2-4.5c0-0.1,0-0.2-0.1-0.3c-0.1,0-0.3-0.1-0.4-0.1v-0.1l1.4,0v0.1l-0.4,0l0.2,4.4
	c0,0.1,0,0.2,0,0.3c0,0.1,0.1,0.1,0.1,0.2c0.1,0,0.3,0,0.4,0v0.1l-1.4,0V105.2z"/>
<path class="st7" d="M57.9,99.6l0,0.1l-0.5,0.1l0.9,4.8c0.2,0,0.4-0.1,0.7-0.2c0.2-0.1,0.3-0.2,0.5-0.3c0.1-0.2,0.2-0.4,0.1-0.6
	l-0.2-1.2l0.1,0l0.5,2.5l-0.1,0l-0.1-0.3l-2.2,0.4l0-0.1l0.4-0.1l-0.9-4.4c0-0.1-0.1-0.2-0.2-0.2c-0.1,0-0.3,0-0.4,0l0-0.1
	L57.9,99.6z"/>
<path class="st7" d="M66,102.9l-2.3,0.8l0-0.1l0.4-0.2l-1.5-4.2c0-0.1-0.1-0.2-0.2-0.2c-0.1,0-0.3,0-0.4,0.1l0-0.1l2.3-0.8l-0.1-0.3
	l0.1,0l0.6,1.6l-0.1,0l-0.1-0.3c-0.1-0.4-0.3-0.6-0.5-0.7c-0.3,0-0.7,0-1,0.2l-0.2,0.1l0.4,1.2l0.6-0.2l-0.3-0.7l0.1,0l0.6,1.8
	l-0.1,0c-0.1-0.2-0.1-0.4-0.2-0.5c-0.1-0.1-0.2-0.2-0.4-0.2c-0.1,0-0.2,0-0.3,0.1l1.1,3.2c0.3-0.1,0.6-0.2,0.9-0.4
	c0.2-0.1,0.3-0.3,0.3-0.5c0-0.2,0-0.4-0.1-0.6l-0.1-0.4l0.1,0l0.6,1.8l-0.1,0L66,102.9z"/>
<line class="st7" x1="83.4" y1="80.7" x2="91.5" y2="88.3"/>
<path class="st7" d="M95.1,39.9l0.3,0.9L95,40.9c0.4,0.3,0.8,0.7,1,1.2c0.1,0.4,0.2,0.7,0.1,1.1c0,0.4-0.2,0.7-0.4,1
	c-0.2,0.3-0.5,0.5-0.9,0.7c-0.4,0.1-0.7,0.2-1.1,0.1c-0.4-0.1-0.7-0.2-1-0.5c-0.3-0.3-0.5-0.6-0.7-0.9l0,0c0,0.1,0,0.3-0.1,0.7
	c0,0.3-0.1,0.6-0.1,0.9c0,0.2,0.1,0.4,0.1,0.6c0,0.1,0.1,0.2,0.2,0.3l-0.1,0.1c-0.2-0.1-0.3-0.3-0.4-0.5c-0.1-0.2-0.1-0.4-0.2-0.6
	c0-0.2,0-0.4,0-0.6c0-0.2,0-0.4,0-0.8c0-0.6,0.1-1.1,0.2-1.7l-0.7,0.3c-0.1,0-0.2,0.1-0.2,0.1c0,0-0.1,0.1,0,0.2
	c0,0.1,0,0.2,0.1,0.3c0,0.1,0.1,0.1,0.1,0.2l-0.1,0.1l-0.5-1.4l0.1,0l0.1,0.4l4.2-1.6c0.2-0.1,0.3-0.2,0.2-0.5l0-0.1L95.1,39.9
	L95.1,39.9L95.1,39.9z M94.7,41l-2.6,1l0.1,0c-0.2,0.6-0.2,1.1,0,1.5c0.1,0.3,0.3,0.5,0.5,0.7c0.5,0.4,1.2,0.5,1.8,0.3
	c0.3-0.1,0.6-0.3,0.8-0.6c0.2-0.3,0.4-0.6,0.4-0.9c0.1-0.3,0-0.7-0.1-1C95.6,41.6,95.2,41.2,94.7,41L94.7,41z"/>
</svg>
