<?xml version="1.0" encoding="utf-8"?>
<!-- Generator: Adobe Illustrator 21.1.0, SVG Export Plug-In . SVG Version: 6.00 Build 0)  -->
<svg version="1.1" id="Capa_1" xmlns="http://www.w3.org/2000/svg" xmlns:xlink="http://www.w3.org/1999/xlink" x="0px" y="0px"
	 viewBox="0 0 635 115" style="enable-background:new 0 0 635 115;" xml:space="preserve">
<style type="text/css">
	.st0{fill:#696969;}
	.st1{font-family:'Oswald-Regular';}
	.st2{font-size:95px;}
	.st3{fill:#FFFFFF;stroke:#003671;stroke-miterlimit:22.93;}
	.st4{fill:#003671;}
	.st5{fill:#FFFFFF;}
	.st6{fill:#DB2F34;}
	.st7{fill:none;stroke:#003671;stroke-miterlimit:22.93;}
	.st8{fill:none;stroke:#003671;stroke-width:1.39;stroke-miterlimit:22.93;}
</style>
<text transform="matrix(1 0 0 1 132.5 107.6627)" class="st0 st1 st2">ODONTOLOGÍA</text>
<path class="st3" d="M56.1,109.4c28.4,0,51.6-23.2,51.6-51.6S84.6,6.2,56.1,6.2S4.5,29.4,4.5,57.8S27.7,109.4,56.1,109.4z"/>
<path class="st4" d="M56.4,99c22.8,0,41.4-18.7,41.4-41.7S79.2,15.7,56.4,15.7S15,34.4,15,57.3S33.6,99,56.4,99z"/>
<polygon class="st5" points="79.4,26 67.6,26 57,19.9 57,28.4 67.6,34.5 79.4,34.5 "/>
<polygon class="st5" points="33,26 45.2,26 55.4,19.9 55.4,28.4 45.2,34.5 33,34.5 "/>
<polygon class="st5" points="81,43.1 67.6,43.1 67.6,54.9 59.1,50 59.1,45.1 56.2,43.5 53.8,45.1 53.8,52.4 67.6,60.1 67.6,74.8 
	57,80.9 57,92.7 79.4,79.7 79.4,55.3 81,55.3 "/>
<polygon class="st5" points="31.4,43.1 45.2,43.1 45.2,56.1 59.1,63.8 59.1,71.1 56.2,72.7 53.8,71.1 53.8,65.8 45.2,61 45.2,74.8 
	55.4,80.5 55.4,92.7 33,79.7 33,55.3 31.4,55.3 "/>
<polygon class="st5" points="33,39.8 45.2,39.8 55.4,33.7 55.4,35.3 45.2,41.4 33,41.4 "/>
<polygon class="st5" points="79.4,39.8 67.6,39.8 57,33.7 57,35.3 67.6,41.4 79.4,41.4 "/>
<polygon class="st5" points="79.4,36.2 67.6,36.2 57,30.5 57,32.1 67.2,37.8 79.4,37.8 "/>
<polygon class="st5" points="33,36.2 45.2,36.2 55.4,30.5 55.4,32.1 45.2,37.8 33,37.8 "/>
<polygon class="st6" points="35.1,27.6 45.2,27.6 53.8,22.7 53.8,28 45.2,32.9 35.1,32.9 "/>
<polygon class="st6" points="77.8,27.6 67.6,27.6 59.1,22.7 59.1,28 67.6,32.9 77.8,32.9 "/>
<polygon class="st6" points="79.4,44.7 69.2,44.7 69.2,57.7 57,50.8 57,45.9 56.2,45.1 55.4,45.9 55.4,51.6 69.2,59.3 69.2,75.6 
	59.1,81.3 59.1,89.8 77.8,79.2 77.8,53.2 79.4,53.2 "/>
<polygon class="st6" points="33,44.7 43.6,44.7 43.6,56.5 57,64.6 57,70.3 56.2,70.7 55.4,70.3 55.4,65.4 43.6,58.5 43.6,75.6 
	53.8,81.3 53.8,89.8 35.1,79.2 35.1,53.2 33,53.2 "/>
<path class="st4" d="M7.6,61.5H7.4l-0.1-1.2h0.2v0.4l4.3-0.3c0.2,0,0.4,0,0.6,0.1c0.2,0.1,0.3,0.2,0.4,0.4c0.1,0.2,0.2,0.3,0.2,0.5
	s0,0.4-0.1,0.6c0,0.2-0.1,0.4-0.2,0.5c-0.2,0.3-0.5,0.4-0.9,0.4L8,63.2c-0.3,0-0.4,0.2-0.3,0.5H7.6l-0.1-1.4h0.2v0.4l4.2-0.3
	c0.3,0,0.5-0.1,0.7-0.3s0.2-0.5,0.2-0.7s-0.1-0.5-0.3-0.6s-0.5-0.2-0.7-0.2L8,60.9c-0.2,0-0.3,0.1-0.4,0.3v0.1L7.6,61.5z"/>
<path class="st4" d="M12.5,56.8v-0.4l-4.3-0.1c-0.2,0-0.3,0-0.5,0c-0.2,0.1-0.2,0.2-0.3,0.5H7.3V56l4.6-1.9l0,0L8.1,54
	c-0.1,0-0.3,0-0.4,0.1s-0.2,0.2-0.2,0.4H7.4v-1.2h0.2v0.4l5.5,0.2V54l-4.6,2l0,0l3.4,0.1c0.2,0,0.4,0,0.5-0.2
	c0.1-0.1,0.1-0.3,0.1-0.4h0.2L12.5,56.8L12.5,56.8z"/>
<path class="st4" d="M13.1,50.4l0.1-0.5L8.6,49c-0.1,0-0.2,0-0.3,0.1s-0.1,0.2-0.1,0.4H8.1l0.3-1.4h0.1l-0.1,0.5l4.5,0.9
	c0.1,0,0.2,0,0.3,0s0.1,0,0.2-0.1c0.1-0.1,0.1-0.3,0.1-0.4h0.1l-0.3,1.4H13.1z"/>
<path class="st4" d="M14.1,43.7l-3.4-2.1c-0.1,0-0.2-0.1-0.2-0.1c-0.1-0.1-0.2,0-0.3,0c-0.1,0.1-0.2,0.2-0.2,0.3v0.1H9.9l0.5-1.3
	h0.1L10.3,41l4.8,3L15,44.1L10.1,44c-0.2,0-0.4,0-0.6,0c-0.1,0-0.2,0-0.3,0.1s-0.1,0.2-0.1,0.2L9,44.5H8.9L9.4,43h0.1l-0.2,0.5
	L14.1,43.7z"/>
<path class="st4" d="M17.6,37.3l-1.1,2.2l-0.1-0.1l0.2-0.4l-4.2-2.1c-0.1-0.1-0.2-0.1-0.3,0s-0.2,0.2-0.2,0.3l-0.1-0.1l1.2-2.3
	l-0.3-0.2l0.1-0.1l1.6,0.8l-0.1,0.1l-0.2-0.1c-0.4-0.2-0.7-0.2-0.9-0.1c-0.3,0.2-0.5,0.5-0.6,0.9l-0.1,0.2l1.2,0.6l0.3-0.6l-1-0.4
	l0.1-0.1l1.8,0.9l-0.1,0.1c-0.2-0.1-0.4-0.2-0.6-0.2c-0.1,0-0.3,0-0.4,0.1c-0.1,0.1-0.2,0.2-0.2,0.3l3.2,1.6
	c0.1-0.3,0.3-0.6,0.4-0.9c0-0.2,0-0.4-0.1-0.6c-0.1-0.2-0.3-0.3-0.5-0.4l-0.4-0.2l0.1-0.1l1.7,0.9l-0.1,0.1L17.6,37.3z"/>
<path class="st4" d="M18,28.1c0.1,0,0.2,0,0.3,0c0.4,0,0.8,0.1,1.1,0.4c0.3,0.2,0.6,0.6,0.7,0.9c0.2,0.4,0.2,0.8,0.2,1.2
	c-0.1,0.4-0.2,0.8-0.4,1.2l0,0c0.1-0.1,0.3-0.2,0.6-0.3c0.3-0.1,0.5-0.3,0.8-0.5c0.2-0.1,0.4-0.3,0.5-0.5c0.1-0.1,0.1-0.2,0.2-0.3h0
	c0,0.2-0.1,0.4-0.2,0.6s-0.3,0.3-0.4,0.5c-0.1,0.1-0.3,0.2-0.5,0.4c-0.1,0.1-0.4,0.2-0.7,0.4c-0.5,0.3-1.1,0.6-1.6,0.8l0.6,0.4
	c0.1,0.1,0.1,0.1,0.2,0.1s0.1,0,0.2,0c0.1-0.1,0.1-0.1,0.2-0.2c0-0.1,0.1-0.1,0.1-0.2l0.1,0.1l-0.9,1.3L19,34.2l0.3-0.4L18,32.9
	v-0.6l0.4,0.3l-0.1-0.1c0.7-0.2,1.1-0.5,1.4-0.9c0.2-0.3,0.3-0.6,0.3-0.9c0-0.7-0.3-1.3-0.8-1.7c-0.3-0.2-0.7-0.3-1-0.4
	c-0.1,0-0.1,0-0.2,0L18,28.1L18,28.1z M14.7,31.2l0.6-0.8l0.4,0.3c0-0.6,0.2-1.1,0.5-1.6c0.2-0.3,0.5-0.6,0.9-0.7
	c0.3-0.1,0.6-0.2,0.9-0.2v0.5c-0.3,0-0.6,0.1-0.9,0.2s-0.6,0.4-0.9,0.6c-0.3,0.4-0.4,1-0.3,1.5l2,1.4V33l-2.5-2
	c-0.2-0.1-0.4-0.1-0.6,0.1L14.7,31.2L14.7,31.2z"/>
<path class="st4" d="M22,21.8l1.5,1.5l-0.1,0.1L23.1,23c-0.2-0.2-0.4-0.4-0.7-0.5c-0.2-0.1-0.5,0-0.6,0.2c-0.1,0.1-0.2,0.2-0.2,0.3
	c0,0.1,0,0.3,0,0.4s0.1,0.2,0.2,0.3c0.1,0.1,0.3,0.2,0.5,0.2s0.4,0,0.5,0c0.2,0,0.4-0.1,0.7-0.2c0.3-0.1,0.6-0.2,0.8-0.2
	c0.2,0,0.5,0,0.7,0s0.5,0.2,0.7,0.3c0.2,0.2,0.3,0.4,0.4,0.6s0.1,0.5,0.1,0.7c0,0.3-0.1,0.5-0.2,0.8c-0.1,0.2-0.3,0.5-0.5,0.7
	c-0.2,0.3-0.5,0.4-0.9,0.6c-0.3,0.1-0.6,0.2-1,0.1c-0.3-0.1-0.6-0.2-0.9-0.5c-0.2-0.2-0.3-0.4-0.4-0.7c-0.1-0.3-0.1-0.5,0-0.8
	s0.2-0.5,0.4-0.7c0.1-0.1,0.3-0.2,0.4-0.3c0.2-0.1,0.3-0.1,0.5-0.1s0.3,0.1,0.4,0.2s0.2,0.3,0.2,0.4c0,0.2,0,0.3-0.2,0.4
	c0,0-0.1,0.1-0.2,0.1l-0.1-0.1c0.1-0.2,0.1-0.4-0.1-0.6c-0.1-0.1-0.2-0.1-0.3-0.2c-0.1,0-0.3,0-0.4,0s-0.2,0.1-0.3,0.2
	c-0.1,0.1-0.2,0.3-0.2,0.5s0,0.4,0.1,0.6s0.2,0.4,0.3,0.5c0.2,0.2,0.5,0.3,0.7,0.4c0.3,0.1,0.6,0.1,0.9,0s0.6-0.2,0.8-0.5
	c0.2-0.2,0.4-0.5,0.4-0.7c0.1-0.3,0.1-0.6,0-0.8c-0.1-0.3-0.2-0.5-0.4-0.7c-0.2-0.1-0.4-0.2-0.6-0.3c-0.2,0-0.4,0-0.6,0
	s-0.5,0.1-0.8,0.2c-0.2,0.1-0.5,0.1-0.7,0.2c-0.2,0-0.4,0-0.6,0s-0.4-0.2-0.5-0.3c-0.2-0.2-0.3-0.5-0.3-0.8s0.1-0.6,0.3-0.8
	c0.1-0.1,0.3-0.2,0.5-0.3l-0.2-0.2L22,21.8z"/>
<path class="st4" d="M29,23l0.4-0.3L26.5,19c-0.1-0.1-0.2-0.2-0.3-0.2c-0.1,0-0.3,0.1-0.4,0.2l-0.1-0.1l1.1-0.9l0.1,0.1l-0.4,0.3
	l2.8,3.6c0.1,0.1,0.1,0.1,0.2,0.2s0.1,0.1,0.2,0.1c0.1-0.1,0.2-0.1,0.3-0.2l0.1,0.1l-1.2,0.9L29,23z"/>
<path class="st4" d="M33.2,14.4c0.2,0,0.4,0,0.7,0.1c0.2,0.1,0.4,0.1,0.6,0.2c0.2,0.1,0.4,0.3,0.6,0.4c0.2,0.2,0.3,0.3,0.4,0.5
	c0.3,0.6,0.4,1.2,0.3,1.9c0,0.3-0.1,0.5-0.2,0.7c-0.1,0.3-0.3,0.5-0.5,0.7c-0.3,0.3-0.6,0.5-0.9,0.7l-1,0.5v-0.5v0.1
	c0.4-0.1,0.8-0.2,1.1-0.5c0.4-0.2,0.7-0.5,0.9-0.9s0.3-0.8,0.3-1.3c0-0.4-0.1-0.9-0.4-1.3c-0.2-0.4-0.5-0.7-0.9-0.9
	c-0.3-0.2-0.7-0.3-1-0.3L33.2,14.4L33.2,14.4z M32.6,20.4l0.4-0.2l-2.3-4.1c-0.1-0.2-0.3-0.3-0.5-0.2c0,0-0.1,0-0.1,0.1L30,16
	l-0.1-0.1l1.9-1.1c0.3-0.2,0.7-0.3,1.1-0.4c0.1,0,0.2,0,0.3,0v0.4c-0.1,0-0.1,0-0.2,0c-0.4,0-0.8,0.1-1.2,0.3
	c-0.3,0.2-0.6,0.4-0.9,0.7l2.3,4v0.5l-0.6,0.3V20.4z"/>
<path class="st4" d="M42.6,15.7l-2.1-2.8L40.1,13v-0.2l0.3-0.1l-0.3-0.5v-0.6l2.3,3c0.1,0.1,0.2,0.3,0.3,0.4
	c0.1,0.1,0.2,0.2,0.3,0.3s0.3,0.1,0.4,0v0.1L42.2,16v-0.1L42.6,15.7L42.6,15.7L42.6,15.7z M40.1,15.2v0.3c0,0.2,0.1,0.4,0.1,0.6
	c0,0.1,0.1,0.2,0.2,0.2c0.1,0,0.2,0,0.3,0s0.2-0.1,0.3-0.1v0.1l-1,0.3L40.1,15.2L40.1,15.2z M40.1,13l-0.2,0.1l0.2,2.2v1.4l-0.4,0.1
	v-0.1l0.3-0.1L39.5,11h0.1l0.5,0.7v0.6l-0.3-0.4l0,0l0.1,1.1L40.1,13L40.1,13L40.1,13z"/>
<path class="st4" d="M48.2,9c0.1,0,0.2,0,0.3,0c0.3,0.1,0.6,0.2,0.9,0.4c0.4,0.3,0.7,0.6,0.9,1c0.1,0.2,0.2,0.4,0.2,0.7
	c0.1,0.7,0,1.3-0.3,1.9c-0.1,0.2-0.3,0.4-0.5,0.6c-0.2,0.2-0.5,0.4-0.7,0.5c-0.3,0.1-0.5,0.2-0.8,0.3v-0.2h0.1
	c0.4-0.1,0.8-0.3,1.1-0.6s0.6-0.7,0.7-1.1c0.1-0.4,0.2-0.9,0.1-1.3c-0.1-0.4-0.3-0.8-0.6-1.1s-0.6-0.6-1-0.7c-0.1,0-0.2-0.1-0.3-0.1
	V9H48.2z M46.1,14.6l0.5-0.1l-0.8-4.6c0-0.2-0.2-0.4-0.4-0.3h-0.1h-0.1V9.5l2.2-0.4C47.7,9,47.9,9,48.2,9v0.3
	c-0.3-0.1-0.6-0.1-0.9,0c-0.4,0-0.8,0.2-1.1,0.4l0.8,4.6c0.4,0.1,0.8,0,1.2,0v0.2l-0.3,0.1l-1.8,0.3L46.1,14.6z"/>
<path class="st4" d="M61.6,8.5c0.4,0,0.7,0.1,1,0.3C63,9,63.2,9.2,63.4,9.4c0.1,0.2,0.3,0.4,0.4,0.6c0.1,0.2,0.2,0.5,0.2,0.7
	s0,0.5,0,0.7c-0.1,0.7-0.4,1.3-0.9,1.7c-0.2,0.2-0.4,0.3-0.6,0.5c-0.3,0.1-0.5,0.2-0.8,0.2l0,0v-0.2c0.2,0,0.3-0.1,0.5-0.2
	c0.4-0.2,0.7-0.5,1-0.8c0.3-0.4,0.4-0.8,0.5-1.2c0-0.4,0-0.9-0.2-1.2c-0.2-0.4-0.4-0.7-0.8-1c-0.3-0.2-0.6-0.4-0.9-0.4L61.6,8.5
	L61.6,8.5z M58.8,13.4l0.5,0.1l0.6-4.6c0-0.2-0.1-0.4-0.3-0.4h-0.1h-0.1V8.4l2.2,0.3h0.1v0.2c-0.1,0-0.2,0-0.2,0
	c-0.4-0.1-0.8-0.1-1.1,0l-0.6,4.7c0.4,0.2,0.8,0.3,1.2,0.3c0.2,0,0.5,0,0.7,0v0.2c-0.4,0.1-0.8,0.1-1.1,0l-1.8-0.2L58.8,13.4z"/>
<path class="st4" d="M69.2,15.5l-2.4-0.6v-0.1l0.5,0.1l1.2-4.5c0-0.1,0-0.2,0-0.3c-0.1-0.1-0.2-0.2-0.4-0.2V9.8l2.5,0.7l0.1-0.5h0.1
	l-0.5,1.7h-0.1l0.1-0.3c0.1-0.4,0.1-0.7-0.1-0.9c-0.3-0.2-0.6-0.4-1-0.4H69l-0.3,1.3l0.7,0.2l0.2-0.8h0.1l-0.5,1.9h-0.1
	c0.1-0.2,0.1-0.4,0.1-0.6c0-0.2-0.1-0.3-0.2-0.4c-0.1-0.1-0.2-0.1-0.3-0.1l-1,3.4c0.3,0.1,0.6,0.1,0.9,0.2c0.2,0,0.4-0.1,0.5-0.2
	c0.1-0.2,0.2-0.4,0.3-0.6l0.1-0.4h0.1l-0.5,1.9H69L69.2,15.5z"/>
<path class="st4" d="M80.4,14.6l-0.1,0.1l-0.4-0.2l-2.5,4.4c0.2,0.1,0.4,0.2,0.6,0.3c0.2,0.1,0.4,0.1,0.6,0.1s0.4-0.2,0.5-0.4
	l0.7-1.1l0.1,0.1l-1.3,2.3L78.4,20l0.2-0.3l-2.1-1.2l0.1-0.1l0.4,0.2l2.4-4.1c0.1-0.1,0.1-0.2,0-0.3S79.2,14,79.1,14l0.1-0.1
	L80.4,14.6z"/>
<path class="st4" d="M85,18.8l1-0.8l0.1,0.1L85,21v-1.2l0,0l0.4-1l0,0L85,19.1V18.8L85,18.8z M83.7,23.3L85,20l-0.5-0.4l-1.9,1.5
	c-0.2,0.1-0.3,0.3-0.4,0.4C82,21.6,82,21.7,82,21.7c0,0.1,0.1,0.2,0.2,0.2c0.1,0.1,0.2,0.2,0.3,0.2l-0.1,0.1l-1.1-0.9l0.1-0.1
	l0.3,0.2l3.5-2.8v0.3l-0.4,0.3l0.4,0.3V21l-0.6,1.5c-0.1,0.1-0.1,0.3-0.2,0.5c-0.1,0.1-0.1,0.3-0.1,0.5c0,0.1,0.1,0.3,0.2,0.4
	L84.4,24l-1.2-1l0.1-0.1L83.7,23.3z"/>
<path class="st4" d="M95.9,28l-1.7,1.3l-0.1-0.1l0.4-0.3c0.2-0.2,0.4-0.4,0.6-0.6c0.1-0.2,0.1-0.5-0.1-0.7c-0.1-0.1-0.2-0.2-0.3-0.2
	c-0.2-0.1-0.5-0.1-0.7,0.1c-0.1,0.1-0.3,0.3-0.3,0.4c0,0.2-0.1,0.4,0,0.5c0,0.2,0.1,0.4,0.1,0.7c0.1,0.3,0.1,0.6,0.1,0.9
	c0,0.2,0,0.5-0.1,0.7s-0.2,0.4-0.4,0.6c-0.2,0.2-0.4,0.3-0.7,0.3c-0.2,0-0.5,0-0.7,0c-0.3-0.1-0.5-0.2-0.7-0.3
	c-0.2-0.2-0.4-0.3-0.6-0.6c-0.2-0.3-0.4-0.6-0.5-0.9s-0.1-0.6,0-1c0.1-0.3,0.3-0.6,0.6-0.8c0.2-0.2,0.5-0.3,0.7-0.3
	c0.3,0,0.5,0,0.8,0.1c0.2,0.1,0.5,0.2,0.6,0.5c0.1,0.1,0.2,0.3,0.2,0.5s0,0.3,0,0.5s-0.1,0.3-0.3,0.4c-0.1,0.1-0.3,0.2-0.5,0.1
	c-0.2,0-0.3-0.1-0.4-0.2c0-0.1-0.1-0.1-0.1-0.2l0.2-0.1c0.2,0.2,0.4,0.2,0.6,0c0.1-0.1,0.2-0.2,0.2-0.3c0-0.1,0.1-0.2,0-0.4
	c0-0.1-0.1-0.3-0.1-0.4c-0.1-0.2-0.3-0.3-0.5-0.3s-0.4,0-0.6,0s-0.4,0.1-0.5,0.2c-0.2,0.2-0.4,0.4-0.5,0.7c-0.3,0.6-0.2,1.2,0.2,1.7
	c0.2,0.2,0.4,0.4,0.7,0.5c0.3,0.1,0.5,0.2,0.8,0.2s0.5-0.1,0.7-0.3c0.2-0.1,0.3-0.3,0.4-0.5s0.1-0.4,0.1-0.6c0-0.3-0.1-0.5-0.1-0.8
	c0-0.2-0.1-0.5-0.1-0.7s0-0.4,0.1-0.6s0.2-0.4,0.4-0.5c0.2-0.2,0.5-0.3,0.8-0.2c0.3,0.1,0.6,0.2,0.8,0.4c0.1,0.2,0.2,0.3,0.2,0.5
	l0.2-0.2L95.9,28z"/>
<path class="st4" d="M94.8,36.9l-1.3-2.2l0.1-0.1l0.2,0.4l4.1-2.3c0.1,0,0.2-0.1,0.2-0.3c0-0.1-0.1-0.3-0.1-0.4l0.1-0.1l1.3,2.2
	l0.3-0.2l0.1,0.1l-1.6,0.9V35l0.2-0.1c0.4-0.2,0.6-0.5,0.6-0.7c0-0.4-0.2-0.7-0.4-1l0-0.2l-1.1,0.7l0.4,0.6l0.7-0.4l0.1,0.1L97,35
	l-0.1-0.1c0.2-0.1,0.3-0.2,0.5-0.4c0.1-0.1,0.2-0.3,0.1-0.4c0-0.1-0.1-0.2-0.1-0.3l-3.1,1.8c0.2,0.3,0.3,0.5,0.5,0.8
	c0.1,0.1,0.3,0.2,0.6,0.2c0.2,0,0.4-0.1,0.6-0.2l0.4-0.2l0.1,0.1l-1.7,1l-0.1-0.1L94.8,36.9z"/>
<path class="st4" d="M101.2,37.9l0.4,0.9l-0.5,0.2c0.5,0.3,0.9,0.7,1.1,1.2c0.1,0.4,0.2,0.8,0.2,1.2s-0.2,0.8-0.4,1.1
	c-0.2,0.3-0.5,0.6-0.9,0.7c-0.3,0.1-0.7,0.2-1,0.2V43c0.2,0,0.5-0.1,0.7-0.1c0.3-0.1,0.6-0.4,0.9-0.7c0.2-0.3,0.4-0.6,0.4-1
	c0.1-0.4,0-0.7-0.1-1.1c-0.2-0.5-0.6-0.9-1.1-1l-0.7,0.3v-0.5l0.9-0.4C101.3,38.4,101.4,38.2,101.2,37.9L101.2,37.9L101.2,37.9z
	 M100.1,43.4c-0.1,0-0.1,0-0.2,0c-0.4-0.1-0.8-0.2-1.1-0.5c-0.3-0.3-0.6-0.6-0.7-1l0,0c0,0.1,0,0.4-0.1,0.7c0,0.3,0,0.6,0,0.9
	c0,0.2,0.1,0.5,0.1,0.7c0,0.1,0.1,0.2,0.2,0.3v0.1c-0.2-0.1-0.3-0.3-0.4-0.5s-0.1-0.4-0.2-0.6c0-0.2-0.1-0.4-0.1-0.6
	c0-0.2,0-0.4,0-0.8c0-0.6,0.1-1.2,0.2-1.8l-0.7,0.3c-0.1,0-0.2,0.1-0.2,0.1s-0.1,0.1,0,0.2c0,0.1,0,0.2,0.1,0.3
	c0,0.1,0.1,0.1,0.1,0.2L97,41.5L96.2,40l0.1-0.1l0.2,0.4l3.5-1.4v0.5l-2,0.8h0.2c-0.2,0.7-0.2,1.2,0,1.6c0.1,0.3,0.3,0.6,0.6,0.8
	c0.3,0.2,0.6,0.3,0.9,0.4c0.1,0,0.2,0,0.3,0L100.1,43.4L100.1,43.4z"/>
<path class="st4" d="M99.2,50l-0.5-2.5h0.1L99,48l4.6-0.9c0.1,0,0.2-0.1,0.3-0.2c0-0.1,0-0.3,0-0.4h0.1l0.5,2.5l0.3-0.1V49l-1.8,0.3
	v-0.1l0.3-0.1c0.4-0.1,0.7-0.2,0.8-0.5c0.1-0.3,0.1-0.7,0-1.1v-0.2l-1.3,0.2l0.1,0.7l0.8-0.2v0.1l-1.9,0.4v-0.1
	c0.2,0,0.4-0.1,0.6-0.2c0.1-0.1,0.2-0.2,0.3-0.3c0-0.1,0-0.2,0-0.4l-3.5,0.7c0.1,0.3,0.1,0.6,0.2,0.9c0.1,0.2,0.3,0.3,0.4,0.4
	c0.2,0.1,0.4,0.1,0.7,0l0.4-0.1v0.1L99,49.9v-0.1L99.2,50z"/>
<path class="st4" d="M99.8,53.4v0.4l4.3-0.4c0.2,0,0.3,0,0.5-0.1s0.2-0.3,0.2-0.6h0.2l0.1,0.8l-4.3,2.5l0,0l3.8-0.3
	c0.1,0,0.3-0.1,0.4-0.2c0.1-0.1,0.1-0.3,0.1-0.4h0.2l0.1,1.2h-0.2v-0.4l-5.5,0.5v-0.1l4.3-2.5l0,0l-3.4,0.3c-0.2,0-0.4,0.1-0.5,0.2
	c-0.1,0.1-0.1,0.3-0.1,0.4h-0.2V53.4L99.8,53.4z"/>
<path class="st4" d="M103.9,61.2l1.5,0.5v0.1l-1.4,0.3v-0.4l0.5-0.1l0,0l-0.5-0.2L103.9,61.2L103.9,61.2z M99.7,62.7l3.4-0.8v-0.7
	l-2.3-0.7c-0.2-0.1-0.4-0.1-0.6-0.1c-0.1,0-0.2,0-0.3,0.1c-0.1,0.1-0.1,0.2-0.1,0.3s0,0.2,0,0.4h-0.2l0.1-1.4h0.2v0.3l4,1.2v0.2
	l-0.5-0.2v0.6l0.5-0.1v0.4l-3.1,0.7l-0.5,0.1c-0.2,0-0.3,0.1-0.4,0.2c-0.1,0.1-0.2,0.2-0.2,0.4h-0.2l0.1-1.3h0.2L99.7,62.7z"/>
<path class="st7" d="M7.6,61.5H7.4l-0.1-1.2h0.2v0.4l4.3-0.3c0.2,0,0.4,0,0.6,0.1c0.2,0.1,0.3,0.2,0.4,0.4c0.1,0.2,0.2,0.3,0.2,0.5
	s0,0.4-0.1,0.6c0,0.2-0.1,0.4-0.2,0.5c-0.2,0.3-0.5,0.4-0.9,0.4L8,63.2c-0.3,0-0.4,0.2-0.3,0.5H7.6l-0.1-1.4h0.2v0.4l4.2-0.3
	c0.3,0,0.5-0.1,0.7-0.3s0.2-0.5,0.2-0.7s-0.1-0.5-0.3-0.6s-0.5-0.2-0.7-0.2L8,60.9c-0.2,0-0.3,0.1-0.4,0.3v0.1L7.6,61.5z"/>
<path class="st7" d="M12.5,56.8v-0.4l-4.3-0.1c-0.2,0-0.3,0-0.5,0c-0.2,0.1-0.2,0.2-0.3,0.5H7.3V56l4.6-1.9l0,0L8.1,54
	c-0.1,0-0.3,0-0.4,0.1s-0.2,0.2-0.2,0.4H7.4v-1.2h0.2v0.4l5.5,0.2V54l-4.6,2l0,0l3.4,0.1c0.2,0,0.4,0,0.5-0.2
	c0.1-0.1,0.1-0.3,0.1-0.4h0.2L12.5,56.8L12.5,56.8z"/>
<path class="st7" d="M13.1,50.4l0.1-0.5L8.6,49c-0.1,0-0.2,0-0.3,0.1s-0.1,0.2-0.1,0.4H8.1l0.3-1.4h0.1l-0.1,0.5l4.5,0.9
	c0.1,0,0.2,0,0.3,0s0.1,0,0.2-0.1c0.1-0.1,0.1-0.3,0.1-0.4h0.1l-0.3,1.4H13.1z"/>
<path class="st7" d="M14.1,43.7l-3.4-2.1c-0.1,0-0.2-0.1-0.2-0.1c-0.1-0.1-0.2,0-0.3,0c-0.1,0.1-0.2,0.2-0.2,0.3v0.1H9.9l0.5-1.3
	h0.1L10.3,41l4.8,3L15,44.1L10.1,44c-0.2,0-0.4,0-0.6,0c-0.1,0-0.2,0-0.3,0.1s-0.1,0.2-0.1,0.2L9,44.5H8.9L9.4,43h0.1l-0.2,0.5
	L14.1,43.7z"/>
<path class="st7" d="M17.6,37.3l-1.1,2.2l-0.1-0.1l0.2-0.4l-4.2-2.1c-0.1-0.1-0.2-0.1-0.3,0s-0.2,0.2-0.2,0.3l-0.1-0.1l1.2-2.3
	l-0.3-0.2l0.1-0.1l1.6,0.8l-0.1,0.1l-0.2-0.1c-0.4-0.2-0.7-0.2-0.9-0.1c-0.3,0.2-0.5,0.5-0.6,0.9l-0.1,0.2l1.2,0.6l0.3-0.6l-1-0.4
	l0.1-0.1l1.8,0.9l-0.1,0.1c-0.2-0.1-0.4-0.2-0.6-0.2c-0.1,0-0.3,0-0.4,0.1c-0.1,0.1-0.2,0.2-0.2,0.3l3.2,1.6
	c0.1-0.3,0.3-0.6,0.4-0.9c0-0.2,0-0.4-0.1-0.6c-0.1-0.2-0.3-0.3-0.5-0.4l-0.4-0.2l0.1-0.1l1.7,0.9l-0.1,0.1L17.6,37.3z"/>
<path class="st7" d="M14.7,31.2l0.6-0.8l0.4,0.3c0-0.6,0.2-1.1,0.5-1.6c0.2-0.3,0.5-0.6,0.9-0.7c0.4-0.2,0.8-0.3,1.2-0.2
	c0.4,0,0.8,0.1,1.1,0.4c0.3,0.2,0.6,0.6,0.7,0.9c0.2,0.4,0.2,0.8,0.2,1.2c-0.1,0.4-0.2,0.8-0.4,1.2l0,0c0.1-0.1,0.3-0.2,0.6-0.3
	c0.3-0.1,0.5-0.3,0.8-0.5c0.2-0.1,0.4-0.3,0.5-0.5c0.1-0.1,0.1-0.2,0.2-0.3h0c0,0.2-0.1,0.4-0.2,0.6s-0.3,0.4-0.4,0.5
	s-0.3,0.2-0.5,0.4c-0.1,0.1-0.4,0.2-0.7,0.4c-0.5,0.3-1.1,0.6-1.6,0.8l0.6,0.4c0.1,0.1,0.1,0.1,0.2,0.1s0.1,0,0.2,0
	c0.1-0.1,0.1-0.1,0.2-0.2c0-0.1,0.1-0.1,0.1-0.2l0.1,0.1l-0.9,1.3L19,34.2l0.3-0.4L15.4,31c-0.2-0.1-0.4-0.1-0.6,0.1L14.7,31.2
	L14.7,31.2L14.7,31.2L14.7,31.2z M16,30.9l2.4,1.7l-0.1-0.1c0.7-0.2,1.1-0.5,1.4-0.9c0.2-0.3,0.3-0.6,0.3-0.9c0-0.7-0.3-1.3-0.8-1.7
	c-0.3-0.2-0.7-0.3-1-0.4c-0.4,0-0.7,0-1.1,0.2c-0.3,0.1-0.6,0.4-0.9,0.6C15.9,29.8,15.8,30.3,16,30.9L16,30.9z"/>
<path class="st7" d="M22,21.8l1.5,1.5l-0.1,0.1L23.1,23c-0.2-0.2-0.4-0.4-0.7-0.5c-0.2-0.1-0.5,0-0.6,0.2c-0.1,0.1-0.2,0.2-0.2,0.3
	c0,0.1,0,0.3,0,0.4s0.1,0.2,0.2,0.3c0.1,0.1,0.3,0.2,0.5,0.2s0.4,0,0.5,0c0.2,0,0.4-0.1,0.7-0.2c0.3-0.1,0.6-0.2,0.8-0.2
	c0.2,0,0.5,0,0.7,0s0.5,0.2,0.7,0.3c0.2,0.2,0.3,0.4,0.4,0.6s0.1,0.5,0.1,0.7c0,0.3-0.1,0.5-0.2,0.8c-0.1,0.2-0.3,0.5-0.5,0.7
	c-0.2,0.3-0.5,0.4-0.9,0.6c-0.3,0.1-0.6,0.2-1,0.1c-0.3-0.1-0.6-0.2-0.9-0.5c-0.2-0.2-0.3-0.4-0.4-0.7c-0.1-0.3-0.1-0.5,0-0.8
	s0.2-0.5,0.4-0.7c0.1-0.1,0.3-0.2,0.4-0.3c0.2-0.1,0.3-0.1,0.5-0.1s0.3,0.1,0.4,0.2s0.2,0.3,0.2,0.4c0,0.2,0,0.3-0.2,0.4
	c0,0-0.1,0.1-0.2,0.1l-0.1-0.1c0.1-0.2,0.1-0.4-0.1-0.6c-0.1-0.1-0.2-0.1-0.3-0.2c-0.1,0-0.3,0-0.4,0s-0.2,0.1-0.3,0.2
	c-0.1,0.1-0.2,0.3-0.2,0.5s0,0.4,0.1,0.6s0.2,0.4,0.3,0.5c0.2,0.2,0.5,0.3,0.7,0.4c0.3,0.1,0.6,0.1,0.9,0s0.6-0.2,0.8-0.5
	c0.2-0.2,0.4-0.5,0.4-0.7c0.1-0.3,0.1-0.6,0-0.8c-0.1-0.3-0.2-0.5-0.4-0.7c-0.2-0.1-0.4-0.2-0.6-0.3c-0.2,0-0.4,0-0.6,0
	s-0.5,0.1-0.8,0.2c-0.2,0.1-0.5,0.1-0.7,0.2c-0.2,0-0.4,0-0.6,0s-0.4-0.2-0.5-0.3c-0.2-0.2-0.3-0.5-0.3-0.8s0.1-0.6,0.3-0.8
	c0.1-0.1,0.3-0.2,0.5-0.3l-0.2-0.2L22,21.8z"/>
<path class="st7" d="M29,23l0.4-0.3L26.5,19c-0.1-0.1-0.2-0.2-0.3-0.2c-0.1,0-0.3,0.1-0.4,0.2l-0.1-0.1l1.1-0.9l0.1,0.1l-0.4,0.3
	l2.8,3.6c0.1,0.1,0.1,0.1,0.2,0.2s0.1,0.1,0.2,0.1c0.1-0.1,0.2-0.1,0.3-0.2l0.1,0.1l-1.2,0.9L29,23z"/>
<path class="st7" d="M32.6,20.4l0.4-0.2l-2.3-4.1c-0.1-0.2-0.3-0.3-0.5-0.2c0,0-0.1,0-0.1,0.1L30,16l-0.1-0.1l1.9-1.1
	c0.3-0.2,0.7-0.3,1.1-0.4c0.3-0.1,0.7-0.1,1,0c0.2,0.1,0.4,0.1,0.6,0.2c0.2,0.1,0.4,0.3,0.6,0.4c0.2,0.2,0.3,0.3,0.4,0.5
	c0.3,0.6,0.4,1.2,0.3,1.9c0,0.3-0.1,0.5-0.2,0.7c-0.1,0.3-0.3,0.5-0.5,0.7c-0.3,0.3-0.6,0.5-0.9,0.7L32.6,20.4L32.6,20.4L32.6,20.4
	L32.6,20.4z M35.2,15.9c-0.2-0.4-0.5-0.7-0.9-0.9s-0.8-0.3-1.2-0.3s-0.8,0.1-1.2,0.3c-0.3,0.2-0.6,0.4-0.9,0.7l2.4,4.1
	c0.4-0.1,0.8-0.2,1.1-0.5c0.4-0.2,0.7-0.5,0.9-0.9s0.3-0.8,0.3-1.3C35.5,16.7,35.4,16.3,35.2,15.9z"/>
<path class="st7" d="M42.6,15.7l-2.1-2.8l-0.6,0.2l0.2,2.4c0,0.2,0.1,0.4,0.1,0.6c0,0.1,0.1,0.2,0.2,0.2c0.1,0,0.2,0,0.3,0
	s0.2-0.1,0.3-0.1v0.1l-1.4,0.5v-0.1l0.3-0.1L39.3,11h0.1l2.8,3.7c0.1,0.1,0.2,0.3,0.3,0.4c0.1,0.1,0.2,0.2,0.3,0.3s0.3,0.1,0.4,0
	v0.1l-1,0.5v-0.1L42.6,15.7L42.6,15.7L42.6,15.7z M40.4,12.7l-0.6-0.9l0,0l0.1,1.1L40.4,12.7z"/>
<path class="st7" d="M46.1,14.6l0.5-0.1l-0.8-4.6c0-0.2-0.2-0.4-0.4-0.3h-0.1h-0.1V9.5l2.2-0.4C47.8,9,48.2,9,48.5,9
	c0.3,0.1,0.6,0.2,0.9,0.4c0.4,0.3,0.7,0.6,0.9,1c0.1,0.2,0.2,0.4,0.2,0.7c0.1,0.7,0,1.3-0.3,1.9c-0.1,0.2-0.3,0.4-0.5,0.6
	c-0.2,0.2-0.5,0.4-0.7,0.5c-0.4,0.2-0.7,0.3-1.1,0.3L46.1,14.6L46.1,14.6L46.1,14.6L46.1,14.6z M50.2,11.2c-0.1-0.4-0.3-0.8-0.6-1.1
	s-0.6-0.6-1-0.7c-0.4-0.1-0.8-0.2-1.2-0.1c-0.4,0-0.8,0.2-1.1,0.4l0.8,4.6c0.4,0.1,0.8,0,1.2,0c0.4-0.1,0.8-0.3,1.1-0.6
	s0.6-0.7,0.7-1.1C50.2,12.1,50.2,11.6,50.2,11.2z"/>
<path class="st7" d="M58.8,13.4l0.5,0.1l0.6-4.6c0-0.2-0.1-0.4-0.3-0.4h-0.1h-0.1V8.4l2.2,0.3c0.4,0,0.8,0.1,1.1,0.3
	c0.3,0,0.5,0.2,0.7,0.5c0.1,0.2,0.3,0.4,0.4,0.6c0.1,0.1,0.2,0.4,0.2,0.6s0,0.5,0,0.7c-0.1,0.7-0.4,1.3-0.9,1.7
	c-0.2,0.2-0.4,0.3-0.6,0.5c-0.3,0.1-0.5,0.2-0.8,0.2c-0.4,0.1-0.8,0.1-1.1,0l-1.8-0.2L58.8,13.4L58.8,13.4L58.8,13.4z M63.6,11.4
	c0-0.4,0-0.9-0.2-1.2c-0.2-0.4-0.4-0.7-0.8-1c-0.3-0.3-0.7-0.4-1.2-0.5c-0.4-0.1-0.8-0.1-1.1,0l-0.6,4.7c0.4,0.2,0.8,0.3,1.2,0.3
	c0.4,0.1,0.9,0,1.2-0.2c0.4-0.2,0.7-0.5,1-0.8C63.4,12.3,63.5,11.8,63.6,11.4L63.6,11.4z"/>
<path class="st7" d="M69.2,15.5l-2.4-0.6v-0.1l0.5,0.1l1.2-4.5c0-0.1,0-0.2,0-0.3c-0.1-0.1-0.2-0.2-0.4-0.2V9.8l2.5,0.7l0.1-0.5h0.1
	l-0.5,1.7h-0.1l0.1-0.3c0.1-0.4,0.1-0.7-0.1-0.9c-0.3-0.2-0.6-0.4-1-0.4H69l-0.3,1.3l0.7,0.2l0.2-0.8h0.1l-0.5,1.9h-0.1
	c0.1-0.2,0.1-0.4,0.1-0.6c0-0.2-0.1-0.3-0.2-0.4c-0.1-0.1-0.2-0.1-0.3-0.1l-1,3.4c0.3,0.1,0.6,0.1,0.9,0.2c0.2,0,0.4-0.1,0.5-0.2
	c0.1-0.2,0.2-0.4,0.3-0.6l0.1-0.4h0.1l-0.5,1.9H69L69.2,15.5z"/>
<path class="st7" d="M80.4,14.6l-0.1,0.1l-0.4-0.2l-2.5,4.4c0.2,0.1,0.4,0.2,0.6,0.3c0.2,0.1,0.4,0.1,0.6,0.1s0.4-0.2,0.5-0.4
	l0.7-1.1l0.1,0.1l-1.3,2.3L78.4,20l0.2-0.3l-2.1-1.2l0.1-0.1l0.4,0.2l2.4-4.1c0.1-0.1,0.1-0.2,0-0.3S79.2,14,79.1,14l0.1-0.1
	L80.4,14.6z"/>
<path class="st7" d="M83.7,23.3L85,20l-0.5-0.4l-1.9,1.5c-0.2,0.1-0.3,0.3-0.4,0.4C82,21.6,82,21.7,82,21.7c0,0.1,0.1,0.2,0.2,0.2
	c0.1,0.1,0.2,0.2,0.3,0.2l-0.1,0.1l-1.1-0.9l0.1-0.1l0.3,0.2L86,18l0.1,0.1l-1.6,4.3c-0.1,0.1-0.1,0.3-0.2,0.5
	c-0.1,0.1-0.1,0.3-0.1,0.5c0,0.1,0.1,0.3,0.2,0.4l-0.1,0.1L83.2,23l0.1-0.1L83.7,23.3L83.7,23.3L83.7,23.3z M85.1,19.8l0.4-1l0,0
	l-0.8,0.7L85.1,19.8z"/>
<path class="st7" d="M95.9,28l-1.7,1.3l-0.1-0.1l0.4-0.3c0.2-0.2,0.4-0.4,0.6-0.6c0.1-0.2,0.1-0.5-0.1-0.7c-0.1-0.1-0.2-0.2-0.3-0.2
	c-0.2-0.1-0.5-0.1-0.7,0.1c-0.1,0.1-0.3,0.3-0.3,0.4c0,0.2-0.1,0.4,0,0.5c0,0.2,0.1,0.4,0.1,0.7c0.1,0.3,0.1,0.6,0.1,0.9
	c0,0.2,0,0.5-0.1,0.7s-0.2,0.4-0.4,0.6c-0.2,0.2-0.4,0.3-0.7,0.3c-0.2,0-0.5,0-0.7,0c-0.3-0.1-0.5-0.2-0.7-0.3
	c-0.2-0.2-0.4-0.3-0.6-0.6c-0.2-0.3-0.4-0.6-0.5-0.9s-0.1-0.6,0-1c0.1-0.3,0.3-0.6,0.6-0.8c0.2-0.2,0.5-0.3,0.7-0.3
	c0.3,0,0.5,0,0.8,0.1c0.2,0.1,0.5,0.2,0.6,0.5c0.1,0.1,0.2,0.3,0.2,0.5s0,0.3,0,0.5s-0.1,0.3-0.3,0.4c-0.1,0.1-0.3,0.2-0.5,0.1
	c-0.2,0-0.3-0.1-0.4-0.2c0-0.1-0.1-0.1-0.1-0.2l0.2-0.1c0.2,0.2,0.4,0.2,0.6,0c0.1-0.1,0.2-0.2,0.2-0.3c0-0.1,0.1-0.2,0-0.4
	c0-0.1-0.1-0.3-0.1-0.4c-0.1-0.2-0.3-0.3-0.5-0.3s-0.4,0-0.6,0s-0.4,0.1-0.5,0.2c-0.2,0.2-0.4,0.4-0.5,0.7c-0.3,0.6-0.2,1.2,0.2,1.7
	c0.2,0.2,0.4,0.4,0.7,0.5c0.3,0.1,0.5,0.2,0.8,0.2s0.5-0.1,0.7-0.3c0.2-0.1,0.3-0.3,0.4-0.5s0.1-0.4,0.1-0.6c0-0.3-0.1-0.5-0.1-0.8
	c0-0.2-0.1-0.5-0.1-0.7s0-0.4,0.1-0.6s0.2-0.4,0.4-0.5c0.2-0.2,0.5-0.3,0.8-0.2c0.3,0.1,0.6,0.2,0.8,0.4c0.1,0.2,0.2,0.3,0.2,0.5
	l0.2-0.2L95.9,28z"/>
<path class="st7" d="M94.8,36.9l-1.3-2.2l0.1-0.1l0.2,0.4l4.1-2.3c0.1,0,0.2-0.1,0.2-0.3c0-0.1-0.1-0.3-0.1-0.4l0.1-0.1l1.3,2.2
	l0.3-0.2l0.1,0.1l-1.6,0.9V35l0.2-0.1c0.4-0.2,0.6-0.5,0.6-0.7c0-0.4-0.2-0.7-0.4-1l0-0.2l-1.1,0.7l0.4,0.6l0.7-0.4l0.1,0.1L97,35
	l-0.1-0.1c0.2-0.1,0.3-0.2,0.5-0.4c0.1-0.1,0.2-0.3,0.1-0.4c0-0.1-0.1-0.2-0.1-0.3l-3.1,1.8c0.2,0.3,0.3,0.5,0.5,0.8
	c0.1,0.1,0.3,0.2,0.6,0.2c0.2,0,0.4-0.1,0.6-0.2l0.4-0.2l0.1,0.1l-1.7,1l-0.1-0.1L94.8,36.9z"/>
<path class="st7" d="M101.2,37.9l0.4,0.9l-0.5,0.2c0.5,0.3,0.9,0.7,1.1,1.2c0.1,0.4,0.2,0.8,0.2,1.2s-0.2,0.8-0.4,1.1
	c-0.2,0.3-0.5,0.6-0.9,0.7c-0.4,0.2-0.8,0.2-1.2,0.1c-0.4-0.1-0.8-0.2-1.1-0.5c-0.3-0.3-0.6-0.6-0.7-1l0,0c0,0.1,0,0.4-0.1,0.7
	c0,0.3,0,0.6,0,0.9c0,0.2,0.1,0.5,0.1,0.7c0,0.1,0.1,0.2,0.2,0.3v0.1c-0.2-0.1-0.3-0.3-0.4-0.5s-0.1-0.4-0.2-0.6
	c0-0.2-0.1-0.4-0.1-0.6c0-0.2,0-0.4,0-0.8c0-0.6,0.1-1.2,0.2-1.8l-0.7,0.3c-0.1,0-0.2,0.1-0.2,0.1s-0.1,0.1,0,0.2
	c0,0.1,0,0.2,0.1,0.3c0,0.1,0.1,0.1,0.1,0.2L97,41.4L96.2,40l0.1-0.1l0.2,0.4l4.4-1.8c0.2-0.1,0.3-0.3,0.2-0.5v-0.1L101.2,37.9
	L101.2,37.9L101.2,37.9z M100.8,39.1l-2.7,1.1h0.2c-0.2,0.7-0.2,1.2,0,1.6c0.1,0.3,0.3,0.6,0.6,0.8c0.6,0.4,1.3,0.5,1.9,0.2
	c0.3-0.1,0.6-0.4,0.9-0.7c0.2-0.3,0.4-0.6,0.4-1c0.1-0.4,0-0.7-0.1-1.1C101.7,39.7,101.3,39.3,100.8,39.1L100.8,39.1z"/>
<path class="st7" d="M99.2,50l-0.5-2.5h0.1L99,48l4.6-0.9c0.1,0,0.2-0.1,0.3-0.2c0-0.1,0-0.3,0-0.4h0.1l0.5,2.5l0.3-0.1V49l-1.8,0.3
	v-0.1l0.3-0.1c0.4-0.1,0.7-0.2,0.8-0.5c0.1-0.3,0.1-0.7,0-1.1v-0.2l-1.3,0.2l0.1,0.7l0.8-0.2v0.1l-1.9,0.4v-0.1
	c0.2,0,0.4-0.1,0.6-0.2c0.1-0.1,0.2-0.2,0.3-0.3c0-0.1,0-0.2,0-0.4l-3.5,0.7c0.1,0.3,0.1,0.6,0.2,0.9c0.1,0.2,0.3,0.3,0.4,0.4
	c0.2,0.1,0.4,0.1,0.7,0l0.4-0.1v0.1L99,49.9v-0.1L99.2,50z"/>
<path class="st7" d="M99.8,53.4v0.4l4.3-0.4c0.2,0,0.3,0,0.5-0.1s0.2-0.3,0.2-0.6h0.2l0.1,0.8l-4.3,2.5l0,0l3.8-0.3
	c0.1,0,0.3-0.1,0.4-0.2c0.1-0.1,0.1-0.3,0.1-0.4h0.2l0.1,1.2h-0.2v-0.4l-5.5,0.5v-0.1l4.3-2.5l0,0l-3.4,0.3c-0.2,0-0.4,0.1-0.5,0.2
	c-0.1,0.1-0.1,0.3-0.1,0.4h-0.2V53.4L99.8,53.4z"/>
<path class="st7" d="M99.7,62.7l3.4-0.8v-0.7l-2.3-0.7c-0.2-0.1-0.4-0.1-0.6-0.1c-0.1,0-0.2,0-0.3,0.1c-0.1,0.1-0.1,0.2-0.1,0.3
	s0,0.2,0,0.4h-0.2l0.1-1.4h0.2v0.3l5.4,1.7v0.1l-4.5,1.1l-0.5,0.1c-0.2,0-0.3,0.1-0.4,0.2c-0.1,0.1-0.2,0.2-0.2,0.4h-0.2l0.1-1.3
	h0.2L99.7,62.7L99.7,62.7L99.7,62.7z M103.4,61.9l1.1-0.2l0,0l-1-0.3L103.4,61.9z"/>
<line class="st7" x1="22.8" y1="81.4" x2="14.9" y2="89.3"/>
<path class="st4" d="M45.4,101.2l0.2-0.5h0.1l-0.7,2h-0.1c0.1-0.3,0.2-0.6,0.2-0.9c0-0.2,0-0.4-0.1-0.6s-0.3-0.4-0.4-0.5
	c-0.2-0.2-0.4-0.3-0.7-0.4c-0.4-0.2-0.9-0.2-1.4-0.1c-0.4,0.1-0.8,0.3-1.1,0.6c-0.3,0.3-0.5,0.7-0.7,1.1c-0.1,0.3-0.2,0.7-0.2,1
	c0,0.4,0.1,0.7,0.2,1c0.1,0.3,0.3,0.6,0.6,0.9c0.3,0.2,0.6,0.4,0.9,0.6c0.3,0.1,0.7,0.2,1,0.1c0.3,0,0.6-0.1,0.9-0.3l0.1,0.2
	c-0.3,0.2-0.7,0.2-1.1,0.2c-0.4,0-0.7,0-1.1-0.1c-0.5-0.2-0.9-0.5-1.3-0.8c-0.3-0.4-0.6-0.8-0.7-1.3c-0.2-0.9,0.1-1.8,0.7-2.5
	c0.3-0.3,0.6-0.5,1-0.7s0.8-0.2,1.2-0.2s0.8,0,1.2,0.2C44.6,100.5,45,100.8,45.4,101.2z"/>
<path class="st4" d="M52,102l-0.7,4.7c0,0.1,0,0.2,0,0.3c0.1,0.1,0.2,0.1,0.3,0.2h0.1v0.2l-1.5-0.2V107l0.5,0.1l0.5-3.6l-1.7-0.2
	l-0.4,3.2c0,0.1,0,0.3,0.1,0.4s0.3,0.1,0.4,0.1v0.2l-1.5-0.2v-0.2l0.5,0.1l0.7-4.8c0-0.3-0.1-0.4-0.4-0.4h-0.1v-0.2l1.5,0.2v0.2
	l-0.5-0.1l-0.2,1.4l1.7,0.2l0.1-1c0-0.1,0-0.2-0.1-0.3c-0.1-0.1-0.2-0.1-0.3-0.1h-0.1v-0.2l1.5,0.2v0.2L52,102z"/>
<path class="st4" d="M55.9,107.3h0.5l-0.2-4.8c0-0.1,0-0.2-0.2-0.3c-0.1-0.1-0.3-0.1-0.4-0.1v-0.2l1.5-0.1v0.2h-0.5l0.2,4.7
	c0,0.1,0,0.2,0,0.3c0,0.1,0.1,0.1,0.1,0.2c0.1,0,0.3,0,0.4,0v0.2l-1.5,0.1v-0.2H55.9z"/>
<path class="st4" d="M61.7,101.3v0.2l-0.5,0.1l1,5.1c0.2,0,0.5-0.1,0.7-0.2s0.4-0.2,0.5-0.3c0.1-0.2,0.2-0.4,0.1-0.6l-0.2-1.3h0.2
	l0.5,2.6h-0.2l-0.1-0.3l-2.4,0.5v-0.2l0.5-0.1l-0.9-4.7c0-0.1-0.1-0.2-0.2-0.3c-0.1,0-0.3,0-0.4,0v-0.2L61.7,101.3z"/>
<path class="st4" d="M70.3,104.8l-2.4,0.8v-0.1l0.5-0.2l-1.5-4.5c0-0.1-0.1-0.2-0.2-0.3c-0.1,0-0.3,0-0.4,0.1v-0.1l2.5-0.8l-0.1-0.3
	h0.1l0.6,1.7l-0.1,0.1l-0.1-0.3c-0.1-0.4-0.3-0.7-0.6-0.7c-0.4,0-0.7,0-1.1,0.2l-0.2,0.1l0.4,1.3l0.7-0.2l-0.3-0.8h0.1l0.7,1.9h-0.1
	c-0.1-0.2-0.1-0.4-0.2-0.6c-0.1-0.1-0.2-0.2-0.4-0.2c-0.1,0-0.2,0-0.4,0.1l1.2,3.4c0.3-0.1,0.6-0.2,0.9-0.4c0.2-0.1,0.3-0.3,0.3-0.5
	s0-0.4-0.1-0.7l-0.1-0.4l0.1-0.1l0.6,1.9h-0.1L70.3,104.8z"/>
<path class="st7" d="M45.4,101.2l0.2-0.5h0.1l-0.7,2h-0.1c0.1-0.3,0.2-0.6,0.2-0.9c0-0.2,0-0.4-0.1-0.6s-0.3-0.4-0.4-0.5
	c-0.2-0.2-0.4-0.3-0.7-0.4c-0.4-0.2-0.9-0.2-1.4-0.1c-0.4,0.1-0.8,0.3-1.1,0.6c-0.3,0.3-0.5,0.7-0.7,1.1c-0.1,0.3-0.2,0.7-0.2,1
	c0,0.4,0.1,0.7,0.2,1c0.1,0.3,0.3,0.6,0.6,0.9c0.3,0.2,0.6,0.4,0.9,0.6c0.3,0.1,0.7,0.2,1,0.1c0.3,0,0.6-0.1,0.9-0.3l0.1,0.2
	c-0.3,0.2-0.7,0.2-1.1,0.2c-0.4,0-0.7,0-1.1-0.1c-0.5-0.2-0.9-0.5-1.3-0.8c-0.3-0.4-0.6-0.8-0.7-1.3c-0.2-0.9,0.1-1.8,0.7-2.5
	c0.3-0.3,0.6-0.5,1-0.7s0.8-0.2,1.2-0.2s0.8,0,1.2,0.2C44.6,100.5,45,100.8,45.4,101.2z"/>
<path class="st7" d="M52,102l-0.7,4.7c0,0.1,0,0.2,0,0.3c0.1,0.1,0.2,0.1,0.3,0.2h0.1v0.2l-1.5-0.2V107l0.5,0.1l0.5-3.6l-1.7-0.2
	l-0.4,3.2c0,0.1,0,0.3,0.1,0.4s0.3,0.1,0.4,0.1v0.2l-1.5-0.2v-0.2l0.5,0.1l0.7-4.8c0-0.3-0.1-0.4-0.4-0.4h-0.1v-0.2l1.5,0.2v0.2
	l-0.5-0.1l-0.2,1.4l1.7,0.2l0.1-1c0-0.1,0-0.2-0.1-0.3c-0.1-0.1-0.2-0.1-0.3-0.1h-0.1v-0.2l1.5,0.2v0.2L52,102z"/>
<path class="st7" d="M55.9,107.3h0.5l-0.2-4.8c0-0.1,0-0.2-0.2-0.3c-0.1-0.1-0.3-0.1-0.4-0.1v-0.2l1.5-0.1v0.2h-0.5l0.2,4.7
	c0,0.1,0,0.2,0,0.3c0,0.1,0.1,0.1,0.1,0.2c0.1,0,0.3,0,0.4,0v0.2l-1.5,0.1v-0.2H55.9z"/>
<path class="st7" d="M61.7,101.3v0.2l-0.5,0.1l1,5.1c0.2,0,0.5-0.1,0.7-0.2s0.4-0.2,0.5-0.3c0.1-0.2,0.2-0.4,0.1-0.6l-0.2-1.3h0.2
	l0.5,2.6h-0.2l-0.1-0.3l-2.4,0.5v-0.2l0.5-0.1l-0.9-4.7c0-0.1-0.1-0.2-0.2-0.3c-0.1,0-0.3,0-0.4,0v-0.2L61.7,101.3z"/>
<path class="st7" d="M70.3,104.8l-2.4,0.8v-0.1l0.5-0.2l-1.5-4.5c0-0.1-0.1-0.2-0.2-0.3c-0.1,0-0.3,0-0.4,0.1v-0.1l2.5-0.8l-0.1-0.3
	h0.1l0.6,1.7l-0.1,0.1l-0.1-0.3c-0.1-0.4-0.3-0.7-0.6-0.7c-0.4,0-0.7,0-1.1,0.2l-0.2,0.1l0.4,1.3l0.7-0.2l-0.3-0.8h0.1l0.7,1.9h-0.1
	c-0.1-0.2-0.1-0.4-0.2-0.6c-0.1-0.1-0.2-0.2-0.4-0.2c-0.1,0-0.2,0-0.4,0.1l1.2,3.4c0.3-0.1,0.6-0.2,0.9-0.4c0.2-0.1,0.3-0.3,0.3-0.5
	s0-0.4-0.1-0.7l-0.1-0.4l0.1-0.1l0.6,1.9h-0.1L70.3,104.8z"/>
<line class="st8" x1="90" y1="81.9" x2="97.3" y2="89.2"/>
<line class="st7" x1="90" y1="81.9" x2="97.3" y2="89.2"/>
</svg>
