<?xml version="1.0" encoding="utf-8"?>
<!-- Generator: Adobe Illustrator 21.1.0, SVG Export Plug-In . SVG Version: 6.00 Build 0)  -->
<svg version="1.1" id="Capa_1" xmlns="http://www.w3.org/2000/svg" xmlns:xlink="http://www.w3.org/1999/xlink" x="0px" y="0px"
	 viewBox="0 0 614 113" style="enable-background:new 0 0 614 113;" xml:space="preserve">
<style type="text/css">
	.st0{fill:#696969;}
	.st1{font-family:'Oswald-Regular';}
	.st2{font-size:90px;}
	.st3{fill:#FFFFFF;stroke:#003671;stroke-miterlimit:22.93;}
	.st4{fill:#003671;}
	.st5{fill:#FFFFFF;}
	.st6{fill:#DB2F34;}
	.st7{fill:none;stroke:#003671;stroke-miterlimit:22.93;}
	.st8{fill:none;stroke:#003671;stroke-width:1.39;stroke-miterlimit:22.93;}
</style>
<text transform="matrix(1 0 0 1 132.5 93.6627)" class="st0 st1 st2">ODONTOLOGIA</text>
<path class="st3" d="M56.1,108.4c28.4,0,51.6-23.2,51.6-51.6S84.6,5.2,56.1,5.2S4.5,28.4,4.5,56.8S27.7,108.4,56.1,108.4z"/>
<path class="st4" d="M56.4,98c22.8,0,41.4-18.7,41.4-41.7S79.2,14.7,56.4,14.7S15,33.4,15,56.3S33.6,98,56.4,98z"/>
<polygon class="st5" points="79.4,25 67.6,25 57,18.9 57,27.4 67.6,33.5 79.4,33.5 "/>
<polygon class="st5" points="33,25 45.2,25 55.4,18.9 55.4,27.4 45.2,33.5 33,33.5 "/>
<polygon class="st5" points="81,42.1 67.6,42.1 67.6,53.9 59.1,49 59.1,44.1 56.2,42.5 53.8,44.1 53.8,51.4 67.6,59.1 67.6,73.8 
	57,79.9 57,91.7 79.4,78.7 79.4,54.3 81,54.3 "/>
<polygon class="st5" points="31.4,42.1 45.2,42.1 45.2,55.1 59.1,62.8 59.1,70.1 56.2,71.7 53.8,70.1 53.8,64.8 45.2,60 45.2,73.8 
	55.4,79.5 55.4,91.7 33,78.7 33,54.3 31.4,54.3 "/>
<polygon class="st5" points="33,38.8 45.2,38.8 55.4,32.7 55.4,34.3 45.2,40.4 33,40.4 "/>
<polygon class="st5" points="79.4,38.8 67.6,38.8 57,32.7 57,34.3 67.6,40.4 79.4,40.4 "/>
<polygon class="st5" points="79.4,35.2 67.6,35.2 57,29.5 57,31.1 67.2,36.8 79.4,36.8 "/>
<polygon class="st5" points="33,35.2 45.2,35.2 55.4,29.5 55.4,31.1 45.2,36.8 33,36.8 "/>
<polygon class="st6" points="35.1,26.6 45.2,26.6 53.8,21.7 53.8,27 45.2,31.9 35.1,31.9 "/>
<polygon class="st6" points="77.8,26.6 67.6,26.6 59.1,21.7 59.1,27 67.6,31.9 77.8,31.9 "/>
<polygon class="st6" points="79.4,43.7 69.2,43.7 69.2,56.7 57,49.8 57,44.9 56.2,44.1 55.4,44.9 55.4,50.6 69.2,58.3 69.2,74.6 
	59.1,80.3 59.1,88.8 77.8,78.2 77.8,52.2 79.4,52.2 "/>
<polygon class="st6" points="33,43.7 43.6,43.7 43.6,55.5 57,63.6 57,69.3 56.2,69.7 55.4,69.3 55.4,64.4 43.6,57.5 43.6,74.6 
	53.8,80.3 53.8,88.8 35.1,78.2 35.1,52.2 33,52.2 "/>
<path class="st4" d="M7.6,60.5H7.4l-0.1-1.2h0.2l0,0.4l4.3-0.3c0.2,0,0.4,0,0.6,0.1c0.2,0.1,0.3,0.2,0.4,0.4
	c0.1,0.2,0.2,0.3,0.2,0.5c0,0.2,0,0.4-0.1,0.6c0,0.2-0.1,0.4-0.2,0.5c-0.2,0.3-0.5,0.4-0.9,0.4l-3.8,0.3c-0.3,0-0.4,0.2-0.3,0.5H7.6
	l-0.1-1.4h0.2l0,0.4l4.2-0.3c0.3,0,0.5-0.1,0.7-0.3c0.2-0.2,0.2-0.5,0.2-0.7c0-0.2-0.1-0.5-0.3-0.6c-0.2-0.1-0.5-0.2-0.7-0.2
	l-3.8,0.3c-0.2,0-0.3,0.1-0.4,0.3c0,0,0,0.1,0,0.1L7.6,60.5z"/>
<path class="st4" d="M12.5,55.8l0-0.4l-4.3-0.1c-0.2,0-0.3,0-0.5,0c-0.2,0.1-0.2,0.2-0.3,0.5H7.3l0-0.8l4.6-1.9v0L8.1,53
	c-0.1,0-0.3,0-0.4,0.1c-0.1,0.1-0.2,0.2-0.2,0.4H7.4l0-1.2h0.2l0,0.4l5.5,0.2v0.1L8.5,55l0,0l3.4,0.1c0.2,0,0.4,0,0.5-0.2
	c0.1-0.1,0.1-0.3,0.1-0.4h0.2l-0.1,1.3L12.5,55.8z"/>
<path class="st4" d="M13.1,49.4l0.1-0.5l-4.6-0.9c-0.1,0-0.2,0-0.3,0.1c-0.1,0.1-0.1,0.2-0.1,0.4l-0.1,0l0.3-1.4l0.1,0l-0.1,0.5
	l4.5,0.9c0.1,0,0.2,0,0.3,0c0.1,0,0.1,0,0.2-0.1c0.1-0.1,0.1-0.3,0.1-0.4l0.1,0l-0.3,1.4L13.1,49.4z"/>
<path class="st4" d="M14.1,42.7l-3.4-2.1c-0.1,0-0.2-0.1-0.2-0.1c-0.1-0.1-0.2,0-0.3,0c-0.1,0.1-0.2,0.2-0.2,0.3l0,0.1l-0.1,0
	l0.5-1.3l0.1,0l-0.2,0.4l4.8,3L15,43.1L10.1,43c-0.2,0-0.4,0-0.6,0c-0.1,0-0.2,0-0.3,0.1c-0.1,0.1-0.1,0.2-0.1,0.2L9,43.5l-0.1,0
	l0.5-1.5l0.1,0l-0.2,0.5L14.1,42.7z"/>
<path class="st4" d="M17.6,36.3l-1.1,2.2l-0.1-0.1l0.2-0.4l-4.2-2.1c-0.1-0.1-0.2-0.1-0.3,0c-0.1,0.1-0.2,0.2-0.2,0.3l-0.1-0.1
	l1.2-2.3l-0.3-0.2l0.1-0.1l1.6,0.8l-0.1,0.1l-0.2-0.1c-0.4-0.2-0.7-0.2-0.9-0.1c-0.3,0.2-0.5,0.5-0.6,0.9l-0.1,0.2l1.2,0.6l0.3-0.6
	L13,34.9l0.1-0.1l1.8,0.9l-0.1,0.1c-0.2-0.1-0.4-0.2-0.6-0.2c-0.1,0-0.3,0-0.4,0.1c-0.1,0.1-0.2,0.2-0.2,0.3l3.2,1.6
	c0.1-0.3,0.3-0.6,0.4-0.9c0-0.2,0-0.4-0.1-0.6c-0.1-0.2-0.3-0.3-0.5-0.4l-0.4-0.2l0.1-0.1l1.7,0.9l-0.1,0.1L17.6,36.3z"/>
<path class="st4" d="M18,27.1c0.1,0,0.2,0,0.3,0c0.4,0,0.8,0.1,1.1,0.4c0.3,0.2,0.6,0.6,0.7,0.9c0.2,0.4,0.2,0.8,0.2,1.2
	c-0.1,0.4-0.2,0.8-0.4,1.2h0c0.1-0.1,0.3-0.2,0.6-0.3c0.3-0.1,0.5-0.3,0.8-0.5c0.2-0.1,0.4-0.3,0.5-0.5c0.1-0.1,0.1-0.2,0.2-0.3H22
	c0,0.2-0.1,0.4-0.2,0.6c-0.1,0.2-0.3,0.3-0.4,0.5c-0.1,0.1-0.3,0.2-0.5,0.4c-0.1,0.1-0.4,0.2-0.7,0.4c-0.5,0.3-1.1,0.6-1.6,0.8
	l0.6,0.4c0.1,0.1,0.1,0.1,0.2,0.1c0.1,0,0.1,0,0.2,0c0.1-0.1,0.1-0.1,0.2-0.2c0-0.1,0.1-0.1,0.1-0.2l0.1,0.1l-0.9,1.3L19,33.2
	l0.3-0.4L18,31.9v-0.6l0.4,0.3l-0.1-0.1c0.7-0.2,1.1-0.5,1.4-0.9c0.2-0.3,0.3-0.6,0.3-0.9c0-0.7-0.3-1.3-0.8-1.7
	c-0.3-0.2-0.7-0.3-1-0.4c-0.1,0-0.1,0-0.2,0L18,27.1L18,27.1z M14.7,30.2l0.6-0.8l0.4,0.3c0-0.6,0.2-1.1,0.5-1.6
	c0.2-0.3,0.5-0.6,0.9-0.7c0.3-0.1,0.6-0.2,0.9-0.2v0.5c-0.3,0-0.6,0.1-0.9,0.2c-0.3,0.1-0.6,0.4-0.9,0.6c-0.3,0.4-0.4,1-0.3,1.5
	l2,1.4v0.6L15.4,30c-0.2-0.1-0.4-0.1-0.6,0.1l0,0.1L14.7,30.2z"/>
<path class="st4" d="M22,20.8l1.5,1.5l-0.1,0.1L23.1,22c-0.2-0.2-0.4-0.4-0.7-0.5c-0.2-0.1-0.5,0-0.6,0.2c-0.1,0.1-0.2,0.2-0.2,0.3
	c0,0.1,0,0.3,0,0.4c0,0.1,0.1,0.2,0.2,0.3c0.1,0.1,0.3,0.2,0.5,0.2c0.2,0,0.4,0,0.5,0c0.2,0,0.4-0.1,0.7-0.2
	c0.3-0.1,0.6-0.2,0.8-0.2c0.2,0,0.5,0,0.7,0c0.2,0,0.5,0.2,0.7,0.3c0.2,0.2,0.3,0.4,0.4,0.6c0.1,0.2,0.1,0.5,0.1,0.7
	c0,0.3-0.1,0.5-0.2,0.8c-0.1,0.2-0.3,0.5-0.5,0.7c-0.2,0.3-0.5,0.4-0.9,0.6c-0.3,0.1-0.6,0.2-1,0.1c-0.3-0.1-0.6-0.2-0.9-0.5
	c-0.2-0.2-0.3-0.4-0.4-0.7c-0.1-0.3-0.1-0.5,0-0.8c0.1-0.3,0.2-0.5,0.4-0.7c0.1-0.1,0.3-0.2,0.4-0.3c0.2-0.1,0.3-0.1,0.5-0.1
	c0.2,0,0.3,0.1,0.4,0.2c0.1,0.1,0.2,0.3,0.2,0.4c0,0.2,0,0.3-0.2,0.4c0,0-0.1,0.1-0.2,0.1l-0.1-0.1c0.1-0.2,0.1-0.4-0.1-0.6
	c-0.1-0.1-0.2-0.1-0.3-0.2c-0.1,0-0.3,0-0.4,0c-0.1,0-0.2,0.1-0.3,0.2c-0.1,0.1-0.2,0.3-0.2,0.5c0,0.2,0,0.4,0.1,0.6
	c0.1,0.2,0.2,0.4,0.3,0.5c0.2,0.2,0.5,0.3,0.7,0.4c0.3,0.1,0.6,0.1,0.9,0c0.3-0.1,0.6-0.2,0.8-0.5c0.2-0.2,0.4-0.5,0.4-0.7
	c0.1-0.3,0.1-0.6,0-0.8c-0.1-0.3-0.2-0.5-0.4-0.7c-0.2-0.1-0.4-0.2-0.6-0.3c-0.2,0-0.4,0-0.6,0c-0.2,0-0.5,0.1-0.8,0.2
	c-0.2,0.1-0.5,0.1-0.7,0.2c-0.2,0-0.4,0-0.6,0c-0.2,0-0.4-0.2-0.5-0.3c-0.2-0.2-0.3-0.5-0.3-0.8c0-0.3,0.1-0.6,0.3-0.8
	c0.1-0.1,0.3-0.2,0.5-0.3l-0.2-0.2L22,20.8z"/>
<path class="st4" d="M29,22l0.4-0.3L26.5,18c-0.1-0.1-0.2-0.2-0.3-0.2c-0.1,0-0.3,0.1-0.4,0.2l-0.1-0.1l1.1-0.9l0.1,0.1l-0.4,0.3
	l2.8,3.6c0.1,0.1,0.1,0.1,0.2,0.2c0.1,0.1,0.1,0.1,0.2,0.1c0.1-0.1,0.2-0.1,0.3-0.2l0.1,0.1l-1.2,0.9L29,22z"/>
<path class="st4" d="M33.2,13.4c0.2,0,0.4,0,0.7,0.1c0.2,0.1,0.4,0.1,0.6,0.2c0.2,0.1,0.4,0.3,0.6,0.4c0.2,0.2,0.3,0.3,0.4,0.5
	c0.3,0.6,0.4,1.2,0.3,1.9c0,0.3-0.1,0.5-0.2,0.7c-0.1,0.3-0.3,0.5-0.5,0.7c-0.3,0.3-0.6,0.5-0.9,0.7l-1,0.5v-0.5l0,0.1
	c0.4-0.1,0.8-0.2,1.1-0.5c0.4-0.2,0.7-0.5,0.9-0.9c0.2-0.4,0.3-0.8,0.3-1.3c0-0.4-0.1-0.9-0.4-1.3c-0.2-0.4-0.5-0.7-0.9-0.9
	c-0.3-0.2-0.7-0.3-1-0.3L33.2,13.4L33.2,13.4z M32.6,19.4l0.4-0.2l-2.3-4.1c-0.1-0.2-0.3-0.3-0.5-0.2c0,0-0.1,0-0.1,0.1L30,15
	l-0.1-0.1l1.9-1.1c0.3-0.2,0.7-0.3,1.1-0.4c0.1,0,0.2,0,0.3,0v0.4c-0.1,0-0.1,0-0.2,0c-0.4,0-0.8,0.1-1.2,0.3
	c-0.3,0.2-0.6,0.4-0.9,0.7l2.3,4v0.5l-0.6,0.3L32.6,19.4z"/>
<path class="st4" d="M42.6,14.7l-2.1-2.8L40.1,12v-0.2l0.3-0.1l-0.3-0.5v-0.6l2.3,3c0.1,0.1,0.2,0.3,0.3,0.4
	c0.1,0.1,0.2,0.2,0.3,0.3c0.1,0.1,0.3,0.1,0.4,0l0,0.1L42.2,15l0-0.1L42.6,14.7L42.6,14.7L42.6,14.7z M40.1,14.2l0,0.3
	c0,0.2,0.1,0.4,0.1,0.6c0,0.1,0.1,0.2,0.2,0.2c0.1,0,0.2,0,0.3,0c0.1,0,0.2-0.1,0.3-0.1l0,0.1l-1,0.3L40.1,14.2L40.1,14.2z M40.1,12
	l-0.2,0.1l0.2,2.2v1.4l-0.4,0.1l0-0.1l0.3-0.1L39.5,10l0.1,0l0.5,0.7v0.6l-0.3-0.4h0l0.1,1.1l0.2-0.1L40.1,12L40.1,12z"/>
<path class="st4" d="M48.2,8c0.1,0,0.2,0,0.3,0c0.3,0.1,0.6,0.2,0.9,0.4c0.4,0.3,0.7,0.6,0.9,1c0.1,0.2,0.2,0.4,0.2,0.7
	c0.1,0.7,0,1.3-0.3,1.9c-0.1,0.2-0.3,0.4-0.5,0.6c-0.2,0.2-0.5,0.4-0.7,0.5c-0.3,0.1-0.5,0.2-0.8,0.3v-0.2h0.1
	c0.4-0.1,0.8-0.3,1.1-0.6c0.3-0.3,0.6-0.7,0.7-1.1c0.1-0.4,0.2-0.9,0.1-1.3c-0.1-0.4-0.3-0.8-0.6-1.1c-0.3-0.3-0.6-0.6-1-0.7
	c-0.1,0-0.2-0.1-0.3-0.1V8L48.2,8z M46.1,13.6l0.5-0.1l-0.8-4.6c0-0.2-0.2-0.4-0.4-0.3c0,0-0.1,0-0.1,0l-0.1,0l0-0.1l2.2-0.4
	C47.7,8,47.9,8,48.2,8v0.3c-0.3-0.1-0.6-0.1-0.9,0c-0.4,0-0.8,0.2-1.1,0.4l0.8,4.6c0.4,0.1,0.8,0,1.2,0v0.2l-0.3,0.1l-1.8,0.3
	L46.1,13.6z"/>
<path class="st4" d="M61.6,7.5c0.4,0,0.7,0.1,1,0.3C63,8,63.2,8.2,63.4,8.4c0.1,0.2,0.3,0.4,0.4,0.6C63.9,9.2,64,9.5,64,9.7
	c0,0.2,0,0.5,0,0.7c-0.1,0.7-0.4,1.3-0.9,1.7c-0.2,0.2-0.4,0.3-0.6,0.5c-0.3,0.1-0.5,0.2-0.8,0.2h0v-0.2c0.2,0,0.3-0.1,0.5-0.2
	c0.4-0.2,0.7-0.5,1-0.8c0.3-0.4,0.4-0.8,0.5-1.2c0-0.4,0-0.9-0.2-1.2c-0.2-0.4-0.4-0.7-0.8-1c-0.3-0.2-0.6-0.4-0.9-0.4L61.6,7.5
	L61.6,7.5z M58.8,12.4l0.5,0.1l0.6-4.6c0-0.2-0.1-0.4-0.3-0.4c0,0-0.1,0-0.1,0l-0.1,0l0-0.1l2.2,0.3h0.1v0.2c-0.1,0-0.2,0-0.2,0
	c-0.4-0.1-0.8-0.1-1.1,0l-0.6,4.7c0.4,0.2,0.8,0.3,1.2,0.3c0.2,0,0.5,0,0.7,0v0.2c-0.4,0.1-0.8,0.1-1.1,0l-1.8-0.2L58.8,12.4z"/>
<path class="st4" d="M69.2,14.5l-2.4-0.6l0-0.1l0.5,0.1l1.2-4.5c0-0.1,0-0.2,0-0.3c-0.1-0.1-0.2-0.2-0.4-0.2l0-0.1l2.5,0.7L70.7,9
	l0.1,0l-0.5,1.7l-0.1,0l0.1-0.3c0.1-0.4,0.1-0.7-0.1-0.9c-0.3-0.2-0.6-0.4-1-0.4L69,9.1l-0.3,1.3l0.7,0.2l0.2-0.8l0.1,0l-0.5,1.9
	l-0.1,0c0.1-0.2,0.1-0.4,0.1-0.6c0-0.2-0.1-0.3-0.2-0.4c-0.1-0.1-0.2-0.1-0.3-0.1L67.7,14c0.3,0.1,0.6,0.1,0.9,0.2
	c0.2,0,0.4-0.1,0.5-0.2c0.1-0.2,0.2-0.4,0.3-0.6l0.1-0.4l0.1,0l-0.5,1.9l-0.1,0L69.2,14.5z"/>
<path class="st4" d="M80.4,13.6l-0.1,0.1l-0.4-0.2l-2.5,4.4c0.2,0.1,0.4,0.2,0.6,0.3c0.2,0.1,0.4,0.1,0.6,0.1c0.2,0,0.4-0.2,0.5-0.4
	l0.7-1.1l0.1,0.1l-1.3,2.3L78.4,19l0.2-0.3l-2.1-1.2l0.1-0.1l0.4,0.2l2.4-4.1c0.1-0.1,0.1-0.2,0-0.3c-0.1-0.1-0.2-0.2-0.3-0.2
	l0.1-0.1L80.4,13.6z"/>
<path class="st4" d="M85,17.8l1-0.8l0.1,0.1L85,20v-1.2l0,0l0.4-1h0L85,18.1V17.8L85,17.8z M83.7,22.3L85,19l-0.5-0.4l-1.9,1.5
	c-0.2,0.1-0.3,0.3-0.4,0.4C82,20.6,82,20.7,82,20.7c0,0.1,0.1,0.2,0.2,0.2c0.1,0.1,0.2,0.2,0.3,0.2l-0.1,0.1l-1.1-0.9l0.1-0.1
	l0.3,0.2l3.5-2.8v0.3l-0.4,0.3l0.4,0.3V20l-0.6,1.5c-0.1,0.1-0.1,0.3-0.2,0.5c-0.1,0.1-0.1,0.3-0.1,0.5c0,0.1,0.1,0.3,0.2,0.4
	l-0.1,0.1L83.2,22l0.1-0.1L83.7,22.3z"/>
<path class="st4" d="M95.9,27l-1.7,1.3l-0.1-0.1l0.4-0.3c0.2-0.2,0.4-0.4,0.6-0.6c0.1-0.2,0.1-0.5-0.1-0.7c-0.1-0.1-0.2-0.2-0.3-0.2
	c-0.2-0.1-0.5-0.1-0.7,0.1c-0.1,0.1-0.3,0.3-0.3,0.4c0,0.2-0.1,0.4,0,0.5c0,0.2,0.1,0.4,0.1,0.7c0.1,0.3,0.1,0.6,0.1,0.9
	c0,0.2,0,0.5-0.1,0.7c-0.1,0.2-0.2,0.4-0.4,0.6c-0.2,0.2-0.4,0.3-0.7,0.3c-0.2,0-0.5,0-0.7,0c-0.3-0.1-0.5-0.2-0.7-0.3
	c-0.2-0.2-0.4-0.3-0.6-0.6c-0.2-0.3-0.4-0.6-0.5-0.9c-0.1-0.3-0.1-0.6,0-1c0.1-0.3,0.3-0.6,0.6-0.8c0.2-0.2,0.5-0.3,0.7-0.3
	c0.3,0,0.5,0,0.8,0.1c0.2,0.1,0.5,0.2,0.6,0.5c0.1,0.1,0.2,0.3,0.2,0.5c0,0.2,0,0.3,0,0.5c0,0.2-0.1,0.3-0.3,0.4
	c-0.1,0.1-0.3,0.2-0.5,0.1c-0.2,0-0.3-0.1-0.4-0.2c0-0.1-0.1-0.1-0.1-0.2l0.2-0.1c0.2,0.2,0.4,0.2,0.6,0c0.1-0.1,0.2-0.2,0.2-0.3
	c0-0.1,0.1-0.2,0-0.4c0-0.1-0.1-0.3-0.1-0.4c-0.1-0.2-0.3-0.3-0.5-0.3c-0.2,0-0.4,0-0.6,0c-0.2,0-0.4,0.1-0.5,0.2
	c-0.2,0.2-0.4,0.4-0.5,0.7c-0.3,0.6-0.2,1.2,0.2,1.7c0.2,0.2,0.4,0.4,0.7,0.5c0.3,0.1,0.5,0.2,0.8,0.2c0.3,0,0.5-0.1,0.7-0.3
	c0.2-0.1,0.3-0.3,0.4-0.5c0.1-0.2,0.1-0.4,0.1-0.6c0-0.3-0.1-0.5-0.1-0.8c0-0.2-0.1-0.5-0.1-0.7c0-0.2,0-0.4,0.1-0.6
	c0.1-0.2,0.2-0.4,0.4-0.5c0.2-0.2,0.5-0.3,0.8-0.2c0.3,0.1,0.6,0.2,0.8,0.4c0.1,0.2,0.2,0.3,0.2,0.5l0.2-0.2L95.9,27z"/>
<path class="st4" d="M94.8,35.9l-1.3-2.2l0.1-0.1l0.2,0.4l4.1-2.3c0.1,0,0.2-0.1,0.2-0.3c0-0.1-0.1-0.3-0.1-0.4l0.1-0.1l1.3,2.2
	l0.3-0.2l0.1,0.1l-1.6,0.9L98.2,34l0.2-0.1c0.4-0.2,0.6-0.5,0.6-0.7c0-0.4-0.2-0.7-0.4-1L98.6,32l-1.1,0.7l0.4,0.6l0.7-0.4l0.1,0.1
	l-1.7,1l-0.1-0.1c0.2-0.1,0.3-0.2,0.5-0.4c0.1-0.1,0.2-0.3,0.1-0.4c0-0.1-0.1-0.2-0.1-0.3l-3.1,1.8c0.2,0.3,0.3,0.5,0.5,0.8
	c0.1,0.1,0.3,0.2,0.6,0.2c0.2,0,0.4-0.1,0.6-0.2l0.4-0.2l0.1,0.1l-1.7,1l-0.1-0.1L94.8,35.9z"/>
<path class="st4" d="M101.2,36.9l0.4,0.9l-0.5,0.2c0.5,0.3,0.9,0.7,1.1,1.2c0.1,0.4,0.2,0.8,0.2,1.2c0,0.4-0.2,0.8-0.4,1.1
	c-0.2,0.3-0.5,0.6-0.9,0.7c-0.3,0.1-0.7,0.2-1,0.2V42c0.2,0,0.5-0.1,0.7-0.1c0.3-0.1,0.6-0.4,0.9-0.7c0.2-0.3,0.4-0.6,0.4-1
	c0.1-0.4,0-0.7-0.1-1.1c-0.2-0.5-0.6-0.9-1.1-1l-0.7,0.3v-0.5l0.9-0.4c0.2-0.1,0.3-0.3,0.2-0.5l0-0.1L101.2,36.9z M100.1,42.4
	c-0.1,0-0.1,0-0.2,0c-0.4-0.1-0.8-0.2-1.1-0.5c-0.3-0.3-0.6-0.6-0.7-1h0c0,0.1,0,0.4-0.1,0.7c0,0.3,0,0.6,0,0.9
	c0,0.2,0.1,0.5,0.1,0.7c0,0.1,0.1,0.2,0.2,0.3l0,0.1c-0.2-0.1-0.3-0.3-0.4-0.5c-0.1-0.2-0.1-0.4-0.2-0.6c0-0.2-0.1-0.4-0.1-0.6
	c0-0.2,0-0.4,0-0.8c0-0.6,0.1-1.2,0.2-1.8l-0.7,0.3c-0.1,0-0.2,0.1-0.2,0.1c0,0-0.1,0.1,0,0.2c0,0.1,0,0.2,0.1,0.3
	c0,0.1,0.1,0.1,0.1,0.2l-0.1,0.1L96.2,39l0.1-0.1l0.2,0.4l3.5-1.4v0.5l-2,0.8l0.2,0c-0.2,0.7-0.2,1.2,0,1.6c0.1,0.3,0.3,0.6,0.6,0.8
	c0.3,0.2,0.6,0.3,0.9,0.4c0.1,0,0.2,0,0.3,0L100.1,42.4L100.1,42.4z"/>
<path class="st4" d="M99.2,49l-0.5-2.5l0.1,0L99,47l4.6-0.9c0.1,0,0.2-0.1,0.3-0.2c0-0.1,0-0.3,0-0.4l0.1,0l0.5,2.5l0.3-0.1l0,0.1
	l-1.8,0.3l0-0.1l0.3-0.1c0.4-0.1,0.7-0.2,0.8-0.5c0.1-0.3,0.1-0.7,0-1.1l0-0.2l-1.3,0.2l0.1,0.7l0.8-0.2l0,0.1l-1.9,0.4l0-0.1
	c0.2,0,0.4-0.1,0.6-0.2c0.1-0.1,0.2-0.2,0.3-0.3c0-0.1,0-0.2,0-0.4l-3.5,0.7c0.1,0.3,0.1,0.6,0.2,0.9c0.1,0.2,0.3,0.3,0.4,0.4
	c0.2,0.1,0.4,0.1,0.7,0l0.4-0.1l0,0.1l-1.9,0.4l0-0.1L99.2,49z"/>
<path class="st4" d="M99.8,52.4l0,0.4l4.3-0.4c0.2,0,0.3,0,0.5-0.1c0.2-0.1,0.2-0.3,0.2-0.6l0.2,0l0.1,0.8l-4.3,2.5v0l3.8-0.3
	c0.1,0,0.3-0.1,0.4-0.2c0.1-0.1,0.1-0.3,0.1-0.4l0.2,0l0.1,1.2l-0.2,0l0-0.4l-5.5,0.5v-0.1l4.3-2.5l0,0l-3.4,0.3
	c-0.2,0-0.4,0.1-0.5,0.2c-0.1,0.1-0.1,0.3-0.1,0.4l-0.2,0l-0.1-1.3L99.8,52.4z"/>
<path class="st4" d="M103.9,60.2l1.5,0.5v0.1l-1.4,0.3v-0.4l0.5-0.1v0l-0.5-0.2L103.9,60.2L103.9,60.2z M99.7,61.7l3.4-0.8l0-0.7
	l-2.3-0.7c-0.2-0.1-0.4-0.1-0.6-0.1c-0.1,0-0.2,0-0.3,0.1c-0.1,0.1-0.1,0.2-0.1,0.3c0,0.1,0,0.2,0,0.4h-0.2l0.1-1.4h0.2l0,0.3l4,1.2
	v0.2l-0.5-0.2l0,0.6l0.5-0.1v0.4l-3.1,0.7l-0.5,0.1c-0.2,0-0.3,0.1-0.4,0.2c-0.1,0.1-0.2,0.2-0.2,0.4h-0.2l0.1-1.3h0.2L99.7,61.7z"
	/>
<path class="st7" d="M7.6,60.5H7.4l-0.1-1.2h0.2l0,0.4l4.3-0.3c0.2,0,0.4,0,0.6,0.1c0.2,0.1,0.3,0.2,0.4,0.4
	c0.1,0.2,0.2,0.3,0.2,0.5c0,0.2,0,0.4-0.1,0.6c0,0.2-0.1,0.4-0.2,0.5c-0.2,0.3-0.5,0.4-0.9,0.4l-3.8,0.3c-0.3,0-0.4,0.2-0.3,0.5H7.6
	l-0.1-1.4h0.2l0,0.4l4.2-0.3c0.3,0,0.5-0.1,0.7-0.3c0.2-0.2,0.2-0.5,0.2-0.7c0-0.2-0.1-0.5-0.3-0.6c-0.2-0.1-0.5-0.2-0.7-0.2
	l-3.8,0.3c-0.2,0-0.3,0.1-0.4,0.3c0,0,0,0.1,0,0.1L7.6,60.5z"/>
<path class="st7" d="M12.5,55.8l0-0.4l-4.3-0.1c-0.2,0-0.3,0-0.5,0c-0.2,0.1-0.2,0.2-0.3,0.5H7.3l0-0.8l4.6-1.9v0L8.1,53
	c-0.1,0-0.3,0-0.4,0.1c-0.1,0.1-0.2,0.2-0.2,0.4H7.4l0-1.2h0.2l0,0.4l5.5,0.2v0.1L8.5,55l0,0l3.4,0.1c0.2,0,0.4,0,0.5-0.2
	c0.1-0.1,0.1-0.3,0.1-0.4h0.2l-0.1,1.3L12.5,55.8z"/>
<path class="st7" d="M13.1,49.4l0.1-0.5l-4.6-0.9c-0.1,0-0.2,0-0.3,0.1c-0.1,0.1-0.1,0.2-0.1,0.4l-0.1,0l0.3-1.4l0.1,0l-0.1,0.5
	l4.5,0.9c0.1,0,0.2,0,0.3,0c0.1,0,0.1,0,0.2-0.1c0.1-0.1,0.1-0.3,0.1-0.4l0.1,0l-0.3,1.4L13.1,49.4z"/>
<path class="st7" d="M14.1,42.7l-3.4-2.1c-0.1,0-0.2-0.1-0.2-0.1c-0.1-0.1-0.2,0-0.3,0c-0.1,0.1-0.2,0.2-0.2,0.3l0,0.1l-0.1,0
	l0.5-1.3l0.1,0l-0.2,0.4l4.8,3L15,43.1L10.1,43c-0.2,0-0.4,0-0.6,0c-0.1,0-0.2,0-0.3,0.1c-0.1,0.1-0.1,0.2-0.1,0.2L9,43.5l-0.1,0
	l0.5-1.5l0.1,0l-0.2,0.5L14.1,42.7z"/>
<path class="st7" d="M17.6,36.3l-1.1,2.2l-0.1-0.1l0.2-0.4l-4.2-2.1c-0.1-0.1-0.2-0.1-0.3,0c-0.1,0.1-0.2,0.2-0.2,0.3l-0.1-0.1
	l1.2-2.3l-0.3-0.2l0.1-0.1l1.6,0.8l-0.1,0.1l-0.2-0.1c-0.4-0.2-0.7-0.2-0.9-0.1c-0.3,0.2-0.5,0.5-0.6,0.9l-0.1,0.2l1.2,0.6l0.3-0.6
	L13,34.9l0.1-0.1l1.8,0.9l-0.1,0.1c-0.2-0.1-0.4-0.2-0.6-0.2c-0.1,0-0.3,0-0.4,0.1c-0.1,0.1-0.2,0.2-0.2,0.3l3.2,1.6
	c0.1-0.3,0.3-0.6,0.4-0.9c0-0.2,0-0.4-0.1-0.6c-0.1-0.2-0.3-0.3-0.5-0.4l-0.4-0.2l0.1-0.1l1.7,0.9l-0.1,0.1L17.6,36.3z"/>
<path class="st7" d="M14.7,30.2l0.6-0.8l0.4,0.3c0-0.6,0.2-1.1,0.5-1.6c0.2-0.3,0.5-0.6,0.9-0.7c0.4-0.2,0.8-0.3,1.2-0.2
	c0.4,0,0.8,0.1,1.1,0.4c0.3,0.2,0.6,0.6,0.7,0.9c0.2,0.4,0.2,0.8,0.2,1.2c-0.1,0.4-0.2,0.8-0.4,1.2h0c0.1-0.1,0.3-0.2,0.6-0.3
	c0.3-0.1,0.5-0.3,0.8-0.5c0.2-0.1,0.4-0.3,0.5-0.5c0.1-0.1,0.1-0.2,0.2-0.3H22c0,0.2-0.1,0.4-0.2,0.6c-0.1,0.2-0.3,0.4-0.4,0.5
	c-0.1,0.1-0.3,0.2-0.5,0.4c-0.1,0.1-0.4,0.2-0.7,0.4c-0.5,0.3-1.1,0.6-1.6,0.8l0.6,0.4c0.1,0.1,0.1,0.1,0.2,0.1c0.1,0,0.1,0,0.2,0
	c0.1-0.1,0.1-0.1,0.2-0.2c0-0.1,0.1-0.1,0.1-0.2l0.1,0.1l-0.9,1.3L19,33.2l0.3-0.4L15.4,30c-0.2-0.1-0.4-0.1-0.6,0.1l0,0.1
	L14.7,30.2L14.7,30.2L14.7,30.2z M16,29.9l2.4,1.7l-0.1-0.1c0.7-0.2,1.1-0.5,1.4-0.9c0.2-0.3,0.3-0.6,0.3-0.9c0-0.7-0.3-1.3-0.8-1.7
	c-0.3-0.2-0.7-0.3-1-0.4c-0.4,0-0.7,0-1.1,0.2c-0.3,0.1-0.6,0.4-0.9,0.6C15.9,28.8,15.8,29.3,16,29.9L16,29.9z"/>
<path class="st7" d="M22,20.8l1.5,1.5l-0.1,0.1L23.1,22c-0.2-0.2-0.4-0.4-0.7-0.5c-0.2-0.1-0.5,0-0.6,0.2c-0.1,0.1-0.2,0.2-0.2,0.3
	c0,0.1,0,0.3,0,0.4c0,0.1,0.1,0.2,0.2,0.3c0.1,0.1,0.3,0.2,0.5,0.2c0.2,0,0.4,0,0.5,0c0.2,0,0.4-0.1,0.7-0.2
	c0.3-0.1,0.6-0.2,0.8-0.2c0.2,0,0.5,0,0.7,0c0.2,0,0.5,0.2,0.7,0.3c0.2,0.2,0.3,0.4,0.4,0.6c0.1,0.2,0.1,0.5,0.1,0.7
	c0,0.3-0.1,0.5-0.2,0.8c-0.1,0.2-0.3,0.5-0.5,0.7c-0.2,0.3-0.5,0.4-0.9,0.6c-0.3,0.1-0.6,0.2-1,0.1c-0.3-0.1-0.6-0.2-0.9-0.5
	c-0.2-0.2-0.3-0.4-0.4-0.7c-0.1-0.3-0.1-0.5,0-0.8c0.1-0.3,0.2-0.5,0.4-0.7c0.1-0.1,0.3-0.2,0.4-0.3c0.2-0.1,0.3-0.1,0.5-0.1
	c0.2,0,0.3,0.1,0.4,0.2c0.1,0.1,0.2,0.3,0.2,0.4c0,0.2,0,0.3-0.2,0.4c0,0-0.1,0.1-0.2,0.1l-0.1-0.1c0.1-0.2,0.1-0.4-0.1-0.6
	c-0.1-0.1-0.2-0.1-0.3-0.2c-0.1,0-0.3,0-0.4,0c-0.1,0-0.2,0.1-0.3,0.2c-0.1,0.1-0.2,0.3-0.2,0.5c0,0.2,0,0.4,0.1,0.6
	c0.1,0.2,0.2,0.4,0.3,0.5c0.2,0.2,0.5,0.3,0.7,0.4c0.3,0.1,0.6,0.1,0.9,0c0.3-0.1,0.6-0.2,0.8-0.5c0.2-0.2,0.4-0.5,0.4-0.7
	c0.1-0.3,0.1-0.6,0-0.8c-0.1-0.3-0.2-0.5-0.4-0.7c-0.2-0.1-0.4-0.2-0.6-0.3c-0.2,0-0.4,0-0.6,0c-0.2,0-0.5,0.1-0.8,0.2
	c-0.2,0.1-0.5,0.1-0.7,0.2c-0.2,0-0.4,0-0.6,0c-0.2,0-0.4-0.2-0.5-0.3c-0.2-0.2-0.3-0.5-0.3-0.8c0-0.3,0.1-0.6,0.3-0.8
	c0.1-0.1,0.3-0.2,0.5-0.3l-0.2-0.2L22,20.8z"/>
<path class="st7" d="M29,22l0.4-0.3L26.5,18c-0.1-0.1-0.2-0.2-0.3-0.2c-0.1,0-0.3,0.1-0.4,0.2l-0.1-0.1l1.1-0.9l0.1,0.1l-0.4,0.3
	l2.8,3.6c0.1,0.1,0.1,0.1,0.2,0.2c0.1,0.1,0.1,0.1,0.2,0.1c0.1-0.1,0.2-0.1,0.3-0.2l0.1,0.1l-1.2,0.9L29,22z"/>
<path class="st7" d="M32.6,19.4l0.4-0.2l-2.3-4.1c-0.1-0.2-0.3-0.3-0.5-0.2c0,0-0.1,0-0.1,0.1L30,15l-0.1-0.1l1.9-1.1
	c0.3-0.2,0.7-0.3,1.1-0.4c0.3-0.1,0.7-0.1,1,0c0.2,0.1,0.4,0.1,0.6,0.2c0.2,0.1,0.4,0.3,0.6,0.4c0.2,0.2,0.3,0.3,0.4,0.5
	c0.3,0.6,0.4,1.2,0.3,1.9c0,0.3-0.1,0.5-0.2,0.7c-0.1,0.3-0.3,0.5-0.5,0.7c-0.3,0.3-0.6,0.5-0.9,0.7l-1.5,0.9L32.6,19.4L32.6,19.4
	L32.6,19.4z M35.2,14.9c-0.2-0.4-0.5-0.7-0.9-0.9c-0.4-0.2-0.8-0.3-1.2-0.3c-0.4,0-0.8,0.1-1.2,0.3c-0.3,0.2-0.6,0.4-0.9,0.7
	l2.4,4.1c0.4-0.1,0.8-0.2,1.1-0.5c0.4-0.2,0.7-0.5,0.9-0.9c0.2-0.4,0.3-0.8,0.3-1.3C35.5,15.7,35.4,15.3,35.2,14.9z"/>
<path class="st7" d="M42.6,14.7l-2.1-2.8l-0.6,0.2l0.2,2.4c0,0.2,0.1,0.4,0.1,0.6c0,0.1,0.1,0.2,0.2,0.2c0.1,0,0.2,0,0.3,0
	c0.1,0,0.2-0.1,0.3-0.1l0,0.1l-1.4,0.5l0-0.1l0.3-0.1l-0.6-5.6l0.1,0l2.8,3.7c0.1,0.1,0.2,0.3,0.3,0.4c0.1,0.1,0.2,0.2,0.3,0.3
	c0.1,0.1,0.3,0.1,0.4,0l0,0.1L42.2,15l0-0.1L42.6,14.7L42.6,14.7L42.6,14.7z M40.4,11.7l-0.6-0.9h0l0.1,1.1L40.4,11.7z"/>
<path class="st7" d="M46.1,13.6l0.5-0.1l-0.8-4.6c0-0.2-0.2-0.4-0.4-0.3c0,0-0.1,0-0.1,0l-0.1,0l0-0.1l2.2-0.4C47.8,8,48.2,8,48.5,8
	c0.3,0.1,0.6,0.2,0.9,0.4c0.4,0.3,0.7,0.6,0.9,1c0.1,0.2,0.2,0.4,0.2,0.7c0.1,0.7,0,1.3-0.3,1.9c-0.1,0.2-0.3,0.4-0.5,0.6
	c-0.2,0.2-0.5,0.4-0.7,0.5c-0.4,0.2-0.7,0.3-1.1,0.3l-1.8,0.3L46.1,13.6L46.1,13.6L46.1,13.6z M50.2,10.2c-0.1-0.4-0.3-0.8-0.6-1.1
	c-0.3-0.3-0.6-0.6-1-0.7c-0.4-0.1-0.8-0.2-1.2-0.1c-0.4,0-0.8,0.2-1.1,0.4l0.8,4.6c0.4,0.1,0.8,0,1.2,0c0.4-0.1,0.8-0.3,1.1-0.6
	c0.3-0.3,0.6-0.7,0.7-1.1C50.2,11.1,50.2,10.6,50.2,10.2z"/>
<path class="st7" d="M58.8,12.4l0.5,0.1l0.6-4.6c0-0.2-0.1-0.4-0.3-0.4c0,0-0.1,0-0.1,0l-0.1,0l0-0.1l2.2,0.3c0.4,0,0.8,0.1,1.1,0.3
	C63,8,63.2,8.2,63.4,8.5c0.1,0.2,0.3,0.4,0.4,0.6C63.9,9.2,64,9.5,64,9.7c0,0.2,0,0.5,0,0.7c-0.1,0.7-0.4,1.3-0.9,1.7
	c-0.2,0.2-0.4,0.3-0.6,0.5c-0.3,0.1-0.5,0.2-0.8,0.2c-0.4,0.1-0.8,0.1-1.1,0l-1.8-0.2L58.8,12.4L58.8,12.4L58.8,12.4z M63.6,10.4
	c0-0.4,0-0.9-0.2-1.2c-0.2-0.4-0.4-0.7-0.8-1c-0.3-0.3-0.7-0.4-1.2-0.5c-0.4-0.1-0.8-0.1-1.1,0l-0.6,4.7c0.4,0.2,0.8,0.3,1.2,0.3
	c0.4,0.1,0.9,0,1.2-0.2c0.4-0.2,0.7-0.5,1-0.8C63.4,11.3,63.5,10.8,63.6,10.4L63.6,10.4z"/>
<path class="st7" d="M69.2,14.5l-2.4-0.6l0-0.1l0.5,0.1l1.2-4.5c0-0.1,0-0.2,0-0.3c-0.1-0.1-0.2-0.2-0.4-0.2l0-0.1l2.5,0.7L70.7,9
	l0.1,0l-0.5,1.7l-0.1,0l0.1-0.3c0.1-0.4,0.1-0.7-0.1-0.9c-0.3-0.2-0.6-0.4-1-0.4L69,9.1l-0.3,1.3l0.7,0.2l0.2-0.8l0.1,0l-0.5,1.9
	l-0.1,0c0.1-0.2,0.1-0.4,0.1-0.6c0-0.2-0.1-0.3-0.2-0.4c-0.1-0.1-0.2-0.1-0.3-0.1L67.7,14c0.3,0.1,0.6,0.1,0.9,0.2
	c0.2,0,0.4-0.1,0.5-0.2c0.1-0.2,0.2-0.4,0.3-0.6l0.1-0.4l0.1,0l-0.5,1.9l-0.1,0L69.2,14.5z"/>
<path class="st7" d="M80.4,13.6l-0.1,0.1l-0.4-0.2l-2.5,4.4c0.2,0.1,0.4,0.2,0.6,0.3c0.2,0.1,0.4,0.1,0.6,0.1c0.2,0,0.4-0.2,0.5-0.4
	l0.7-1.1l0.1,0.1l-1.3,2.3L78.4,19l0.2-0.3l-2.1-1.2l0.1-0.1l0.4,0.2l2.4-4.1c0.1-0.1,0.1-0.2,0-0.3c-0.1-0.1-0.2-0.2-0.3-0.2
	l0.1-0.1L80.4,13.6z"/>
<path class="st7" d="M83.7,22.3L85,19l-0.5-0.4l-1.9,1.5c-0.2,0.1-0.3,0.3-0.4,0.4C82,20.6,82,20.7,82,20.7c0,0.1,0.1,0.2,0.2,0.2
	c0.1,0.1,0.2,0.2,0.3,0.2l-0.1,0.1l-1.1-0.9l0.1-0.1l0.3,0.2L86,17l0.1,0.1l-1.6,4.3c-0.1,0.1-0.1,0.3-0.2,0.5
	c-0.1,0.1-0.1,0.3-0.1,0.5c0,0.1,0.1,0.3,0.2,0.4l-0.1,0.1L83.2,22l0.1-0.1L83.7,22.3L83.7,22.3L83.7,22.3z M85.1,18.8l0.4-1h0
	l-0.8,0.7L85.1,18.8z"/>
<path class="st7" d="M95.9,27l-1.7,1.3l-0.1-0.1l0.4-0.3c0.2-0.2,0.4-0.4,0.6-0.6c0.1-0.2,0.1-0.5-0.1-0.7c-0.1-0.1-0.2-0.2-0.3-0.2
	c-0.2-0.1-0.5-0.1-0.7,0.1c-0.1,0.1-0.3,0.3-0.3,0.4c0,0.2-0.1,0.4,0,0.5c0,0.2,0.1,0.4,0.1,0.7c0.1,0.3,0.1,0.6,0.1,0.9
	c0,0.2,0,0.5-0.1,0.7c-0.1,0.2-0.2,0.4-0.4,0.6c-0.2,0.2-0.4,0.3-0.7,0.3c-0.2,0-0.5,0-0.7,0c-0.3-0.1-0.5-0.2-0.7-0.3
	c-0.2-0.2-0.4-0.3-0.6-0.6c-0.2-0.3-0.4-0.6-0.5-0.9c-0.1-0.3-0.1-0.6,0-1c0.1-0.3,0.3-0.6,0.6-0.8c0.2-0.2,0.5-0.3,0.7-0.3
	c0.3,0,0.5,0,0.8,0.1c0.2,0.1,0.5,0.2,0.6,0.5c0.1,0.1,0.2,0.3,0.2,0.5c0,0.2,0,0.3,0,0.5c0,0.2-0.1,0.3-0.3,0.4
	c-0.1,0.1-0.3,0.2-0.5,0.1c-0.2,0-0.3-0.1-0.4-0.2c0-0.1-0.1-0.1-0.1-0.2l0.2-0.1c0.2,0.2,0.4,0.2,0.6,0c0.1-0.1,0.2-0.2,0.2-0.3
	c0-0.1,0.1-0.2,0-0.4c0-0.1-0.1-0.3-0.1-0.4c-0.1-0.2-0.3-0.3-0.5-0.3c-0.2,0-0.4,0-0.6,0c-0.2,0-0.4,0.1-0.5,0.2
	c-0.2,0.2-0.4,0.4-0.5,0.7c-0.3,0.6-0.2,1.2,0.2,1.7c0.2,0.2,0.4,0.4,0.7,0.5c0.3,0.1,0.5,0.2,0.8,0.2c0.3,0,0.5-0.1,0.7-0.3
	c0.2-0.1,0.3-0.3,0.4-0.5c0.1-0.2,0.1-0.4,0.1-0.6c0-0.3-0.1-0.5-0.1-0.8c0-0.2-0.1-0.5-0.1-0.7c0-0.2,0-0.4,0.1-0.6
	c0.1-0.2,0.2-0.4,0.4-0.5c0.2-0.2,0.5-0.3,0.8-0.2c0.3,0.1,0.6,0.2,0.8,0.4c0.1,0.2,0.2,0.3,0.2,0.5l0.2-0.2L95.9,27z"/>
<path class="st7" d="M94.8,35.9l-1.3-2.2l0.1-0.1l0.2,0.4l4.1-2.3c0.1,0,0.2-0.1,0.2-0.3c0-0.1-0.1-0.3-0.1-0.4l0.1-0.1l1.3,2.2
	l0.3-0.2l0.1,0.1l-1.6,0.9L98.2,34l0.2-0.1c0.4-0.2,0.6-0.5,0.6-0.7c0-0.4-0.2-0.7-0.4-1L98.6,32l-1.1,0.7l0.4,0.6l0.7-0.4l0.1,0.1
	l-1.7,1l-0.1-0.1c0.2-0.1,0.3-0.2,0.5-0.4c0.1-0.1,0.2-0.3,0.1-0.4c0-0.1-0.1-0.2-0.1-0.3l-3.1,1.8c0.2,0.3,0.3,0.5,0.5,0.8
	c0.1,0.1,0.3,0.2,0.6,0.2c0.2,0,0.4-0.1,0.6-0.2l0.4-0.2l0.1,0.1l-1.7,1l-0.1-0.1L94.8,35.9z"/>
<path class="st7" d="M101.2,36.9l0.4,0.9l-0.5,0.2c0.5,0.3,0.9,0.7,1.1,1.2c0.1,0.4,0.2,0.8,0.2,1.2c0,0.4-0.2,0.8-0.4,1.1
	c-0.2,0.3-0.5,0.6-0.9,0.7c-0.4,0.2-0.8,0.2-1.2,0.1c-0.4-0.1-0.8-0.2-1.1-0.5c-0.3-0.3-0.6-0.6-0.7-1h0c0,0.1,0,0.4-0.1,0.7
	c0,0.3,0,0.6,0,0.9c0,0.2,0.1,0.5,0.1,0.7c0,0.1,0.1,0.2,0.2,0.3l0,0.1c-0.2-0.1-0.3-0.3-0.4-0.5c-0.1-0.2-0.1-0.4-0.2-0.6
	c0-0.2-0.1-0.4-0.1-0.6c0-0.2,0-0.4,0-0.8c0-0.6,0.1-1.2,0.2-1.8l-0.7,0.3c-0.1,0-0.2,0.1-0.2,0.1c0,0-0.1,0.1,0,0.2
	c0,0.1,0,0.2,0.1,0.3c0,0.1,0.1,0.1,0.1,0.2l-0.1,0.1L96.2,39l0.1-0.1l0.2,0.4l4.4-1.8c0.2-0.1,0.3-0.3,0.2-0.5l0-0.1L101.2,36.9
	L101.2,36.9L101.2,36.9z M100.8,38.1l-2.7,1.1l0.2,0c-0.2,0.7-0.2,1.2,0,1.6c0.1,0.3,0.3,0.6,0.6,0.8c0.6,0.4,1.3,0.5,1.9,0.2
	c0.3-0.1,0.6-0.4,0.9-0.7c0.2-0.3,0.4-0.6,0.4-1c0.1-0.4,0-0.7-0.1-1.1C101.7,38.7,101.3,38.3,100.8,38.1L100.8,38.1z"/>
<path class="st7" d="M99.2,49l-0.5-2.5l0.1,0L99,47l4.6-0.9c0.1,0,0.2-0.1,0.3-0.2c0-0.1,0-0.3,0-0.4l0.1,0l0.5,2.5l0.3-0.1l0,0.1
	l-1.8,0.3l0-0.1l0.3-0.1c0.4-0.1,0.7-0.2,0.8-0.5c0.1-0.3,0.1-0.7,0-1.1l0-0.2l-1.3,0.2l0.1,0.7l0.8-0.2l0,0.1l-1.9,0.4l0-0.1
	c0.2,0,0.4-0.1,0.6-0.2c0.1-0.1,0.2-0.2,0.3-0.3c0-0.1,0-0.2,0-0.4l-3.5,0.7c0.1,0.3,0.1,0.6,0.2,0.9c0.1,0.2,0.3,0.3,0.4,0.4
	c0.2,0.1,0.4,0.1,0.7,0l0.4-0.1l0,0.1l-1.9,0.4l0-0.1L99.2,49z"/>
<path class="st7" d="M99.8,52.4l0,0.4l4.3-0.4c0.2,0,0.3,0,0.5-0.1c0.2-0.1,0.2-0.3,0.2-0.6l0.2,0l0.1,0.8l-4.3,2.5v0l3.8-0.3
	c0.1,0,0.3-0.1,0.4-0.2c0.1-0.1,0.1-0.3,0.1-0.4l0.2,0l0.1,1.2l-0.2,0l0-0.4l-5.5,0.5v-0.1l4.3-2.5l0,0l-3.4,0.3
	c-0.2,0-0.4,0.1-0.5,0.2c-0.1,0.1-0.1,0.3-0.1,0.4l-0.2,0l-0.1-1.3L99.8,52.4z"/>
<path class="st7" d="M99.7,61.7l3.4-0.8l0-0.7l-2.3-0.7c-0.2-0.1-0.4-0.1-0.6-0.1c-0.1,0-0.2,0-0.3,0.1c-0.1,0.1-0.1,0.2-0.1,0.3
	c0,0.1,0,0.2,0,0.4h-0.2l0.1-1.4h0.2l0,0.3l5.4,1.7v0.1l-4.5,1.1l-0.5,0.1c-0.2,0-0.3,0.1-0.4,0.2c-0.1,0.1-0.2,0.2-0.2,0.4h-0.2
	l0.1-1.3h0.2L99.7,61.7L99.7,61.7L99.7,61.7z M103.4,60.9l1.1-0.2v0l-1-0.3L103.4,60.9z"/>
<line class="st7" x1="22.8" y1="80.4" x2="14.9" y2="88.3"/>
<path class="st4" d="M45.4,100.2l0.2-0.5l0.1,0l-0.7,2l-0.1,0c0.1-0.3,0.2-0.6,0.2-0.9c0-0.2,0-0.4-0.1-0.6
	c-0.1-0.2-0.3-0.4-0.4-0.5c-0.2-0.2-0.4-0.3-0.7-0.4c-0.4-0.2-0.9-0.2-1.4-0.1c-0.4,0.1-0.8,0.3-1.1,0.6c-0.3,0.3-0.5,0.7-0.7,1.1
	c-0.1,0.3-0.2,0.7-0.2,1c0,0.4,0.1,0.7,0.2,1c0.1,0.3,0.3,0.6,0.6,0.9c0.3,0.2,0.6,0.4,0.9,0.6c0.3,0.1,0.7,0.2,1,0.1
	c0.3,0,0.6-0.1,0.9-0.3l0.1,0.2c-0.3,0.2-0.7,0.2-1.1,0.2c-0.4,0-0.7,0-1.1-0.1c-0.5-0.2-0.9-0.5-1.3-0.8c-0.3-0.4-0.6-0.8-0.7-1.3
	c-0.2-0.9,0.1-1.8,0.7-2.5c0.3-0.3,0.6-0.5,1-0.7c0.4-0.2,0.8-0.2,1.2-0.2c0.4,0,0.8,0,1.2,0.2C44.6,99.5,45,99.8,45.4,100.2z"/>
<path class="st4" d="M52,101l-0.7,4.7c0,0.1,0,0.2,0,0.3c0.1,0.1,0.2,0.1,0.3,0.2c0,0,0.1,0,0.1,0l0,0.2l-1.5-0.2l0-0.2l0.5,0.1
	l0.5-3.6l-1.7-0.2l-0.4,3.2c0,0.1,0,0.3,0.1,0.4c0.1,0.1,0.3,0.1,0.4,0.1l0,0.2l-1.5-0.2l0-0.2l0.5,0.1l0.7-4.8
	c0-0.3-0.1-0.4-0.4-0.4l-0.1,0l0-0.2l1.5,0.2l0,0.2l-0.5-0.1l-0.2,1.4l1.7,0.2l0.1-1c0-0.1,0-0.2-0.1-0.3c-0.1-0.1-0.2-0.1-0.3-0.1
	l-0.1,0l0-0.2l1.5,0.2l0,0.2L52,101z"/>
<path class="st4" d="M55.9,106.3l0.5,0l-0.2-4.8c0-0.1,0-0.2-0.2-0.3c-0.1-0.1-0.3-0.1-0.4-0.1v-0.2l1.5-0.1v0.2l-0.5,0l0.2,4.7
	c0,0.1,0,0.2,0,0.3c0,0.1,0.1,0.1,0.1,0.2c0.1,0,0.3,0,0.4,0v0.2l-1.5,0.1V106.3z"/>
<path class="st4" d="M61.7,100.3l0,0.2l-0.5,0.1l1,5.1c0.2,0,0.5-0.1,0.7-0.2c0.2-0.1,0.4-0.2,0.5-0.3c0.1-0.2,0.2-0.4,0.1-0.6
	l-0.2-1.3l0.2,0l0.5,2.6l-0.2,0l-0.1-0.3l-2.4,0.5l0-0.2l0.5-0.1l-0.9-4.7c0-0.1-0.1-0.2-0.2-0.3c-0.1,0-0.3,0-0.4,0l0-0.2
	L61.7,100.3z"/>
<path class="st4" d="M70.3,103.8l-2.4,0.8l0-0.1l0.5-0.2l-1.5-4.5c0-0.1-0.1-0.2-0.2-0.3c-0.1,0-0.3,0-0.4,0.1l0-0.1l2.5-0.8
	l-0.1-0.3l0.1,0l0.6,1.7l-0.1,0.1l-0.1-0.3c-0.1-0.4-0.3-0.7-0.6-0.7c-0.4,0-0.7,0-1.1,0.2l-0.2,0.1l0.4,1.3l0.7-0.2l-0.3-0.8l0.1,0
	l0.7,1.9l-0.1,0c-0.1-0.2-0.1-0.4-0.2-0.6c-0.1-0.1-0.2-0.2-0.4-0.2c-0.1,0-0.2,0-0.4,0.1l1.2,3.4c0.3-0.1,0.6-0.2,0.9-0.4
	c0.2-0.1,0.3-0.3,0.3-0.5c0-0.2,0-0.4-0.1-0.7l-0.1-0.4l0.1-0.1l0.6,1.9l-0.1,0L70.3,103.8z"/>
<path class="st7" d="M45.4,100.2l0.2-0.5l0.1,0l-0.7,2l-0.1,0c0.1-0.3,0.2-0.6,0.2-0.9c0-0.2,0-0.4-0.1-0.6
	c-0.1-0.2-0.3-0.4-0.4-0.5c-0.2-0.2-0.4-0.3-0.7-0.4c-0.4-0.2-0.9-0.2-1.4-0.1c-0.4,0.1-0.8,0.3-1.1,0.6c-0.3,0.3-0.5,0.7-0.7,1.1
	c-0.1,0.3-0.2,0.7-0.2,1c0,0.4,0.1,0.7,0.2,1c0.1,0.3,0.3,0.6,0.6,0.9c0.3,0.2,0.6,0.4,0.9,0.6c0.3,0.1,0.7,0.2,1,0.1
	c0.3,0,0.6-0.1,0.9-0.3l0.1,0.2c-0.3,0.2-0.7,0.2-1.1,0.2c-0.4,0-0.7,0-1.1-0.1c-0.5-0.2-0.9-0.5-1.3-0.8c-0.3-0.4-0.6-0.8-0.7-1.3
	c-0.2-0.9,0.1-1.8,0.7-2.5c0.3-0.3,0.6-0.5,1-0.7c0.4-0.2,0.8-0.2,1.2-0.2c0.4,0,0.8,0,1.2,0.2C44.6,99.5,45,99.8,45.4,100.2z"/>
<path class="st7" d="M52,101l-0.7,4.7c0,0.1,0,0.2,0,0.3c0.1,0.1,0.2,0.1,0.3,0.2c0,0,0.1,0,0.1,0l0,0.2l-1.5-0.2l0-0.2l0.5,0.1
	l0.5-3.6l-1.7-0.2l-0.4,3.2c0,0.1,0,0.3,0.1,0.4c0.1,0.1,0.3,0.1,0.4,0.1l0,0.2l-1.5-0.2l0-0.2l0.5,0.1l0.7-4.8
	c0-0.3-0.1-0.4-0.4-0.4l-0.1,0l0-0.2l1.5,0.2l0,0.2l-0.5-0.1l-0.2,1.4l1.7,0.2l0.1-1c0-0.1,0-0.2-0.1-0.3c-0.1-0.1-0.2-0.1-0.3-0.1
	l-0.1,0l0-0.2l1.5,0.2l0,0.2L52,101z"/>
<path class="st7" d="M55.9,106.3l0.5,0l-0.2-4.8c0-0.1,0-0.2-0.2-0.3c-0.1-0.1-0.3-0.1-0.4-0.1v-0.2l1.5-0.1v0.2l-0.5,0l0.2,4.7
	c0,0.1,0,0.2,0,0.3c0,0.1,0.1,0.1,0.1,0.2c0.1,0,0.3,0,0.4,0v0.2l-1.5,0.1V106.3z"/>
<path class="st7" d="M61.7,100.3l0,0.2l-0.5,0.1l1,5.1c0.2,0,0.5-0.1,0.7-0.2c0.2-0.1,0.4-0.2,0.5-0.3c0.1-0.2,0.2-0.4,0.1-0.6
	l-0.2-1.3l0.2,0l0.5,2.6l-0.2,0l-0.1-0.3l-2.4,0.5l0-0.2l0.5-0.1l-0.9-4.7c0-0.1-0.1-0.2-0.2-0.3c-0.1,0-0.3,0-0.4,0l0-0.2
	L61.7,100.3z"/>
<path class="st7" d="M70.3,103.8l-2.4,0.8l0-0.1l0.5-0.2l-1.5-4.5c0-0.1-0.1-0.2-0.2-0.3c-0.1,0-0.3,0-0.4,0.1l0-0.1l2.5-0.8
	l-0.1-0.3l0.1,0l0.6,1.7l-0.1,0.1l-0.1-0.3c-0.1-0.4-0.3-0.7-0.6-0.7c-0.4,0-0.7,0-1.1,0.2l-0.2,0.1l0.4,1.3l0.7-0.2l-0.3-0.8l0.1,0
	l0.7,1.9l-0.1,0c-0.1-0.2-0.1-0.4-0.2-0.6c-0.1-0.1-0.2-0.2-0.4-0.2c-0.1,0-0.2,0-0.4,0.1l1.2,3.4c0.3-0.1,0.6-0.2,0.9-0.4
	c0.2-0.1,0.3-0.3,0.3-0.5c0-0.2,0-0.4-0.1-0.7l-0.1-0.4l0.1-0.1l0.6,1.9l-0.1,0L70.3,103.8z"/>
<line class="st8" x1="90" y1="80.9" x2="97.3" y2="88.2"/>
<line class="st7" x1="90" y1="80.9" x2="97.3" y2="88.2"/>
</svg>
