<svg xmlns="http://www.w3.org/2000/svg" width="1920" height="400"><path d="M-32,575L-150,555L268,632Z" fill="#8393bf" stroke="#8393bf" stroke-width="1.51"/><path d="M-106,-182L26,-175L524,-211Z" fill="#e1ecf8" stroke="#e1ecf8" stroke-width="1.51"/><path d="M726,629L268,632L870,630Z" fill="#5f7eab" stroke="#5f7eab" stroke-width="1.51"/><path d="M524,-211L810,-196L1054,-224Z" fill="#bcd9ec" stroke="#bcd9ec" stroke-width="1.51"/><path d="M1371,-164L1506,-155L1700,-191Z" fill="#90afd8" stroke="#90afd8" stroke-width="1.51"/><path d="M1172,-221L1371,-164L1700,-191Z" fill="#97b7dc" stroke="#97b7dc" stroke-width="1.51"/><path d="M1560,589L1275,616L1904,614Z" fill="#155599" stroke="#155599" stroke-width="1.51"/><path d="M1653,565L1560,589L1904,614Z" fill="#105197" stroke="#105197" stroke-width="1.51"/><path d="M1700,-191L1758,-172L1970,-206Z" fill="#8b9fcc" stroke="#8b9fcc" stroke-width="1.51"/><path d="M1054,-224L1172,-221L2042,-227Z" fill="#9ab9dd" stroke="#9ab9dd" stroke-width="1.51"/><path d="M1700,-191L1970,-206L2042,-227Z" fill="#8a99c6" stroke="#8a99c6" stroke-width="1.51"/><path d="M1172,-221L1700,-191L2042,-227Z" fill="#92abd5" stroke="#92abd5" stroke-width="1.51"/><path d="M2042,-227L1970,-206L2050,-84Z" fill="#8290ba" stroke="#8290ba" stroke-width="1.51"/><path d="M1904,614L1275,616L2055,621Z" fill="#0e4b8f" stroke="#0e4b8f" stroke-width="1.51"/><path d="M1275,616L870,630L2055,621Z" fill="#215c9a" stroke="#215c9a" stroke-width="1.51"/><path d="M1971,494L2055,621L2061,445Z" fill="#0c498e" stroke="#0c498e" stroke-width="1.51"/><path d="M1910,308L2061,445L2067,295Z" fill="#25619f" stroke="#25619f" stroke-width="1.51"/><path d="M2042,-227L2050,-84L2091,194Z" fill="#7285b2" stroke="#7285b2" stroke-width="1.51"/><path d="M2061,445L2055,621L2091,194Z" fill="#185495" stroke="#185495" stroke-width="1.51"/><path d="M1903,190L2067,295L2091,194Z" fill="#3c6fa7" stroke="#3c6fa7" stroke-width="1.51"/><path d="M2023,72L1903,190L2091,194Z" fill="#4e79ac" stroke="#4e79ac" stroke-width="1.51"/><path d="M2050,-84L2023,72L2091,194Z" fill="#617fac" stroke="#617fac" stroke-width="1.51"/><path d="M2067,295L2061,445L2091,194Z" fill="#2a639c" stroke="#2a639c" stroke-width="1.51"/><path d="M1901,29L2023,72L2050,-84Z" fill="#6d86b6" stroke="#6d86b6" stroke-width="1.51"/><path d="M1914,-85L1901,29L2050,-84Z" fill="#768cbb" stroke="#768cbb" stroke-width="1.51"/><path d="M1910,308L1971,494L2061,445Z" fill="#195a9d" stroke="#195a9d" stroke-width="1.51"/><path d="M1903,190L1910,308L2067,295Z" fill="#366faa" stroke="#366faa" stroke-width="1.51"/><path d="M1970,-206L1914,-85L2050,-84Z" fill="#7e90bc" stroke="#7e90bc" stroke-width="1.51"/><path d="M1971,494L1904,614L2055,621Z" fill="#094488" stroke="#094488" stroke-width="1.51"/><path d="M1128,601L870,630L1275,616Z" fill="#386ca5" stroke="#386ca5" stroke-width="1.51"/><path d="M1901,29L1903,190L2023,72Z" fill="#5d83b5" stroke="#5d83b5" stroke-width="1.51"/><path d="M1901,29L1834,62L1903,190Z" fill="#5f87ba" stroke="#5f87ba" stroke-width="1.51"/><path d="M1758,-172L1914,-85L1970,-206Z" fill="#8598c6" stroke="#8598c6" stroke-width="1.51"/><path d="M1822,558L1904,614L1971,494Z" fill="#094b93" stroke="#094b93" stroke-width="1.51"/><path d="M1910,308L1778,435L1971,494Z" fill="#1a60a5" stroke="#1a60a5" stroke-width="1.51"/><path d="M1778,435L1822,558L1971,494Z" fill="#0f569f" stroke="#0f569f" stroke-width="1.51"/><path d="M1804,155L1764,323L1903,190Z" fill="#417cb8" stroke="#417cb8" stroke-width="1.51"/><path d="M1834,62L1804,155L1903,190Z" fill="#5685bb" stroke="#5685bb" stroke-width="1.51"/><path d="M1822,558L1653,565L1904,614Z" fill="#0c4e95" stroke="#0c4e95" stroke-width="1.51"/><path d="M1903,190L1764,323L1910,308Z" fill="#3674b2" stroke="#3674b2" stroke-width="1.51"/><path d="M1764,323L1778,435L1910,308Z" fill="#266caf" stroke="#266caf" stroke-width="1.51"/><path d="M1821,-61L1901,29L1914,-85Z" fill="#7891c2" stroke="#7891c2" stroke-width="1.51"/><path d="M1758,-172L1821,-61L1914,-85Z" fill="#8198c9" stroke="#8198c9" stroke-width="1.51"/><path d="M1821,-61L1834,62L1901,29Z" fill="#708fc1" stroke="#708fc1" stroke-width="1.51"/><path d="M1682,284L1764,323L1804,155Z" fill="#3c7db8" stroke="#3c7db8" stroke-width="1.51"/><path d="M1633,-23L1663,66L1821,-61Z" fill="#7899c9" stroke="#7899c9" stroke-width="1.51"/><path d="M1778,435L1715,483L1822,558Z" fill="#135ba4" stroke="#135ba4" stroke-width="1.51"/><path d="M1821,-61L1663,66L1834,62Z" fill="#7193c5" stroke="#7193c5" stroke-width="1.51"/><path d="M1663,66L1804,155L1834,62Z" fill="#628ec1" stroke="#628ec1" stroke-width="1.51"/><path d="M1646,221L1682,284L1804,155Z" fill="#4483bd" stroke="#4483bd" stroke-width="1.51"/><path d="M1758,-172L1633,-23L1821,-61Z" fill="#819ccc" stroke="#819ccc" stroke-width="1.51"/><path d="M1715,483L1653,565L1822,558Z" fill="#1058a1" stroke="#1058a1" stroke-width="1.51"/><path d="M1663,66L1646,221L1804,155Z" fill="#578bc1" stroke="#578bc1" stroke-width="1.51"/><path d="M1682,284L1583,365L1715,483Z" fill="#2771b4" stroke="#2771b4" stroke-width="1.51"/><path d="M1700,-191L1633,-23L1758,-172Z" fill="#87a1cf" stroke="#87a1cf" stroke-width="1.51"/><path d="M1682,284L1715,483L1764,323Z" fill="#2770b2" stroke="#2770b2" stroke-width="1.51"/><path d="M1764,323L1715,483L1778,435Z" fill="#1d67ad" stroke="#1d67ad" stroke-width="1.51"/><path d="M1172,-221L1325,-167L1371,-164Z" fill="#9bbedf" stroke="#9bbedf" stroke-width="1.51"/><path d="M1576,170L1646,221L1663,66Z" fill="#5790c5" stroke="#5790c5" stroke-width="1.51"/><path d="M1506,-155L1633,-23L1700,-191Z" fill="#88a6d3" stroke="#88a6d3" stroke-width="1.51"/><path d="M1516,426L1653,565L1715,483Z" fill="#1963aa" stroke="#1963aa" stroke-width="1.51"/><path d="M1583,365L1516,426L1715,483Z" fill="#206eb2" stroke="#206eb2" stroke-width="1.51"/><path d="M1506,-155L1543,-39L1633,-23Z" fill="#84a6d3" stroke="#84a6d3" stroke-width="1.51"/><path d="M1516,426L1560,589L1653,565Z" fill="#1761a8" stroke="#1761a8" stroke-width="1.51"/><path d="M1646,221L1583,365L1682,284Z" fill="#377fbb" stroke="#377fbb" stroke-width="1.51"/><path d="M1633,-23L1554,46L1663,66Z" fill="#739ccc" stroke="#739ccc" stroke-width="1.51"/><path d="M1554,46L1576,170L1663,66Z" fill="#6698c8" stroke="#6698c8" stroke-width="1.51"/><path d="M1576,170L1583,365L1646,221Z" fill="#4085bf" stroke="#4085bf" stroke-width="1.51"/><path d="M1576,170L1443,304L1583,365Z" fill="#3c86c1" stroke="#3c86c1" stroke-width="1.51"/><path d="M1396,548L1275,616L1560,589Z" fill="#2161a3" stroke="#2161a3" stroke-width="1.51"/><path d="M1543,-39L1554,46L1633,-23Z" fill="#7aa1cf" stroke="#7aa1cf" stroke-width="1.51"/><path d="M26,-175L392,-184L524,-211Z" fill="#dae8f6" stroke="#dae8f6" stroke-width="1.51"/><path d="M1516,426L1403,499L1560,589Z" fill="#1f69ae" stroke="#1f69ae" stroke-width="1.51"/><path d="M1554,46L1413,55L1576,170Z" fill="#699dcc" stroke="#699dcc" stroke-width="1.51"/><path d="M1443,304L1516,426L1583,365Z" fill="#2e7bbb" stroke="#2e7bbb" stroke-width="1.51"/><path d="M1403,499L1396,548L1560,589Z" fill="#1f65aa" stroke="#1f65aa" stroke-width="1.51"/><path d="M1369,238L1443,304L1576,170Z" fill="#488fc6" stroke="#488fc6" stroke-width="1.51"/><path d="M1413,55L1369,238L1576,170Z" fill="#5c99ca" stroke="#5c99ca" stroke-width="1.51"/><path d="M1506,-155L1436,-62L1543,-39Z" fill="#88abd6" stroke="#88abd6" stroke-width="1.51"/><path d="M1543,-39L1413,55L1554,46Z" fill="#78a4d0" stroke="#78a4d0" stroke-width="1.51"/><path d="M1436,-62L1413,55L1543,-39Z" fill="#80a8d4" stroke="#80a8d4" stroke-width="1.51"/><path d="M1443,304L1403,499L1516,426Z" fill="#2a78b9" stroke="#2a78b9" stroke-width="1.51"/><path d="M1371,-164L1436,-62L1506,-155Z" fill="#8fb1d9" stroke="#8fb1d9" stroke-width="1.51"/><path d="M1291,355L1301,465L1403,499Z" fill="#2e7bba" stroke="#2e7bba" stroke-width="1.51"/><path d="M1301,178L1369,238L1413,55Z" fill="#5f9fcd" stroke="#5f9fcd" stroke-width="1.51"/><path d="M1306,-46L1413,55L1436,-62Z" fill="#84add6" stroke="#84add6" stroke-width="1.51"/><path d="M1291,355L1403,499L1443,304Z" fill="#3380bd" stroke="#3380bd" stroke-width="1.51"/><path d="M1369,238L1291,355L1443,304Z" fill="#408dc4" stroke="#408dc4" stroke-width="1.51"/><path d="M1274,102L1301,178L1413,55Z" fill="#6ba6d1" stroke="#6ba6d1" stroke-width="1.51"/><path d="M1371,-164L1306,-46L1436,-62Z" fill="#8db3d9" stroke="#8db3d9" stroke-width="1.51"/><path d="M1306,-46L1274,102L1413,55Z" fill="#7bacd4" stroke="#7bacd4" stroke-width="1.51"/><path d="M1325,-167L1306,-46L1371,-164Z" fill="#93b8dc" stroke="#93b8dc" stroke-width="1.51"/><path d="M1301,465L1396,548L1403,499Z" fill="#2870b1" stroke="#2870b1" stroke-width="1.51"/><path d="M1301,465L1275,616L1396,548Z" fill="#286cae" stroke="#286cae" stroke-width="1.51"/><path d="M546,601L268,632L726,629Z" fill="#6882af" stroke="#6882af" stroke-width="1.51"/><path d="M1301,178L1291,355L1369,238Z" fill="#4b95c8" stroke="#4b95c8" stroke-width="1.51"/><path d="M1142,174L1136,347L1291,355Z" fill="#4c97c9" stroke="#4c97c9" stroke-width="1.51"/><path d="M1142,174L1291,355L1301,178Z" fill="#529ccb" stroke="#529ccb" stroke-width="1.51"/><path d="M1173,89L1274,102L1306,-46Z" fill="#7cb0d6" stroke="#7cb0d6" stroke-width="1.51"/><path d="M1172,-221L1306,-46L1325,-167Z" fill="#97bcde" stroke="#97bcde" stroke-width="1.51"/><path d="M1128,601L1275,616L1301,465Z" fill="#2d6ead" stroke="#2d6ead" stroke-width="1.51"/><path d="M1125,420L1128,601L1301,465Z" fill="#367ab8" stroke="#367ab8" stroke-width="1.51"/><path d="M1291,355L1125,420L1301,465Z" fill="#3684bf" stroke="#3684bf" stroke-width="1.51"/><path d="M1125,-25L1173,89L1306,-46Z" fill="#87b6da" stroke="#87b6da" stroke-width="1.51"/><path d="M1172,-221L1125,-25L1306,-46Z" fill="#95bddf" stroke="#95bddf" stroke-width="1.51"/><path d="M1274,102L1142,174L1301,178Z" fill="#65a6d1" stroke="#65a6d1" stroke-width="1.51"/><path d="M1173,89L1142,174L1274,102Z" fill="#6facd4" stroke="#6facd4" stroke-width="1.51"/><path d="M1136,347L1125,420L1291,355Z" fill="#408cc4" stroke="#408cc4" stroke-width="1.51"/><path d="M810,-196L932,-181L1054,-224Z" fill="#b0d2e9" stroke="#b0d2e9" stroke-width="1.51"/><path d="M1054,-224L995,-102L1125,-25Z" fill="#9fc6e3" stroke="#9fc6e3" stroke-width="1.51"/><path d="M1068,569L870,630L1128,601Z" fill="#3d72aa" stroke="#3d72aa" stroke-width="1.51"/><path d="M1125,420L1062,500L1128,601Z" fill="#3c7cb8" stroke="#3c7cb8" stroke-width="1.51"/><path d="M1062,500L1068,569L1128,601Z" fill="#3b76b2" stroke="#3b76b2" stroke-width="1.51"/><path d="M1005,221L1136,347L1142,174Z" fill="#5aa1cf" stroke="#5aa1cf" stroke-width="1.51"/><path d="M1054,-224L1125,-25L1172,-221Z" fill="#a0c5e3" stroke="#a0c5e3" stroke-width="1.51"/><path d="M1049,60L1142,174L1173,89Z" fill="#77b1d6" stroke="#77b1d6" stroke-width="1.51"/><path d="M1125,-25L1049,60L1173,89Z" fill="#85b8da" stroke="#85b8da" stroke-width="1.51"/><path d="M1005,221L1000,352L1136,347Z" fill="#539dcc" stroke="#539dcc" stroke-width="1.51"/><path d="M1049,60L1005,221L1142,174Z" fill="#70afd6" stroke="#70afd6" stroke-width="1.51"/><path d="M1000,352L1125,420L1136,347Z" fill="#4891c6" stroke="#4891c6" stroke-width="1.51"/><path d="M1000,352L1062,500L1125,420Z" fill="#448bc3" stroke="#448bc3" stroke-width="1.51"/><path d="M995,-102L1049,60L1125,-25Z" fill="#95bfe0" stroke="#95bfe0" stroke-width="1.51"/><path d="M920,95L1005,221L1049,60Z" fill="#7bb5d9" stroke="#7bb5d9" stroke-width="1.51"/><path d="M995,-102L920,95L1049,60Z" fill="#91bfdf" stroke="#91bfdf" stroke-width="1.51"/><path d="M932,-181L995,-102L1054,-224Z" fill="#a9cce7" stroke="#a9cce7" stroke-width="1.51"/><path d="M1000,352L919,473L1062,500Z" fill="#488bc3" stroke="#488bc3" stroke-width="1.51"/><path d="M1062,500L919,473L1068,569Z" fill="#4280ba" stroke="#4280ba" stroke-width="1.51"/><path d="M919,473L870,630L1068,569Z" fill="#457cb5" stroke="#457cb5" stroke-width="1.51"/><path d="M877,-68L920,95L995,-102Z" fill="#9dc6e3" stroke="#9dc6e3" stroke-width="1.51"/><path d="M913,355L919,473L1000,352Z" fill="#5195c9" stroke="#5195c9" stroke-width="1.51"/><path d="M920,95L903,190L1005,221Z" fill="#74b3d8" stroke="#74b3d8" stroke-width="1.51"/><path d="M913,355L1000,352L1005,221Z" fill="#58a0ce" stroke="#58a0ce" stroke-width="1.51"/><path d="M903,190L913,355L1005,221Z" fill="#64a8d2" stroke="#64a8d2" stroke-width="1.51"/><path d="M932,-181L877,-68L995,-102Z" fill="#a7cce6" stroke="#a7cce6" stroke-width="1.51"/><path d="M903,190L769,245L913,355Z" fill="#6aaad4" stroke="#6aaad4" stroke-width="1.51"/><path d="M913,355L788,461L919,473Z" fill="#5592c7" stroke="#5592c7" stroke-width="1.51"/><path d="M788,461L870,630L919,473Z" fill="#5185bd" stroke="#5185bd" stroke-width="1.51"/><path d="M877,-68L799,88L920,95Z" fill="#97c4e1" stroke="#97c4e1" stroke-width="1.51"/><path d="M810,-196L877,-68L932,-181Z" fill="#afd1e8" stroke="#afd1e8" stroke-width="1.51"/><path d="M761,-35L799,88L877,-68Z" fill="#a3cae4" stroke="#a3cae4" stroke-width="1.51"/><path d="M799,88L903,190L920,95Z" fill="#85bbdb" stroke="#85bbdb" stroke-width="1.51"/><path d="M720,294L788,461L913,355Z" fill="#629ecd" stroke="#629ecd" stroke-width="1.51"/><path d="M769,245L720,294L913,355Z" fill="#6aa9d2" stroke="#6aa9d2" stroke-width="1.51"/><path d="M799,88L769,245L903,190Z" fill="#7eb7da" stroke="#7eb7da" stroke-width="1.51"/><path d="M524,-211L644,-154L810,-196Z" fill="#c4dded" stroke="#c4dded" stroke-width="1.51"/><path d="M788,461L726,629L870,630Z" fill="#5480b5" stroke="#5480b5" stroke-width="1.51"/><path d="M810,-196L761,-35L877,-68Z" fill="#aed0e7" stroke="#aed0e7" stroke-width="1.51"/><path d="M642,595L546,601L726,629Z" fill="#6081b0" stroke="#6081b0" stroke-width="1.51"/><path d="M633,489L726,629L788,461Z" fill="#5f8bbf" stroke="#5f8bbf" stroke-width="1.51"/><path d="M624,217L769,245L799,88Z" fill="#84bbdc" stroke="#84bbdc" stroke-width="1.51"/><path d="M606,111L624,217L799,88Z" fill="#93c3df" stroke="#93c3df" stroke-width="1.51"/><path d="M644,-154L761,-35L810,-196Z" fill="#b7d6ea" stroke="#b7d6ea" stroke-width="1.51"/><path d="M633,489L642,595L726,629Z" fill="#6086b8" stroke="#6086b8" stroke-width="1.51"/><path d="M644,-154L632,-97L761,-35Z" fill="#b8d7ea" stroke="#b8d7ea" stroke-width="1.51"/><path d="M720,294L633,489L788,461Z" fill="#669ccb" stroke="#669ccb" stroke-width="1.51"/><path d="M761,-35L606,111L799,88Z" fill="#9fcae2" stroke="#9fcae2" stroke-width="1.51"/><path d="M604,321L633,489L720,294Z" fill="#70a6d0" stroke="#70a6d0" stroke-width="1.51"/><path d="M632,-97L606,111L761,-35Z" fill="#afd1e6" stroke="#afd1e6" stroke-width="1.51"/><path d="M624,217L720,294L769,245Z" fill="#7ab3d8" stroke="#7ab3d8" stroke-width="1.51"/><path d="M26,-175L220,-148L392,-184Z" fill="#dce9f6" stroke="#dce9f6" stroke-width="1.51"/><path d="M624,217L604,321L720,294Z" fill="#7bb3d7" stroke="#7bb3d7" stroke-width="1.51"/><path d="M26,-175L69,-162L220,-148Z" fill="#e0ecf7" stroke="#e0ecf7" stroke-width="1.51"/><path d="M547,298L467,491L604,321Z" fill="#79a8d3" stroke="#79a8d3" stroke-width="1.51"/><path d="M510,-71L463,78L606,111Z" fill="#b1d2e7" stroke="#b1d2e7" stroke-width="1.51"/><path d="M547,298L604,321L624,217Z" fill="#80b4d8" stroke="#80b4d8" stroke-width="1.51"/><path d="M510,-71L606,111L632,-97Z" fill="#b7d4e9" stroke="#b7d4e9" stroke-width="1.51"/><path d="M604,321L467,491L633,489Z" fill="#719ecd" stroke="#719ecd" stroke-width="1.51"/><path d="M633,489L546,601L642,595Z" fill="#6589bb" stroke="#6589bb" stroke-width="1.51"/><path d="M524,-211L632,-97L644,-154Z" fill="#c4ddee" stroke="#c4ddee" stroke-width="1.51"/><path d="M524,-211L510,-71L632,-97Z" fill="#c5ddee" stroke="#c5ddee" stroke-width="1.51"/><path d="M606,111L477,182L624,217Z" fill="#93c2e0" stroke="#93c2e0" stroke-width="1.51"/><path d="M467,491L546,601L633,489Z" fill="#6c90c3" stroke="#6c90c3" stroke-width="1.51"/><path d="M477,182L547,298L624,217Z" fill="#89bbdc" stroke="#89bbdc" stroke-width="1.51"/><path d="M463,78L477,182L606,111Z" fill="#a1cae2" stroke="#a1cae2" stroke-width="1.51"/><path d="M392,-184L510,-71L524,-211Z" fill="#cde1f1" stroke="#cde1f1" stroke-width="1.51"/><path d="M467,491L384,544L546,601Z" fill="#7190c2" stroke="#7190c2" stroke-width="1.51"/><path d="M384,544L268,632L546,601Z" fill="#728ab9" stroke="#728ab9" stroke-width="1.51"/><path d="M357,417L467,491L547,298Z" fill="#7ca6d2" stroke="#7ca6d2" stroke-width="1.51"/><path d="M340,364L357,417L547,298Z" fill="#83add6" stroke="#83add6" stroke-width="1.51"/><path d="M477,182L372,227L547,298Z" fill="#8fbdde" stroke="#8fbdde" stroke-width="1.51"/><path d="M372,227L340,364L547,298Z" fill="#8ab6db" stroke="#8ab6db" stroke-width="1.51"/><path d="M386,-53L463,78L510,-71Z" fill="#bfd7ec" stroke="#bfd7ec" stroke-width="1.51"/><path d="M392,-184L386,-53L510,-71Z" fill="#cbdff0" stroke="#cbdff0" stroke-width="1.51"/><path d="M386,-53L385,91L463,78Z" fill="#b8d5ea" stroke="#b8d5ea" stroke-width="1.51"/><path d="M463,78L385,91L477,182Z" fill="#a7cce5" stroke="#a7cce5" stroke-width="1.51"/><path d="M385,91L372,227L477,182Z" fill="#9fc7e3" stroke="#9fc7e3" stroke-width="1.51"/><path d="M357,417L384,544L467,491Z" fill="#7a9acb" stroke="#7a9acb" stroke-width="1.51"/><path d="M126,574L-32,575L268,632Z" fill="#7e90bd" stroke="#7e90bd" stroke-width="1.51"/><path d="M266,307L340,364L372,227Z" fill="#8fb9dc" stroke="#8fb9dc" stroke-width="1.51"/><path d="M276,241L266,307L372,227Z" fill="#96bfe0" stroke="#96bfe0" stroke-width="1.51"/><path d="M357,417L230,472L384,544Z" fill="#7e9ecd" stroke="#7e9ecd" stroke-width="1.51"/><path d="M276,241L372,227L385,91Z" fill="#9fc7e4" stroke="#9fc7e4" stroke-width="1.51"/><path d="M230,102L276,241L385,91Z" fill="#aacde6" stroke="#aacde6" stroke-width="1.51"/><path d="M272,-20L385,91L386,-53Z" fill="#c1d9ed" stroke="#c1d9ed" stroke-width="1.51"/><path d="M220,-148L272,-20L386,-53Z" fill="#cfe0f2" stroke="#cfe0f2" stroke-width="1.51"/><path d="M220,-148L386,-53L392,-184Z" fill="#d2e3f3" stroke="#d2e3f3" stroke-width="1.51"/><path d="M272,-20L230,102L385,91Z" fill="#bbd6eb" stroke="#bbd6eb" stroke-width="1.51"/><path d="M230,472L268,632L384,544Z" fill="#7b93c4" stroke="#7b93c4" stroke-width="1.51"/><path d="M340,364L230,472L357,417Z" fill="#83a8d4" stroke="#83a8d4" stroke-width="1.51"/><path d="M266,307L230,472L340,364Z" fill="#88aed7" stroke="#88aed7" stroke-width="1.51"/><path d="M156,480L126,574L230,472Z" fill="#839dcc" stroke="#839dcc" stroke-width="1.51"/><path d="M156,480L230,472L266,307Z" fill="#87a9d5" stroke="#87a9d5" stroke-width="1.51"/><path d="M71,289L156,480L266,307Z" fill="#8fb5da" stroke="#8fb5da" stroke-width="1.51"/><path d="M119,170L71,289L266,307Z" fill="#9cc3e2" stroke="#9cc3e2" stroke-width="1.51"/><path d="M230,472L126,574L268,632Z" fill="#7e94c4" stroke="#7e94c4" stroke-width="1.51"/><path d="M220,-148L159,-93L272,-20Z" fill="#d3e4f3" stroke="#d3e4f3" stroke-width="1.51"/><path d="M129,91L230,102L272,-20Z" fill="#bed9ec" stroke="#bed9ec" stroke-width="1.51"/><path d="M119,170L266,307L276,241Z" fill="#9cc3e2" stroke="#9cc3e2" stroke-width="1.51"/><path d="M230,102L119,170L276,241Z" fill="#a8cce7" stroke="#a8cce7" stroke-width="1.51"/><path d="M159,-93L129,91L272,-20Z" fill="#cadef1" stroke="#cadef1" stroke-width="1.51"/><path d="M129,91L119,170L230,102Z" fill="#b4d4e9" stroke="#b4d4e9" stroke-width="1.51"/><path d="M69,-162L159,-93L220,-148Z" fill="#dbe8f6" stroke="#dbe8f6" stroke-width="1.51"/><path d="M-15,352L29,469L71,289Z" fill="#95b6db" stroke="#95b6db" stroke-width="1.51"/><path d="M29,469L126,574L156,480Z" fill="#869ecc" stroke="#869ecc" stroke-width="1.51"/><path d="M71,289L29,469L156,480Z" fill="#8eaed7" stroke="#8eaed7" stroke-width="1.51"/><path d="M19,-20L129,91L159,-93Z" fill="#cee1f2" stroke="#cee1f2" stroke-width="1.51"/><path d="M69,-162L19,-20L159,-93Z" fill="#d9e7f6" stroke="#d9e7f6" stroke-width="1.51"/><path d="M26,166L71,289L119,170Z" fill="#a7cce6" stroke="#a7cce6" stroke-width="1.51"/><path d="M29,469L-32,575L126,574Z" fill="#879bca" stroke="#879bca" stroke-width="1.51"/><path d="M26,166L119,170L129,91Z" fill="#b3d3e9" stroke="#b3d3e9" stroke-width="1.51"/><path d="M-17,30L26,166L129,91Z" fill="#bedaec" stroke="#bedaec" stroke-width="1.51"/><path d="M19,-20L-17,30L129,91Z" fill="#c9dfef" stroke="#c9dfef" stroke-width="1.51"/><path d="M26,-175L19,-20L69,-162Z" fill="#deeaf6" stroke="#deeaf6" stroke-width="1.51"/><path d="M26,166L-105,203L71,289Z" fill="#a9cce6" stroke="#a9cce6" stroke-width="1.51"/><path d="M-105,203L-15,352L71,289Z" fill="#a0c4e3" stroke="#a0c4e3" stroke-width="1.51"/><path d="M-106,-182L-162,-45L19,-20Z" fill="#dfebf8" stroke="#dfebf8" stroke-width="1.51"/><path d="M-17,30L-105,203L26,166Z" fill="#bad7eb" stroke="#bad7eb" stroke-width="1.51"/><path d="M-106,-182L19,-20L26,-175Z" fill="#e1edf8" stroke="#e1edf8" stroke-width="1.51"/><path d="M-15,352L-130,415L29,469Z" fill="#93b1d9" stroke="#93b1d9" stroke-width="1.51"/><path d="M-130,415L-32,575L29,469Z" fill="#8ea6d1" stroke="#8ea6d1" stroke-width="1.51"/><path d="M-162,-45L-17,30L19,-20Z" fill="#d6e5f4" stroke="#d6e5f4" stroke-width="1.51"/><path d="M-130,415L-150,555L-32,575Z" fill="#8fa2cf" stroke="#8fa2cf" stroke-width="1.51"/><path d="M-162,-45L-164,24L-17,30Z" fill="#d5e6f4" stroke="#d5e6f4" stroke-width="1.51"/><path d="M-164,24L-105,203L-17,30Z" fill="#c6dfee" stroke="#c6dfee" stroke-width="1.51"/><path d="M-105,203L-154,304L-15,352Z" fill="#a3c5e3" stroke="#a3c5e3" stroke-width="1.51"/><path d="M-154,304L-130,415L-15,352Z" fill="#9cbbde" stroke="#9cbbde" stroke-width="1.51"/><path d="M-164,24L-154,304L-105,203Z" fill="#b6d5eb" stroke="#b6d5eb" stroke-width="1.51"/><path d="M-154,304L-150,555L-130,415Z" fill="#97b2d9" stroke="#97b2d9" stroke-width="1.51"/><path d="M-154,304L-164,24L-150,555Z" fill="#a5c6e4" stroke="#a5c6e4" stroke-width="1.51"/></svg>