<?xml version="1.0" encoding="utf-8"?>
<!-- Generator: Adobe Illustrator 21.1.0, SVG Export Plug-In . SVG Version: 6.00 Build 0)  -->
<svg version="1.1" xmlns="http://www.w3.org/2000/svg" xmlns:xlink="http://www.w3.org/1999/xlink" x="0px" y="0px"
	 viewBox="0 0 130 130" style="enable-background:new 0 0 130 130;" xml:space="preserve">
<style type="text/css">
	.st0{display:none;}
	.st1{display:inline;fill:#4EAAD7;}
	.st2{display:inline;}
	.st3{fill:url(#SVGID_1_);}
	.st4{display:inline;opacity:0.5;fill:#FFFFFF;}
	.st5{fill:none;}
	.st6{fill:#4EAAD7;}
	.st7{display:inline;fill:#4EA9D6;}
	.st8{display:none;fill:#4EA9D6;}
	.st9{display:inline;fill:#60B2DA;}
	.st10{fill:#4EA9D6;}
	.st11{display:inline;fill:#7BBFE0;}
	.st12{fill:#FFFFFF;}
	.st13{display:inline;fill:none;stroke:#FFFFFF;stroke-width:3;stroke-miterlimit:10;}
	.st14{fill:none;stroke:#4EAAD7;stroke-width:2;stroke-miterlimit:10;}
</style>
<g id="iconos">
	<g class="st0">
		<rect x="49.8" y="88.5" class="st1" width="24.7" height="23"/>
		<polygon class="st1" points="77.5,111.5 102.7,111.5 102.7,98.1 77.5,89.7 		"/>
		<path class="st1" d="M113,51.3V38.1H89.8v5.3H76V21.9c0-0.9-0.7-1.6-1.6-1.6H59c-0.7-3-3.3-5.2-6.5-5.2c-3.7,0-6.7,3-6.7,6.7
			c0,3.7,3,6.7,6.7,6.7c3.1,0,5.6-2.1,6.4-4.9h13.8v44H61.3c-0.6,0-1.1,0.2-1.6,0.6l-3.6,3.6c-0.4,0.4-0.6,1-0.6,1.6v4.1h-2.2
			L19.6,41.8C18,40,15.2,40,13.4,41.6c-1.8,1.7-1.8,4.5-0.2,6.2l36.3,38.3h25.7l28.1,9.1c0.5,0.1,0.9,0.2,1.4,0.2
			c1.9,0,3.6-1.2,4.2-3c0.7-2.3-0.5-4.8-2.8-5.5l-29.4-9.5H59.9v-3.2l2.3-2.3h10.6v3.8H76v-3.8h3.4c1.2,0,2.2-1,2.2-2.2
			c0-1.2-1-2.2-2.2-2.2H76V46.3h13.8v5H113z M92.1,40.3h18.7v9.2H92.1V40.3z M52.5,26.4c-2.6,0-4.7-2.1-4.7-4.7
			c0-2.6,2.1-4.7,4.7-4.7c2.6,0,4.7,2.1,4.7,4.7C57.2,24.3,55.1,26.4,52.5,26.4z"/>
	</g>
	<g class="st0">
		<g class="st2">
			<linearGradient id="SVGID_1_" gradientUnits="userSpaceOnUse" x1="30.1022" y1="65.0185" x2="100.1361" y2="65.0185">
				<stop  offset="0" style="stop-color:#40607D;stop-opacity:0.6"/>
				<stop  offset="1" style="stop-color:#40607D"/>
			</linearGradient>
			<rect x="30.1" y="26" class="st3" width="70" height="78"/>
		</g>
		<path class="st4" d="M84.1,59.3c2.4-7.4,6.1-18.7-2-23.8c-2.8-1.7-5.4-2.6-8.2-2.6c-3,0-5.4,1-7.2,1.8c-0.8,0.3-1.8,0.8-2.2,0.8
			c-0.4,0-1.4-0.4-2.2-0.8C60.6,34,58.1,33,55.2,33c-2.8,0-5.4,0.8-8.2,2.6c-8.1,5.1-4.4,16.3-2,23.8c0.8,2.3,1.5,4.5,1.6,5.6
			c0.2,2.1,0,4.7-0.2,7.5c-0.4,4.4-0.7,9,0.3,12.9c1.8,6.6,7.5,11.3,7.7,11.5c0.5,0.4,1.2,0.7,1.8,0.7c0.1,0,0.1,0,0.2,0
			c1.7,0,3.1-1.4,3.1-3.1c0-0.3,0-0.6-0.1-0.8c-0.3-1.6-1.6-10.4,0.4-16.1c1.5-4.2,3.8-6.4,4.7-7c1,0.6,3.2,2.8,4.7,7
			c2.2,6.2,0.4,16.2,0.4,16.3c-0.2,1.3,0.3,2.6,1.5,3.3c0.5,0.3,1,0.4,1.6,0.4c0.7,0,1.4-0.2,2-0.7c0.2-0.2,5.9-5,7.7-11.5
			c1.1-3.9,0.7-8.5,0.3-12.9c-0.2-2.8-0.4-5.4-0.2-7.5C82.7,63.8,83.4,61.6,84.1,59.3z"/>
	</g>
	<g class="st0">
		<path class="st1" d="M89.5,71.5l-18.4,33.3h24.9V84.4C96.1,79.1,93.5,74.4,89.5,71.5z"/>
		<path class="st1" d="M39.6,71.5c-4,2.9-6.6,7.6-6.6,13v20.3h24.9L39.6,71.5z"/>
		<g class="st2">
			<circle class="st5" cx="64.5" cy="32.1" r="2.1"/>
			<path class="st6" d="M64.5,25c3.7,0,6.7,2.7,7.1,6.3H83c-1.3-9.4-6.2-13.5-18.5-13.5c-12.3,0-17.2,4.2-18.5,13.5h11.4
				C57.9,27.7,60.9,25,64.5,25z"/>
			<path class="st6" d="M64.5,26c-3.4,0-6.1,2.7-6.1,6.1s2.7,6.1,6.1,6.1c3.4,0,6.1-2.7,6.1-6.1S67.9,26,64.5,26z M64.5,34.3
				c-1.2,0-2.1-0.9-2.1-2.1c0-1.2,0.9-2.1,2.1-2.1c1.2,0,2.1,0.9,2.1,2.1C66.7,33.3,65.7,34.3,64.5,34.3z"/>
			<path class="st6" d="M83.9,39c-0.2-0.1-0.4,0-0.6,0c0-0.6,0.1-1.2,0.1-1.8c0-1.4-0.1-2.8-0.2-4.1H71.7c-0.5,3.5-3.5,6.3-7.1,6.3
				c-3.7,0-6.7-2.7-7.1-6.3H45.9c-0.1,1.3-0.2,2.6-0.2,4.1c0,0.6,0,1.2,0.1,1.8c-0.2-0.1-0.4-0.1-0.6,0c-1.2,0.4-1.4,3.1-0.4,6.2
				c0.9,3,2.6,5.2,3.8,4.9c3.3,7,9.3,11.7,16,11.7c6.8,0,12.7-4.7,16-11.7c1.2,0.3,2.8-1.9,3.8-4.9C85.3,42.1,85.1,39.3,83.9,39z"/>
		</g>
		<g class="st2">
			<path class="st6" d="M80,68.3h-5.2v4.7v0.8v9.4c0,1.4-1.1,2.5-2.5,2.5H56.8c-1.4,0-2.5-1.1-2.5-2.5v-9.4v-0.8v-4.7h-5.2
				c-2.5,0-4.9,0.6-7.1,1.7l19.2,34.7h6.8L87.1,70C84.9,69,82.5,68.3,80,68.3z"/>
			<path class="st6" d="M55.5,70.9c0.4-0.3,0.9-0.4,1.4-0.4h15.4c0.5,0,1,0.2,1.4,0.4v-2.6H71v-5.7c-2,1-4.2,1.5-6.5,1.5
				c-2.3,0-4.5-0.5-6.5-1.5v5.7h-2.6V70.9z"/>
		</g>
	</g>
	<g class="st0">
		<path class="st7" d="M109.1,32.3c0-2.1-1.2-3.2-3.3-3.3c-3.7-0.1-7.5,0-11.3,0c-2.2,0-2,1.5-2,2.9c0,1.5,0.1,2.7,2.1,2.6
			c1.5-0.1,3.1,0,4.6,0c0.2,0.3,0.4,0.6,0.5,0.8c-3.3,3.1-6.6,6.1-9.7,9.2c-1.1,1-1.6,1.3-3,0.4c-8.3-5.5-17.1-6-26-1.4
			c-1.5,0.8-2.5,0.8-4,0C43.3,36,25.8,43.1,21.2,58.1c-0.4,1.2-0.4,2.4-0.8,3.6c0,2.6,0,5.2,0.1,7.8c0.1,0.6,0.1,1.1,0.3,1.7
			c2.8,10.4,9.5,16.7,20,19c0.5,0.1,1.5-0.1,1.5,0.5c0.2,1.6,0.4,3.4,0,4.9c-0.3,1.1-1.8,0.6-2.7,0.5c-2.1-0.1-2.8,0.7-2.7,2.8
			c0,1.9,0.4,3.2,2.6,2.8c2.4-0.4,3.4,0.5,3,3c-0.3,1.9,0.5,2.7,2.5,2.6c1.9,0,3.2-0.4,2.9-2.6c-0.3-2.4,0.4-3.4,2.9-3
			c1.9,0.3,2.7-0.5,2.7-2.5c0-1.9-0.5-3.3-2.6-2.9c-2.7,0.4-3.1-0.9-3.1-3.2c0-2.1,0.6-2.9,2.6-3.2c2.3-0.3,4.5-1.2,6.5-2.4
			c1.5-0.9,2.6-0.8,4.1,0c11.6,6.3,25.8,2.8,32.9-8.5c5.6-9,5.3-18.2-0.3-27.3c-0.4-0.7-1.7-1.3-0.6-2.3c3.4-3.4,6.8-6.7,10.5-10.3
			c0,1.8,0,3.3,0,4.8c0,2.2,1.4,2.3,3,2.3c1.6,0,2.5-0.4,2.5-2.3C109,39.9,109.1,36.1,109.1,32.3z M52.7,83.5
			c-10.7,4.8-23.8-1.8-26.6-13.2C23.1,57.8,32.3,46,45.4,46c2.5-0.2,5.1,0.5,7.7,1.6c1.1,0.5,1.6,0.9,0.6,2.1
			c-7.6,8.8-7.7,22.6,0,31.4C55.1,82.7,53.7,83,52.7,83.5z M60.2,77.8c-0.9,1.1-1.4,1.3-2.4,0c-2.9-3.7-4.5-7.7-4.3-12.4
			c-0.2-4.6,1.4-8.6,4.2-12.2c0.9-1.2,1.6-1.3,2.6-0.1C66.1,60.1,66,70.8,60.2,77.8z M71.7,85c-2.3-0.1-4.6-0.7-6.7-1.7
			c-1.1-0.5-1.6-1-0.6-2.1c7.6-8.6,7.7-22.8-0.1-31.6c-0.8-0.9-0.6-1.3,0.4-1.8c1.9-1,5.1-1.7,8.2-1.7c11.3,0,20,8.9,19.7,20.3
			C92.2,76.9,82.5,85.6,71.7,85z"/>
	</g>
	<path class="st8" d="M104.5,33.1c-0.4-3-1-3.6-4-3.6c-7.7-0.1-15.3,0-23,0c-8.8,0-17.7-0.1-26.5,0c-3.6,0-4.9,1.4-5,4.9
		c-0.1,2.6,0,5.3,0,7.9c0,3.9-0.4,4.3-4.3,4.3c-3.5,0-6.3,1.1-8.7,3.6c-2,2.1-4,4.1-6.1,6.1c-2.7,2.5-3.8,5.4-3.8,9.1
		C23,72,24.3,78.8,21,85c0,0.3,0,0.6,0,0.9c0.5,2.6,2.3,3.5,4.7,3.4c2-0.1,3,0.7,3.7,2.7c2,5.6,6.5,8.6,12.3,8.5
		c5.5-0.1,9.7-3.2,11.6-8.8c0.6-1.6,1.5-2.4,3.2-2.4c2.7,0,5.4,0.2,8.1,0c2.9-0.2,4.4,0.7,5.5,3.6c1.8,4.6,5.4,7.2,10.5,7.6
		c5.1,0.4,9.6-1.5,11.6-6.1c1.8-4.1,4.1-5.5,8.4-5.2c3,0.2,3.7-0.8,3.9-3.9C104.5,67.9,104.5,50.5,104.5,33.1z M41.1,93.8
		c-3.1-0.1-5.7-2.7-5.7-5.8c0.1-3.1,2.8-5.8,5.9-5.7c3.2,0,5.8,2.8,5.7,6.1C47,91.5,44.4,93.9,41.1,93.8z M45.6,65.3
		c-2.5,0-4.9,0-7.4,0c-2.2,0-4.3,0-6.5,0c-1.9,0-2.6-1.1-1.4-2.4c2.8-3.2,5.7-6.4,9-9c1.9-1.5,4.8-0.5,7.2-0.4
		c0.7,0,0.6,0.8,0.6,1.3c0,3,0,6,0,9C47.1,64.9,46.6,65.3,45.6,65.3z M81.5,93.8c-3.2,0-5.6-2.6-5.6-5.8c0-3.1,2.7-5.8,5.8-5.7
		c3.1,0,5.8,2.8,5.8,5.8C87.5,91.3,84.8,93.9,81.5,93.8z M93.1,57.3c0.1,1.6-0.7,2.2-2.2,2.1c-1.3-0.1-2.6,0-3.9,0
		c-5.5,0-5.4,0-5.5,5.6c0,6.8,0.9,6-6.1,6c-5.3,0-5.5,0.9-5.4-5.4c0-1.4-0.1-2.8,0-4.2c0.1-1.7-0.6-2.1-2.2-2c-2.4,0.1-4.8,0-7.2,0
		c-1.5,0-2.1-0.6-2.1-2c0-2.5,0-5,0-7.4c0-1.5,0.6-2.2,2.2-2.2c2.3,0.1,4.7-0.1,7,0.1c1.9,0.1,2.4-0.6,2.3-2.4c-0.1-2.2,0-4.3,0-6.5
		c0-1.9,0.7-2.9,2.7-2.8c2.1,0.1,4.2,0.1,6.3,0c1.7,0,2.6,0.6,2.5,2.5c-0.1,2.5,0,5,0,7.4c0,1.3,0.4,1.8,1.7,1.7
		c2.6-0.1,5.1,0,7.7,0c1.7-0.1,2.4,0.6,2.3,2.3C93,52.5,93,54.9,93.1,57.3z"/>
	<g class="st0">
		<path class="st7" d="M58.9,87.4c8.6-0.5,16.6-2.8,23.7-7.6c10.7-7.3,16.1-17.1,13.2-30.5c9.5,4.2,18.6,17.8,9.4,30.7
			c-2.1,2.9-4.6,5.3-7.7,7.1c-1.5,0.9-1.4,1.7-0.7,3c1.3,2.3,3,4.3,4.8,6.2c0.7,0.7,1.4,1.5,0.9,2.6c-0.5,1.1-1.6,0.9-2.6,0.8
			c-4.7-0.6-9.1-2.1-13-4.6c-2.9-1.9-5.7-1.9-9-1.6c-8.9,0.7-17.4-0.6-25.1-5.6C54.8,87.1,56.9,88,58.9,87.4z"/>
		<path class="st9" d="M58.9,87.4c-2,0.9-4,0.2-6,0.5c-0.1,0-0.2,0-0.2-0.1c-0.2-0.1-0.4-0.4-0.1-0.4C54.6,87.4,56.7,87.4,58.9,87.4
			z"/>
		<path class="st7" d="M89.4,50.9c-1.9-6.8-6.6-11.4-12.6-14.7c-7.6-4.3-15.9-5.9-24.6-5C37.6,32.7,25.6,37.8,21,53.4
			c0,1.8,0,3.6,0,5.4c1.8,7.1,5.8,12.5,12,16.3c1.2,0.7,0.9,1.5,0.4,2.5C32.1,80,30.2,82,28.4,84c-0.7,0.7-1.5,1.4-0.7,2.6
			c0.7,1.1,1.7,0.9,2.6,0.7c5.4-1,10.6-2.9,15.2-5.9c0.8-0.5,1.5-1,2.5-0.8c3.9,0.7,7.8,0.8,11.7,0.5c7.8-0.6,14.9-3,21.1-7.7
			C88.5,67.5,91.7,59.2,89.4,50.9z M78.4,67.4c-5.6,4.8-12.1,7-19.3,7.6c-4.1,0.3-8.2,0.2-12.2-0.8c-1.1-0.3-1.9,0.1-2.7,0.7
			c-1.1,0.8-2.1,1.7-3.6,2.1c1-3.9,1-3.8-2.6-6c-1.5-0.9-3.1-1.9-4.5-3c-8.3-6.6-8.3-17,0-23.7c5.1-4.1,11.1-6.3,17.5-6.9
			c8.1-0.8,16,0.3,23.2,4.5c2.2,1.3,4.2,2.8,5.9,4.8C85.8,53.5,85.1,61.6,78.4,67.4z"/>
	</g>
	<g class="st0">
		<path class="st7" d="M51.8,34.7C51.7,34.7,51.8,34.7,51.8,34.7L51.8,34.7z"/>
		<path class="st7" d="M100.7,94.8c-0.4-1.5-1.1-2.8-1.9-4.1c-7.5-11.8-14.9-23.6-22.4-35.3c-1-1.6-1.5-3.2-1.5-5.1
			c0.1-4.2,0.1-8.5,0-12.7c0-1.8,0.5-2.8,2.5-3.1c2.4-0.3,3.6-1.8,3.6-3.9c0-1.8-0.7-2.5-3.3-3.2c-8.7,0-17.5,0-26.2,0
			c-2.6,0.6-3.4,1.3-3.3,3.2c0,2,1.3,3.4,3.6,3.9c0.1,0,0.1,0,0.1,0c0,0,0,0,0.1,0c1.8,0.1,2.3,1.1,2.3,2.8c0,4-0.1,7.9,0,11.9
			c0.1,2.7-0.7,5-2.2,7.2C44.6,68,37.3,79.6,30,91.2c-0.9,1.4-1.5,2.8-1.8,4.4c-0.6,3.6,1.2,6.1,4.8,6.6c0.5,0.1,1-0.1,1.4,0.2
			c20,0,40,0,60,0c0.3-0.3,0.6-0.2,1-0.2C99.8,102,101.8,99.2,100.7,94.8z M47.6,77.4c-0.2-0.9,0.5-1.4,0.8-2
			c3.9-6.2,7.8-12.4,11.8-18.6c0.8-1.3,1.2-2.5,1.2-4.1c-0.1-5.7,0-11.4-0.1-17.1c0-1.4,0.2-2,1.8-1.9c4.5,0,4.5-0.1,4.5,4.4
			c0,5.1,0,10.1,0,15.2c0,1.1,0.3,2,0.9,2.9c4,6.3,8,12.6,12,19c0.4,0.6,0.8,1.3,1.3,2.2C70.2,77.4,58.9,77.4,47.6,77.4z"/>
	</g>
	<g class="st0">
		<path class="st7" d="M107,94.8c-1.8,4.1-5.3,6.8-8.7,9.4c-2.1,1.6-5.2,1-7.3-1.1c-6-5.9-12-11.9-17.9-17.9
			c-2.6-2.6-2.7-5.3-0.7-8.3c0.7-1,0.5-1.5-0.2-2.2C68.6,71.2,65,67.7,61.5,64c-0.9-1-1.4-0.6-2.3,0.1c-2.3,2-3.8,4.8-6.8,6
			c-1,0.4-0.1,0.9,0.1,1.3c1.8,3.2,1,5.8-2.8,8.8c-2.8,2.2-5,2.1-7.6-0.5c-6.3-6.3-12.6-12.6-18.9-18.9c-2.7-2.8-2.8-5-0.2-8
			c0.3-0.4,0.7-0.7,1-1c3.3-3.1,5-3.2,8.9-0.5c0-1.7,0.9-2.7,2-3.8c5-5,10-10,15-15c1-1,1.8-2,3.5-1.9c-2.7-3.8-2.4-5.8,1.2-9.3
			c0.9-0.8,1.9-1.5,2.8-2.2c1.1,0,2.3,0,3.4,0c1.2,0.4,2.2,1.1,3.2,2.1c5.9,6,11.9,11.9,17.9,17.9c3.3,3.3,3.5,5.5,1.1,8.9
			c-2.9,4-6,4.9-10,2.9c-1.3,2.3-3.4,4-5.3,5.8c-1.2,1.2-1.3,2.2,0,3.4c3,2.9,5.9,5.9,8.9,8.9c1,1,1.8,1.2,3.2,0.5
			c2.9-1.5,5.9-1,8.2,1.2c5.9,5.9,11.8,11.8,17.8,17.7c1.2,1.2,1.9,2.6,1.7,4.3C107.1,93.4,107.3,94.1,107,94.8z"/>
	</g>
	<path class="st10" d="M107.3,45.4c-2.9,0.1-5.7-0.2-8.6,0.1c-2.9,0.3-5-0.6-6.6-3.1c-5.6-8.9-18.4-8.8-25.8-5.8
		c-0.9,0.4-1.7,0.6-2.7,0c-4.1-2.2-8.6-1.9-13-1.4c-4.9,0.6-8.2,4-11.3,7.4c-1.1,1.2-2.3,1.8-4.1,1.8c-4.6-0.1-9.2,0-13.8-0.1
		c-1.5,0-2.7,0.4-3.5,1.7c0,9.7,0,19.5,0,29.2c1.3,1.4,2.9,1.6,4.7,1.6c3.6-0.1,7.1,0,10.7-0.1c1.4,0,2.4,0.4,3.4,1.4
		c3.4,3.5,6.8,7,10.4,10.3c4.2,3.9,9,6.5,15,5.6c2-0.3,3.6-1.6,5.7-1.6c2.3,0,4.3-0.9,5.9-2.4c1.2-1.1,2.6-1.7,3.9-2.5
		c3.7-2.3,7.1-5,11-7c0.8-0.4,1.5-1.3,1.9-2.1c0.7-1.6,1.9-1.7,3.4-1.7c4.4,0.1,8.9,0,13.3,0.1c1.8,0,3.4-0.2,4.7-1.6
		c0-9.4,0-18.8,0-28.2C110.7,45.6,109.1,45.3,107.3,45.4z M25.9,71.6c-1.7,0-2.6-0.9-2.6-2.5c0-1.8,0.9-2.7,2.7-2.7
		c1.7,0,2.4,1,2.5,2.7C28.4,70.6,27.6,71.6,25.9,71.6z M81.5,78.2c-1.4,0-1.8,0.5-2.4,1.5c-1.3,2.8-4.6,2.8-6.6,4.4
		c-2.2,1.8-3.8,3.9-7,3.4c-0.5-0.1-0.8,0-1.2,0.2c-4.9,3.2-9,1.1-12.7-2.1c-4.3-3.8-8.3-7.9-12.4-12c-1.2-1.1-2.4-2.1-4.1-2
		c-1.3,0.1-1.6-0.6-1.6-1.7c0.1-3.2,0-6.4,0-9.7c0-3,0.1-6.1,0-9.1c0-1.5,0.4-2.2,1.9-1.9c3.5,0.7,6.1-0.8,8-3.6
		c3.7-5.2,9-6.1,14.8-5.4c0.9,0.1,1.9,0.1,2.3,0.9c0.4,0.8-0.7,1.3-1.2,1.9c-1.6,2-3.2,3.9-4.9,5.8c-4.2,4.9-4.1,10.4,0.3,14.6
		c4.2,4,10.8,4,15.1-0.2c1.7-1.6,3.2-3.4,4.7-5.2c0.8-1,1.3-1,2.2,0c3.4,3.6,6.4,7.6,9.3,11.6C88.8,73.4,86.3,78.1,81.5,78.2z
		 M96.3,61.1c0,3,0,5.9,0,8.9c0,0.8,0,1.7-1.1,1.5c-1-0.1-2.4,0.8-3-0.7c-2.3-6.5-7.3-11-11.5-16.2c-0.6-0.8-1.6-1.3-1.6-2.6
		c0.1-1.2-0.5-2-1.6-2.4c-1.2-0.4-2.2,0.1-3,1c-2.5,2.8-5.1,5.7-7.7,8.5c-2.3,2.4-5.5,2.7-8,0.9c-2.3-1.7-3-4.6-1.2-6.8
		c3-3.8,6.3-7.4,9.5-11.1c0.1-0.1,0.3-0.2,0.4-0.3c3.6-2.8,15-2.2,18.2,1c1.8,1.8,3.5,3.8,5.2,5.8c1.1,1.3,2.2,2.4,4.1,2.1
		c1.2-0.2,1.4,0.6,1.4,1.6C96.3,55.2,96.3,58.2,96.3,61.1z M104.1,71.6c-1.7,0-2.5-0.9-2.5-2.6c0-1.7,0.8-2.6,2.3-2.6
		c1.9,0,2.8,0.8,2.9,2.5C106.8,70.6,106,71.6,104.1,71.6z"/>
	<g class="st0">
		<path class="st11" d="M35.1,101c0-0.1,0-0.2,0-0.4c20.1,0,40.1,0,60.2,0c0,0.1-0.1,0.2-0.1,0.3C75.1,101,55.1,101,35.1,101z"/>
		<path class="st7" d="M93.9,94.9c-1.7-0.2-2.2-1-2.3-2.6c-0.2-3.1-0.6-6.1-1.6-9c-2.1-6.5-5.4-12.3-10.6-16.8
			c-1.5-1.3-1.5-1.9-0.2-3.1c7.5-6.7,11.5-15.2,12.4-25.1c0.3-2.8,0.2-2.8,2.8-3.3c1.4-0.3,2.2-1.1,2.3-2.6c0.1-1.4,0.4-3-1.6-3.5
			c-20,0-40,0-60,0c-1.9,0.7-1.8,2.2-1.6,3.8c0.2,1.5,1.2,2.2,2.6,2.3c1.8,0,2.4,0.9,2.5,2.6c0.9,10.1,4.7,18.9,12.5,25.7
			c1.2,1.1,1.1,1.9-0.1,3c-2.5,2.3-4.8,4.8-6.6,7.7c-3.3,5.4-5.2,11.2-5.7,17.5c-0.2,2.1-0.7,3.5-3.2,3.5c-1.6,0-2.2,1.5-2.1,3.5
			c0,1.6,0.8,2.3,2.4,2.2c19.6,0,39.2,0,58.8,0c0.9,0,1.7-0.1,2.1-1.1C97.6,97.3,96.5,95.2,93.9,94.9z M46.9,39.2
			c-2.3,0-2.2,0-2.3-3.4c-0.1-1.9,1.1-1.6,2.2-1.6c12.3,0,24.7,0,37,0c1.9,0,2.3,0.7,2,2.3c-0.6,3,0.3,2.7-3.1,2.8
			c-5.9,0-11.7,0-17.6,0C59.1,39.2,53,39.2,46.9,39.2z M81.4,95.8c-5.4,0-10.8,0-16.2,0c-6.3,0-12.7,0-19,0c-0.9,0-1.7,0-1.6-1.3
			c0.4-10.2,4-18.9,12.4-25.2c1.8-1.4,3.8-2.2,6.1-1.9c0.9,0.1,1.7,0.1,2.6,0c4.3-0.7,7.4,1.3,10.3,4.1c5.7,5.4,8.7,12.2,9.5,19.9
			C85.9,95.8,85.8,95.8,81.4,95.8z"/>
	</g>
	<g id="XMLID_1_" class="st0">
		<g class="st2">
			
				<rect x="58.4" y="77.3" transform="matrix(0.7071 -0.7071 0.7071 0.7071 -38.1786 64.4386)" class="st12" width="0.7" height="2"/>
			
				<rect x="54.4" y="73.3" transform="matrix(0.7071 -0.7071 0.7071 0.7071 -36.5218 60.4386)" class="st12" width="0.7" height="2"/>
			<polygon class="st12" points="56.7,73 61.9,67.8 62.2,68.2 55.6,74.8 54.2,73.4 55.6,71.9 			"/>
			
				<rect x="59.3" y="73.1" transform="matrix(0.7071 -0.7071 0.7071 0.7071 -33.9336 66.197)" class="st12" width="7.3" height="2"/>
			
				<rect x="50.4" y="69.3" transform="matrix(0.7071 -0.7071 0.7071 0.7071 -34.8649 56.4386)" class="st12" width="0.7" height="2"/>
			
				<rect x="62.4" y="81.3" transform="matrix(0.7071 -0.7071 0.7071 0.7071 -39.8355 68.4386)" class="st12" width="0.7" height="2"/>
			
				<rect x="53.6" y="67" transform="matrix(0.7071 -0.7071 0.7071 0.7071 -31.5726 60.497)" class="st10" width="7.3" height="2.8"/>
			<polygon class="st10" points="62.2,68.2 61.9,67.8 63.1,66.7 64.5,68.1 58.1,74.4 59.6,75.9 58.2,77.4 55.6,74.8 			"/>
			<polygon class="st10" points="58.2,64.2 57.4,63.4 58.6,62.2 60,63.6 58.8,64.8 53.7,70 55.6,71.9 54.2,73.4 51.6,70.8 			"/>
			<rect x="58.6" y="76.4" transform="matrix(0.7071 -0.7071 0.7071 0.7071 -37.2386 64.828)" class="st12" width="2" height="2"/>
			
				<rect x="63.3" y="77.1" transform="matrix(0.7064 -0.7078 0.7078 0.7064 -35.6015 70.2971)" class="st12" width="7.3" height="2"/>
			<polygon class="st10" points="65.2,42.8 97.3,74.9 90.8,81.4 96.4,87 102.8,80.7 106.6,84.4 86.1,104.9 82.3,101.2 88.7,94.8 
				83,89.1 76.5,95.7 63.6,82.8 65.1,81.4 65.7,82 72,75.6 73.4,77 67.1,83.4 76.5,92.8 94.5,74.9 65.2,45.6 47.3,63.6 51.6,67.9 
				50.2,69.4 44.5,63.6 54.2,53.9 32.5,30.8 55.5,52.5 			"/>
			
				<rect x="55.1" y="69.1" transform="matrix(0.7064 -0.7078 0.7078 0.7064 -32.2157 62.1153)" class="st12" width="7.3" height="1.5"/>
			<polygon class="st12" points="58.2,64.2 51.6,70.8 50.2,69.4 51.6,67.9 52.2,68.6 57.4,63.4 			"/>
			<polygon class="st10" points="69,72.6 62.6,78.9 63.6,80 62.2,81.4 59.6,78.8 61,77.4 61.2,77.5 67.6,71.1 			"/>
			<polygon class="st10" points="70.2,76.2 68.8,74.8 63.6,80 62.6,78.9 69,72.6 67.6,71.1 61.2,77.5 61,77.4 66.2,72.2 64.8,70.8 
				59.6,75.9 58.1,74.4 64.5,68.1 63.1,66.7 61.9,67.8 60.8,66.8 58.8,64.8 60,63.6 58.6,62.2 57.4,63.4 56.8,62.8 51.6,67.9 
				47.3,63.6 65.2,45.6 94.5,74.9 76.5,92.8 67.1,83.4 73.4,77 72,75.6 65.7,82 65.1,81.4 			"/>
			
				<rect x="50.9" y="65.2" transform="matrix(0.7078 -0.7064 0.7064 0.7078 -30.4453 57.7084)" class="st12" width="7.3" height="0.8"/>
			<polygon class="st12" points="65.1,81.4 63.6,82.8 62.2,81.4 63.6,80 			"/>
		</g>
		<g class="st2">
		</g>
	</g>
	<g class="st0">
		<path class="st1" d="M84.1,75.4l-14.4,26.2h19.6v-16C89.3,81.4,87.3,77.7,84.1,75.4z"/>
		<path class="st1" d="M44.9,75.4c-3.1,2.3-5.2,6-5.2,10.2v16h19.6L44.9,75.4z"/>
		<g class="st2">
			<circle class="st5" cx="64.5" cy="44.5" r="1.7"/>
			<path class="st6" d="M64.5,38.9c2.9,0,5.2,2.1,5.6,4.9H79c-1-7.4-4.9-10.6-14.5-10.6c-9.6,0-13.5,3.3-14.5,10.6h8.9
				C59.3,41,61.6,38.9,64.5,38.9z"/>
			<path class="st6" d="M64.5,39.6c-2.7,0-4.8,2.2-4.8,4.8c0,2.7,2.2,4.8,4.8,4.8c2.7,0,4.8-2.2,4.8-4.8
				C69.3,41.8,67.2,39.6,64.5,39.6z M64.5,46.1c-0.9,0-1.7-0.7-1.7-1.7c0-0.9,0.7-1.7,1.7-1.7c0.9,0,1.7,0.7,1.7,1.7
				C66.2,45.4,65.4,46.1,64.5,46.1z"/>
			<path class="st6" d="M79.7,49.8c-0.1,0-0.3,0-0.5,0c0-0.5,0-0.9,0-1.4c0-1.1,0-2.2-0.1-3.2h-9.1c-0.4,2.8-2.7,4.9-5.6,4.9
				c-2.9,0-5.2-2.1-5.6-4.9h-9.1c-0.1,1-0.1,2.1-0.1,3.2c0,0.5,0,0.9,0,1.4c-0.2,0-0.3-0.1-0.5,0c-0.9,0.3-1.1,2.5-0.3,4.9
				c0.7,2.4,2,4.1,3,3.9c2.6,5.5,7.3,9.2,12.6,9.2c5.3,0,10-3.7,12.6-9.2c0.9,0.2,2.2-1.5,3-3.9C80.8,52.3,80.7,50.1,79.7,49.8z"/>
		</g>
		<g class="st2">
			<path class="st6" d="M76.7,72.9h-4.1v3.7v0.6v7.4c0,1.1-0.9,2-2,2H58.5c-1.1,0-2-0.9-2-2v-7.4v-0.6v-3.7h-4.1
				c-2,0-3.9,0.5-5.6,1.3l15.1,27.3h5.3l15.1-27.3C80.5,73.4,78.7,72.9,76.7,72.9z"/>
			<path class="st6" d="M57.4,75c0.3-0.2,0.7-0.3,1.1-0.3h12.1c0.4,0,0.8,0.1,1.1,0.3v-2h-2v-4.5c-1.6,0.8-3.3,1.2-5.1,1.2
				c-1.8,0-3.5-0.4-5.1-1.2v4.5h-2V75z"/>
		</g>
		<g class="st2">
			<path class="st6" d="M21.2,56.5c-2,1.4-3.2,3.8-3.2,6.4v10h12.3L21.2,56.5z"/>
			<g>
				<circle class="st5" cx="33.6" cy="37.1" r="1"/>
				<path class="st6" d="M33.6,33.6c1.8,0,3.3,1.3,3.5,3.1h5.6C42.1,32,39.6,30,33.6,30c-6.1,0-8.5,2.1-9.1,6.7H30
					C30.3,34.9,31.8,33.6,33.6,33.6z"/>
				<path class="st6" d="M33.6,34c-1.7,0-3,1.4-3,3c0,1.7,1.4,3,3,3c1.7,0,3-1.4,3-3C36.6,35.4,35.2,34,33.6,34z M33.6,38.1
					c-0.6,0-1-0.5-1-1c0-0.6,0.5-1,1-1c0.6,0,1,0.5,1,1C34.6,37.7,34.1,38.1,33.6,38.1z"/>
				<path class="st6" d="M43.1,40.4c-0.1,0-0.2,0-0.3,0c0-0.3,0-0.6,0-0.9c0-0.7,0-1.4-0.1-2h-5.7c-0.2,1.7-1.7,3.1-3.5,3.1
					c-1.8,0-3.3-1.3-3.5-3.1h-5.7c-0.1,0.6-0.1,1.3-0.1,2c0,0.3,0,0.6,0,0.9c-0.1,0-0.2,0-0.3,0c-0.6,0.2-0.7,1.6-0.2,3.1
					c0.5,1.5,1.3,2.6,1.9,2.4c1.6,3.5,4.6,5.8,7.9,5.8c3.3,0,6.3-2.3,7.9-5.8c0.6,0.1,1.4-0.9,1.9-2.4C43.8,42,43.7,40.6,43.1,40.4z
					"/>
			</g>
			<g>
				<path class="st6" d="M41.2,54.9h-2.6v2.3v0.4v4.6c0,0.7-0.6,1.3-1.3,1.3h-7.6c-0.7,0-1.3-0.6-1.3-1.3v-4.6v-0.4v-2.3h-2.6
					c-1.3,0-2.4,0.3-3.5,0.8l9.5,17.1h3.3l9.5-17.1C43.6,55.2,42.4,54.9,41.2,54.9z"/>
				<path class="st6" d="M29.1,56.2c0.2-0.1,0.4-0.2,0.7-0.2h7.6c0.3,0,0.5,0.1,0.7,0.2v-1.3h-1.3v-2.8c-1,0.5-2.1,0.7-3.2,0.7
					c-1.1,0-2.2-0.3-3.2-0.7v2.8h-1.3V56.2z"/>
			</g>
		</g>
		<g class="st2">
			<path class="st6" d="M108.8,56.5l-9.1,16.4h12.3v-10C112.1,60.3,110.8,57.9,108.8,56.5z"/>
			<g>
				<circle class="st5" cx="96.5" cy="37.1" r="1"/>
				<path class="st6" d="M96.5,33.6c1.8,0,3.3,1.3,3.5,3.1h5.6C105,32,102.6,30,96.5,30c-6.1,0-8.5,2.1-9.1,6.7H93
					C93.2,34.9,94.7,33.6,96.5,33.6z"/>
				<path class="st6" d="M96.5,34c-1.7,0-3,1.4-3,3c0,1.7,1.4,3,3,3c1.7,0,3-1.4,3-3C99.5,35.4,98.2,34,96.5,34z M96.5,38.1
					c-0.6,0-1-0.5-1-1c0-0.6,0.5-1,1-1c0.6,0,1,0.5,1,1C97.6,37.7,97.1,38.1,96.5,38.1z"/>
				<path class="st6" d="M106.1,40.4c-0.1,0-0.2,0-0.3,0c0-0.3,0-0.6,0-0.9c0-0.7,0-1.4-0.1-2H100c-0.2,1.7-1.7,3.1-3.5,3.1
					c-1.8,0-3.3-1.3-3.5-3.1h-5.7c-0.1,0.6-0.1,1.3-0.1,2c0,0.3,0,0.6,0,0.9c-0.1,0-0.2,0-0.3,0c-0.6,0.2-0.7,1.6-0.2,3.1
					c0.5,1.5,1.3,2.6,1.9,2.4c1.6,3.5,4.6,5.8,7.9,5.8c3.3,0,6.3-2.3,7.9-5.8c0.6,0.1,1.4-0.9,1.9-2.4
					C106.8,42,106.7,40.6,106.1,40.4z"/>
			</g>
			<g>
				<path class="st6" d="M104.1,54.9h-2.6v2.3v0.4v4.6c0,0.7-0.6,1.3-1.3,1.3h-7.6c-0.7,0-1.3-0.6-1.3-1.3v-4.6v-0.4v-2.3h-2.6
					c-1.3,0-2.4,0.3-3.5,0.8l9.5,17.1h3.3l9.5-17.1C106.6,55.2,105.4,54.9,104.1,54.9z"/>
				<path class="st6" d="M92,56.2c0.2-0.1,0.4-0.2,0.7-0.2h7.6c0.3,0,0.5,0.1,0.7,0.2v-1.3h-1.3v-2.8c-1,0.5-2.1,0.7-3.2,0.7
					c-1.1,0-2.2-0.3-3.2-0.7v2.8H92V56.2z"/>
			</g>
		</g>
	</g>
	<g class="st0">
		<path class="st7" d="M93.9,57.9c3.4-10.4,8.5-26.1-2.8-33.2c-3.9-2.4-7.6-3.6-11.5-3.6c-4.2,0-7.5,1.4-10,2.5
			c-1.1,0.5-2.5,1.1-3.1,1.1c-0.6,0-2-0.6-3.1-1.1c-2.5-1.1-5.9-2.5-10-2.5c-3.9,0-7.6,1.2-11.5,3.6c-11.3,7.1-6.2,22.8-2.8,33.2
			c1.1,3.2,2,6.3,2.2,7.9c0.3,2.9,0,6.6-0.3,10.5c-0.5,6.2-1,12.6,0.5,18c2.5,9.2,10.5,15.8,10.8,16.1c0.7,0.6,1.6,0.9,2.6,1
			c0.1,0,0.2,0,0.2,0c2.4,0,4.4-2,4.4-4.4c0-0.4-0.1-0.8-0.2-1.1c-0.4-2.2-2.3-14.6,0.6-22.5c2.1-5.9,5.3-9,6.6-9.8
			c1.4,0.8,4.5,3.9,6.6,9.8c3.1,8.7,0.6,22.7,0.5,22.8c-0.3,1.8,0.5,3.6,2.1,4.6c0.7,0.4,1.5,0.6,2.2,0.6c1,0,2-0.3,2.8-1
			c0.3-0.3,8.3-6.9,10.8-16.1c1.5-5.4,1-11.8,0.5-18.1c-0.3-3.9-0.6-7.6-0.3-10.5C91.9,64.2,92.9,61.1,93.9,57.9z"/>
		<line class="st13" x1="66.9" y1="34.6" x2="66.9" y2="54.7"/>
		<line class="st13" x1="77.4" y1="44.6" x2="57.3" y2="44.6"/>
	</g>
	<path class="st8" d="M94.3,36c-10.7-10.7-28-10.7-38.7,0c-9.4,9.4-10.5,24-3.3,34.7L30.2,92.8c-2,2-2,5.3,0,7.3c2,2,5.3,2,7.3,0
		l22.1-22.1c10.7,7.2,25.3,6.1,34.7-3.3C105,64.1,105,46.7,94.3,36z M89.3,69.7c-7.9,7.9-20.8,7.9-28.7,0c-7.9-7.9-7.9-20.8,0-28.7
		c7.9-7.9,20.8-7.9,28.7,0C97.2,49,97.2,61.8,89.3,69.7z"/>
	<g class="st0">
		<g class="st2">
			<path class="st10" d="M79.3,71H68.9c-0.4,0-0.7,0.3-0.7,0.7v38.9c0,0.4,0.3,0.7,0.7,0.7h10.4c0.4,0,0.7-0.3,0.7-0.7V71.7
				C80,71.3,79.7,71,79.3,71z"/>
			<path class="st10" d="M79.3,64.9H69c-0.4,0-0.7,0.3-0.7,0.7v3.7c0,0.4,0.3,0.7,0.7,0.7h10.3c0.4,0,0.7-0.3,0.7-0.7v-3.7
				C79.9,65.1,79.6,64.9,79.3,64.9z"/>
			<path class="st10" d="M79.9,59.4c0-0.4-0.3-0.7-0.7-0.7H69c-0.4,0-0.7,0.3-0.7,0.7v3.7c0,0.4,0.3,0.7,0.7,0.7h10.3
				c0.4,0,0.7-0.3,0.7-0.7V59.4z"/>
			<path class="st10" d="M72.5,33.6v23c0,0.4,0.3,0.7,0.7,0.7h2c0.4,0,0.7-0.3,0.7-0.7v-23c3.6-0.8,6.3-4,6.3-7.8c0-4.4-3.6-8-8-8
				c-4.4,0-8,3.6-8,8C66.2,29.6,68.8,32.8,72.5,33.6z"/>
			<path class="st10" d="M58,71H47.7c-0.4,0-0.7,0.3-0.7,0.7v38.9c0,0.4,0.3,0.7,0.7,0.7H58c0.4,0,0.7-0.3,0.7-0.7V71.7
				C58.7,71.3,58.4,71,58,71z"/>
			<path class="st10" d="M47.7,69.8H58c0.4,0,0.7-0.3,0.7-0.7v-3.7c0-0.4-0.3-0.7-0.7-0.7H47.7c-0.4,0-0.7,0.3-0.7,0.7v3.7
				C47.1,69.5,47.4,69.8,47.7,69.8z"/>
			<path class="st10" d="M47.7,63.8H58c0.4,0,0.7-0.3,0.7-0.7v-3.7c0-0.4-0.3-0.7-0.7-0.7H47.7c-0.4,0-0.7,0.3-0.7,0.7v3.7
				C47.1,63.5,47.4,63.8,47.7,63.8z"/>
			<path class="st10" d="M52,19.6c-0.3-0.3-0.7-0.3-0.9,0l-1.6,1.6c-0.1,0.1-0.2,0.3-0.2,0.5c0,0.2,0.1,0.3,0.2,0.5l5.3,5.3
				l-3.4,3.4c-0.1,0.1-0.2,0.3-0.2,0.5v26.1c0,0.4,0.3,0.7,0.7,0.7h2.3c0.4,0,0.7-0.3,0.7-0.7V32.5l4.6-4.6c0.3-0.3,0.3-0.7,0-0.9
				L52,19.6z"/>
		</g>
		<g class="st2">
			<g>
				<circle class="st12" cx="74.1" cy="25.8" r="5.4"/>
			</g>
		</g>
	</g>
</g>
<g id="circulo">
	<circle class="st14" cx="65" cy="65" r="62"/>
</g>
</svg>
