<?xml version="1.0" encoding="utf-8"?>
<!-- Generator: Adobe Illustrator 21.1.0, SVG Export Plug-In . SVG Version: 6.00 Build 0)  -->
<svg version="1.1" xmlns="http://www.w3.org/2000/svg" xmlns:xlink="http://www.w3.org/1999/xlink" x="0px" y="0px"
	 viewBox="0 0 960 610" style="enable-background:new 0 0 960 610;" xml:space="preserve">
<style type="text/css">
	.st0{display:none;fill:#F3A12F;}
	.st1{opacity:0.5;fill:#CBCBCB;}
	.st2{opacity:0.5;fill:#FFFFFF;}
	.st3{display:none;opacity:0.8;}
	.st4{display:inline;}
	.st5{fill:#141414;}
	.st6{display:inline;fill:#141414;}
	.st7{fill:#C4563B;}
	.st8{fill:#FFFFFF;}
	.st9{fill:#6EAEA2;}
	.st10{fill:#194C6D;}
	.st11{display:none;}
	.st12{fill:#3FB26C;}
	.st13{opacity:0.8;}
	.st14{fill:#525152;}
	.st15{fill:#616A7B;}
	.st16{fill:#535B68;}
	.st17{fill:#9D9B94;}
	.st18{fill:#93959F;}
	.st19{fill:#BEBDBD;}
	.st20{fill:#94908E;}
</style>
<g id="mision_1_">
	<rect id="fondo_1_" class="st0" width="960" height="610"/>
	<g id="nubes_1_">
		<path id="XMLID_4_" class="st1" d="M855.7,107c-0.7-4.8-5.3-8.3-10-9.3c-4.7-1-9.3,0.6-14,1.5c4-4,8.1-8.2,10.7-13.3
			c2.5-5.1,3.2-11.5,0.3-16.4c-2.9-4.9-9.1-7.5-13.8-4.3c-2.4-10.3-13-18.1-23.6-17.2c-10.6,0.9-19.7,10.4-20.2,21
			c-3.4-1.5-7.5-1.1-10.6,1c-3.1,2.1-4,5.8-3.9,9.5c-8.3-7.6-21.7-8.9-31.3-3C729.6,82.4,725,95.2,728,106c-1.4-2.5-4.3-4.1-7.2-4
			s-5.6,2-6.8,4.6c-2.3-1.5-5-1.2-6.2,1.2c-2.6-3-7-3.9-10.9-3.3c-3.9,0.5-7.6,2.2-11.3,3.8C662.4,118,637,119,611.8,119h62
			c12.8,1.6,25.5,3.2,38.3,4.8c4.2,0.5,9.1,0.9,12.3-2c2.4,1.7,7.1,1.8,8.9-0.5c4.1,1.1,8.4,1.6,12.6,2.1c9.8,1.1,20.1,2.1,29-2
			c10.4,7.7,26.3,7.4,37.4,0.8c2.7,1.1,6.2,1.7,9,1.4c3-0.3,6-0.6,9.1-0.9c5.2-0.5,10.9,2.1,15.9,0.6c2.4-0.7,4.7-2.4,6.1-4.5h0
			C855,115.6,856.3,111.2,855.7,107z"/>
		<path id="XMLID_3_" class="st1" d="M239.2,519.9c-0.6-0.4-1.3-0.6-2-0.6c2.7-5.2,3.2-12.2,0-16.4c-4.4-5.8-12.9-9.2-18.6-4.6
			c1.8-2.6,1.3-6.6-1.1-8.8c-2.4-2.1-5.6-3.3-8-1.2c5.8-7.4,1-19.1-7.7-22.5c-0.2-8.1-8.4-15.1-16.4-14c-7.5,1-13.5,9.2-12.6,16.6
			c-0.7-2.4-2.9-4.3-5.4-4.5c-3-0.3-5.9,4-6.6,7c0.8-2.2-0.5-4.8-2.6-5.6c-2.1-0.8-5.3,4.7-6.1,6.8c0-7.8-7.6-14.4-15.4-14.7
			c-7.8-0.3-15.2,4.9-19,11.7c-3.8,6.8-4.8,17.1-3.7,24.8c0-2.3-2.3-4.3-4.6-4c-1.7,0.2-3.3,3.3-3.8,5.8c-0.3-1.7-1.5-3.2-3.1-3.7
			c-2.4-0.8-6.2,1.5-7,3.9c1-9-8.7-16.3-17.7-15.8c-9,0.5-16.8,6.4-23,12.9c-9,9.3-11.4,23.9-36.1,31.2c3.3,2,24.3,3.3,27.7,1.4
			c5.7,3.9,14.1,3.9,20.5,1.4c25.3,6.7,52.3,6.7,78,2.1c16.7,0.1,33.4,0.2,50,0.3c6.2,0,12.4-1.1,18.6-1.8c5.8,6,15.8,7.2,22.8,2.8
			c1.8-1.1,3.5-2.7,4.2-4.7C241.4,523.7,241,521.1,239.2,519.9z"/>
		<path id="XMLID_2_" class="st1" d="M848.7,540.5c-0.9-6.5-5.9-12.4-12.4-13.6c-5.6-1-13.3,3.1-15.7,8.5c0.4-3.3-0.9-6.8-3.6-8.7
			c-3.4-2.5-8.8-2.4-11.9,0.4c1.9-7.7,0.5-16.4-4.5-22.6c-5-6.2-13.8-9.3-21.4-6.9c-7.6,2.4-14.8,11.8-13.4,19.6
			c-0.7-2.8-3.4-5.1-6.3-5.2c-2.9-0.1-5.8,1.9-6.7,4.7c-1.4-2.3-4.7-3.4-7.2-2.3c-2,0.8-4.2,3.4-4.8,5.7c-0.2-2.1-1.4-4.1-3.2-5.1
			c-2.4-1.4-3.6-1.7-5.6,0.1c0.2-5.8,0.4-11.8-1.2-17.4c-1.6-5.6-5.4-10.9-10.9-12.8c-5.5-1.9-12,0.5-13.8,6
			c-1.4-5.6-7.3-9.6-13-8.9c-5.7,0.7-10.4,6.1-10.3,11.8c-0.9-3-4.5-4.7-7.4-3.6c-2.9,1.2-5.4,4.2-3.9,7c-11.7-2.3-24.5,1.6-33,10.1
			c-8.5,8.5-10.6,21.2-8.3,32.9c-4.1-3-9.4-1-10.3,3.7c-0.1-3.1-4.6-5.3-7.7-3.9c-3.5,1.5-4.2,6.2-7.1,8.6c-1.9,1.6-4.4,2.9-7,3.9
			c-7,1.1-13.8,2.3-20.3,3.5c0.1,0,0.3,0,0.5,0c-0.2,0-0.3,0-0.5,0h1.6c12.2,0.2,49.1,4.5,58.4,7c9.7,2.7,19.8,0.1,29-4
			c2.6,3.4,8,4,11.3,1.3c2.3,2.2,7.6,1.5,10.2-0.3c12,4.4,26.4,4.9,38.3,0.1c5.3,5.5,15.1,5.8,20.7,0.6c2.4,3.2,7.6,4.2,10.8,1.8
			c21.3,7.3,44.7,6.6,65.3-2.6c3.3,2.7,7.8,4.1,12.1,3.5c3.6-0.4,7.3-2.4,8.5-5.8c0.7-1.9,0.3-4.2-0.9-5.8
			C846.5,548.6,849.4,545.1,848.7,540.5z"/>
		<path id="XMLID_1_" class="st2" d="M650.8,357c-7.2-2.4-13.2-5-19,0.1c1.2-8.1,2.2-16.5-0.1-24.4c-2.3-7.9-8.8-15.1-17-15.7
			c-5.9-0.5-12.4,3.7-14.4,8.9c-0.8-3.1-2.8-6-5.6-7.5c-4.8-2.5-11.2-0.9-14.4,3.4c1.8-4.6-0.8-10.5-5.4-12.3
			c-4.6-1.8-6.9-2-8.8,2.6c-14.5-22.8-46.1-32.9-71.1-22.7c-25,10.2-40.4,39.8-34.8,66.3c-1.5-6.4-8.6-10.9-15.1-9.5
			c-6.4,1.4-11.7,8.8-10.4,15.2c-2.1-5.1-8.9-6.6-14.2-5c-5.3,1.6-9.6,5.3-14.4,8c-2.1,1.2-4.2,2.1-6.3,2.8c21.8,0,33.4,4,48.3,2.6
			c3.8,2.5,8.5,3.2,13,2.2c2.6-0.6,5.2-1.9,7.9-1.6c2.5,0.2,4.7,1.7,6.9,2.8c8.9,4.5,20.2,3.7,28.3-2.1c17.5,7.4,37.9,6.9,55.2-1
			c4.4,4.5,12.9,3.7,17.8-0.3c20.3,7.2,42.7,6.8,62.7-1.5c9.5,4,17.8-1.2,41.9-1.2C671.6,363.7,661.2,360.3,650.8,357z"/>
		<path id="XMLID_5_" class="st1" d="M525.2,204.4c-7.7-4.3-15.6-8.7-24.3-10c-8.7-1.3-18.6-0.2-23.8,6.9c-11.8-7.3-28.2-7.8-41-2.4
			c-2.4-7.3-13.2-10.8-19.9-7.1c0.7-7.9-4.2-16.1-11.5-19.2c-7.4-3.1-16.6-0.8-21.7,5.3c-1.8-2.7-5.5-4.1-8.6-3.2
			c-3.2,0.9-4.6,1.9-4.9,5.2c-4.5-9.8-12.5-18.2-22.6-21.9s-22.2-2.4-30.5,4.6c-8.2,6.9-12.2,18.9-7.4,28.6
			c-6.7-8.2-17.4-12.9-28-12.2s-20.9,7-26.6,15.9c-4.6-5.6-13.7-6.8-19.6-2.5c-2.4-5.4-10.2-6.9-14.2-2.7c2.1-6.3,0.4-13.8-4.2-18.6
			c-4.6-4.8-10.1-6-16.6-4.2c0.6-3.8,1.3-7.7,0.5-11.5c-0.8-3.8-3.4-7.4-7.1-8.4c-3.8-0.9-5.9,1.6-5.7,5.5
			c-5.9-9.9-17.6-16.1-29.2-15.5c-11.5,0.6-22.5,8.1-27.2,18.7c-3.5,7.7-3.3,16.5-0.2,24.3c-2-2.9-4.3-5.6-7.3-7.5
			c-5.5-3.6-13.8-3.8-18,1.3c-2.8,3.4-3,8.4-1.7,12.6c1.3,4.2,3.4,8.3,6,11.9c-1.9-3-5.6-4.7-9.1-4.4c-3.5,0.3-6.7,2.4-8,5.6
			c-4.1-3.1-9.8-2.5-14.9-1.7c-18.5,2.9-36.3,8.2-54.7,10.3l-0.2,0c0,0,0.1,0,0.1,0c-4.9,0.6-9.8,0.9-14.9,0.9h27.6
			c51,3.5,102.3,4.3,153.4,2.5c16.4-0.6,32.8,4.4,48.6,0.1c37.7,12.8,79.5,12.7,117-0.6c24.5,5.7,50,7.2,75,4.6
			c16.2-1.7,32.6,3.5,47-4.1c8.8,3.4,19.1,3.2,27.4-1.3c5.6,3.6,19.3-1.1,45.9-1.1C541,206.1,533.7,209.1,525.2,204.4z"/>
	</g>
	<g class="st3">
		<g class="st4">
			<g>
				<path class="st5" d="M374.3,452.2l-27.2-14.7c-0.8-0.4-1.1-1.4-0.6-2.2c0.4-0.8,1.4-1.1,2.2-0.6l28.6,15.4L374.3,452.2z"/>
				<path class="st5" d="M374.3,452.2l-27.2-14.7c-0.8-0.4-1.1-1.4-0.6-2.2l29.3,15.8L374.3,452.2z"/>
			</g>
			<g>
				<path class="st5" d="M377.2,450.1l11.3,29.8c0.3,0.8-0.1,1.7-0.9,2.1c-0.8,0.3-1.7-0.1-2.1-0.9l-11.1-28.9L377.2,450.1z"/>
				<path class="st5" d="M377.2,450.1l11.3,29.8c0.3,0.8-0.1,1.7-0.9,2.1l-11.8-30.8L377.2,450.1z"/>
			</g>
			<g>
				<path class="st5" d="M161.1,333.6l27.2,14.7c0.8,0.4,1.1,1.4,0.6,2.2c-0.4,0.8-1.4,1.1-2.2,0.6l-28.6-15.4L161.1,333.6z"/>
				<path class="st5" d="M161.1,333.6l27.2,14.7c0.8,0.4,1.1,1.4,0.6,2.2l-29.3-15.8L161.1,333.6z"/>
			</g>
			<g>
				<path class="st5" d="M158.3,335.7L147,305.9c-0.3-0.8,0.1-1.7,0.9-2.1c0.8-0.3,1.7,0.1,2.1,0.9l11.1,28.9L158.3,335.7z"/>
				<path class="st5" d="M158.3,335.7L147,305.9c-0.3-0.8,0.1-1.7,0.9-2.1l11.8,30.8L158.3,335.7z"/>
			</g>
			<g>
				<path class="st5" d="M175.7,343.3c1.7-3.1,5.5-4.3,8.7-2.6l172.2,92.9c2.7,1.4,3.5,5.1,1.8,8.2c-1.7,3.1-5.2,4.5-7.9,3
					l-172.2-92.9C175.2,350.3,174.1,346.4,175.7,343.3L175.7,343.3z"/>
				<path class="st5" d="M175.7,343.3c1.7-3.1,5.5-4.3,8.7-2.6l172.2,92.9c2.7,1.4,3.5,5.1,1.8,8.2L175.7,343.3L175.7,343.3z"/>
			</g>
		</g>
		<g class="st4">
			<g>
				<path class="st5" d="M132.5,359.1l27.2,14.7c0.8,0.4,1.1,1.4,0.6,2.2c-0.4,0.8-1.4,1.1-2.2,0.6l-28.6-15.4L132.5,359.1z"/>
				<path class="st5" d="M132.5,359.1l27.2,14.7c0.8,0.4,1.1,1.4,0.6,2.2l-29.3-15.8L132.5,359.1z"/>
			</g>
			<g>
				<path class="st5" d="M129.6,361.2l-11.3-29.8c-0.3-0.8,0.1-1.7,0.9-2.1c0.8-0.3,1.7,0.1,2.1,0.9l11.1,28.9L129.6,361.2z"/>
				<path class="st5" d="M129.6,361.2l-11.3-29.8c-0.3-0.8,0.1-1.7,0.9-2.1l11.8,30.8L129.6,361.2z"/>
			</g>
			<g>
				
					<ellipse transform="matrix(0.7857 -0.6186 0.6186 0.7857 -181.9127 141.5646)" class="st5" cx="113.4" cy="333.4" rx="16.7" ry="28.1"/>
				<path class="st5" d="M134.7,352.8c-0.8,1.5-1.8,2.7-3.1,3.7c-3.9,3.1-9.5,3.4-15.7,1c-6-2.3-11.9-6.9-16.7-13
					c-4.8-6.1-7.9-12.9-8.7-19.3c-0.9-6.6,0.8-11.9,4.7-15c3.9-3.1,9.5-3.4,15.7-1c6,2.3,11.9,6.9,16.7,13l0,0
					c4.8,6.1,7.9,12.9,8.7,19.3C136.9,346,136.3,349.8,134.7,352.8z M94.4,315.2c-1.3,2.5-1.8,5.8-1.3,9.7c0.8,5.9,3.7,12.3,8.2,18
					c4.5,5.7,10,10.1,15.6,12.2c5.3,2.1,10,1.8,13.1-0.6c3.1-2.5,4.4-6.9,3.7-12.6c-0.8-5.9-3.7-12.3-8.2-18l0,0
					c-4.5-5.7-10-10.1-15.6-12.2c-5.3-2.1-10-1.8-13.1,0.6C95.8,313.1,95,314,94.4,315.2z"/>
			</g>
			<g>
				<path class="st5" d="M109.2,342c-6.3-5.8-9.5-13.8-8.9-22.3c0.1-1.7-2.5-1.6-2.6,0.1c-0.7,9.2,2.9,18,9.7,24.2
					C108.6,345,110.4,343.1,109.2,342L109.2,342z"/>
			</g>
			<g>
				<path class="st5" d="M328.2,466.4c1.7-3.1,0.5-7-2.6-8.7l-172.2-92.9c-2.7-1.4-6.2-0.1-7.9,3c-1.7,3.1-0.9,6.8,1.8,8.2
					L319.5,469C322.6,470.7,326.5,469.5,328.2,466.4L328.2,466.4z"/>
				<path class="st5" d="M328.2,466.4c1.7-3.1,0.5-7-2.6-8.7l-172.2-92.9c-2.7-1.4-6.2-0.1-7.9,3L328.2,466.4L328.2,466.4z"/>
			</g>
		</g>
		<g class="st4">
			<g>
				<g>
					<polygon class="st5" points="253.1,457.3 134.1,405.4 134,408.3 246.7,470.2 246.7,470.2 246.7,470.2 298.3,492.7 302.4,484.4 
						253.1,457.3 253.1,457.3 					"/>
					<polygon class="st5" points="134.1,406.8 134,408.3 246.7,470.2 246.7,470.2 246.7,470.2 298.3,492.7 300.3,488.5 249.7,463.6 
											"/>
					<g>
						<path class="st5" d="M134.1,405.4l-25.4,6.7c-0.7,0.2-1.1,0.9-0.9,1.6c0.2,0.7,0.9,1.1,1.6,0.9l24.7-6.3L134.1,405.4z"/>
						<path class="st5" d="M134.1,405.4l-25.4,6.7c-0.7,0.2-1.1,0.9-0.9,1.6l26.3-6.8L134.1,405.4z"/>
					</g>
				</g>
				<g>
					<path class="st5" d="M135,398.3l-25.6,5.7c-0.7,0.2-1.2,0.9-1,1.6c0.2,0.7,0.9,1.2,1.6,1l24.9-5.4L135,398.3z"/>
					<path class="st5" d="M135,398.3l-25.6,5.7c-0.7,0.2-1.2,0.9-1,1.6l26.6-5.8L135,398.3z"/>
				</g>
				<g>
					<polygon class="st5" points="283.2,473.4 251.9,454.7 135,398.3 134.8,401.2 245.1,467.4 277.6,483.7 331.4,517.1 342.6,518.9 
						352,516.8 348.4,508.1 340.6,500.5 					"/>
					<polygon class="st5" points="248.3,460.9 134.9,399.8 134.8,401.2 245.1,467.4 277.6,483.7 331.4,517.1 342.6,518.9 352,516.8 
						280.5,478.3 280.5,478.3 					"/>
				</g>
			</g>
		</g>
	</g>
	<g class="st3">
		<path class="st6" d="M254.1,42.4c-27.6-11.7-35.6,14.3-44.1,19.7l40.6,62.6c4.2-10.8,38.1,35.4,44.5,30.4
			c6.4-4.9,5.8-13.3-9.1-46.2C271.2,76.2,281.7,54.1,254.1,42.4z"/>
		<path class="st6" d="M174,94.3c0.6-30,27.6-26.7,36-32.1l40.6,62.6c-11.6-0.5,16.7,49.3,9.6,53.1c-7.1,3.8-14.5-0.2-38.4-27.2
			C197.9,123.7,173.4,124.3,174,94.3z"/>
	</g>
	<g class="st3">
		<path class="st6" d="M809.4,394.8c0,0-4.1-1.1-5.4-4.7c-1.3-3.5-2.1-9.9,3.9-11.5c6-1.6,9.4-0.2,13.1-1.6c3.6-1.4,5.5-2.1,8.4-1.6
			c2.9,0.5,6.7,4.1,6.7,4.1s-3.3,1-5.5,2.9c-2.1,1.9-3.1,4.8-3.1,4.8L809.4,394.8z"/>
		<path class="st6" d="M809.4,394.8c0,0-2,3.7-0.5,7.1c1.6,3.4,5.6,8.4,10.9,5.3c5.4-3.2,6.8-6.6,10.3-8.2c3.5-1.6,5.4-2.4,7-4.8
			c1.6-2.4,1.8-7.6,1.8-7.6s-3.1,1.7-5.9,1.9c-2.9,0.2-5.6-1.1-5.6-1.1L809.4,394.8z"/>
		<polygon class="st6" points="648.7,500.7 758.7,416 769.9,429.4 660.6,515.7 		"/>
		<polygon class="st6" points="618.3,410.7 756.6,398.7 758.8,416 620.2,429.7 		"/>
		
			<ellipse transform="matrix(0.9224 -0.3862 0.3862 0.9224 -98.1521 330.0822)" class="st6" cx="772.4" cy="409.3" rx="22.6" ry="22.6"/>
		<path class="st6" d="M751.7,418.3c4.9,11.3,18,16.6,29.4,11.9s16.8-17.8,12.2-29.3L751.7,418.3z"/>
		<polygon class="st6" points="787.4,424.7 806.5,421.7 821.1,406.1 804,409.2 789.5,408.1 		"/>
		<polygon class="st6" points="775,388.7 790.5,377.2 811.9,377.8 797.7,387.8 788.3,398.9 		"/>
	</g>
	<g>
		<g>
			<path class="st7" d="M754.3,356.6C726,508,580.2,607.9,428.8,579.5c-151.5-28.4-251.3-174.1-222.9-325.6
				C234.2,102.4,380,2.6,531.4,31C682.9,59.4,782.7,205.1,754.3,356.6z"/>
			<path class="st8" d="M672.5,341.3c-19.9,106.3-122.2,176.3-228.5,156.4c-106.3-19.9-176.3-122.2-156.4-228.4
				C307.6,163,409.8,92.9,516.1,112.8C622.4,132.7,692.4,235,672.5,341.3z"/>
			<path class="st7" d="M589.4,325.7c-11.3,60.4-69.4,100.1-129.8,88.8c-60.4-11.3-100.2-69.4-88.9-129.8
				c11.3-60.4,69.4-100.2,129.8-88.9C560.9,207.2,600.7,265.3,589.4,325.7z"/>
		</g>
		<path class="st8" d="M530,314.6c-5.2,27.5-31.7,45.7-59.2,40.5c-27.6-5.2-45.7-31.7-40.6-59.2c5.2-27.6,31.7-45.7,59.2-40.6
			C517,260.5,535.1,287,530,314.6z"/>
		<polygon class="st9" points="654.7,141.1 654.4,174.4 720.9,126.5 721.1,83.1 		"/>
		<polygon class="st9" points="689.5,201.4 660.2,188.3 728.8,143.9 767,161.1 		"/>
		<path class="st10" d="M737.3,138.4c1.3-7-3.2-13.7-9.8-15c-3.3-0.6-6.5,0.1-9,1.9l-52.1,34.9l-8.4,7.4l-181.2,126
			c-2.9,1.7-5.1,4.7-5.8,8.5c-1.2,6.7,3,13.1,9.4,14.4c3.8,0.7,7.4-0.5,10.1-3l0.1,0.1l241-166.4
			C734.4,145.3,736.6,142.2,737.3,138.4z"/>
	</g>
</g>
<g id="vision_1_" class="st11">
	<rect id="fondo" class="st12" width="960" height="610"/>
	<g id="nubes" class="st4">
		<path id="XMLID_3637_" class="st1" d="M550.2,89.4c-7.7-4.3-15.6-8.7-24.3-10c-8.7-1.3-18.6-0.2-23.8,6.9
			c-11.8-7.3-28.2-7.8-41-2.4c-2.4-7.3-13.2-10.8-19.9-7.1c0.7-7.9-4.2-16.1-11.5-19.2c-7.4-3.1-16.6-0.8-21.7,5.3
			c-1.8-2.7-5.5-4.1-8.6-3.2c-3.2,0.9-4.6,1.9-4.9,5.2c-4.5-9.8-12.5-18.2-22.6-21.9s-22.2-2.4-30.5,4.6
			c-8.2,6.9-12.2,18.9-7.4,28.6c-6.7-8.2-17.4-12.9-28-12.2c-10.6,0.6-20.9,7-26.6,15.9c-4.6-5.6-13.7-6.8-19.6-2.5
			c-2.4-5.4-10.2-6.9-14.2-2.7c2.1-6.3,0.4-13.8-4.2-18.6c-4.6-4.8-10.1-6-16.6-4.2c0.6-3.8,1.3-7.7,0.5-11.5
			c-0.8-3.8-3.4-7.4-7.1-8.4c-3.8-0.9-5.9,1.6-5.7,5.5c-5.9-9.9-17.6-16.1-29.2-15.5c-11.5,0.6-22.5,8.1-27.2,18.7
			c-3.5,7.7-3.3,16.5-0.2,24.3c-2-2.9-4.3-5.6-7.3-7.5c-5.5-3.6-13.8-3.8-18,1.3c-2.8,3.4-3,8.4-1.7,12.6c1.3,4.2,3.4,8.3,6,11.9
			c-1.9-3-5.6-4.7-9.1-4.4c-3.5,0.3-6.7,2.4-8,5.6c-4.1-3.1-9.8-2.5-14.9-1.7c-18.5,2.9-36.3,8.2-54.7,10.3l-0.2,0c0,0,0.1,0,0.1,0
			c-4.9,0.6-9.8,0.9-14.9,0.9h27.6c51,3.5,102.3,4.3,153.4,2.5c16.4-0.6,32.8,4.4,48.6,0.1c37.7,12.8,79.5,12.7,117-0.6
			c24.5,5.7,50,7.2,75,4.6c16.2-1.7,32.6,3.5,47-4.1c8.8,3.4,19.1,3.2,27.4-1.3c5.6,3.6,19.3-1.1,45.9-1.1
			C566,91.1,558.7,94.1,550.2,89.4z"/>
		<path id="XMLID_3514_" class="st1" d="M924.7,239c-0.7-4.8-5.3-8.3-10-9.3c-4.7-1-9.3,0.6-14,1.5c4-4,8.1-8.2,10.7-13.3
			c2.5-5.1,3.2-11.5,0.3-16.4c-2.9-4.9-9.1-7.5-13.8-4.3c-2.4-10.3-13-18.1-23.6-17.2c-10.6,0.9-19.7,10.4-20.2,21
			c-3.4-1.5-7.5-1.1-10.6,1c-3.1,2.1-4,5.8-3.9,9.5c-8.3-7.6-21.7-8.9-31.3-3c-9.6,5.9-14.3,18.7-11.2,29.5c-1.4-2.5-4.3-4.1-7.2-4
			c-2.9,0.1-5.6,2-6.8,4.6c-2.3-1.5-5-1.2-6.2,1.2c-2.6-3-7-3.9-10.9-3.3c-3.9,0.5-7.6,2.2-11.3,3.8C731.4,250,706,251,680.8,251h62
			c12.8,1.6,25.5,3.2,38.3,4.8c4.2,0.5,9.1,0.9,12.3-2c2.4,1.7,7.1,1.8,8.9-0.5c4.1,1.1,8.4,1.6,12.6,2.1c9.8,1.1,20.1,2.1,29-2
			c10.4,7.7,26.3,7.4,37.4,0.8c2.7,1.1,6.2,1.7,9,1.4c3-0.3,6-0.6,9.1-0.9c5.2-0.5,10.9,2.1,15.9,0.6c2.4-0.7,4.7-2.4,6.1-4.5h0
			C924,247.6,925.3,243.2,924.7,239z"/>
		<path id="XMLID_3600_" class="st1" d="M242.2,493.9c-0.6-0.4-1.3-0.6-2-0.6c2.7-5.2,3.2-12.2,0-16.4c-4.4-5.8-12.9-9.2-18.6-4.6
			c1.8-2.6,1.3-6.6-1.1-8.8c-2.4-2.1-5.6-3.3-8-1.2c5.8-7.4,1-19.1-7.7-22.5c-0.2-8.1-8.4-15.1-16.4-14c-7.5,1-13.5,9.2-12.6,16.6
			c-0.7-2.4-2.9-4.3-5.4-4.5c-3-0.3-5.9,4-6.6,7c0.8-2.2-0.5-4.8-2.6-5.6c-2.1-0.8-5.3,4.7-6.1,6.8c0-7.8-7.6-14.4-15.4-14.7
			c-7.8-0.3-15.2,4.9-19,11.7c-3.8,6.8-4.8,17.1-3.7,24.8c0-2.3-2.3-4.3-4.6-4c-1.7,0.2-3.3,3.3-3.8,5.8c-0.3-1.7-1.5-3.2-3.1-3.7
			c-2.4-0.8-6.2,1.5-7,3.9c1-9-8.7-16.3-17.7-15.8c-9,0.5-16.8,6.4-23,12.9c-9,9.3-11.4,23.9-36.1,31.2c3.3,2,24.3,3.3,27.7,1.4
			c5.7,3.9,14.1,3.9,20.5,1.4c25.3,6.7,52.3,6.7,78,2.1c16.7,0.1,33.4,0.2,50,0.3c6.2,0,12.4-1.1,18.6-1.8c5.8,6,15.8,7.2,22.8,2.8
			c1.8-1.1,3.5-2.7,4.2-4.7C244.4,497.7,244,495.1,242.2,493.9z"/>
		<path id="XMLID_3569_" class="st1" d="M893.7,551.5c-0.9-6.5-5.9-12.4-12.4-13.6c-5.6-1-13.3,3.1-15.7,8.5
			c0.4-3.3-0.9-6.8-3.6-8.7c-3.4-2.5-8.8-2.4-11.9,0.4c1.9-7.7,0.5-16.4-4.5-22.6c-5-6.2-13.8-9.3-21.4-6.9
			c-7.6,2.4-14.8,11.8-13.4,19.6c-0.7-2.8-3.4-5.1-6.3-5.2c-2.9-0.1-5.8,1.9-6.7,4.7c-1.4-2.3-4.7-3.4-7.2-2.3
			c-2,0.8-4.2,3.4-4.8,5.7c-0.2-2.1-1.4-4.1-3.2-5.1c-2.4-1.4-3.6-1.7-5.6,0.1c0.2-5.8,0.4-11.8-1.2-17.4
			c-1.6-5.6-5.4-10.9-10.9-12.8c-5.5-1.9-12,0.5-13.8,6c-1.4-5.6-7.3-9.6-13-8.9c-5.7,0.7-10.4,6.1-10.3,11.8
			c-0.9-3-4.5-4.7-7.4-3.6c-2.9,1.2-5.4,4.2-3.9,7c-11.7-2.3-24.5,1.6-33,10.1c-8.5,8.5-10.6,21.2-8.3,32.9c-4.1-3-9.4-1-10.3,3.7
			c-0.1-3.1-4.6-5.3-7.7-3.9c-3.5,1.5-4.2,6.2-7.1,8.6c-1.9,1.6-4.4,2.9-7,3.9c-7,1.1-13.8,2.3-20.3,3.5c0.1,0,0.3,0,0.5,0
			c-0.2,0-0.3,0-0.5,0h1.6c12.2,0.2,49.1,4.5,58.4,7c9.7,2.7,19.8,0.1,29-4c2.6,3.4,8,4,11.3,1.3c2.3,2.2,7.6,1.5,10.2-0.3
			c12,4.4,26.4,4.9,38.3,0.1c5.3,5.5,15.1,5.8,20.7,0.6c2.4,3.2,7.6,4.2,10.8,1.8c21.3,7.3,44.7,6.6,65.3-2.6
			c3.3,2.7,7.8,4.1,12.1,3.5c3.6-0.4,7.3-2.4,8.5-5.8c0.7-1.9,0.3-4.2-0.9-5.8C891.5,559.6,894.4,556.1,893.7,551.5z"/>
		<path id="XMLID_3643_" class="st1" d="M616.8,343c-7.2-2.4-13.2-5-19,0.1c1.2-8.1,2.2-16.5-0.1-24.4c-2.3-7.9-8.8-15.1-17-15.7
			c-5.9-0.5-12.4,3.7-14.4,8.9c-0.8-3.1-2.8-6-5.6-7.5c-4.8-2.5-11.2-0.9-14.4,3.4c1.8-4.6-0.8-10.5-5.4-12.3
			c-4.6-1.8-6.9-2-8.8,2.6c-14.5-22.8-46.1-32.9-71.1-22.7c-25,10.2-40.4,39.8-34.8,66.3c-1.5-6.4-8.6-10.9-15.1-9.5
			c-6.4,1.4-11.7,8.8-10.4,15.2c-2.1-5.1-8.9-6.6-14.2-5c-5.3,1.6-9.6,5.3-14.4,8c-2.1,1.2-4.2,2.1-6.3,2.8c21.8,0,33.4,4,48.3,2.6
			c3.8,2.5,8.5,3.2,13,2.2c2.6-0.6,5.2-1.9,7.9-1.6c2.5,0.2,4.7,1.7,6.9,2.8c8.9,4.5,20.2,3.7,28.3-2.1c17.5,7.4,37.9,6.9,55.2-1
			c4.4,4.5,12.9,3.7,17.8-0.3c20.3,7.2,42.7,6.8,62.7-1.5c9.5,4,17.8-1.2,41.9-1.2C637.6,349.7,627.2,346.3,616.8,343z"/>
	</g>
	<g class="st13">
		<path class="st6" d="M305.4,155.8c-26.8-13.5-36.5,11.9-45.3,16.9l36.4,65.1c4.9-10.5,35.8,37.7,42.5,33.2
			c6.7-4.5,6.6-12.9-6.1-46.7C320.3,190.7,332.2,169.3,305.4,155.8z"/>
		<path class="st6" d="M222.2,202.5c2.5-29.9,29.2-24.8,38-29.8l36.4,65.1c-11.5-1.3,13.5,50.2,6.1,53.6
			c-7.4,3.4-14.5-1.1-36.6-29.6C244.1,233.3,219.6,232.4,222.2,202.5z"/>
	</g>
	<g class="st13">
		<g class="st4">
			<g>
				<path class="st5" d="M458.6,298.7l9.6-29.4c0.3-0.8-0.2-1.7-1-2c-0.8-0.3-1.7,0.2-2,1l-10,30.9L458.6,298.7z"/>
				<path class="st5" d="M458.6,298.7l9.6-29.4c0.3-0.8-0.2-1.7-1-2L456.8,299L458.6,298.7z"/>
			</g>
			<g>
				<path class="st5" d="M455.1,299.2l12.4,29.3c0.3,0.8,1.3,1.2,2.1,0.9c0.8-0.3,1.2-1.3,0.9-2.1l-11.9-28.6L455.1,299.2z"/>
				<path class="st5" d="M455.1,299.2l12.4,29.3c0.3,0.8,1.3,1.2,2.1,0.9L456.8,299L455.1,299.2z"/>
			</g>
			<g>
				<path class="st5" d="M530.9,65.8l-9.6,29.4c-0.3,0.8,0.2,1.7,1,2c0.8,0.3,1.7-0.2,2-1l10-30.9L530.9,65.8z"/>
				<path class="st5" d="M530.9,65.8l-9.6,29.4c-0.3,0.8,0.2,1.7,1,2l10.3-31.7L530.9,65.8z"/>
			</g>
			<g>
				<path class="st5" d="M534.4,65.3L522,36c-0.3-0.8-1.3-1.2-2.1-0.9c-0.8,0.3-1.2,1.3-0.9,2.1l11.9,28.6L534.4,65.3z"/>
				<path class="st5" d="M534.4,65.3L522,36c-0.3-0.8-1.3-1.2-2.1-0.9l12.8,30.4L534.4,65.3z"/>
			</g>
			<g>
				<path class="st5" d="M527,82.8c-3.4-1.1-7,0.7-8,4.1L458.6,273c-0.9,2.9,1,6.1,4.4,7.2c3.4,1.1,6.8-0.4,7.8-3.2l60.4-186.1
					C532.2,87.5,530.4,83.9,527,82.8L527,82.8z"/>
				<path class="st5" d="M527,82.8c-3.4-1.1-7,0.7-8,4.1L458.6,273c-0.9,2.9,1,6.1,4.4,7.2L527,82.8L527,82.8z"/>
			</g>
		</g>
		<g class="st4">
			<g>
				<path class="st5" d="M569.2,64.5l-9.6,29.4c-0.3,0.8,0.2,1.7,1,2c0.8,0.3,1.7-0.2,2-1l10-30.9L569.2,64.5z"/>
				<path class="st5" d="M569.2,64.5l-9.6,29.4c-0.3,0.8,0.2,1.7,1,2L571,64.2L569.2,64.5z"/>
			</g>
			<g>
				<path class="st5" d="M572.7,64l-12.4-29.3c-0.3-0.8-1.3-1.2-2.1-0.9c-0.8,0.3-1.2,1.3-0.9,2.1l11.9,28.6L572.7,64z"/>
				<path class="st5" d="M572.7,64l-12.4-29.3c-0.3-0.8-1.3-1.2-2.1-0.9L571,64.2L572.7,64z"/>
			</g>
			<g>
				
					<ellipse transform="matrix(0.9955 -9.524953e-02 9.524953e-02 0.9955 -0.5382 53.9891)" class="st5" cx="565.3" cy="32.6" rx="16.7" ry="28.1"/>
				<path class="st5" d="M554.3,54.3c-3.8-5.2-6.3-12.3-7-20l0,0c-0.7-7.7,0.4-15.2,3.1-21c2.8-6,7.1-9.6,12-10.1
					c4.9-0.5,9.8,2.2,13.7,7.6c3.8,5.2,6.3,12.3,7,20c0.7,7.7-0.4,15.2-3.1,21c-2.8,6-7.1,9.6-12,10.1c-1.6,0.2-3.2,0-4.8-0.5
					C560,60.4,557,58,554.3,54.3z M562.7,5.9c-4,0.4-7.5,3.4-9.9,8.6c-2.5,5.4-3.6,12.3-2.9,19.6l0,0c0.7,7.3,3,13.9,6.5,18.7
					c3.4,4.6,7.4,6.9,11.4,6.5c4-0.4,7.5-3.4,9.9-8.6c2.5-5.4,3.6-12.3,2.9-19.6c-0.7-7.3-3-13.9-6.5-18.7c-2.3-3.2-4.9-5.2-7.6-6.1
					C565.2,6,563.9,5.8,562.7,5.9z"/>
			</g>
			<g>
				<path class="st5" d="M574.3,35.9c0.6-8.5-2.7-16.5-9-22.3c-1.3-1.1,0.7-2.9,2-1.8c6.8,6.2,10.3,15,9.7,24.2
					C576.8,37.7,574.1,37.6,574.3,35.9L574.3,35.9z"/>
			</g>
			<g>
				<path class="st5" d="M501.8,277.2c-3.4-1.1-5.2-4.7-4.1-8l60.4-186.1c0.9-2.9,4.4-4.3,7.8-3.2c3.4,1.1,5.3,4.3,4.4,7.2
					l-60.4,186.1C508.8,276.5,505.2,278.3,501.8,277.2L501.8,277.2z"/>
				<path class="st5" d="M501.8,277.2c-3.4-1.1-5.2-4.7-4.1-8l60.4-186.1c0.9-2.9,4.4-4.3,7.8-3.2L501.8,277.2L501.8,277.2z"/>
			</g>
		</g>
		<g class="st4">
			<g>
				<g>
					<polygon class="st5" points="549.8,218.7 600,99 602.1,101.1 563.3,223.7 563.3,223.7 563.3,223.7 541.6,275.6 532.8,272.4 
						549.8,218.7 549.8,218.7 					"/>
					<polygon class="st5" points="601,100 602.1,101.1 563.3,223.7 563.3,223.7 563.3,223.7 541.6,275.6 537.2,274 556.7,221 					
						"/>
					<g>
						<path class="st5" d="M600,99l23-12.7c0.6-0.4,1.4-0.1,1.8,0.5c0.4,0.6,0.1,1.4-0.5,1.8l-22.2,12.5L600,99z"/>
						<path class="st5" d="M600,99l23-12.7c0.6-0.4,1.4-0.1,1.8,0.5L601,100L600,99z"/>
					</g>
				</g>
				<g>
					<path class="st5" d="M594.5,94.5L617,80.9c0.6-0.4,1.4-0.2,1.8,0.4c0.4,0.6,0.2,1.4-0.4,1.8l-21.7,13.3L594.5,94.5z"/>
					<path class="st5" d="M594.5,94.5L617,80.9c0.6-0.4,1.4-0.2,1.8,0.4l-23.2,14.1L594.5,94.5z"/>
				</g>
				<g>
					<polygon class="st5" points="539.1,251.2 548.8,216 594.5,94.5 596.6,96.5 562.6,220.5 550.3,254.8 534.5,316.1 527.6,325.1 
						519.4,330.1 516,321.4 516.4,310.4 					"/>
					<polygon class="st5" points="555.8,218 595.6,95.5 596.6,96.5 562.6,220.5 550.3,254.8 534.5,316.1 527.6,325.1 519.4,330.1 
						544.5,252.9 544.5,252.9 					"/>
				</g>
			</g>
		</g>
	</g>
	<g class="st13">
		<path class="st6" d="M361.5,145.6c0,0,1.1,4.1-1.2,7c-2.3,2.9-7.4,6.9-11.9,2.6c-4.5-4.4-5-8-8.1-10.4c-3.1-2.4-4.7-3.6-5.7-6.3
			c-1-2.7,0-7.8,0-7.8s2.6,2.3,5.3,3.2c2.8,0.8,5.7,0.2,5.7,0.2L361.5,145.6z"/>
		<path class="st6" d="M361.5,145.6c0,0,4.2-0.2,6.3-3.3c2.1-3.1,4.4-9.1-1.2-12.1c-5.5-3-9.1-2.4-12.3-4.6
			c-3.2-2.2-4.8-3.4-7.8-3.5c-2.9-0.2-7.5,2.4-7.5,2.4s3,1.7,4.7,4.1c1.6,2.4,1.9,5.4,1.9,5.4L361.5,145.6z"/>
		<polygon class="st6" points="535.2,228.5 405.9,178 411.6,161.5 541.9,210.5 		"/>
		<polygon class="st6" points="473.8,301 392.1,188.8 405.8,177.9 489.1,289.5 		"/>
		
			<ellipse transform="matrix(0.5904 -0.8071 0.8071 0.5904 23.9813 386.7648)" class="st6" cx="393.1" cy="169.8" rx="22.6" ry="22.6"/>
		<path class="st6" d="M411.4,182.8c7.2-10.1,5-24-5-31.3c-10-7.3-24-5.2-31.4,4.7L411.4,182.8z"/>
		<polygon class="st6" points="398.5,148.9 386.1,134.2 365.1,129.7 376.6,142.7 383.2,155.7 		"/>
		<polygon class="st6" points="374.1,178.2 356.3,170.8 345.6,152.2 361.6,159.2 375.9,161.5 		"/>
	</g>
	<g class="st4">
		<g>
			<path class="st14" d="M206.5,319.9l-4.9,19.2c0,0,11.4,46.6,43.9,39l3.6-32.6l-31.5-20.4L206.5,319.9z"/>
			
				<rect x="190.5" y="287.5" transform="matrix(0.9122 -0.4099 0.4099 0.9122 -110.0326 110.42)" class="st15" width="24.1" height="48.8"/>
			<path class="st14" d="M178,299.1c1.2,2.7,4.3,3.9,7,2.7l20.5-9.2c2.7-1.2,3.9-4.4,2.7-7l0,0c-1.2-2.7-4.3-3.9-7-2.7l-20.5,9.2
				C178,293.2,176.8,296.4,178,299.1L178,299.1z"/>
			<path class="st16" d="M509.2,317.9c5.3-3.2,12.2-1.5,15.4,3.8l134.1,222.7c3.2,5.3,1.5,12.2-3.8,15.4c-1.8,1.1-3.8,1.6-5.8,1.6
				c-3.8,0-7.5-1.9-9.6-5.4L505.4,333.3C502.2,328,503.9,321.1,509.2,317.9z"/>
			<path class="st16" d="M511,317.9c-5.3-3.2-12.2-1.5-15.4,3.8L361.6,544.4c-3.2,5.3-1.5,12.2,3.8,15.4c1.8,1.1,3.8,1.6,5.8,1.6
				c3.8,0,7.5-1.9,9.6-5.4l134.1-222.7C518,328,516.3,321.1,511,317.9z"/>
			<g>
				<line class="st17" x1="519.4" y1="552.4" x2="519.4" y2="329.1"/>
				<path class="st16" d="M509.6,562c6.2,0,11.2-5,11.2-11.2V327.5c0-6.2-5-11.2-11.2-11.2c-6.2,0-11.2,5-11.2,11.2v223.3
					C498.4,557,503.4,562,509.6,562z"/>
			</g>
			<g>
				<g>
					<path class="st18" d="M559.4,268.2c0.2,0.5,0.5,1,0.7,1.5c14.1,31,0.5,67.6-30.5,81.8c-31,14.1-67.6,0.5-81.8-30.5
						c-0.2-0.5-0.4-1-0.7-1.5L559.4,268.2z"/>
				</g>
			</g>
			<g>
				<polygon class="st15" points="235.5,355.9 223.8,329.7 270.9,308.6 282.6,334.6 				"/>
				<polygon class="st16" points="235.5,355.9 282.6,334.6 292.6,356.9 245.5,378.1 				"/>
				<path class="st19" d="M602.7,127.4c0.4,1.5,0.9,3,1.6,4.5l21.6,48.1l-337.5,152l-5.7,2.6l-11.7-26.1l-12-26.7L602.7,127.4z"/>
				<path class="st20" d="M288.4,332.1l337.5-152L646,225c0.7,1.5,1.5,2.9,2.3,4.2L304.6,383.6l-12-26.7l-10-22.2L288.4,332.1z"/>
				<path class="st16" d="M651.3,168.7l111.9-50.4l20.2,45c6.8,15,0,32.7-15,39.5L685.5,240c-13.6,6.1-29.2,1.2-37.1-10.8
					c-0.9-1.3-1.7-2.7-2.3-4.2l-20.2-44.9L651.3,168.7z"/>
				<path class="st15" d="M619.3,92.5l82.9-37.2c15-6.8,32.7,0,39.5,15l21.6,48l-111.9,50.4l-25.4,11.4L604.3,132
					c-0.7-1.5-1.2-3-1.6-4.5C598.9,113.5,605.7,98.6,619.3,92.5z"/>
			</g>
		</g>
	</g>
</g>
</svg>
