<?xml version="1.0" encoding="utf-8"?>
<!-- Generator: Adobe Illustrator 21.1.0, SVG Export Plug-In . SVG Version: 6.00 Build 0)  -->
<svg version="1.1" xmlns="http://www.w3.org/2000/svg" xmlns:xlink="http://www.w3.org/1999/xlink" x="0px" y="0px"
	 viewBox="0 0 130 130" style="enable-background:new 0 0 130 130;" xml:space="preserve">
<style type="text/css">
	.st0{display:none;}
	.st1{display:inline;fill:#4EAAD7;}
	.st2{fill:#4EAAD7;}
	.st3{fill:#FFFFFF;}
	.st4{fill:url(#SVGID_1_);}
	.st5{display:inline;}
	.st6{fill:none;}
	.st7{fill:none;stroke:#4EAAD7;stroke-width:2;stroke-miterlimit:10;}
</style>
<g id="iconos">
	<g class="st0">
		<rect x="49.8" y="88.5" class="st1" width="24.7" height="23"/>
		<polygon class="st1" points="77.5,111.5 102.7,111.5 102.7,98.1 77.5,89.7 		"/>
		<path class="st1" d="M113,51.3V38.1H89.8v5.3H76V21.9c0-0.9-0.7-1.6-1.6-1.6H59c-0.7-3-3.3-5.2-6.5-5.2c-3.7,0-6.7,3-6.7,6.7
			c0,3.7,3,6.7,6.7,6.7c3.1,0,5.6-2.1,6.4-4.9h13.8v44H61.3c-0.6,0-1.1,0.2-1.6,0.6l-3.6,3.6c-0.4,0.4-0.6,1-0.6,1.6v4.1h-2.2
			L19.6,41.8C18,40,15.2,40,13.4,41.6c-1.8,1.7-1.8,4.5-0.2,6.2l36.3,38.3h25.7l28.1,9.1c0.5,0.1,0.9,0.2,1.4,0.2
			c1.9,0,3.6-1.2,4.2-3c0.7-2.3-0.5-4.8-2.8-5.5l-29.4-9.5H59.9v-3.2l2.3-2.3h10.6v3.8H76v-3.8h3.4c1.2,0,2.2-1,2.2-2.2
			c0-1.2-1-2.2-2.2-2.2H76V46.3h13.8v5H113z M92.1,40.3h18.7v9.2H92.1V40.3z M52.5,26.4c-2.6,0-4.7-2.1-4.7-4.7
			c0-2.6,2.1-4.7,4.7-4.7c2.6,0,4.7,2.1,4.7,4.7C57.2,24.3,55.1,26.4,52.5,26.4z"/>
	</g>
	<g>
		<path class="st2" d="M80.5,66.7c3.1-9.5,7.8-23.8-2.5-30.3c-3.5-2.2-7-3.3-10.5-3.3c-3.8,0-6.9,1.3-9.2,2.3c-1,0.4-2.3,1-2.8,1
			c-0.5,0-1.8-0.5-2.8-1c-2.3-1-5.4-2.3-9.2-2.3c-3.5,0-6.9,1.1-10.5,3.3c-10.3,6.5-5.6,20.9-2.5,30.3c1,2.9,1.9,5.7,2,7.2
			c0.2,2.6,0,6-0.3,9.6c-0.4,5.7-0.9,11.5,0.4,16.5c2.3,8.4,9.6,14.5,9.9,14.7c0.7,0.6,1.5,0.9,2.3,0.9c0.1,0,0.1,0,0.2,0
			c2.2,0,4-1.8,4-4c0-0.4,0-0.7-0.1-1c-0.3-2-2.1-13.3,0.5-20.5c2-5.4,4.8-8.2,6.1-9c1.2,0.8,4.1,3.6,6.1,9
			c2.9,7.9,0.5,20.7,0.5,20.8c-0.3,1.6,0.4,3.3,1.9,4.2c0.6,0.4,1.3,0.6,2,0.6c0.9,0,1.8-0.3,2.5-0.9c0.3-0.3,7.6-6.3,9.9-14.7
			c1.3-4.9,0.9-10.8,0.4-16.5c-0.3-3.6-0.5-6.9-0.3-9.6C78.7,72.4,79.6,69.6,80.5,66.7z"/>
		<path class="st3" d="M68.8,38c8.6-2.4,13.4,19.6,7.9,23.1C74,46.9,60.2,40.4,68.8,38z"/>
	</g>
	<g>
		<linearGradient id="SVGID_1_" gradientUnits="userSpaceOnUse" x1="44.9191" y1="57.5069" x2="103.3192" y2="57.5069">
			<stop  offset="0" style="stop-color:#40607D;stop-opacity:0.6"/>
			<stop  offset="1" style="stop-color:#40607D"/>
		</linearGradient>
		<rect x="44.9" y="21" class="st4" width="58.4" height="73.1"/>
		<path class="st2" d="M104.2,95H44V20h60.2V95z M45.8,93.1h56.6V21.9H45.8V93.1z"/>
	</g>
	<g class="st0">
		<path class="st1" d="M89.5,71.5l-18.4,33.3h24.9V84.4C96.1,79.1,93.5,74.4,89.5,71.5z"/>
		<path class="st1" d="M39.6,71.5c-4,2.9-6.6,7.6-6.6,13v20.3h24.9L39.6,71.5z"/>
		<g class="st5">
			<circle class="st6" cx="64.5" cy="32.1" r="2.1"/>
			<path class="st2" d="M64.5,25c3.7,0,6.7,2.7,7.1,6.3H83c-1.3-9.4-6.2-13.5-18.5-13.5c-12.3,0-17.2,4.2-18.5,13.5h11.4
				C57.9,27.7,60.9,25,64.5,25z"/>
			<path class="st2" d="M64.5,26c-3.4,0-6.1,2.7-6.1,6.1s2.7,6.1,6.1,6.1c3.4,0,6.1-2.7,6.1-6.1S67.9,26,64.5,26z M64.5,34.3
				c-1.2,0-2.1-0.9-2.1-2.1c0-1.2,0.9-2.1,2.1-2.1c1.2,0,2.1,0.9,2.1,2.1C66.7,33.3,65.7,34.3,64.5,34.3z"/>
			<path class="st2" d="M83.9,39c-0.2-0.1-0.4,0-0.6,0c0-0.6,0.1-1.2,0.1-1.8c0-1.4-0.1-2.8-0.2-4.1H71.7c-0.5,3.5-3.5,6.3-7.1,6.3
				c-3.7,0-6.7-2.7-7.1-6.3H45.9c-0.1,1.3-0.2,2.6-0.2,4.1c0,0.6,0,1.2,0.1,1.8c-0.2-0.1-0.4-0.1-0.6,0c-1.2,0.4-1.4,3.1-0.4,6.2
				c0.9,3,2.6,5.2,3.8,4.9c3.3,7,9.3,11.7,16,11.7c6.8,0,12.7-4.7,16-11.7c1.2,0.3,2.8-1.9,3.8-4.9C85.3,42.1,85.1,39.3,83.9,39z"/>
		</g>
		<g class="st5">
			<path class="st2" d="M80,68.3h-5.2v4.7v0.8v9.4c0,1.4-1.1,2.5-2.5,2.5H56.8c-1.4,0-2.5-1.1-2.5-2.5v-9.4v-0.8v-4.7h-5.2
				c-2.5,0-4.9,0.6-7.1,1.7l19.2,34.7h6.8L87.1,70C84.9,69,82.5,68.3,80,68.3z"/>
			<path class="st2" d="M55.5,70.9c0.4-0.3,0.9-0.4,1.4-0.4h15.4c0.5,0,1,0.2,1.4,0.4v-2.6H71v-5.7c-2,1-4.2,1.5-6.5,1.5
				c-2.3,0-4.5-0.5-6.5-1.5v5.7h-2.6V70.9z"/>
		</g>
	</g>
</g>
<g id="circulo">
	<circle class="st7" cx="65" cy="65" r="62"/>
</g>
</svg>
