<?xml version="1.0" encoding="utf-8"?>
<!-- Generator: Adobe Illustrator 21.1.0, SVG Export Plug-In . SVG Version: 6.00 Build 0)  -->
<svg version="1.1" id="Capa_1" xmlns="http://www.w3.org/2000/svg" xmlns:xlink="http://www.w3.org/1999/xlink" x="0px" y="0px"
	 viewBox="0 0 840 410" style="enable-background:new 0 0 840 410;" xml:space="preserve">
<style type="text/css">
	.st0{fill:#3D93C1;}
	.st1{fill:#214E83;}
	.st2{enable-background:new    ;}
	.st3{fill:#FFFFFF;}
	.st4{opacity:0;}
	.st5{font-family:'Oswald-Regular';}
	.st6{font-size:14px;}
	.st7{fill:#266987;}
	.st8{fill:none;stroke:#214E83;stroke-miterlimit:10;}
	.st9{fill:none;stroke:#214E83;stroke-miterlimit:10;stroke-opacity:0;}
	.st10{fill:#3D93C1;fill-opacity:0;}
	.st11{fill:#266987;fill-opacity:0;}
	.st12{font-size:10px;}
</style>
<g>
	<rect x="360.5" y="5.5" class="st0" width="119" height="54"/>
	<path class="st1" d="M479,6v53H361V6H479 M480,5H360v55h120V5L480,5z"/>
</g>
<g class="st2">
	<path class="st3" d="M386.5,19.3h2.5c1.2,0,2.1,0.3,2.6,0.8s0.8,1.4,0.8,2.6v4.2c0,1.3-0.2,2.2-0.7,2.8c-0.5,0.6-1.3,0.9-2.5,0.9
		h-2.6V19.3z M389,29.5c0.6,0,0.9-0.1,1.2-0.3c0.2-0.2,0.4-0.5,0.5-0.9c0.1-0.4,0.1-0.9,0.1-1.7v-3.7c0-0.6,0-1.1-0.1-1.5
		c-0.1-0.3-0.2-0.6-0.5-0.8s-0.6-0.2-1.2-0.2h-0.9v9H389z"/>
	<path class="st3" d="M394,19.3h1.6v11.3H394V19.3z"/>
	<path class="st3" d="M397.3,19.3h2.3c1.1,0,2,0.2,2.5,0.7s0.8,1.2,0.8,2.3c0,1.5-0.5,2.3-1.4,2.6l1.6,5.7h-1.5l-1.5-5.3h-1.2v5.3
		h-1.6V19.3z M399.5,24.2c0.7,0,1.2-0.1,1.5-0.4c0.3-0.3,0.4-0.8,0.4-1.5c0-0.5-0.1-0.8-0.2-1.1c-0.1-0.3-0.3-0.5-0.5-0.6
		s-0.6-0.2-1.1-0.2h-0.7v3.8H399.5z"/>
	<path class="st3" d="M404.6,19.3h4.4v1.2h-2.8v3.8h2.3v1.1h-2.3v4.2h2.8v1.1h-4.4V19.3z"/>
	<path class="st3" d="M410.8,29.7c-0.5-0.7-0.7-1.6-0.7-2.8v-4c0-1.2,0.2-2.2,0.7-2.8c0.4-0.6,1.2-1,2.4-1c1,0,1.7,0.3,2.2,0.8
		c0.4,0.6,0.7,1.4,0.7,2.4v0.9h-1.5v-0.8c0-0.5,0-0.9-0.1-1.2c0-0.3-0.2-0.5-0.4-0.7s-0.5-0.3-0.9-0.3c-0.4,0-0.7,0.1-1,0.3
		c-0.2,0.2-0.3,0.4-0.4,0.8c-0.1,0.3-0.1,0.8-0.1,1.3v4.5c0,0.6,0,1,0.1,1.4c0.1,0.3,0.2,0.6,0.5,0.7c0.2,0.1,0.5,0.2,0.9,0.2
		c0.4,0,0.7-0.1,0.9-0.3c0.2-0.2,0.3-0.4,0.4-0.7c0.1-0.3,0.1-0.7,0.1-1.3v-0.8h1.5v0.8c0,1.1-0.2,2-0.6,2.6
		c-0.4,0.6-1.2,0.9-2.2,0.9C412,30.7,411.2,30.4,410.8,29.7z"/>
	<path class="st3" d="M418.8,20.4h-1.9v-1.2h5.4v1.2h-1.9v10.2h-1.6V20.4z"/>
	<path class="st3" d="M423.8,29.8c-0.5-0.6-0.7-1.5-0.7-2.7v-4.3c0-1.2,0.2-2.1,0.7-2.7c0.5-0.6,1.3-0.9,2.4-0.9
		c1.1,0,1.9,0.3,2.4,0.9c0.5,0.6,0.7,1.5,0.7,2.7v4.3c0,1.2-0.2,2.1-0.7,2.7s-1.3,1-2.4,1C425.1,30.7,424.3,30.4,423.8,29.8z
		 M427.4,29c0.2-0.3,0.3-0.9,0.3-1.6v-5c0-0.7-0.1-1.2-0.3-1.5s-0.6-0.5-1.2-0.5c-0.6,0-1,0.2-1.2,0.5s-0.3,0.8-0.3,1.5v5
		c0,0.7,0.1,1.2,0.3,1.6c0.2,0.3,0.6,0.5,1.2,0.5C426.8,29.5,427.2,29.3,427.4,29z"/>
	<path class="st3" d="M430.8,19.3h2.3c1.1,0,2,0.2,2.5,0.7s0.8,1.2,0.8,2.3c0,1.5-0.5,2.3-1.4,2.6l1.6,5.7h-1.5l-1.5-5.3h-1.2v5.3
		h-1.6V19.3z M433,24.2c0.7,0,1.2-0.1,1.5-0.4c0.3-0.3,0.4-0.8,0.4-1.5c0-0.5-0.1-0.8-0.2-1.1c-0.1-0.3-0.3-0.5-0.5-0.6
		s-0.6-0.2-1.1-0.2h-0.7v3.8H433z"/>
	<path class="st3" d="M441.3,19.3h2.5c1.2,0,2.1,0.3,2.6,0.8s0.8,1.4,0.8,2.6v4.2c0,1.3-0.2,2.2-0.8,2.8c-0.5,0.6-1.3,0.9-2.5,0.9
		h-2.6V19.3z M443.8,29.5c0.6,0,1-0.1,1.2-0.3s0.4-0.5,0.5-0.9c0.1-0.4,0.1-0.9,0.1-1.7v-3.7c0-0.6,0-1.1-0.1-1.5
		c-0.1-0.3-0.2-0.6-0.5-0.8s-0.6-0.2-1.2-0.2h-0.9v9H443.8z"/>
	<path class="st3" d="M448.7,19.3h4.4v1.2h-2.8v3.8h2.3v1.1h-2.3v4.2h2.8v1.1h-4.4V19.3z"/>
</g>
<g class="st2">
	<path class="st3" d="M396.7,46.5c-0.5-0.7-0.7-1.6-0.7-2.8v-4c0-1.2,0.2-2.2,0.7-2.8c0.4-0.6,1.2-1,2.4-1c1,0,1.7,0.3,2.2,0.8
		c0.4,0.6,0.7,1.4,0.7,2.4v0.9h-1.5v-0.8c0-0.5,0-0.9-0.1-1.2c0-0.3-0.2-0.5-0.4-0.7s-0.5-0.3-0.9-0.3c-0.4,0-0.7,0.1-1,0.3
		c-0.2,0.2-0.3,0.4-0.4,0.8c-0.1,0.3-0.1,0.8-0.1,1.3V44c0,0.6,0,1,0.1,1.4c0.1,0.3,0.2,0.6,0.5,0.7c0.2,0.1,0.5,0.2,0.9,0.2
		c0.4,0,0.7-0.1,0.9-0.3c0.2-0.2,0.3-0.4,0.4-0.7c0.1-0.3,0.1-0.7,0.1-1.3v-0.8h1.5V44c0,1.1-0.2,2-0.6,2.6
		c-0.4,0.6-1.2,0.9-2.2,0.9C397.9,47.5,397.1,47.2,396.7,46.5z"/>
	<path class="st3" d="M405.2,36.1h1.5l2.4,11.3h-1.5l-0.5-2.9h-2.3l-0.5,2.9h-1.5L405.2,36.1z M406.9,43.4l-1-5.1l-0.9,5.1H406.9z"
		/>
	<path class="st3" d="M410.3,36.1h2.3c1.1,0,2,0.2,2.5,0.7s0.8,1.2,0.8,2.3c0,1.5-0.5,2.3-1.4,2.6l1.6,5.7h-1.5l-1.5-5.3h-1.2v5.3
		h-1.6V36.1z M412.5,41c0.7,0,1.2-0.1,1.5-0.4c0.3-0.3,0.4-0.8,0.4-1.5c0-0.5-0.1-0.8-0.2-1.1c-0.1-0.3-0.3-0.5-0.5-0.6
		s-0.6-0.2-1.1-0.2h-0.7V41H412.5z"/>
	<path class="st3" d="M417.6,36.1h2.3c1.1,0,2,0.2,2.5,0.7c0.5,0.5,0.8,1.2,0.8,2.3c0,1.5-0.5,2.3-1.4,2.6l1.6,5.7h-1.5l-1.5-5.3
		h-1.2v5.3h-1.6V36.1z M419.7,41c0.7,0,1.2-0.1,1.5-0.4c0.3-0.3,0.4-0.8,0.4-1.5c0-0.5-0.1-0.8-0.2-1.1c-0.1-0.3-0.3-0.5-0.5-0.6
		c-0.3-0.1-0.6-0.2-1.1-0.2h-0.7V41H419.7z"/>
	<path class="st3" d="M424.8,36.1h4.4v1.2h-2.8V41h2.3v1.1h-2.3v4.2h2.8v1.1h-4.4V36.1z"/>
	<path class="st3" d="M430.5,36.1h2.3c1.1,0,2,0.2,2.5,0.7c0.5,0.5,0.8,1.2,0.8,2.3c0,1.5-0.5,2.3-1.4,2.6l1.6,5.7h-1.5l-1.5-5.3
		h-1.2v5.3h-1.6V36.1z M432.7,41c0.7,0,1.2-0.1,1.5-0.4c0.3-0.3,0.4-0.8,0.4-1.5c0-0.5-0.1-0.8-0.2-1.1c-0.1-0.3-0.3-0.5-0.5-0.6
		c-0.3-0.1-0.6-0.2-1.1-0.2h-0.7V41H432.7z"/>
	<path class="st3" d="M439.6,36.1h1.5l2.4,11.3H442l-0.5-2.9h-2.3l-0.5,2.9h-1.5L439.6,36.1z M441.3,43.4l-1-5.1l-0.9,5.1H441.3z"/>
</g>
<g class="st4">
	<rect x="10.5" y="99.5" class="st0" width="119" height="77"/>
	<path class="st1" d="M129,100v76H11v-76H129 M130,99H10v78h120V99L130,99z"/>
</g>
<text transform="matrix(1 0 0 1 29.54 126.4769)" class="st3 st5 st6">ENCARGADO DE</text>
<text transform="matrix(1 0 0 1 35.04 143.2769)" class="st3 st5 st6">DOCENCIA DE</text>
<text transform="matrix(1 0 0 1 37.24 160.0769)" class="st3 st5 st6">CS. BÁSICAS</text>
<g class="st4">
	<rect x="150.5" y="99.5" class="st0" width="119" height="77"/>
	<path class="st1" d="M269,100v76H151v-76H269 M270,99H150v78h120V99L270,99z"/>
</g>
<text transform="matrix(1 0 0 1 169.54 134.8771)" class="st3 st5 st6">ENCARGADO DE</text>
<text transform="matrix(1 0 0 1 178.74 151.6771)" class="st3 st5 st6">PRECLÍNICO</text>
<g class="st4">
	<rect x="290.5" y="99.5" class="st0" width="119" height="77"/>
	<path class="st1" d="M409,100v76H291v-76H409 M410,99H290v78h120V99L410,99z"/>
</g>
<text transform="matrix(1 0 0 1 309.54 118.077)" class="st3 st5 st6">ENCARGADO DE</text>
<text transform="matrix(1 0 0 1 309.44 134.877)" class="st3 st5 st6">COORDINACIÓN</text>
<text transform="matrix(1 0 0 1 310.94 151.677)" class="st3 st5 st6">ACADEMICA DE</text>
<text transform="matrix(1 0 0 1 328.94 168.477)" class="st3 st5 st6">CLÍNICA</text>
<g>
	<rect x="430.5" y="99.5" class="st7" width="119" height="77"/>
	<path class="st1" d="M549,100v76H431v-76H549 M550,99H430v78h120V99L550,99z"/>
</g>
<g class="st2">
	<path class="st3" d="M464.6,115.1h2.5c1.2,0,2.1,0.3,2.6,0.8c0.5,0.6,0.8,1.4,0.8,2.6v4.2c0,1.3-0.2,2.2-0.7,2.8
		c-0.5,0.6-1.3,0.9-2.5,0.9h-2.6V115.1z M467.1,125.3c0.6,0,1-0.1,1.2-0.3c0.2-0.2,0.4-0.5,0.5-0.9c0.1-0.4,0.1-0.9,0.1-1.7v-3.7
		c0-0.6,0-1.1-0.1-1.5s-0.2-0.6-0.5-0.8s-0.6-0.2-1.2-0.2h-0.9v9H467.1z"/>
	<path class="st3" d="M472.1,115.1h1.6v11.3h-1.6V115.1z"/>
	<path class="st3" d="M475.5,115.1h2.3c1.1,0,2,0.2,2.5,0.7c0.5,0.5,0.8,1.2,0.8,2.3c0,1.5-0.5,2.3-1.4,2.6l1.6,5.7h-1.5l-1.5-5.3
		h-1.2v5.3h-1.6V115.1z M477.7,120c0.7,0,1.2-0.1,1.5-0.4c0.3-0.3,0.4-0.8,0.4-1.5c0-0.5-0.1-0.8-0.2-1.1c-0.1-0.3-0.3-0.5-0.5-0.6
		c-0.3-0.1-0.6-0.2-1.1-0.2h-0.7v3.8H477.7z"/>
	<path class="st3" d="M482.7,115.1h4.4v1.2h-2.8v3.8h2.3v1.1h-2.3v4.2h2.8v1.1h-4.4V115.1z"/>
	<path class="st3" d="M488.9,125.6c-0.5-0.7-0.7-1.6-0.7-2.8v-4c0-1.2,0.2-2.2,0.7-2.8c0.4-0.6,1.2-1,2.4-1c1,0,1.7,0.3,2.2,0.8
		c0.4,0.6,0.7,1.4,0.7,2.4v0.9h-1.5v-0.8c0-0.5,0-0.9-0.1-1.2c0-0.3-0.2-0.5-0.4-0.7s-0.5-0.3-0.9-0.3c-0.4,0-0.7,0.1-1,0.3
		c-0.2,0.2-0.3,0.4-0.4,0.8c-0.1,0.3-0.1,0.8-0.1,1.3v4.5c0,0.6,0,1,0.1,1.4c0.1,0.3,0.2,0.6,0.5,0.7c0.2,0.1,0.5,0.2,0.9,0.2
		c0.4,0,0.7-0.1,0.9-0.3c0.2-0.2,0.3-0.4,0.4-0.7c0.1-0.3,0.1-0.7,0.1-1.3v-0.8h1.5v0.8c0,1.1-0.2,2-0.6,2.6
		c-0.4,0.6-1.2,0.9-2.2,0.9C490.2,126.6,489.4,126.3,488.9,125.6z"/>
	<path class="st3" d="M496.9,116.3H495v-1.2h5.4v1.2h-1.9v10.2h-1.6V116.3z"/>
	<path class="st3" d="M501.9,125.7c-0.5-0.6-0.7-1.5-0.7-2.7v-4.3c0-1.2,0.2-2.1,0.7-2.7c0.5-0.6,1.3-0.9,2.4-0.9s1.9,0.3,2.4,0.9
		c0.5,0.6,0.7,1.5,0.7,2.7v4.3c0,1.2-0.2,2.1-0.7,2.7c-0.5,0.6-1.3,1-2.4,1C503.2,126.6,502.4,126.3,501.9,125.7z M505.5,124.8
		c0.2-0.3,0.3-0.9,0.3-1.6v-5c0-0.7-0.1-1.2-0.3-1.5s-0.6-0.5-1.2-0.5c-0.6,0-1,0.2-1.2,0.5c-0.2,0.3-0.3,0.8-0.3,1.5v5
		c0,0.7,0.1,1.2,0.3,1.6c0.2,0.3,0.6,0.5,1.2,0.5C504.9,125.4,505.3,125.2,505.5,124.8z"/>
	<path class="st3" d="M509,115.1h2.3c1.1,0,2,0.2,2.5,0.7c0.5,0.5,0.8,1.2,0.8,2.3c0,1.5-0.5,2.3-1.4,2.6l1.6,5.7h-1.5l-1.5-5.3
		h-1.2v5.3H509V115.1z M511.2,120c0.7,0,1.2-0.1,1.5-0.4c0.3-0.3,0.4-0.8,0.4-1.5c0-0.5-0.1-0.8-0.2-1.1c-0.1-0.3-0.3-0.5-0.5-0.6
		c-0.3-0.1-0.6-0.2-1.1-0.2h-0.7v3.8H511.2z"/>
</g>
<g class="st2">
	<path class="st3" d="M461.4,133.1h-1.9v-1.2h5.4v1.2H463v10.2h-1.6V133.1z"/>
	<path class="st3" d="M465.9,131.9h4.4v1.2h-2.8v3.8h2.3v1.1h-2.3v4.2h2.8v1.1h-4.4V131.9z M468.6,128.5h1.5l-1.6,2.8h-0.8
		L468.6,128.5z"/>
	<path class="st3" d="M472.1,142.4c-0.5-0.7-0.7-1.6-0.7-2.8v-4c0-1.2,0.2-2.2,0.7-2.8c0.4-0.6,1.2-1,2.4-1c1,0,1.7,0.3,2.2,0.8
		c0.4,0.6,0.7,1.4,0.7,2.4v0.9h-1.5v-0.8c0-0.5,0-0.9-0.1-1.2c0-0.3-0.2-0.5-0.4-0.7s-0.5-0.3-0.9-0.3c-0.4,0-0.7,0.1-1,0.3
		c-0.2,0.2-0.3,0.4-0.4,0.8c-0.1,0.3-0.1,0.8-0.1,1.3v4.5c0,0.6,0,1,0.1,1.4c0.1,0.3,0.2,0.6,0.5,0.7s0.5,0.2,0.9,0.2
		c0.4,0,0.7-0.1,0.9-0.3c0.2-0.2,0.3-0.4,0.4-0.7c0.1-0.3,0.1-0.7,0.1-1.3v-0.8h1.5v0.8c0,1.1-0.2,2-0.6,2.6
		c-0.4,0.6-1.2,0.9-2.2,0.9C473.3,143.4,472.5,143.1,472.1,142.4z"/>
	<path class="st3" d="M478.8,131.9h1.1l3.2,7.5v-7.5h1.3v11.3h-1l-3.3-7.7v7.7h-1.3V131.9z"/>
	<path class="st3" d="M486.3,131.9h1.6v11.3h-1.6V131.9z"/>
	<path class="st3" d="M490.2,142.4c-0.5-0.7-0.7-1.6-0.7-2.8v-4c0-1.2,0.2-2.2,0.7-2.8c0.4-0.6,1.2-1,2.4-1c1,0,1.7,0.3,2.2,0.8
		c0.4,0.6,0.7,1.4,0.7,2.4v0.9h-1.5v-0.8c0-0.5,0-0.9-0.1-1.2c0-0.3-0.2-0.5-0.4-0.7s-0.5-0.3-0.9-0.3c-0.4,0-0.7,0.1-1,0.3
		c-0.2,0.2-0.3,0.4-0.4,0.8c-0.1,0.3-0.1,0.8-0.1,1.3v4.5c0,0.6,0,1,0.1,1.4c0.1,0.3,0.2,0.6,0.5,0.7c0.2,0.1,0.5,0.2,0.9,0.2
		c0.4,0,0.7-0.1,0.9-0.3c0.2-0.2,0.3-0.4,0.4-0.7c0.1-0.3,0.1-0.7,0.1-1.3v-0.8h1.5v0.8c0,1.1-0.2,2-0.6,2.6
		c-0.4,0.6-1.2,0.9-2.2,0.9C491.4,143.4,490.6,143.1,490.2,142.4z"/>
	<path class="st3" d="M497.4,142.5c-0.5-0.6-0.7-1.5-0.7-2.7v-4.3c0-1.2,0.2-2.1,0.7-2.7c0.5-0.6,1.3-0.9,2.4-0.9
		c1.1,0,1.9,0.3,2.4,0.9c0.5,0.6,0.7,1.5,0.7,2.7v4.3c0,1.2-0.2,2.1-0.7,2.7c-0.5,0.6-1.3,1-2.4,1
		C498.7,143.4,497.9,143.1,497.4,142.5z M501,141.6c0.2-0.3,0.3-0.9,0.3-1.6v-5c0-0.7-0.1-1.2-0.3-1.5c-0.2-0.3-0.6-0.5-1.2-0.5
		c-0.6,0-1,0.2-1.2,0.5s-0.3,0.8-0.3,1.5v5c0,0.7,0.1,1.2,0.3,1.6c0.2,0.3,0.6,0.5,1.2,0.5C500.4,142.2,500.8,142,501,141.6z"/>
	<path class="st3" d="M507.6,131.9h2.5c1.2,0,2.1,0.3,2.6,0.8s0.8,1.4,0.8,2.6v4.2c0,1.3-0.2,2.2-0.7,2.8c-0.5,0.6-1.3,0.9-2.5,0.9
		h-2.6V131.9z M510.1,142.1c0.6,0,0.9-0.1,1.2-0.3c0.2-0.2,0.4-0.5,0.5-0.9c0.1-0.4,0.1-0.9,0.1-1.7v-3.7c0-0.6,0-1.1-0.1-1.5
		c-0.1-0.3-0.2-0.6-0.5-0.8s-0.6-0.2-1.2-0.2h-0.9v9H510.1z"/>
	<path class="st3" d="M515,131.9h4.4v1.2h-2.8v3.8h2.3v1.1h-2.3v4.2h2.8v1.1H515V131.9z"/>
</g>
<g class="st2">
	<path class="st3" d="M470.3,159.2c-0.5-0.7-0.7-1.6-0.7-2.8v-4c0-1.2,0.2-2.2,0.7-2.8c0.4-0.6,1.2-1,2.4-1c1,0,1.7,0.3,2.2,0.8
		c0.4,0.6,0.7,1.4,0.7,2.4v0.9H474V152c0-0.5,0-0.9-0.1-1.2c0-0.3-0.2-0.5-0.4-0.7s-0.5-0.3-0.9-0.3c-0.4,0-0.7,0.1-1,0.3
		c-0.2,0.2-0.3,0.4-0.4,0.8c-0.1,0.3-0.1,0.8-0.1,1.3v4.5c0,0.6,0,1,0.1,1.4c0.1,0.3,0.2,0.6,0.5,0.7c0.2,0.1,0.5,0.2,0.9,0.2
		c0.4,0,0.7-0.1,0.9-0.3c0.2-0.2,0.3-0.4,0.4-0.7c0.1-0.3,0.1-0.7,0.1-1.3v-0.8h1.5v0.8c0,1.1-0.2,2-0.6,2.6
		c-0.4,0.6-1.2,0.9-2.2,0.9C471.6,160.2,470.8,159.9,470.3,159.2z"/>
	<path class="st3" d="M477,148.7h1.6v10.2h2.9v1.1H477V148.7z"/>
	<path class="st3" d="M482.7,148.7h1.6v11.3h-1.6V148.7z M483.9,145.3h1.5l-1.6,2.8h-0.8L483.9,145.3z"/>
	<path class="st3" d="M486.1,148.7h1.1l3.2,7.5v-7.5h1.3v11.3h-1l-3.3-7.7v7.7h-1.3V148.7z"/>
	<path class="st3" d="M493.5,148.7h1.6v11.3h-1.6V148.7z"/>
	<path class="st3" d="M497.4,159.2c-0.5-0.7-0.7-1.6-0.7-2.8v-4c0-1.2,0.2-2.2,0.7-2.8c0.4-0.6,1.2-1,2.4-1c1,0,1.7,0.3,2.2,0.8
		c0.4,0.6,0.7,1.4,0.7,2.4v0.9h-1.5V152c0-0.5,0-0.9-0.1-1.2c0-0.3-0.2-0.5-0.4-0.7s-0.5-0.3-0.9-0.3c-0.4,0-0.7,0.1-1,0.3
		c-0.2,0.2-0.3,0.4-0.4,0.8c-0.1,0.3-0.1,0.8-0.1,1.3v4.5c0,0.6,0,1,0.1,1.4c0.1,0.3,0.2,0.6,0.5,0.7c0.2,0.1,0.5,0.2,0.9,0.2
		c0.4,0,0.7-0.1,0.9-0.3c0.2-0.2,0.3-0.4,0.4-0.7c0.1-0.3,0.1-0.7,0.1-1.3v-0.8h1.5v0.8c0,1.1-0.2,2-0.6,2.6
		c-0.4,0.6-1.2,0.9-2.2,0.9C498.7,160.2,497.9,159.9,497.4,159.2z"/>
	<path class="st3" d="M505.9,148.7h1.5l2.4,11.3h-1.5l-0.5-2.9h-2.3l-0.5,2.9h-1.5L505.9,148.7z M507.7,156.1l-1-5.1l-0.9,5.1H507.7
		z"/>
</g>
<g class="st4">
	<rect x="570.5" y="99.5" class="st0" width="119" height="77"/>
	<path class="st1" d="M689,100v76H571v-76H689 M690,99H570v78h120V99L690,99z"/>
</g>
<text transform="matrix(1 0 0 1 586.2642 134.8771)" class="st3 st5 st6">ADMINISTRADOR</text>
<text transform="matrix(1 0 0 1 589.3642 151.6771)" class="st3 st5 st6">DE LA CARRERA</text>
<g>
	<rect x="710.5" y="99.5" class="st0" width="119" height="77"/>
	<path class="st1" d="M829,100v76H711v-76H829 M830,99H710v78h120V99L830,99z"/>
</g>
<g class="st2">
	<path class="st3" d="M739.5,134.1c-0.5-0.6-0.8-1.4-0.8-2.4l1.4-0.4c0,0.7,0.2,1.3,0.4,1.8s0.6,0.7,1.2,0.7c0.4,0,0.7-0.1,0.9-0.3
		s0.3-0.6,0.3-1c0-0.5-0.1-0.9-0.3-1.2c-0.2-0.3-0.5-0.6-0.9-1l-1.9-1.7c-0.4-0.3-0.7-0.7-0.8-1.1c-0.2-0.4-0.3-0.9-0.3-1.4
		c0-0.8,0.2-1.5,0.7-1.9c0.5-0.5,1.1-0.7,1.9-0.7c0.9,0,1.6,0.2,2,0.7c0.5,0.5,0.7,1.2,0.8,2.2l-1.3,0.4c0-0.7-0.2-1.2-0.4-1.5
		s-0.6-0.5-1.1-0.5c-0.4,0-0.7,0.1-0.9,0.3c-0.2,0.2-0.3,0.5-0.3,0.9c0,0.3,0.1,0.6,0.2,0.8s0.3,0.5,0.6,0.7l1.9,1.7
		c0.5,0.4,0.9,0.9,1.2,1.4c0.3,0.5,0.4,1.1,0.4,1.8c0,0.8-0.3,1.5-0.8,2s-1.2,0.7-2,0.7C740.8,135,740,134.7,739.5,134.1z"/>
	<path class="st3" d="M745.7,123.5h4.4v1.2h-2.8v3.8h2.3v1.1h-2.3v4.2h2.8v1.1h-4.4V123.5z"/>
	<path class="st3" d="M751.8,134c-0.5-0.7-0.7-1.6-0.7-2.8v-4c0-1.2,0.2-2.2,0.7-2.8c0.4-0.6,1.2-1,2.4-1c1,0,1.7,0.3,2.2,0.8
		c0.4,0.6,0.7,1.4,0.7,2.4v0.9h-1.5v-0.8c0-0.5,0-0.9-0.1-1.2c0-0.3-0.2-0.5-0.4-0.7s-0.5-0.3-0.9-0.3c-0.4,0-0.7,0.1-1,0.3
		c-0.2,0.2-0.3,0.4-0.4,0.8c-0.1,0.3-0.1,0.8-0.1,1.3v4.5c0,0.6,0,1,0.1,1.4c0.1,0.3,0.2,0.6,0.5,0.7c0.2,0.1,0.5,0.2,0.9,0.2
		c0.4,0,0.7-0.1,0.9-0.3c0.2-0.2,0.3-0.4,0.4-0.7c0.1-0.3,0.1-0.7,0.1-1.3v-0.8h1.5v0.8c0,1.1-0.2,2-0.6,2.6
		c-0.4,0.6-1.2,0.9-2.2,0.9C753.1,135,752.3,134.7,751.8,134z"/>
	<path class="st3" d="M758.6,123.5h2.3c1.1,0,2,0.2,2.5,0.7c0.5,0.5,0.8,1.2,0.8,2.3c0,1.5-0.5,2.3-1.4,2.6l1.6,5.7h-1.5l-1.5-5.3
		h-1.2v5.3h-1.6V123.5z M760.8,128.4c0.7,0,1.2-0.1,1.5-0.4c0.3-0.3,0.4-0.8,0.4-1.5c0-0.5-0.1-0.8-0.2-1.1
		c-0.1-0.3-0.3-0.5-0.5-0.6c-0.3-0.1-0.6-0.2-1.1-0.2h-0.7v3.8H760.8z"/>
	<path class="st3" d="M765.8,123.5h4.4v1.2h-2.8v3.8h2.3v1.1h-2.3v4.2h2.8v1.1h-4.4V123.5z"/>
	<path class="st3" d="M772.8,124.7h-1.9v-1.2h5.4v1.2h-1.9v10.2h-1.6V124.7z"/>
	<path class="st3" d="M779.1,123.5h1.5l2.4,11.3h-1.5L781,132h-2.3l-0.5,2.9h-1.5L779.1,123.5z M780.8,130.9l-1-5.1l-0.9,5.1H780.8z
		"/>
	<path class="st3" d="M784.2,123.5h2.3c1.1,0,2,0.2,2.5,0.7c0.5,0.5,0.8,1.2,0.8,2.3c0,1.5-0.5,2.3-1.4,2.6l1.6,5.7h-1.5l-1.5-5.3
		h-1.2v5.3h-1.6V123.5z M786.4,128.4c0.7,0,1.2-0.1,1.5-0.4c0.3-0.3,0.4-0.8,0.4-1.5c0-0.5-0.1-0.8-0.2-1.1
		c-0.1-0.3-0.3-0.5-0.5-0.6c-0.3-0.1-0.6-0.2-1.1-0.2h-0.7v3.8H786.4z"/>
	<path class="st3" d="M791.5,123.5h1.6v11.3h-1.6V123.5z"/>
	<path class="st3" d="M796.7,123.5h1.5l2.4,11.3h-1.5l-0.5-2.9h-2.3l-0.5,2.9h-1.5L796.7,123.5z M798.4,130.9l-1-5.1l-0.9,5.1H798.4
		z"/>
</g>
<g class="st2">
	<path class="st3" d="M735.9,140.3h2.5c1.2,0,2.1,0.3,2.6,0.8s0.8,1.4,0.8,2.6v4.2c0,1.3-0.2,2.2-0.7,2.8c-0.5,0.6-1.3,0.9-2.5,0.9
		h-2.6V140.3z M738.4,150.5c0.6,0,1-0.1,1.2-0.3s0.4-0.5,0.5-0.9c0.1-0.4,0.1-0.9,0.1-1.7V144c0-0.6,0-1.1-0.1-1.5
		c-0.1-0.3-0.2-0.6-0.5-0.8s-0.6-0.2-1.2-0.2h-0.9v9H738.4z"/>
	<path class="st3" d="M743.3,140.3h4.4v1.2h-2.8v3.8h2.3v1.1h-2.3v4.2h2.8v1.1h-4.4V140.3z"/>
	<path class="st3" d="M752.2,140.3h2.5c1.2,0,2.1,0.3,2.6,0.8s0.8,1.4,0.8,2.6v4.2c0,1.3-0.2,2.2-0.7,2.8s-1.3,0.9-2.5,0.9h-2.6
		V140.3z M754.7,150.5c0.6,0,0.9-0.1,1.2-0.3c0.2-0.2,0.4-0.5,0.5-0.9c0.1-0.4,0.1-0.9,0.1-1.7V144c0-0.6,0-1.1-0.1-1.5
		s-0.2-0.6-0.5-0.8s-0.6-0.2-1.2-0.2h-0.9v9H754.7z"/>
	<path class="st3" d="M760.1,150.9c-0.5-0.6-0.7-1.5-0.7-2.7v-4.3c0-1.2,0.2-2.1,0.7-2.7c0.5-0.6,1.3-0.9,2.4-0.9s1.9,0.3,2.4,0.9
		c0.5,0.6,0.7,1.5,0.7,2.7v4.3c0,1.2-0.2,2.1-0.7,2.7s-1.3,1-2.4,1C761.4,151.8,760.6,151.5,760.1,150.9z M763.7,150
		c0.2-0.3,0.3-0.9,0.3-1.6v-5c0-0.7-0.1-1.2-0.3-1.5c-0.2-0.3-0.6-0.5-1.2-0.5c-0.6,0-1,0.2-1.2,0.5s-0.3,0.8-0.3,1.5v5
		c0,0.7,0.1,1.2,0.3,1.6c0.2,0.3,0.6,0.5,1.2,0.5C763.1,150.6,763.5,150.4,763.7,150z"/>
	<path class="st3" d="M767.6,150.8c-0.5-0.7-0.7-1.6-0.7-2.8v-4c0-1.2,0.2-2.2,0.7-2.8c0.4-0.6,1.2-1,2.4-1c1,0,1.7,0.3,2.2,0.8
		c0.4,0.6,0.7,1.4,0.7,2.4v0.9h-1.5v-0.8c0-0.5,0-0.9-0.1-1.2c0-0.3-0.2-0.5-0.4-0.7s-0.5-0.3-0.9-0.3c-0.4,0-0.7,0.1-1,0.3
		c-0.2,0.2-0.3,0.4-0.4,0.8c-0.1,0.3-0.1,0.8-0.1,1.3v4.5c0,0.6,0,1,0.1,1.4c0.1,0.3,0.2,0.6,0.5,0.7s0.5,0.2,0.9,0.2
		c0.4,0,0.7-0.1,0.9-0.3c0.2-0.2,0.3-0.4,0.4-0.7c0.1-0.3,0.1-0.7,0.1-1.3v-0.8h1.5v0.8c0,1.1-0.2,2-0.6,2.6
		c-0.4,0.6-1.2,0.9-2.2,0.9C768.9,151.8,768.1,151.5,767.6,150.8z"/>
	<path class="st3" d="M774.4,140.3h4.4v1.2h-2.8v3.8h2.3v1.1h-2.3v4.2h2.8v1.1h-4.4V140.3z"/>
	<path class="st3" d="M780.1,140.3h1.1l3.2,7.5v-7.5h1.3v11.3h-1l-3.3-7.7v7.7h-1.3V140.3z"/>
	<path class="st3" d="M787.9,150.8c-0.5-0.7-0.7-1.6-0.7-2.8v-4c0-1.2,0.2-2.2,0.7-2.8c0.4-0.6,1.2-1,2.4-1c1,0,1.7,0.3,2.2,0.8
		c0.4,0.6,0.7,1.4,0.7,2.4v0.9h-1.5v-0.8c0-0.5,0-0.9-0.1-1.2c0-0.3-0.2-0.5-0.4-0.7s-0.5-0.3-0.9-0.3c-0.4,0-0.7,0.1-1,0.3
		c-0.2,0.2-0.3,0.4-0.4,0.8c-0.1,0.3-0.1,0.8-0.1,1.3v4.5c0,0.6,0,1,0.1,1.4c0.1,0.3,0.2,0.6,0.5,0.7s0.5,0.2,0.9,0.2
		c0.4,0,0.7-0.1,0.9-0.3c0.2-0.2,0.3-0.4,0.4-0.7c0.1-0.3,0.1-0.7,0.1-1.3v-0.8h1.5v0.8c0,1.1-0.2,2-0.6,2.6
		c-0.4,0.6-1.2,0.9-2.2,0.9C789.2,151.8,788.4,151.5,787.9,150.8z"/>
	<path class="st3" d="M794.7,140.3h1.6v11.3h-1.6V140.3z"/>
	<path class="st3" d="M799.9,140.3h1.5l2.4,11.3h-1.5l-0.5-2.9h-2.3l-0.5,2.9h-1.5L799.9,140.3z M801.6,147.7l-1-5.1l-0.9,5.1H801.6
		z"/>
</g>
<g class="st4">
	<rect x="10.5" y="217.5" class="st0" width="119" height="77"/>
	<path class="st1" d="M129,218v76H11v-76H129 M130,217H10v78h120V217L130,217z"/>
</g>
<text transform="matrix(1 0 0 1 33.103 252.3104)" class="st3 st5 st6">ASIGNATURAS</text>
<text transform="matrix(1 0 0 1 29.103 269.1104)" class="st3 st5 st6">DE CS. BÁSICAS</text>
<g class="st4">
	<rect x="150.5" y="217.5" class="st0" width="119" height="77"/>
	<path class="st1" d="M269,218v76H151v-76H269 M270,217H150v78h120V217L270,217z"/>
</g>
<text transform="matrix(1 0 0 1 173.103 252.3104)" class="st3 st5 st6">ASIGNATURAS</text>
<text transform="matrix(1 0 0 1 170.603 269.1104)" class="st3 st5 st6">DE PRECLÍNICO</text>
<g class="st4">
	<rect x="290.5" y="218.5" class="st0" width="119" height="77"/>
	<path class="st1" d="M409,219v76H291v-76H409 M410,218H290v78h120V218L410,218z"/>
</g>
<text transform="matrix(1 0 0 1 313.103 243.9103)" class="st3 st5 st6">ASIGNATURAS</text>
<text transform="matrix(1 0 0 1 320.803 260.7103)" class="st3 st5 st6">DE CLÍNICA</text>
<text transform="matrix(1 0 0 1 308.903 277.5103)" class="st3 st5 st6">ODONTOLÓGICA</text>
<g>
	<rect x="430.5" y="218.5" class="st7" width="119" height="77"/>
	<path class="st1" d="M549,219v76H431v-76H549 M550,218H430v78h120V218L550,218z"/>
</g>
<g class="st2">
	<path class="st3" d="M456.8,232.6h4.4v1.2h-2.8v3.8h2.3v1.1h-2.3v4.2h2.8v1.1h-4.4V232.6z"/>
	<path class="st3" d="M462.5,232.6h1.1l3.2,7.5v-7.5h1.3v11.3h-1l-3.3-7.7v7.7h-1.3V232.6z"/>
	<path class="st3" d="M469.9,232.6h4.4v1.1h-2.8v3.8h2.2v1.1h-2.2v5.3h-1.6V232.6z"/>
	<path class="st3" d="M475.4,232.6h4.4v1.2H477v3.8h2.3v1.1H477v4.2h2.8v1.1h-4.4V232.6z"/>
	<path class="st3" d="M481.1,232.6h2.3c1.1,0,2,0.2,2.5,0.7s0.8,1.2,0.8,2.3c0,1.5-0.5,2.3-1.4,2.6l1.6,5.7h-1.5l-1.5-5.3h-1.2v5.3
		h-1.6V232.6z M483.3,237.5c0.7,0,1.2-0.1,1.5-0.4c0.3-0.3,0.4-0.8,0.4-1.5c0-0.5-0.1-0.8-0.2-1.1c-0.1-0.3-0.3-0.5-0.5-0.6
		s-0.6-0.2-1.1-0.2h-0.7v3.8H483.3z"/>
	<path class="st3" d="M488.5,232.6h1.6l2,9.2l2-9.2h1.5l0.2,11.3h-1.3l-0.1-8.2l-1.9,8.2h-0.9l-1.9-8.2l-0.1,8.2h-1.3L488.5,232.6z"
		/>
	<path class="st3" d="M497.6,232.6h4.4v1.2h-2.8v3.8h2.3v1.1h-2.3v4.2h2.8v1.1h-4.4V232.6z"/>
	<path class="st3" d="M503.3,232.6h2.3c1.1,0,2,0.2,2.5,0.7s0.8,1.2,0.8,2.3c0,1.5-0.5,2.3-1.4,2.6l1.6,5.7h-1.5l-1.5-5.3h-1.2v5.3
		h-1.6V232.6z M505.5,237.5c0.7,0,1.2-0.1,1.5-0.4c0.3-0.3,0.4-0.8,0.4-1.5c0-0.5-0.1-0.8-0.2-1.1c-0.1-0.3-0.3-0.5-0.5-0.6
		s-0.6-0.2-1.1-0.2h-0.7v3.8H505.5z"/>
	<path class="st3" d="M512.3,232.6h1.5l2.4,11.3h-1.5l-0.5-2.9H512l-0.5,2.9h-1.5L512.3,232.6z M514.1,239.9l-1-5.1l-0.9,5.1H514.1z
		"/>
	<path class="st3" d="M517.9,243.2c-0.5-0.6-0.8-1.4-0.8-2.4l1.4-0.4c0,0.7,0.2,1.3,0.4,1.8s0.6,0.7,1.2,0.7c0.4,0,0.7-0.1,0.9-0.3
		s0.3-0.6,0.3-1c0-0.5-0.1-0.9-0.3-1.2c-0.2-0.3-0.5-0.6-0.9-1l-1.9-1.7c-0.4-0.3-0.7-0.7-0.8-1.1c-0.2-0.4-0.3-0.9-0.3-1.4
		c0-0.8,0.2-1.5,0.7-1.9c0.5-0.5,1.1-0.7,1.9-0.7c0.9,0,1.6,0.2,2,0.7c0.5,0.5,0.7,1.2,0.8,2.2l-1.3,0.4c0-0.7-0.2-1.2-0.4-1.5
		s-0.6-0.5-1.1-0.5c-0.4,0-0.7,0.1-0.9,0.3s-0.3,0.5-0.3,0.9c0,0.3,0.1,0.6,0.2,0.8c0.1,0.2,0.3,0.5,0.6,0.7l1.9,1.7
		c0.5,0.4,0.9,0.9,1.2,1.4c0.3,0.5,0.4,1.1,0.4,1.8c0,0.8-0.3,1.5-0.8,2s-1.2,0.7-2,0.7C519.2,244,518.4,243.7,517.9,243.2z"/>
</g>
<g class="st2">
	<path class="st3" d="M445.7,259.8c-0.5-0.7-0.7-1.6-0.7-2.8v-4c0-1.2,0.2-2.2,0.7-2.8c0.4-0.6,1.2-1,2.4-1c1,0,1.7,0.3,2.2,0.8
		c0.4,0.6,0.7,1.4,0.7,2.4v0.9h-1.5v-0.8c0-0.5,0-0.9-0.1-1.2c0-0.3-0.2-0.5-0.4-0.7s-0.5-0.3-0.9-0.3c-0.4,0-0.7,0.1-1,0.3
		c-0.2,0.2-0.3,0.4-0.4,0.8c-0.1,0.3-0.1,0.8-0.1,1.3v4.5c0,0.6,0,1,0.1,1.4c0.1,0.3,0.2,0.6,0.5,0.7s0.5,0.2,0.9,0.2
		c0.4,0,0.7-0.1,0.9-0.3c0.2-0.2,0.3-0.4,0.4-0.7c0.1-0.3,0.1-0.7,0.1-1.3v-0.8h1.5v0.8c0,1.1-0.2,2-0.6,2.6
		c-0.4,0.6-1.2,0.9-2.2,0.9C446.9,260.8,446.2,260.5,445.7,259.8z"/>
	<path class="st3" d="M452.9,259.9c-0.5-0.6-0.7-1.5-0.7-2.7v-4.3c0-1.2,0.2-2.1,0.7-2.7c0.5-0.6,1.3-0.9,2.4-0.9s1.9,0.3,2.4,0.9
		c0.5,0.6,0.7,1.5,0.7,2.7v4.3c0,1.2-0.2,2.1-0.7,2.7s-1.3,1-2.4,1C454.2,260.8,453.4,260.5,452.9,259.9z M456.5,259.1
		c0.2-0.3,0.3-0.9,0.3-1.6v-5c0-0.7-0.1-1.2-0.3-1.5c-0.2-0.3-0.6-0.5-1.2-0.5c-0.6,0-1,0.2-1.2,0.5s-0.3,0.8-0.3,1.5v5
		c0,0.7,0.1,1.2,0.3,1.6c0.2,0.3,0.6,0.5,1.2,0.5C455.9,259.6,456.3,259.4,456.5,259.1z"/>
	<path class="st3" d="M460.5,259.9c-0.5-0.6-0.7-1.5-0.7-2.7v-4.3c0-1.2,0.2-2.1,0.7-2.7c0.5-0.6,1.3-0.9,2.4-0.9s1.9,0.3,2.4,0.9
		c0.5,0.6,0.7,1.5,0.7,2.7v4.3c0,1.2-0.2,2.1-0.7,2.7s-1.3,1-2.4,1C461.8,260.8,461,260.5,460.5,259.9z M464.1,259.1
		c0.2-0.3,0.3-0.9,0.3-1.6v-5c0-0.7-0.1-1.2-0.3-1.5c-0.2-0.3-0.6-0.5-1.2-0.5c-0.6,0-1,0.2-1.2,0.5s-0.3,0.8-0.3,1.5v5
		c0,0.7,0.1,1.2,0.3,1.6c0.2,0.3,0.6,0.5,1.2,0.5C463.5,259.6,463.9,259.4,464.1,259.1z"/>
	<path class="st3" d="M467.5,249.4h2.3c1.1,0,2,0.2,2.5,0.7c0.5,0.5,0.8,1.2,0.8,2.3c0,1.5-0.5,2.3-1.4,2.6l1.6,5.7h-1.5l-1.5-5.3
		h-1.2v5.3h-1.6V249.4z M469.7,254.3c0.7,0,1.2-0.1,1.5-0.4c0.3-0.3,0.4-0.8,0.4-1.5c0-0.5-0.1-0.8-0.2-1.1
		c-0.1-0.3-0.3-0.5-0.5-0.6c-0.3-0.1-0.6-0.2-1.1-0.2h-0.7v3.8H469.7z"/>
	<path class="st3" d="M474.8,249.4h2.5c1.2,0,2.1,0.3,2.6,0.8s0.8,1.4,0.8,2.6v4.2c0,1.3-0.2,2.2-0.7,2.8s-1.3,0.9-2.5,0.9h-2.6
		V249.4z M477.3,259.6c0.6,0,0.9-0.1,1.2-0.3c0.2-0.2,0.4-0.5,0.5-0.9c0.1-0.4,0.1-0.9,0.1-1.7V253c0-0.6,0-1.1-0.1-1.5
		s-0.2-0.6-0.5-0.8s-0.6-0.2-1.2-0.2h-0.9v9H477.3z"/>
	<path class="st3" d="M482.2,249.4h1.6v11.3h-1.6V249.4z"/>
	<path class="st3" d="M485.6,249.4h1.1l3.2,7.5v-7.5h1.3v11.3h-1L487,253v7.7h-1.3V249.4z"/>
	<path class="st3" d="M494.8,249.4h1.5l2.4,11.3h-1.5l-0.5-2.9h-2.3l-0.5,2.9h-1.5L494.8,249.4z M496.5,256.7l-1-5.1l-0.9,5.1H496.5
		z"/>
	<path class="st3" d="M499.9,249.4h2.5c1.2,0,2.1,0.3,2.6,0.8s0.8,1.4,0.8,2.6v4.2c0,1.3-0.2,2.2-0.7,2.8s-1.3,0.9-2.5,0.9h-2.6
		V249.4z M502.4,259.6c0.6,0,0.9-0.1,1.2-0.3c0.2-0.2,0.4-0.5,0.5-0.9c0.1-0.4,0.1-0.9,0.1-1.7V253c0-0.6,0-1.1-0.1-1.5
		s-0.2-0.6-0.5-0.8s-0.6-0.2-1.2-0.2h-0.9v9H502.4z"/>
	<path class="st3" d="M507.8,259.9c-0.5-0.6-0.7-1.5-0.7-2.7v-4.3c0-1.2,0.2-2.1,0.7-2.7c0.5-0.6,1.3-0.9,2.4-0.9s1.9,0.3,2.4,0.9
		c0.5,0.6,0.7,1.5,0.7,2.7v4.3c0,1.2-0.2,2.1-0.7,2.7s-1.3,1-2.4,1C509.1,260.8,508.3,260.5,507.8,259.9z M511.4,259.1
		c0.2-0.3,0.3-0.9,0.3-1.6v-5c0-0.7-0.1-1.2-0.3-1.5c-0.2-0.3-0.6-0.5-1.2-0.5c-0.6,0-1,0.2-1.2,0.5s-0.3,0.8-0.3,1.5v5
		c0,0.7,0.1,1.2,0.3,1.6c0.2,0.3,0.6,0.5,1.2,0.5C510.8,259.6,511.2,259.4,511.4,259.1z"/>
	<path class="st3" d="M514.8,249.4h2.3c1.1,0,2,0.2,2.5,0.7c0.5,0.5,0.8,1.2,0.8,2.3c0,1.5-0.5,2.3-1.4,2.6l1.6,5.7h-1.5l-1.5-5.3
		h-1.2v5.3h-1.6V249.4z M517,254.3c0.7,0,1.2-0.1,1.5-0.4c0.3-0.3,0.4-0.8,0.4-1.5c0-0.5-0.1-0.8-0.2-1.1c-0.1-0.3-0.3-0.5-0.5-0.6
		c-0.3-0.1-0.6-0.2-1.1-0.2h-0.7v3.8H517z"/>
	<path class="st3" d="M523.9,249.4h1.5l2.4,11.3h-1.5l-0.5-2.9h-2.3l-0.5,2.9h-1.5L523.9,249.4z M525.6,256.7l-1-5.1l-0.9,5.1H525.6
		z"/>
	<path class="st3" d="M529.5,260c-0.5-0.6-0.8-1.4-0.8-2.4l1.4-0.4c0,0.7,0.2,1.3,0.4,1.8s0.6,0.7,1.2,0.7c0.4,0,0.7-0.1,0.9-0.3
		s0.3-0.6,0.3-1c0-0.5-0.1-0.9-0.3-1.2c-0.2-0.3-0.5-0.6-0.9-1l-1.9-1.7c-0.4-0.3-0.7-0.7-0.8-1.1c-0.2-0.4-0.3-0.9-0.3-1.4
		c0-0.8,0.2-1.5,0.7-1.9c0.5-0.5,1.1-0.7,1.9-0.7c0.9,0,1.6,0.2,2,0.7c0.5,0.5,0.7,1.2,0.8,2.2l-1.3,0.4c0-0.7-0.2-1.2-0.4-1.5
		s-0.6-0.5-1.1-0.5c-0.4,0-0.7,0.1-0.9,0.3c-0.2,0.2-0.3,0.5-0.3,0.9c0,0.3,0.1,0.6,0.2,0.8s0.3,0.5,0.6,0.7l1.9,1.7
		c0.5,0.4,0.9,0.9,1.2,1.4c0.3,0.5,0.4,1.1,0.4,1.8c0,0.8-0.3,1.5-0.8,2s-1.2,0.7-2,0.7C530.7,260.8,530,260.5,529.5,260z"/>
</g>
<g class="st2">
	<path class="st3" d="M461.7,266.2h2.5c1.2,0,2.1,0.3,2.6,0.8s0.8,1.4,0.8,2.6v4.2c0,1.3-0.2,2.2-0.7,2.8s-1.3,0.9-2.5,0.9h-2.6
		V266.2z M464.2,276.4c0.6,0,0.9-0.1,1.2-0.3c0.2-0.2,0.4-0.5,0.5-0.9c0.1-0.4,0.1-0.9,0.1-1.7v-3.7c0-0.6,0-1.1-0.1-1.5
		s-0.2-0.6-0.5-0.8s-0.6-0.2-1.2-0.2h-0.9v9H464.2z"/>
	<path class="st3" d="M469.1,266.2h4.4v1.2h-2.8v3.8h2.3v1.1h-2.3v4.2h2.8v1.1h-4.4V266.2z"/>
	<path class="st3" d="M478.5,276.6c-0.5-0.7-0.7-1.6-0.7-2.8v-4c0-1.2,0.2-2.2,0.7-2.8c0.4-0.6,1.2-1,2.4-1c1,0,1.7,0.3,2.2,0.8
		c0.4,0.6,0.7,1.4,0.7,2.4v0.9h-1.5v-0.8c0-0.5,0-0.9-0.1-1.2c0-0.3-0.2-0.5-0.4-0.7s-0.5-0.3-0.9-0.3c-0.4,0-0.7,0.1-1,0.3
		c-0.2,0.2-0.3,0.4-0.4,0.8c-0.1,0.3-0.1,0.8-0.1,1.3v4.5c0,0.6,0,1,0.1,1.4c0.1,0.3,0.2,0.6,0.5,0.7c0.2,0.1,0.5,0.2,0.9,0.2
		c0.4,0,0.7-0.1,0.9-0.3c0.2-0.2,0.3-0.4,0.4-0.7c0.1-0.3,0.1-0.7,0.1-1.3v-0.8h1.5v0.8c0,1.1-0.2,2-0.6,2.6
		c-0.4,0.6-1.2,0.9-2.2,0.9C479.7,277.6,478.9,277.3,478.5,276.6z"/>
	<path class="st3" d="M485.2,266.2h1.6v10.2h2.9v1.1h-4.5V266.2z"/>
	<path class="st3" d="M490.9,266.2h1.6v11.3h-1.6V266.2z M492.1,262.7h1.5l-1.6,2.8h-0.8L492.1,262.7z"/>
	<path class="st3" d="M494.2,266.2h1.1l3.2,7.5v-7.5h1.3v11.3h-1l-3.3-7.7v7.7h-1.3V266.2z"/>
	<path class="st3" d="M501.7,266.2h1.6v11.3h-1.6V266.2z"/>
	<path class="st3" d="M505.6,276.6c-0.5-0.7-0.7-1.6-0.7-2.8v-4c0-1.2,0.2-2.2,0.7-2.8c0.4-0.6,1.2-1,2.4-1c1,0,1.7,0.3,2.2,0.8
		c0.4,0.6,0.7,1.4,0.7,2.4v0.9h-1.5v-0.8c0-0.5,0-0.9-0.1-1.2c0-0.3-0.2-0.5-0.4-0.7s-0.5-0.3-0.9-0.3c-0.4,0-0.7,0.1-1,0.3
		c-0.2,0.2-0.3,0.4-0.4,0.8c-0.1,0.3-0.1,0.8-0.1,1.3v4.5c0,0.6,0,1,0.1,1.4c0.1,0.3,0.2,0.6,0.5,0.7c0.2,0.1,0.5,0.2,0.9,0.2
		c0.4,0,0.7-0.1,0.9-0.3c0.2-0.2,0.3-0.4,0.4-0.7c0.1-0.3,0.1-0.7,0.1-1.3v-0.8h1.5v0.8c0,1.1-0.2,2-0.6,2.6
		c-0.4,0.6-1.2,0.9-2.2,0.9C506.8,277.6,506,277.3,505.6,276.6z"/>
	<path class="st3" d="M514.1,266.2h1.5l2.4,11.3h-1.5l-0.5-2.9h-2.3l-0.5,2.9h-1.5L514.1,266.2z M515.8,273.5l-1-5.1l-0.9,5.1H515.8
		z"/>
</g>
<g>
	<rect x="290.5" y="337.5" class="st7" width="119" height="61"/>
	<path class="st1" d="M409,338v60H291v-60H409 M410,337H290v62h120V337L410,337z"/>
</g>
<g class="st2">
	<path class="st3" d="M326.2,354.4h-1.9v-1.2h5.4v1.2h-1.9v10.2h-1.6V354.4z"/>
	<path class="st3" d="M330.8,353.3h4.4v1.2h-2.8v3.8h2.3v1.1h-2.3v4.2h2.8v1.1h-4.4V353.3z M333.4,349.8h1.5l-1.6,2.8h-0.8
		L333.4,349.8z"/>
	<path class="st3" d="M336.9,363.7c-0.5-0.7-0.7-1.6-0.7-2.8v-4c0-1.2,0.2-2.2,0.7-2.8c0.4-0.6,1.2-1,2.4-1c1,0,1.7,0.3,2.2,0.8
		c0.4,0.6,0.7,1.4,0.7,2.4v0.9h-1.5v-0.8c0-0.5,0-0.9-0.1-1.2c0-0.3-0.2-0.5-0.4-0.7s-0.5-0.3-0.9-0.3c-0.4,0-0.7,0.1-1,0.3
		c-0.2,0.2-0.3,0.4-0.4,0.8c-0.1,0.3-0.1,0.8-0.1,1.3v4.5c0,0.6,0,1,0.1,1.4c0.1,0.3,0.2,0.6,0.5,0.7c0.2,0.1,0.5,0.2,0.9,0.2
		c0.4,0,0.7-0.1,0.9-0.3c0.2-0.2,0.3-0.4,0.4-0.7c0.1-0.3,0.1-0.7,0.1-1.3v-0.8h1.5v0.8c0,1.1-0.2,2-0.6,2.6
		c-0.4,0.6-1.2,0.9-2.2,0.9C338.2,364.7,337.4,364.4,336.9,363.7z"/>
	<path class="st3" d="M343.7,353.3h1.1l3.2,7.5v-7.5h1.3v11.3h-1l-3.3-7.7v7.7h-1.3V353.3z"/>
	<path class="st3" d="M351.1,353.3h1.6v11.3h-1.6V353.3z"/>
	<path class="st3" d="M355,363.7c-0.5-0.7-0.7-1.6-0.7-2.8v-4c0-1.2,0.2-2.2,0.7-2.8c0.4-0.6,1.2-1,2.4-1c1,0,1.7,0.3,2.2,0.8
		c0.4,0.6,0.7,1.4,0.7,2.4v0.9h-1.5v-0.8c0-0.5,0-0.9-0.1-1.2c0-0.3-0.2-0.5-0.4-0.7s-0.5-0.3-0.9-0.3c-0.4,0-0.7,0.1-1,0.3
		c-0.2,0.2-0.3,0.4-0.4,0.8c-0.1,0.3-0.1,0.8-0.1,1.3v4.5c0,0.6,0,1,0.1,1.4c0.1,0.3,0.2,0.6,0.5,0.7c0.2,0.1,0.5,0.2,0.9,0.2
		c0.4,0,0.7-0.1,0.9-0.3c0.2-0.2,0.3-0.4,0.4-0.7c0.1-0.3,0.1-0.7,0.1-1.3v-0.8h1.5v0.8c0,1.1-0.2,2-0.6,2.6
		c-0.4,0.6-1.2,0.9-2.2,0.9C356.3,364.7,355.5,364.4,355,363.7z"/>
	<path class="st3" d="M362.2,363.8c-0.5-0.6-0.7-1.5-0.7-2.7v-4.3c0-1.2,0.2-2.1,0.7-2.7c0.5-0.6,1.3-0.9,2.4-0.9
		c1.1,0,1.9,0.3,2.4,0.9c0.5,0.6,0.7,1.5,0.7,2.7v4.3c0,1.2-0.2,2.1-0.7,2.7s-1.3,1-2.4,1C363.5,364.7,362.7,364.4,362.2,363.8z
		 M365.8,363c0.2-0.3,0.3-0.9,0.3-1.6v-5c0-0.7-0.1-1.2-0.3-1.5c-0.2-0.3-0.6-0.5-1.2-0.5c-0.6,0-1,0.2-1.2,0.5
		c-0.2,0.3-0.3,0.8-0.3,1.5v5c0,0.7,0.1,1.2,0.3,1.6c0.2,0.3,0.6,0.5,1.2,0.5C365.2,363.5,365.6,363.3,365.8,363z"/>
	<path class="st3" d="M369.8,363.9c-0.5-0.6-0.8-1.4-0.8-2.4l1.4-0.4c0,0.7,0.2,1.3,0.4,1.8c0.2,0.4,0.6,0.7,1.2,0.7
		c0.4,0,0.7-0.1,0.9-0.3s0.3-0.6,0.3-1c0-0.5-0.1-0.9-0.3-1.2c-0.2-0.3-0.5-0.6-0.9-1l-1.9-1.7c-0.4-0.3-0.7-0.7-0.8-1.1
		c-0.2-0.4-0.3-0.9-0.3-1.4c0-0.8,0.2-1.5,0.7-1.9s1.1-0.7,1.9-0.7c0.9,0,1.6,0.2,2,0.7c0.5,0.5,0.7,1.2,0.8,2.2l-1.3,0.4
		c0-0.7-0.2-1.2-0.4-1.5s-0.6-0.5-1.1-0.5c-0.4,0-0.7,0.1-0.9,0.3c-0.2,0.2-0.3,0.5-0.3,0.9c0,0.3,0.1,0.6,0.2,0.8
		c0.1,0.2,0.3,0.5,0.6,0.7l1.9,1.7c0.5,0.4,0.9,0.9,1.2,1.4c0.3,0.5,0.4,1.1,0.4,1.8c0,0.8-0.3,1.5-0.8,2s-1.2,0.7-2,0.7
		C371,364.7,370.3,364.4,369.8,363.9z"/>
</g>
<g class="st2">
	<path class="st3" d="M325,370.1h2.5c1.2,0,2.1,0.3,2.6,0.8s0.8,1.4,0.8,2.6v4.2c0,1.3-0.2,2.2-0.7,2.8c-0.5,0.6-1.3,0.9-2.5,0.9
		H325V370.1z M327.5,380.3c0.6,0,0.9-0.1,1.2-0.3c0.2-0.2,0.4-0.5,0.5-0.9c0.1-0.4,0.1-0.9,0.1-1.7v-3.7c0-0.6,0-1.1-0.1-1.5
		c-0.1-0.3-0.2-0.6-0.5-0.8s-0.6-0.2-1.2-0.2h-0.9v9H327.5z"/>
	<path class="st3" d="M332.4,370.1h4.4v1.2h-2.8v3.8h2.3v1.1h-2.3v4.2h2.8v1.1h-4.4V370.1z"/>
	<path class="st3" d="M338.1,370.1h1.1l3.2,7.5v-7.5h1.3v11.3h-1l-3.3-7.7v7.7h-1.3V370.1z"/>
	<path class="st3" d="M346.7,371.2h-1.9v-1.2h5.4v1.2h-1.9v10.2h-1.6V371.2z"/>
	<path class="st3" d="M353,370.1h1.5l2.4,11.3h-1.5l-0.5-2.9h-2.3l-0.5,2.9h-1.5L353,370.1z M354.7,377.4l-1-5.1l-0.9,5.1H354.7z"/>
	<path class="st3" d="M358.1,370.1h1.6v10.2h2.9v1.1h-4.5V370.1z"/>
	<path class="st3" d="M363.6,370.1h4.4v1.2h-2.8v3.8h2.3v1.1h-2.3v4.2h2.8v1.1h-4.4V370.1z"/>
	<path class="st3" d="M369.8,380.7c-0.5-0.6-0.8-1.4-0.8-2.4l1.4-0.4c0,0.7,0.2,1.3,0.4,1.8c0.2,0.4,0.6,0.7,1.2,0.7
		c0.4,0,0.7-0.1,0.9-0.3s0.3-0.6,0.3-1c0-0.5-0.1-0.9-0.3-1.2c-0.2-0.3-0.5-0.6-0.9-1l-1.9-1.7c-0.4-0.3-0.7-0.7-0.8-1.1
		c-0.2-0.4-0.3-0.9-0.3-1.4c0-0.8,0.2-1.5,0.7-1.9s1.1-0.7,1.9-0.7c0.9,0,1.6,0.2,2,0.7c0.5,0.5,0.7,1.2,0.8,2.2l-1.3,0.4
		c0-0.7-0.2-1.2-0.4-1.5s-0.6-0.5-1.1-0.5c-0.4,0-0.7,0.1-0.9,0.3c-0.2,0.2-0.3,0.5-0.3,0.9c0,0.3,0.1,0.6,0.2,0.8
		c0.1,0.2,0.3,0.5,0.6,0.7l1.9,1.7c0.5,0.4,0.9,0.9,1.2,1.4c0.3,0.5,0.4,1.1,0.4,1.8c0,0.8-0.3,1.5-0.8,2s-1.2,0.7-2,0.7
		C371.1,381.5,370.3,381.2,369.8,380.7z"/>
</g>
<g>
	<rect x="430.5" y="337.5" class="st7" width="119" height="61"/>
	<path class="st1" d="M549,338v60H431v-60H549 M550,337H430v62h120V337L550,337z"/>
</g>
<g class="st2">
	<path class="st3" d="M462.1,353.3h1.5l2.4,11.3h-1.5l-0.5-2.9h-2.3l-0.5,2.9h-1.5L462.1,353.3z M463.8,360.6l-1-5.1l-0.9,5.1H463.8
		z"/>
	<path class="st3" d="M468.3,364.3c-0.4-0.3-0.7-0.8-0.9-1.3s-0.3-1.3-0.3-2.1v-7.5h1.5v7.6c0,0.9,0.1,1.5,0.3,2
		c0.2,0.4,0.6,0.7,1.2,0.7s1-0.2,1.2-0.7c0.2-0.4,0.3-1.1,0.3-2v-7.6h1.5v7.5c0,0.9-0.1,1.6-0.3,2.1s-0.5,1-0.9,1.3
		c-0.4,0.3-1.1,0.5-1.8,0.5S468.7,364.6,468.3,364.3z"/>
	<path class="st3" d="M476.5,358.7l-2.3-5.4h1.5l1.7,4l1.6-4h1.5l-2.4,5.5l2.5,5.8H479l-1.8-4.3l-1.6,4.3h-1.5L476.5,358.7z"/>
	<path class="st3" d="M481.7,353.3h1.6v11.3h-1.6V353.3z"/>
	<path class="st3" d="M485,353.3h1.6v10.2h2.9v1.1H485V353.3z"/>
	<path class="st3" d="M490.7,353.3h1.6v11.3h-1.6V353.3z"/>
	<path class="st3" d="M495.9,353.3h1.5l2.4,11.3h-1.5l-0.5-2.9h-2.3l-0.5,2.9h-1.5L495.9,353.3z M497.6,360.6l-1-5.1l-0.9,5.1H497.6
		z"/>
	<path class="st3" d="M501,353.3h2.3c1.1,0,2,0.2,2.5,0.7c0.5,0.5,0.8,1.2,0.8,2.3c0,1.5-0.5,2.3-1.4,2.6l1.6,5.7h-1.5l-1.5-5.3
		h-1.2v5.3H501V353.3z M503.1,358.2c0.7,0,1.2-0.1,1.5-0.4c0.3-0.3,0.4-0.8,0.4-1.5c0-0.5-0.1-0.8-0.2-1.1c-0.1-0.3-0.3-0.5-0.5-0.6
		c-0.3-0.1-0.6-0.2-1.1-0.2h-0.7v3.8H503.1z"/>
	<path class="st3" d="M508.2,353.3h4.4v1.2h-2.8v3.8h2.3v1.1h-2.3v4.2h2.8v1.1h-4.4V353.3z"/>
	<path class="st3" d="M514.4,363.9c-0.5-0.6-0.8-1.4-0.8-2.4l1.4-0.4c0,0.7,0.2,1.3,0.4,1.8c0.2,0.4,0.6,0.7,1.2,0.7
		c0.4,0,0.7-0.1,0.9-0.3s0.3-0.6,0.3-1c0-0.5-0.1-0.9-0.3-1.2c-0.2-0.3-0.5-0.6-0.9-1l-1.9-1.7c-0.4-0.3-0.7-0.7-0.8-1.1
		c-0.2-0.4-0.3-0.9-0.3-1.4c0-0.8,0.2-1.5,0.7-1.9c0.5-0.5,1.1-0.7,1.9-0.7c0.9,0,1.6,0.2,2,0.7c0.5,0.5,0.7,1.2,0.8,2.2l-1.3,0.4
		c0-0.7-0.2-1.2-0.4-1.5s-0.6-0.5-1.1-0.5c-0.4,0-0.7,0.1-0.9,0.3s-0.3,0.5-0.3,0.9c0,0.3,0.1,0.6,0.2,0.8c0.1,0.2,0.3,0.5,0.6,0.7
		l1.9,1.7c0.5,0.4,0.9,0.9,1.2,1.4c0.3,0.5,0.4,1.1,0.4,1.8c0,0.8-0.3,1.5-0.8,2s-1.2,0.7-2,0.7
		C515.6,364.7,514.9,364.4,514.4,363.9z"/>
</g>
<g class="st2">
	<path class="st3" d="M458.1,370.1h2.5c1.2,0,2.1,0.3,2.6,0.8s0.8,1.4,0.8,2.6v4.2c0,1.3-0.2,2.2-0.7,2.8s-1.3,0.9-2.5,0.9h-2.6
		V370.1z M460.6,380.3c0.6,0,0.9-0.1,1.2-0.3c0.2-0.2,0.4-0.5,0.5-0.9c0.1-0.4,0.1-0.9,0.1-1.7v-3.7c0-0.6,0-1.1-0.1-1.5
		s-0.2-0.6-0.5-0.8s-0.6-0.2-1.2-0.2h-0.9v9H460.6z"/>
	<path class="st3" d="M465.5,370.1h4.4v1.2h-2.8v3.8h2.3v1.1h-2.3v4.2h2.8v1.1h-4.4V370.1z"/>
	<path class="st3" d="M474.9,380.7c-0.5-0.6-0.8-1.4-0.8-2.4l1.4-0.4c0,0.7,0.2,1.3,0.4,1.8c0.2,0.4,0.6,0.7,1.2,0.7
		c0.4,0,0.7-0.1,0.9-0.3s0.3-0.6,0.3-1c0-0.5-0.1-0.9-0.3-1.2c-0.2-0.3-0.5-0.6-0.9-1l-1.9-1.7c-0.4-0.3-0.7-0.7-0.8-1.1
		c-0.2-0.4-0.3-0.9-0.3-1.4c0-0.8,0.2-1.5,0.7-1.9c0.5-0.5,1.1-0.7,1.9-0.7c0.9,0,1.6,0.2,2,0.7c0.5,0.5,0.7,1.2,0.8,2.2l-1.3,0.4
		c0-0.7-0.2-1.2-0.4-1.5s-0.6-0.5-1.1-0.5c-0.4,0-0.7,0.1-0.9,0.3s-0.3,0.5-0.3,0.9c0,0.3,0.1,0.6,0.2,0.8c0.1,0.2,0.3,0.5,0.6,0.7
		l1.9,1.7c0.5,0.4,0.9,0.9,1.2,1.4c0.3,0.5,0.4,1.1,0.4,1.8c0,0.8-0.3,1.5-0.8,2s-1.2,0.7-2,0.7
		C476.1,381.5,475.4,381.2,474.9,380.7z"/>
	<path class="st3" d="M481,370.1h4.4v1.2h-2.8v3.8h2.3v1.1h-2.3v4.2h2.8v1.1H481V370.1z"/>
	<path class="st3" d="M486.7,370.1h2.3c1.1,0,2,0.2,2.5,0.7c0.5,0.5,0.8,1.2,0.8,2.3c0,1.5-0.5,2.3-1.4,2.6l1.6,5.7H491l-1.5-5.3
		h-1.2v5.3h-1.6V370.1z M488.9,375c0.7,0,1.2-0.1,1.5-0.4c0.3-0.3,0.4-0.8,0.4-1.5c0-0.5-0.1-0.8-0.2-1.1c-0.1-0.3-0.3-0.5-0.5-0.6
		c-0.3-0.1-0.6-0.2-1.1-0.2h-0.7v3.8H488.9z"/>
	<path class="st3" d="M493.4,370.1h1.5l1.8,8.4l1.7-8.4h1.4l-2.5,11.3H496L493.4,370.1z"/>
	<path class="st3" d="M501.2,370.1h1.6v11.3h-1.6V370.1z"/>
	<path class="st3" d="M505,380.5c-0.5-0.7-0.7-1.6-0.7-2.8v-4c0-1.2,0.2-2.2,0.7-2.8c0.4-0.6,1.2-1,2.4-1c1,0,1.7,0.3,2.2,0.8
		c0.4,0.6,0.7,1.4,0.7,2.4v0.9h-1.5v-0.8c0-0.5,0-0.9-0.1-1.2c0-0.3-0.2-0.5-0.4-0.7s-0.5-0.3-0.9-0.3c-0.4,0-0.7,0.1-1,0.3
		c-0.2,0.2-0.3,0.4-0.4,0.8c-0.1,0.3-0.1,0.8-0.1,1.3v4.5c0,0.6,0,1,0.1,1.4c0.1,0.3,0.2,0.6,0.5,0.7s0.5,0.2,0.9,0.2
		c0.4,0,0.7-0.1,0.9-0.3c0.2-0.2,0.3-0.4,0.4-0.7c0.1-0.3,0.1-0.7,0.1-1.3v-0.8h1.5v0.8c0,1.1-0.2,2-0.6,2.6
		c-0.4,0.6-1.2,0.9-2.2,0.9C506.3,381.5,505.5,381.2,505,380.5z"/>
	<path class="st3" d="M511.8,370.1h1.6v11.3h-1.6V370.1z"/>
	<path class="st3" d="M515.7,380.6c-0.5-0.6-0.7-1.5-0.7-2.7v-4.3c0-1.2,0.2-2.1,0.7-2.7c0.5-0.6,1.3-0.9,2.4-0.9s1.9,0.3,2.4,0.9
		c0.5,0.6,0.7,1.5,0.7,2.7v4.3c0,1.2-0.2,2.1-0.7,2.7s-1.3,1-2.4,1C517,381.5,516.2,381.2,515.7,380.6z M519.3,379.8
		c0.2-0.3,0.3-0.9,0.3-1.6v-5c0-0.7-0.1-1.2-0.3-1.5c-0.2-0.3-0.6-0.5-1.2-0.5c-0.6,0-1,0.2-1.2,0.5s-0.3,0.8-0.3,1.5v5
		c0,0.7,0.1,1.2,0.3,1.6c0.2,0.3,0.6,0.5,1.2,0.5C518.7,380.3,519.1,380.1,519.3,379.8z"/>
</g>
<g>
	<rect x="570.5" y="337.5" class="st7" width="119" height="61"/>
	<path class="st1" d="M689,338v60H571v-60H689 M690,337H570v62h120V337L690,337z"/>
</g>
<g class="st2">
	<path class="st3" d="M596.2,363.9c-0.5-0.6-0.8-1.4-0.8-2.4l1.4-0.4c0,0.7,0.2,1.3,0.4,1.8c0.2,0.4,0.6,0.7,1.2,0.7
		c0.4,0,0.7-0.1,0.9-0.3s0.3-0.6,0.3-1c0-0.5-0.1-0.9-0.3-1.2c-0.2-0.3-0.5-0.6-0.9-1l-1.9-1.7c-0.4-0.3-0.7-0.7-0.8-1.1
		c-0.2-0.4-0.3-0.9-0.3-1.4c0-0.8,0.2-1.5,0.7-1.9c0.5-0.5,1.1-0.7,1.9-0.7c0.9,0,1.6,0.2,2,0.7c0.5,0.5,0.7,1.2,0.8,2.2l-1.3,0.4
		c0-0.7-0.2-1.2-0.4-1.5s-0.6-0.5-1.1-0.5c-0.4,0-0.7,0.1-0.9,0.3c-0.2,0.2-0.3,0.5-0.3,0.9c0,0.3,0.1,0.6,0.2,0.8s0.3,0.5,0.6,0.7
		l1.9,1.7c0.5,0.4,0.9,0.9,1.2,1.4c0.3,0.5,0.4,1.1,0.4,1.8c0,0.8-0.3,1.5-0.8,2s-1.2,0.7-2,0.7
		C597.5,364.7,596.7,364.4,596.2,363.9z"/>
	<path class="st3" d="M602.4,353.3h4.4v1.2h-2.8v3.8h2.3v1.1h-2.3v4.2h2.8v1.1h-4.4V353.3z"/>
	<path class="st3" d="M608.5,363.7c-0.5-0.7-0.7-1.6-0.7-2.8v-4c0-1.2,0.2-2.2,0.7-2.8c0.4-0.6,1.2-1,2.4-1c1,0,1.7,0.3,2.2,0.8
		c0.4,0.6,0.7,1.4,0.7,2.4v0.9h-1.5v-0.8c0-0.5,0-0.9-0.1-1.2c0-0.3-0.2-0.5-0.4-0.7s-0.5-0.3-0.9-0.3c-0.4,0-0.7,0.1-1,0.3
		c-0.2,0.2-0.3,0.4-0.4,0.8c-0.1,0.3-0.1,0.8-0.1,1.3v4.5c0,0.6,0,1,0.1,1.4c0.1,0.3,0.2,0.6,0.5,0.7c0.2,0.1,0.5,0.2,0.9,0.2
		c0.4,0,0.7-0.1,0.9-0.3c0.2-0.2,0.3-0.4,0.4-0.7c0.1-0.3,0.1-0.7,0.1-1.3v-0.8h1.5v0.8c0,1.1-0.2,2-0.6,2.6
		c-0.4,0.6-1.2,0.9-2.2,0.9C609.8,364.7,609,364.4,608.5,363.7z"/>
	<path class="st3" d="M615.3,353.3h2.3c1.1,0,2,0.2,2.5,0.7c0.5,0.5,0.8,1.2,0.8,2.3c0,1.5-0.5,2.3-1.4,2.6l1.6,5.7h-1.5l-1.5-5.3
		h-1.2v5.3h-1.6V353.3z M617.4,358.2c0.7,0,1.2-0.1,1.5-0.4c0.3-0.3,0.4-0.8,0.4-1.5c0-0.5-0.1-0.8-0.2-1.1
		c-0.1-0.3-0.3-0.5-0.5-0.6c-0.3-0.1-0.6-0.2-1.1-0.2h-0.7v3.8H617.4z"/>
	<path class="st3" d="M622.5,353.3h4.4v1.2h-2.8v3.8h2.3v1.1h-2.3v4.2h2.8v1.1h-4.4V353.3z"/>
	<path class="st3" d="M629.5,354.4h-1.9v-1.2h5.4v1.2h-1.9v10.2h-1.6V354.4z"/>
	<path class="st3" d="M635.8,353.3h1.5l2.4,11.3h-1.5l-0.5-2.9h-2.3l-0.5,2.9h-1.5L635.8,353.3z M637.5,360.6l-1-5.1l-0.9,5.1H637.5
		z"/>
	<path class="st3" d="M640.9,353.3h2.3c1.1,0,2,0.2,2.5,0.7s0.8,1.2,0.8,2.3c0,1.5-0.5,2.3-1.4,2.6l1.6,5.7h-1.5l-1.5-5.3h-1.2v5.3
		h-1.6V353.3z M643.1,358.2c0.7,0,1.2-0.1,1.5-0.4c0.3-0.3,0.4-0.8,0.4-1.5c0-0.5-0.1-0.8-0.2-1.1c-0.1-0.3-0.3-0.5-0.5-0.6
		s-0.6-0.2-1.1-0.2h-0.7v3.8H643.1z"/>
	<path class="st3" d="M648.2,353.3h1.6v11.3h-1.6V353.3z"/>
	<path class="st3" d="M653.4,353.3h1.5l2.4,11.3h-1.5l-0.5-2.9H653l-0.5,2.9H651L653.4,353.3z M655.1,360.6l-1-5.1l-0.9,5.1H655.1z"
		/>
	<path class="st3" d="M659,363.9c-0.5-0.6-0.8-1.4-0.8-2.4l1.4-0.4c0,0.7,0.2,1.3,0.4,1.8c0.2,0.4,0.6,0.7,1.2,0.7
		c0.4,0,0.7-0.1,0.9-0.3c0.2-0.2,0.3-0.6,0.3-1c0-0.5-0.1-0.9-0.3-1.2c-0.2-0.3-0.5-0.6-0.9-1l-1.9-1.7c-0.4-0.3-0.7-0.7-0.8-1.1
		c-0.2-0.4-0.3-0.9-0.3-1.4c0-0.8,0.2-1.5,0.7-1.9s1.1-0.7,1.9-0.7c0.9,0,1.6,0.2,2,0.7c0.5,0.5,0.7,1.2,0.8,2.2l-1.3,0.4
		c0-0.7-0.2-1.2-0.4-1.5c-0.2-0.4-0.6-0.5-1.1-0.5c-0.4,0-0.7,0.1-0.9,0.3s-0.3,0.5-0.3,0.9c0,0.3,0.1,0.6,0.2,0.8
		c0.1,0.2,0.3,0.5,0.6,0.7l1.9,1.7c0.5,0.4,0.9,0.9,1.2,1.4c0.3,0.5,0.4,1.1,0.4,1.8c0,0.8-0.3,1.5-0.8,2s-1.2,0.7-2,0.7
		C660.2,364.7,659.5,364.4,659,363.9z"/>
</g>
<g class="st2">
	<path class="st3" d="M585.1,370.1h1.5l2.4,11.3h-1.5l-0.5-2.9h-2.3l-0.5,2.9h-1.5L585.1,370.1z M586.8,377.4l-1-5.1l-0.9,5.1H586.8
		z"/>
	<path class="st3" d="M590.2,370.1h2.5c1.2,0,2.1,0.3,2.6,0.8s0.8,1.4,0.8,2.6v4.2c0,1.3-0.2,2.2-0.7,2.8c-0.5,0.6-1.3,0.9-2.5,0.9
		h-2.6V370.1z M592.7,380.3c0.6,0,1-0.1,1.2-0.3s0.4-0.5,0.5-0.9c0.1-0.4,0.1-0.9,0.1-1.7v-3.7c0-0.6,0-1.1-0.1-1.5
		c-0.1-0.3-0.2-0.6-0.5-0.8s-0.6-0.2-1.2-0.2h-0.9v9H592.7z"/>
	<path class="st3" d="M597.8,370.1h1.6l2,9.2l2-9.2h1.5l0.2,11.3h-1.3l-0.1-8.2l-1.9,8.2h-0.9l-1.9-8.2l-0.1,8.2h-1.3L597.8,370.1z"
		/>
	<path class="st3" d="M606.9,370.1h1.6v11.3h-1.6V370.1z"/>
	<path class="st3" d="M610.3,370.1h1.1l3.2,7.5v-7.5h1.3v11.3h-1l-3.3-7.7v7.7h-1.3V370.1z"/>
	<path class="st3" d="M617.8,370.1h1.6v11.3h-1.6V370.1z"/>
	<path class="st3" d="M621.7,380.7c-0.5-0.6-0.8-1.4-0.8-2.4l1.4-0.4c0,0.7,0.2,1.3,0.4,1.8s0.6,0.7,1.2,0.7c0.4,0,0.7-0.1,0.9-0.3
		s0.3-0.6,0.3-1c0-0.5-0.1-0.9-0.3-1.2c-0.2-0.3-0.5-0.6-0.9-1l-1.9-1.7c-0.4-0.3-0.7-0.7-0.8-1.1c-0.2-0.4-0.3-0.9-0.3-1.4
		c0-0.8,0.2-1.5,0.7-1.9c0.5-0.5,1.1-0.7,1.9-0.7c0.9,0,1.6,0.2,2,0.7c0.5,0.5,0.7,1.2,0.8,2.2l-1.3,0.4c0-0.7-0.2-1.2-0.4-1.5
		s-0.6-0.5-1.1-0.5c-0.4,0-0.7,0.1-0.9,0.3c-0.2,0.2-0.3,0.5-0.3,0.9c0,0.3,0.1,0.6,0.2,0.8s0.3,0.5,0.6,0.7l1.9,1.7
		c0.5,0.4,0.9,0.9,1.2,1.4c0.3,0.5,0.4,1.1,0.4,1.8c0,0.8-0.3,1.5-0.8,2s-1.2,0.7-2,0.7C622.9,381.5,622.2,381.2,621.7,380.7z"/>
	<path class="st3" d="M629,371.2h-1.9v-1.2h5.4v1.2h-1.9v10.2H629V371.2z"/>
	<path class="st3" d="M633.6,370.1h2.3c1.1,0,2,0.2,2.5,0.7c0.5,0.5,0.8,1.2,0.8,2.3c0,1.5-0.5,2.3-1.4,2.6l1.6,5.7h-1.5l-1.5-5.3
		h-1.2v5.3h-1.6V370.1z M635.8,375c0.7,0,1.2-0.1,1.5-0.4c0.3-0.3,0.4-0.8,0.4-1.5c0-0.5-0.1-0.8-0.2-1.1c-0.1-0.3-0.3-0.5-0.5-0.6
		c-0.3-0.1-0.6-0.2-1.1-0.2h-0.7v3.8H635.8z"/>
	<path class="st3" d="M642.6,370.1h1.5l2.4,11.3h-1.5l-0.5-2.9h-2.3l-0.5,2.9h-1.5L642.6,370.1z M644.4,377.4l-1-5.1l-0.9,5.1H644.4
		z"/>
	<path class="st3" d="M648.5,371.2h-1.9v-1.2h5.4v1.2h-1.9v10.2h-1.6V371.2z"/>
	<path class="st3" d="M653.2,370.1h1.6v11.3h-1.6V370.1z"/>
	<path class="st3" d="M656,370.1h1.5l1.8,8.4l1.7-8.4h1.4l-2.5,11.3h-1.4L656,370.1z"/>
	<path class="st3" d="M665,370.1h1.5l2.4,11.3h-1.5l-0.5-2.9h-2.3l-0.5,2.9h-1.5L665,370.1z M666.7,377.4l-1-5.1l-0.9,5.1H666.7z"/>
	<path class="st3" d="M670.6,380.7c-0.5-0.6-0.8-1.4-0.8-2.4l1.4-0.4c0,0.7,0.2,1.3,0.4,1.8c0.2,0.4,0.6,0.7,1.2,0.7
		c0.4,0,0.7-0.1,0.9-0.3s0.3-0.6,0.3-1c0-0.5-0.1-0.9-0.3-1.2c-0.2-0.3-0.5-0.6-0.9-1l-1.9-1.7c-0.4-0.3-0.7-0.7-0.8-1.1
		c-0.2-0.4-0.3-0.9-0.3-1.4c0-0.8,0.2-1.5,0.7-1.9c0.5-0.5,1.1-0.7,1.9-0.7c0.9,0,1.6,0.2,2,0.7c0.5,0.5,0.7,1.2,0.8,2.2l-1.3,0.4
		c0-0.7-0.2-1.2-0.4-1.5s-0.6-0.5-1.1-0.5c-0.4,0-0.7,0.1-0.9,0.3s-0.3,0.5-0.3,0.9c0,0.3,0.1,0.6,0.2,0.8c0.1,0.2,0.3,0.5,0.6,0.7
		l1.9,1.7c0.5,0.4,0.9,0.9,1.2,1.4c0.3,0.5,0.4,1.1,0.4,1.8c0,0.8-0.3,1.5-0.8,2s-1.2,0.7-2,0.7
		C671.8,381.5,671.1,381.2,670.6,380.7z"/>
</g>
<g>
	<line class="st8" x1="419.5" y1="59.5" x2="419.5" y2="79.5"/>
</g>
<line class="st9" x1="69.5" y1="79.5" x2="629.5" y2="79.5"/>
<line class="st9" x1="69.5" y1="79.5" x2="69.5" y2="98.5"/>
<line class="st9" x1="209.5" y1="79.5" x2="209.5" y2="98.5"/>
<line class="st9" x1="349.5" y1="79.5" x2="349.5" y2="98.5"/>
<line class="st8" x1="489.5" y1="79.5" x2="489.5" y2="98.5"/>
<line class="st9" x1="629.5" y1="79.5" x2="629.5" y2="98.5"/>
<line class="st8" x1="770.5" y1="32.5" x2="770.5" y2="98.5"/>
<line class="st8" x1="479.5" y1="32.5" x2="770.5" y2="32.5"/>
<line class="st9" x1="69.5" y1="177.5" x2="69.5" y2="216.5"/>
<line class="st9" x1="209.5" y1="177.5" x2="209.5" y2="216.5"/>
<line class="st9" x1="349.5" y1="177.5" x2="349.5" y2="217.5"/>
<line class="st8" x1="490.5" y1="177.5" x2="490.5" y2="218.5"/>
<line class="st8" x1="489.5" y1="296.5" x2="489.5" y2="317.5"/>
<line class="st8" x1="349.5" y1="317.5" x2="630.5" y2="317.5"/>
<line class="st8" x1="349.5" y1="336.5" x2="349.5" y2="317.5"/>
<line class="st8" x1="489.5" y1="337.5" x2="489.5" y2="317.5"/>
<line class="st8" x1="630.5" y1="336.5" x2="630.5" y2="317.5"/>
<line class="st8" x1="419.5" y1="79.5" x2="489.5" y2="79.5"/>
<rect x="9.5" y="311.5" class="st9" width="120" height="88"/>
<rect x="20.5" y="324.5" class="st10" width="27" height="27"/>
<rect x="20.5" y="364.5" class="st11" width="27" height="27"/>
<text transform="matrix(1 0 0 1 54.1577 335.9883)" class="st1 st5 st12">CARRERA</text>
<text transform="matrix(1 0 0 1 54.1577 347.9883)" class="st1 st5 st12">ODONTOLOGÍA</text>
<text transform="matrix(1 0 0 1 54.1577 376.9883)" class="st1 st5 st12">CLÍNICA</text>
<text transform="matrix(1 0 0 1 54.1577 388.9883)" class="st1 st5 st12">ODONTOLÓGICA</text>
</svg>
