<?xml version="1.0" encoding="utf-8"?>
<!-- Generator: Adobe Illustrator 21.1.0, SVG Export Plug-In . SVG Version: 6.00 Build 0)  -->
<svg version="1.1" id="Capa_1" xmlns="http://www.w3.org/2000/svg" xmlns:xlink="http://www.w3.org/1999/xlink" x="0px" y="0px"
	 viewBox="0 0 500 500" style="enable-background:new 0 0 500 500;" xml:space="preserve">
<defs><style type="text/css">@import url('https://fonts.googleapis.com/css?family=Oswald');</style></defs>
<style type="text/css">
	.st0{fill:#3D93C1;}
	.st1{fill:none;}
	.st2{fill:#BFE2EF;}
	.st3{fill:#FFFFFF;}
	.st4{font-family:'Oswald';}
	.st5{font-size:18.1394px;}
</style>
<g>
	<g>
		<path class="st0" d="M147.8,125.9h10.4c0-0.9,0-1.8,0-2.7h-10.4C147.8,124.1,147.8,125,147.8,125.9z"/>
		<path class="st0" d="M158.3,102h-10.4c0,1.2,0,2.5,0,3.7h10.4C158.3,104.5,158.3,103.2,158.3,102z"/>
		<path class="st0" d="M147.8,112.5h10.4c0-0.9,0-1.8,0-2.7h-10.4C147.8,110.6,147.8,111.5,147.8,112.5z"/>
		<path class="st0" d="M147.8,122.5h10.4c0-0.9,0-1.8,0-2.7h-10.4C147.8,120.7,147.8,121.6,147.8,122.5z"/>
		<path class="st0" d="M147.8,119.2h10.4c0-0.9,0-1.8,0-2.7h-10.4C147.8,117.4,147.8,118.3,147.8,119.2z"/>
		<path class="st0" d="M147.8,109.1h10.4c0-0.9,0-1.8,0-2.7h-10.4C147.8,107.3,147.8,108.2,147.8,109.1z"/>
		<path class="st0" d="M147.8,115.8h10.4c0-0.9,0-1.8,0-2.7h-10.4C147.8,114,147.8,114.9,147.8,115.8z"/>
		<path class="st0" d="M147.8,162.8h10.4c0-0.9,0-1.8,0-2.7h-10.4C147.8,161,147.8,161.9,147.8,162.8z"/>
		<path class="st0" d="M147.8,169.5h10.4c0-0.9,0-1.8,0-2.7h-10.4C147.8,167.7,147.8,168.6,147.8,169.5z"/>
		<path class="st0" d="M147.8,166.2h10.4c0-0.9,0-1.8,0-2.7h-10.4C147.8,164.3,147.8,165.2,147.8,166.2z"/>
		<path class="st0" d="M147.8,159.4h10.4c0-0.9,0-1.8,0-2.7h-10.4C147.8,157.6,147.8,158.5,147.8,159.4z"/>
		<path class="st0" d="M147.8,129.2h10.4c0-0.9,0-1.8,0-2.7h-10.4C147.8,127.4,147.8,128.3,147.8,129.2z"/>
		<path class="st0" d="M155.8,20.3c1.7,1.3,3.4,2.9,4.4,4.6c0.2,0.4,0.4,0.9,0.5,1.3c0,0.2,0.1,0.4,0,0.6l-0.1,0.7
			c0,0.7-0.3,0.9-0.4,1.3c-0.2,0.4-0.3,0.9-0.6,1.3c-0.4,0.9-1,1.7-1.5,2.4c-3,4.8-5,4.4-5.7,7.2c-0.4,1.7-0.9,4.2-1.4,7.3
			c-0.6,3.2-1.3,7-2,11.4c-0.4,2.2-0.7,4.5-1.2,7c-0.2,1.2-0.3,2.5-0.1,3.8c0.1,1.3,0,2.6,0,4c0,7.5,0,15.9,0,24.8h10.4
			c0-8.9,0-17.3,0-24.8c0-1.3,0-2.7,0-4c0.1-1.3,0.1-2.6-0.1-3.8c-0.4-2.5-0.8-4.8-1.2-7c-0.7-4.4-1.4-8.2-2-11.4
			c-0.6-3.1-1.1-5.6-1.4-7.3c0-0.2-0.1-0.4-0.1-0.6c0.9-0.3,2.7-1.1,4.8-2.7c0.4-0.3,0.7-0.6,1.1-0.9c0.4-0.4,0.7-0.7,1.1-1.1
			c0.7-0.8,1.4-1.7,2-2.9c0.3-0.5,0.5-1.2,0.7-1.8c0.1-0.7,0.3-1.5,0.3-2l0-0.4l0-0.2v-0.1v0c0,0,0-0.2,0-0.1l0,0l0-0.1
			c0-0.4-0.1-0.8-0.2-1.1c-0.2-0.7-0.5-1.3-0.9-1.9c-1.5-2.2-3.6-3.6-5.5-4.8c-1.9-1.2-3.8-2.1-5.4-2.8c-3.2-1.4-5.5-2.1-5.5-2.1
			l-0.1,0.3c0,0,2.1,1,5.1,2.8C152.4,17.9,154.1,19.1,155.8,20.3z"/>
		<path class="st0" d="M147.8,176.2h10.4c0-0.9,0-1.8,0-2.7h-10.4C147.8,174.4,147.8,175.3,147.8,176.2z"/>
		<path class="st0" d="M147.8,172.9h10.4c0-0.9,0-1.8,0-2.7h-10.4C147.8,171.1,147.8,172,147.8,172.9z"/>
		<path class="st0" d="M147.8,156.1h10.4c0-0.9,0-1.8,0-2.7h-10.4C147.8,154.3,147.8,155.2,147.8,156.1z"/>
		<path class="st0" d="M147.8,135.9h10.4c0-0.9,0-1.8,0-2.7h-10.4C147.8,134.1,147.8,135,147.8,135.9z"/>
		<path class="st0" d="M147.8,139.3h10.4c0-0.9,0-1.8,0-2.7h-10.4C147.8,137.5,147.8,138.4,147.8,139.3z"/>
		<path class="st0" d="M147.8,132.6h10.4c0-0.9,0-1.8,0-2.7h-10.4C147.8,130.8,147.8,131.7,147.8,132.6z"/>
		<path class="st0" d="M147.8,146h10.4c0-0.9,0-1.8,0-2.7h-10.4C147.8,144.2,147.8,145.1,147.8,146z"/>
		<path class="st0" d="M147.8,149.4h10.4c0-0.9,0-1.8,0-2.7h-10.4C147.8,147.6,147.8,148.5,147.8,149.4z"/>
		<path class="st0" d="M147.8,152.7h10.4c0-0.9,0-1.8,0-2.7h-10.4C147.8,150.9,147.8,151.8,147.8,152.7z"/>
		<path class="st0" d="M147.8,142.7h10.4c0-0.9,0-1.8,0-2.7h-10.4C147.8,140.9,147.8,141.8,147.8,142.7z"/>
	</g>
	<g>
		<path class="st0" d="M352.2,169.9h-10.4c0,0.9,0,1.8,0,2.7h10.4C352.2,171.7,352.2,170.8,352.2,169.9z"/>
		<path class="st0" d="M341.8,176h10.4c0-0.9,0-1.8,0-2.7h-10.4C341.8,174.2,341.8,175.1,341.8,176z"/>
		<path class="st0" d="M348.8,53.6h-3.7c-0.1,0.8,0,32.9,0,38.5h3.8C348.9,86.5,348.9,54.4,348.8,53.6z"/>
		<path class="st0" d="M352.2,166.6h-10.4c0,0.9,0,1.8,0,2.7h10.4C352.2,168.4,352.2,167.5,352.2,166.6z"/>
		<circle class="st0" cx="347" cy="32.8" r="18.8"/>
		<path class="st0" d="M341.8,155h10.4c0-8.9,0.2-60.1-0.1-61.3h-10.3C341.6,94.9,341.8,146,341.8,155z"/>
		<path class="st0" d="M352.2,158.9h-10.4c0,1.2,0,2.5,0,3.7h10.4C352.2,161.3,352.2,160.1,352.2,158.9z"/>
		<path class="st0" d="M352.2,163.2h-10.4c0,0.9,0,1.8,0,2.7h10.4C352.2,165,352.2,164.1,352.2,163.2z"/>
	</g>
	<g>
		<path class="st0" d="M308,96.2h-10.4c0,1.2,0,2.5,0,3.7H308C308,98.6,308,97.4,308,96.2z"/>
		<path class="st0" d="M297.6,174.4c0,0.6,0,1.3,0,1.9H308c0-0.6,0-1.3,0-1.9H297.6z"/>
		<path class="st0" d="M297.6,103.2H308c0-0.9,0-1.8,0-2.7h-10.4C297.6,101.4,297.6,102.3,297.6,103.2z"/>
		<path class="st0" d="M297.6,106.6H308c0-0.9,0-1.8,0-2.7h-10.4C297.6,104.8,297.6,105.7,297.6,106.6z"/>
		<path class="st0" d="M297.6,116.7H308c0-0.9,0-1.8,0-2.7h-10.4C297.6,114.9,297.6,115.8,297.6,116.7z"/>
		<path class="st0" d="M297.6,110H308c0-0.9,0-1.8,0-2.7h-10.4C297.6,108.1,297.6,109,297.6,110z"/>
		<path class="st0" d="M297.6,120H308c0-0.9,0-1.8,0-2.7h-10.4C297.6,118.2,297.6,119.1,297.6,120z"/>
		<path class="st0" d="M297.6,113.3H308c0-0.9,0-1.8,0-2.7h-10.4C297.6,111.5,297.6,112.4,297.6,113.3z"/>
		<path class="st0" d="M297.6,123.4H308c0-0.9,0-1.8,0-2.7h-10.4C297.6,121.6,297.6,122.5,297.6,123.4z"/>
		<path class="st0" d="M297.6,160.3H308c0-0.9,0-1.8,0-2.7h-10.4C297.6,158.5,297.6,159.4,297.6,160.3z"/>
		<path class="st0" d="M297.6,167H308c0-0.9,0-1.8,0-2.7h-10.4C297.6,165.2,297.6,166.1,297.6,167z"/>
		<path class="st0" d="M297.6,126.7H308c0-0.9,0-1.8,0-2.7h-10.4C297.6,124.9,297.6,125.8,297.6,126.7z"/>
		<path class="st0" d="M297.6,156.9H308c0-0.9,0-1.8,0-2.7h-10.4C297.6,155.1,297.6,156,297.6,156.9z"/>
		<path class="st0" d="M297.6,173.7H308c0-0.9,0-1.8,0-2.7h-10.4C297.6,171.9,297.6,172.8,297.6,173.7z"/>
		<path class="st0" d="M297.6,170.4H308c0-0.9,0-1.8,0-2.7h-10.4C297.6,168.6,297.6,169.5,297.6,170.4z"/>
		<path class="st0" d="M297.6,67.4c0,7.5,0,15.9,0,24.8H308c0-8.9,0-17.3,0-24.8c0-1.3,0-2.7,0-4c0.1-1.3,0.1-2.6-0.1-3.8
			c-0.4-2.5-0.8-4.8-1.2-7c-0.7-4.4-1.4-8.2-2-11.4c-0.6-3.1-1.1-5.6-1.4-7.3c0,0,0-0.1,0-0.1c0.2,0,0.4,0.1,0.7,0.1
			c0.5,0,1,0,1.7,0c0.6-0.1,1.4-0.3,2.1-0.6c0.8-0.3,1.6-0.8,2.3-1.5c0.4-0.3,0.7-0.7,1-1.1c0.3-0.4,0.6-0.8,0.8-1.3
			c0.5-0.9,0.7-2,0.9-3c0.1-0.5,0.1-1.1,0.2-1.6l0-1.5l0-0.4l0-0.2l0-0.2l-0.1-0.8c0-0.5-0.1-1-0.2-1.5c-0.1-0.5-0.2-1-0.5-1.5
			c-0.2-0.5-0.4-1-0.7-1.4c-0.1-0.2-0.3-0.4-0.4-0.6l-0.5-0.5c-0.3-0.4-0.7-0.6-1.1-0.9c-0.4-0.3-0.8-0.4-1.2-0.6
			c-0.4-0.1-0.8-0.3-1.2-0.4c-1.5-0.4-2.8-0.3-3.6-0.3c-0.9,0.1-1.4,0.2-1.4,0.2l0,0.3c0,0,0.5,0,1.3,0c0.8,0.1,2,0.2,3.3,0.7
			c0.3,0.1,0.6,0.3,1,0.5c0.3,0.2,0.6,0.4,0.9,0.6c0.3,0.3,0.6,0.5,0.8,0.8l0.4,0.5c0.1,0.2,0.2,0.4,0.3,0.5
			c0.2,0.3,0.3,0.7,0.5,1.2c0.2,0.4,0.2,0.8,0.2,1.3c0.1,0.4,0.1,0.9,0.1,1.3l0,0.7l0,0.2c0,0,0,0.1,0,0.1l0,0.4l-0.2,1.5
			c-0.1,0.4-0.2,0.8-0.3,1.3c-0.3,0.8-0.6,1.6-0.9,2.3c-0.3,0.7-0.8,1.3-1.2,1.9c-0.4,0.6-1,1-1.5,1.4c-0.3,0.2-0.5,0.4-0.8,0.5
			c-0.3,0.1-0.5,0.3-0.8,0.4c-1.1,0.7-2.6-0.7-3.1,1.5c-0.3,1.7-0.9,4.2-1.4,7.3c-0.6,3.2-1.3,7-2,11.4c-0.4,2.2-0.7,4.5-1.2,7
			c-0.2,1.2-0.3,2.5-0.1,3.8C297.6,64.7,297.6,66,297.6,67.4z"/>
		<path class="st0" d="M297.6,153.6H308c0-0.9,0-1.8,0-2.7h-10.4C297.6,151.8,297.6,152.7,297.6,153.6z"/>
		<path class="st0" d="M297.6,163.7H308c0-0.9,0-1.8,0-2.7h-10.4C297.6,161.8,297.6,162.8,297.6,163.7z"/>
		<path class="st0" d="M297.6,133.5H308c0-0.9,0-1.8,0-2.7h-10.4C297.6,131.6,297.6,132.5,297.6,133.5z"/>
		<path class="st0" d="M297.6,136.8H308c0-0.9,0-1.8,0-2.7h-10.4C297.6,135,297.6,135.9,297.6,136.8z"/>
		<path class="st0" d="M297.6,130.1H308c0-0.9,0-1.8,0-2.7h-10.4C297.6,128.3,297.6,129.2,297.6,130.1z"/>
		<path class="st0" d="M297.6,146.9H308c0-0.9,0-1.8,0-2.7h-10.4C297.6,145.1,297.6,146,297.6,146.9z"/>
		<path class="st0" d="M297.6,150.2H308c0-0.9,0-1.8,0-2.7h-10.4C297.6,148.4,297.6,149.3,297.6,150.2z"/>
		<path class="st0" d="M297.6,140.2H308c0-0.9,0-1.8,0-2.7h-10.4C297.6,138.4,297.6,139.3,297.6,140.2z"/>
		<path class="st0" d="M297.6,143.5H308c0-0.9,0-1.8,0-2.7h-10.4C297.6,141.7,297.6,142.6,297.6,143.5z"/>
	</g>
	<g>
		<rect x="248" y="74.3" class="st0" width="15.5" height="2.5"/>
		<rect x="248.2" y="86.1" class="st0" width="15.5" height="90.2"/>
		<path class="st0" d="M256.8,70.5l14.4,0c0.6,0,1-0.5,1-1c0-0.6-0.5-1-1-1h-14.4V67h14.4c0.6,0,1-0.5,1-1c0-0.6-0.5-1-1-1l-14.4,0
			v-1.4h14.4c0.6,0,1-0.5,1-1c0-0.6-0.5-1-1-1h-14.4V60l14.4,0c0.6,0,1-0.5,1-1c0-0.6-0.5-1-1-1l-14.4,0v-1.4h14.4c0.6,0,1-0.5,1-1
			c0-0.6-0.5-1-1-1h-14.4v-1.4l14.4,0c0.6,0,1-0.5,1-1c0-0.6-0.5-1-1-1h-14.4v-1.4h14.4c0.6,0,1-0.5,1-1c0-0.6-0.5-1-1-1h-14.4v-1.4
			h14.4c0.6,0,1-0.5,1-1c0-0.6-0.5-1-1-1h-14.4v-1.4h14.4c0.6,0,1-0.5,1-1c0-0.6-0.5-1-1-1l-14.4,0v-1.4h14.4c0.6,0,1-0.5,1-1
			c0-0.6-0.5-1-1-1h-14.4v-1.4h14.4c0.6,0,1-0.5,1-1c0-0.6-0.5-1-1-1h-14.4v-1.4h14.4c0.6,0,1-0.5,1-1c0-0.6-0.5-1-1-1h-14.4v-1.4
			h14.4c0.6,0,1-0.5,1-1c0-0.6-0.5-1-1-1h-14.4v-1.4h14.4c0.6,0,1-0.5,1-1c0-0.6-0.5-1-1-1h-14.4v-1.4h14.4c0.6,0,1-0.5,1-1
			c0-0.6-0.5-1-1-1h-14.4v-1.3c0-2.4-2-4.4-4.4-4.4c-2.4,0-4.4,2-4.4,4.4v53.2h8.8V70.5z"/>
		<path class="st0" d="M244.4,67.7c0,0.9,0.3,1.7,0.7,2v0.7h1.9V20.5h-1.9v0.7c-0.4,0.3-0.7,1.1-0.7,2c0,0.9,0.3,1.7,0.7,2v1.6
			c-0.4,0.3-0.7,1.1-0.7,2c0,0.9,0.3,1.7,0.7,2v1.6c-0.4,0.3-0.7,1.1-0.7,2c0,0.9,0.3,1.7,0.7,2v1.6c-0.4,0.3-0.7,1.1-0.7,2
			c0,0.9,0.3,1.7,0.7,2v1.6c-0.4,0.3-0.7,1.1-0.7,2c0,0.9,0.3,1.7,0.7,2V49c-0.4,0.3-0.7,1.1-0.7,2c0,0.9,0.3,1.7,0.7,2v1.6
			c-0.4,0.3-0.7,1.1-0.7,2s0.3,1.7,0.7,2v1.6c-0.4,0.3-0.7,1.1-0.7,2c0,0.9,0.3,1.7,0.7,2v1.6C244.7,66,244.4,66.8,244.4,67.7z"/>
		<rect x="248" y="82.2" class="st0" width="15.5" height="2.5"/>
		<rect x="248" y="78.2" class="st0" width="15.5" height="2.5"/>
	</g>
	<rect x="175.8" y="45.6" class="st1" width="25.7" height="23.3"/>
	<polygon class="st1" points="205.6,67.8 213.1,64.4 213.1,50.1 205.6,46.8 	"/>
	<rect x="180.3" y="45.6" class="st1" width="25.7" height="23.3"/>
	<polygon class="st1" points="210.1,67.8 217.6,64.4 217.6,50.1 210.1,46.8 	"/>
	<path class="st0" d="M221.5,58.6v-7c0-0.8-0.5-1.5-1.2-1.8c0,0-11.7-5.3-12.2-5.3h-29.8c-1.1,0-1.9,0.9-1.9,1.9l0,27.2
		c0,0.7,0.4,1.3,1,1.7c-0.1,0.6-0.1,1.2-0.1,1.8v1.7h-0.1v96.3h32.1V78.8h0v-1.7c0-0.6-0.1-1.3-0.1-1.9c2.9-1.2,11.3-5,11.3-5
		c0.7-0.3,1.2-1,1.2-1.8v-7l16.4,0v-2.9L221.5,58.6z M206,71.7l-25.7,0V48.4l25.7,0V71.7z M217.6,67.2l-7.6,3.4v-21l7.6,3.4V67.2z"
		/>
	<g>
		<rect x="84.9" y="175" class="st0" width="330.2" height="99.9"/>
		<rect x="171.8" y="190.7" class="st2" width="156.3" height="7.2"/>
	</g>
	<g>
		<rect x="84.9" y="279" class="st0" width="330.2" height="99.9"/>
		<rect x="171.8" y="294.7" class="st2" width="156.3" height="7.2"/>
	</g>
	<g>
		<rect x="84.9" y="383.1" class="st0" width="330.2" height="99.9"/>
		<rect x="171.8" y="398.7" class="st2" width="156.3" height="7.2"/>
	</g>
</g>
<text transform="matrix(1 0 0 1 167.1597 240.3838)" class="st3 st4 st5">CIENCIAS Y TECNOLOGÍA</text>
<text transform="matrix(1 0 0 1 161.0181 347.8604)" class="st3 st4 st5">COMPONENTE HUMANISTA</text>
<text transform="matrix(1 0 0 1 142.3271 442.1807)"><tspan x="0" y="0" class="st3 st4 st5">FORMACIÓN DE PROFESIONALES</tspan><tspan x="44" y="21.8" class="st3 st4 st5">PRE Y POSTGRADO</tspan></text>
</svg>
