<?xml version="1.0" encoding="utf-8"?>
<!-- Generator: Adobe Illustrator 21.1.0, SVG Export Plug-In . SVG Version: 6.00 Build 0)  -->
<svg version="1.1" xmlns="http://www.w3.org/2000/svg" xmlns:xlink="http://www.w3.org/1999/xlink" x="0px" y="0px"
	 viewBox="0 0 130 130" style="enable-background:new 0 0 130 130;" xml:space="preserve">
<style type="text/css">
	.st0{display:none;}
	.st1{display:inline;fill:#4EAAD7;}
	.st2{display:inline;}
	.st3{fill:none;}
	.st4{fill:#4EAAD7;}
	.st5{fill:#266987;}
	.st6{display:none;fill:#4EA9D6;}
	.st7{display:inline;fill:#4EA9D6;}
	.st8{display:inline;fill:#60B2DA;}
	.st9{display:inline;fill:#7BBFE0;}
	.st10{display:inline;fill:none;}
	.st11{display:inline;fill:none;stroke:#FFFFFF;stroke-width:3;stroke-miterlimit:10;}
	.st12{fill:#4EA9D6;}
	.st13{display:none;fill:url(#SVGID_1_);}
	.st14{fill:#FFFFFF;}
	.st15{opacity:0.6;fill:#4EA9D6;}
	.st16{display:none;fill:url(#SVGID_2_);}
	.st17{fill:url(#SVGID_3_);}
	.st18{display:inline;opacity:0.5;fill:#FFFFFF;enable-background:new    ;}
	.st19{fill:#B4B3B3;}
	.st20{fill:#4EA9D6;stroke:#334D5C;stroke-width:0.25;stroke-miterlimit:10;}
	.st21{fill:#334D5C;}
	.st22{fill:#F3F3F3;}
	.st23{display:inline;opacity:0.1;}
	.st24{fill:#6F6F6E;}
	.st25{fill:none;stroke:#4EA9D6;stroke-width:0.7171;stroke-miterlimit:10;}
	.st26{opacity:0.9;fill:#FFFFFF;}
	.st27{fill:none;stroke:#4EAAD7;stroke-width:2;stroke-miterlimit:10;}
</style>
<g id="iconos">
	<g class="st0">
		<rect x="49.8" y="88.5" class="st1" width="24.7" height="23"/>
		<polygon class="st1" points="77.5,111.5 102.7,111.5 102.7,98.1 77.5,89.7 		"/>
		<path class="st1" d="M113,51.3V38.1H89.8v5.3H76V21.9c0-0.9-0.7-1.6-1.6-1.6H59c-0.7-3-3.3-5.2-6.5-5.2c-3.7,0-6.7,3-6.7,6.7
			c0,3.7,3,6.7,6.7,6.7c3.1,0,5.6-2.1,6.4-4.9h13.8v44H61.3c-0.6,0-1.1,0.2-1.6,0.6l-3.6,3.6c-0.4,0.4-0.6,1-0.6,1.6v4.1h-2.2
			L19.6,41.8C18,40,15.2,40,13.4,41.6c-1.8,1.7-1.8,4.5-0.2,6.2l36.3,38.3h25.7l28.1,9.1c0.5,0.1,0.9,0.2,1.4,0.2
			c1.9,0,3.6-1.2,4.2-3c0.7-2.3-0.5-4.8-2.8-5.5l-29.4-9.5H59.9v-3.2l2.3-2.3h10.6v3.8H76v-3.8h3.4c1.2,0,2.2-1,2.2-2.2
			c0-1.2-1-2.2-2.2-2.2H76V46.3h13.8v5H113z M92.1,40.3h18.7v9.2H92.1V40.3z M52.5,26.4c-2.6,0-4.7-2.1-4.7-4.7
			c0-2.6,2.1-4.7,4.7-4.7c2.6,0,4.7,2.1,4.7,4.7C57.2,24.3,55.1,26.4,52.5,26.4z"/>
	</g>
	<g class="st0">
		<path class="st1" d="M89.5,71.5l-18.4,33.3h24.9V84.4C96.1,79.1,93.5,74.4,89.5,71.5z"/>
		<path class="st1" d="M39.6,71.5c-4,2.9-6.6,7.6-6.6,13v20.3h24.9L39.6,71.5z"/>
		<g class="st2">
			<circle class="st3" cx="64.5" cy="32.1" r="2.1"/>
			<path class="st4" d="M64.5,25c3.7,0,6.7,2.7,7.1,6.3H83c-1.3-9.4-6.2-13.5-18.5-13.5c-12.3,0-17.2,4.2-18.5,13.5h11.4
				C57.9,27.7,60.9,25,64.5,25z"/>
			<path class="st5" d="M64.5,26c-3.4,0-6.1,2.7-6.1,6.1s2.7,6.1,6.1,6.1c3.4,0,6.1-2.7,6.1-6.1S67.9,26,64.5,26z M64.5,34.3
				c-1.2,0-2.1-0.9-2.1-2.1c0-1.2,0.9-2.1,2.1-2.1c1.2,0,2.1,0.9,2.1,2.1C66.7,33.3,65.7,34.3,64.5,34.3z"/>
			<path class="st4" d="M83.9,39c-0.2-0.1-0.4,0-0.6,0c0-0.6,0.1-1.2,0.1-1.8c0-1.4-0.1-2.8-0.2-4.1H71.7c-0.5,3.5-3.5,6.3-7.1,6.3
				c-3.7,0-6.7-2.7-7.1-6.3H45.9c-0.1,1.3-0.2,2.6-0.2,4.1c0,0.6,0,1.2,0.1,1.8c-0.2-0.1-0.4-0.1-0.6,0c-1.2,0.4-1.4,3.1-0.4,6.2
				c0.9,3,2.6,5.2,3.8,4.9c3.3,7,9.3,11.7,16,11.7c6.8,0,12.7-4.7,16-11.7c1.2,0.3,2.8-1.9,3.8-4.9C85.3,42.1,85.1,39.3,83.9,39z"/>
		</g>
		<g class="st2">
			<path class="st4" d="M80,68.3h-5.2v4.7v0.8v9.4c0,1.4-1.1,2.5-2.5,2.5H56.8c-1.4,0-2.5-1.1-2.5-2.5v-9.4v-0.8v-4.7h-5.2
				c-2.5,0-4.9,0.6-7.1,1.7l19.2,34.7h6.8L87.1,70C84.9,69,82.5,68.3,80,68.3z"/>
			<path class="st4" d="M55.5,70.9c0.4-0.3,0.9-0.4,1.4-0.4h15.4c0.5,0,1,0.2,1.4,0.4v-2.6H71v-5.7c-2,1-4.2,1.5-6.5,1.5
				c-2.3,0-4.5-0.5-6.5-1.5v5.7h-2.6V70.9z"/>
		</g>
	</g>
	<path class="st6" d="M104.5,33.1c-0.4-3-1-3.6-4-3.6c-7.7-0.1-15.3,0-23,0c-8.8,0-17.7-0.1-26.5,0c-3.6,0-4.9,1.4-5,4.9
		c-0.1,2.6,0,5.3,0,7.9c0,3.9-0.4,4.3-4.3,4.3c-3.5,0-6.3,1.1-8.7,3.6c-2,2.1-4,4.1-6.1,6.1c-2.7,2.5-3.8,5.4-3.8,9.1
		C23,72,24.3,78.8,21,85c0,0.3,0,0.6,0,0.9c0.5,2.6,2.3,3.5,4.7,3.4c2-0.1,3,0.7,3.7,2.7c2,5.6,6.5,8.6,12.3,8.5
		c5.5-0.1,9.7-3.2,11.6-8.8c0.6-1.6,1.5-2.4,3.2-2.4c2.7,0,5.4,0.2,8.1,0c2.9-0.2,4.4,0.7,5.5,3.6c1.8,4.6,5.4,7.2,10.5,7.6
		c5.1,0.4,9.6-1.5,11.6-6.1c1.8-4.1,4.1-5.5,8.4-5.2c3,0.2,3.7-0.8,3.9-3.9C104.5,67.9,104.5,50.5,104.5,33.1z M41.1,93.8
		c-3.1-0.1-5.7-2.7-5.7-5.8c0.1-3.1,2.8-5.8,5.9-5.7c3.2,0,5.8,2.8,5.7,6.1C47,91.5,44.4,93.9,41.1,93.8z M45.6,65.3
		c-2.5,0-4.9,0-7.4,0c-2.2,0-4.3,0-6.5,0c-1.9,0-2.6-1.1-1.4-2.4c2.8-3.2,5.7-6.4,9-9c1.9-1.5,4.8-0.5,7.2-0.4
		c0.7,0,0.6,0.8,0.6,1.3c0,3,0,6,0,9C47.1,64.9,46.6,65.3,45.6,65.3z M81.5,93.8c-3.2,0-5.6-2.6-5.6-5.8c0-3.1,2.7-5.8,5.8-5.7
		c3.1,0,5.8,2.8,5.8,5.8C87.5,91.3,84.8,93.9,81.5,93.8z M93.1,57.3c0.1,1.6-0.7,2.2-2.2,2.1c-1.3-0.1-2.6,0-3.9,0
		c-5.5,0-5.4,0-5.5,5.6c0,6.8,0.9,6-6.1,6c-5.3,0-5.5,0.9-5.4-5.4c0-1.4-0.1-2.8,0-4.2c0.1-1.7-0.6-2.1-2.2-2c-2.4,0.1-4.8,0-7.2,0
		c-1.5,0-2.1-0.6-2.1-2c0-2.5,0-5,0-7.4c0-1.5,0.6-2.2,2.2-2.2c2.3,0.1,4.7-0.1,7,0.1c1.9,0.1,2.4-0.6,2.3-2.4c-0.1-2.2,0-4.3,0-6.5
		c0-1.9,0.7-2.9,2.7-2.8c2.1,0.1,4.2,0.1,6.3,0c1.7,0,2.6,0.6,2.5,2.5c-0.1,2.5,0,5,0,7.4c0,1.3,0.4,1.8,1.7,1.7
		c2.6-0.1,5.1,0,7.7,0c1.7-0.1,2.4,0.6,2.3,2.3C93,52.5,93,54.9,93.1,57.3z"/>
	<g class="st0">
		<path class="st7" d="M58.9,87.4c8.6-0.5,16.6-2.8,23.7-7.6c10.7-7.3,16.1-17.1,13.2-30.5c9.5,4.2,18.6,17.8,9.4,30.7
			c-2.1,2.9-4.6,5.3-7.7,7.1c-1.5,0.9-1.4,1.7-0.7,3c1.3,2.3,3,4.3,4.8,6.2c0.7,0.7,1.4,1.5,0.9,2.6c-0.5,1.1-1.6,0.9-2.6,0.8
			c-4.7-0.6-9.1-2.1-13-4.6c-2.9-1.9-5.7-1.9-9-1.6c-8.9,0.7-17.4-0.6-25.1-5.6C54.8,87.1,56.9,88,58.9,87.4z"/>
		<path class="st8" d="M58.9,87.4c-2,0.9-4,0.2-6,0.5c-0.1,0-0.2,0-0.2-0.1c-0.2-0.1-0.4-0.4-0.1-0.4C54.6,87.4,56.7,87.4,58.9,87.4
			z"/>
		<path class="st7" d="M89.4,50.9c-1.9-6.8-6.6-11.4-12.6-14.7c-7.6-4.3-15.9-5.9-24.6-5C37.6,32.7,25.6,37.8,21,53.4
			c0,1.8,0,3.6,0,5.4c1.8,7.1,5.8,12.5,12,16.3c1.2,0.7,0.9,1.5,0.4,2.5C32.1,80,30.2,82,28.4,84c-0.7,0.7-1.5,1.4-0.7,2.6
			c0.7,1.1,1.7,0.9,2.6,0.7c5.4-1,10.6-2.9,15.2-5.9c0.8-0.5,1.5-1,2.5-0.8c3.9,0.7,7.8,0.8,11.7,0.5c7.8-0.6,14.9-3,21.1-7.7
			C88.5,67.5,91.7,59.2,89.4,50.9z M78.4,67.4c-5.6,4.8-12.1,7-19.3,7.6c-4.1,0.3-8.2,0.2-12.2-0.8c-1.1-0.3-1.9,0.1-2.7,0.7
			c-1.1,0.8-2.1,1.7-3.6,2.1c1-3.9,1-3.8-2.6-6c-1.5-0.9-3.1-1.9-4.5-3c-8.3-6.6-8.3-17,0-23.7c5.1-4.1,11.1-6.3,17.5-6.9
			c8.1-0.8,16,0.3,23.2,4.5c2.2,1.3,4.2,2.8,5.9,4.8C85.8,53.5,85.1,61.6,78.4,67.4z"/>
	</g>
	<g class="st0">
		<path class="st7" d="M107,94.8c-1.8,4.1-5.3,6.8-8.7,9.4c-2.1,1.6-5.2,1-7.3-1.1c-6-5.9-12-11.9-17.9-17.9
			c-2.6-2.6-2.7-5.3-0.7-8.3c0.7-1,0.5-1.5-0.2-2.2C68.6,71.2,65,67.7,61.5,64c-0.9-1-1.4-0.6-2.3,0.1c-2.3,2-3.8,4.8-6.8,6
			c-1,0.4-0.1,0.9,0.1,1.3c1.8,3.2,1,5.8-2.8,8.8c-2.8,2.2-5,2.1-7.6-0.5c-6.3-6.3-12.6-12.6-18.9-18.9c-2.7-2.8-2.8-5-0.2-8
			c0.3-0.4,0.7-0.7,1-1c3.3-3.1,5-3.2,8.9-0.5c0-1.7,0.9-2.7,2-3.8c5-5,10-10,15-15c1-1,1.8-2,3.5-1.9c-2.7-3.8-2.4-5.8,1.2-9.3
			c0.9-0.8,1.9-1.5,2.8-2.2c1.1,0,2.3,0,3.4,0c1.2,0.4,2.2,1.1,3.2,2.1c5.9,6,11.9,11.9,17.9,17.9c3.3,3.3,3.5,5.5,1.1,8.9
			c-2.9,4-6,4.9-10,2.9c-1.3,2.3-3.4,4-5.3,5.8c-1.2,1.2-1.3,2.2,0,3.4c3,2.9,5.9,5.9,8.9,8.9c1,1,1.8,1.2,3.2,0.5
			c2.9-1.5,5.9-1,8.2,1.2c5.9,5.9,11.8,11.8,17.8,17.7c1.2,1.2,1.9,2.6,1.7,4.3C107.1,93.4,107.3,94.1,107,94.8z"/>
	</g>
	<path class="st6" d="M107.3,45.4c-2.9,0.1-5.7-0.2-8.6,0.1c-2.9,0.3-5-0.6-6.6-3.1c-5.6-8.9-18.4-8.8-25.8-5.8
		c-0.9,0.4-1.7,0.6-2.7,0c-4.1-2.2-8.6-1.9-13-1.4c-4.9,0.6-8.2,4-11.3,7.4c-1.1,1.2-2.3,1.8-4.1,1.8c-4.6-0.1-9.2,0-13.8-0.1
		c-1.5,0-2.7,0.4-3.5,1.7c0,9.7,0,19.5,0,29.2c1.3,1.4,2.9,1.6,4.7,1.6c3.6-0.1,7.1,0,10.7-0.1c1.4,0,2.4,0.4,3.4,1.4
		c3.4,3.5,6.8,7,10.4,10.3c4.2,3.9,9,6.5,15,5.6c2-0.3,3.6-1.6,5.7-1.6c2.3,0,4.3-0.9,5.9-2.4c1.2-1.1,2.6-1.7,3.9-2.5
		c3.7-2.3,7.1-5,11-7c0.8-0.4,1.5-1.3,1.9-2.1c0.7-1.6,1.9-1.7,3.4-1.7c4.4,0.1,8.9,0,13.3,0.1c1.8,0,3.4-0.2,4.7-1.6
		c0-9.4,0-18.8,0-28.2C110.7,45.6,109.1,45.3,107.3,45.4z M25.9,71.6c-1.7,0-2.6-0.9-2.6-2.5c0-1.8,0.9-2.7,2.7-2.7
		c1.7,0,2.4,1,2.5,2.7C28.4,70.6,27.6,71.6,25.9,71.6z M81.5,78.2c-1.4,0-1.8,0.5-2.4,1.5c-1.3,2.8-4.6,2.8-6.6,4.4
		c-2.2,1.8-3.8,3.9-7,3.4c-0.5-0.1-0.8,0-1.2,0.2c-4.9,3.2-9,1.1-12.7-2.1c-4.3-3.8-8.3-7.9-12.4-12c-1.2-1.1-2.4-2.1-4.1-2
		c-1.3,0.1-1.6-0.6-1.6-1.7c0.1-3.2,0-6.4,0-9.7c0-3,0.1-6.1,0-9.1c0-1.5,0.4-2.2,1.9-1.9c3.5,0.7,6.1-0.8,8-3.6
		c3.7-5.2,9-6.1,14.8-5.4c0.9,0.1,1.9,0.1,2.3,0.9c0.4,0.8-0.7,1.3-1.2,1.9c-1.6,2-3.2,3.9-4.9,5.8c-4.2,4.9-4.1,10.4,0.3,14.6
		c4.2,4,10.8,4,15.1-0.2c1.7-1.6,3.2-3.4,4.7-5.2c0.8-1,1.3-1,2.2,0c3.4,3.6,6.4,7.6,9.3,11.6C88.8,73.4,86.3,78.1,81.5,78.2z
		 M96.3,61.1c0,3,0,5.9,0,8.9c0,0.8,0,1.7-1.1,1.5c-1-0.1-2.4,0.8-3-0.7c-2.3-6.5-7.3-11-11.5-16.2c-0.6-0.8-1.6-1.3-1.6-2.6
		c0.1-1.2-0.5-2-1.6-2.4c-1.2-0.4-2.2,0.1-3,1c-2.5,2.8-5.1,5.7-7.7,8.5c-2.3,2.4-5.5,2.7-8,0.9c-2.3-1.7-3-4.6-1.2-6.8
		c3-3.8,6.3-7.4,9.5-11.1c0.1-0.1,0.3-0.2,0.4-0.3c3.6-2.8,15-2.2,18.2,1c1.8,1.8,3.5,3.8,5.2,5.8c1.1,1.3,2.2,2.4,4.1,2.1
		c1.2-0.2,1.4,0.6,1.4,1.6C96.3,55.2,96.3,58.2,96.3,61.1z M104.1,71.6c-1.7,0-2.5-0.9-2.5-2.6c0-1.7,0.8-2.6,2.3-2.6
		c1.9,0,2.8,0.8,2.9,2.5C106.8,70.6,106,71.6,104.1,71.6z"/>
	<g class="st0">
		<path class="st9" d="M35.1,101c0-0.1,0-0.2,0-0.4c20.1,0,40.1,0,60.2,0c0,0.1-0.1,0.2-0.1,0.3C75.1,101,55.1,101,35.1,101z"/>
		<path class="st7" d="M93.9,94.9c-1.7-0.2-2.2-1-2.3-2.6c-0.2-3.1-0.6-6.1-1.6-9c-2.1-6.5-5.4-12.3-10.6-16.8
			c-1.5-1.3-1.5-1.9-0.2-3.1c7.5-6.7,11.5-15.2,12.4-25.1c0.3-2.8,0.2-2.8,2.8-3.3c1.4-0.3,2.2-1.1,2.3-2.6c0.1-1.4,0.4-3-1.6-3.5
			c-20,0-40,0-60,0c-1.9,0.7-1.8,2.2-1.6,3.8c0.2,1.5,1.2,2.2,2.6,2.3c1.8,0,2.4,0.9,2.5,2.6c0.9,10.1,4.7,18.9,12.5,25.7
			c1.2,1.1,1.1,1.9-0.1,3c-2.5,2.3-4.8,4.8-6.6,7.7c-3.3,5.4-5.2,11.2-5.7,17.5c-0.2,2.1-0.7,3.5-3.2,3.5c-1.6,0-2.2,1.5-2.1,3.5
			c0,1.6,0.8,2.3,2.4,2.2c19.6,0,39.2,0,58.8,0c0.9,0,1.7-0.1,2.1-1.1C97.6,97.3,96.5,95.2,93.9,94.9z M46.9,39.2
			c-2.3,0-2.2,0-2.3-3.4c-0.1-1.9,1.1-1.6,2.2-1.6c12.3,0,24.7,0,37,0c1.9,0,2.3,0.7,2,2.3c-0.6,3,0.3,2.7-3.1,2.8
			c-5.9,0-11.7,0-17.6,0C59.1,39.2,53,39.2,46.9,39.2z M81.4,95.8c-5.4,0-10.8,0-16.2,0c-6.3,0-12.7,0-19,0c-0.9,0-1.7,0-1.6-1.3
			c0.4-10.2,4-18.9,12.4-25.2c1.8-1.4,3.8-2.2,6.1-1.9c0.9,0.1,1.7,0.1,2.6,0c4.3-0.7,7.4,1.3,10.3,4.1c5.7,5.4,8.7,12.2,9.5,19.9
			C85.9,95.8,85.8,95.8,81.4,95.8z"/>
	</g>
	<g class="st0">
		<polygon class="st10" points="65.2,45.6 47.3,63.6 52.2,68.5 58.6,62.2 60,63.6 53.6,70 56.7,73 63.1,66.7 64.5,68.1 58.1,74.4 
			61.2,77.5 67.5,71.1 69,72.6 62.6,78.9 65.7,82 72,75.6 73.4,77 67.1,83.4 76.5,92.8 94.5,74.9 		"/>
		<path class="st7" d="M97.3,74.9l-32-32l-9.7,9.7L32.5,30.8l21.7,23.1l-9.7,9.7l32,32l6.5-6.5l5.7,5.7l-6.4,6.4l3.8,3.8l20.5-20.5
			l-3.8-3.8L96.4,87l-5.7-5.7L97.3,74.9z M67.1,83.4l6.4-6.4L72,75.6L65.7,82l-3.1-3.1l6.4-6.4l-1.4-1.4l-6.4,6.4l-3.1-3.1l6.4-6.4
			l-1.4-1.4L56.7,73L53.6,70l6.4-6.4l-1.4-1.4l-6.4,6.4l-4.9-4.9l18-18l29.2,29.2l-18,18L67.1,83.4z"/>
	</g>
	<g class="st0">
		<path class="st1" d="M84.1,75.4l-14.4,26.2h19.6v-16C89.3,81.4,87.3,77.7,84.1,75.4z"/>
		<path class="st1" d="M44.9,75.4c-3.1,2.3-5.2,6-5.2,10.2v16h19.6L44.9,75.4z"/>
		<g class="st2">
			<circle class="st3" cx="64.5" cy="44.5" r="1.7"/>
			<path class="st4" d="M64.5,38.9c2.9,0,5.2,2.1,5.6,4.9H79c-1-7.4-4.9-10.6-14.5-10.6c-9.6,0-13.5,3.3-14.5,10.6h8.9
				C59.3,41,61.6,38.9,64.5,38.9z"/>
			<path class="st4" d="M64.5,39.6c-2.7,0-4.8,2.2-4.8,4.8c0,2.7,2.2,4.8,4.8,4.8c2.7,0,4.8-2.2,4.8-4.8
				C69.3,41.8,67.2,39.6,64.5,39.6z M64.5,46.1c-0.9,0-1.7-0.7-1.7-1.7c0-0.9,0.7-1.7,1.7-1.7c0.9,0,1.7,0.7,1.7,1.7
				C66.2,45.4,65.4,46.1,64.5,46.1z"/>
			<path class="st4" d="M79.7,49.8c-0.1,0-0.3,0-0.5,0c0-0.5,0-0.9,0-1.4c0-1.1,0-2.2-0.1-3.2h-9.1c-0.4,2.8-2.7,4.9-5.6,4.9
				c-2.9,0-5.2-2.1-5.6-4.9h-9.1c-0.1,1-0.1,2.1-0.1,3.2c0,0.5,0,0.9,0,1.4c-0.2,0-0.3-0.1-0.5,0c-0.9,0.3-1.1,2.5-0.3,4.9
				c0.7,2.4,2,4.1,3,3.9c2.6,5.5,7.3,9.2,12.6,9.2c5.3,0,10-3.7,12.6-9.2c0.9,0.2,2.2-1.5,3-3.9C80.8,52.3,80.7,50.1,79.7,49.8z"/>
		</g>
		<g class="st2">
			<path class="st4" d="M76.7,72.9h-4.1v3.7v0.6v7.4c0,1.1-0.9,2-2,2H58.5c-1.1,0-2-0.9-2-2v-7.4v-0.6v-3.7h-4.1
				c-2,0-3.9,0.5-5.6,1.3l15.1,27.3h5.3l15.1-27.3C80.5,73.4,78.7,72.9,76.7,72.9z"/>
			<path class="st4" d="M57.4,75c0.3-0.2,0.7-0.3,1.1-0.3h12.1c0.4,0,0.8,0.1,1.1,0.3v-2h-2v-4.5c-1.6,0.8-3.3,1.2-5.1,1.2
				c-1.8,0-3.5-0.4-5.1-1.2v4.5h-2V75z"/>
		</g>
		<g class="st2">
			<path class="st4" d="M21.2,56.5c-2,1.4-3.2,3.8-3.2,6.4v10h12.3L21.2,56.5z"/>
			<g>
				<circle class="st3" cx="33.6" cy="37.1" r="1"/>
				<path class="st4" d="M33.6,33.6c1.8,0,3.3,1.3,3.5,3.1h5.6C42.1,32,39.6,30,33.6,30c-6.1,0-8.5,2.1-9.1,6.7H30
					C30.3,34.9,31.8,33.6,33.6,33.6z"/>
				<path class="st4" d="M33.6,34c-1.7,0-3,1.4-3,3c0,1.7,1.4,3,3,3c1.7,0,3-1.4,3-3C36.6,35.4,35.2,34,33.6,34z M33.6,38.1
					c-0.6,0-1-0.5-1-1c0-0.6,0.5-1,1-1c0.6,0,1,0.5,1,1C34.6,37.7,34.1,38.1,33.6,38.1z"/>
				<path class="st4" d="M43.1,40.4c-0.1,0-0.2,0-0.3,0c0-0.3,0-0.6,0-0.9c0-0.7,0-1.4-0.1-2h-5.7c-0.2,1.7-1.7,3.1-3.5,3.1
					c-1.8,0-3.3-1.3-3.5-3.1h-5.7c-0.1,0.6-0.1,1.3-0.1,2c0,0.3,0,0.6,0,0.9c-0.1,0-0.2,0-0.3,0c-0.6,0.2-0.7,1.6-0.2,3.1
					c0.5,1.5,1.3,2.6,1.9,2.4c1.6,3.5,4.6,5.8,7.9,5.8c3.3,0,6.3-2.3,7.9-5.8c0.6,0.1,1.4-0.9,1.9-2.4C43.8,42,43.7,40.6,43.1,40.4z
					"/>
			</g>
			<g>
				<path class="st4" d="M41.2,54.9h-2.6v2.3v0.4v4.6c0,0.7-0.6,1.3-1.3,1.3h-7.6c-0.7,0-1.3-0.6-1.3-1.3v-4.6v-0.4v-2.3h-2.6
					c-1.3,0-2.4,0.3-3.5,0.8l9.5,17.1h3.3l9.5-17.1C43.6,55.2,42.4,54.9,41.2,54.9z"/>
				<path class="st4" d="M29.1,56.2c0.2-0.1,0.4-0.2,0.7-0.2h7.6c0.3,0,0.5,0.1,0.7,0.2v-1.3h-1.3v-2.8c-1,0.5-2.1,0.7-3.2,0.7
					c-1.1,0-2.2-0.3-3.2-0.7v2.8h-1.3V56.2z"/>
			</g>
		</g>
		<g class="st2">
			<path class="st4" d="M108.8,56.5l-9.1,16.4h12.3v-10C112.1,60.3,110.8,57.9,108.8,56.5z"/>
			<g>
				<circle class="st3" cx="96.5" cy="37.1" r="1"/>
				<path class="st4" d="M96.5,33.6c1.8,0,3.3,1.3,3.5,3.1h5.6C105,32,102.6,30,96.5,30c-6.1,0-8.5,2.1-9.1,6.7H93
					C93.2,34.9,94.7,33.6,96.5,33.6z"/>
				<path class="st4" d="M96.5,34c-1.7,0-3,1.4-3,3c0,1.7,1.4,3,3,3c1.7,0,3-1.4,3-3C99.5,35.4,98.2,34,96.5,34z M96.5,38.1
					c-0.6,0-1-0.5-1-1c0-0.6,0.5-1,1-1c0.6,0,1,0.5,1,1C97.6,37.7,97.1,38.1,96.5,38.1z"/>
				<path class="st4" d="M106.1,40.4c-0.1,0-0.2,0-0.3,0c0-0.3,0-0.6,0-0.9c0-0.7,0-1.4-0.1-2H100c-0.2,1.7-1.7,3.1-3.5,3.1
					c-1.8,0-3.3-1.3-3.5-3.1h-5.7c-0.1,0.6-0.1,1.3-0.1,2c0,0.3,0,0.6,0,0.9c-0.1,0-0.2,0-0.3,0c-0.6,0.2-0.7,1.6-0.2,3.1
					c0.5,1.5,1.3,2.6,1.9,2.4c1.6,3.5,4.6,5.8,7.9,5.8c3.3,0,6.3-2.3,7.9-5.8c0.6,0.1,1.4-0.9,1.9-2.4
					C106.8,42,106.7,40.6,106.1,40.4z"/>
			</g>
			<g>
				<path class="st4" d="M104.1,54.9h-2.6v2.3v0.4v4.6c0,0.7-0.6,1.3-1.3,1.3h-7.6c-0.7,0-1.3-0.6-1.3-1.3v-4.6v-0.4v-2.3h-2.6
					c-1.3,0-2.4,0.3-3.5,0.8l9.5,17.1h3.3l9.5-17.1C106.6,55.2,105.4,54.9,104.1,54.9z"/>
				<path class="st4" d="M92,56.2c0.2-0.1,0.4-0.2,0.7-0.2h7.6c0.3,0,0.5,0.1,0.7,0.2v-1.3h-1.3v-2.8c-1,0.5-2.1,0.7-3.2,0.7
					c-1.1,0-2.2-0.3-3.2-0.7v2.8H92V56.2z"/>
			</g>
		</g>
	</g>
	<g class="st0">
		<path class="st7" d="M93.9,57.9c3.4-10.4,8.5-26.1-2.8-33.2c-3.9-2.4-7.6-3.6-11.5-3.6c-4.2,0-7.5,1.4-10,2.5
			c-1.1,0.5-2.5,1.1-3.1,1.1c-0.6,0-2-0.6-3.1-1.1c-2.5-1.1-5.9-2.5-10-2.5c-3.9,0-7.6,1.2-11.5,3.6c-11.3,7.1-6.2,22.8-2.8,33.2
			c1.1,3.2,2,6.3,2.2,7.9c0.3,2.9,0,6.6-0.3,10.5c-0.5,6.2-1,12.6,0.5,18c2.5,9.2,10.5,15.8,10.8,16.1c0.7,0.6,1.6,0.9,2.6,1
			c0.1,0,0.2,0,0.2,0c2.4,0,4.4-2,4.4-4.4c0-0.4-0.1-0.8-0.2-1.1c-0.4-2.2-2.3-14.6,0.6-22.5c2.1-5.9,5.3-9,6.6-9.8
			c1.4,0.8,4.5,3.9,6.6,9.8c3.1,8.7,0.6,22.7,0.5,22.8c-0.3,1.8,0.5,3.6,2.1,4.6c0.7,0.4,1.5,0.6,2.2,0.6c1,0,2-0.3,2.8-1
			c0.3-0.3,8.3-6.9,10.8-16.1c1.5-5.4,1-11.8,0.5-18.1c-0.3-3.9-0.6-7.6-0.3-10.5C91.9,64.2,92.9,61.1,93.9,57.9z"/>
		<line class="st11" x1="66.9" y1="34.6" x2="66.9" y2="54.7"/>
		<line class="st11" x1="77.4" y1="44.6" x2="57.3" y2="44.6"/>
	</g>
	<path class="st6" d="M94.3,36c-10.7-10.7-28-10.7-38.7,0c-9.4,9.4-10.5,24-3.3,34.7L30.2,92.8c-2,2-2,5.3,0,7.3c2,2,5.3,2,7.3,0
		l22.1-22.1c10.7,7.2,25.3,6.1,34.7-3.3C105,64.1,105,46.7,94.3,36z M89.3,69.7c-7.9,7.9-20.8,7.9-28.7,0c-7.9-7.9-7.9-20.8,0-28.7
		c7.9-7.9,20.8-7.9,28.7,0C97.2,49,97.2,61.8,89.3,69.7z"/>
	<g class="st0">
		<g class="st2">
			<g>
				<polygon class="st12" points="101.9,85.2 47.1,106.6 29.4,68.3 84.2,46.8 				"/>
				
					<radialGradient id="SVGID_1_" cx="514.6957" cy="110.425" r="60.3446" gradientTransform="matrix(0.3988 -0.1562 0.1753 0.3783 -158.951 115.289)" gradientUnits="userSpaceOnUse">
					<stop  offset="0" style="stop-color:#FFFFFF"/>
					<stop  offset="1" style="stop-color:#0071BC"/>
				</radialGradient>
				<polygon class="st13" points="101.9,85.1 47.2,106.6 29.4,68.2 84.2,46.8 				"/>
			</g>
			<path class="st14" d="M52.4,71.3c0,0-0.2-0.5-0.1-0.3c2.5,5.3,4.6,10.1,5.5,15.8c0.2,1.3,0.8,6,2.4,6c2.7,0,2.2-5.9,2.2-7.4
				c0-1.4,0-2.9,0.3-4.2c0.1-0.6,0.2-1.3,0.8-1.7c0.9-0.5,1.2,0.1,2,0.3c2.6,0.4,0.4-2.1,2-2.6c0.9-0.3,0.9,0.8,1.6,1
				c1.3,0.3,0.6-0.6,1.4-1c1.4-0.8,2.8,1.8,4,2.5c1.2,0.7,4.7,2.3,6.1,1.6c-0.9-2.5-3.6-4.6-5-6.8c-1.3-2.1-2.3-4.1-2.8-6.5
				c-0.3-1.9-0.5-5.7-2.3-7c-3.2-2.3-3.9,3.1-6.6,2.7c-1.8-0.3-3.7-1.6-5.4,0.1c-1.6,1.6-0.8,2.9-3.6,2.8c-1.3-0.1-4.3,0.3-4.9,1.7
				c-0.6,1.6,1.9,2.2,2.4,2.8L52.4,71.3z"/>
			<path class="st15" d="M56.3,97.2c0.3-1.6,1.8-3.1,2.4-4.7c0.6-1.7,0.5-3.5,0.6-5.2c0.1-2.9-0.2-5.9-1.1-8.7
				c-0.7-2.3-2-4.4-3.2-6.5c-0.6-1-1-2.4,0.7-2.6c1.1-0.2,2.2,1.3,3.2,0.2c0.8-0.8,0.2-2.1,1.4-2.8c1.3-0.8,2,0.1,3.3,0.1
				c2.4,0,3-4,5-0.2C71.3,72,74.1,76,78.7,80c2.3,2,4.8,2.9,7.4,4.2c-3.4,1.3-8.7-4.4-11-6.3c-0.8-0.7-1.6-1.5-2.5-2
				c-2-1.2-1.1,0.4-2.6,0.6c-0.9,0.1-1.3-1.3-2.3-1.5c-2.1-0.3-1.1,1.4-1.6,2c-0.9,1-1.6-1.2-3.2-0.2c0.1,0.3,0.2,1-0.1,1.3
				c-0.6,0.6-1.1-0.1-1.7,0.1c-1.6,0.6-0.9,1.6-0.8,2.8c0.2,2.1-0.3,4.5-0.4,6.6c-0.1,2.1-0.1,4.2-0.9,6.1c-0.3,0.8-2,5.1-2.8,2.9
				L56.3,97.2z"/>
		</g>
		<g class="st2">
			<g>
				<polygon class="st12" points="95.2,82.5 25.4,72.5 33.7,23.5 103.5,33.6 				"/>
				<radialGradient id="SVGID_2_" cx="64.5268" cy="52.9731" r="34.6135" gradientUnits="userSpaceOnUse">
					<stop  offset="0" style="stop-color:#FFFFFF"/>
					<stop  offset="1" style="stop-color:#0071BC"/>
				</radialGradient>
				<polygon class="st16" points="95.2,82.5 25.5,72.4 33.8,23.5 103.6,33.5 				"/>
			</g>
			<path class="st14" d="M54.9,39.9c0-0.1,0.1-0.6,0.1-0.3c-1.2,6.8-2.3,12.9-5.3,19.1c-0.7,1.4-3.3,6.5-1.7,7.5
				c2.7,1.6,6.2-4.7,7.3-6.3c1-1.4,1.9-2.9,3.2-4.1c0.5-0.5,1.1-1.2,1.9-1.2c1.3,0,1.1,0.8,1.8,1.4c2.4,1.9,1.9-1.9,3.7-1.5
				c1.1,0.3,0.4,1.4,0.9,1.9c1.1,1.1,1-0.2,2-0.2c1.9,0,1.6,3.4,2.3,4.8c0.7,1.4,3.1,5.1,5,5.2c0.8-3.1-0.5-6.7-0.4-9.8
				c0.1-2.9,0.5-5.5,1.7-8.2c1-2.1,3.4-6,2.5-8.3c-1.6-4.1-6,0.9-8.5-1.1c-1.7-1.3-2.6-3.8-5.5-3.1c-2.7,0.7-2.7,2.5-5.5,0.7
				c-1.3-0.8-4.6-2.2-6.1-1.1c-1.8,1.3,0.4,3.3,0.5,4.2L54.9,39.9z"/>
			<path class="st15" d="M41,68.3c1.4-1.5,3.9-2,5.6-3.3c1.7-1.3,2.9-3.2,4.1-5c2.1-2.9,3.8-6.1,4.9-9.4c0.9-2.7,1-5.6,1.2-8.4
				c0.1-1.4,0.7-3,2.5-2.3c1.2,0.5,1.4,2.6,3.1,2.1c1.3-0.4,1.6-2,3.3-2c1.9,0,1.9,1.2,3.3,2c2.4,1.3,5.7-2.2,5.1,2.7
				c-0.8,6.8-0.8,12.5,1.1,19.2c0.9,3.3,2.9,5.7,4.6,8.5c-4.3-0.7-5.8-9.5-6.8-12.7c-0.4-1.1-0.6-2.4-1.1-3.5
				c-1.2-2.4-1.4-0.2-3-0.9c-1-0.4-0.4-2-1.3-2.8c-1.9-1.6-2,0.8-3,1.1c-1.6,0.5-0.8-2.2-3.1-2c-0.1,0.4-0.5,1.2-1,1.3
				c-1.1,0.3-1-0.8-1.7-0.9c-2-0.4-2,1.1-2.7,2.4c-1.3,2.2-3.3,4.4-4.9,6.4c-1.6,2-2.9,4.1-5.1,5.7c-0.9,0.6-5.5,4-4.9,1.3L41,68.3z
				"/>
		</g>
	</g>
	<g class="st0">
		<path class="st7" d="M89.8,86.8c2.8-1.3,5-2.8,6.3-4.4c-2-3.5-4.8-8.2-7.7-12.5c-0.9-0.3-1.8-0.7-2.8-1c-0.4,1.9-1,3.9-1.7,5.9
			C86.9,79,88.9,83.1,89.8,86.8z"/>
		<path class="st7" d="M65.4,62c2,0,3.7,1.2,4.1,2.9c1.4,0.1,2.7,0.2,4,0.3c-3.1-2.8-6.4-5.2-9.6-7.1c-2.4,2-4.7,4.4-6.9,7.1
			c1.4-0.1,2.9-0.3,4.4-0.3C61.7,63.2,63.3,62,65.4,62z"/>
		<path class="st7" d="M81.4,80.8c1.1,0.6,1.8,1.7,1.8,2.9c0,2-1.8,3.6-4.1,3.6c-0.5,0-0.9-0.1-1.4-0.2c-0.8,1.2-1.7,2.4-2.5,3.5
			c5.1-0.6,9.6-1.7,13.2-3.2c-0.8-3.3-2.5-7-5-10.9C82.8,78,82.1,79.4,81.4,80.8z"/>
		<path class="st7" d="M71.7,92.3c-2.1,0.2-4.2,0.2-6.4,0.2c-0.4,0-0.9,0-1.3,0c1.6,1.1,3.2,2,4.7,2.8
			C69.8,94.4,70.8,93.4,71.7,92.3z"/>
		<path class="st7" d="M46.1,90.1c0,0.4-0.1,0.8-0.1,1.2c-0.2,5,1.2,8.7,3.9,10.4h9.4c2.7-1.1,5.6-3,8.3-5.4
			c-2.1-1.1-4.2-2.4-6.2-3.9C55.7,92.2,50.5,91.4,46.1,90.1z"/>
		<path class="st7" d="M42.4,69.9c-1,0.4-2,0.8-2.9,1.3c-2.2,3.3-4.2,6.7-5.9,9.6c1.3,3,5.3,5.6,11.1,7.5c0.4-3.1,1.3-6.4,2.7-9.8
			C45.2,75.5,43.5,72.6,42.4,69.9z"/>
		<path class="st7" d="M54.7,89.4c-2.8,0-5-1.9-5-4.3c0-0.9,0.3-1.8,0.9-2.5c-0.8-0.9-1.5-1.8-2.2-2.7c-1.1,3-1.9,6-2.3,8.8
			c3.9,1.1,8.4,1.9,13.3,2.3c-0.8-0.7-1.7-1.4-2.5-2.1C56.3,89.2,55.5,89.4,54.7,89.4z"/>
		<path class="st7" d="M62.4,57.3c-4.5-2.4-8.9-3.9-12.5-3.9c0,0.8,0,1.5,0,2.1c0,1.1-2.7,4.7-4.8,7.6c-0.8,1-1.6,2.2-2.4,3.3
			c0.2,0.5,0.4,1.1,0.6,1.6c3.3-1.2,7.2-2.1,11.5-2.6C57.2,62.3,59.8,59.5,62.4,57.3z"/>
		<path class="st7" d="M53.7,67c-3.7,0.6-7,1.4-9.9,2.4c1,2.4,2.5,4.9,4.3,7.5c0.8-1.8,1.8-3.7,2.8-5.5C51.8,69.8,52.7,68.4,53.7,67
			z"/>
		<path class="st7" d="M70.2,96.1c3.9,1.8,7.5,2.9,10.6,2.9c2.1,0,3.9-0.5,5.2-1.4c2.4-1.7,3.2-4.9,2.6-8.7
			c-4.1,1.6-9.1,2.7-14.7,3.3C72.7,93.5,71.5,94.8,70.2,96.1z"/>
		<path class="st7" d="M82.9,73.3c0.5-1.6,1-3.2,1.3-4.8c-2.1-0.6-4.3-1.1-6.7-1.4c0.1,0.1,0.2,0.2,0.2,0.2
			C79.7,69.3,81.4,71.3,82.9,73.3z"/>
		<path class="st7" d="M44.5,89.7c-5.7-1.8-9.9-4.4-11.8-7.3c-0.9,1.6-1.7,3-2.3,4L30,87.2c-1.9,3.3-1.9,7.8-0.1,10.9
			c1.4,2.4,3.6,3.7,6.3,3.7h11.4c-2.2-2.2-3.3-5.8-3.2-10.5C44.4,90.8,44.5,90.2,44.5,89.7z"/>
		<path class="st7" d="M84.4,67.1c0.1-0.9,0.2-1.7,0.3-2.5c-0.3-0.5-0.7-1-1-1.4c-2.1-2.9-4.8-6.6-4.8-7.6c0-0.8,0-1.9,0.1-3.1
			c-0.7-0.2-1.4-0.3-2.2-0.3c-3.5,0-7.6,1.9-11.6,5c3.7,2.2,7.4,5,10.9,8.3C78.9,65.8,81.8,66.4,84.4,67.1z"/>
		<path class="st7" d="M74.9,83.8c0-2,1.9-3.6,4.1-3.6c0.3,0,0.6,0,0.9,0.1c0.9-1.8,1.7-3.6,2.3-5.3c-1.6-2.3-3.5-4.6-5.7-6.8
			c-0.5-0.5-1-1-1.5-1.5c-1.8-0.2-3.7-0.4-5.7-0.5c-0.4,1.6-2,2.9-4.1,2.9c-2,0-3.7-1.2-4.1-2.9c-1.9,0.1-3.7,0.2-5.5,0.5
			c-1.2,1.7-2.4,3.4-3.5,5.3c-1.2,2.1-2.3,4.3-3.2,6.4c0.8,1.1,1.7,2.2,2.7,3.3c0.8-0.5,1.8-0.8,2.9-0.8c2.8,0,5,1.9,5,4.3
			c0,1.2-0.6,2.2-1.4,3c1.3,1.1,2.5,2.1,3.8,3c1.1,0,2.2,0.1,3.3,0.1c2.7,0,5.2-0.1,7.7-0.4c1.1-1.4,2.2-2.9,3.3-4.4
			C75.5,85.8,74.9,84.8,74.9,83.8z"/>
		<path class="st7" d="M98.8,87.2l-0.5-0.9c-0.4-0.7-0.9-1.6-1.5-2.6c-1.6,1.7-3.9,3.2-6.8,4.4c0.8,4.5-0.1,8.2-3.1,10.4
			c-1.6,1.2-3.7,1.7-6.2,1.7c-3.5,0-7.5-1.1-11.7-3.2c-2.2,1.9-4.3,3.5-6.5,4.7h30.1c2.7,0,4.9-1.3,6.3-3.7
			C100.7,95,100.7,90.5,98.8,87.2z"/>
		<path class="st7" d="M81.6,31.2H46.3v4.9H50c0,2.8-0.1,10.5-0.1,16c4,0,8.8,1.5,13.7,4.2c4.5-3.5,9-5.6,13-5.6
			c0.8,0,1.5,0.1,2.2,0.3c0-5.3,0-12.3-0.1-14.9h2.8L81.6,31.2L81.6,31.2z"/>
		<path class="st7" d="M71.7,92.3c0.4-0.5,0.9-1,1.3-1.5c-2.5,0.2-5,0.4-7.7,0.4c-1.1,0-2.2,0-3.3-0.1c0.7,0.5,1.3,0.9,2,1.4
			c0.4,0,0.8,0,1.3,0C67.5,92.5,69.7,92.5,71.7,92.3z"/>
	</g>
	<g id="iconos_1_" class="st0">
		<g>
			<rect x="48.8" y="92.5" class="st1" width="24.7" height="23"/>
			<polygon class="st1" points="76.5,115.5 101.7,115.5 101.7,102.1 76.5,93.7 			"/>
			<path class="st1" d="M112,55.3V42.1H88.8v5.3H75V25.9c0-0.9-0.7-1.6-1.6-1.6H58c-0.7-3-3.3-5.2-6.5-5.2c-3.7,0-6.7,3-6.7,6.7
				s3,6.7,6.7,6.7c3.1,0,5.6-2.1,6.4-4.9h13.8v44H60.3c-0.6,0-1.1,0.2-1.6,0.6l-3.6,3.6c-0.4,0.4-0.6,1-0.6,1.6v4.1h-2.2L18.6,45.8
				C17,44,14.2,44,12.4,45.6c-1.8,1.7-1.8,4.5-0.2,6.2l36.3,38.3h25.7l28.1,9.1c0.5,0.1,0.9,0.2,1.4,0.2c1.9,0,3.6-1.2,4.2-3
				c0.7-2.3-0.5-4.8-2.8-5.5l-29.4-9.5H58.9v-3.2l2.3-2.3h10.6v3.8H75v-3.8h3.4c1.2,0,2.2-1,2.2-2.2s-1-2.2-2.2-2.2H75V50.3h13.8v5
				H112z M91.1,44.3h18.7v9.2H91.1V44.3z M51.5,30.4c-2.6,0-4.7-2.1-4.7-4.7s2.1-4.7,4.7-4.7c2.6,0,4.7,2.1,4.7,4.7
				S54.1,30.4,51.5,30.4z"/>
		</g>
		<g>
			<g class="st2">
				
					<linearGradient id="SVGID_3_" gradientUnits="userSpaceOnUse" x1="29.1" y1="63" x2="99.1" y2="63" gradientTransform="matrix(1 0 0 -1 0 132)">
					<stop  offset="0" style="stop-color:#40607D;stop-opacity:0.6"/>
					<stop  offset="1" style="stop-color:#40607D"/>
				</linearGradient>
				<rect x="29.1" y="30" class="st17" width="70" height="78"/>
			</g>
			<path class="st18" d="M83.1,63.3c2.4-7.4,6.1-18.7-2-23.8c-2.8-1.7-5.4-2.6-8.2-2.6c-3,0-5.4,1-7.2,1.8c-0.8,0.3-1.8,0.8-2.2,0.8
				c-0.4,0-1.4-0.4-2.2-0.8C59.6,38,57.1,37,54.2,37c-2.8,0-5.4,0.8-8.2,2.6c-8.1,5.1-4.4,16.3-2,23.8c0.8,2.3,1.5,4.5,1.6,5.6
				c0.2,2.1,0,4.7-0.2,7.5c-0.4,4.4-0.7,9,0.3,12.9c1.8,6.6,7.5,11.3,7.7,11.5c0.5,0.4,1.2,0.7,1.8,0.7c0.1,0,0.1,0,0.2,0
				c1.7,0,3.1-1.4,3.1-3.1c0-0.3,0-0.6-0.1-0.8c-0.3-1.6-1.6-10.4,0.4-16.1c1.5-4.2,3.8-6.4,4.7-7c1,0.6,3.2,2.8,4.7,7
				c2.2,6.2,0.4,16.2,0.4,16.3c-0.2,1.3,0.3,2.6,1.5,3.3c0.5,0.3,1,0.4,1.6,0.4c0.7,0,1.4-0.2,2-0.7c0.2-0.2,5.9-5,7.7-11.5
				c1.1-3.9,0.7-8.5,0.3-12.9c-0.2-2.8-0.4-5.4-0.2-7.5C81.7,67.8,82.4,65.6,83.1,63.3z"/>
		</g>
		<g>
			<path class="st1" d="M88.5,75.5l-18.4,33.3H95V88.4C95.1,83.1,92.5,78.4,88.5,75.5z"/>
			<path class="st1" d="M38.6,75.5c-4,2.9-6.6,7.6-6.6,13v20.3h24.9L38.6,75.5z"/>
			<g class="st2">
				<circle class="st3" cx="63.5" cy="36.1" r="2.1"/>
				<path class="st4" d="M63.5,29c3.7,0,6.7,2.7,7.1,6.3H82c-1.3-9.4-6.2-13.5-18.5-13.5S46.3,26,45,35.3h11.4
					C56.9,31.7,59.9,29,63.5,29z"/>
				<path class="st4" d="M63.5,30c-3.4,0-6.1,2.7-6.1,6.1s2.7,6.1,6.1,6.1c3.4,0,6.1-2.7,6.1-6.1S66.9,30,63.5,30z M63.5,38.3
					c-1.2,0-2.1-0.9-2.1-2.1c0-1.2,0.9-2.1,2.1-2.1s2.1,0.9,2.1,2.1C65.7,37.3,64.7,38.3,63.5,38.3z"/>
				<path class="st4" d="M82.9,43c-0.2-0.1-0.4,0-0.6,0c0-0.6,0.1-1.2,0.1-1.8c0-1.4-0.1-2.8-0.2-4.1H70.7c-0.5,3.5-3.5,6.3-7.1,6.3
					c-3.7,0-6.7-2.7-7.1-6.3H44.9c-0.1,1.3-0.2,2.6-0.2,4.1c0,0.6,0,1.2,0.1,1.8c-0.2-0.1-0.4-0.1-0.6,0c-1.2,0.4-1.4,3.1-0.4,6.2
					c0.9,3,2.6,5.2,3.8,4.9c3.3,7,9.3,11.7,16,11.7c6.8,0,12.7-4.7,16-11.7c1.2,0.3,2.8-1.9,3.8-4.9C84.3,46.1,84.1,43.3,82.9,43z"
					/>
			</g>
			<g class="st2">
				<path class="st4" d="M79,72.3h-5.2V77v0.8v9.4c0,1.4-1.1,2.5-2.5,2.5H55.8c-1.4,0-2.5-1.1-2.5-2.5v-9.4V77v-4.7h-5.2
					c-2.5,0-4.9,0.6-7.1,1.7l19.2,34.7H67L86.1,74C83.9,73,81.5,72.3,79,72.3z"/>
				<path class="st4" d="M54.5,74.9c0.4-0.3,0.9-0.4,1.4-0.4h15.4c0.5,0,1,0.2,1.4,0.4v-2.6H70v-5.7c-2,1-4.2,1.5-6.5,1.5
					c-2.3,0-4.5-0.5-6.5-1.5v5.7h-2.6L54.5,74.9L54.5,74.9z"/>
			</g>
		</g>
		<g>
			<path class="st7" d="M108.1,36.3c0-2.1-1.2-3.2-3.3-3.3c-3.7-0.1-7.5,0-11.3,0c-2.2,0-2,1.5-2,2.9c0,1.5,0.1,2.7,2.1,2.6
				c1.5-0.1,3.1,0,4.6,0c0.2,0.3,0.4,0.6,0.5,0.8c-3.3,3.1-6.6,6.1-9.7,9.2c-1.1,1-1.6,1.3-3,0.4c-8.3-5.5-17.1-6-26-1.4
				c-1.5,0.8-2.5,0.8-4,0C42.3,40,24.8,47.1,20.2,62.1c-0.4,1.2-0.4,2.4-0.8,3.6c0,2.6,0,5.2,0.1,7.8c0.1,0.6,0.1,1.1,0.3,1.7
				c2.8,10.4,9.5,16.7,20,19c0.5,0.1,1.5-0.1,1.5,0.5c0.2,1.6,0.4,3.4,0,4.9c-0.3,1.1-1.8,0.6-2.7,0.5c-2.1-0.1-2.8,0.7-2.7,2.8
				c0,1.9,0.4,3.2,2.6,2.8c2.4-0.4,3.4,0.5,3,3c-0.3,1.9,0.5,2.7,2.5,2.6c1.9,0,3.2-0.4,2.9-2.6c-0.3-2.4,0.4-3.4,2.9-3
				c1.9,0.3,2.7-0.5,2.7-2.5c0-1.9-0.5-3.3-2.6-2.9c-2.7,0.4-3.1-0.9-3.1-3.2c0-2.1,0.6-2.9,2.6-3.2c2.3-0.3,4.5-1.2,6.5-2.4
				c1.5-0.9,2.6-0.8,4.1,0c11.6,6.3,25.8,2.8,32.9-8.5c5.6-9,5.3-18.2-0.3-27.3c-0.4-0.7-1.7-1.3-0.6-2.3c3.4-3.4,6.8-6.7,10.5-10.3
				c0,1.8,0,3.3,0,4.8c0,2.2,1.4,2.3,3,2.3s2.5-0.4,2.5-2.3C108,43.9,108.1,40.1,108.1,36.3z M51.7,87.5
				C41,92.3,27.9,85.7,25.1,74.3C22.1,61.8,31.3,50,44.4,50c2.5-0.2,5.1,0.5,7.7,1.6c1.1,0.5,1.6,0.9,0.6,2.1
				c-7.6,8.8-7.7,22.6,0,31.4C54.1,86.7,52.7,87,51.7,87.5z M59.2,81.8c-0.9,1.1-1.4,1.3-2.4,0c-2.9-3.7-4.5-7.7-4.3-12.4
				c-0.2-4.6,1.4-8.6,4.2-12.2c0.9-1.2,1.6-1.3,2.6-0.1C65.1,64.1,65,74.8,59.2,81.8z M70.7,89c-2.3-0.1-4.6-0.7-6.7-1.7
				c-1.1-0.5-1.6-1-0.6-2.1c7.6-8.6,7.7-22.8-0.1-31.6c-0.8-0.9-0.6-1.3,0.4-1.8c1.9-1,5.1-1.7,8.2-1.7c11.3,0,20,8.9,19.7,20.3
				C91.2,80.9,81.5,89.6,70.7,89z"/>
		</g>
		<path class="st12" d="M101.5,38.7c-0.4-2.8-0.9-3.4-3.8-3.5c-7.3-0.1-14.6,0-21.9,0c-8.4,0-16.8-0.1-25.2,0
			c-3.4,0-4.6,1.3-4.8,4.7c-0.1,2.5,0,5,0,7.5c0,3.7-0.4,4.1-4.1,4.1c-3.3,0-6,1-8.3,3.5c-1.9,2-3.8,3.9-5.8,5.8
			C25.1,63.2,24,66,24,69.5c-0.1,6.2,1.2,12.7-2,18.6c0,0.3,0,0.6,0,0.9c0.5,2.5,2.2,3.3,4.5,3.2c1.9-0.1,2.9,0.7,3.6,2.6
			c1.9,5.4,6.2,8.2,11.7,8.1c5.2-0.1,9.2-3.1,11-8.4c0.5-1.6,1.4-2.3,3.1-2.3c2.6,0,5.2,0.2,7.7,0c2.8-0.2,4.2,0.7,5.2,3.4
			c1.7,4.4,5.2,6.9,10,7.2c4.9,0.3,9.1-1.5,11-5.8c1.7-3.9,3.9-5.2,8-4.9c2.8,0.2,3.5-0.8,3.7-3.7C101.5,71.8,101.5,55.2,101.5,38.7
			z M41.2,96.4c-3-0.1-5.5-2.6-5.4-5.6c0.1-2.9,2.7-5.5,5.6-5.4c3.1,0,5.5,2.6,5.4,5.8C46.7,94.2,44.3,96.5,41.2,96.4z M45.4,69.3
			c-2.4,0-4.7,0-7.1,0c-2.1,0-4.1,0-6.2,0c-1.8,0-2.5-1-1.4-2.3c2.7-3,5.4-6.1,8.5-8.6C41,57,43.8,58,46.1,58c0.7,0,0.6,0.7,0.6,1.2
			c0,2.9,0,5.7,0,8.6C46.8,68.9,46.4,69.3,45.4,69.3z M79.6,96.4c-3.1,0-5.4-2.4-5.3-5.5c0-3,2.6-5.5,5.5-5.5s5.5,2.6,5.5,5.5
			C85.3,94,82.7,96.5,79.6,96.4z M90.7,61.6c0.1,1.6-0.6,2.1-2.1,2c-1.2-0.1-2.5,0-3.8,0c-5.2,0-5.2,0-5.2,5.3
			c0,6.4,0.8,5.7-5.8,5.7c-5.1,0-5.2,0.9-5.1-5.1c0-1.3-0.1-2.7,0-4c0.1-1.6-0.6-2-2-1.9c-2.3,0.1-4.6,0-6.9,0c-1.4,0-2-0.6-2-1.9
			c0-2.4,0-4.7,0-7.1c0-1.5,0.6-2.1,2.1-2.1c2.2,0.1,4.4-0.1,6.6,0.1c1.8,0.1,2.3-0.6,2.2-2.3c-0.1-2.1,0-4.1,0-6.2
			c0-1.8,0.6-2.7,2.6-2.6c2,0.1,4,0.1,6,0c1.7,0,2.4,0.6,2.4,2.3c-0.1,2.4,0,4.7,0,7.1c0,1.2,0.3,1.7,1.6,1.7c2.4-0.1,4.9,0,7.3,0
			c1.6-0.1,2.3,0.6,2.2,2.2C90.6,57.1,90.6,59.4,90.7,61.6z"/>
		<g>
			<path class="st7" d="M57.9,91.4c8.6-0.5,16.6-2.8,23.7-7.6c10.7-7.3,16.1-17.1,13.2-30.5c9.5,4.2,18.6,17.8,9.4,30.7
				c-2.1,2.9-4.6,5.3-7.7,7.1c-1.5,0.9-1.4,1.7-0.7,3c1.3,2.3,3,4.3,4.8,6.2c0.7,0.7,1.4,1.5,0.9,2.6s-1.6,0.9-2.6,0.8
				c-4.7-0.6-9.1-2.1-13-4.6c-2.9-1.9-5.7-1.9-9-1.6c-8.9,0.7-17.4-0.6-25.1-5.6C53.8,91.1,55.9,92,57.9,91.4z"/>
			<path class="st8" d="M57.9,91.4c-2,0.9-4,0.2-6,0.5c-0.1,0-0.2,0-0.2-0.1c-0.2-0.1-0.4-0.4-0.1-0.4
				C53.6,91.4,55.7,91.4,57.9,91.4z"/>
			<path class="st7" d="M88.4,54.9c-1.9-6.8-6.6-11.4-12.6-14.7c-7.6-4.3-15.9-5.9-24.6-5C36.6,36.7,24.6,41.8,20,57.4
				c0,1.8,0,3.6,0,5.4c1.8,7.1,5.8,12.5,12,16.3c1.2,0.7,0.9,1.5,0.4,2.5c-1.3,2.4-3.2,4.4-5,6.4c-0.7,0.7-1.5,1.4-0.7,2.6
				c0.7,1.1,1.7,0.9,2.6,0.7c5.4-1,10.6-2.9,15.2-5.9c0.8-0.5,1.5-1,2.5-0.8c3.9,0.7,7.8,0.8,11.7,0.5c7.8-0.6,14.9-3,21.1-7.7
				C87.5,71.5,90.7,63.2,88.4,54.9z M77.4,71.4c-5.6,4.8-12.1,7-19.3,7.6c-4.1,0.3-8.2,0.2-12.2-0.8c-1.1-0.3-1.9,0.1-2.7,0.7
				c-1.1,0.8-2.1,1.7-3.6,2.1c1-3.9,1-3.8-2.6-6c-1.5-0.9-3.1-1.9-4.5-3c-8.3-6.6-8.3-17,0-23.7c5.1-4.1,11.1-6.3,17.5-6.9
				c8.1-0.8,16,0.3,23.2,4.5c2.2,1.3,4.2,2.8,5.9,4.8C84.8,57.5,84.1,65.6,77.4,71.4z"/>
		</g>
		<g>
			<path class="st7" d="M50.8,38.7C50.7,38.7,50.8,38.7,50.8,38.7L50.8,38.7z"/>
			<path class="st7" d="M99.7,98.8c-0.4-1.5-1.1-2.8-1.9-4.1c-7.5-11.8-14.9-23.6-22.4-35.3c-1-1.6-1.5-3.2-1.5-5.1
				c0.1-4.2,0.1-8.5,0-12.7c0-1.8,0.5-2.8,2.5-3.1c2.4-0.3,3.6-1.8,3.6-3.9c0-1.8-0.7-2.5-3.3-3.2c-8.7,0-17.5,0-26.2,0
				c-2.6,0.6-3.4,1.3-3.3,3.2c0,2,1.3,3.4,3.6,3.9c0.1,0,0.1,0,0.1,0s0,0,0.1,0c1.8,0.1,2.3,1.1,2.3,2.8c0,4-0.1,7.9,0,11.9
				c0.1,2.7-0.7,5-2.2,7.2C43.6,72,36.3,83.6,29,95.2c-0.9,1.4-1.5,2.8-1.8,4.4c-0.6,3.6,1.2,6.1,4.8,6.6c0.5,0.1,1-0.1,1.4,0.2
				c20,0,40,0,60,0c0.3-0.3,0.6-0.2,1-0.2C98.8,106,100.8,103.2,99.7,98.8z M46.6,81.4c-0.2-0.9,0.5-1.4,0.8-2
				c3.9-6.2,7.8-12.4,11.8-18.6c0.8-1.3,1.2-2.5,1.2-4.1c-0.1-5.7,0-11.4-0.1-17.1c0-1.4,0.2-2,1.8-1.9c4.5,0,4.5-0.1,4.5,4.4
				c0,5.1,0,10.1,0,15.2c0,1.1,0.3,2,0.9,2.9c4,6.3,8,12.6,12,19c0.4,0.6,0.8,1.3,1.3,2.2C69.2,81.4,57.9,81.4,46.6,81.4z"/>
		</g>
		<g>
			<path class="st7" d="M106,98.8c-1.8,4.1-5.3,6.8-8.7,9.4c-2.1,1.6-5.2,1-7.3-1.1c-6-5.9-12-11.9-17.9-17.9
				c-2.6-2.6-2.7-5.3-0.7-8.3c0.7-1,0.5-1.5-0.2-2.2c-3.6-3.5-7.2-7-10.7-10.7c-0.9-1-1.4-0.6-2.3,0.1c-2.3,2-3.8,4.8-6.8,6
				c-1,0.4-0.1,0.9,0.1,1.3c1.8,3.2,1,5.8-2.8,8.8c-2.8,2.2-5,2.1-7.6-0.5c-6.3-6.3-12.6-12.6-18.9-18.9c-2.7-2.8-2.8-5-0.2-8
				c0.3-0.4,0.7-0.7,1-1c3.3-3.1,5-3.2,8.9-0.5c0-1.7,0.9-2.7,2-3.8c5-5,10-10,15-15c1-1,1.8-2,3.5-1.9c-2.7-3.8-2.4-5.8,1.2-9.3
				c0.9-0.8,1.9-1.5,2.8-2.2c1.1,0,2.3,0,3.4,0c1.2,0.4,2.2,1.1,3.2,2.1c5.9,6,11.9,11.9,17.9,17.9c3.3,3.3,3.5,5.5,1.1,8.9
				c-2.9,4-6,4.9-10,2.9c-1.3,2.3-3.4,4-5.3,5.8c-1.2,1.2-1.3,2.2,0,3.4c3,2.9,5.9,5.9,8.9,8.9c1,1,1.8,1.2,3.2,0.5
				c2.9-1.5,5.9-1,8.2,1.2c5.9,5.9,11.8,11.8,17.8,17.7c1.2,1.2,1.9,2.6,1.7,4.3C106.1,97.4,106.3,98.1,106,98.8z"/>
		</g>
		<path class="st12" d="M106.3,49.4c-2.9,0.1-5.7-0.2-8.6,0.1s-5-0.6-6.6-3.1c-5.6-8.9-18.4-8.8-25.8-5.8c-0.9,0.4-1.7,0.6-2.7,0
			c-4.1-2.2-8.6-1.9-13-1.4c-4.9,0.6-8.2,4-11.3,7.4c-1.1,1.2-2.3,1.8-4.1,1.8c-4.6-0.1-9.2,0-13.8-0.1c-1.5,0-2.7,0.4-3.5,1.7
			c0,9.7,0,19.5,0,29.2c1.3,1.4,2.9,1.6,4.7,1.6c3.6-0.1,7.1,0,10.7-0.1c1.4,0,2.4,0.4,3.4,1.4c3.4,3.5,6.8,7,10.4,10.3
			c4.2,3.9,9,6.5,15,5.6c2-0.3,3.6-1.6,5.7-1.6c2.3,0,4.3-0.9,5.9-2.4c1.2-1.1,2.6-1.7,3.9-2.5c3.7-2.3,7.1-5,11-7
			c0.8-0.4,1.5-1.3,1.9-2.1c0.7-1.6,1.9-1.7,3.4-1.7c4.4,0.1,8.9,0,13.3,0.1c1.8,0,3.4-0.2,4.7-1.6c0-9.4,0-18.8,0-28.2
			C109.7,49.6,108.1,49.3,106.3,49.4z M24.9,75.6c-1.7,0-2.6-0.9-2.6-2.5c0-1.8,0.9-2.7,2.7-2.7c1.7,0,2.4,1,2.5,2.7
			C27.4,74.6,26.6,75.6,24.9,75.6z M80.5,82.2c-1.4,0-1.8,0.5-2.4,1.5c-1.3,2.8-4.6,2.8-6.6,4.4c-2.2,1.8-3.8,3.9-7,3.4
			c-0.5-0.1-0.8,0-1.2,0.2c-4.9,3.2-9,1.1-12.7-2.1c-4.3-3.8-8.3-7.9-12.4-12c-1.2-1.1-2.4-2.1-4.1-2c-1.3,0.1-1.6-0.6-1.6-1.7
			c0.1-3.2,0-6.4,0-9.7c0-3,0.1-6.1,0-9.1c0-1.5,0.4-2.2,1.9-1.9c3.5,0.7,6.1-0.8,8-3.6c3.7-5.2,9-6.1,14.8-5.4
			c0.9,0.1,1.9,0.1,2.3,0.9c0.4,0.8-0.7,1.3-1.2,1.9c-1.6,2-3.2,3.9-4.9,5.8c-4.2,4.9-4.1,10.4,0.3,14.6c4.2,4,10.8,4,15.1-0.2
			c1.7-1.6,3.2-3.4,4.7-5.2c0.8-1,1.3-1,2.2,0c3.4,3.6,6.4,7.6,9.3,11.6C87.8,77.4,85.3,82.1,80.5,82.2z M95.3,65.1c0,3,0,5.9,0,8.9
			c0,0.8,0,1.7-1.1,1.5c-1-0.1-2.4,0.8-3-0.7c-2.3-6.5-7.3-11-11.5-16.2c-0.6-0.8-1.6-1.3-1.6-2.6c0.1-1.2-0.5-2-1.6-2.4
			c-1.2-0.4-2.2,0.1-3,1c-2.5,2.8-5.1,5.7-7.7,8.5c-2.3,2.4-5.5,2.7-8,0.9c-2.3-1.7-3-4.6-1.2-6.8c3-3.8,6.3-7.4,9.5-11.1
			c0.1-0.1,0.3-0.2,0.4-0.3c3.6-2.8,15-2.2,18.2,1c1.8,1.8,3.5,3.8,5.2,5.8c1.1,1.3,2.2,2.4,4.1,2.1c1.2-0.2,1.4,0.6,1.4,1.6
			C95.3,59.2,95.3,62.2,95.3,65.1z M103.1,75.6c-1.7,0-2.5-0.9-2.5-2.6s0.8-2.6,2.3-2.6c1.9,0,2.8,0.8,2.9,2.5
			C105.8,74.6,105,75.6,103.1,75.6z"/>
		<g>
			<path class="st9" d="M34.1,105c0-0.1,0-0.2,0-0.4c20.1,0,40.1,0,60.2,0c0,0.1-0.1,0.2-0.1,0.3C74.1,105,54.1,105,34.1,105z"/>
			<path class="st7" d="M92.9,98.9c-1.7-0.2-2.2-1-2.3-2.6c-0.2-3.1-0.6-6.1-1.6-9c-2.1-6.5-5.4-12.3-10.6-16.8
				c-1.5-1.3-1.5-1.9-0.2-3.1c7.5-6.7,11.5-15.2,12.4-25.1c0.3-2.8,0.2-2.8,2.8-3.3c1.4-0.3,2.2-1.1,2.3-2.6c0.1-1.4,0.4-3-1.6-3.5
				c-20,0-40,0-60,0c-1.9,0.7-1.8,2.2-1.6,3.8c0.2,1.5,1.2,2.2,2.6,2.3c1.8,0,2.4,0.9,2.5,2.6c0.9,10.1,4.7,18.9,12.5,25.7
				c1.2,1.1,1.1,1.9-0.1,3c-2.5,2.3-4.8,4.8-6.6,7.7c-3.3,5.4-5.2,11.2-5.7,17.5C37.5,97.6,37,99,34.5,99c-1.6,0-2.2,1.5-2.1,3.5
				c0,1.6,0.8,2.3,2.4,2.2c19.6,0,39.2,0,58.8,0c0.9,0,1.7-0.1,2.1-1.1C96.6,101.3,95.5,99.2,92.9,98.9z M45.9,43.2
				c-2.3,0-2.2,0-2.3-3.4c-0.1-1.9,1.1-1.6,2.2-1.6c12.3,0,24.7,0,37,0c1.9,0,2.3,0.7,2,2.3c-0.6,3,0.3,2.7-3.1,2.8
				c-5.9,0-11.7,0-17.6,0C58.1,43.2,52,43.2,45.9,43.2z M80.4,99.8c-5.4,0-10.8,0-16.2,0c-6.3,0-12.7,0-19,0c-0.9,0-1.7,0-1.6-1.3
				c0.4-10.2,4-18.9,12.4-25.2c1.8-1.4,3.8-2.2,6.1-1.9c0.9,0.1,1.7,0.1,2.6,0c4.3-0.7,7.4,1.3,10.3,4.1c5.7,5.4,8.7,12.2,9.5,19.9
				C84.9,99.8,84.8,99.8,80.4,99.8z"/>
		</g>
		<g id="XMLID_1_">
			<g class="st2">
				
					<rect x="57.4" y="81.3" transform="matrix(0.7071 -0.7071 0.7071 0.7071 -41.2597 64.915)" class="st14" width="0.7" height="2"/>
				
					<rect x="53.4" y="77.3" transform="matrix(0.7071 -0.7071 0.7071 0.7071 -39.6029 60.915)" class="st14" width="0.7" height="2"/>
				<polygon class="st14" points="55.7,77 60.9,71.8 61.2,72.2 54.6,78.8 53.2,77.4 54.6,75.9 				"/>
				
					<rect x="58.3" y="77.1" transform="matrix(0.7071 -0.7071 0.7071 0.7071 -37.0598 66.692)" class="st14" width="7.3" height="2"/>
				
					<rect x="49.4" y="73.3" transform="matrix(0.7071 -0.7071 0.7071 0.7071 -37.946 56.9151)" class="st14" width="0.7" height="2"/>
				
					<rect x="61.4" y="85.3" transform="matrix(0.7071 -0.7071 0.7071 0.7071 -42.9166 68.9149)" class="st14" width="0.7" height="2"/>
				
					<rect x="52.6" y="71" transform="matrix(0.7071 -0.7071 0.7071 0.7071 -34.6988 60.992)" class="st12" width="7.3" height="2.8"/>
				<polygon class="st12" points="61.2,72.2 60.9,71.8 62.1,70.7 63.5,72.1 57.1,78.4 58.6,79.9 57.2,81.4 54.6,78.8 				"/>
				<polygon class="st12" points="57.2,68.2 56.4,67.4 57.6,66.2 59,67.6 57.8,68.8 52.7,74 54.6,75.9 53.2,77.4 50.6,74.8 				"/>
				
					<rect x="57.6" y="80.4" transform="matrix(0.7071 -0.7071 0.7071 0.7071 -40.3951 65.3063)" class="st14" width="2" height="2"/>
				
					<rect x="62.3" y="81.1" transform="matrix(0.7064 -0.7078 0.7078 0.7064 -38.7279 70.7929)" class="st14" width="7.3" height="2"/>
				<polygon class="st12" points="64.2,46.8 96.3,78.9 89.8,85.4 95.4,91 101.8,84.7 105.6,88.4 85.1,108.9 81.3,105.2 87.7,98.8 
					82,93.1 75.5,99.7 62.6,86.8 64.1,85.4 64.7,86 71,79.6 72.4,81 66.1,87.4 75.5,96.8 93.5,78.9 64.2,49.6 46.3,67.6 50.6,71.9 
					49.2,73.4 43.5,67.6 53.2,57.9 31.5,34.8 54.5,56.5 				"/>
				
					<rect x="54.1" y="73.1" transform="matrix(0.7064 -0.7078 0.7078 0.7064 -35.3408 62.5472)" class="st14" width="7.3" height="1.5"/>
				<polygon class="st14" points="57.2,68.2 50.6,74.8 49.2,73.4 50.6,71.9 51.2,72.6 56.4,67.4 				"/>
				<polygon class="st12" points="68,76.6 61.6,82.9 62.6,84 61.2,85.4 58.6,82.8 60,81.4 60.2,81.5 66.6,75.1 				"/>
				<polygon class="st12" points="69.2,80.2 67.8,78.8 62.6,84 61.6,82.9 68,76.6 66.6,75.1 60.2,81.5 60,81.4 65.2,76.2 63.8,74.8 
					58.6,79.9 57.1,78.4 63.5,72.1 62.1,70.7 60.9,71.8 59.8,70.8 57.8,68.8 59,67.6 57.6,66.2 56.4,67.4 55.8,66.8 50.6,71.9 
					46.3,67.6 64.2,49.6 93.5,78.9 75.5,96.8 66.1,87.4 72.4,81 71,79.6 64.7,86 64.1,85.4 				"/>
				
					<rect x="49.9" y="69.2" transform="matrix(0.7078 -0.7064 0.7064 0.7078 -33.5363 58.1347)" class="st14" width="7.3" height="0.8"/>
				<polygon class="st14" points="64.1,85.4 62.6,86.8 61.2,85.4 62.6,84 				"/>
			</g>
		</g>
		<g>
			<path class="st1" d="M83.1,79.4l-14.4,26.2h19.6v-16C88.3,85.4,86.3,81.7,83.1,79.4z"/>
			<path class="st1" d="M43.9,79.4c-3.1,2.3-5.2,6-5.2,10.2v16h19.6L43.9,79.4z"/>
			<g class="st2">
				<circle class="st3" cx="63.5" cy="48.5" r="1.7"/>
				<path class="st4" d="M63.5,42.9c2.9,0,5.2,2.1,5.6,4.9H78c-1-7.4-4.9-10.6-14.5-10.6S50,40.5,49,47.8h8.9
					C58.3,45,60.6,42.9,63.5,42.9z"/>
				<path class="st4" d="M63.5,43.6c-2.7,0-4.8,2.2-4.8,4.8c0,2.7,2.2,4.8,4.8,4.8c2.7,0,4.8-2.2,4.8-4.8S66.2,43.6,63.5,43.6z
					 M63.5,50.1c-0.9,0-1.7-0.7-1.7-1.7c0-0.9,0.7-1.7,1.7-1.7c0.9,0,1.7,0.7,1.7,1.7C65.2,49.4,64.4,50.1,63.5,50.1z"/>
				<path class="st4" d="M78.7,53.8c-0.1,0-0.3,0-0.5,0c0-0.5,0-0.9,0-1.4c0-1.1,0-2.2-0.1-3.2H69c-0.4,2.8-2.7,4.9-5.6,4.9
					s-5.2-2.1-5.6-4.9h-9.1c-0.1,1-0.1,2.1-0.1,3.2c0,0.5,0,0.9,0,1.4c-0.2,0-0.3-0.1-0.5,0c-0.9,0.3-1.1,2.5-0.3,4.9
					c0.7,2.4,2,4.1,3,3.9c2.6,5.5,7.3,9.2,12.6,9.2s10-3.7,12.6-9.2c0.9,0.2,2.2-1.5,3-3.9C79.8,56.3,79.7,54.1,78.7,53.8z"/>
			</g>
			<g class="st2">
				<path class="st4" d="M75.7,76.9h-4.1v3.7v0.6v7.4c0,1.1-0.9,2-2,2H57.5c-1.1,0-2-0.9-2-2v-7.4v-0.6v-3.7h-4.1
					c-2,0-3.9,0.5-5.6,1.3l15.1,27.3h5.3l15.1-27.3C79.5,77.4,77.7,76.9,75.7,76.9z"/>
				<path class="st4" d="M56.4,79c0.3-0.2,0.7-0.3,1.1-0.3h12.1c0.4,0,0.8,0.1,1.1,0.3v-2h-2v-4.5c-1.6,0.8-3.3,1.2-5.1,1.2
					c-1.8,0-3.5-0.4-5.1-1.2V77h-2L56.4,79L56.4,79z"/>
			</g>
			<g class="st2">
				<path class="st4" d="M20.2,60.5c-2,1.4-3.2,3.8-3.2,6.4v10h12.3L20.2,60.5z"/>
				<g>
					<circle class="st3" cx="32.6" cy="41.1" r="1"/>
					<path class="st4" d="M32.6,37.6c1.8,0,3.3,1.3,3.5,3.1h5.6C41.1,36,38.6,34,32.6,34c-6.1,0-8.5,2.1-9.1,6.7H29
						C29.3,38.9,30.8,37.6,32.6,37.6z"/>
					<path class="st4" d="M32.6,38c-1.7,0-3,1.4-3,3c0,1.7,1.4,3,3,3c1.7,0,3-1.4,3-3S34.2,38,32.6,38z M32.6,42.1c-0.6,0-1-0.5-1-1
						c0-0.6,0.5-1,1-1c0.6,0,1,0.5,1,1C33.6,41.7,33.1,42.1,32.6,42.1z"/>
					<path class="st4" d="M42.1,44.4c-0.1,0-0.2,0-0.3,0c0-0.3,0-0.6,0-0.9c0-0.7,0-1.4-0.1-2H36c-0.2,1.7-1.7,3.1-3.5,3.1
						s-3.3-1.3-3.5-3.1h-5.7c-0.1,0.6-0.1,1.3-0.1,2c0,0.3,0,0.6,0,0.9c-0.1,0-0.2,0-0.3,0c-0.6,0.2-0.7,1.6-0.2,3.1
						s1.3,2.6,1.9,2.4c1.6,3.5,4.6,5.8,7.9,5.8s6.3-2.3,7.9-5.8c0.6,0.1,1.4-0.9,1.9-2.4C42.8,46,42.7,44.6,42.1,44.4z"/>
				</g>
				<g>
					<path class="st4" d="M40.2,58.9h-2.6v2.3v0.4v4.6c0,0.7-0.6,1.3-1.3,1.3h-7.6c-0.7,0-1.3-0.6-1.3-1.3v-4.6v-0.4v-2.3h-2.6
						c-1.3,0-2.4,0.3-3.5,0.8l9.5,17.1h3.3l9.5-17.1C42.6,59.2,41.4,58.9,40.2,58.9z"/>
					<path class="st4" d="M28.1,60.2c0.2-0.1,0.4-0.2,0.7-0.2h7.6c0.3,0,0.5,0.1,0.7,0.2v-1.3h-1.3v-2.8c-1,0.5-2.1,0.7-3.2,0.7
						c-1.1,0-2.2-0.3-3.2-0.7v2.8h-1.3L28.1,60.2z"/>
				</g>
			</g>
			<g class="st2">
				<path class="st4" d="M107.8,60.5l-9.1,16.4H111v-10C111.1,64.3,109.8,61.9,107.8,60.5z"/>
				<g>
					<circle class="st3" cx="95.5" cy="41.1" r="1"/>
					<path class="st4" d="M95.5,37.6c1.8,0,3.3,1.3,3.5,3.1h5.6c-0.6-4.7-3-6.7-9.1-6.7s-8.5,2.1-9.1,6.7H92
						C92.2,38.9,93.7,37.6,95.5,37.6z"/>
					<path class="st4" d="M95.5,38c-1.7,0-3,1.4-3,3c0,1.7,1.4,3,3,3c1.7,0,3-1.4,3-3S97.2,38,95.5,38z M95.5,42.1c-0.6,0-1-0.5-1-1
						c0-0.6,0.5-1,1-1c0.6,0,1,0.5,1,1C96.6,41.7,96.1,42.1,95.5,42.1z"/>
					<path class="st4" d="M105.1,44.4c-0.1,0-0.2,0-0.3,0c0-0.3,0-0.6,0-0.9c0-0.7,0-1.4-0.1-2H99c-0.2,1.7-1.7,3.1-3.5,3.1
						s-3.3-1.3-3.5-3.1h-5.7c-0.1,0.6-0.1,1.3-0.1,2c0,0.3,0,0.6,0,0.9c-0.1,0-0.2,0-0.3,0c-0.6,0.2-0.7,1.6-0.2,3.1
						s1.3,2.6,1.9,2.4c1.6,3.5,4.6,5.8,7.9,5.8s6.3-2.3,7.9-5.8c0.6,0.1,1.4-0.9,1.9-2.4C105.8,46,105.7,44.6,105.1,44.4z"/>
				</g>
				<g>
					<path class="st4" d="M103.1,58.9h-2.6v2.3v0.4v4.6c0,0.7-0.6,1.3-1.3,1.3h-7.6c-0.7,0-1.3-0.6-1.3-1.3v-4.6v-0.4v-2.3h-2.6
						c-1.3,0-2.4,0.3-3.5,0.8l9.5,17.1H97l9.5-17.1C105.6,59.2,104.4,58.9,103.1,58.9z"/>
					<path class="st4" d="M91,60.2c0.2-0.1,0.4-0.2,0.7-0.2h7.6c0.3,0,0.5,0.1,0.7,0.2v-1.3h-1.3v-2.8c-1,0.5-2.1,0.7-3.2,0.7
						s-2.2-0.3-3.2-0.7v2.8H91V60.2z"/>
				</g>
			</g>
		</g>
		<g>
			<path class="st7" d="M92.9,61.9c3.4-10.4,8.5-26.1-2.8-33.2c-3.9-2.4-7.6-3.6-11.5-3.6c-4.2,0-7.5,1.4-10,2.5
				c-1.1,0.5-2.5,1.1-3.1,1.1s-2-0.6-3.1-1.1c-2.5-1.1-5.9-2.5-10-2.5c-3.9,0-7.6,1.2-11.5,3.6c-11.3,7.1-6.2,22.8-2.8,33.2
				c1.1,3.2,2,6.3,2.2,7.9c0.3,2.9,0,6.6-0.3,10.5c-0.5,6.2-1,12.6,0.5,18c2.5,9.2,10.5,15.8,10.8,16.1c0.7,0.6,1.6,0.9,2.6,1
				c0.1,0,0.2,0,0.2,0c2.4,0,4.4-2,4.4-4.4c0-0.4-0.1-0.8-0.2-1.1c-0.4-2.2-2.3-14.6,0.6-22.5c2.1-5.9,5.3-9,6.6-9.8
				c1.4,0.8,4.5,3.9,6.6,9.8c3.1,8.7,0.6,22.7,0.5,22.8c-0.3,1.8,0.5,3.6,2.1,4.6c0.7,0.4,1.5,0.6,2.2,0.6c1,0,2-0.3,2.8-1
				c0.3-0.3,8.3-6.9,10.8-16.1c1.5-5.4,1-11.8,0.5-18.1c-0.3-3.9-0.6-7.6-0.3-10.5C90.9,68.2,91.9,65.1,92.9,61.9z"/>
			<line class="st11" x1="65.9" y1="38.6" x2="65.9" y2="58.7"/>
			<line class="st11" x1="76.4" y1="48.6" x2="56.3" y2="48.6"/>
		</g>
		<path class="st12" d="M93.3,40c-10.7-10.7-28-10.7-38.7,0c-9.4,9.4-10.5,24-3.3,34.7L29.2,96.8c-2,2-2,5.3,0,7.3s5.3,2,7.3,0
			L58.6,82c10.7,7.2,25.3,6.1,34.7-3.3C104,68.1,104,50.7,93.3,40z M88.3,73.7c-7.9,7.9-20.8,7.9-28.7,0s-7.9-20.8,0-28.7
			s20.8-7.9,28.7,0C96.2,53,96.2,65.8,88.3,73.7z"/>
		<g>
			<g class="st2">
				<path class="st12" d="M78.3,75H67.9c-0.4,0-0.7,0.3-0.7,0.7v38.9c0,0.4,0.3,0.7,0.7,0.7h10.4c0.4,0,0.7-0.3,0.7-0.7V75.7
					C79,75.3,78.7,75,78.3,75z"/>
				<path class="st12" d="M78.3,68.9H68c-0.4,0-0.7,0.3-0.7,0.7v3.7c0,0.4,0.3,0.7,0.7,0.7h10.3c0.4,0,0.7-0.3,0.7-0.7v-3.7
					C78.9,69.1,78.6,68.9,78.3,68.9z"/>
				<path class="st12" d="M78.9,63.4c0-0.4-0.3-0.7-0.7-0.7H68c-0.4,0-0.7,0.3-0.7,0.7v3.7c0,0.4,0.3,0.7,0.7,0.7h10.3
					c0.4,0,0.7-0.3,0.7-0.7L78.9,63.4L78.9,63.4z"/>
				<path class="st12" d="M71.5,37.6v23c0,0.4,0.3,0.7,0.7,0.7h2c0.4,0,0.7-0.3,0.7-0.7v-23c3.6-0.8,6.3-4,6.3-7.8c0-4.4-3.6-8-8-8
					s-8,3.6-8,8C65.2,33.6,67.8,36.8,71.5,37.6z"/>
				<path class="st12" d="M57,75H46.7c-0.4,0-0.7,0.3-0.7,0.7v38.9c0,0.4,0.3,0.7,0.7,0.7H57c0.4,0,0.7-0.3,0.7-0.7V75.7
					C57.7,75.3,57.4,75,57,75z"/>
				<path class="st12" d="M46.7,73.8H57c0.4,0,0.7-0.3,0.7-0.7v-3.7c0-0.4-0.3-0.7-0.7-0.7H46.7c-0.4,0-0.7,0.3-0.7,0.7v3.7
					C46.1,73.5,46.4,73.8,46.7,73.8z"/>
				<path class="st12" d="M46.7,67.8H57c0.4,0,0.7-0.3,0.7-0.7v-3.7c0-0.4-0.3-0.7-0.7-0.7H46.7c-0.4,0-0.7,0.3-0.7,0.7v3.7
					C46.1,67.5,46.4,67.8,46.7,67.8z"/>
				<path class="st12" d="M51,23.6c-0.3-0.3-0.7-0.3-0.9,0l-1.6,1.6c-0.1,0.1-0.2,0.3-0.2,0.5s0.1,0.3,0.2,0.5l5.3,5.3l-3.4,3.4
					c-0.1,0.1-0.2,0.3-0.2,0.5v26.1c0,0.4,0.3,0.7,0.7,0.7h2.3c0.4,0,0.7-0.3,0.7-0.7v-25l4.6-4.6c0.3-0.3,0.3-0.7,0-0.9L51,23.6z"
					/>
			</g>
			<g class="st2">
				<g>
					<circle class="st14" cx="73.1" cy="29.8" r="5.4"/>
				</g>
			</g>
		</g>
		<g class="st2">
			<path class="st3" d="M62.2,96.3c0.1-0.1,0.2-0.2,0.3-0.3C62.4,96.2,62.3,96.3,62.2,96.3z"/>
			<path class="st3" d="M62.6,85.3L62.6,85.3L62.6,85.3z"/>
			<path class="st3" d="M62.6,78.4L62.6,78.4L62.6,78.4z"/>
			<path class="st3" d="M63.3,94.8C63.3,94.8,63.3,94.9,63.3,94.8C63.2,94.9,63.3,94.9,63.3,94.8z"/>
			<path class="st3" d="M62.9,85.4C63,85.4,63,85.4,62.9,85.4C63,85.4,63,85.4,62.9,85.4z"/>
			<path class="st3" d="M63.1,95.1c0,0.1-0.1,0.1-0.1,0.2C63.1,95.2,63.1,95.2,63.1,95.1z"/>
			<path class="st3" d="M63.4,94.5L63.4,94.5L63.4,94.5z"/>
			<path class="st3" d="M62.9,95.5c0,0.1-0.1,0.1-0.1,0.2C62.8,95.6,62.9,95.5,62.9,95.5z"/>
			<path class="st3" d="M63.2,85.6L63.2,85.6L63.2,85.6z"/>
			<path class="st3" d="M62.9,88.2c0,0.1-0.1,0.1-0.1,0.2C62.8,88.3,62.9,88.2,62.9,88.2z"/>
			<path class="st3" d="M63.1,87.9c0,0.1-0.1,0.1-0.1,0.2C63.1,88,63.1,87.9,63.1,87.9z"/>
			<path class="st3" d="M62.7,88.5c-0.1,0.1-0.1,0.1-0.2,0.2C62.6,88.6,62.6,88.5,62.7,88.5z"/>
			<path class="st3" d="M62.4,88.8c-0.1,0.1-0.2,0.2-0.3,0.3C62.3,88.9,62.4,88.8,62.4,88.8z"/>
			<path class="st3" d="M63.3,87.6C63.3,87.6,63.3,87.7,63.3,87.6C63.3,87.7,63.3,87.6,63.3,87.6z"/>
			<path class="st3" d="M63.5,87C63.5,87.1,63.5,87.1,63.5,87C63.5,87.1,63.5,87.1,63.5,87z"/>
			<path class="st3" d="M63.4,85.8L63.4,85.8L63.4,85.8z"/>
			<path class="st3" d="M63.4,87.3L63.4,87.3L63.4,87.3z"/>
			<path class="st3" d="M62.7,95.8c-0.1,0.1-0.1,0.1-0.2,0.2C62.6,95.9,62.6,95.8,62.7,95.8z"/>
			<path class="st3" d="M62.2,101.7L62.2,101.7L62.2,101.7z"/>
			<path class="st3" d="M62,100.3C62,100.3,62.1,100.3,62,100.3C62.1,100.3,62,100.3,62,100.3z"/>
			<path class="st3" d="M62.1,102L62.1,102C62.1,102,62.1,102,62.1,102z"/>
			<path class="st3" d="M61.8,100.1C61.9,100.1,61.9,100.1,61.8,100.1C61.9,100.1,61.9,100.1,61.8,100.1z"/>
			<path class="st3" d="M61.3,99.8L61.3,99.8L61.3,99.8z"/>
			<path class="st3" d="M63.5,94.2C63.5,94.2,63.5,94.3,63.5,94.2C63.5,94.3,63.5,94.2,63.5,94.2z"/>
			<path class="st3" d="M61.9,102.3C61.9,102.3,61.9,102.4,61.9,102.3C61.9,102.4,61.9,102.3,61.9,102.3z"/>
			<path class="st3" d="M61.6,99.9L61.6,99.9L61.6,99.9z"/>
			<path class="st3" d="M63.2,92.6L63.2,92.6L63.2,92.6z"/>
			<path class="st3" d="M62.9,92.4C63,92.4,63,92.5,62.9,92.4C63,92.5,63,92.4,62.9,92.4z"/>
			<path class="st3" d="M63.4,92.9L63.4,92.9L63.4,92.9z"/>
			<path class="st3" d="M62.6,92.3L62.6,92.3L62.6,92.3z"/>
			<path class="st3" d="M60.8,103.8c0.1-0.1,0.2-0.2,0.3-0.3C61,103.6,60.9,103.7,60.8,103.8z"/>
			<path class="st3" d="M61.6,102.9c0,0.1-0.1,0.1-0.1,0.2C61.5,103,61.5,103,61.6,102.9z"/>
			<path class="st3" d="M61.4,103.2c-0.1,0.1-0.1,0.1-0.2,0.2C61.2,103.4,61.3,103.3,61.4,103.2z"/>
			<path class="st3" d="M61.8,102.6c0,0.1-0.1,0.1-0.1,0.2C61.7,102.7,61.7,102.7,61.8,102.6z"/>
			<path class="st3" d="M82.1,76.6L82.1,76.6C82.1,76.7,82.2,76.7,82.1,76.6L82.1,76.6z"/>
			<path class="st3" d="M86.6,83.9c0.3,0.2,0.6,0.4,0.9,0.6C87.2,84.3,86.9,84.1,86.6,83.9z"/>
			<path class="st3" d="M87.6,84.6c0.3,0.2,0.6,0.4,0.8,0.5C88.2,85,87.9,84.8,87.6,84.6z"/>
			<path class="st3" d="M62.9,78.5C63,78.5,63,78.5,62.9,78.5C63,78.5,63,78.5,62.9,78.5z"/>
			<path class="st3" d="M88.7,85.3c0.3,0.2,0.6,0.4,0.8,0.5C89.2,85.7,88.9,85.5,88.7,85.3z"/>
			<path class="st3" d="M62.4,81.9c-0.1,0.1-0.2,0.2-0.3,0.3C62.3,82,62.4,81.9,62.4,81.9z"/>
			<path class="st3" d="M93.2,87.9c0.2,0.1,0.4,0.2,0.6,0.3C93.6,88.2,93.4,88.1,93.2,87.9z"/>
			<path class="st3" d="M92.4,87.5c0.2,0.1,0.5,0.2,0.7,0.4C92.9,87.8,92.6,87.7,92.4,87.5z"/>
			<path class="st3" d="M81.2,80c0,0.1,2.5,2,5.3,3.9c-2.3-1.5-4.3-3-5-3.6C81.3,80.1,81.2,80,81.2,80z"/>
			<path class="st3" d="M89.7,85.9c0.3,0.2,0.6,0.3,0.8,0.5C90.2,86.3,89.9,86.1,89.7,85.9z"/>
			<path class="st3" d="M90.6,86.5c0.3,0.2,0.5,0.3,0.8,0.5C91.1,86.8,90.9,86.7,90.6,86.5z"/>
			<path class="st3" d="M91.5,87c0.3,0.1,0.5,0.3,0.7,0.4C92,87.3,91.8,87.2,91.5,87z"/>
			<path class="st3" d="M63.4,78.9L63.4,78.9L63.4,78.9z"/>
			<path class="st3" d="M63.5,80.1C63.5,80.2,63.5,80.2,63.5,80.1C63.5,80.2,63.5,80.2,63.5,80.1z"/>
			<path class="st3" d="M93.9,88.3c0.2,0.1,0.4,0.2,0.6,0.2C94.3,88.4,94.1,88.3,93.9,88.3z"/>
			<path class="st3" d="M62.7,81.6c-0.1,0.1-0.1,0.1-0.2,0.2C62.6,81.7,62.6,81.6,62.7,81.6z"/>
			<path class="st3" d="M63.4,80.4L63.4,80.4L63.4,80.4z"/>
			<path class="st3" d="M63.2,78.7L63.2,78.7L63.2,78.7z"/>
			<path class="st3" d="M63.1,81c0,0.1-0.1,0.1-0.1,0.2C63.1,81.1,63.1,81,63.1,81z"/>
			<path class="st3" d="M62.9,81.3c0,0.1-0.1,0.1-0.1,0.2C62.8,81.4,62.9,81.3,62.9,81.3z"/>
			<path class="st3" d="M63.3,80.7C63.3,80.7,63.3,80.8,63.3,80.7C63.3,80.8,63.3,80.7,63.3,80.7z"/>
			<path class="st12" d="M94.4,88.5c-0.2-0.1-0.4-0.1-0.6-0.2c0,0,0,0-0.1,0c-0.2-0.1-0.4-0.2-0.6-0.3c0,0-0.1,0-0.1-0.1
				c-0.2-0.1-0.4-0.2-0.7-0.4c0,0-0.1-0.1-0.2-0.1c-0.2-0.1-0.5-0.3-0.7-0.4l-0.1-0.1c-0.3-0.1-0.5-0.3-0.8-0.5c0,0-0.1,0-0.1-0.1
				c-0.3-0.2-0.5-0.3-0.8-0.5c-0.1,0-0.1-0.1-0.2-0.1c-0.3-0.2-0.6-0.3-0.8-0.5c-0.1,0-0.1-0.1-0.2-0.1c-0.3-0.2-0.6-0.4-0.8-0.5
				c-0.1,0-0.1-0.1-0.2-0.1c-0.3-0.2-0.6-0.4-0.9-0.6c0,0,0,0-0.1,0c-2.9-1.9-5.3-3.8-5.3-3.9c0,0-2.6-0.9-2.6-3.7
				c0-2.8,1.2-4.1,2-6.8c0,0-0.9,5.1,0,6.3c0.3,0.4,0.9,0.6,1.5,0.9c0,0,0,0,0-0.1c0-0.3,1.8-2.3,7.6-0.7c5.8,1.6,8,1.5,10.4,1.3
				c-0.9-1.2-1-2.6-1.8-5.2s-1.8-1-2.9-2.5c-1.1-1.6,1.3-6.8,3.3-8.3c2.1-1.5,0.6-1.3-0.6-3s-1.3-3.3-0.4-5.2c0.9-2,0.5-4.9-2-10.9
				c-2.4-6-10-15.9-27.9-18.2s-34.8,6-36.6,23.7c-1.1,10.5,1.5,17.5,6.4,22.2c-2.8-3.4-2.4-9.6,4.7-6.3c7.6,3.6,3.8,7.9,12.2,13.9
				c3.5,0.3,5-1.1,5-3.4c-0.1-3.1,3.3-3.7,5-4.7c1.6-1.1-0.2,9,1,12.3c1.3,3.4,4.2,7.1,9.5,7.4s3.4,4.9,14,5.3
				c10.5,0.4,8.6-0.7,8.6-2.3c0-0.8-0.1-2.2-0.1-3.5C96.3,88.6,95.2,88.7,94.4,88.5z M93.5,50.1c1.4-0.2,3,0.2,3,2.4s-3.4,3.9-3,6.8
				c0.4,2.9,1.1,5.9-2.1,4.5c-2-0.9-5.2-3.7-4.6-7.7C87.3,52.8,89.5,50.7,93.5,50.1z M64.1,65c0.1,1.1,0.8,1-1.8,3.4
				c-2.7,2.4-7.6,2-9.6-1.7c-2.1-4,1.6-7,5.8-5.3s4.4,2.4,7.4,1.5C65.8,62.9,63.9,63.4,64.1,65z M52.7,46.4
				C49.1,35.3,60.1,32,64.1,31.6C76,30.7,87,36,89.3,41s-4.8,7.9-5.5,12.8c-0.6,4.9,2.3,6.4-8.4,6.7C64.6,60.7,56.3,57.6,52.7,46.4z
				 M72.6,70.2c-4.1,0.1-4.2-4.2-4.2-4.2c4.3-2.1,8.7-3.1,12.8-1.1c4.1,2,6.7,4.5,7.8,5.2c1.1,0.7,1.9-1.6,2.7-3.1
				c0.8-1.5,0.7-0.9-0.1,0.9c-0.8,1.9-1.5,3.9-3.6,2.5C84.9,68,82.2,65,78.8,65C75.3,64.9,76.3,70.1,72.6,70.2z"/>
			<path class="st19" d="M83,78.4L83,78.4L83,78.4L83,78.4z"/>
			<path class="st19" d="M82.9,78.5c0,0.1-0.1,0.1-0.2,0.2C82.8,78.6,82.9,78.5,82.9,78.5z"/>
			<path class="st5" d="M42.4,63.3c-7.1-3.3-7.5,2.9-4.7,6.3c3.4,3.2,8,5.4,13.4,6.9c1.4,0.4,2.6,0.6,3.6,0.7
				C46.2,71.2,50,66.9,42.4,63.3z"/>
			<path class="st5" d="M75.4,60.5c10.7-0.2,7.8-1.7,8.4-6.7c0.6-4.9,7.8-7.8,5.5-12.8S76,30.7,64.1,31.6c-4,0.3-14.9,3.7-11.4,14.8
				C56.3,57.6,64.6,60.7,75.4,60.5z"/>
			<path class="st5" d="M86.8,56.2c-0.6,4,2.6,6.9,4.6,7.7c3.3,1.4,2.5-1.6,2.1-4.5s2.9-4.6,3-6.8c0-2.2-1.6-2.6-3-2.4
				C89.5,50.7,87.3,52.8,86.8,56.2z"/>
			<path class="st5" d="M88.1,70.3c2,1.5,2.8-0.6,3.6-2.5c0.8-1.9,0.9-2.4,0.1-0.9s-1.6,3.8-2.7,3.1c-1.1-0.7-3.7-3.2-7.8-5.2
				c-4.1-2-8.5-1-12.8,1.1c0,0,0.1,4.3,4.2,4.2c3.7-0.1,2.8-5.3,6.2-5.2C82.2,65,84.9,68,88.1,70.3z"/>
			<path class="st5" d="M92.9,83.6c-1.8-1.3-8.4-3.1-11.4-3.3c0.7,0.6,2.7,2.1,5,3.6c0,0,0,0,0.1,0c0.3,0.2,0.6,0.4,0.9,0.6
				c0.1,0,0.1,0.1,0.2,0.1c0.3,0.2,0.6,0.4,0.8,0.5c0.1,0,0.1,0.1,0.2,0.1c0.3,0.2,0.6,0.4,0.8,0.5c0.1,0,0.1,0.1,0.2,0.1
				c0.3,0.2,0.6,0.3,0.8,0.5c0,0,0.1,0,0.1,0.1c0.3,0.2,0.5,0.3,0.8,0.5l0.1,0.1c0.3,0.1,0.5,0.3,0.7,0.4c0.1,0,0.1,0.1,0.2,0.1
				c0.2,0.1,0.5,0.2,0.7,0.4c0,0,0.1,0,0.1,0.1c0.2,0.1,0.4,0.2,0.6,0.3c0,0,0,0,0.1,0c0.2,0.1,0.4,0.2,0.6,0.2
				c0.8,0.2,1.9,0.1,3.1-0.2c0-1.4-0.1-2.7-0.1-2.7s0-0.1,0.1-0.2C96.4,85.9,94.8,84.9,92.9,83.6z"/>
			<path class="st5" d="M82.7,78.7c0.1,0,0.1-0.1,0.2-0.2c0,0,0,0,0-0.1l0,0c0.2-0.5-0.7-1.4-0.8-1.7l0,0c-0.7-0.2-1.3-0.5-1.5-0.9
				c-0.9-1.2,0-6.3,0-6.3c-0.8,2.7-2,4-2,6.8s2.6,3.7,2.6,3.7C81.2,79.7,81.8,79.1,82.7,78.7z"/>
			<path class="st5" d="M83,78.4L83,78.4L83,78.4C83,78.4,82.9,78.5,83,78.4c-0.1,0.1-0.2,0.2-0.2,0.2c-0.9,0.5-1.5,1.1-1.5,1.4
				c0,0,0.1,0.1,0.3,0.3c3,0.2,9.6,2,11.4,3.3s3.5,2.3,4.7,1.8c0.3-0.6,1-2.2,1.6-3.8C94.8,81.9,86.5,79.1,83,78.4z"/>
			<path class="st5" d="M89.7,75.9c-5.8-1.6-7.6,0.4-7.6,0.7c0,0,0,0,0,0.1c0.1,0.3,1,1.2,0.8,1.7l0,0l0,0
				c3.6,0.7,11.8,3.5,16.3,3.1c0.7-1.9,1.3-3.8,0.8-4.4C97.7,77.4,95.5,77.5,89.7,75.9z"/>
			<path class="st12" d="M62.5,81.8c0.1-0.1,0.1-0.1,0.2-0.2l0.1-0.1c0-0.1,0.1-0.1,0.1-0.2l0.1-0.1c0-0.1,0.1-0.1,0.1-0.2
				s0.1-0.1,0.1-0.2c0,0,0-0.1,0.1-0.1c0-0.1,0.1-0.1,0.1-0.2v-0.1c0-0.1,0.1-0.1,0.1-0.2c0,0,0,0,0-0.1c0.1-0.5,0.1-0.9-0.1-1.2
				l0,0c0-0.1-0.1-0.1-0.2-0.2l0,0c-0.1-0.1-0.1-0.1-0.2-0.2l0,0c-0.1,0-0.2-0.1-0.3-0.1l0,0c-0.1,0-0.2-0.1-0.4-0.1
				c-0.3-0.1-0.6-0.1-1-0.1c-3.5,0-6.3,1.1-7.3,2.8l0,0v3.1v0.3c0,0,1.8-0.5,3-1.8c1.3-1.4,1.3-1.2,2.4,0.1c1,1.4,1.2,0.7,2.8-0.6
				C62.3,82,62.4,81.9,62.5,81.8L62.5,81.8z"/>
			<path class="st5" d="M62.3,78.2L62.3,78.2C62.3,78.3,62.3,78.3,62.3,78.2c0,0.1,0.2,0.2,0.3,0.2l0,0c0.1,0,0.2,0.1,0.3,0.1l0,0
				c0.1,0,0.2,0.1,0.2,0.2l0,0c0.1,0.1,0.1,0.1,0.2,0.2l0,0c0.2,0.3,0.3,0.8,0.1,1.2c0,0,0,0,0,0.1s0,0.1-0.1,0.2v0.1
				c0,0.1-0.1,0.1-0.1,0.2c0,0,0,0.1-0.1,0.1c0,0.1-0.1,0.1-0.1,0.2s-0.1,0.1-0.1,0.2l-0.1,0.1c0,0.1-0.1,0.1-0.1,0.2l-0.1,0.1
				c-0.1,0.1-0.1,0.1-0.2,0.2l-0.1,0.1c-0.1,0.1-0.2,0.2-0.3,0.3c-0.1,0.1-0.2,0.2-0.3,0.3c0,0,0.9,1.9,2,2c1.1,0.1,1.1-3.3,1.1-5
				S63.9,76.9,62.3,78.2z"/>
			<path class="st5" d="M48.9,81.6c-1,0.9-0.4,1.9-1,2.6s0.1,2.6,0.8,3.8c0.7,1.2,1.5-1.3,2.3-2.6c0.6-0.9,2.1-1.2,3-1.3V81
				C52.3,81,49.7,80.8,48.9,81.6z"/>
			<path class="st12" d="M62.5,88.7c0.1-0.1,0.1-0.1,0.2-0.2l0.1-0.1c0-0.1,0.1-0.1,0.1-0.2l0.1-0.1c0-0.1,0.1-0.1,0.1-0.2
				s0.1-0.1,0.1-0.2c0,0,0-0.1,0.1-0.1c0-0.1,0.1-0.1,0.1-0.2v-0.1c0-0.1,0.1-0.1,0.1-0.2c0,0,0,0,0-0.1c0.1-0.5,0.1-0.9-0.1-1.2
				l0,0c0-0.1-0.1-0.1-0.2-0.2l0,0c-0.1-0.1-0.1-0.1-0.2-0.2l0,0c-0.1,0-0.2-0.1-0.3-0.1l0,0c-0.1,0-0.2-0.1-0.4-0.1
				c-0.3-0.1-0.6-0.1-1-0.1c-3.5,0-6.3,1.1-7.3,2.8l0,0V91v0.3c0,0,1.8-0.5,3-1.8c1.3-1.4,1.3-1.2,2.4,0.1c1,1.4,1.2,0.7,2.8-0.6
				C62.3,88.9,62.4,88.8,62.5,88.7L62.5,88.7z"/>
			<path class="st5" d="M62.3,85.1L62.3,85.1C62.3,85.2,62.3,85.2,62.3,85.1c0,0.1,0.2,0.2,0.3,0.2l0,0c0.1,0,0.2,0.1,0.3,0.1l0,0
				c0.1,0,0.2,0.1,0.2,0.2l0,0c0.1,0.1,0.1,0.1,0.2,0.2l0,0c0.2,0.3,0.3,0.8,0.1,1.2c0,0,0,0,0,0.1s0,0.1-0.1,0.2v0.1
				c0,0.1-0.1,0.1-0.1,0.2c0,0,0,0.1-0.1,0.1c0,0.1-0.1,0.1-0.1,0.2s-0.1,0.1-0.1,0.2l-0.1,0.1c0,0.1-0.1,0.1-0.1,0.2l-0.1,0.1
				c-0.1,0.1-0.1,0.1-0.2,0.2l-0.1,0.1c-0.1,0.1-0.2,0.2-0.3,0.3c-0.1,0.1-0.2,0.2-0.3,0.3c0,0,0.9,1.9,2,2c1.1,0.1,1.1-3.3,1.1-5
				C65,84.6,63.9,83.8,62.3,85.1z"/>
			<path class="st5" d="M50.1,88.6c-1,0.9-1.6,1.8-2.2,2.5c-0.6,0.7-1.5,3.7-0.8,4.9c0.7,1.2,1.5-1.7,4-3.7c0.8-0.7,2.1-1.2,3-1.3
				v-3.1C52.3,87.9,50.9,87.9,50.1,88.6z"/>
			<path class="st12" d="M62.5,96c0.1-0.1,0.1-0.1,0.2-0.2l0.1-0.1c0-0.1,0.1-0.1,0.1-0.2s0.1-0.1,0.1-0.2s0.1-0.1,0.1-0.2
				s0.1-0.1,0.1-0.2c0,0,0-0.1,0.1-0.1c0-0.1,0.1-0.1,0.1-0.2v-0.1c0-0.1,0.1-0.2,0.1-0.2s0,0,0-0.1c0.1-0.5,0.1-1-0.1-1.3l0,0
				c0-0.1-0.1-0.1-0.2-0.2l0,0c-0.1-0.1-0.1-0.1-0.2-0.2l0,0c-0.1-0.1-0.2-0.1-0.3-0.1l0,0c-0.1,0-0.2-0.1-0.4-0.1
				c-0.3-0.1-0.6-0.1-1-0.1c-3.5,0-6.3,1.1-7.3,3l0,0v3.4v0.3c0,0,1.8-0.5,3-2c1.3-1.5,1.3-1.3,2.4,0.1c1,1.5,1.2,0.8,2.8-0.7
				C62.3,96.2,62.4,96.1,62.5,96L62.5,96z"/>
			<path class="st5" d="M62.3,92.1L62.3,92.1L62.3,92.1c0,0.1,0.1,0.2,0.3,0.2l0,0c0.1,0,0.2,0.1,0.3,0.1l0,0
				c0.1,0.1,0.2,0.1,0.2,0.2l0,0c0.1,0.1,0.1,0.1,0.2,0.2l0,0c0.2,0.4,0.3,0.8,0.1,1.3c0,0,0,0,0,0.1s0,0.1-0.1,0.2v0.1
				c0,0.1-0.1,0.1-0.1,0.2c0,0,0,0.1-0.1,0.1c0,0.1-0.1,0.1-0.1,0.2s-0.1,0.1-0.1,0.2s-0.1,0.1-0.1,0.2s-0.1,0.1-0.1,0.2l-0.1,0.1
				c-0.1,0.1-0.1,0.1-0.2,0.2L62.3,96c-0.1,0.1-0.2,0.2-0.3,0.3c-0.1,0.1-0.2,0.2-0.3,0.3c0,0,0.9,2.1,2,2.2
				c1.1,0.1,1.1-3.5,1.1-5.4C65,91.6,63.9,90.7,62.3,92.1z"/>
			<path class="st5" d="M49.5,96.3c-1,0.9-1.3,1.4-1.7,2.3c-0.6,1.2-1.1,3.2-1.4,4.6c-0.4,1.4,3.7-1.9,4.6-3.4c0.6-1,2.1-1.3,3-1.4
				V95C52.3,95.1,50.4,95.5,49.5,96.3z"/>
			<path class="st12" d="M61.2,103.4c0.1-0.1,0.1-0.1,0.2-0.2l0.1-0.1c0-0.1,0.1-0.1,0.1-0.2s0.1-0.1,0.1-0.2s0.1-0.1,0.1-0.2
				s0.1-0.1,0.1-0.2c0,0,0-0.1,0.1-0.1c0-0.1,0.1-0.1,0.1-0.2v-0.1c0-0.1,0.1-0.1,0.1-0.2c0,0,0,0,0-0.1c0.1-0.5,0.1-1-0.1-1.3l0,0
				c0-0.1-0.1-0.1-0.2-0.2l0,0c-0.1-0.1-0.1-0.1-0.2-0.2l0,0c-0.1-0.1-0.2-0.1-0.3-0.1l0,0c-0.1,0-0.2-0.1-0.4-0.1
				c-0.3-0.1-0.6-0.1-1-0.1c-3.5,0-6.3,1.1-7.3,3l0,0v3.4v0.3c0,0,1.8-0.5,3-2c1.3-1.5,1.3-1.3,2.4,0.1c1,1.5,1.2,0.8,2.8-0.7
				C61,103.6,61.1,103.5,61.2,103.4C61.1,103.5,61.2,103.5,61.2,103.4z"/>
			<path class="st5" d="M61,99.5L61,99.5L61,99.5c0,0.1,0.1,0.2,0.3,0.2l0,0c0.1,0,0.2,0.1,0.3,0.1l0,0c0.1,0.1,0.2,0.1,0.2,0.2l0,0
				c0.1,0.1,0.1,0.1,0.2,0.2l0,0c0.2,0.4,0.3,0.8,0.1,1.3c0,0,0,0,0,0.1s0,0.1-0.1,0.2v0.1c0,0.1-0.1,0.1-0.1,0.2c0,0,0,0.1-0.1,0.1
				c0,0.1-0.1,0.1-0.1,0.2s-0.1,0.1-0.1,0.2s-0.1,0.1-0.1,0.2s-0.1,0.1-0.1,0.2l-0.1,0.1c-0.1,0.1-0.1,0.1-0.2,0.2l-0.1,0.1
				c-0.1,0.1-0.2,0.2-0.3,0.3c-0.1,0.1-0.2,0.2-0.3,0.3c0,0,0.9,2.1,2,2.2s1.1-3.5,1.1-5.4C63.6,99,62.6,98.2,61,99.5z"/>
			<path class="st5" d="M48.8,103.9c-1,0.9-1.4,1.8-1.9,2.7c-0.6,1.3-0.6,2.3-0.6,3.5c0,1.5,2.4-1.2,3.2-2.7c0.6-1,2.1-1.3,3-1.4
				v-3.4C51,102.6,49.7,103,48.8,103.9z"/>
			<path class="st5" d="M58.4,61.4c-4.2-1.7-7.9,1.3-5.8,5.3c2,3.7,7,4.1,9.6,1.7c2.7-2.4,2-2.3,1.8-3.4c-0.2-1.5,1.7-2.1,1.7-2.1
				C62.8,63.8,62.6,63.1,58.4,61.4z"/>
		</g>
	</g>
	<g>
		<path class="st3" d="M77.8,63.3c-0.5,0.2-1,0.4-1.4,0.6c-0.1,0-0.1,0.1,0,0.2c0.4,0.3,1.5,0.9,1.6,1c0.1,0.1,0.1,0,0.1-0.1
			c0-0.5-0.1-1-0.1-1.5C77.9,63.3,77.9,63.2,77.8,63.3z"/>
		<path class="st3" d="M81.7,60.4c0.5-0.2,0.9-0.4,1.3-0.6c0.1,0,0.1-0.1,0-0.2c-0.1-0.1-4.1-2.5-4.1-2.5c-0.1-0.1-0.2-0.1-0.2,0.1
			c0,0.4,0,0.9,0,1.3c0,0.1,0,0.2,0.2,0.3c0.6,0.4,2.4,1.5,2.5,1.5C81.6,60.4,81.7,60.4,81.7,60.4z"/>
		<path class="st3" d="M86.4,56.3c0.1-0.3,0.2-0.7,0.3-1.1c0-0.1,0-0.3-0.2-0.3c-1-0.6-4.8-3-5-3.1c-0.2-0.1-0.3,0-0.4,0
			c-0.3,0.2-0.6,0.5-0.9,0.8c-0.1,0.1-0.1,0.1,0,0.2c0,0,5.7,3.5,5.8,3.6C86.2,56.5,86.4,56.4,86.4,56.3z"/>
		<path class="st3" d="M86.8,51.8c0-0.1-0.1-0.2-0.2-0.3c-0.5-0.3-2-1.2-2.1-1.3c-0.2-0.1-0.3,0-0.4,0c-0.4,0.2-0.9,0.4-1.3,0.6
			c-0.1,0-0.1,0.1,0,0.2c0.1,0.1,3.7,2.3,3.9,2.4c0.1,0.1,0.2,0,0.2-0.1C86.8,52.8,86.8,52.3,86.8,51.8z"/>
		<path class="st3" d="M77.9,66.7c-0.7-0.4-2.9-1.8-3-1.9c-0.1-0.1-0.2,0-0.3,0c-0.3,0.2-0.7,0.5-1,0.7c0,0-0.1,0.2,0,0.2
			c0.1,0.1,3.2,2,4,2.4c0.1,0.1,0.2,0,0.2-0.1c0.1-0.4,0.2-0.8,0.2-1.2C78,66.8,78,66.8,77.9,66.7z"/>
		<path class="st3" d="M74.4,92.4h11.8c0.7,0,1.3-0.6,1.3-1.3c0-0.7-0.6-1.3-1.3-1.3H74.4c-0.7,0-1.3,0.6-1.3,1.3
			C73.1,91.8,73.7,92.4,74.4,92.4z"/>
		<path class="st3" d="M87.8,42.3c-0.1,0.3-0.2,0.6-0.2,1c0,0.1,0.1,0.4,0.2,0.5c0.8,0.5,2.9,1.8,3.1,1.9c0.2,0.1,0.4,0,0.4,0
			c0.3-0.2,0.5-0.4,0.8-0.6c0.1-0.1,0.2-0.2-0.1-0.4c-0.2-0.1-3-1.9-3.9-2.4C88,42.1,87.8,42.2,87.8,42.3z"/>
		<path class="st3" d="M84.7,58.7c0.3-0.3,0.6-0.5,0.8-0.8c0,0,0-0.2-0.1-0.3c-0.1-0.1-5.9-3.6-5.9-3.6c0,0-0.2,0-0.2,0.1
			c-0.2,0.4-0.3,0.7-0.4,1.1c0,0.1,0,0.2,0.1,0.2c0.1,0.1,4.4,2.7,5.3,3.3C84.5,58.8,84.6,58.8,84.7,58.7z"/>
		<path class="st3" d="M79.7,60.9c-0.2-0.1-0.5-0.3-0.6-0.3c-0.1-0.1-0.2,0-0.1,0.1c0,0.2,0,0.3,0.1,0.5c0,0.1,0.1,0.2,0.2,0.1
			c0.2-0.1,0.3-0.1,0.5-0.2C79.8,61.1,79.8,61,79.7,60.9z"/>
		<path class="st3" d="M97.2,33.7H32c-3.1,0-5.7,2.5-5.7,5.7v29.7c0,3.1,2.5,5.7,5.7,5.7h65.2c3.1,0,5.7-2.5,5.7-5.7V39.3
			C102.9,36.2,100.3,33.7,97.2,33.7z M59.1,65.8c-0.1,0.8-0.9,1.4-1.7,1.3c-0.8-0.1-1.4-0.9-1.3-1.7c0.1-0.4,0.2-0.7,0.5-0.9l-2.8-6
			c-0.4,0.1-0.8,0.2-1.3,0.2c-1.7,0-3.1-1.1-3.6-2.6l-6.3,0.8c0,1.1-0.9,2-2,2c-1.1,0-2-0.9-2-2c0-1.1,0.9-2,2-2
			c0.8,0,1.6,0.5,1.9,1.3l6.2-0.8c0-0.1,0-0.3,0-0.4c0-1.2,0.5-2.2,1.3-2.9l-2.9-4.1c-0.2,0.1-0.5,0.2-0.7,0.2c-1,0-1.8-0.7-1.8-1.7
			c0-1,0.7-1.8,1.7-1.8c1,0,1.8,0.7,1.8,1.7c0,0.4-0.1,0.9-0.4,1.2l3,4.1c0.5-0.3,1.2-0.5,1.8-0.5c0.2,0,0.4,0,0.6,0.1l1.7-6.5
			c-1-0.5-1.7-1.5-1.7-2.7c0-1.6,1.3-3,3-3c1.6,0,3,1.3,3,3c0,1.6-1.3,3-3,3c-0.1,0-0.1,0-0.2,0l-1.8,6.6c1.3,0.6,2.2,1.9,2.2,3.4
			c0,1.4-0.7,2.6-1.9,3.2l2.8,6c0.2,0,0.4-0.1,0.6,0C58.6,64.2,59.2,65,59.1,65.8z M67.9,67.7c-1.1,0.6-2.3,0.8-3.1,0.7
			c-0.9-0.1-1.9-0.7-2.7-1.7c-0.8-0.9-1.4-2.3-1.2-3.9l3-17.1c0.1-0.9,0.3-1.5,0.2-2.2c-0.1-0.6-0.3-1.2-0.8-2
			c-0.1-0.2-0.1-0.4,0.1-0.6c0.1-0.1,0.2-0.1,0.4-0.1l11.4,2c0.2,0,0.3,0.2,0.4,0.3c0,0.2,0,0.4-0.2,0.5c-0.8,0.6-1.2,1.1-1.5,1.6
			c-0.3,0.6-0.4,1.2-0.5,2.1l-3,17.1C70.1,66,69,67.1,67.9,67.7z M94.5,44.3c-1.6,2.5-4.1,3.7-6.6,4.6c-0.1,0-0.1,0.1-0.1,0.2
			c0.4,3,1,6.2-0.7,9c-1.7,2.7-4.8,3.7-7.7,4.7c-0.1,0-0.1,0.1-0.1,0.2c0.3,2.6,0.4,5.4-1.1,7.9c-0.2,0.3-0.6,0.4-1,0.2
			c-0.3-0.2-0.4-0.6-0.2-1c0.1-0.1,0.1-0.2,0.1-0.3c0-0.1,0-0.2-0.1-0.2c-0.1-0.1-3.5-2.2-4.4-2.7c-0.2-0.1-0.2-0.1-0.3,0
			c-0.1,0.1-0.1,0.2-0.1,0.2c-0.2,0.3-0.6,0.4-1,0.2c-0.3-0.2-0.4-0.6-0.2-1c1.5-2.5,4.1-3.7,6.6-4.6c0.1,0,0.1-0.1,0.1-0.2
			c-0.4-3-1-6.2,0.7-9c1.7-2.7,4.8-3.7,7.7-4.7c0.1,0,0.1-0.1,0.1-0.2c-0.3-2.7-0.4-5.4,1.1-7.9c0.2-0.3,0.6-0.4,1-0.2
			c0.3,0.2,0.4,0.6,0.2,1c0,0,0,0.2,0.1,0.3c0.1,0.1,3.3,2.1,4.3,2.6c0.2,0.1,0.3,0.1,0.4,0c0.2-0.3,0.6-0.4,1-0.2
			C94.6,43.5,94.7,44,94.5,44.3z"/>
		<path class="st3" d="M89.6,46.5c-0.1,0-1.5-0.9-2-1.2c-0.1-0.1-0.2,0-0.2,0.1c0,0.5,0.1,1,0.1,1.5c0,0.5,0.1,0.6,0.6,0.4
			c0.5-0.2,1-0.4,1.4-0.6C89.6,46.6,89.6,46.6,89.6,46.5z"/>
		<path class="st3" d="M86,49.5l0.5,0.3c0-0.1,0-0.3-0.1-0.4C86.3,49.4,86.2,49.5,86,49.5z"/>
		<path class="st12" d="M101.1,29H28.1c-3.8,0-7,3.1-7,7v36.5c0,3.8,3.1,7,7,7h27.8v6.7H43.5c-3.8,0-7,3.1-7,7V94c0,3.8,3.1,7,7,7
			h42.6c3.8,0,7-3.1,7-7v-0.9c0-3.8-3.1-7-7-7H73v-6.7h28.1c3.8,0,7-3.1,7-7V36C108.1,32.1,105,29,101.1,29z M74.4,89.8h11.8
			c0.7,0,1.3,0.6,1.3,1.3c0,0.7-0.6,1.3-1.3,1.3H74.4c-0.7,0-1.3-0.6-1.3-1.3C73.1,90.4,73.7,89.8,74.4,89.8z M102.9,69.1
			c0,3.1-2.5,5.7-5.7,5.7H32c-3.1,0-5.7-2.5-5.7-5.7V39.3c0-3.1,2.5-5.7,5.7-5.7h65.2c3.1,0,5.7,2.5,5.7,5.7V69.1z"/>
		<path class="st20" d="M57.8,64.1c-0.2,0-0.4,0-0.6,0l-2.8-6c1.1-0.7,1.9-1.9,1.9-3.2c0-1.5-0.9-2.8-2.2-3.4l1.8-6.6
			c0.1,0,0.1,0,0.2,0c1.6,0,3-1.3,3-3c0-1.6-1.3-3-3-3c-1.6,0-3,1.3-3,3c0,1.2,0.7,2.2,1.7,2.7L53,51.1c-0.2,0-0.4-0.1-0.6-0.1
			c-0.7,0-1.3,0.2-1.8,0.5l-3-4.1c0.3-0.3,0.4-0.7,0.4-1.2c0-1-0.9-1.7-1.8-1.7c-1,0-1.7,0.9-1.7,1.8c0,1,0.9,1.7,1.8,1.7
			c0.3,0,0.5-0.1,0.7-0.2L50,52c-0.8,0.7-1.3,1.7-1.3,2.9c0,0.1,0,0.3,0,0.4l-6.2,0.8c-0.3-0.7-1-1.3-1.9-1.3c-1.1,0-2,0.9-2,2
			c0,1.1,0.9,2,2,2c1.1,0,2-0.9,2-2l6.3-0.8c0.5,1.5,1.9,2.6,3.6,2.6c0.4,0,0.9-0.1,1.3-0.2l2.8,6c-0.3,0.2-0.4,0.5-0.5,0.9
			c-0.1,0.8,0.5,1.6,1.3,1.7c0.8,0.1,1.6-0.5,1.7-1.3C59.2,65,58.6,64.2,57.8,64.1z"/>
		<path class="st5" d="M94.3,43.3c-0.3-0.2-0.8-0.1-1,0.2c-0.1,0.1-0.2,0.1-0.4,0c-1-0.6-4.2-2.5-4.3-2.6c-0.1-0.1-0.1-0.2-0.1-0.3
			c0.2-0.3,0.1-0.8-0.2-1c-0.3-0.2-0.8-0.1-1,0.2c-1.5,2.5-1.4,5.3-1.1,7.9c0,0.1,0,0.1-0.1,0.2c-2.9,1-6,2-7.7,4.7
			c-1.7,2.8-1.1,6-0.7,9c0,0.1-0.1,0.1-0.1,0.2c-2.5,0.9-5,2.1-6.6,4.6c-0.2,0.3-0.1,0.8,0.2,1c0.3,0.2,0.8,0.1,1-0.2
			c0-0.1,0.1-0.2,0.1-0.2c0.1-0.1,0.1-0.1,0.3,0c0.9,0.5,4.3,2.7,4.4,2.7c0.1,0.1,0.1,0.2,0.1,0.2c0,0.1-0.1,0.2-0.1,0.3
			c-0.2,0.3-0.1,0.8,0.2,1c0.3,0.2,0.8,0.1,1-0.2c1.5-2.5,1.4-5.3,1.1-7.9c0-0.1,0-0.2,0.1-0.2c2.9-1,6-2,7.7-4.7
			c1.7-2.8,1.1-6,0.7-9c0-0.1,0-0.1,0.1-0.2c2.5-0.9,5-2.1,6.6-4.6C94.7,44,94.6,43.5,94.3,43.3z M89,41.5l4,2.5
			c-0.1,0.2-0.3,0.3-0.4,0.5l-3.8-2.4C88.8,41.9,88.9,41.7,89,41.5z M92.1,44.6c0.2,0.2,0.1,0.3,0.1,0.4c-0.2,0.2-0.5,0.4-0.8,0.6
			c-0.1,0.1-0.3,0.1-0.4,0c-0.2-0.1-2.3-1.4-3.1-1.9c-0.2-0.1-0.3-0.4-0.2-0.5c0.1-0.3,0.1-0.7,0.2-1c0-0.1,0.2-0.2,0.3-0.1
			C89,42.7,91.9,44.5,92.1,44.6z M90.7,46c-0.2,0.1-0.4,0.2-0.6,0.4l-1.9-1.2c0-0.2,0-0.5,0-0.7L90.7,46z M71.9,66.9
			c-0.1,0.1-0.3,0.2-0.4,0.1c-0.1-0.1-0.2-0.3-0.1-0.4c1.5-2.4,3.8-3.5,6.3-4.4c0.1,0,0.2,0,0.2,0.1c0,0.1,0,0.2,0,0.3
			c0,0.1,0,0.2-0.1,0.2C75.2,63.8,73.1,64.9,71.9,66.9z M77.8,66.2c-0.1-0.1-1.4-0.9-1.9-1.1c-0.1-0.1-0.1-0.1,0-0.2
			c0.1-0.1,0.2-0.1,0.4-0.2c0.1-0.1,0.2,0,0.4,0.1c0.4,0.2,1.1,0.7,1.2,0.8c0.2,0.1,0.2,0.2,0.2,0.3c0,0.1,0,0.2,0,0.3
			C78.1,66.2,78,66.3,77.8,66.2z M78,67c0,0.4-0.1,0.8-0.2,1.2c0,0.1-0.1,0.1-0.2,0.1c-0.7-0.5-3.8-2.4-4-2.4
			c-0.2-0.1-0.1-0.2,0-0.2c0.3-0.3,0.6-0.5,1-0.7c0.1,0,0.2-0.1,0.3,0c0.1,0.1,2.3,1.4,3,1.9C78,66.8,78,66.8,78,67z M77.9,65
			c-0.1-0.1-1.2-0.7-1.6-1c-0.1-0.1,0-0.2,0-0.2c0.5-0.2,0.9-0.4,1.4-0.6c0.1,0,0.1,0,0.2,0.1c0.1,0.5,0.1,1,0.1,1.5
			C78.1,65,78.1,65.1,77.9,65z M73.6,67c-0.1-0.1-0.1-0.2-0.1-0.3c0.1-0.1,0.1-0.2,0.2-0.2c0,0,0.1-0.1,0.3,0
			c0.1,0.1,2.7,1.6,3.4,2.1c0.1,0.1,0.1,0.2,0.1,0.3c0,0.1-0.1,0.2-0.1,0.3c0,0.1-0.1,0.1-0.2,0.1C76.5,68.8,73.7,67.1,73.6,67z
			 M77.8,70.6c-0.1,0.1-0.3,0.2-0.4,0.1c-0.1-0.1-0.2-0.3-0.1-0.4c1.2-1.9,1.3-4.1,1-6.6l-0.3-2.5c-0.4-2.8-0.8-5.8,0.7-8.3
			c1.6-2.5,4.4-3.5,7.1-4.4l0.4-0.1c0.1,0,0.1,0,0.1,0.1c0,0.1,0,0.3,0.1,0.4c0,0,0,0.1-0.1,0.1c-2.8,0.9-5.6,1.9-7,4.2
			c-1.4,2.3-1,5.3-0.6,8.2l0.3,2C79.2,65.9,79.2,68.4,77.8,70.6z M78.9,58.8c-0.2-0.1-0.2-0.2-0.2-0.3c0-0.5,0-0.9,0-1.3
			c0-0.2,0.1-0.2,0.2-0.1c0,0,4,2.5,4.1,2.5c0.1,0.1,0.1,0.2,0,0.2c-0.4,0.2-0.9,0.4-1.3,0.6c0,0-0.2,0-0.3,0
			C81.3,60.3,79.5,59.2,78.9,58.8z M81,60.8c-0.1,0-0.2,0.1-0.3,0.1c-0.1,0-0.3,0-0.4,0c-0.2-0.1-0.5-0.3-0.6-0.4
			c-0.2-0.1-0.2-0.3-0.2-0.3c0-0.1,0-0.2,0-0.3c0-0.1,0-0.2,0.2-0.1c0.2,0.1,0.8,0.5,1.2,0.7C81.1,60.6,81.1,60.7,81,60.8z M79.6,57
			c-0.1-0.1-0.2-0.2-0.2-0.3c0-0.1,0-0.2,0-0.3c0-0.1,0.2-0.1,0.3-0.1c0,0,4.1,2.5,4.3,2.6c0.2,0.1,0.1,0.2,0.1,0.3
			c-0.1,0.1-0.2,0.1-0.3,0.2c-0.1,0-0.3,0-0.4-0.1C82.5,58.8,79.7,57.1,79.6,57z M79,55.4c-0.1-0.1-0.1-0.2-0.1-0.2
			c0.1-0.4,0.2-0.8,0.4-1.1c0-0.1,0.2-0.1,0.2-0.1c0,0,5.8,3.6,5.9,3.6c0.1,0.1,0.1,0.2,0.1,0.3c-0.2,0.3-0.5,0.6-0.8,0.8
			c-0.1,0.1-0.2,0.1-0.3,0C83.4,58.1,79.1,55.5,79,55.4z M80.4,54.1c-0.2-0.1-0.1-0.2-0.1-0.3c0.1-0.1,0.1-0.2,0.2-0.3
			c0,0,0.1-0.1,0.3,0c0.2,0.1,5.3,3.3,5.3,3.3c0.1,0.1,0.2,0.1,0.1,0.3c0,0,0,0.1-0.1,0.1c-0.1,0.2-0.3,0.2-0.4,0.1
			C85.7,57.4,80.6,54.2,80.4,54.1z M86.1,56.4c-0.2-0.1-5.8-3.6-5.8-3.6c-0.1,0-0.1-0.1,0-0.2c0.3-0.3,0.5-0.6,0.9-0.8
			c0.1,0,0.2-0.1,0.4,0c0.2,0.1,4.1,2.5,5,3.1c0.1,0.1,0.2,0.3,0.2,0.3c-0.1,0.4-0.2,0.7-0.3,1.1C86.4,56.4,86.2,56.5,86.1,56.4z
			 M86.5,54.4c-0.9-0.6-3.9-2.4-4-2.5c-0.2-0.1-0.1-0.2,0-0.3c0.1,0,0.2-0.1,0.2-0.1c0.1,0,0.2-0.1,0.4,0c0.2,0.1,2.7,1.7,3.5,2.2
			c0.2,0.1,0.2,0.2,0.2,0.3c0,0.1,0,0.2,0,0.3C86.8,54.4,86.7,54.5,86.5,54.4z M86.7,53.3c-0.1-0.1-3.7-2.3-3.9-2.4
			c-0.1-0.1-0.1-0.2,0-0.2c0.4-0.2,0.8-0.4,1.3-0.6c0.1,0,0.2-0.1,0.4,0c0.2,0.1,1.6,1,2.1,1.3c0.1,0.1,0.2,0.2,0.2,0.3
			c0,0.5,0.1,1,0.1,1.5C86.8,53.3,86.8,53.4,86.7,53.3z M86.6,51.1c-0.1,0-1.1-0.7-1.1-0.7c0,0-0.1-0.1,0-0.1
			c0.2-0.1,0.3-0.1,0.5-0.2c0.1,0,0.1,0,0.2,0c0,0,0.2,0.1,0.3,0.2c0.1,0.1,0.1,0.2,0.1,0.2c0,0.2,0,0.3,0,0.5
			C86.7,51.1,86.7,51.1,86.6,51.1z M86,49.5c0.1,0,0.3-0.1,0.4-0.1c0,0.1,0,0.3,0.1,0.4L86,49.5z M79.2,61.3c-0.1,0-0.2,0-0.2-0.1
			c0-0.2,0-0.3-0.1-0.5c0-0.1,0-0.2,0.1-0.1c0.1,0.1,0.4,0.2,0.6,0.3c0.1,0.1,0.1,0.2,0,0.2C79.6,61.2,79.4,61.2,79.2,61.3z
			 M86.8,57.8c-1.6,2.5-4.4,3.5-7.1,4.4l-0.1,0c0-0.2-0.1-0.4-0.1-0.6c2.7-0.9,5.4-1.9,6.7-4.1c1.4-2.3,1-5.4,0.6-8.3
			c-0.4-3.1-0.9-6.2,0.9-9.1c0.1-0.1,0.3-0.2,0.4-0.1c0.1,0.1,0.2,0.3,0.1,0.4c-1.5,2.4-1.3,5.4-0.8,8.7l0.1,0.4
			C87.9,52.4,88.3,55.3,86.8,57.8z M87.6,46.9c-0.1-0.5-0.1-1-0.1-1.5c0-0.1,0.1-0.1,0.2-0.1c0.5,0.3,1.9,1.2,2,1.2
			c0.1,0.1,0,0.1,0,0.2c-0.5,0.2-0.9,0.4-1.4,0.6C87.7,47.5,87.6,47.4,87.6,46.9z M94.2,44.1c-1.3,2.2-3.4,3.3-5.6,4.1
			c-0.2,0.1-0.3,0-0.3-0.1c0-0.1,0-0.1,0-0.2c0-0.2,0-0.2,0.2-0.3c2.2-0.9,4-1.9,5.2-3.8c0.1-0.1,0.3-0.2,0.4-0.1
			C94.2,43.7,94.3,43.9,94.2,44.1z"/>
		<path class="st12" d="M77.9,62.7c0-0.1,0-0.2,0-0.3c0-0.1-0.1-0.1-0.2-0.1c-2.5,0.9-4.8,2-6.3,4.4c-0.1,0.1,0,0.3,0.1,0.4
			c0.1,0.1,0.3,0,0.4-0.1c1.3-2.1,3.4-3.1,5.9-4.1C77.9,62.8,77.9,62.8,77.9,62.7z"/>
		<path class="st12" d="M87.4,49.1c-0.5-3.3-0.7-6.2,0.8-8.7c0.1-0.1,0-0.3-0.1-0.4c-0.1-0.1-0.3,0-0.4,0.1c-1.7,2.8-1.3,6-0.9,9.1
			c0.4,3,0.9,6-0.6,8.3c-1.3,2.2-4,3.2-6.7,4.1c0,0.2,0.1,0.4,0.1,0.6l0.1,0c2.7-0.9,5.5-1.9,7.1-4.4c1.5-2.5,1.1-5.4,0.7-8.3
			L87.4,49.1z"/>
		<path class="st12" d="M78.7,61.5c-0.4-2.9-0.8-6,0.6-8.2c1.4-2.3,4.2-3.3,7-4.2c0,0,0.1-0.1,0.1-0.1c0-0.1,0-0.3-0.1-0.4
			c0-0.1-0.1-0.1-0.1-0.1l-0.4,0.1c-2.7,0.9-5.5,1.9-7.1,4.4c-1.5,2.5-1.1,5.4-0.7,8.3l0.3,2.5c0.2,2.5,0.1,4.7-1,6.6
			c-0.1,0.1,0,0.3,0.1,0.4c0.1,0.1,0.3,0,0.4-0.1c1.4-2.2,1.4-4.7,1.1-7.1L78.7,61.5z"/>
		<path class="st12" d="M86.8,54.4c0-0.1,0-0.2,0-0.3c0-0.1,0-0.2-0.2-0.3c-0.8-0.5-3.3-2.1-3.5-2.2c-0.2-0.1-0.3-0.1-0.4,0
			c-0.1,0-0.2,0.1-0.2,0.1c-0.1,0-0.2,0.2,0,0.3c0.1,0.1,3.1,1.9,4,2.5C86.7,54.5,86.8,54.4,86.8,54.4z"/>
		<path class="st12" d="M86.6,50.3c-0.1-0.1-0.3-0.2-0.3-0.2c-0.1,0-0.1,0-0.2,0c-0.2,0.1-0.3,0.1-0.5,0.2c-0.1,0-0.1,0.1,0,0.1
			c0,0,1,0.6,1.1,0.7c0.1,0,0.1,0,0.1-0.1c0-0.2,0-0.3,0-0.5C86.7,50.5,86.6,50.3,86.6,50.3z"/>
		<path class="st12" d="M86.1,57.3c0,0,0-0.1,0.1-0.1c0.1-0.2,0-0.3-0.1-0.3c0,0-5.1-3.2-5.3-3.3c-0.2-0.1-0.2,0-0.3,0
			c-0.1,0.1-0.1,0.2-0.2,0.3c0,0-0.1,0.2,0.1,0.3c0.2,0.1,5.3,3.3,5.3,3.3C85.8,57.4,86,57.4,86.1,57.3z"/>
		<path class="st12" d="M79.7,59.7c-0.3-0.2-0.2,0-0.2,0.1c0,0.1,0,0.2,0,0.3c0,0.1,0,0.2,0.2,0.3c0.1,0.1,0.4,0.3,0.6,0.4
			c0.1,0.1,0.3,0.1,0.4,0c0.1,0,0.2-0.1,0.3-0.1c0.1,0,0.1-0.2-0.1-0.3C80.5,60.3,79.9,59.9,79.7,59.7z"/>
		<path class="st12" d="M83.8,59.4c0.1-0.1,0.2-0.1,0.3-0.2c0.1,0,0.2-0.1-0.1-0.3c-0.2-0.1-4.3-2.6-4.3-2.6
			c-0.1-0.1-0.3-0.1-0.3,0.1c0,0.1,0,0.2,0,0.3c0,0.1,0,0.2,0.2,0.3c0.1,0.1,3,1.8,3.8,2.4C83.6,59.4,83.8,59.4,83.8,59.4z"/>
		<path class="st12" d="M93,44l-4-2.5c-0.1,0.2-0.2,0.4-0.3,0.6l3.8,2.4C92.7,44.3,92.8,44.2,93,44z"/>
		<path class="st12" d="M90.1,46.4c0.2-0.1,0.4-0.2,0.6-0.4l-2.5-1.5c0,0.2,0,0.5,0,0.7L90.1,46.4z"/>
		<path class="st12" d="M78.1,65.8c0-0.1,0-0.2-0.2-0.3c-0.1-0.1-0.9-0.5-1.2-0.8c-0.2-0.1-0.2-0.1-0.4-0.1
			c-0.1,0.1-0.2,0.1-0.4,0.2c-0.1,0.1-0.1,0.1,0,0.2c0.5,0.3,1.7,1,1.9,1.1c0.2,0.1,0.2,0,0.2-0.1C78.1,66,78.1,65.9,78.1,65.8z"/>
		<path class="st12" d="M77.5,69.2c0-0.1,0.1-0.2,0.1-0.3c0-0.1,0-0.2-0.1-0.3c-0.7-0.4-3.2-2-3.4-2.1c-0.2-0.1-0.3,0-0.3,0
			c-0.1,0.1-0.1,0.2-0.2,0.2c0,0-0.1,0.2,0.1,0.3c0.1,0.1,2.9,1.8,3.6,2.2C77.3,69.3,77.4,69.2,77.5,69.2z"/>
		<path class="st12" d="M93.7,43.8c-1.1,1.9-3,2.9-5.2,3.8c-0.2,0.1-0.3,0.1-0.2,0.3c0,0.1,0,0.1,0,0.2c0,0.2,0.1,0.2,0.3,0.1
			c2.2-0.9,4.3-2,5.6-4.1c0.1-0.1,0-0.3-0.1-0.4C93.9,43.6,93.8,43.6,93.7,43.8z"/>
		<path class="st21" d="M73,44.8C73,44.8,73,44.8,73,44.8c0.1-0.2,0.2-0.4,0.4-0.6C73.3,44.4,73.1,44.6,73,44.8L73,44.8z"/>
		<path class="st12" d="M65,44.4c0.1-1.1-0.2-1.6-0.5-2.5c2.1,0.3,3.4,1.1,3.2,2.5l-1,5.7l2-1.7c-0.1,0-0.3-0.1-0.3-0.3
			c0-0.2,0-0.3,0.1-0.4c0.1-0.1,0.3-0.2,0.4-0.1l0.6,0.1l2.1-1.8l0.4-1.9c0.1-0.8,1.1-0.6,1.9-0.5c0,0,0,0,0,0l-9.6-1.7
			c0.3,0.6,0.5,1.1,0.5,1.6c0.1,0.8-0.1,1.5-0.2,2.4l-1.2,6.9l0.1,0L65,44.4z"/>
		<path class="st12" d="M73,44.8L73,44.8c0.1-0.2,0.2-0.5,0.4-0.6c0.3-0.3,0.6-0.6,0.8-0.7c-0.1,0-0.1,0-0.2,0
			c-0.8-0.1-1.8-0.2-1.9,0.5l-0.4,1.9l-2.1,1.8l1.7,0.3l-0.2,0.9l-2.4-0.5c0,0,0,0,0,0l-2,1.7l-2.4,13.5c-0.3,1.3-0.9,2.8,0.2,3.7
			c-2.1-0.8-2.9-2.6-2.8-3.9l1.9-10.6l-0.1,0l-1.8,10.2c-0.2,1.3,0.2,2.3,0.9,3.1c0.7,0.8,1.7,1.3,2.2,1.4c0.6,0.1,1.6,0,2.6-0.6
			c0.6-0.3,1.1-0.8,1.5-1.5c0,0,0,0,0,0c0.2-0.3,0.3-0.7,0.4-1.1l0.4-2.4l0,0L70,61l0,0l0.6-3.4l0,0l0.2-0.9l0,0l0.1-0.4l2-10.8
			c0-0.1,0-0.1,0-0.2C72.9,45.2,73,45,73,44.8z M68.8,61.6l-2.3-0.5c-0.2,0-0.3-0.2-0.4-0.3c0-0.2,0-0.3,0.2-0.5
			c0.1-0.1,0.2-0.1,0.4-0.1l2.3,0.5L68.8,61.6z M69.6,57.4l-2.3-0.5c-0.2,0-0.3-0.2-0.3-0.3c0-0.2,0-0.3,0.1-0.4
			c0.1-0.1,0.3-0.2,0.4-0.1l2.3,0.5L69.6,57.4z M70.4,53.2L68,52.7c-0.2,0-0.3-0.2-0.3-0.3c0-0.2,0-0.3,0.1-0.4
			c0.1-0.1,0.3-0.2,0.4-0.1l2.4,0.5L70.4,53.2z"/>
		<path class="st20" d="M73.9,45.2c0.3-0.6,0.7-1.1,1.5-1.6c0.1-0.1,0.2-0.3,0.2-0.5c0-0.2-0.2-0.3-0.4-0.3l-11.4-2
			c-0.1,0-0.3,0-0.4,0.1c-0.2,0.1-0.2,0.4-0.1,0.6c0.6,0.8,0.8,1.4,0.8,2c0.1,0.6-0.1,1.3-0.2,2.2l-3,17.1c-0.3,1.6,0.3,2.9,1.2,3.9
			c0.8,0.9,1.9,1.5,2.7,1.7c0.9,0.1,2,0,3.1-0.7c1.1-0.6,2.1-1.7,2.4-3.2l3-17.1C73.5,46.4,73.6,45.8,73.9,45.2z M70.8,56.4
			l-0.1,0.4l0,0l-0.2,0.9l0,0L70,61l0,0l-0.2,0.9l0,0l-0.4,2.4c-0.1,0.4-0.2,0.8-0.4,1.1c0,0,0,0,0,0c-0.4,0.6-0.9,1.1-1.5,1.5
			c-0.9,0.5-2,0.7-2.6,0.6c-0.6-0.1-1.5-0.6-2.2-1.4c-0.7-0.8-1.2-1.8-0.9-3.1l1.8-10.2l1.2-6.9c0.1-0.9,0.3-1.6,0.2-2.4
			c0-0.5-0.2-1.1-0.5-1.6l9.6,1.7c0,0,0,0,0,0c0.1,0,0.1,0,0.2,0c-0.2,0.1-0.5,0.4-0.8,0.7c-0.1,0.2-0.3,0.4-0.4,0.6c0,0,0,0,0,0
			c-0.1,0.2-0.1,0.3-0.2,0.5c0,0.1,0,0.1,0,0.2L70.8,56.4z"/>
		<path class="st21" d="M68.6,47.6c-0.1,0.1-0.2,0.3-0.1,0.4c0,0.1,0.2,0.2,0.3,0.3c0,0,0,0,0,0l2.4,0.5l0.2-0.9l-1.7-0.3L69,47.5
			C68.9,47.5,68.7,47.5,68.6,47.6z"/>
		<path class="st21" d="M67,56.2c-0.1,0.1-0.2,0.3-0.1,0.4c0,0.2,0.2,0.3,0.3,0.3l2.3,0.5l0.2-0.9l-2.3-0.5
			C67.3,56,67.1,56.1,67,56.2z"/>
		<path class="st21" d="M68.2,51.8c-0.1,0-0.3,0-0.4,0.1c-0.1,0.1-0.2,0.3-0.1,0.4c0,0.2,0.2,0.3,0.3,0.3l2.4,0.5l0.2-0.9L68.2,51.8
			z"/>
		<path class="st21" d="M66.3,60.4c-0.1,0.1-0.2,0.3-0.2,0.5c0,0.2,0.2,0.3,0.4,0.3l2.3,0.5l0.2-0.9l-2.3-0.5
			C66.6,60.3,66.4,60.3,66.3,60.4z"/>
		<path class="st22" d="M64.5,41.9c0.3,0.9,0.5,1.5,0.5,2.5l-1.4,8.3l-1.9,10.6c-0.1,1.3,0.7,3.2,2.8,3.9c-1.1-0.9-0.4-2.4-0.2-3.7
			L66.8,50l1-5.7C68,42.9,66.7,42.1,64.5,41.9z"/>
	</g>
	<g class="st0">
		<path class="st7" d="M109.1,32.3c0-2.1-1.2-3.2-3.3-3.3c-3.7-0.1-7.5,0-11.3,0c-2.2,0-2,1.5-2,2.9c0,1.5,0.1,2.7,2.1,2.6
			c1.5-0.1,3.1,0,4.6,0c0.2,0.3,0.4,0.6,0.5,0.8c-3.3,3.1-6.6,6.1-9.7,9.2c-1.1,1-1.6,1.3-3,0.4c-8.3-5.5-17.1-6-26-1.4
			c-1.5,0.8-2.5,0.8-4,0C43.3,36,25.8,43.1,21.2,58.1c-0.4,1.2-0.4,2.4-0.8,3.6c0,2.6,0,5.2,0.1,7.8c0.1,0.6,0.1,1.1,0.3,1.7
			c2.8,10.4,9.5,16.7,20,19c0.5,0.1,1.5-0.1,1.5,0.5c0.2,1.6,0.4,3.4,0,4.9c-0.3,1.1-1.8,0.6-2.7,0.5c-2.1-0.1-2.8,0.7-2.7,2.8
			c0,1.9,0.4,3.2,2.6,2.8c2.4-0.4,3.4,0.5,3,3c-0.3,1.9,0.5,2.7,2.5,2.6c1.9,0,3.2-0.4,2.9-2.6c-0.3-2.4,0.4-3.4,2.9-3
			c1.9,0.3,2.7-0.5,2.7-2.5c0-1.9-0.5-3.3-2.6-2.9c-2.7,0.4-3.1-0.9-3.1-3.2c0-2.1,0.6-2.9,2.6-3.2c2.3-0.3,4.5-1.2,6.5-2.4
			c1.5-0.9,2.6-0.8,4.1,0c11.6,6.3,25.8,2.8,32.9-8.5c5.6-9,5.3-18.2-0.3-27.3c-0.4-0.7-1.7-1.3-0.6-2.3c3.4-3.4,6.8-6.7,10.5-10.3
			c0,1.8,0,3.3,0,4.8c0,2.2,1.4,2.3,3,2.3c1.6,0,2.5-0.4,2.5-2.3C109,39.9,109.1,36.1,109.1,32.3z M52.7,83.5
			c-10.7,4.8-23.8-1.8-26.6-13.2C23.1,57.8,32.3,46,45.4,46c2.5-0.2,5.1,0.5,7.7,1.6c1.1,0.5,1.6,0.9,0.6,2.1
			c-7.6,8.8-7.7,22.6,0,31.4C55.1,82.7,53.7,83,52.7,83.5z M60.2,77.8c-0.9,1.1-1.4,1.3-2.4,0c-2.9-3.7-4.5-7.7-4.3-12.4
			c-0.2-4.6,1.4-8.6,4.2-12.2c0.9-1.2,1.6-1.3,2.6-0.1C66.1,60.1,66,70.8,60.2,77.8z M71.7,85c-2.3-0.1-4.6-0.7-6.7-1.7
			c-1.1-0.5-1.6-1-0.6-2.1c7.6-8.6,7.7-22.8-0.1-31.6c-0.8-0.9-0.6-1.3,0.4-1.8c1.9-1,5.1-1.7,8.2-1.7c11.3,0,20,8.9,19.7,20.3
			C92.2,76.9,82.5,85.6,71.7,85z"/>
	</g>
	<g class="st0">
		<path class="st10" d="M40.8,63.4c0-4,1.2-7.8,3.2-11c-6.3,0.6-11.3,6-11.3,12.4c0,6.9,5.6,12.5,12.5,12.5c0.3,0,0.7,0,1-0.1
			C42.9,73.6,40.8,68.7,40.8,63.4z"/>
		<path class="st10" d="M52.6,54.8C50.4,57,49,60,49,63.4c0,4.1,2.1,7.8,5.2,10.1c2.1-2.2,3.5-5.3,3.5-8.6
			C57.7,60.7,55.7,57,52.6,54.8z"/>
		<path class="st10" d="M61.4,51c-0.2,0-0.4,0-0.7,0C64,54.7,66,59.5,66,64.8c0,4-1.1,7.7-3,10.8c6.1-0.8,10.8-6,10.8-12.3
			C73.8,56.5,68.2,51,61.4,51z"/>
		<path class="st7" d="M73.8,22.1v8.3h14.8L72.8,46.2c-3.3-2.2-7.2-3.4-11.4-3.4c-3.5,0-6.7,0.9-9.6,2.4c-2.1-0.7-4.3-1.1-6.7-1.1
			c-11.5,0-20.8,9.3-20.8,20.8c0,10.1,7.2,18.5,16.7,20.4V94h-8.3v8.3H41v8.3h8.3v-8.3h8.3V94h-8.3v-8.8c2.1-0.4,4.1-1.2,5.9-2.2
			c1.9,0.6,4,0.9,6.2,0.9C72.8,84,82,74.8,82,63.4c0-4.2-1.3-8.1-3.4-11.4l15.8-15.8V51h8.3V22.1H73.8z M54.2,73.4
			c-3.1-2.2-5.2-5.9-5.2-10.1c0-3.4,1.3-6.4,3.5-8.6c3.1,2.3,5.1,5.9,5.1,10.1C57.7,68.2,56.4,71.2,54.2,73.4z M32.7,64.8
			c0-6.5,5-11.8,11.3-12.4c-2,3.2-3.2,6.9-3.2,11c0,5.4,2.1,10.2,5.4,13.9c-0.3,0-0.7,0.1-1,0.1C38.3,77.3,32.7,71.7,32.7,64.8z
			 M63,75.6c1.9-3.2,3-6.8,3-10.8c0-5.3-2-10.1-5.3-13.8c0.2,0,0.4,0,0.7,0c6.8,0,12.4,5.6,12.4,12.4C73.8,69.7,69.1,74.9,63,75.6z"
			/>
	</g>
	<g class="st0">
		<g class="st23">
			<path class="st24" d="M46.7,93.8l0,4.6c0,1.5,1.3,2.7,2.8,2.7l15.2-0.1c1.6,0,2.8-1.2,2.8-2.7l0-4.6c0-1.5-1.3-2.7-2.8-2.7
				l-2.5,0l0-2.7c0-0.1,0-0.2,0-0.3l0.3,0c1,0,1.9-0.8,1.9-1.8c0-1-0.9-1.8-1.9-1.8l-4.4,0l0-2l0,2l-6.3,0c-1,0-1.9,0.8-1.9,1.8
				c0,1,0.9,1.8,1.9,1.8l0.3,0c0,0.1,0,0.2,0,0.3l0,2.7l-2.5,0C48,91.1,46.7,92.3,46.7,93.8z"/>
			<path class="st24" d="M58,75.5c0,0-4.8,6.9,0,6.9h0l0,0c0.1,0,0.2,0,0.3,0C62.6,82.1,58,75.5,58,75.5z"/>
			<path class="st21" d="M101.6,101.3l-13.4,0V35.6c1.8-0.8,3-2.5,3-4.6c0-2.1-1.2-3.8-3-4.6v-7.3h-3.8v7.2
				c-1.4,0.6-2.5,1.7-2.9,3.2H66.1c-0.4-0.8-1.2-1.3-2.1-1.5c0.8-0.4,1.4-1.3,1.4-2.2c0-1.4-1.2-2.5-2.6-2.5l-10.8,0
				c-1.5,0-2.6,1.1-2.6,2.5c0,1,0.6,1.8,1.4,2.2c-0.8,0.2-1.5,0.7-1.9,1.4h-4.7v3h4.7c0.5,0.9,1.5,1.5,2.6,1.5h0.4l0,6.2
				c-5.8,2.2-10,7.6-9.9,13.9c0,8.2,7,14.9,15.6,14.8c8.6,0,15.5-6.7,15.5-15c0-6.2-4-11.5-9.6-13.7l0-6.3h0.1
				c1.1,0,2.1-0.6,2.6-1.5h15.3c0.5,1.4,1.5,2.6,2.9,3.2v65.7l-55.7,0.2l0,5.1l72.9-0.2L101.6,101.3z"/>
		</g>
		<g class="st2">
			<g>
				<path class="st14" d="M63.5,90L61,90l0-2.7c0-0.1,0-0.2,0-0.3l0.3,0c1,0,1.9-0.8,1.9-1.8c0-1-0.9-1.8-1.9-1.8l-10.7,0
					c-1,0-1.9,0.8-1.9,1.8c0,1,0.9,1.8,1.9,1.8l0.3,0c0,0.1,0,0.2,0,0.3l0,2.7l-2.5,0c-1.6,0-2.8,1.2-2.8,2.7l0,4.6
					c0,1.5,1.3,2.7,2.8,2.7l15.2-0.1c1.6,0,2.8-1.2,2.8-2.7l0-4.6C66.4,91.2,65.1,90,63.5,90"/>
				<g>
					<path class="st12" d="M65.1,93.2l0,3.5c0,1.1-1.1,2.1-2.5,2.1l-13.3,0c-1.4,0-2.5-0.9-2.5-2.1l0-3.5"/>
					<g>
						<path class="st25" d="M56.9,95.4c0,0,2.4,0.6,1.8-2.2c-0.3-1.7-1.8-0.8-1.8-2.9l0-8.9"/>
						<g>
							<path class="st12" d="M56.8,74.4c0,0-4.8,6.9,0,6.9C61.7,81.3,56.8,74.4,56.8,74.4z"/>
							<path class="st21" d="M56.8,76.8c0,0-3.1,4.5,0,4.5C60,81.3,56.8,76.8,56.8,76.8z"/>
						</g>
					</g>
				</g>
			</g>
			<g>
				<path class="st14" d="M62.3,39.2l0-12c1.1-0.3,2-1.3,2-2.4c0-1.4-1.2-2.5-2.6-2.5l-10.8,0c-1.5,0-2.6,1.1-2.6,2.5
					c0,1.4,1.1,2.5,2.5,2.5l0,11.8c-5.8,2.2-10,7.6-9.9,13.9c0,8.2,7,14.9,15.6,14.8c8.6,0,15.5-6.7,15.5-15
					C71.9,46.7,67.9,41.4,62.3,39.2"/>
				<g>
					<g>
						<path class="st12" d="M43,53c0,7.1,6,12.8,13.4,12.7c7.4,0,13.3-5.8,13.3-12.8L43,53z"/>
					</g>
					<g>
						<circle class="st26" cx="55.7" cy="61.1" r="1"/>
						<circle class="st26" cx="59.7" cy="55.9" r="1.2"/>
						<circle class="st26" cx="57.4" cy="58.1" r="0.7"/>
						<circle class="st26" cx="58.5" cy="61.1" r="0.4"/>
						<circle class="st26" cx="57.4" cy="63.5" r="0.7"/>
						<circle class="st26" cx="55.2" cy="55.9" r="0.5"/>
					</g>
				</g>
			</g>
			<g>
				
					<rect x="27.5" y="100.3" transform="matrix(1 -3.382780e-03 3.382780e-03 1 -0.3475 0.2169)" class="st12" width="72.9" height="5.1"/>
				<g>
					<g>
						<rect x="43" y="28.4" class="st12" width="40.5" height="3"/>
						<path class="st12" d="M65.4,29.9c0,1.7-1.3,3-3,3H50.3c-1.7,0-3-1.3-3-3l0,0c0-1.7,1.3-3,3-3h12.1
							C64,26.9,65.4,28.2,65.4,29.9L65.4,29.9z"/>
					</g>
					<g>
						<rect x="83.2" y="18" class="st12" width="3.8" height="84.9"/>
						<g>
							<circle class="st12" cx="85" cy="29.9" r="5"/>
							<circle class="st21" cx="85" cy="29.9" r="3"/>
						</g>
					</g>
				</g>
			</g>
		</g>
	</g>
</g>
<g id="circulo">
	<circle class="st27" cx="65" cy="65" r="62"/>
</g>
</svg>
