<?xml version="1.0" encoding="utf-8"?>
<!-- Generator: Adobe Illustrator 21.1.0, SVG Export Plug-In . SVG Version: 6.00 Build 0)  -->
<svg version="1.1" id="Capa_1" xmlns="http://www.w3.org/2000/svg" xmlns:xlink="http://www.w3.org/1999/xlink" x="0px" y="0px"
	 viewBox="0 0 1230 305" style="enable-background:new 0 0 1230 305;" xml:space="preserve">
<style type="text/css">
	.st0{fill:#FFFFFF;}
</style>
<title>Logo CNA svg</title>
<path class="st0" d="M1222.1,237.3c0,4.5-1.3,8-5,8c-3.8,0-5-3.5-5-8s1.3-7.9,5-7.9C1220.9,229.4,1222.1,232.9,1222.1,237.3z
	 M1217.1,243.3c2.3,0,3-2.7,3-6s-0.6-5.9-3-5.9c-2.3,0-3,2.6-3,5.9C1214.1,240.7,1214.8,243.3,1217.1,243.3L1217.1,243.3z"/>
<path class="st0" d="M1200.4,243.3c0-5.6,7.2-5.3,7.2-9.4c0.1-1.3-1-2.4-2.3-2.5c-0.1,0-0.1,0-0.2,0c-1.3,0-2.2,0.7-2.2,1.5v0.6
	h-1.9v-1.3c0-2,2.5-2.8,4.2-2.8c2.3-0.1,4.3,1.7,4.4,4c0,0.1,0,0.3,0,0.4c0,5.3-7.2,5.4-7.2,8.9c0,0.3,0.2,0.4,0.5,0.4h5
	c0.2,0,0.5-0.1,0.5-0.4v-0.1v-0.9h1.8v1.9c0,1-0.4,1.4-1.3,1.4h-7.2C1200.6,245.1,1200.4,244.5,1200.4,243.3z"/>
<path class="st0" d="M1196.7,237.3c0-3.3-0.7-5.9-3.1-5.9s-3,2.6-3,5.9c0,3.3,0.6,6,3,6S1196.7,240.6,1196.7,237.3z M1188.7,237.3
	c0-4.4,1.2-7.9,5-7.9s5,3.5,5,7.9s-1.3,8-5,8S1188.7,241.8,1188.7,237.3z"/>
<path class="st0" d="M1184.2,233.8c0-1.3-1-2.4-2.3-2.4c-0.1,0-0.1,0-0.2,0c-1.3,0-2.2,0.7-2.2,1.5v0.6h-1.8v-1.3
	c0-2,2.4-2.8,4.1-2.8c2.3-0.1,4.3,1.7,4.4,4c0,0.1,0,0.3,0,0.4c0,5.3-7.2,5.4-7.2,8.9c0,0.3,0.2,0.4,0.5,0.4h5
	c0.2,0,0.5-0.1,0.5-0.4v-0.1v-0.9h1.8v1.9c0,1-0.4,1.4-1.3,1.4h-7.2c-1.1,0-1.4-0.5-1.4-1.8C1177,237.6,1184.2,238,1184.2,233.8z"/>
<path class="st0" d="M1165.5,235.4c-1.5,0.1-2.8,1.2-3,2.8h5.5c0.1-1.4-0.9-2.6-2.3-2.8C1165.6,235.4,1165.6,235.4,1165.5,235.4z
	 M1162.4,239.8c-0.1,1.9,1.4,3.6,3.3,3.7h0.1c1.2,0,2.3-0.5,3.1-1.3l0.8,1.5c-1.1,1-2.5,1.5-3.9,1.5c-3,0-5.4-2.4-5.4-5.4
	c0-0.1,0-0.2,0-0.4c0-3.5,2.2-5.8,5.1-5.8s4.4,2.3,4.4,5.2c0,0.3,0,0.8,0,0.8L1162.4,239.8z"/>
<path class="st0" d="M1154.7,234c0.6-0.1,1.2,0.3,1.3,1c0,0.1,0,0.2,0,0.3v0.7c0,0.2,0,0.5,0,0.7l0,0c0.3-1.6,1.6-2.7,3.2-2.8
	c0.2,0,0.4,0,0.5,0v2.1c-0.2,0-0.4,0-0.6,0c-1.4,0.1-2.6,1.2-2.8,2.6c-0.2,0.6-0.3,1.3-0.2,2v4.5h-1.9v-8.7c0-0.4-0.2-0.5-0.4-0.5
	h-0.8V234H1154.7z"/>
<path class="st0" d="M1149.7,239.5c0-2.4-1.2-3.9-2.9-3.9c-1.5,0-2.9,1.1-2.9,4c0,2,0.9,3.9,2.8,3.9
	C1148.3,243.5,1149.7,242,1149.7,239.5z M1151.6,239.5c0,3.5-2,5.8-4.6,5.8c-1.3,0-2.5-0.7-3.2-1.8v1.5h-1.8v-13
	c0-0.4-0.2-0.5-0.5-0.5h-0.8v-1.8h2c0.9,0,1.3,0.4,1.3,1.4v4.5c0.7-1.2,2-1.8,3.3-1.8C1149.9,233.8,1151.6,236.2,1151.6,239.5z"/>
<path class="st0" d="M1144.3,211c0.2-1.9-1.2-3.7-3.1-3.9s-3.7,1.2-3.9,3.1c0,0.3,0,0.5,0,0.8c-0.2,1.9,1.2,3.7,3.1,3.9
	s3.7-1.2,3.9-3.1C1144.3,211.6,1144.3,211.3,1144.3,211z M1140.8,216.8c-3.2,0.2-5.9-2.3-6.1-5.4c-0.2-3.2,2.3-5.9,5.4-6.1
	c3.2-0.2,5.9,2.3,6.1,5.4c0,0.1,0,0.2,0,0.3c0.1,3-2.2,5.6-5.3,5.7C1140.9,216.8,1140.8,216.8,1140.8,216.8z"/>
<rect x="1130.9" y="201.2" class="st0" width="1.7" height="2.2"/>
<path class="st0" d="M1134,214.7v1.8h-1.9c-0.9,0-1.3-0.4-1.3-1.4v-7.3c0-0.2-0.1-0.4-0.4-0.5c0,0,0,0-0.1,0h-0.8v-1.8h1.9
	c0.9,0,1.3,0.4,1.3,1.4v7.3c0,0.4,0.2,0.5,0.5,0.5H1134z"/>
<path class="st0" d="M1136.7,243.6v-5.2c0-1.5-0.3-2.8-1.8-2.8s-2.4,1.3-2.8,2.8c-0.1,0.5-0.1,1-0.1,1.5v5h-2v-6.6
	c0-1.5-0.2-2.8-1.8-2.8s-2.5,1.4-2.9,2.9c-0.1,0.5-0.1,0.9-0.1,1.4v5h-2v-8.7c0-0.4-0.2-0.5-0.4-0.5h-0.8v-1.8h1.8
	c0.9,0,1.3,0.4,1.3,1.3v0.4c0,0.2,0,0.4,0,0.6l0,0c0.6-1.4,2-2.4,3.5-2.5c1.5-0.2,2.9,0.9,3.1,2.4v0.1l0,0c0.6-1.5,2-2.4,3.6-2.5
	c2.3,0,3.3,1.4,3.3,4.2v4.7c0,0.4,0.2,0.5,0.5,0.5h0.8v1.8h-2C1137.1,245.1,1136.7,244.6,1136.7,243.6z"/>
<path class="st0" d="M1122.5,207.1c-1.5,0-2.9,1.4-2.9,3.9s1.2,4,2.8,4c1.7,0,3-1.2,3-4C1125.4,209.1,1124.5,207.1,1122.5,207.1z
	 M1117.6,211c0-3.5,2-5.8,4.6-5.8c1.3-0.1,2.5,0.6,3.1,1.7v-3.5c0-0.4-0.2-0.5-0.5-0.5h-0.8v-1.8h2c0.9,0,1.3,0.4,1.3,1.4v11.6
	c0,0.4,0.1,0.5,0.4,0.5h0.8v1.8h-1.9c-0.6,0.1-1.1-0.3-1.2-0.9c0-0.1,0-0.2,0-0.3c0-0.2,0-0.4,0-0.5l0,0c-0.6,1.2-1.9,2-3.3,2
	C1119.3,216.8,1117.6,214.5,1117.6,211L1117.6,211z"/>
<path class="st0" d="M1116.2,235.4c-1.5,0.1-2.8,1.2-3,2.8h5.3C1118.7,236.8,1117.6,235.6,1116.2,235.4L1116.2,235.4z M1111.1,239.5
	c0-3.5,2.2-5.8,5.1-5.8s4.3,2.3,4.3,5.2v0.8h-7.4c-0.1,1.9,1.4,3.6,3.3,3.7h0.1c1.2,0,2.3-0.5,3.1-1.3l0.8,1.5
	c-1.1,1-2.5,1.5-3.9,1.5c-3,0-5.4-2.3-5.5-5.3C1111.1,239.8,1111.1,239.7,1111.1,239.5L1111.1,239.5z"/>
<path class="st0" d="M1111.6,206.9c-1.6,0.1-2.8,1.3-3,2.8h5.3C1113.9,208,1112.8,206.9,1111.6,206.9z M1106.5,211
	c0-3.5,2.2-5.8,5.1-5.8s4.4,2.3,4.4,5.2c0,0.3,0,0.9,0,0.9h-7.4c-0.1,2,1.5,3.6,3.5,3.7l0,0c1.1,0,2.2-0.5,3-1.3l0.8,1.5
	c-1.1,1-2.5,1.5-3.9,1.5c-3,0.1-5.4-2.3-5.5-5.3C1106.5,211.4,1106.5,211.2,1106.5,211L1106.5,211z"/>
<rect x="1106.7" y="229.7" class="st0" width="1.7" height="2.2"/>
<path class="st0" d="M1106.7,236.3c0-0.4-0.2-0.5-0.5-0.5h-0.8V234h1.9c0.9,0,1.3,0.4,1.3,1.4v7.3c0,0.4,0.2,0.5,0.5,0.5h0.8v1.8
	h-1.9c-0.9,0-1.3-0.4-1.3-1.4V236.3z"/>
<path class="st0" d="M1109.2,165.2c-2.2-0.2-4.1,1.3-4.4,3.5c-0.2,2.2,1.3,4.1,3.5,4.4c2.2,0.2,4.1-1.3,4.4-3.5c0-0.1,0-0.3,0-0.4
	c0.1-2-1.4-3.8-3.4-3.9C1109.2,165.2,1109.2,165.2,1109.2,165.2z M1109.2,174.9c-3.2,0.2-5.9-2.3-6.1-5.4c-0.2-3.2,2.3-5.9,5.4-6.1
	c3.2-0.2,5.9,2.3,6.1,5.4c0,0.1,0,0.2,0,0.3c0.1,3-2.2,5.6-5.3,5.7C1109.3,174.9,1109.2,174.9,1109.2,174.9z"/>
<path class="st0" d="M1100.2,152.3v-11.7c0-0.2-0.1-0.4-0.4-0.5c0,0,0,0-0.1,0h-0.8v-1.8h1.9c0.9,0,1.3,0.4,1.3,1.4v11.7
	c0,0.4,0.2,0.5,0.4,0.5h0.8v1.8h-1.8C1100.5,153.6,1100.2,153.3,1100.2,152.3z"/>
<path class="st0" d="M1100.3,235.6c-2.2,0.3-3.7,2.3-3.5,4.4c0.2,1.9,1.7,3.3,3.6,3.5c1.2-0.1,2.3-0.6,3.1-1.5l0.9,1.5
	c-1,1.2-2.6,1.9-4.2,1.9c-3.2-0.2-5.6-2.9-5.5-6.1c0.2-3,2.5-5.3,5.5-5.5c1.3,0,3.7,0.5,3.7,2.4v1.1h-1.8v-0.6
	C1102.2,236,1101.1,235.6,1100.3,235.6z"/>
<rect x="1090.5" y="229.7" class="st0" width="1.8" height="2.2"/>
<path class="st0" d="M1096.5,173c1.5,0,2.9-1.1,2.9-3.9c0-2-0.9-3.9-2.9-3.9c-1.5,0-2.9,1.4-2.9,3.9S1094.7,173,1096.5,173z
	 M1100.7,174.6c-0.6,0.1-1.1-0.3-1.2-0.9c0-0.1,0-0.2,0-0.3v-0.6l0,0c-0.6,1.3-1.9,2.1-3.3,2c-2.7,0-4.5-2.4-4.5-5.8
	s1.9-5.8,4.6-5.8c1.3-0.1,2.5,0.6,3.1,1.7l0,0c0-0.2,0-0.5,0-0.7v-2.7c0-0.4-0.2-0.5-0.5-0.5h-0.8v-1.8h1.8c0.9,0,1.3,0.4,1.3,1.4
	v11.6c0,0.4,0.2,0.5,0.4,0.5h0.8v1.8L1100.7,174.6z"/>
<path class="st0" d="M1091.7,245.1c-0.9,0-1.3-0.4-1.3-1.4v-7.3c0-0.4-0.1-0.5-0.4-0.5h-0.8V234h1.9c0.9,0,1.3,0.4,1.3,1.4v7.3
	c0,0.4,0.2,0.5,0.4,0.5h0.8v1.8h-1.9V245.1z"/>
<path class="st0" d="M1090.9,144.9v0.6h-1.8v-1.1c0-1.8,2.6-2.1,3.6-2.1c3.3,0,4.2,1.8,4.2,4.3v4.6c0,0.4,0.2,0.5,0.4,0.5h0.8v1.8
	h-1.8c-0.9,0-1.3-0.5-1.3-1.3c0-0.2,0-0.4,0-0.6l0,0c-0.5,1.3-1.8,2.2-3.2,2.2c-1.8,0.1-3.4-1.3-3.5-3.2c0-0.1,0-0.1,0-0.2
	c0-3.5,4.5-3.7,6.2-3.7h0.4v-0.1c0-1.9-0.6-2.6-2.3-2.6C1092.1,144.1,1090.9,144.2,1090.9,144.9z M1090.3,150.5
	c0,0.9,0.7,1.7,1.7,1.7c0.1,0,0.2,0,0.3,0c1.7,0,2.7-1.8,2.7-3.5v-0.4h-0.5C1092.9,148.4,1090.3,148.5,1090.3,150.5L1090.3,150.5z"
	/>
<path class="st0" d="M1098,209.3l3.3-8.1h2.1l0.9,13c0,0.2,0.1,0.4,0.4,0.5c0,0,0,0,0.1,0h0.7v1.9h-1.8c-0.9,0-1.3-0.4-1.3-1.4
	l-0.6-8.1c0-0.9,0-2.3,0-2.3s-0.4,1.4-0.8,2.3l-2.8,6.7h-1.7l-2.8-6.7c-0.4-0.8-0.8-2.3-0.8-2.3l0,0c0,0,0,1.4,0,2.3l-0.6,8.1
	c0,1-0.4,1.4-1.3,1.4h-1.8v-1.9h0.6c0.2,0,0.5-0.1,0.5-0.4v-0.1l0.9-13h2.1l3.3,8.1c0.4,0.8,0.7,2,0.7,2l0,0
	C1097.3,211.3,1097.6,210.1,1098,209.3z"/>
<path class="st0" d="M1084.5,173.2c1.7,0,2.7-1.8,2.7-3.4v-0.4h-0.5c-1.5,0-4.1,0.1-4.1,2.1c0,0.9,0.7,1.7,1.7,1.7
	C1084.4,173.2,1084.4,173.2,1084.5,173.2z M1085,163.4c3.3,0,4.2,1.8,4.2,4.3v4.6c0,0.4,0.2,0.5,0.5,0.5h0.8v1.8h-1.8
	c-0.6,0.1-1.2-0.3-1.3-1c0-0.1,0-0.2,0-0.3c0-0.2,0-0.4,0-0.6l0,0c-0.5,1.3-1.8,2.2-3.2,2.2c-1.8,0.1-3.4-1.2-3.5-3
	c0-0.1,0-0.2,0-0.3c0-3.6,4.5-3.8,6.2-3.8h0.4v-0.1c0-1.9-0.6-2.6-2.3-2.6c-0.5,0-1.7,0.1-1.7,0.8v0.6h-1.9v-1.1
	C1081.4,163.6,1084,163.3,1085,163.4L1085,163.4z"/>
<path class="st0" d="M1082.7,214.7v1.8h-2c-0.9,0-1.3-0.4-1.3-1.4v-11.6c0-0.4-0.2-0.5-0.5-0.5h-0.8v-1.8h2c0.9,0,1.3,0.4,1.3,1.4
	v11.6c0,0.4,0.2,0.5,0.5,0.5H1082.7z"/>
<path class="st0" d="M1078.6,144.3c0,0.2,0,0.4,0,0.6l0,0c0.6-1.5,2.1-2.5,3.8-2.5c2.4,0,3.5,1.4,3.5,4.2v4.7c0,0.4,0.2,0.5,0.4,0.5
	h0.8v1.8h-1.9c-0.9,0-1.3-0.4-1.3-1.4V147c0-1.5-0.3-2.8-1.9-2.8c-1.6,0.1-2.9,1.2-3.2,2.7c-0.2,0.5-0.2,1-0.2,1.5v5.1h-2V145
	c0-0.4-0.2-0.5-0.5-0.5h-0.8v-1.8h1.9c0.9,0,1.3,0.4,1.3,1.3L1078.6,144.3z"/>
<path class="st0" d="M1080.7,229.7c4.3,0,7.1,2.8,7.1,7.7s-2.8,7.7-7.1,7.7h-3.2c-0.9,0-1.3-0.4-1.3-1.4v-12.1h-1.3v-1.9H1080.7z
	 M1078.2,242.7c0,0.3,0.1,0.5,0.4,0.5h1.8c3.1,0,5.2-2,5.2-5.8s-2.1-5.8-5.2-5.8h-2.3L1078.2,242.7L1078.2,242.7z"/>
<path class="st0" d="M1076.4,174.6h-2v-8.7c0-0.4-0.2-0.5-0.4-0.5h-0.8v-1.8h1.8c0.6-0.1,1.2,0.3,1.3,1c0,0.1,0,0.2,0,0.3v0.7
	c0,0.2,0,0.5,0,0.7l0,0c0.3-1.6,1.6-2.7,3.2-2.8c0.2,0,0.4,0,0.5,0v2.1c-0.2,0-0.4,0-0.6,0c-1.4,0.1-2.6,1.2-2.8,2.6
	c-0.2,0.6-0.3,1.3-0.2,2V174.6z"/>
<path class="st0" d="M1072.5,206.9c-1.6,0-3,1.2-3.1,2.8h5.4C1074.9,208,1073.8,206.9,1072.5,206.9z M1076.8,215.2
	c-1.1,1-2.5,1.5-3.9,1.5c-3,0-5.4-2.4-5.4-5.4c0-0.1,0-0.2,0-0.4c0-3.5,2.2-5.8,5.1-5.8s4.4,2.3,4.4,5.2c0,0.3,0,0.9,0,0.9h-7.4
	c-0.1,2,1.5,3.6,3.4,3.7h0.1c1.1-0.1,2.2-0.5,3-1.3L1076.8,215.2z"/>
<rect x="1061.5" y="237.9" class="st0" width="5.9" height="1.8"/>
<path class="st0" d="M1068.8,152.1c2-0.1,3.6-1.9,3.5-3.9v-0.1c-0.2-1.9-2-3.3-3.9-3c-1.9,0.2-3.3,2-3,3.9
	C1065.5,150.8,1067,152.1,1068.8,152.1z M1068.8,142.4c3,0,5.5,2.5,5.5,5.5c0,0.1,0,0.1,0,0.2c0.2,3-2,5.7-5.1,5.9
	c-3,0.2-5.7-2-5.9-5.1c0-0.3,0-0.6,0-0.8c-0.1-3,2.2-5.6,5.2-5.7C1068.6,142.4,1068.7,142.4,1068.8,142.4z"/>
<path class="st0" d="M1069.2,168.9c0-2.8-1.3-3.7-2.8-3.7c-1.8,0-2.8,1.4-2.8,3.6c0,2.3,1.1,3.9,3,3.9
	C1067.9,172.7,1069.2,171.7,1069.2,168.9z M1072.2,163.6v1.8h-0.8c-0.3,0-0.5,0.1-0.5,0.4v8.3c0.2,2.6-1.7,4.8-4.2,5
	c-0.3,0-0.6,0-0.9,0c-1.2,0-2.4-0.3-3.5-0.9l0.6-1.7c0.9,0.5,1.8,0.7,2.8,0.7c1.6,0.2,3-0.9,3.2-2.5c0-0.2,0-0.4,0-0.6v-0.7
	c0-0.2,0-0.5,0-0.7l0,0c-0.6,1.1-1.8,1.8-3.1,1.7c-2.8,0-4.5-2.4-4.5-5.6c0-3.2,1.5-5.5,4.5-5.5c1.3-0.1,2.6,0.5,3.3,1.7v-0.4
	c-0.1-0.6,0.4-1.1,0.9-1.1c0.1,0,0.1,0,0.2,0L1072.2,163.6z"/>
<rect x="1058.9" y="138.3" class="st0" width="1.8" height="2.2"/>
<path class="st0" d="M1062.1,151.8v1.8h-2c-0.9,0-1.3-0.4-1.3-1.4V145c0-0.4-0.2-0.5-0.5-0.5h-0.8v-1.8h1.9c0.9,0,1.3,0.4,1.3,1.4
	v7.3c0,0.4,0.2,0.5,0.5,0.5L1062.1,151.8z"/>
<path class="st0" d="M1057.9,167.8c0.1-1.4-0.9-2.6-2.3-2.8h-0.1c-1.5,0.1-2.8,1.2-3,2.8H1057.9z M1055.6,163.3
	c2.8,0,4.4,2.3,4.4,5.2c0,0.2,0,0.8,0,0.8h-7.4c-0.1,1.9,1.4,3.6,3.3,3.7h0.1c1.2,0,2.3-0.5,3.1-1.3l0.8,1.5c-1.1,1-2.5,1.5-3.9,1.5
	c-3,0-5.4-2.4-5.4-5.4c0-0.1,0-0.2,0-0.4C1050.5,165.6,1052.7,163.3,1055.6,163.3z"/>
<path class="st0" d="M1059.7,209.5v4.7c0,0.4,0.1,0.5,0.4,0.5h0.8v1.8h-1.9c-0.9,0-1.3-0.4-1.3-1.4V210c0-1.5-0.3-2.7-1.9-2.7
	s-2.9,1.1-3.2,2.7c-0.2,0.5-0.3,1-0.2,1.5v5.2h-1.9V208c0-0.2-0.1-0.5-0.4-0.5h-0.1h-0.8v-1.8h1.9c0.6-0.1,1.1,0.3,1.2,0.9
	c0,0.1,0,0.2,0,0.3v1.1c0.7-1.6,2.2-2.6,3.9-2.6C1058.5,205.3,1059.7,206.7,1059.7,209.5z"/>
<path class="st0" d="M1055.8,150.5l0.8,1.5c-1,1.2-2.5,1.9-4.1,1.9c-3.2-0.2-5.6-2.9-5.5-6.1c0.2-3,2.5-5.3,5.5-5.5
	c1.3,0,3.7,0.5,3.7,2.4v1.2h-1.8v-0.6c0-0.8-1.1-1.1-1.9-1.1c-2.2,0.3-3.7,2.2-3.4,4.4c0.2,1.8,1.7,3.3,3.6,3.4
	C1053.9,152,1055,151.5,1055.8,150.5z"/>
<path class="st0" d="M1051.9,240.2c0.2-1.6-0.9-3-2.5-3.2c-0.1,0-0.3,0-0.4,0c-1.5,0-2.9,1.1-2.9,2.1c0,2,1.4,4.2,3.2,4.2
	S1051.9,242,1051.9,240.2z M1049.5,235.1c2.8,0.4,4.8,3,4.4,5.8c-0.3,2.3-2.2,4.1-4.5,4.4c-3,0-5.3-2.8-5.3-7.1c0-4,2-8.8,6.4-8.8
	c0.9,0,1.9,0.2,2.7,0.6l-0.6,1.8c-0.6-0.3-1.3-0.5-2-0.5c-2.6,0-4,2.6-4.3,5.3l0,0C1047,235.6,1048.2,235.1,1049.5,235.1
	L1049.5,235.1z"/>
<path class="st0" d="M1049.7,163.5v2.1c-0.2,0-0.4,0-0.6,0c-1.4,0.1-2.6,1.2-2.8,2.6c-0.2,0.6-0.3,1.3-0.2,2v4.5h-2V166
	c0-0.4-0.2-0.5-0.4-0.5h-0.9v-1.8h1.8c0.6-0.1,1.2,0.3,1.3,1c0,0.1,0,0.2,0,0.3v0.7c0,0.2,0,0.5,0,0.7l0,0c0.3-1.6,1.6-2.7,3.2-2.8
	C1049.3,163.5,1049.5,163.5,1049.7,163.5z"/>
<path class="st0" d="M1042.5,215c2-0.1,3.6-1.8,3.5-3.8v-0.1c0.2-1.9-1.2-3.7-3.1-3.9s-3.7,1.2-3.9,3.1c0,0.3,0,0.5,0,0.8
	C1038.9,213.1,1040.4,214.8,1042.5,215C1042.4,215,1042.5,215,1042.5,215z M1042.5,205.3c3.2-0.2,5.9,2.3,6.1,5.4
	c0.2,3.2-2.3,5.9-5.4,6.1c-3.2,0.2-5.9-2.3-6.1-5.4c0-0.1,0-0.2,0-0.3c-0.1-3.1,2.3-5.6,5.3-5.7
	C1042.4,205.3,1042.5,205.3,1042.5,205.3z"/>
<path class="st0" d="M1042.9,243.2v1.9h-8.3v-1.9h3.1v-10.8l0,0c-0.2,0.3-0.4,0.6-0.6,0.9l-1.3,1.4l-1.2-1.4l3.4-3.6h1.8v13.5
	L1042.9,243.2z"/>
<path class="st0" d="M1045.9,151.8v1.8h-1.9c-0.8,0-1.3-0.4-1.3-1.2V152c0-0.2,0-0.4,0-0.6l0,0c-0.6,1.5-2.1,2.5-3.7,2.6
	c-2.3,0-3.4-1.3-3.4-4.2V145c0-0.4-0.2-0.5-0.5-0.5h-0.8v-1.8h2c0.9,0,1.3,0.4,1.3,1.4v5.2c0,1.5,0.2,2.7,1.9,2.7
	c2.1,0,3.3-2,3.3-4.2v-5.2h2v8.7c0,0.4,0.2,0.5,0.5,0.5L1045.9,151.8z"/>
<path class="st0" d="M1039.8,164.1c0.2-1.4-0.8-2.7-2.2-2.9c-0.2,0-0.3,0-0.5,0h-2.6v5.9h2.6c1.5,0,2.7-1.1,2.7-2.6
	C1039.9,164.3,1039.8,164.2,1039.8,164.1z M1041.9,164.1c0.2,2.4-1.6,4.6-4,4.9c-0.1,0-0.3,0-0.4,0h-2.9v5.7h-2v-13.5h-1.3v-1.9h6.2
	c2.4-0.1,4.5,1.8,4.5,4.3C1041.9,163.7,1041.9,163.9,1041.9,164.1L1041.9,164.1z"/>
<path class="st0" d="M1033.2,151.8v1.8c-0.2,0-0.5,0-0.7,0c-2,0.2-3.7-1.3-3.9-3.3c0-0.3,0-0.5,0-0.8v-5.2h-1.3v-1.7h1.4v-3.1h1.9
	v3.1h2.4v1.7h-2.4v5c0,2.2,1.4,2.5,2.1,2.5C1032.9,151.9,1033,151.9,1033.2,151.8z"/>
<path class="st0" d="M1035,213.4l0.8,1.5c-2.2,2.2-5.8,2.1-7.9-0.1c-2.2-2.2-2.1-5.8,0.1-7.9c1-1,2.4-1.6,3.8-1.6
	c1.3,0,3.7,0.5,3.7,2.4v1.1h-1.8v-0.6c0-0.8-1.1-1.1-1.9-1.1c-2,0-3.6,1.7-3.5,3.6c0,0.1,0,0.2,0,0.3c-0.1,2,1.4,3.7,3.4,3.9
	c0.1,0,0.2,0,0.3,0C1033.2,214.9,1034.3,214.3,1035,213.4z"/>
<rect x="1023.1" y="138.3" class="st0" width="1.7" height="2.2"/>
<path class="st0" d="M1027.6,243.3c2.3,0,3-2.7,3-6s-0.6-5.9-3-5.9c-2.3,0-3,2.6-3,5.9C1024.6,240.7,1025.3,243.3,1027.6,243.3z
	 M1027.6,245.3c-3.8,0-5-3.5-5-8s1.2-7.9,5-7.9c3.8,0,5,3.5,5,7.9S1031.4,245.3,1027.6,245.3L1027.6,245.3z"/>
<path class="st0" d="M1023.3,195.6v-8.7c0-0.4-0.2-0.5-0.5-0.5h-0.8v-1.8h1.9c0.6-0.1,1.2,0.3,1.3,0.9c0,0.1,0,0.2,0,0.3v1.1
	c0.6-1.6,2.2-2.6,3.9-2.6c2.4,0,3.5,1.4,3.5,4.2v4.7c0,0.4,0.1,0.5,0.4,0.5h0.8v1.8h-2c-0.9,0-1.3-0.4-1.3-1.4V189
	c0-1.5-0.3-2.7-1.9-2.7s-2.9,1.1-3.3,2.7c-0.1,0.5-0.2,1-0.2,1.5v5.2L1023.3,195.6z"/>
<path class="st0" d="M1023.1,152.3V145c0-0.4-0.2-0.5-0.4-0.5h-0.8v-1.8h1.9c0.9,0,1.3,0.4,1.3,1.4v7.3c0,0.4,0.1,0.5,0.4,0.5h0.8
	v1.8h-1.9C1023.5,153.6,1023.1,153.3,1023.1,152.3z"/>
<polygon class="st0" points="1016,180.2 1018,180.2 1016.1,183 1014.5,183 "/>
<path class="st0" d="M1022.1,167.8c0-1.8-1.1-2.8-2.4-2.8c-1.5,0.1-2.8,1.2-3,2.8H1022.1z M1024,173.3c-1.1,1-2.5,1.5-3.9,1.5
	c-3,0-5.4-2.4-5.4-5.4c0-0.1,0-0.2,0-0.4c0-3.5,2.3-5.8,5.1-5.8s4.4,2.3,4.4,5.2c0,0.2,0,0.8,0,0.8h-7.4c-0.1,2,1.4,3.6,3.4,3.7h0.1
	c1.1,0,2.2-0.5,3-1.3L1024,173.3z"/>
<path class="st0" d="M1020.6,151.8v1.8c-0.2,0-0.5,0-0.7,0c-1.3,0-3.9-0.4-3.9-4.1v-5.2h-1.4v-1.7h1.4v-3.1h1.9v3.1h2.4v1.7h-2.4v5
	c0,2.2,1.4,2.5,2.2,2.5C1020.3,151.9,1020.4,151.9,1020.6,151.8z"/>
<path class="st0" d="M1018.8,190.1c-0.2-1.9-2-3.3-3.9-3.1s-3.3,2-3.1,3.9c0.2,1.7,1.7,3.1,3.4,3.1c2-0.1,3.6-1.7,3.5-3.7
	C1018.8,190.2,1018.8,190.1,1018.8,190.1z M1020.8,190.1c-0.1,3-2.7,5.4-5.7,5.3c-3-0.1-5.4-2.7-5.3-5.7c0.1-2.9,2.5-5.2,5.5-5.3
	C1018.4,184.4,1020.8,186.9,1020.8,190.1C1020.8,190,1020.8,190,1020.8,190.1z"/>
<path class="st0" d="M1020.8,241.7v1.9c0,1-0.4,1.4-1.3,1.4h-7.2c-1.1,0-1.4-0.5-1.4-1.8c0-5.6,7.2-5.3,7.2-9.4c0-1.3-1-2.4-2.3-2.4
	c-0.1,0-0.1,0-0.2,0c-1.3,0-2.2,0.7-2.2,1.5v0.6h-1.9v-1.3c0-2,2.5-2.8,4.2-2.8c2.3-0.1,4.3,1.7,4.4,4c0,0.1,0,0.3,0,0.4
	c0,5.3-7.2,5.4-7.2,8.9c0,0.3,0.2,0.4,0.5,0.4h5c0.2,0,0.5-0.1,0.5-0.4v-0.1v-0.9L1020.8,241.7z"/>
<path class="st0" d="M1019.8,214.7v1.8h-1.9c-0.9,0-1.3-0.4-1.3-1.4V210c0-1.5-0.3-2.7-1.9-2.7c-1.6,0-2.9,1.1-3.2,2.7
	c-0.2,0.5-0.2,1-0.2,1.5v5.2h-2V208c0-0.2-0.1-0.5-0.4-0.5h-0.1h-0.8v-1.8h1.9c0.8,0,1.3,0.4,1.3,1.2v0.4c0,0.2,0,0.4,0,0.6l0,0
	c0.6-1.6,2.1-2.6,3.8-2.6c2.4,0,3.5,1.4,3.5,4.2v4.7c0,0.4,0.2,0.5,0.4,0.5L1019.8,214.7z"/>
<rect x="1005.5" y="180.2" class="st0" width="1.8" height="2.2"/>
<path class="st0" d="M1013.4,150.7c-0.1,1.8-1.6,3.3-3.5,3.2c-0.1,0-0.2,0-0.3,0c-1.6,0-3-0.7-4-1.9l1-1.4c0.7,1,1.9,1.6,3.1,1.7
	c0.9,0,1.8-0.5,1.8-1.4c0-2-5.6-1.8-5.6-5.3c0-2.1,1.7-3.1,3.8-3.1c1.2,0,3.3,0.4,3.3,2.1v1h-1.7V145c0-0.6-0.9-0.9-1.5-0.9
	c-1.1,0-1.9,0.5-1.9,1.3C1007.9,147.5,1013.4,147,1013.4,150.7z"/>
<path class="st0" d="M1008.6,193.8v1.8h-1.9c-0.9,0-1.3-0.4-1.3-1.4v-7.3c0-0.4-0.1-0.5-0.4-0.5h-0.9v-1.8h1.9
	c0.9,0,1.3,0.4,1.3,1.4v7.3c0,0.4,0.2,0.5,0.4,0.5H1008.6z"/>
<path class="st0" d="M1010.3,169.1c0-2-0.9-3.9-2.8-3.9c-1.5,0-3,1.4-3,3.9s1.2,3.9,2.9,3.9C1008.9,173,1010.3,171.9,1010.3,169.1z
	 M1013.5,172.8v1.8h-1.9c-0.6,0.1-1.1-0.3-1.2-0.9c0-0.1,0-0.2,0-0.3v-0.6c-0.6,1.3-2,2.1-3.4,2c-2.7,0-4.5-2.4-4.5-5.8
	c0-3.4,1.9-5.8,4.6-5.8c1.3-0.1,2.5,0.6,3.1,1.7l0,0c0-0.2,0-0.5,0-0.7v-2.7c0-0.4-0.1-0.5-0.4-0.5h-0.8v-1.8h2
	c0.9,0,1.3,0.4,1.3,1.4v11.6c0,0.4,0.2,0.5,0.5,0.5L1013.5,172.8z"/>
<polygon class="st0" points="1004.1,201.2 1002.2,204 1000.6,204 1002.1,201.2 "/>
<path class="st0" d="M1004.9,211c0.2-1.9-1.2-3.7-3.1-3.9c-1.9-0.2-3.7,1.2-3.9,3.1c0,0.3,0,0.5,0,0.8c-0.3,1.9,1,3.7,3,4
	c1.9,0.3,3.7-1,4-3C1005,211.7,1005,211.4,1004.9,211z M1001.4,205.3c3.2-0.2,5.9,2.3,6.1,5.4c0.2,3.2-2.3,5.9-5.4,6.1
	c-3.2,0.2-5.9-2.3-6.1-5.4c0-0.1,0-0.2,0-0.3c-0.1-3.1,2.2-5.6,5.3-5.8H1001.4L1001.4,205.3z"/>
<path class="st0" d="M1001.8,238.2c0.1-1.4-0.9-2.6-2.3-2.8h-0.1c-1.5,0.1-2.8,1.2-3,2.8H1001.8z M999.5,233.8
	c2.8,0,4.3,2.3,4.3,5.2c0,0.3,0,0.8,0,0.8h-7.4c-0.1,2,1.4,3.6,3.4,3.7h0.1c1.1,0,2.2-0.5,3-1.3l0.9,1.5c-1.1,1-2.5,1.5-3.9,1.5
	c-3,0-5.4-2.4-5.4-5.3c0-0.1,0-0.3,0-0.4C994.4,236,996.5,233.8,999.5,233.8z"/>
<path class="st0" d="M1002.4,192.5l0.8,1.5c-2.2,2.2-5.8,2.1-7.9-0.1c-2.2-2.2-2.1-5.8,0.1-7.9c1-1,2.4-1.6,3.8-1.6
	c1.3,0,3.7,0.5,3.7,2.4v1.1h-1.7v-0.6c0-0.8-1.2-1.2-1.9-1.2c-2.2,0.3-3.7,2.3-3.5,4.4c0.2,1.9,1.7,3.3,3.6,3.5
	C1000.5,194,1001.6,193.4,1002.4,192.5z"/>
<path class="st0" d="M1004.7,151.8v1.8h-1.9c-0.9,0-1.3-0.4-1.3-1.4V147c0-1.5-0.2-2.8-1.9-2.8c-1.6,0.1-2.9,1.2-3.2,2.7
	c-0.2,0.5-0.2,1-0.2,1.5v5.1h-2V145c0-0.4-0.2-0.5-0.4-0.5H993v-1.8h1.9c0.9,0,1.3,0.4,1.3,1.3v0.4c0,0.2,0,0.4,0,0.6l0,0
	c0.7-1.5,2.2-2.5,3.8-2.5c2.4,0,3.5,1.4,3.5,4.2v4.7c0,0.4,0.2,0.5,0.5,0.5L1004.7,151.8z"/>
<rect x="991.6" y="201.2" class="st0" width="1.8" height="2.2"/>
<path class="st0" d="M990.2,207.4v-1.8h1.9c0.9,0,1.3,0.4,1.3,1.4v7.3c0,0.4,0.2,0.5,0.4,0.5h0.8v1.8h-1.9c-0.9,0-1.3-0.4-1.3-1.4
	v-7.3c0-0.2-0.1-0.5-0.4-0.5h-0.1H990.2z"/>
<polygon class="st0" points="990.3,151.8 991.7,151.8 991.7,153.6 987,153.6 987,151.8 988.4,151.8 988.4,140.2 987,140.2 
	987,138.3 991.7,138.3 991.7,140.2 990.3,140.2 "/>
<path class="st0" d="M992.3,169.3c-1.5,0-4.2,0.1-4.2,2.1c0,1,0.8,1.7,1.7,1.7c0.1,0,0.1,0,0.2,0c1.7,0,2.7-1.8,2.7-3.4v-0.4
	L992.3,169.3z M989.7,174.9c-1.8,0.1-3.3-1.3-3.4-3.1c0-0.1,0-0.2,0-0.3c0-3.6,4.4-3.8,6.2-3.8h0.5v-0.1c0-1.9-0.6-2.6-2.3-2.6
	c-0.5,0-1.7,0.1-1.7,0.8v0.6h-1.8v-1.1c0-1.8,2.6-2.1,3.5-2.1c3.3,0,4.2,1.8,4.2,4.3v4.6c0,0.4,0.1,0.5,0.4,0.5h0.8v1.8h-1.8
	c-0.9,0-1.3-0.5-1.3-1.3v-0.6C992.5,174,991.1,174.9,989.7,174.9L989.7,174.9z"/>
<path class="st0" d="M987.9,236.3c0-0.4-0.2-0.5-0.5-0.5h-0.8V234h1.8c0.6-0.1,1.2,0.3,1.3,1c0,0.1,0,0.2,0,0.3v0.7
	c0,0.2,0,0.5,0,0.7l0,0c0.3-1.6,1.6-2.7,3.2-2.8c0.2,0,0.4,0,0.5,0v2.1c-0.2,0-0.4,0-0.6,0c-1.4,0.1-2.6,1.2-2.8,2.6
	c-0.2,0.6-0.3,1.3-0.2,2v4.5h-2L987.9,236.3z"/>
<path class="st0" d="M986.6,194.2c1.7,0,2.7-1.9,2.7-3.5v-0.4h-0.5c-1.5,0-4.2,0.1-4.2,2.1c0,1,0.8,1.8,1.8,1.8
	C986.5,194.2,986.5,194.2,986.6,194.2z M989.3,188.7c0-2-0.6-2.7-2.3-2.7c-0.5,0-1.7,0.1-1.7,0.9v0.6h-1.8v-1.1
	c0-1.8,2.6-2.1,3.5-2.1c3.3,0,4.2,1.9,4.2,4.3v4.6c0,0.4,0.1,0.5,0.4,0.5h0.8v1.8h-1.9c-0.6,0.1-1.2-0.3-1.3-0.9c0-0.1,0-0.2,0-0.3
	v-0.6c-0.6,1.3-1.9,2.1-3.3,2.1c-1.8,0.1-3.3-1.3-3.4-3.1c0-0.1,0-0.2,0-0.3c0-3.6,4.5-3.8,6.2-3.8L989.3,188.7L989.3,188.7z"/>
<rect x="981.8" y="159.3" class="st0" width="1.8" height="2.2"/>
<path class="st0" d="M982.5,163.6c0.9,0,1.3,0.4,1.3,1.4v7.3c0,0.4,0.2,0.5,0.5,0.5h0.8v1.8h-2c-0.9,0-1.3-0.4-1.3-1.4v-7.3
	c0-0.4-0.2-0.5-0.5-0.5h-0.8v-1.8H982.5z"/>
<path class="st0" d="M989.3,214.9c-2.2,2.2-5.8,2.1-7.9-0.1s-2.1-5.8,0.1-7.9c1-1,2.4-1.6,3.8-1.6c1.3,0,3.7,0.5,3.7,2.4v1.1h-1.8
	v-0.6c0-0.8-1.1-1.1-1.9-1.1c-2.2,0.3-3.7,2.2-3.4,4.4c0.2,1.8,1.7,3.3,3.6,3.4c1.2-0.1,2.3-0.6,3.1-1.5L989.3,214.9z"/>
<path class="st0" d="M981.1,233.8c2.7,0,4.5,2.4,4.5,5.8c0,3.4-2,5.8-4.6,5.8c-1.3,0-2.5-0.7-3.2-1.8l0,0c0,0.3,0,0.6,0,0.8v0.8H976
	V232c0-0.4-0.2-0.5-0.5-0.5h-0.8v-1.8h2c0.9,0,1.3,0.4,1.3,1.4v4.5C978.4,234.4,979.7,233.7,981.1,233.8z M983.5,239.5
	c0-2.4-1.2-3.9-2.9-3.9s-2.9,1.1-2.9,4c0,2,0.9,3.9,2.8,3.9C982.2,243.5,983.5,242,983.5,239.5L983.5,239.5z"/>
<path class="st0" d="M975.7,193.7c1.4,0,2.7-0.9,2.7-3.8s-1.3-3.7-2.8-3.7c-1.8,0-2.8,1.4-2.8,3.6
	C972.8,192,973.9,193.7,975.7,193.7z M975.3,195.4c-2.8,0-4.5-2.4-4.5-5.6s1.5-5.5,4.5-5.5c1.3-0.1,2.6,0.5,3.3,1.7v-0.4
	c-0.1-0.6,0.4-1.1,0.9-1.1c0.1,0,0.1,0,0.2,0h1.9v1.8h-0.8c-0.3,0-0.5,0.1-0.5,0.4v8.3c0.2,2.6-1.8,4.9-4.4,5c-0.2,0-0.5,0-0.7,0
	c-1.2,0-2.4-0.4-3.5-0.9l0.6-1.7c0.9,0.5,1.8,0.7,2.8,0.7c1.6,0.2,3-0.9,3.2-2.5c0-0.2,0-0.4,0-0.6v-0.7c0-0.2,0-0.5,0-0.7l0,0
	C977.7,194.9,976.5,195.5,975.3,195.4z"/>
<path class="st0" d="M979.1,165.8v1.1h-1.8v-0.6c0-0.8-1.1-1.1-1.9-1.1c-2.2,0.3-3.7,2.3-3.5,4.4c0.2,1.9,1.7,3.3,3.6,3.5
	c1.2-0.1,2.3-0.6,3.1-1.5l0.8,1.5c-1,1.2-2.5,1.9-4.1,1.9c-3.2-0.2-5.6-2.9-5.5-6.1c0.2-3,2.5-5.3,5.5-5.5
	C976.7,163.3,979.1,163.9,979.1,165.8z"/>
<path class="st0" d="M970.8,213.4c0,1,0.8,1.8,1.8,1.8c0.1,0,0.1,0,0.2,0c1.5,0,2.7-1.9,2.7-3.5v-0.4H975
	C973.4,211.2,970.8,211.3,970.8,213.4z M968.8,213.5c0-3.6,4.5-3.7,6.2-3.7h0.4v-0.1c0-2-0.6-2.7-2.3-2.7c-0.5,0-1.7,0.2-1.7,0.9
	v0.6h-1.8v-1.1c0-1.8,2.6-2.1,3.5-2.1c3.3,0,4.2,1.9,4.2,4.3v4.6c0,0.4,0.2,0.5,0.4,0.5h0.8v1.8h-1.8c-0.6,0.1-1.2-0.3-1.3-0.9
	c0-0.1,0-0.2,0-0.3c0-0.2,0-0.4,0-0.6l0,0c-0.5,1.3-1.8,2.1-3.2,2.1c-1.8,0.1-3.4-1.2-3.5-3C968.8,213.7,968.8,213.6,968.8,213.5
	L968.8,213.5z"/>
<path class="st0" d="M968.6,144.5v-1.8h1.8c0.9,0,1.3,0.4,1.3,1.3v0.4c0,0.2,0,0.4,0,0.6l0,0c0.6-1.5,2.1-2.5,3.8-2.5
	c2.4,0,3.5,1.4,3.5,4.2v4.7c0,0.4,0.2,0.5,0.5,0.5h0.8v1.8h-1.9c-0.9,0-1.3-0.4-1.3-1.4v-5.2c0-1.5-0.3-2.8-1.9-2.8
	c-1.6,0.1-2.9,1.2-3.2,2.7c-0.2,0.5-0.2,1-0.2,1.5v5.1h-2V145c0-0.4-0.2-0.5-0.5-0.5H968.6z"/>
<rect x="966.3" y="180.2" class="st0" width="1.8" height="2.2"/>
<path class="st0" d="M966.9,184.6c0.9,0,1.3,0.4,1.3,1.4v7.3c0,0.4,0.2,0.5,0.5,0.5h0.8v1.8h-2c-0.9,0-1.3-0.4-1.3-1.4v-7.3
	c0-0.4-0.2-0.5-0.5-0.5H965v-1.8H966.9z"/>
<polygon class="st0" points="964.6,138.3 962.7,141 961.2,141 962.6,138.3 "/>
<path class="st0" d="M966.3,214.2c0,0.4,0.2,0.5,0.4,0.5h0.8v1.8h-1.9c-0.9,0-1.3-0.4-1.3-1.4v-11.6c0-0.4-0.2-0.5-0.4-0.5h-0.8
	v-1.8h1.9c0.9,0,1.3,0.4,1.3,1.4V214.2z"/>
<path class="st0" d="M960.3,165.9c0.6-1.5,2.1-2.5,3.8-2.6c2.4,0,3.5,1.4,3.5,4.2v4.7c0,0.4,0.2,0.5,0.5,0.5h0.8v1.8H967
	c-0.9,0-1.3-0.4-1.3-1.4V168c0-1.5-0.3-2.8-1.9-2.8c-1.6,0.1-2.9,1.2-3.2,2.7c-0.2,0.5-0.2,1-0.2,1.5v5.2h-2V166
	c0-0.4-0.2-0.5-0.4-0.5h-0.8v-1.8h1.8c0.9,0,1.3,0.4,1.3,1.3v0.4C960.3,165.5,960.3,165.7,960.3,165.9L960.3,165.9z"/>
<path class="st0" d="M963.1,195.7c-2,0.2-3.7-1.3-3.9-3.3c0-0.3,0-0.5,0-0.8v-5.3h-1.3v-1.7h1.4v-3h1.9v3h2.4v1.7h-2.4v5
	c0,2.2,1.4,2.5,2.1,2.5c0.2,0,0.3,0,0.5,0v1.8C963.6,195.7,963.3,195.7,963.1,195.7z"/>
<path class="st0" d="M956.5,148.1c-0.2-3,2.2-5.6,5.2-5.8s5.6,2.2,5.8,5.2c0,0.2,0,0.4,0,0.6c0.2,3-2.2,5.6-5.2,5.8
	s-5.6-2.2-5.8-5.2C956.5,148.5,956.5,148.3,956.5,148.1z M958.5,148.1c0.2,1.9,1.9,3.4,3.8,3.2c1.9-0.2,3.4-1.9,3.2-3.8
	c-0.2-1.8-1.7-3.2-3.5-3.2c-2,0-3.6,1.7-3.5,3.7C958.5,148,958.5,148,958.5,148.1z"/>
<path class="st0" d="M962.1,235.7c-1.5,0.2-2.7,1.4-2.9,2.9c-0.1,0.5-0.1,0.9-0.1,1.4v5h-2v-8.7c0-0.4-0.2-0.5-0.5-0.5h-0.8V234h1.8
	c0.9,0,1.3,0.4,1.3,1.3v0.4c0,0.2,0,0.4,0,0.6l0,0c0.6-1.4,2-2.4,3.5-2.5c1.5-0.2,2.9,0.9,3.1,2.4l0,0l0,0c0.6-1.5,2-2.4,3.6-2.5
	c2.3,0,3.3,1.4,3.3,4.2v4.7c0,0.4,0.2,0.5,0.5,0.5h0.8v1.8h-2c-0.9,0-1.3-0.4-1.3-1.4v-5.2c0-1.5-0.3-2.8-1.8-2.8
	c-1.5,0.2-2.6,1.4-2.8,2.8c-0.1,0.5-0.1,1-0.1,1.5v5h-2v-6.6C963.8,237,963.6,235.7,962.1,235.7z"/>
<rect x="952.1" y="138.3" class="st0" width="1.8" height="2.2"/>
<path class="st0" d="M955.3,151.8v1.8h-2c-0.9,0-1.3-0.4-1.3-1.4V145c0-0.4-0.2-0.5-0.5-0.5h-0.8v-1.8h2c0.9,0,1.3,0.4,1.3,1.4v7.3
	c0,0.4,0.2,0.5,0.5,0.5L955.3,151.8z"/>
<path class="st0" d="M960.4,216.6c-0.6,0.1-1.2-0.3-1.3-0.9c0-0.1,0-0.2,0-0.3v-1l0,0c-0.6,1.5-2.1,2.5-3.7,2.5
	c-2.3,0-3.4-1.3-3.4-4.2V208c0-0.2-0.1-0.4-0.4-0.5c0,0,0,0-0.1,0h-0.8v-1.8h1.9c0.6-0.1,1.2,0.3,1.3,1c0,0.1,0,0.2,0,0.3v5.2
	c0,1.5,0.3,2.7,1.9,2.7c2.1,0,3.3-2,3.3-4.2v-5.1h1.9v8.7c0,0.4,0.2,0.5,0.5,0.5h0.8v1.8H960.4z"/>
<path class="st0" d="M956.7,192.7c-0.1,1.8-1.6,3.3-3.5,3.2c-0.1,0-0.2,0-0.3,0c-1.6,0-3.1-0.7-4-1.9l1-1.4c0.8,0.9,1.9,1.5,3.1,1.5
	c0.9,0,1.8-0.4,1.8-1.4c0-2-5.5-1.7-5.5-5.3c0-2.1,1.7-3.1,3.7-3.1c1.3,0,3.4,0.5,3.4,2.1v1.1h-1.8v-0.6c0-0.6-0.9-0.9-1.5-0.9
	c-1.1,0-1.9,0.4-1.9,1.3C951.1,189.4,956.7,189,956.7,192.7z"/>
<path class="st0" d="M953.8,167.8c0.1-1.4-0.9-2.6-2.3-2.8h-0.1c-1.5,0.1-2.8,1.2-3,2.8H953.8z M948.3,169.4
	c-0.1,1.9,1.4,3.6,3.3,3.7h0.1c1.2,0,2.3-0.5,3.1-1.3l0.8,1.5c-1.1,1-2.5,1.5-3.9,1.5c-3,0-5.4-2.4-5.4-5.4c0-0.1,0-0.2,0-0.4
	c0-3.5,2.2-5.8,5.1-5.8c2.9,0,4.4,2.3,4.4,5.2c0,0.2,0,0.8,0,0.8L948.3,169.4z"/>
<path class="st0" d="M950.1,233.8c2.8,0,4.3,2.3,4.3,5.2c0,0.3,0,0.8,0,0.8h-7.5c-0.1,2,1.5,3.6,3.5,3.7l0,0c1.2,0,2.3-0.5,3.1-1.3
	l0.8,1.5c-1.1,1-2.5,1.5-3.9,1.5c-3,0-5.4-2.4-5.4-5.3c0-0.1,0-0.3,0-0.4C945,236,947.2,233.8,950.1,233.8z M952.5,238.2
	c0.1-1.4-0.9-2.6-2.3-2.8h-0.1c-1.5,0.1-2.8,1.2-3,2.8H952.5z"/>
<path class="st0" d="M946.9,149.4c0,2.2,1.4,2.5,2.1,2.5c0.2,0,0.3,0,0.5,0v1.8c-0.2,0-0.4,0-0.6,0c-2,0.2-3.7-1.3-3.9-3.3
	c0-0.3,0-0.5,0-0.8v-5.3h-1.3v-1.7h1.4v-3.1h1.9v3.1h2.4v1.7H947v5.1H946.9z"/>
<rect x="940.6" y="229.7" class="st0" width="1.8" height="2.2"/>
<path class="st0" d="M945.9,215c1.2-0.1,2.3-0.6,3.1-1.5l0.8,1.5c-2.2,2.2-5.8,2.1-7.9-0.1c-2.2-2.2-2.1-5.8,0.1-7.9
	c1-1,2.4-1.6,3.8-1.6c1.3,0,3.7,0.5,3.7,2.4v1.1h-1.8v-0.6c0-0.8-1.2-1.1-1.9-1.1c-2,0-3.6,1.7-3.5,3.6c0,0.1,0,0.2,0,0.3
	c-0.1,2,1.4,3.7,3.4,3.9C945.7,215,945.8,215,945.9,215z"/>
<path class="st0" d="M943.8,243.2v1.8h-2c-0.9,0-1.3-0.4-1.3-1.4v-7.3c0-0.4-0.2-0.5-0.5-0.5h-0.9V234h2c0.9,0,1.3,0.4,1.3,1.4v7.3
	c0,0.4,0.2,0.5,0.5,0.5H943.8z"/>
<path class="st0" d="M945.4,188.8c0-1.8-1.1-2.8-2.4-2.8c-1.6,0-2.9,1.2-3.1,2.8H945.4z M946.4,192.8l0.8,1.5
	c-1.1,1-2.5,1.5-3.9,1.5c-3,0-5.4-2.4-5.4-5.4c0-0.1,0-0.2,0-0.4c0-3.5,2.2-5.8,5.1-5.8s4.4,2.3,4.4,5.2c0,0.3,0,0.8,0,0.8H940
	c-0.1,1.9,1.4,3.6,3.3,3.7c0.1,0,0.1,0,0.2,0C944.6,193.9,945.6,193.5,946.4,192.8L946.4,192.8z"/>
<path class="st0" d="M945.1,173c-1,1.2-2.5,1.9-4.1,1.9c-3.2-0.2-5.6-2.9-5.5-6.1c0.2-3,2.5-5.3,5.5-5.5c1.3,0,3.7,0.5,3.7,2.4v1.1
	h-1.8v-0.6c0-0.8-1.1-1.1-1.9-1.1c-2.2,0.3-3.7,2.3-3.5,4.4c0.2,1.9,1.7,3.3,3.6,3.5c1.2-0.1,2.3-0.6,3.1-1.5L945.1,173z"/>
<path class="st0" d="M936.9,145.4c0,2.1,5.5,1.7,5.5,5.3c-0.1,1.8-1.6,3.3-3.5,3.2c-0.1,0-0.2,0-0.3,0c-1.6,0-3.1-0.7-4.1-2l1-1.4
	c0.7,1,1.9,1.6,3.1,1.7c0.9,0,1.7-0.5,1.7-1.4c0-2-5.5-1.8-5.5-5.3c0-2.1,1.7-3.1,3.8-3.1c1.2,0,3.3,0.4,3.3,2.1v1h-1.7V145
	c0-0.6-0.9-0.9-1.5-0.9C937.6,144.1,936.9,144.5,936.9,145.4z"/>
<path class="st0" d="M937.5,241.9l0.8,1.5c-1,1.2-2.5,1.9-4.1,1.9c-3.2-0.2-5.6-2.9-5.5-6.1c0.2-3,2.5-5.3,5.5-5.5
	c1.3,0,3.7,0.5,3.7,2.4v1.1h-1.8v-0.6c0-0.8-1.1-1.1-1.9-1.1c-2.2,0.3-3.7,2.3-3.5,4.4c0.2,1.9,1.7,3.3,3.6,3.5
	C935.5,243.5,936.7,242.9,937.5,241.9z"/>
<path class="st0" d="M939.2,214.7v1.8h-1.9c-0.9,0-1.3-0.4-1.3-1.4V210c0-1.5-0.3-2.7-1.9-2.7c-1.6,0-2.9,1.1-3.2,2.7
	c-0.2,0.5-0.3,1-0.2,1.5v5.2h-1.9V208c0-0.2-0.1-0.5-0.4-0.5h-0.1h-0.8v-1.8h1.9c0.6-0.1,1.1,0.3,1.2,0.9c0,0.1,0,0.2,0,0.3v1.1
	c0.6-1.6,2.2-2.6,3.9-2.6c2.4,0,3.5,1.4,3.5,4.2v4.7c0,0.4,0.1,0.5,0.4,0.5L939.2,214.7z"/>
<path class="st0" d="M936.2,184.6h0.9v1.8H937c-0.3,0-0.6,0.1-0.7,0.4l-3.1,8.8h-2.3l-3.1-8.8c-0.1-0.3-0.3-0.4-0.6-0.4H927v-1.8h1
	c0.9,0,1.3,0.2,1.5,1.1l2.1,6.4c0.2,0.5,0.3,0.9,0.4,1.4l0,0c0,0,0.2-0.8,0.4-1.4l2.2-6.4C934.7,185,935.4,184.5,936.2,184.6
	C936.2,184.5,936.2,184.6,936.2,184.6z"/>
<rect x="924.4" y="229.7" class="st0" width="1.8" height="2.2"/>
<path class="st0" d="M931.2,146.9c0-1.8-1.1-2.8-2.4-2.8c-1.6,0-2.9,1.2-3.1,2.8H931.2z M929.2,152.1c1.1,0,2.2-0.5,3-1.3l0.8,1.5
	c-1.1,1-2.5,1.5-3.9,1.5c-3,0-5.4-2.4-5.4-5.4c0-0.1,0-0.2,0-0.4c0-3.5,2.2-5.8,5.1-5.8s4.4,2.3,4.4,5.2c0,0.2,0,0.8,0,0.8h-7.4
	C925.7,150.3,927.2,152,929.2,152.1L929.2,152.1z"/>
<path class="st0" d="M928.7,163.3c3.2-0.2,5.9,2.3,6.1,5.4c0.2,3.2-2.3,5.9-5.4,6.1c-3.2,0.2-5.9-2.3-6.1-5.4c0-0.1,0-0.2,0-0.3
	c-0.1-3,2.2-5.6,5.3-5.7C928.6,163.3,928.6,163.3,928.7,163.3z M932.2,169.1c-0.2-1.9-2-3.3-3.9-3.1s-3.3,2-3.1,3.9
	c0.2,1.8,1.7,3.1,3.5,3.1C930.7,172.9,932.3,171.2,932.2,169.1L932.2,169.1L932.2,169.1z"/>
<rect x="923.3" y="201.2" class="st0" width="1.7" height="2.2"/>
<path class="st0" d="M926.2,235.4v7.3c0,0.4,0.2,0.5,0.4,0.5h0.8v1.8h-1.9c-0.9,0-1.3-0.4-1.3-1.4v-7.3c0-0.4-0.1-0.5-0.4-0.5H923
	V234h1.9C925.8,234,926.2,234.4,926.2,235.4z"/>
<path class="st0" d="M926.4,214.7v1.8h-1.9c-0.9,0-1.3-0.4-1.3-1.4v-7.3c0-0.2-0.1-0.4-0.4-0.5c0,0,0,0-0.1,0H922v-1.8h1.9
	c0.9,0,1.3,0.4,1.3,1.4v7.3c0,0.4,0.1,0.5,0.4,0.5H926.4z"/>
<path class="st0" d="M921.8,184.3c2.4,0,3.5,1.4,3.5,4.2v4.7c0,0.4,0.2,0.5,0.4,0.5h0.8v1.8h-1.9c-0.9,0-1.3-0.4-1.3-1.4V189
	c0-1.5-0.3-2.7-1.9-2.7c-1.6,0-2.9,1.1-3.2,2.7c-0.2,0.5-0.2,1-0.2,1.5v5.2h-2V187c0-0.4-0.2-0.5-0.5-0.5h-0.8v-1.8h1.9
	c0.6-0.1,1.2,0.3,1.3,1c0,0.1,0,0.2,0,0.3v0.4c0,0.2,0,0.4,0,0.6l0,0C918.6,185.4,920.1,184.3,921.8,184.3z"/>
<path class="st0" d="M918.7,146.1h1.8c0.9,0,1.3,0.4,1.3,1.4v6.2H920v-1.5c-1.2,1.2-2.8,1.9-4.5,1.8c-3.8,0-6.9-3.2-6.9-8
	c-0.2-4.1,2.9-7.6,7-7.8c0.1,0,0.1,0,0.2,0c1.9-0.1,3.7,0.6,5,1.8l-1.1,1.5c-1.1-1-2.4-1.5-3.9-1.5c-3,0.2-5.3,2.7-5.1,5.7
	c0,0.1,0,0.1,0,0.2c0,3.6,2.3,6,5.2,6c1.6-0.1,3-0.8,4-2v-1.5c0-0.2-0.1-0.5-0.4-0.5h-0.1h-0.8L918.7,146.1z"/>
<polygon class="st0" points="912.2,182.1 912.2,193.7 913.6,193.7 913.6,195.6 908.9,195.6 908.9,193.7 910.2,193.7 910.2,182.1 
	908.9,182.1 908.9,180.2 913.6,180.2 913.6,182.1 "/>
<path class="st0" d="M914.5,172.7c3.1,0,5.2-2,5.2-5.8s-2.1-5.8-5.2-5.8h-2.3v11.1c0,0.2,0.1,0.5,0.4,0.5h0.1H914.5z M921.7,166.9
	c0,4.9-2.8,7.7-7.2,7.7h-3.1c-0.9,0-1.3-0.4-1.3-1.4v-12.1h-1.3v-1.9h5.5C918.8,159.3,921.7,162.1,921.7,166.9L921.7,166.9z"/>
<path class="st0" d="M914.5,243.2c3.1,0,5.2-2,5.2-5.8s-2.1-5.8-5.2-5.8h-2.3v11.1c0,0.2,0.1,0.5,0.4,0.5h0.1H914.5z M914.6,229.7
	c4.3,0,7.2,2.8,7.2,7.7s-2.8,7.7-7.2,7.7h-3.1c-0.9,0-1.3-0.4-1.3-1.4v-12.1h-1.3v-1.9H914.6z"/>
<path class="st0" d="M920.3,203.5l-4.5,13h-2.1l-4.5-13c0-0.3-0.3-0.5-0.6-0.5h-0.3v-1.9h1.1c1,0,1.3,0.2,1.7,1.3l3.1,9.4
	c0.3,0.8,0.6,2.1,0.6,2.1s0.3-1.3,0.5-2.1l3.1-9.4c0.4-1.1,0.6-1.3,1.7-1.3h1.1v1.9h-0.3C920.6,203.1,920.4,203.1,920.3,203.5z"/>
<path class="st0" d="M900.9,141.8c2.1,0,3.9,1.8,3.9,3.9c0,2.1-1.8,3.9-3.9,3.9c-2.1,0-3.9-1.7-3.9-3.8l0,0
	C897,143.6,898.8,141.8,900.9,141.8z"/>
<path class="st0" d="M897,189.9c0-2.1,1.7-3.9,3.8-3.9l0,0c2.1-0.3,4.1,1.2,4.4,3.4c0.3,2.1-1.2,4.1-3.4,4.4c-0.3,0-0.7,0-1,0
	C898.8,193.7,897.1,192,897,189.9z"/>
<path class="st0" d="M900.9,213.2c-2.1-0.3-3.6-2.2-3.4-4.4c0.2-1.8,1.6-3.2,3.4-3.4c2.1-0.3,4.1,1.2,4.4,3.4
	c0.3,2.1-1.2,4.1-3.4,4.4C901.6,213.2,901.2,213.2,900.9,213.2z"/>
<path class="st0" d="M904.8,168.6c0,2.1-1.8,3.9-3.9,3.9c-2.1,0-3.9-1.8-3.9-3.9c0-2.1,1.7-3.9,3.8-3.9l0,0
	C903.1,164.7,904.8,166.4,904.8,168.6z"/>
<rect x="867" y="122.5" class="st0" width="5.9" height="128.2"/>
<path class="st0" d="M842.2,236.2v-0.8h-1.1c-3.1,0-8.7,0.2-8.7,4.5c0,2,1.6,3.7,3.6,3.8c0.1,0,0.3,0,0.4,0
	C840,243.6,842.2,239.6,842.2,236.2z M842.2,231.8c0-4.1-1.4-5.6-4.7-5.6c-1.1,0-3.6,0.3-3.6,1.8v1.3H830V227c0-3.8,5.3-4.4,7.4-4.4
	c7,0,8.8,4,8.8,9.1v10c-0.1,0.5,0.3,0.9,0.8,1c0.1,0,0.1,0,0.2,0h1.8v3.9h-3.9c-1.3,0.2-2.5-0.8-2.7-2.1c0-0.2,0-0.4,0-0.7
	c0-0.5,0-0.9,0.1-1.4h-0.1c-1.1,2.8-3.8,4.6-6.8,4.6c-3.8,0.2-7.1-2.7-7.4-6.6c0-0.2,0-0.4,0-0.6c0-7.5,9.4-8,13-8h0.9H842.2z"/>
<path class="st0" d="M848.8,193.2c0,8.9-7.2,14.4-16.7,14.4c-7,0-13.6-3-18-8.4l5.1-7.7c0,0,5.5,6.9,12.9,6.9c3.3,0,5.9-1.5,5.9-4.6
	c0-6.6-22.9-6.5-22.9-21.8c0-9.4,7.8-13.7,16.9-13.7c5.9,0,15.3,2.1,15.3,9.7v4.9h-9.6v-2.3c0-2.2-3.1-3.3-5.5-3.3
	c-3.8,0-6.5,1.5-6.5,4.3C825.7,179,848.8,177.6,848.8,193.2z"/>
<path class="st0" d="M823,217v24.8c-0.1,0.5,0.3,0.9,0.8,1c0.1,0,0.1,0,0.2,0h1.7v3.9h-4c-1.8,0-2.6-0.9-2.6-2.5c0-0.7,0-1.3,0-1.3
	H819c-1.3,2.7-4.1,4.4-7.1,4.3c-5.8,0-9.5-5-9.5-12.2c0-7.5,4-12.3,9.7-12.3c2.7-0.2,5.3,1.2,6.6,3.6h0.1c-0.1-0.5-0.1-1-0.1-1.5
	v-5.9c0-0.7-0.3-1-0.9-1H816V214h4.1C822.2,214,823,214.9,823,217z M812.8,243.3c3.2,0,6.2-2.4,6.2-8.4c0-4.2-2-8.3-6.2-8.3
	c-3.3,0-6.2,3.1-6.2,8.4C806.7,240,809.2,243.3,812.8,243.3L812.8,243.3z"/>
<path class="st0" d="M793.3,235.4h-1.1c-3.1,0-8.7,0.2-8.7,4.5c0,2,1.6,3.7,3.6,3.8c0.1,0,0.3,0,0.4,0c3.5,0,5.8-4,5.8-7.4V235.4z
	 M779.4,240c0-7.5,9.4-8,13-8h0.9v-0.2c0-4.1-1.4-5.6-4.7-5.6c-1,0-3.5,0.3-3.5,1.8v1.3h-3.9V227c0-3.8,5.4-4.4,7.5-4.4
	c6.9,0,8.8,4,8.8,9.1v10c-0.1,0.5,0.3,0.9,0.8,1c0.1,0,0.1,0,0.2,0h1.7v3.9h-3.9c-1.3,0.2-2.5-0.8-2.7-2.1c0-0.2,0-0.4,0-0.7
	c0-0.8,0-1.4,0-1.4l0,0c-1.1,2.8-3.9,4.6-6.9,4.6c-3.8,0.2-7.1-2.8-7.3-6.6C779.3,240.4,779.3,240.2,779.4,240L779.4,240z"/>
<path class="st0" d="M798.3,183c0-8.7-5.8-14.7-12.9-14.7s-12.8,6.1-12.8,14.7c0,8.7,5.9,14.7,12.8,14.7S798.3,191.7,798.3,183z
	 M785.4,158.4c13.3,0,23.9,10.2,23.9,24.6c0,14.4-10.6,24.6-23.9,24.6s-23.7-10.2-23.7-24.6S772.2,158.4,785.4,158.4L785.4,158.4z"
	/>
<path class="st0" d="M776.4,246.7c-0.5,0.1-0.9,0.1-1.4,0.1c-2.7,0-8.3-0.9-8.3-8.7v-11.3h-2.8v-3.6h2.9v-6.4h4v6.4h5.2v3.6h-5.2
	v10.8c0,4.6,3,5.3,4.6,5.3c0.3,0,0.6,0,0.9-0.1L776.4,246.7z"/>
<polygon class="st0" points="755.2,218.7 755.2,214 758.8,214 758.8,218.7 756.4,218.7 "/>
<path class="st0" d="M759.1,226.2v15.6c-0.1,0.5,0.3,0.9,0.8,1c0.1,0,0.1,0,0.2,0h1.8v3.9h-4.1c-1.9,0-2.7-0.9-2.7-3v-15.6
	c0.1-0.5-0.3-0.9-0.8-1c-0.1,0-0.1,0-0.2,0h-1.8v-3.8h4C758.3,223.3,759.1,224.2,759.1,226.2z"/>
<path class="st0" d="M737.3,243.3c3.2,0,6.2-2.4,6.2-8.4c0-4.2-2-8.3-6.2-8.3c-3.3,0-6.2,3.1-6.2,8.4
	C731.2,240,733.8,243.3,737.3,243.3z M747.5,217v24.8c-0.1,0.5,0.3,0.9,0.8,1c0.1,0,0.1,0,0.2,0h1.7v3.9h-4c-1.8,0-2.6-0.9-2.6-2.5
	c0-0.7,0-1.3,0-1.3h-0.1c-1.3,2.7-4.1,4.4-7.1,4.3c-5.8,0-9.5-5-9.5-12.2c0-7.5,4-12.3,9.8-12.3c2.7-0.2,5.3,1.2,6.6,3.6h0.1
	c-0.1-0.5-0.1-1-0.1-1.5v-5.9c0-0.7-0.3-1-0.9-1h-1.8V214h4.1C746.7,214,747.5,214.9,747.5,217L747.5,217z"/>
<path class="st0" d="M726.4,140.9c5.9,0,7.3,6,10.8,6c2.4,0,3.5-2.8,3.5-5.8h6.7c0,8.3-3.2,12.6-9.7,12.6c-5.9,0-7.4-6-10.9-6
	c-2.4,0-3.5,2.7-3.5,5.8h-6.7C716.7,145.1,719.9,140.9,726.4,140.9z"/>
<path class="st0" d="M755.2,206.5h-8.1c-4.1,0-5.8-1.8-5.8-6.3v-21.6c0-5.8-1.4-9.6-6.8-9.6c-5.8,0-10.2,4-11.7,9.6
	c-0.6,2-0.9,4.1-0.8,6.2v21.6h-10.8v-35.1c0-1.4-0.6-2-1.8-2H706v-10h10c3.9,0,5.7,2,5.7,5.3v1.4c0,0.7-0.1,1.4-0.2,2h0.2
	c2.8-6,8.7-9.8,15.3-9.7c9.6,0,15.2,5.4,15.2,17.9v18.4c-0.1,1,0.5,1.9,1.5,2c0.1,0,0.2,0,0.4,0h3.4v9.8L755.2,206.5z"/>
<path class="st0" d="M714.2,226.2c-3.1,0-5.7,2.1-6.4,6h11.4C719.2,228.3,716.9,226.2,714.2,226.2z M715.1,243.3
	c2.4-0.1,4.6-1,6.3-2.7l1.8,3.1c-2.2,2.2-5.2,3.4-8.3,3.4c-6.8,0-11.4-5.3-11.4-12.2c-0.1-3.3,1-6.5,3.1-9c2-2.2,4.8-3.4,7.7-3.3
	c6.1,0,9.3,4.9,9.3,11c0,0.4,0,0.8,0,1.1c0,0.2,0,0.5,0,0.7h-15.9C708,240.5,711.3,243.3,715.1,243.3L715.1,243.3z"/>
<path class="st0" d="M700.6,227.4c-2.6,0-5,2-6,5.5c-0.4,1.4-0.6,2.8-0.5,4.2v9.6h-4.2v-18.6c0-0.6-0.3-1-0.9-1h-1.8v-3.8h3.9
	c1.9,0,2.8,0.8,2.8,2.7v1.5c0,0.5,0,1-0.1,1.5h0.1c1-3.4,3.5-6.2,6.8-6.2c0.4,0,0.7,0,1.1,0.1v4.4
	C701.4,227.4,701,227.4,700.6,227.4z"/>
<path class="st0" d="M684.2,226.5c0.2,0.4,0.2,0.9,0.2,1.4v2.4h-3.7V229c0-1.7-2.4-2.4-4-2.4c-4.2,0-7.4,3.4-7.4,8.4
	c0,5.3,3.6,8.3,7.5,8.3c2.6-0.1,5-1.3,6.7-3.3l1.8,3.2c-2.2,2.6-5.4,4-8.8,4c-3.1,0.1-6.1-1.2-8.3-3.5c-2.1-2.4-3.3-5.5-3.2-8.7
	c0-6.9,4.6-12.3,11.6-12.3C679,222.7,683.2,223.6,684.2,226.5z"/>
<path class="st0" d="M686.6,177l-6.3-47.1l-15.5,36.6L686.6,177z M700.3,170.1l2.6,20.5l-5.2,10.9l-39.5-18.9l-12.7,30.1l-17.2-8.3
	l13.2-29.9l-11.7-5.6l3.6-8.7l3.1-7.4l8.4,4l3.7,1.7l24.9-56.3l19.6,9.9L700.3,170.1z"/>
<path class="st0" d="M644.9,233.4h9l-3.3-9.9c-0.5-1.7-1.2-4.6-1.2-4.6l0,0c0,0-0.6,2.8-1.1,4.6L644.9,233.4z M651.6,214l9.4,27.6
	c0.1,0.7,0.7,1.2,1.4,1.1h0.6v4h-2.4c-2.1,0-2.8-0.6-3.4-2.7l-2.3-6.6h-11.1l-2.3,6.6c-0.7,2.1-1.4,2.7-3.5,2.7h-2.4v-4h0.6
	c0.7,0.1,1.3-0.4,1.4-1.1l0,0L647,214H651.6z"/>
<path class="st0" d="M620.1,145l16.3,7.9l-3.1,7.4l-2.4-1.1l-7.3,16.5l7.3,3.6l-2.6,5.3L606.4,174l-25.5,53.6L549.1,212l26.3-53
	l-74.3-35.9l9.3-19.8l120.4-76l37.3,16.9L620.1,145z M589.8,130.4L622.3,65L549,110.8L589.8,130.4z"/>
<polygon class="st0" points="334.1,42.3 285.6,153.6 280.4,153.6 258.5,102.8 "/>
<polygon class="st0" points="217.5,7.5 258.5,102.8 230.3,125.3 195.7,46.2 195.5,46 195.3,46.2 148.2,153.6 110.6,153.6 173.5,7.5 
	"/>
<polygon class="st0" points="230.3,125.3 242.7,153.6 195,153.6 "/>
<path class="st0" d="M30.4,200.9c0,0.3,0,0.5,0,0.7s0,0.4-0.1,0.5c0,0.1-0.1,0.3-0.2,0.4c-0.1,0.2-0.2,0.3-0.4,0.4
	c-0.3,0.3-0.7,0.5-1.1,0.8c-0.6,0.4-1.3,0.7-2,1c-0.9,0.4-1.8,0.6-2.7,0.8c-1.1,0.2-2.2,0.3-3.4,0.3c-2,0-3.9-0.3-5.7-1.1
	c-1.7-0.7-3.2-1.7-4.3-3.1c-1.3-1.5-2.2-3.2-2.8-5.1c-1.3-4.6-1.3-9.5,0-14.2c0.6-2,1.6-3.8,3-5.3c1.2-1.4,2.8-2.6,4.5-3.4
	c2.7-1.1,5.7-1.4,8.5-0.9c0.8,0.2,1.7,0.4,2.5,0.7c0.7,0.2,1.4,0.6,2,0.9c0.4,0.2,0.8,0.5,1.2,0.9c0.2,0.2,0.3,0.3,0.4,0.5
	c0.1,0.1,0.1,0.3,0.2,0.4c0,0.2,0.1,0.4,0.1,0.6c0,0.3,0,0.5,0,0.8s0,0.6,0,0.9c0,0.2-0.1,0.4-0.2,0.6c-0.1,0.1-0.1,0.3-0.2,0.4
	c-0.1,0.1-0.2,0.1-0.3,0.1c-0.4-0.1-0.7-0.2-1-0.5c-0.5-0.4-1.1-0.8-1.6-1.1c-0.8-0.4-1.6-0.8-2.4-1.1c-1.1-0.4-2.3-0.5-3.4-0.5
	c-1.4,0-2.7,0.3-3.9,0.9c-1.2,0.6-2.3,1.5-3.1,2.6c-0.9,1.2-1.6,2.6-1.9,4.1c-0.9,3.6-0.9,7.4,0,11c0.4,1.4,1,2.8,1.9,3.9
	c0.8,1,1.9,1.9,3.1,2.4c1.3,0.6,2.7,0.8,4.1,0.8c1.1,0,2.3-0.1,3.4-0.5c0.9-0.3,1.7-0.6,2.5-1.1c0.6-0.3,1.1-0.7,1.7-1.1
	c0.3-0.3,0.7-0.4,1-0.5c0.1,0,0.2,0,0.3,0c0.1,0.1,0.2,0.2,0.2,0.3c0.1,0.2,0.1,0.4,0.1,0.6C30.4,200.2,30.4,200.6,30.4,200.9z"/>
<path class="st0" d="M56.7,193.4c0,1.7-0.2,3.4-0.7,5.1c-0.4,1.5-1.2,2.8-2.2,4c-1,1.1-2.2,2-3.6,2.6c-1.6,0.7-3.3,1-5,0.9
	c-1.7,0-3.3-0.3-4.9-0.8c-1.3-0.5-2.5-1.3-3.4-2.4c-1-1.1-1.7-2.4-2.1-3.9c-0.5-1.7-0.7-3.4-0.7-5.1c0-1.7,0.2-3.4,0.7-5.1
	c0.4-1.5,1.2-2.8,2.1-4c1-1.1,2.2-2,3.6-2.6c1.6-0.6,3.3-1,5-0.9c1.7,0,3.3,0.3,4.9,0.8c1.3,0.5,2.5,1.3,3.4,2.4
	c1,1.1,1.7,2.4,2.1,3.8C56.4,189.9,56.7,191.6,56.7,193.4z M52.4,193.7c0-1.2-0.1-2.3-0.3-3.5c-0.2-1-0.6-2-1.1-2.9
	c-0.5-0.8-1.3-1.5-2.1-1.9c-1-0.5-2.2-0.8-3.3-0.7c-1.1,0-2.2,0.2-3.2,0.6c-0.9,0.4-1.6,1.1-2.2,1.8c-0.6,0.8-1,1.8-1.3,2.8
	c-0.3,1.2-0.4,2.4-0.4,3.6c0,1.2,0.1,2.3,0.3,3.5c0.2,1,0.6,2,1.1,2.8s1.3,1.5,2.1,1.9c1,0.5,2.2,0.8,3.3,0.7c1.1,0,2.1-0.2,3.1-0.6
	c0.9-0.4,1.6-1,2.2-1.8c0.6-0.8,1-1.8,1.3-2.8C52.2,196,52.4,194.9,52.4,193.7z"/>
<path class="st0" d="M96.2,204.9c0,0.1,0,0.2-0.1,0.3s-0.2,0.2-0.3,0.2c-0.2,0.1-0.4,0.1-0.6,0.2c-0.3,0-0.7,0-1,0s-0.7,0-1,0
	c-0.2,0-0.4-0.1-0.6-0.2c-0.1,0-0.3-0.1-0.3-0.2c-0.1-0.1-0.1-0.2-0.1-0.3v-13.8c0-0.9-0.1-1.8-0.2-2.6c-0.1-0.7-0.4-1.4-0.8-2
	c-0.3-0.5-0.8-1-1.4-1.3s-1.3-0.5-2-0.4c-1.1,0-2.1,0.4-2.9,1.1c-1.2,1-2.2,2-3.2,3.2v15.8c0,0.1,0,0.2-0.1,0.3s-0.2,0.2-0.3,0.2
	c-0.2,0.1-0.4,0.1-0.6,0.2c-0.7,0.1-1.3,0.1-2,0c-0.2,0-0.4-0.1-0.6-0.2c-0.1,0-0.2-0.1-0.3-0.2c-0.1-0.1-0.1-0.2-0.1-0.3v-13.7
	c0-0.9-0.1-1.8-0.3-2.6c-0.2-0.7-0.4-1.4-0.8-2c-0.3-0.5-0.8-1-1.4-1.3s-1.3-0.5-2-0.4c-1.1,0-2.1,0.4-2.9,1.1c-1.2,1-2.2,2-3.1,3.2
	V205c0,0.1,0,0.2-0.1,0.3s-0.2,0.2-0.3,0.2c-0.2,0.1-0.4,0.1-0.6,0.2c-0.3,0-0.7,0-1,0s-0.7,0-1,0c-0.2,0-0.4-0.1-0.6-0.2
	c-0.1,0-0.2-0.1-0.3-0.2c-0.1-0.1-0.1-0.2-0.1-0.3v-22.6c0-0.1,0-0.2,0-0.3c0.1-0.1,0.2-0.2,0.3-0.2c0.2-0.1,0.4-0.1,0.6-0.2H65h0.9
	c0.2,0,0.4,0.1,0.6,0.2c0.1,0.1,0.2,0.1,0.3,0.2c0.1,0.1,0.1,0.2,0.1,0.3v3c1.1-1.2,2.3-2.3,3.7-3.1c1.1-0.6,2.3-1,3.6-1
	c0.9,0,1.7,0.1,2.5,0.3c0.7,0.2,1.4,0.5,2,0.9s1,0.9,1.5,1.4c0.4,0.6,0.7,1.2,1,1.8c0.7-0.7,1.4-1.4,2.1-2.1c0.6-0.5,1.3-1,2-1.4
	c0.6-0.3,1.2-0.6,1.8-0.8c0.6-0.2,1.2-0.2,1.8-0.2c1.3,0,2.5,0.2,3.7,0.8c1,0.5,1.8,1.2,2.4,2c0.6,0.9,1.1,1.9,1.3,3
	c0.3,1.2,0.4,2.4,0.4,3.6L96.2,204.9z"/>
<path class="st0" d="M108.4,174.7c0.1,0.7-0.1,1.4-0.6,2c-0.6,0.4-1.3,0.6-2,0.5c-0.7,0.1-1.4-0.1-2-0.5c-0.4-0.6-0.6-1.3-0.5-1.9
	c-0.1-0.7,0.1-1.4,0.6-2c0.6-0.4,1.3-0.6,2-0.5c0.7-0.1,1.4,0.1,2,0.5C108.3,173.3,108.5,174,108.4,174.7z M107.9,204.9
	c0,0.1,0,0.2-0.1,0.3s-0.2,0.2-0.3,0.2c-0.2,0.1-0.4,0.1-0.6,0.2c-0.3,0-0.7,0-1,0s-0.7,0-1,0c-0.2,0-0.4-0.1-0.6-0.2
	c-0.1,0-0.2-0.1-0.3-0.2c-0.1-0.1-0.1-0.2-0.1-0.3v-22.6c0-0.1,0-0.2,0.1-0.3s0.2-0.2,0.3-0.2c0.2-0.1,0.4-0.1,0.6-0.2
	c0.3,0,0.7,0,1,0s0.7,0,1,0c0.2,0,0.4,0.1,0.6,0.2c0.1,0.1,0.2,0.1,0.3,0.2c0.1,0.1,0.1,0.2,0.1,0.3V204.9z"/>
<path class="st0" d="M129.7,198.8c0,1.1-0.2,2.1-0.6,3.1c-0.4,0.9-1,1.7-1.8,2.3s-1.8,1.1-2.8,1.4c-1.2,0.3-2.4,0.5-3.6,0.5
	c-1.4,0-2.9-0.2-4.3-0.7c-0.5-0.2-1-0.4-1.5-0.6c-0.3-0.1-0.6-0.3-0.9-0.6c-0.2-0.2-0.3-0.4-0.4-0.7c-0.1-0.4-0.1-0.8-0.1-1.2
	c0-0.3,0-0.5,0-0.8c0-0.2,0.1-0.4,0.1-0.5s0.1-0.2,0.2-0.3s0.2-0.1,0.3-0.1c0.3,0,0.6,0.2,0.8,0.3c0.4,0.2,0.8,0.5,1.3,0.7
	c0.6,0.3,1.2,0.5,1.9,0.7c0.8,0.2,1.6,0.4,2.5,0.3c0.6,0,1.3-0.1,1.9-0.2c0.6-0.1,1.1-0.4,1.5-0.7s0.7-0.7,1-1.1
	c0.2-0.5,0.3-1,0.3-1.5c0-0.6-0.2-1.1-0.5-1.5c-0.4-0.5-0.8-0.9-1.3-1.2c-0.6-0.3-1.2-0.6-1.8-0.9l-2.1-0.8c-0.7-0.3-1.4-0.6-2.1-1
	c-0.7-0.3-1.3-0.8-1.8-1.3s-1-1.2-1.3-1.9c-0.3-0.8-0.5-1.7-0.5-2.6c0-0.9,0.2-1.7,0.5-2.6c0.3-0.8,0.9-1.5,1.5-2.1
	c0.8-0.7,1.6-1.1,2.6-1.5c1.7-0.6,3.6-0.7,5.4-0.4c0.5,0.1,1.1,0.2,1.6,0.4c0.4,0.1,0.8,0.3,1.2,0.5c0.3,0.1,0.5,0.3,0.8,0.5
	c0.1,0.1,0.3,0.2,0.4,0.4c0.1,0.1,0.1,0.2,0.1,0.3s0,0.3,0,0.5s0,0.5,0,0.7s0,0.5,0,0.7s-0.1,0.3-0.1,0.5c0,0.1-0.1,0.2-0.2,0.3
	s-0.2,0.1-0.3,0.1c-0.2,0-0.5-0.1-0.6-0.3c-0.4-0.2-0.7-0.4-1.1-0.6c-0.5-0.2-1-0.4-1.5-0.6c-0.7-0.2-1.4-0.3-2.1-0.3
	c-0.6,0-1.3,0.1-1.9,0.2c-0.5,0.1-0.9,0.4-1.3,0.7c-0.3,0.3-0.6,0.6-0.8,1c-0.2,0.4-0.3,0.9-0.3,1.3c0,0.6,0.2,1.2,0.5,1.6
	c0.4,0.5,0.8,0.9,1.3,1.2c0.6,0.4,1.2,0.7,1.8,0.9l2.1,0.8c0.7,0.3,1.4,0.6,2.1,1c0.7,0.3,1.3,0.8,1.8,1.3s1,1.1,1.3,1.8
	C129.5,197.1,129.7,197.9,129.7,198.8z"/>
<path class="st0" d="M140.3,174.7c0.1,0.7-0.1,1.4-0.6,2c-0.6,0.4-1.3,0.6-2,0.5c-0.7,0.1-1.4-0.1-2-0.5c-0.4-0.6-0.6-1.3-0.5-1.9
	c-0.1-0.7,0.1-1.4,0.6-2c0.6-0.4,1.3-0.6,2-0.5c0.7-0.1,1.4,0.1,2,0.5C140.1,173.3,140.3,174,140.3,174.7z M139.9,204.9
	c0,0.1,0,0.2-0.1,0.3s-0.2,0.2-0.3,0.2c-0.2,0.1-0.4,0.1-0.6,0.2c-0.3,0-0.7,0-1,0s-0.7,0-1,0c-0.2,0-0.4-0.1-0.6-0.2
	c-0.1,0-0.2-0.1-0.3-0.2c-0.1-0.1-0.1-0.2-0.1-0.3v-22.6c0-0.1,0-0.2,0.1-0.3s0.2-0.2,0.3-0.2c0.2-0.1,0.4-0.1,0.6-0.2
	c0.3,0,0.7,0,1,0s0.7,0,1,0c0.2,0,0.4,0.1,0.6,0.2c0.1,0.1,0.2,0.1,0.3,0.2c0.1,0.1,0.1,0.2,0.1,0.3V204.9z"/>
<path class="st0" d="M168.4,193.4c0,1.7-0.2,3.4-0.7,5.1c-0.4,1.5-1.2,2.8-2.2,4c-1,1.1-2.2,2-3.6,2.6c-1.6,0.7-3.3,1-5,0.9
	c-1.7,0-3.3-0.3-4.9-0.8c-1.3-0.5-2.5-1.3-3.4-2.4c-1-1.1-1.7-2.4-2.1-3.8c-0.5-1.7-0.7-3.4-0.7-5.1c0-1.7,0.2-3.4,0.7-5.1
	c0.4-1.5,1.2-2.8,2.1-4c1-1.1,2.2-2,3.6-2.6c1.6-0.6,3.3-1,5-0.9c1.7,0,3.3,0.3,4.9,0.8c1.3,0.5,2.5,1.3,3.4,2.4
	c1,1.1,1.7,2.4,2.1,3.8C168.2,189.9,168.4,191.7,168.4,193.4z M164.1,193.7c0-1.2-0.1-2.3-0.3-3.5c-0.2-1-0.6-2-1.1-2.9
	c-0.5-0.8-1.3-1.5-2.1-1.9c-1-0.5-2.2-0.8-3.3-0.7c-1.1,0-2.2,0.2-3.2,0.6c-0.9,0.4-1.6,1.1-2.2,1.8c-0.6,0.8-1,1.8-1.3,2.8
	c-0.3,1.2-0.4,2.4-0.4,3.6c0,1.2,0.1,2.3,0.3,3.5c0.2,1,0.6,2,1.1,2.8s1.3,1.5,2.1,2c1,0.5,2.2,0.8,3.3,0.7c1.1,0,2.1-0.2,3.1-0.6
	c0.9-0.4,1.6-1,2.2-1.8c0.6-0.8,1-1.8,1.3-2.8C164,196.1,164.1,194.9,164.1,193.7L164.1,193.7z M159.2,171.3
	c0.1-0.2,0.2-0.3,0.4-0.4c0.1-0.1,0.3-0.2,0.5-0.3s0.5-0.1,0.7-0.2c0.3,0,0.7,0,1,0c0.4,0,0.8,0,1.1,0.1c0.2,0,0.4,0.1,0.6,0.2
	c0.1,0.1,0.2,0.2,0.2,0.4s-0.1,0.3-0.2,0.4l-4.5,5.8c-0.1,0.1-0.2,0.3-0.4,0.4c-0.1,0.1-0.2,0.2-0.4,0.2c-0.2,0.1-0.4,0.1-0.6,0.1
	c-0.3,0-0.6,0-0.8,0c-0.3,0-0.6,0-0.9,0c-0.2,0-0.3-0.1-0.5-0.2c-0.1-0.1-0.1-0.2-0.1-0.3c0-0.2,0.1-0.3,0.2-0.5L159.2,171.3z"/>
<path class="st0" d="M194,204.9c0,0.1,0,0.2-0.1,0.3s-0.2,0.2-0.3,0.2c-0.2,0.1-0.4,0.1-0.6,0.2c-0.3,0-0.7,0-1,0s-0.7,0-1,0
	c-0.2,0-0.4-0.1-0.6-0.2c-0.1,0-0.2-0.1-0.3-0.2c-0.1-0.1-0.1-0.2-0.1-0.3v-13.2c0-1-0.1-2.1-0.3-3.1c-0.2-0.7-0.5-1.4-0.9-2
	s-0.9-1-1.5-1.3c-0.7-0.3-1.4-0.5-2.1-0.4c-1.1,0-2.2,0.4-3.1,1.1c-1.2,0.9-2.3,2-3.3,3.2V205c0,0.1,0,0.2-0.1,0.3s-0.2,0.2-0.3,0.2
	c-0.2,0.1-0.4,0.1-0.6,0.2c-0.3,0-0.7,0-1,0s-0.7,0-1,0c-0.2,0-0.4-0.1-0.6-0.2c-0.1,0-0.2-0.1-0.3-0.2c-0.1-0.1-0.1-0.2-0.1-0.3
	v-22.6c0-0.1,0-0.2,0-0.3c0.1-0.1,0.2-0.2,0.3-0.2c0.2-0.1,0.4-0.1,0.6-0.2h0.9h0.9c0.2,0,0.4,0.1,0.6,0.2c0.1,0.1,0.2,0.1,0.3,0.2
	c0.1,0.1,0.1,0.2,0.1,0.3v3c1.1-1.2,2.4-2.3,3.8-3.1c1.2-0.6,2.5-1,3.8-1s2.6,0.2,3.8,0.8c1,0.5,1.8,1.2,2.5,2
	c0.7,0.9,1.1,1.9,1.4,3c0.3,1.3,0.5,2.7,0.5,4.1v13.7H194z"/>
<path class="st0" d="M238.1,203.8c0,0.3-0.1,0.6-0.2,0.9c-0.1,0.2-0.3,0.4-0.4,0.6c-0.2,0.1-0.4,0.3-0.6,0.3
	c-0.2,0.1-0.5,0.1-0.7,0.1h-1.4c-0.4,0-0.8,0-1.2-0.1s-0.7-0.3-1-0.5c-0.3-0.3-0.7-0.6-0.9-1c-0.4-0.5-0.7-1-1-1.5l-9.9-18.5
	c-0.5-0.9-1-1.9-1.5-3s-1-2.1-1.5-3.1l0,0c0,1.2,0,2.4,0,3.7s0,2.5,0,3.7V205c0,0.1,0,0.2-0.1,0.3s-0.2,0.2-0.4,0.2
	c-0.2,0.1-0.4,0.1-0.7,0.2c-0.7,0.1-1.4,0.1-2.1,0c-0.2,0-0.4-0.1-0.6-0.2c-0.1,0-0.3-0.1-0.3-0.2c-0.1-0.1-0.1-0.2-0.1-0.3v-29.9
	c-0.1-0.5,0.2-1.1,0.6-1.4c0.4-0.3,0.8-0.4,1.2-0.4h2.1c0.4,0,0.8,0,1.3,0.1c0.3,0.1,0.6,0.2,0.9,0.4c0.3,0.2,0.6,0.5,0.8,0.8
	c0.3,0.4,0.6,0.8,0.8,1.3l7.6,14.2l1.4,2.6c0.4,0.8,0.9,1.6,1.3,2.4l1.2,2.4l1.2,2.4l0,0c0-1.3,0-2.7,0-4.1s0-2.8,0-4.1v-17.6
	c0-0.1,0-0.2,0.1-0.3s0.2-0.2,0.4-0.3s0.4-0.1,0.7-0.2c0.4,0,0.7,0,1.1,0c0.3,0,0.7,0,1,0c0.2,0,0.5,0.1,0.7,0.2
	c0.1,0.1,0.3,0.1,0.3,0.3c0.1,0.1,0.1,0.2,0.1,0.3L238.1,203.8z"/>
<path class="st0" d="M263.2,204.9c0,0.2-0.1,0.3-0.2,0.4c-0.2,0.1-0.4,0.2-0.6,0.2c-0.3,0-0.7,0-1,0s-0.7,0-1,0
	c-0.2,0-0.4-0.1-0.6-0.2c-0.1-0.1-0.2-0.3-0.2-0.4v-2.3c-0.9,1-2.1,1.9-3.3,2.5c-1.2,0.6-2.5,0.9-3.8,0.9c-1.1,0-2.2-0.1-3.2-0.5
	c-0.9-0.3-1.7-0.7-2.5-1.3c-0.7-0.6-1.2-1.3-1.5-2.1c-0.4-0.9-0.6-1.9-0.6-2.9c0-1.2,0.2-2.3,0.8-3.3c0.5-1,1.3-1.8,2.2-2.3
	c1.1-0.7,2.3-1.1,3.6-1.4c1.6-0.3,3.2-0.5,4.7-0.5h3.1v-1.8c0-0.8-0.1-1.6-0.3-2.3c-0.2-0.6-0.5-1.2-0.9-1.7s-1-0.8-1.5-1
	c-0.8-0.2-1.6-0.4-2.4-0.3c-1,0-1.9,0.1-2.8,0.4c-0.7,0.2-1.4,0.5-2.1,0.8c-0.6,0.3-1.1,0.6-1.5,0.8c-0.3,0.2-0.6,0.3-0.9,0.4
	c-0.1,0-0.2,0-0.4-0.1c-0.1-0.1-0.2-0.2-0.3-0.3c-0.1-0.2-0.1-0.3-0.2-0.5c0-0.2,0-0.5,0-0.7c0-0.3,0-0.7,0.1-1s0.2-0.5,0.4-0.7
	c0.4-0.3,0.7-0.6,1.2-0.8c0.6-0.3,1.2-0.6,1.9-0.8c0.8-0.3,1.6-0.5,2.4-0.6c0.9-0.2,1.7-0.2,2.6-0.2c1.4,0,2.8,0.2,4.1,0.6
	c1,0.3,2,0.8,2.8,1.5c0.7,0.7,1.3,1.6,1.5,2.6c0.3,1.2,0.5,2.4,0.5,3.7L263.2,204.9z M259.1,194.6h-3.5c-1,0-2,0.1-3,0.3
	c-0.7,0.2-1.5,0.4-2.1,0.9c-0.5,0.3-0.9,0.8-1.2,1.4c-0.3,0.6-0.4,1.2-0.4,1.8c-0.1,1,0.4,2.1,1.1,2.8c0.9,0.7,2,1.1,3.1,1
	c1.1,0,2.2-0.3,3.1-0.8c1.1-0.7,2.1-1.5,2.9-2.5V194.6z"/>
<path class="st0" d="M287.1,201.5c0,0.3,0,0.5,0,0.7s0,0.4-0.1,0.5c0,0.1-0.1,0.3-0.2,0.4c-0.1,0.2-0.2,0.3-0.4,0.5
	c-0.3,0.3-0.7,0.6-1.1,0.8c-0.5,0.3-1.1,0.6-1.7,0.8c-0.7,0.3-1.3,0.4-2,0.6c-0.8,0.2-1.5,0.2-2.3,0.2c-1.5,0-2.9-0.2-4.3-0.8
	c-1.2-0.5-2.3-1.3-3.1-2.4c-0.9-1.1-1.5-2.4-1.9-3.8c-0.5-1.7-0.7-3.4-0.7-5.2c0-1.9,0.2-3.9,0.8-5.7c0.5-1.5,1.2-2.8,2.2-3.9
	c0.9-1,2.1-1.8,3.3-2.3c1.3-0.5,2.7-0.8,4.1-0.7c0.7,0,1.4,0.1,2.1,0.2c0.6,0.1,1.3,0.3,1.9,0.5c0.5,0.2,1.1,0.5,1.5,0.8
	c0.3,0.2,0.7,0.5,1,0.7c0.2,0.1,0.3,0.3,0.4,0.5c0.1,0.1,0.1,0.3,0.2,0.4c0.1,0.2,0.1,0.4,0.1,0.5c0,0.2,0,0.4,0,0.8
	c0,0.5,0,0.9-0.2,1.4c-0.1,0.2-0.3,0.4-0.6,0.4c-0.3,0-0.6-0.2-0.9-0.4c-0.4-0.3-0.8-0.6-1.2-0.9c-0.6-0.4-1.2-0.7-1.8-0.9
	c-0.8-0.3-1.7-0.4-2.5-0.4c-1.8-0.1-3.6,0.8-4.6,2.3c-1.2,2-1.7,4.3-1.5,6.7c0,1.3,0.1,2.6,0.4,3.8c0.2,1,0.6,1.9,1.2,2.8
	c0.5,0.7,1.2,1.3,2,1.6c0.8,0.4,1.8,0.6,2.7,0.5c0.9,0,1.7-0.1,2.5-0.4c0.7-0.3,1.3-0.6,1.9-1c0.5-0.4,1-0.7,1.3-1
	c0.2-0.2,0.5-0.4,0.8-0.4c0.1,0,0.2,0,0.3,0.1c0.1,0.1,0.2,0.2,0.2,0.3c0.1,0.2,0.1,0.4,0.1,0.6
	C287.1,200.9,287.1,201.2,287.1,201.5z"/>
<path class="st0" d="M297.2,174.7c0.1,0.7-0.1,1.4-0.6,2c-0.6,0.4-1.3,0.6-2,0.5c-0.7,0.1-1.4-0.1-2-0.5c-0.4-0.6-0.6-1.3-0.5-1.9
	c-0.1-0.7,0.1-1.4,0.6-2c0.6-0.4,1.3-0.6,2-0.5c0.7-0.1,1.4,0.1,2,0.5C297.1,173.3,297.3,174,297.2,174.7z M296.7,204.9
	c0,0.1,0,0.2-0.1,0.3s-0.2,0.2-0.3,0.2c-0.2,0.1-0.4,0.1-0.6,0.2c-0.3,0-0.7,0-1,0s-0.7,0-1,0c-0.2,0-0.4-0.1-0.6-0.2
	c-0.1,0-0.2-0.1-0.3-0.2c-0.1-0.1-0.1-0.2-0.1-0.3v-22.6c0-0.1,0-0.2,0.1-0.3s0.2-0.2,0.3-0.2c0.2-0.1,0.4-0.1,0.6-0.2
	c0.3,0,0.7,0,1,0s0.7,0,1,0c0.2,0,0.4,0.1,0.6,0.2c0.1,0.1,0.2,0.1,0.3,0.2c0.1,0.1,0.1,0.2,0.1,0.3V204.9z"/>
<path class="st0" d="M325.4,193.4c0,1.7-0.2,3.4-0.7,5.1c-0.4,1.5-1.2,2.8-2.2,4c-1,1.1-2.2,2-3.6,2.6c-1.6,0.7-3.3,1-5,0.9
	c-1.7,0-3.3-0.3-4.9-0.8c-1.3-0.5-2.5-1.3-3.4-2.4c-1-1.1-1.7-2.4-2.1-3.8c-0.5-1.7-0.7-3.4-0.7-5.1c0-1.7,0.2-3.4,0.7-5.1
	c0.4-1.5,1.2-2.8,2.1-4c1-1.1,2.2-2,3.6-2.6c1.6-0.6,3.3-1,5-0.9c1.7,0,3.3,0.3,4.9,0.8c1.3,0.5,2.5,1.3,3.4,2.4
	c1,1.1,1.7,2.4,2.1,3.8C325.2,189.9,325.4,191.7,325.4,193.4z M321.1,193.7c0-1.2-0.1-2.3-0.3-3.5c-0.2-1-0.6-2-1.1-2.9
	c-0.5-0.8-1.3-1.5-2.1-1.9c-1-0.5-2.2-0.8-3.3-0.7c-1.1,0-2.2,0.2-3.2,0.6c-0.9,0.4-1.6,1.1-2.2,1.8c-0.6,0.8-1,1.8-1.3,2.8
	c-0.3,1.2-0.4,2.4-0.4,3.6c0,1.2,0.1,2.3,0.3,3.5c0.2,1,0.6,2,1.1,2.8s1.3,1.5,2.1,1.9c1,0.5,2.2,0.8,3.3,0.7c1.1,0,2.1-0.2,3.1-0.6
	c0.9-0.4,1.6-1,2.2-1.8s1-1.8,1.3-2.8C320.9,196,321,194.8,321.1,193.7L321.1,193.7z"/>
<path class="st0" d="M350.9,204.9c0,0.1,0,0.2-0.1,0.3s-0.2,0.2-0.3,0.2c-0.2,0.1-0.4,0.1-0.6,0.2c-0.3,0-0.7,0-1,0s-0.7,0-1,0
	c-0.2,0-0.4-0.1-0.6-0.2c-0.1,0-0.2-0.1-0.3-0.2c-0.1-0.1-0.1-0.2-0.1-0.3v-13.2c0-1-0.1-2.1-0.3-3.1c-0.2-0.7-0.5-1.5-1-2.1
	c-0.4-0.6-0.9-1-1.5-1.3c-0.7-0.3-1.4-0.5-2.1-0.4c-1.1,0-2.2,0.4-3.1,1.1c-1.2,0.9-2.3,2-3.3,3.2v15.8c0,0.1,0,0.2-0.1,0.3
	s-0.2,0.2-0.3,0.2c-0.2,0.1-0.4,0.1-0.6,0.2c-0.3,0-0.7,0-1,0s-0.7,0-1,0c-0.2,0-0.4-0.1-0.6-0.2c-0.1,0-0.2-0.1-0.3-0.2
	c-0.1-0.1-0.1-0.2-0.1-0.3v-22.6c0-0.1,0-0.2,0-0.3c0.1-0.1,0.2-0.2,0.3-0.2c0.2-0.1,0.4-0.1,0.6-0.2h0.9h0.9c0.2,0,0.4,0.1,0.6,0.2
	c0.1,0.1,0.2,0.1,0.3,0.2c0.1,0.1,0.1,0.2,0.1,0.3v3c1.1-1.2,2.4-2.3,3.8-3.1c1.2-0.6,2.5-1,3.8-1s2.6,0.2,3.8,0.8
	c1,0.5,1.8,1.2,2.5,2c0.7,0.9,1.1,1.9,1.4,3c0.3,1.4,0.4,2.7,0.4,4.1L350.9,204.9z"/>
<path class="st0" d="M375.4,204.9c0,0.2-0.1,0.3-0.2,0.4c-0.2,0.1-0.4,0.2-0.6,0.2c-0.3,0-0.7,0-1,0s-0.7,0-1,0
	c-0.2,0-0.4-0.1-0.6-0.2c-0.1-0.1-0.2-0.3-0.2-0.4v-2.3c-0.9,1-2.1,1.9-3.3,2.5c-1.2,0.6-2.5,0.9-3.8,0.9c-1.1,0-2.2-0.1-3.2-0.5
	c-0.9-0.3-1.7-0.7-2.5-1.3c-0.7-0.6-1.2-1.3-1.5-2.1c-0.4-0.9-0.6-1.9-0.6-2.9c0-1.2,0.2-2.3,0.8-3.3c0.5-1,1.3-1.8,2.2-2.3
	c1.1-0.7,2.3-1.1,3.6-1.4c1.6-0.3,3.2-0.5,4.7-0.5h3.1v-1.8c0-0.8-0.1-1.6-0.3-2.3c-0.2-0.6-0.5-1.2-0.9-1.7s-1-0.8-1.5-1
	c-0.8-0.2-1.6-0.4-2.4-0.3c-0.9,0-1.9,0.1-2.8,0.4c-0.7,0.2-1.4,0.5-2.1,0.8c-0.6,0.3-1.1,0.6-1.5,0.8c-0.3,0.2-0.6,0.3-0.9,0.4
	c-0.1,0-0.2,0-0.4-0.1c-0.1-0.1-0.2-0.2-0.3-0.3c-0.1-0.2-0.1-0.3-0.2-0.5c0-0.2,0-0.5,0-0.7c0-0.3,0-0.7,0.1-1s0.2-0.5,0.4-0.7
	c0.4-0.3,0.7-0.6,1.2-0.8c0.6-0.3,1.2-0.6,1.9-0.8c0.8-0.3,1.6-0.5,2.4-0.6c0.9-0.2,1.7-0.2,2.6-0.2c1.4,0,2.8,0.2,4.1,0.6
	c1,0.3,2,0.8,2.8,1.5c0.7,0.7,1.3,1.6,1.5,2.6c0.3,1.2,0.5,2.4,0.5,3.7L375.4,204.9z M371.3,194.6h-3.5c-1,0-2,0.1-3,0.3
	c-0.7,0.2-1.5,0.4-2.1,0.9c-0.5,0.3-0.9,0.8-1.2,1.4c-0.3,0.6-0.4,1.2-0.4,1.8c-0.1,1,0.4,2.1,1.1,2.8c0.9,0.7,2,1.1,3.1,1
	c1.1,0,2.2-0.3,3.1-0.8c1.1-0.7,2.1-1.5,2.9-2.5V194.6z"/>
<path class="st0" d="M387.2,204.9c0,0.1,0,0.2-0.1,0.3s-0.2,0.2-0.3,0.2c-0.2,0.1-0.4,0.1-0.6,0.2c-0.3,0-0.7,0-1,0s-0.7,0-1,0
	c-0.2,0-0.4-0.1-0.6-0.2c-0.1,0-0.2-0.1-0.3-0.2c-0.1-0.1-0.1-0.2-0.1-0.3v-33.5c0-0.1,0-0.2,0.1-0.4c0.1-0.1,0.2-0.2,0.3-0.2
	c0.2-0.1,0.4-0.1,0.6-0.2c0.3,0,0.7,0,1,0s0.7,0,1,0c0.2,0,0.4,0.1,0.6,0.2c0.1,0.1,0.2,0.1,0.3,0.2c0.1,0.1,0.1,0.2,0.1,0.4V204.9z
	"/>
<path class="st0" d="M57.9,251.4c0,0.1,0,0.2-0.1,0.4c-0.1,0.1-0.2,0.2-0.3,0.2c-0.2,0.1-0.4,0.1-0.6,0.1c-0.3,0-0.6,0-0.9,0
	c-0.3,0-0.6,0-0.9,0c-0.2,0-0.4-0.1-0.6-0.1c-0.1,0-0.2-0.1-0.3-0.2c-0.1-0.1-0.1-0.2-0.1-0.4v-3.1c-1,1.2-2.3,2.3-3.6,3.1
	c-1.3,0.7-2.7,1.1-4.2,1.1s-2.9-0.3-4.2-1c-1.1-0.6-2.1-1.6-2.8-2.6c-0.7-1.2-1.3-2.5-1.5-3.9c-0.3-1.5-0.5-3.1-0.5-4.6
	c0-1.8,0.2-3.5,0.6-5.3c0.4-1.4,1-2.8,1.9-4c0.8-1.1,1.9-2,3.1-2.6c1.3-0.6,2.8-0.9,4.2-0.9c1.3,0,2.5,0.3,3.6,0.9
	c1.2,0.7,2.3,1.5,3.2,2.6V218c0-0.1,0-0.2,0.1-0.3s0.2-0.2,0.3-0.2c0.2-0.1,0.4-0.1,0.6-0.2c0.3,0,0.7,0,1,0s0.7,0,1,0
	c0.2,0,0.4,0.1,0.6,0.2c0.1,0,0.3,0.1,0.3,0.2c0.1,0.1,0.1,0.2,0.1,0.3L57.9,251.4z M53.7,235.6c-0.9-1.2-2-2.3-3.2-3.2
	c-1-0.7-2.1-1.1-3.3-1.1c-0.9,0-1.9,0.2-2.7,0.8c-0.7,0.5-1.4,1.2-1.8,2c-0.5,0.9-0.8,1.8-1,2.8s-0.3,2.1-0.3,3.1
	c0,1.1,0.1,2.2,0.3,3.3c0.1,1,0.5,2,0.9,2.9c0.4,0.8,1,1.5,1.7,2c0.8,0.5,1.7,0.8,2.7,0.8c0.5,0,1-0.1,1.5-0.2
	c0.5-0.2,1.1-0.4,1.5-0.8c0.6-0.4,1.2-0.9,1.7-1.4c0.7-0.6,1.3-1.3,1.9-2.1L53.7,235.6z"/>
<path class="st0" d="M84.9,239.1c0.1,0.5-0.1,1-0.5,1.4c-0.3,0.3-0.7,0.4-1.1,0.4H68.4c0,1.2,0.1,2.3,0.4,3.4
	c0.2,0.9,0.6,1.8,1.3,2.6c0.6,0.7,1.4,1.3,2.3,1.7c1.1,0.4,2.3,0.6,3.4,0.6c1,0,1.9-0.1,2.9-0.3c0.7-0.1,1.5-0.3,2.2-0.6
	c0.6-0.2,1.1-0.4,1.5-0.6c0.3-0.1,0.6-0.2,0.9-0.3c0.1,0,0.2,0,0.3,0.1c0.1,0.1,0.2,0.2,0.2,0.3c0.1,0.2,0.1,0.3,0.1,0.5
	c0,0.3,0,0.5,0,0.8c0,0.2,0,0.4,0,0.6c0,0.2,0,0.3,0,0.4c0,0.1-0.1,0.2-0.1,0.3c-0.1,0.1-0.1,0.2-0.2,0.3c-0.3,0.2-0.5,0.3-0.8,0.4
	c-0.6,0.3-1.2,0.5-1.8,0.6c-0.8,0.2-1.7,0.4-2.5,0.5c-1,0.2-2.1,0.2-3.1,0.2c-1.7,0-3.3-0.2-4.9-0.8c-1.3-0.5-2.5-1.3-3.5-2.3
	c-1-1.1-1.7-2.4-2.1-3.8c-0.5-1.7-0.8-3.6-0.7-5.4c0-1.8,0.2-3.5,0.8-5.2c0.4-1.4,1.2-2.8,2.2-3.9c0.9-1.1,2.1-1.9,3.4-2.5
	c1.4-0.6,2.9-0.9,4.5-0.9s3.1,0.2,4.5,0.9c1.2,0.5,2.2,1.3,3.1,2.3c0.8,1,1.4,2.1,1.8,3.4c0.4,1.3,0.6,2.7,0.6,4.1L84.9,239.1z
	 M80.7,237.9c0.2-1.8-0.4-3.6-1.5-5.1c-1.1-1.3-2.8-2-4.5-1.9c-0.9,0-1.9,0.2-2.7,0.6c-0.8,0.4-1.4,0.9-1.9,1.5
	c-0.5,0.7-0.9,1.4-1.2,2.2c-0.3,0.9-0.4,1.7-0.5,2.6L80.7,237.9z"/>
<path class="st0" d="M127.5,250.5c0.1,0.3,0.2,0.6,0.2,0.9c0,0.2,0,0.4-0.2,0.5s-0.4,0.2-0.7,0.2c-0.4,0-0.8,0-1.2,0
	c-0.5,0-0.9,0-1.2,0c-0.2,0-0.5-0.1-0.7-0.1c-0.1,0-0.3-0.1-0.4-0.2c-0.1-0.1-0.2-0.2-0.2-0.4l-2.8-7.9h-13.5l-2.7,7.7
	c0,0.1-0.1,0.3-0.2,0.4c-0.1,0.1-0.2,0.2-0.4,0.3c-0.2,0.1-0.4,0.1-0.7,0.2c-0.4,0-0.8,0-1.1,0c-0.4,0-0.8,0-1.2,0
	c-0.2,0-0.5-0.1-0.6-0.2c-0.1-0.1-0.2-0.3-0.2-0.5c0-0.3,0.1-0.6,0.2-0.9l10.8-30.1c0.1-0.2,0.1-0.3,0.3-0.4
	c0.1-0.1,0.3-0.2,0.5-0.3c0.3-0.1,0.5-0.1,0.8-0.1s0.7,0,1.2,0s0.9,0,1.3,0c0.3,0,0.6,0.1,0.9,0.1c0.2,0.1,0.4,0.2,0.5,0.3
	s0.2,0.3,0.3,0.5L127.5,250.5z M113.6,223.9L113.6,223.9l-5.6,16.2h11.3L113.6,223.9z"/>
<path class="st0" d="M148.7,248c0,0.3,0,0.5,0,0.7s0,0.4-0.1,0.5c0,0.1-0.1,0.3-0.2,0.4c-0.1,0.2-0.2,0.3-0.4,0.5
	c-0.3,0.3-0.7,0.6-1.1,0.8c-0.5,0.3-1.1,0.6-1.7,0.8c-0.7,0.3-1.3,0.4-2,0.6c-0.8,0.2-1.5,0.2-2.3,0.2c-1.5,0-2.9-0.2-4.3-0.8
	c-1.2-0.5-2.3-1.3-3.1-2.4c-0.9-1.1-1.5-2.4-1.9-3.8c-0.5-1.7-0.7-3.4-0.7-5.2c0-1.9,0.2-3.9,0.8-5.7c0.5-1.5,1.2-2.8,2.2-3.9
	c0.9-1,2.1-1.8,3.3-2.3c1.3-0.5,2.7-0.8,4.1-0.7c0.7,0,1.4,0.1,2.1,0.2c0.6,0.1,1.3,0.3,1.9,0.5c0.5,0.2,1.1,0.5,1.5,0.8
	c0.3,0.2,0.7,0.5,1,0.7c0.2,0.1,0.3,0.3,0.4,0.5c0.1,0.1,0.1,0.3,0.2,0.4c0.1,0.2,0.1,0.4,0.1,0.5c0,0.2,0,0.4,0,0.8
	c0,0.5,0,0.9-0.2,1.4c-0.1,0.2-0.3,0.4-0.6,0.4s-0.6-0.2-0.9-0.4c-0.4-0.3-0.8-0.6-1.2-0.9c-0.6-0.4-1.2-0.7-1.8-0.9
	c-0.8-0.3-1.7-0.4-2.5-0.4c-1.8-0.1-3.6,0.8-4.6,2.3c-1.2,2-1.7,4.3-1.5,6.7c0,1.3,0.1,2.6,0.4,3.8c0.2,1,0.6,2,1.1,2.8
	c0.5,0.7,1.2,1.3,2,1.6c0.8,0.4,1.8,0.6,2.7,0.5c0.9,0,1.7-0.1,2.5-0.4c0.7-0.3,1.3-0.6,1.9-1c0.5-0.4,1-0.7,1.3-1
	c0.2-0.2,0.5-0.4,0.8-0.4c0.1,0,0.2,0,0.3,0.1s0.2,0.2,0.2,0.3c0.1,0.2,0.1,0.4,0.1,0.6C148.6,247.4,148.7,247.7,148.7,248z"/>
<path class="st0" d="M167.4,230.3c0,0.4,0,0.7,0,0.9s0,0.4-0.1,0.6c0,0.1-0.1,0.2-0.2,0.3c-0.1,0.1-0.2,0.1-0.3,0.1
	c-0.2,0-0.3,0-0.5-0.1l-0.6-0.2l-0.8-0.2c-0.3-0.1-0.6-0.1-1-0.1s-0.8,0.1-1.2,0.2c-0.5,0.2-0.9,0.5-1.3,0.8c-0.5,0.5-1,1-1.4,1.5
	c-0.5,0.6-1,1.4-1.5,2.3v14.9c0,0.1,0,0.2-0.1,0.3s-0.2,0.2-0.3,0.2c-0.2,0.1-0.4,0.1-0.6,0.2c-0.3,0-0.7,0-1,0s-0.7,0-1,0
	c-0.2,0-0.4-0.1-0.6-0.2c-0.1,0-0.2-0.1-0.3-0.2c-0.1-0.1-0.1-0.2-0.1-0.3v-22.6c0-0.1,0-0.2,0-0.3c0.1-0.1,0.2-0.2,0.3-0.2
	c0.2-0.1,0.4-0.1,0.6-0.2h0.9h0.9c0.2,0,0.4,0.1,0.6,0.2c0.1,0.1,0.2,0.1,0.3,0.2c0.1,0.1,0.1,0.2,0.1,0.3v3.3
	c0.5-0.8,1.1-1.5,1.7-2.2c0.5-0.5,1-1,1.5-1.3c0.4-0.3,0.9-0.5,1.4-0.7c0.5-0.1,1-0.2,1.4-0.2h0.7c0.3,0,0.6,0.1,0.9,0.1
	c0.3,0.1,0.6,0.1,0.8,0.2c0.2,0.1,0.4,0.1,0.5,0.2c0.1,0.1,0.2,0.1,0.2,0.2c0,0.1,0.1,0.2,0.1,0.3c0,0.2,0,0.3,0,0.5
	C167.4,229.6,167.4,229.9,167.4,230.3z"/>
<path class="st0" d="M190.7,239.1c0.1,0.5-0.1,1-0.5,1.4c-0.3,0.3-0.7,0.4-1.1,0.4h-14.9c0,1.1,0.1,2.3,0.4,3.4
	c0.2,0.9,0.6,1.8,1.3,2.6c0.6,0.7,1.4,1.3,2.3,1.7c1.1,0.4,2.3,0.6,3.4,0.6c1,0,1.9-0.1,2.9-0.3c0.7-0.1,1.5-0.3,2.2-0.6
	c0.6-0.2,1.1-0.4,1.5-0.6c0.3-0.1,0.6-0.2,0.9-0.3c0.1,0,0.2,0,0.3,0.1s0.2,0.2,0.2,0.3c0.1,0.2,0.1,0.3,0.1,0.5c0,0.3,0,0.5,0,0.8
	c0,0.2,0,0.4,0,0.6c0,0.2,0,0.3,0,0.4c0,0.1-0.1,0.2-0.1,0.3c-0.1,0.1-0.1,0.2-0.2,0.3c-0.3,0.2-0.5,0.3-0.8,0.4
	c-0.6,0.3-1.2,0.5-1.8,0.6c-0.8,0.2-1.7,0.4-2.5,0.5c-1,0.2-2.1,0.2-3.1,0.2c-1.7,0-3.3-0.2-4.9-0.8c-1.3-0.5-2.5-1.3-3.5-2.3
	c-1-1.1-1.7-2.4-2.1-3.8c-0.5-1.7-0.8-3.6-0.7-5.4c0-1.8,0.2-3.5,0.8-5.2c0.4-1.4,1.2-2.8,2.2-3.9c0.9-1.1,2.1-1.9,3.4-2.5
	c1.4-0.6,2.9-0.9,4.5-0.9s3.1,0.2,4.5,0.9c1.2,0.5,2.2,1.3,3.1,2.3c0.8,1,1.4,2.1,1.8,3.4c0.4,1.3,0.6,2.7,0.6,4.1v0.8H190.7z
	 M186.5,237.9c0.2-1.8-0.4-3.6-1.5-5.1c-1.1-1.3-2.8-2-4.5-1.9c-0.9,0-1.9,0.2-2.7,0.6c-0.8,0.4-1.4,0.9-1.9,1.5
	c-0.5,0.7-0.9,1.4-1.2,2.2c-0.3,0.9-0.4,1.7-0.5,2.6L186.5,237.9z"/>
<path class="st0" d="M216.3,251.4c0,0.1,0,0.2-0.1,0.4c-0.1,0.1-0.2,0.2-0.3,0.2c-0.2,0.1-0.4,0.1-0.6,0.1c-0.3,0-0.6,0-0.9,0
	c-0.3,0-0.6,0-0.9,0c-0.2,0-0.4-0.1-0.6-0.1c-0.1,0-0.2-0.1-0.3-0.2c-0.1-0.1-0.1-0.2-0.1-0.4v-3.1c-1.1,1.2-2.3,2.2-3.7,3
	c-1.3,0.7-2.7,1.1-4.2,1.1s-2.9-0.3-4.2-1c-1.1-0.6-2.1-1.5-2.8-2.6c-0.7-1.2-1.3-2.5-1.5-3.9c-0.3-1.5-0.5-3.1-0.5-4.6
	c0-1.8,0.2-3.5,0.6-5.3c0.4-1.4,1-2.8,1.9-4c0.8-1.1,1.9-2,3.1-2.6c1.3-0.6,2.8-0.9,4.2-0.9c1.3,0,2.5,0.3,3.6,0.9
	c1.2,0.7,2.3,1.5,3.2,2.6v-13c0-0.1,0-0.2,0.1-0.3c0-0.1,0.1-0.2,0.2-0.2c0.2-0.1,0.4-0.1,0.6-0.2c0.3,0,0.7,0,1,0s0.7,0,1,0
	c0.2,0,0.4,0.1,0.6,0.2c0.1,0,0.3,0.1,0.3,0.2c0.1,0.1,0.1,0.2,0.1,0.3L216.3,251.4z M212.1,235.6c-0.9-1.2-2-2.3-3.2-3.2
	c-1-0.7-2.1-1.1-3.3-1.1c-0.9,0-1.9,0.2-2.7,0.8c-0.7,0.5-1.4,1.2-1.8,2c-0.5,0.9-0.8,1.8-1,2.8s-0.3,2.1-0.3,3.1
	c0,1.1,0.1,2.2,0.3,3.3c0.1,1,0.5,2,0.9,2.9c0.4,0.8,1,1.5,1.7,2c0.8,0.5,1.7,0.8,2.7,0.8c0.5,0,1-0.1,1.5-0.2
	c0.5-0.2,1.1-0.4,1.5-0.8c0.6-0.4,1.2-0.9,1.7-1.4c0.7-0.6,1.3-1.3,1.9-2.1L212.1,235.6z"/>
<path class="st0" d="M228.6,221.2c0.1,0.7-0.1,1.4-0.6,2c-0.6,0.4-1.3,0.6-2,0.5c-0.7,0.1-1.4-0.1-2-0.5c-0.4-0.6-0.6-1.3-0.5-1.9
	c-0.1-0.7,0.1-1.4,0.6-2c0.6-0.4,1.3-0.6,2-0.5c0.7-0.1,1.4,0.1,2,0.5C228.5,219.8,228.6,220.5,228.6,221.2z M228.1,251.4
	c0,0.1,0,0.2-0.1,0.3s-0.2,0.2-0.3,0.2c-0.2,0.1-0.4,0.1-0.6,0.2c-0.3,0-0.7,0-1,0s-0.7,0-1,0c-0.2,0-0.4-0.1-0.6-0.2
	c-0.1,0-0.2-0.1-0.3-0.2c-0.1-0.1-0.1-0.2-0.1-0.3v-22.6c0-0.1,0-0.2,0.1-0.3s0.2-0.2,0.3-0.2c0.2-0.1,0.4-0.1,0.6-0.2
	c0.3,0,0.7,0,1,0s0.7,0,1,0c0.2,0,0.4,0.1,0.6,0.2c0.1,0.1,0.2,0.1,0.3,0.2c0.1,0.1,0.1,0.2,0.1,0.3V251.4z"/>
<path class="st0" d="M247.5,249.7c0,0.4,0,0.8-0.1,1.2c0,0.2-0.1,0.5-0.3,0.6c-0.2,0.2-0.4,0.3-0.6,0.4c-0.3,0.1-0.6,0.2-0.9,0.3
	c-0.3,0-0.7,0.1-1.1,0.2c-0.4,0-0.8,0-1.2,0c-1,0-2-0.1-3-0.5c-0.8-0.3-1.5-0.8-2.1-1.4c-0.6-0.7-1-1.5-1.2-2.4
	c-0.3-1.1-0.4-2.3-0.4-3.4v-13.2h-3.1c-0.3,0-0.5-0.2-0.6-0.4c-0.2-0.4-0.3-0.9-0.2-1.3c0-0.3,0-0.5,0-0.8c0-0.2,0.1-0.4,0.2-0.5
	c0.1-0.1,0.1-0.2,0.3-0.3c0.1-0.1,0.2-0.1,0.4-0.1h3.1v-5.4c0-0.1,0-0.2,0.1-0.3s0.2-0.2,0.3-0.3c0.2-0.1,0.4-0.1,0.6-0.2
	c0.3,0,0.7,0,1,0s0.7,0,1,0c0.2,0,0.4,0.1,0.6,0.2c0.1,0.1,0.2,0.1,0.3,0.3c0.1,0.1,0.1,0.2,0.1,0.3v5.5h5.8c0.1,0,0.2,0,0.4,0.1
	c0.1,0.1,0.2,0.2,0.3,0.3c0.1,0.2,0.1,0.4,0.2,0.5c0,0.3,0,0.5,0,0.8c0,0.4-0.1,0.9-0.2,1.3c-0.1,0.2-0.3,0.4-0.6,0.4h-5.8v12.6
	c-0.1,1.2,0.2,2.4,0.7,3.5c0.5,0.8,1.5,1.3,2.5,1.2c0.3,0,0.7,0,1-0.1l0.8-0.2l0.6-0.2c0.1-0.1,0.3-0.1,0.4-0.1c0.1,0,0.2,0,0.2,0
	c0.1,0.1,0.1,0.1,0.2,0.2c0,0.2,0.1,0.3,0.1,0.5C247.4,249.3,247.4,249.5,247.5,249.7z"/>
<path class="st0" d="M269.3,251.4c0,0.2-0.1,0.3-0.2,0.4c-0.2,0.1-0.4,0.2-0.6,0.2c-0.3,0-0.7,0-1,0s-0.7,0-1,0
	c-0.2,0-0.4-0.1-0.6-0.2c-0.1-0.1-0.2-0.3-0.2-0.4v-2.3c-0.9,1-2.1,1.9-3.3,2.5c-1.2,0.6-2.5,0.9-3.8,0.9c-1.1,0-2.2-0.1-3.2-0.5
	c-0.9-0.3-1.7-0.7-2.5-1.3c-0.7-0.6-1.2-1.3-1.5-2.1c-0.4-0.9-0.6-1.9-0.6-2.9c0-1.2,0.2-2.3,0.8-3.3c0.5-1,1.3-1.8,2.2-2.3
	c1.1-0.7,2.3-1.1,3.6-1.4c1.6-0.3,3.2-0.5,4.7-0.5h3.1v-1.8c0-0.8-0.1-1.6-0.3-2.3c-0.2-0.6-0.5-1.2-0.9-1.7s-1-0.8-1.5-1
	c-0.8-0.2-1.6-0.4-2.4-0.3c-0.9,0-1.9,0.1-2.8,0.4c-0.7,0.2-1.4,0.5-2.1,0.8c-0.6,0.3-1.1,0.6-1.5,0.8c-0.3,0.2-0.6,0.3-0.9,0.4
	c-0.1,0-0.2,0-0.4-0.1c-0.1-0.1-0.2-0.2-0.3-0.3c-0.1-0.2-0.1-0.3-0.2-0.5c0-0.2,0-0.5,0-0.7c0-0.3,0-0.7,0.1-1s0.2-0.5,0.4-0.7
	c0.4-0.3,0.7-0.6,1.2-0.8c0.6-0.3,1.2-0.6,1.9-0.8c0.8-0.3,1.6-0.5,2.4-0.6c0.9-0.2,1.7-0.2,2.6-0.2c1.4,0,2.8,0.2,4.1,0.6
	c1,0.3,2,0.8,2.8,1.5c0.7,0.7,1.3,1.6,1.5,2.6c0.3,1.2,0.5,2.4,0.5,3.7L269.3,251.4z M265.2,241.1h-3.5c-1,0-2,0.1-3,0.3
	c-0.7,0.2-1.5,0.4-2.1,0.9c-0.5,0.3-0.9,0.8-1.2,1.4c-0.3,0.6-0.4,1.2-0.4,1.8c-0.1,1,0.4,2.1,1.1,2.8c0.9,0.7,2,1.1,3.1,1
	c1.1,0,2.2-0.3,3.1-0.8c1.1-0.7,2.1-1.5,2.9-2.5V241.1z"/>
<path class="st0" d="M293.1,248c0,0.3,0,0.5,0,0.7s0,0.4-0.1,0.5c0,0.1-0.1,0.3-0.2,0.4c-0.1,0.2-0.2,0.3-0.4,0.5
	c-0.3,0.3-0.7,0.6-1.1,0.8c-0.5,0.3-1.1,0.6-1.7,0.8c-0.7,0.3-1.3,0.4-2,0.6c-0.8,0.2-1.5,0.2-2.3,0.2c-1.5,0-2.9-0.2-4.3-0.8
	c-1.2-0.5-2.3-1.3-3.1-2.4c-0.9-1.1-1.5-2.4-1.9-3.8c-0.5-1.7-0.7-3.4-0.7-5.2c0-1.9,0.2-3.9,0.8-5.7c0.5-1.5,1.2-2.8,2.2-3.9
	c0.9-1,2.1-1.8,3.3-2.3c1.3-0.5,2.7-0.8,4.1-0.7c0.7,0,1.4,0.1,2.1,0.2c0.6,0.1,1.3,0.3,1.9,0.5c0.5,0.2,1.1,0.5,1.5,0.8
	c0.3,0.2,0.7,0.5,1,0.7c0.2,0.1,0.3,0.3,0.4,0.5c0.1,0.1,0.1,0.3,0.2,0.4c0.1,0.2,0.1,0.4,0.1,0.5c0,0.2,0,0.4,0,0.8
	c0,0.5,0,0.9-0.2,1.4c-0.1,0.2-0.3,0.4-0.6,0.4c-0.3,0-0.6-0.2-0.9-0.4c-0.4-0.3-0.8-0.6-1.2-0.9c-0.6-0.4-1.2-0.7-1.8-0.9
	c-0.8-0.3-1.7-0.4-2.5-0.4c-1.8-0.1-3.6,0.8-4.6,2.3c-1.2,2-1.7,4.3-1.5,6.7c0,1.3,0.1,2.6,0.4,3.8c0.2,1,0.6,1.9,1.2,2.8
	c0.5,0.7,1.2,1.3,2,1.6c0.8,0.4,1.8,0.6,2.7,0.5c0.9,0,1.7-0.1,2.5-0.4c0.7-0.3,1.3-0.6,1.9-1c0.5-0.4,1-0.7,1.3-1
	c0.2-0.2,0.5-0.4,0.8-0.4c0.1,0,0.2,0,0.3,0.1c0.1,0.1,0.2,0.2,0.2,0.3c0.1,0.2,0.1,0.4,0.1,0.6C293.1,247.4,293.1,247.7,293.1,248z
	"/>
<path class="st0" d="M303.2,221.2c0.1,0.7-0.1,1.4-0.6,2c-0.6,0.4-1.3,0.6-2,0.5c-0.7,0.1-1.4-0.1-2-0.5c-0.4-0.6-0.6-1.3-0.5-1.9
	c-0.1-0.7,0.1-1.4,0.6-2c0.6-0.4,1.3-0.6,2-0.5c0.7-0.1,1.4,0.1,2,0.5C303.1,219.8,303.3,220.5,303.2,221.2z M302.7,251.4
	c0,0.1,0,0.2-0.1,0.3s-0.2,0.2-0.3,0.2c-0.2,0.1-0.4,0.1-0.6,0.2c-0.3,0-0.7,0-1,0s-0.7,0-1,0c-0.2,0-0.4-0.1-0.6-0.2
	c-0.1,0-0.2-0.1-0.3-0.2c-0.1-0.1-0.1-0.2-0.1-0.3v-22.6c0-0.1,0-0.2,0.1-0.3s0.2-0.2,0.4-0.3c0.2-0.1,0.4-0.1,0.6-0.2
	c0.3,0,0.7,0,1,0s0.7,0,1,0c0.2,0,0.4,0.1,0.6,0.2c0.1,0.1,0.2,0.1,0.3,0.2c0.1,0.1,0.1,0.2,0.1,0.3L302.7,251.4z"/>
<path class="st0" d="M331.4,239.9c0,1.7-0.2,3.4-0.7,5.1c-0.4,1.5-1.2,2.8-2.2,4c-1,1.1-2.2,2-3.6,2.6c-1.6,0.7-3.3,1-5,0.9
	c-1.7,0-3.3-0.3-4.9-0.8c-1.3-0.5-2.5-1.3-3.4-2.4c-1-1.1-1.7-2.4-2.1-3.8c-0.5-1.7-0.7-3.4-0.7-5.1c0-1.7,0.2-3.4,0.7-5.1
	c0.4-1.5,1.2-2.8,2.1-4c1-1.1,2.2-2,3.6-2.6c1.6-0.6,3.3-1,5-0.9c1.7,0,3.3,0.3,4.9,0.8c1.3,0.5,2.5,1.3,3.4,2.4
	c1,1.1,1.7,2.4,2.1,3.8C331.2,236.4,331.4,238.1,331.4,239.9z M327.1,240.1c0-1.2-0.1-2.3-0.3-3.5c-0.2-1-0.6-2-1.1-2.9
	c-0.5-0.8-1.3-1.5-2.1-1.9c-1-0.5-2.2-0.8-3.3-0.7c-1.1,0-2.2,0.2-3.2,0.6c-0.9,0.4-1.6,1.1-2.2,1.8c-0.6,0.8-1,1.8-1.3,2.8
	c-0.3,1.2-0.4,2.4-0.4,3.6c0,1.2,0.1,2.3,0.3,3.5c0.2,1,0.6,2,1.1,2.8s1.2,1.5,2.1,2c1,0.5,2.2,0.8,3.3,0.7c1.1,0,2.1-0.2,3.1-0.6
	c0.9-0.4,1.6-1,2.2-1.8s1-1.8,1.3-2.8C326.9,242.6,327.1,241.4,327.1,240.1L327.1,240.1z M322.2,217.8c0.1-0.2,0.2-0.3,0.4-0.4
	c0.1-0.1,0.3-0.2,0.5-0.3s0.5-0.1,0.7-0.2c0.3,0,0.7,0,1,0c0.4,0,0.8,0,1.1,0.1c0.2,0,0.4,0.1,0.6,0.2c0.1,0.1,0.2,0.2,0.2,0.4
	s-0.1,0.3-0.2,0.4l-4.5,5.8c-0.1,0.1-0.2,0.3-0.4,0.4c-0.1,0.1-0.2,0.2-0.4,0.2c-0.2,0.1-0.4,0.1-0.6,0.1c-0.3,0-0.6,0-0.8,0
	c-0.3,0-0.6,0-0.9,0c-0.2,0-0.3-0.1-0.5-0.2c-0.1-0.1-0.1-0.2-0.1-0.3c0-0.2,0.1-0.3,0.2-0.5L322.2,217.8z"/>
<path class="st0" d="M356.9,251.4c0,0.1,0,0.2-0.1,0.3s-0.2,0.2-0.3,0.2c-0.2,0.1-0.4,0.1-0.6,0.2c-0.3,0-0.7,0-1,0s-0.7,0-1,0
	c-0.2,0-0.4-0.1-0.6-0.2c-0.1,0-0.2-0.1-0.3-0.2c-0.1-0.1-0.1-0.2-0.1-0.3v-13.2c0-1-0.1-2.1-0.3-3.1c-0.2-0.7-0.5-1.4-0.9-2
	s-0.9-1-1.5-1.3c-0.7-0.3-1.4-0.5-2.1-0.4c-1.1,0-2.2,0.4-3.1,1.1c-1.2,0.9-2.3,2-3.3,3.2v15.8c0,0.1,0,0.2-0.1,0.3
	s-0.2,0.2-0.3,0.2c-0.2,0.1-0.4,0.1-0.6,0.2c-0.3,0-0.7,0-1,0s-0.7,0-1,0c-0.2,0-0.4-0.1-0.6-0.2c-0.1,0-0.2-0.1-0.3-0.2
	c-0.1-0.1-0.1-0.2-0.1-0.3v-22.6c0-0.1,0-0.2,0-0.3c0.1-0.1,0.2-0.2,0.3-0.2c0.2-0.1,0.4-0.1,0.6-0.2h0.9h0.9c0.2,0,0.4,0.1,0.6,0.2
	c0.1,0.1,0.2,0.1,0.3,0.2c0.1,0.1,0.1,0.2,0.1,0.3v3c1.1-1.2,2.4-2.3,3.8-3.1c1.2-0.6,2.5-1,3.8-1s2.6,0.2,3.8,0.8
	c1,0.5,1.8,1.2,2.5,2c0.7,0.9,1.1,1.9,1.4,3c0.3,1.4,0.4,2.7,0.4,4.1L356.9,251.4z"/>
<path class="st0" d="M119.1,292.4c0,0.3,0,0.5,0,0.7s0,0.4-0.1,0.5c0,0.1-0.1,0.3-0.2,0.4c-0.1,0.2-0.2,0.3-0.4,0.4
	c-0.3,0.3-0.7,0.5-1.1,0.8c-0.6,0.4-1.3,0.7-2,1c-0.9,0.4-1.8,0.6-2.7,0.8c-1.1,0.2-2.2,0.3-3.4,0.3c-2,0-3.9-0.3-5.7-1.1
	c-1.7-0.7-3.2-1.7-4.3-3.1c-1.3-1.5-2.2-3.2-2.8-5.1c-1.3-4.6-1.3-9.5,0-14.2c0.6-2,1.6-3.8,2.9-5.3c1.2-1.4,2.8-2.6,4.5-3.4
	c2.7-1.1,5.7-1.4,8.5-0.9c0.8,0.2,1.7,0.4,2.5,0.7c0.7,0.2,1.4,0.6,2,0.9c0.4,0.2,0.8,0.5,1.2,0.9c0.2,0.2,0.3,0.3,0.4,0.5
	c0.1,0.1,0.1,0.3,0.2,0.4c0,0.2,0.1,0.4,0.1,0.6c0,0.3,0,0.5,0,0.8s0,0.6,0,0.9c0,0.2-0.1,0.4-0.2,0.6c-0.1,0.1-0.1,0.3-0.2,0.4
	s-0.2,0.1-0.3,0.1c-0.4-0.1-0.7-0.2-1-0.5c-0.5-0.4-1.1-0.8-1.6-1.1c-0.8-0.4-1.6-0.8-2.4-1.1c-1.1-0.4-2.3-0.5-3.4-0.5
	c-1.4,0-2.7,0.3-3.9,0.9c-1.2,0.6-2.3,1.5-3.1,2.6c-0.9,1.2-1.6,2.6-1.9,4.1c-0.9,3.6-0.9,7.4,0,11c0.4,1.4,1.1,2.8,2,4
	c0.8,1,1.9,1.9,3.1,2.4c1.3,0.6,2.7,0.8,4.1,0.8c1.1,0,2.3-0.1,3.4-0.5c0.9-0.3,1.7-0.6,2.5-1.1c0.6-0.3,1.1-0.7,1.7-1.1
	c0.3-0.3,0.7-0.4,1-0.5c0.1,0,0.2,0,0.3,0c0.1,0.1,0.2,0.2,0.2,0.3c0.1,0.2,0.1,0.4,0.1,0.6C119.1,291.7,119.1,292.1,119.1,292.4z"
	/>
<path class="st0" d="M149.4,295.3c0,0.3-0.1,0.6-0.2,0.9c-0.1,0.2-0.3,0.4-0.4,0.6c-0.2,0.1-0.4,0.3-0.6,0.3
	c-0.2,0.1-0.5,0.1-0.7,0.1H146c-0.4,0-0.8,0-1.2-0.1s-0.7-0.3-1-0.5c-0.3-0.3-0.7-0.6-0.9-1c-0.4-0.5-0.7-1-1-1.5l-9.9-18.5
	c-0.5-0.9-1-1.9-1.5-3s-1-2.1-1.5-3.1l0,0c0,1.2,0,2.4,0,3.7c0,1.2,0,2.5,0,3.7v19.6c0,0.1,0,0.2-0.1,0.3c-0.1,0.1-0.2,0.2-0.4,0.2
	c-0.2,0.1-0.4,0.1-0.7,0.2c-0.7,0.1-1.4,0.1-2.1,0c-0.2,0-0.4-0.1-0.6-0.2c-0.1,0-0.3-0.1-0.3-0.2c-0.1-0.1-0.1-0.2-0.1-0.3v-29.9
	c-0.1-0.5,0.2-1.1,0.6-1.4s0.8-0.4,1.2-0.4h2.1c0.4,0,0.8,0,1.3,0.1c0.3,0.1,0.6,0.2,0.9,0.4c0.3,0.2,0.6,0.5,0.8,0.8
	c0.3,0.4,0.6,0.8,0.8,1.3l7.6,14.2l1.4,2.6c0.4,0.8,0.9,1.6,1.3,2.4l1.2,2.4l1.2,2.4l0,0c0-1.3,0-2.7,0-4.1s0-2.8,0-4.1v-17.6
	c0-0.1,0-0.2,0.1-0.3c0.1-0.1,0.2-0.2,0.4-0.3c0.2-0.1,0.4-0.1,0.7-0.2c0.4,0,0.7,0,1.1,0c0.3,0,0.7,0,1,0c0.2,0,0.5,0.1,0.7,0.2
	c0.1,0.1,0.3,0.1,0.3,0.3c0.1,0.1,0.1,0.2,0.1,0.3L149.4,295.3z"/>
<path class="st0" d="M182.3,295.5c0.1,0.3,0.2,0.6,0.2,0.9c0,0.2,0,0.4-0.2,0.5s-0.4,0.2-0.7,0.2c-0.4,0-0.8,0-1.2,0
	c-0.5,0-0.9,0-1.2,0c-0.2,0-0.5-0.1-0.7-0.1c-0.1,0-0.3-0.1-0.4-0.2c-0.1-0.1-0.2-0.2-0.2-0.4l-2.8-7.9h-13.5l-2.7,7.7
	c0,0.1-0.1,0.3-0.2,0.4c-0.1,0.1-0.2,0.2-0.4,0.3c-0.2,0.1-0.4,0.1-0.7,0.2c-0.4,0-0.8,0-1.1,0c-0.4,0-0.8,0-1.2,0
	c-0.2,0-0.5-0.1-0.6-0.2s-0.2-0.3-0.2-0.5c0-0.3,0.1-0.6,0.2-0.9l10.8-30.1c0.1-0.2,0.1-0.3,0.3-0.4c0.1-0.1,0.3-0.2,0.5-0.3
	c0.3-0.1,0.5-0.1,0.8-0.1s0.7,0,1.2,0s0.9,0,1.3,0c0.3,0,0.6,0.1,0.9,0.1c0.2,0.1,0.4,0.2,0.5,0.3c0.1,0.1,0.2,0.3,0.3,0.5
	L182.3,295.5z M168.4,268.9L168.4,268.9l-5.6,16.2h11.3L168.4,268.9z"/>
<path class="st0" d="M197.1,284.4c0,0.5,0,0.9-0.2,1.4c-0.1,0.2-0.4,0.4-0.6,0.4h-10.5c-0.3,0-0.5-0.1-0.7-0.4
	c-0.2-0.4-0.3-0.9-0.2-1.3c0-0.5,0-0.9,0.2-1.3c0.1-0.2,0.4-0.4,0.7-0.4h10.5c0.1,0,0.2,0,0.4,0c0.1,0.1,0.2,0.2,0.3,0.3
	c0.1,0.2,0.1,0.4,0.2,0.5C197,283.8,197.1,284.1,197.1,284.4z"/>
<path class="st0" d="M224.7,292.4c0,0.3,0,0.5,0,0.7s0,0.4-0.1,0.5c0,0.1-0.1,0.3-0.2,0.4c-0.1,0.2-0.2,0.3-0.4,0.4
	c-0.3,0.3-0.7,0.5-1.1,0.8c-0.6,0.4-1.3,0.7-2,1c-0.9,0.4-1.8,0.6-2.7,0.8c-1.1,0.2-2.2,0.3-3.4,0.3c-2,0-3.9-0.3-5.7-1.1
	c-1.7-0.7-3.2-1.7-4.3-3.1c-1.3-1.5-2.2-3.2-2.8-5.1c-1.3-4.6-1.3-9.5,0-14.2c0.6-2,1.6-3.8,2.9-5.3c1.2-1.4,2.8-2.6,4.5-3.4
	c2.7-1.1,5.7-1.4,8.5-0.9c0.8,0.2,1.7,0.4,2.5,0.7c0.7,0.2,1.4,0.6,2,0.9c0.4,0.2,0.8,0.5,1.2,0.9c0.2,0.2,0.3,0.3,0.4,0.5
	c0.1,0.1,0.1,0.3,0.2,0.4c0,0.2,0.1,0.4,0.1,0.6c0,0.3,0,0.5,0,0.8s0,0.6,0,0.9c0,0.2-0.1,0.4-0.2,0.6c-0.1,0.1-0.1,0.3-0.2,0.4
	c-0.1,0.1-0.2,0.1-0.3,0.1c-0.4-0.1-0.7-0.2-1-0.5c-0.5-0.4-1.1-0.8-1.6-1.1c-0.8-0.4-1.6-0.8-2.4-1.1c-1.1-0.4-2.3-0.5-3.4-0.5
	c-1.4,0-2.7,0.3-3.9,0.9s-2.3,1.5-3.1,2.6c-0.9,1.2-1.6,2.6-1.9,4.1c-0.9,3.6-0.9,7.4,0,11c0.4,1.4,1,2.8,1.9,4
	c0.8,1,1.9,1.9,3.1,2.4c1.3,0.6,2.7,0.8,4.1,0.8c1.1,0,2.3-0.1,3.4-0.5c0.9-0.3,1.7-0.6,2.5-1.1c0.6-0.3,1.1-0.7,1.7-1.1
	c0.3-0.3,0.7-0.4,1-0.5c0.1,0,0.2,0,0.3,0c0.1,0.1,0.2,0.2,0.2,0.3c0.1,0.2,0.1,0.4,0.1,0.6C224.7,291.7,224.7,292.1,224.7,292.4z"
	/>
<path class="st0" d="M249.4,296.4c0,0.1,0,0.2-0.1,0.3c-0.1,0.1-0.2,0.2-0.3,0.2c-0.2,0.1-0.4,0.1-0.6,0.2c-0.3,0-0.7,0-1,0
	s-0.7,0-1,0c-0.2,0-0.4-0.1-0.6-0.2c-0.1,0-0.2-0.1-0.3-0.2s-0.1-0.2-0.1-0.3v-13.2c0-1-0.1-2.1-0.3-3.1c-0.2-0.7-0.5-1.4-0.9-2
	s-0.9-1-1.5-1.3c-0.7-0.3-1.4-0.5-2.1-0.4c-1.1,0-2.2,0.4-3.1,1.1c-1.2,0.9-2.3,2-3.3,3.2v15.8c0,0.1,0,0.2-0.1,0.3
	c-0.1,0.1-0.2,0.2-0.3,0.2c-0.2,0.1-0.4,0.1-0.6,0.2c-0.3,0-0.7,0-1,0s-0.7,0-1,0c-0.2,0-0.4-0.1-0.6-0.2c-0.1,0-0.2-0.1-0.3-0.2
	s-0.1-0.2-0.1-0.3V263c0-0.1,0-0.2,0.1-0.4c0.1-0.1,0.2-0.2,0.3-0.2c0.2-0.1,0.4-0.1,0.6-0.2c0.3,0,0.7,0,1,0s0.7,0,1,0
	c0.2,0,0.4,0.1,0.6,0.2c0.1,0.1,0.2,0.1,0.3,0.2s0.1,0.2,0.1,0.4v13.5c1-1.1,2.2-2.1,3.6-2.8c1.1-0.6,2.4-0.9,3.6-0.9
	c1.3,0,2.6,0.2,3.8,0.8c1,0.5,1.8,1.2,2.5,2c0.7,0.9,1.1,1.9,1.4,3c0.3,1.4,0.4,2.8,0.4,4.1L249.4,296.4z"/>
<path class="st0" d="M261.6,266.2c0.1,0.7-0.1,1.4-0.6,2c-0.6,0.4-1.3,0.6-2,0.5c-0.7,0.1-1.4-0.1-2-0.5c-0.4-0.6-0.6-1.3-0.5-1.9
	c-0.1-0.7,0.1-1.4,0.6-2c0.6-0.4,1.3-0.6,2-0.5c0.7-0.1,1.4,0.1,2,0.5C261.5,264.8,261.7,265.5,261.6,266.2z M261.1,296.4
	c0,0.1,0,0.2-0.1,0.3c-0.1,0.1-0.2,0.2-0.3,0.2c-0.2,0.1-0.4,0.1-0.6,0.2c-0.3,0-0.7,0-1,0s-0.7,0-1,0c-0.2,0-0.4-0.1-0.6-0.2
	c-0.1,0-0.2-0.1-0.3-0.2c-0.1-0.1-0.1-0.2-0.1-0.3v-22.6c0-0.1,0-0.2,0.1-0.3c0.1-0.1,0.2-0.2,0.3-0.2c0.2-0.1,0.4-0.1,0.6-0.2
	c0.3,0,0.7,0,1,0s0.7,0,1,0c0.2,0,0.4,0.1,0.6,0.2c0.1,0.1,0.2,0.1,0.3,0.2c0.1,0.1,0.1,0.2,0.1,0.3V296.4z"/>
<path class="st0" d="M272.8,296.4c0,0.1,0,0.2-0.1,0.3c-0.1,0.1-0.2,0.2-0.3,0.2c-0.2,0.1-0.4,0.1-0.6,0.2c-0.3,0-0.7,0-1,0
	s-0.7,0-1,0c-0.2,0-0.4-0.1-0.6-0.2c-0.1,0-0.2-0.1-0.3-0.2c-0.1-0.1-0.1-0.2-0.1-0.3v-33.5c0-0.1,0-0.2,0.1-0.4
	c0.1-0.1,0.2-0.2,0.3-0.2c0.2-0.1,0.4-0.1,0.6-0.2c0.3,0,0.7,0,1,0s0.7,0,1,0c0.2,0,0.4,0.1,0.6,0.2c0.1,0.1,0.2,0.1,0.3,0.2
	c0.1,0.1,0.1,0.2,0.1,0.4V296.4z"/>
<path class="st0" d="M299.8,284.1c0.1,0.5-0.1,1-0.5,1.4c-0.3,0.3-0.7,0.4-1.1,0.4h-14.9c0,1.1,0.1,2.3,0.4,3.4
	c0.2,0.9,0.6,1.8,1.3,2.6c0.6,0.7,1.4,1.3,2.3,1.7c1.1,0.4,2.3,0.6,3.4,0.6c1,0,1.9-0.1,2.9-0.3c0.7-0.1,1.5-0.3,2.2-0.6
	c0.6-0.2,1.1-0.4,1.5-0.6c0.3-0.1,0.6-0.2,0.9-0.3c0.1,0,0.2,0,0.3,0.1c0.1,0.1,0.2,0.2,0.2,0.3c0.1,0.2,0.1,0.3,0.1,0.5
	c0,0.3,0,0.5,0,0.8c0,0.2,0,0.4,0,0.6s0,0.3,0,0.4s-0.1,0.2-0.1,0.3c-0.1,0.1-0.1,0.2-0.2,0.3c-0.3,0.2-0.5,0.3-0.8,0.4
	c-0.6,0.3-1.2,0.5-1.8,0.6c-0.8,0.2-1.7,0.4-2.5,0.5c-1,0.2-2.1,0.2-3.1,0.2c-1.7,0-3.3-0.2-4.9-0.8c-1.3-0.5-2.5-1.3-3.5-2.3
	c-1-1.1-1.7-2.4-2.1-3.8c-0.5-1.7-0.8-3.6-0.7-5.4c0-1.8,0.2-3.5,0.8-5.2c0.4-1.4,1.2-2.8,2.2-3.9c0.9-1.1,2.1-1.9,3.4-2.5
	c1.4-0.6,2.9-0.9,4.5-0.9s3.1,0.2,4.5,0.9c1.2,0.5,2.2,1.3,3.1,2.3c0.8,1,1.4,2.1,1.8,3.4s0.6,2.7,0.6,4.1v0.8H299.8z M295.6,282.9
	c0.2-1.8-0.4-3.6-1.5-5.1c-1.1-1.3-2.8-2-4.5-1.9c-0.9,0-1.9,0.2-2.7,0.6c-0.8,0.4-1.4,0.9-1.9,1.5c-0.5,0.7-0.9,1.4-1.2,2.2
	c-0.3,0.9-0.4,1.7-0.5,2.6L295.6,282.9z"/>
</svg>
