<?xml version="1.0" encoding="utf-8"?>
<!-- Generator: Adobe Illustrator 21.1.0, SVG Export Plug-In . SVG Version: 6.00 Build 0)  -->
<svg version="1.1" id="Capa_1" xmlns="http://www.w3.org/2000/svg" xmlns:xlink="http://www.w3.org/1999/xlink" x="0px" y="0px"
	 viewBox="0 0 1920 1080" style="enable-background:new 0 0 1920 1080;" xml:space="preserve">
<style type="text/css">
	.st0{fill:#FFFFFF;}
	.st1{fill:#323D6B;}
	.st2{fill:#BC2E34;}
</style>
<path class="st0" d="M429.6,393.5c81.2,0,147,65.8,147,147s-65.8,147-147,147s-147-65.8-147-147
	C282.6,459.3,348.4,393.5,429.6,393.5"/>
<path class="st1" d="M429.6,429.7c61.2,0,110.8,49.6,110.8,110.8s-49.6,110.8-110.8,110.8s-110.8-49.6-110.8-110.8
	S368.4,429.7,429.6,429.7"/>
<polygon class="st0" points="398.5,459 426.5,442.2 426.5,467.7 401.2,482.6 366.8,482.6 366.8,459.4 "/>
<polygon class="st2" points="372.4,464.1 372.4,477.9 399.9,477.9 421.7,465 421.7,450.7 399.9,463.8 "/>
<polygon class="st0" points="366.8,491.4 399.9,491.4 426.5,476.4 426.5,471.6 399.9,486.6 366.8,486.6 "/>
<polygon class="st0" points="366.8,501.1 399.9,501.1 426.5,486.2 426.5,481.4 399.9,496.4 366.8,496.4 "/>
<polygon class="st0" points="400.2,539.6 436,559.8 436,581 428.9,584.8 421.7,581 421.7,567.4 400.2,555.3 400.2,589.7 
	427.3,604.9 427.2,638.8 367.6,605.2 367.6,537.1 362.1,537.1 362.1,504.6 400.2,504.6 "/>
<polygon class="st2" points="366.9,509.4 372.4,509.4 395.4,509.4 395.4,532.4 395.4,542.4 431.2,562.5 431.2,578.1 428.9,579.4 
	426.5,578.1 426.5,564.6 395.4,547.1 395.4,592.5 422.5,607.7 422.5,630.6 372.4,602.4 372.4,532.4 366.9,532.4 "/>
<polygon class="st0" points="436,523.2 459,536.2 459,504.6 497.1,504.6 497.1,537.1 491.6,537.1 491.6,605.2 432,638.8 
	431.9,604.9 459,589.7 459,551.9 421.7,530.9 421.7,509.6 428.8,505.8 436,509.6 "/>
<polygon class="st2" points="431.2,512.5 431.2,526 463.8,544.3 463.8,532.4 463.8,509.4 486.8,509.4 492.3,509.4 492.3,532.4 
	486.8,532.4 486.8,602.4 436.7,630.6 436.7,607.7 463.8,592.5 463.8,549.7 463,548.6 426.5,528.1 426.5,512.5 428.9,511.2 "/>
<polygon class="st0" points="459.2,459 431.2,442.2 431.2,467.7 456.5,482.6 490.9,482.6 490.9,459.4 "/>
<polygon class="st2" points="485.3,464.1 485.3,477.9 457.8,477.9 436,465 436,450.7 457.8,463.8 "/>
<polygon class="st0" points="490.9,491.4 457.8,491.4 431.2,476.4 431.2,471.6 457.8,486.6 490.9,486.6 "/>
<polygon class="st0" points="490.9,501.1 457.8,501.1 431.2,486.2 431.2,481.4 457.8,496.4 490.9,496.4 "/>
<path class="st1" d="M340.7,603.4l-21.8,21.8c25.5,33.3,65.6,54.7,110.7,54.7s85.2-21.5,110.7-54.7l-21.8-21.8l1.1-1.1l21.6,21.6
	c17.4-23.3,27.7-52.1,27.7-83.4c0-77-62.4-139.3-139.3-139.3s-139.3,62.4-139.3,139.3c0,31.3,10.3,60.2,27.7,83.4l21.7-21.7
	L340.7,603.4z M429.6,399c78.2,0,141.5,63.4,141.5,141.5S507.8,682,429.6,682s-141.5-63.4-141.5-141.5S351.4,399,429.6,399"/>
<path class="st1" d="M298.7,530.2h-0.4l0.3-4.3h0.5l-0.1,1.5l13,1c0.6,0,1.2,0.3,1.6,0.7c0.5,0.4,0.8,1,1,1.6s0.3,1.3,0.3,1.9
	c0,0.6-0.2,1.3-0.4,2.1c-0.3,0.8-0.5,1.4-0.9,1.8c-0.7,0.8-1.6,1.2-2.8,1.1l-11.3-0.9c-0.8-0.1-1.2,0.5-1.3,1.8h-0.5l0.4-5.2h0.5
	l-0.1,1.6l12.6,1c0.9,0.1,1.6-0.2,2.2-0.9c0.6-0.6,0.9-1.5,1-2.5c0.1-0.9-0.2-1.7-0.7-2.3s-1.2-1-2-1l-11.5-0.9
	c-0.8-0.1-1.2,0.4-1.2,1.4L298.7,530.2z M314.9,523.6l0.3-1.5l-12.8-2.3c-0.7-0.1-1.2-0.1-1.6,0c-0.5,0.2-0.9,0.7-1.1,1.8l-0.4-0.1
	l0.5-2.7l14.5-5v-0.1l-11.1-2c-0.5-0.1-0.9,0-1.3,0.3s-0.6,0.7-0.7,1.3l-0.4-0.1l0.7-4.1l0.4,0.1l-0.2,1.4l16.3,2.9l-0.1,0.5
	l-14.6,5.1l0,0l10.1,1.8c0.8,0.1,1.4,0,1.7-0.3c0.2-0.3,0.4-0.8,0.5-1.5l0.4,0.1l-0.8,4.5L314.9,523.6z M317.9,508.4l0.5-1.7
	l-13.6-3.9c-0.4-0.1-0.8,0-1,0.2c-0.2,0.3-0.4,0.7-0.6,1.3l-0.4-0.1l1.4-5l0.4,0.1l-0.5,1.6l13.2,3.8c0.4,0.1,0.7,0.2,0.8,0.2
	c0.3,0,0.5-0.1,0.6-0.2c0.1-0.2,0.3-0.7,0.5-1.4l0.4,0.1l-1.4,5.1L317.9,508.4z M322.5,491.7l-9.3-7.8c-0.4-0.3-0.6-0.4-0.7-0.5
	c-0.4-0.2-0.8-0.2-1.1,0c-0.3,0.2-0.5,0.6-0.8,1.1l-0.1,0.3l-0.4-0.2l2.1-4.7l0.4,0.2l-0.7,1.5l13.1,11.2l-0.2,0.6l-14.8-1
	c-0.9,0-1.5-0.1-2,0c-0.4,0.1-0.8,0.2-1,0.4c-0.2,0.2-0.4,0.5-0.6,0.9l-0.2,0.5l-0.4-0.2l2.4-5.3l0.4,0.2l-0.8,1.9L322.5,491.7z
	 M332.9,476.4l-4.5,7.9l-0.4-0.2l0.9-1.5l-12.2-7c-0.4-0.2-0.8-0.3-1.1-0.1c-0.3,0.2-0.6,0.6-0.9,1.1l-0.4-0.2l4.6-8l-0.9-0.5
	l0.3-0.5l4.7,2.7l-0.3,0.5l-0.8-0.4c-1.2-0.7-2.1-0.8-2.8-0.3c-0.7,0.4-1.4,1.4-2.3,3l-0.4,0.7l3.4,2l1.3-2.2L319,472l0.2-0.4l5.2,3
	l-0.2,0.4c-0.6-0.4-1.2-0.6-1.7-0.7s-1,0-1.4,0.4c-0.2,0.2-0.5,0.5-0.8,1.1l9.3,5.4c0.6-1.1,1.1-2.1,1.6-3.1c0.2-0.8,0.2-1.5-0.1-2
	c-0.3-0.5-0.7-1-1.4-1.4l-1.1-0.6l0.3-0.5l5.1,2.9l-0.3,0.5L332.9,476.4z M322.7,462l2.3-2.7l1.2,1c0.4-2.2,1.2-3.9,2.4-5.4
	c0.9-1.1,2-1.9,3.4-2.5c1.3-0.6,2.6-0.9,3.9-0.8s2.4,0.5,3.3,1.3c1,0.8,1.6,1.9,1.9,3.2c0.3,1.3,0.2,2.6-0.2,3.9
	c-0.4,1.4-1.1,2.7-2,3.9l0,0c0.4-0.2,1.1-0.6,2.3-1.2c1.2-0.6,2.1-1.1,2.8-1.5c0.7-0.5,1.4-1,1.9-1.6c0.4-0.5,0.6-0.9,0.7-1.2h0.3
	c0,0.7-0.4,1.3-1,2c-0.5,0.6-1,1.1-1.7,1.6c-0.6,0.5-1.2,0.9-1.7,1.2c-0.5,0.3-1.4,0.8-2.5,1.5c-2.2,1.2-4.1,2.1-5.7,2.7l1.7,1.5
	c0.3,0.2,0.5,0.4,0.7,0.4s0.4,0,0.6-0.2s0.5-0.5,0.8-0.7c0.1-0.2,0.3-0.4,0.5-0.7l0.3,0.3l-3.8,4.4l-0.3-0.3l1.1-1.2l-10.7-9.3
	c-0.5-0.5-1.2-0.3-1.9,0.5l-0.2,0.2L322.7,462z M326.9,461l6.7,5.8l-0.1-0.5c2.3-0.7,3.9-1.7,5-2.9c0.8-0.9,1.3-1.9,1.6-3.1
	c0.3-1.1,0.3-2.2,0-3.3c-0.3-1.1-0.8-1.9-1.6-2.6c-0.9-0.7-1.9-1.1-3.1-1.2s-2.4,0.1-3.5,0.5c-1.2,0.5-2.2,1.2-3.1,2.2
	C327.4,457.4,326.8,459.1,326.9,461 M346.2,436.3l4.1,4.8l-0.4,0.4l-1-1.1c-0.7-0.8-1.4-1.3-2.1-1.6c-0.7-0.3-1.4-0.1-2.2,0.6
	c-0.4,0.3-0.6,0.7-0.8,1.1c-0.2,0.4-0.3,0.8-0.2,1.2c0,0.4,0.2,0.8,0.5,1.1c0.4,0.4,0.9,0.7,1.4,0.8c0.6,0.1,1.2,0,1.8-0.1
	c0.6-0.1,1.5-0.4,2.5-0.7c1.1-0.3,2.1-0.6,2.9-0.8c0.8-0.2,1.6-0.2,2.4,0c0.8,0.1,1.4,0.5,1.9,1.1s0.9,1.3,1,2.1
	c0.1,0.8,0.1,1.6-0.2,2.5c-0.2,0.9-0.6,1.7-1.2,2.5c-0.5,0.8-1.2,1.6-2,2.2c-1,0.9-2.1,1.5-3.2,1.9s-2.2,0.5-3.2,0.3
	s-1.9-0.7-2.6-1.5c-0.5-0.6-0.9-1.4-1-2.2c-0.1-0.8,0-1.7,0.3-2.6s0.9-1.6,1.6-2.2c0.4-0.4,1-0.7,1.6-0.9c0.6-0.2,1.2-0.3,1.8-0.3
	c0.6,0.1,1,0.3,1.4,0.7c0.3,0.4,0.5,0.9,0.4,1.4c-0.1,0.6-0.3,1-0.8,1.4c-0.1,0.1-0.3,0.2-0.6,0.4l-0.2-0.5c0.6-0.7,0.6-1.3,0.1-1.9
	c-0.2-0.2-0.5-0.4-0.9-0.5s-0.8-0.1-1.2,0c-0.4,0.1-0.8,0.3-1.2,0.6c-0.5,0.5-0.9,1-1.1,1.7c-0.2,0.6-0.2,1.3-0.1,1.9
	s0.4,1.2,0.8,1.6c0.6,0.7,1.3,1.1,2.2,1.4c0.9,0.3,1.8,0.3,2.9,0c1-0.2,2-0.8,2.9-1.5c0.8-0.7,1.5-1.5,1.9-2.5
	c0.5-0.9,0.7-1.8,0.6-2.7c0-0.9-0.3-1.7-0.9-2.3c-0.5-0.5-1-0.8-1.7-0.9s-1.4-0.1-2.1,0.1c-0.8,0.1-1.7,0.4-2.7,0.7
	c-1,0.3-1.8,0.5-2.5,0.6s-1.4,0.1-2,0s-1.2-0.5-1.6-1c-0.6-0.7-0.8-1.5-0.5-2.6c0.2-1,0.8-1.9,1.6-2.7c0.4-0.3,1-0.7,1.8-1l-0.6-0.7
	L346.2,436.3z M362.5,445.1l1.4-1l-8.2-11.5c-0.3-0.4-0.6-0.5-0.9-0.5c-0.4,0.1-0.8,0.3-1.3,0.7l-0.3-0.4l4.3-3l0.3,0.4l-1.4,1
	l8,11.2c0.2,0.3,0.4,0.6,0.5,0.6c0.2,0.2,0.4,0.2,0.6,0.2c0.2-0.1,0.7-0.3,1.3-0.8l0.3,0.4l-4.3,3L362.5,445.1z M369.5,440.1
	l1.6-0.8l-6.4-12.5c-0.4-0.7-1-0.8-1.9-0.3l-0.3,0.2l-0.2-0.4l7.2-3.7c1.4-0.7,2.7-1.2,3.9-1.4c1.2-0.2,2.3-0.2,3.4,0
	c0.7,0.2,1.4,0.4,2.1,0.7c0.7,0.3,1.3,0.7,1.8,1.2s1,1.1,1.3,1.7c0.9,1.9,1,3.8,0.3,5.9c-0.3,0.8-0.7,1.6-1.1,2.4
	c-0.5,0.7-1.2,1.5-2.1,2.3s-2.1,1.5-3.5,2.2l-5.7,2.9L369.5,440.1z M380.4,425.6c-0.6-1.1-1.6-2-2.8-2.6c-1.2-0.6-2.6-0.9-4.1-0.9
	s-2.9,0.4-4.3,1.1c-1.6,0.8-2.8,1.6-3.4,2.3l6.4,12.6c1.1-0.2,2.5-0.7,4.2-1.6c1.4-0.7,2.5-1.7,3.4-2.9c0.8-1.2,1.3-2.6,1.4-4
	C381.3,428.1,381.1,426.8,380.4,425.6 M399.2,427.6l-6.4-8.6l-2.3,0.7l-0.1,7.5c0,0.7,0,1.3,0.2,1.8c0.1,0.4,0.3,0.6,0.5,0.7
	s0.6,0.1,1,0c0.3,0,0.7-0.1,1.3-0.3l0.1,0.4l-5,1.4l-0.1-0.4l1.2-0.3v-17.2l0.5-0.1l8.5,11.5c0.3,0.4,0.6,0.8,0.9,1.3
	c0.3,0.4,0.7,0.8,1.1,1s0.9,0.3,1.4,0.1l0.1,0.4l-4.6,1.3l-0.1-0.4L399.2,427.6z M392.5,418.4l-1.9-2.7h-0.1v3.3L392.5,418.4z
	 M404.7,425.8l1.7-0.2l-1.8-14c-0.1-0.8-0.7-1.1-1.7-1h-0.4l-0.1-0.4l8-1c1.6-0.2,2.9-0.2,4.1,0s2.2,0.6,3.2,1.2
	c0.6,0.4,1.2,0.9,1.7,1.4s0.9,1.1,1.3,1.8c0.3,0.6,0.6,1.3,0.6,2c0.2,2.1-0.3,4-1.7,5.7c-0.6,0.7-1.2,1.3-1.9,1.9
	c-0.7,0.5-1.6,1-2.7,1.4s-2.4,0.7-4,0.9l-6.4,0.8L404.7,425.8z M419.9,415.9c-0.2-1.3-0.8-2.4-1.8-3.4s-2.1-1.7-3.6-2.2
	c-1.4-0.5-2.9-0.6-4.4-0.4c-1.8,0.2-3.1,0.6-4,1l1.8,14c1.1,0.2,2.6,0.2,4.5-0.1c1.6-0.2,2.9-0.7,4.1-1.6s2.1-2,2.7-3.3
	C419.9,418.6,420.1,417.3,419.9,415.9 M435,423.4l1.7,0.2l1.8-14c0.1-0.8-0.4-1.2-1.4-1.4h-0.4l0.1-0.4l8,1c1.6,0.2,2.9,0.5,4,1
	s2,1.1,2.8,1.9c0.5,0.5,0.9,1.1,1.3,1.8c0.4,0.7,0.6,1.3,0.8,2c0.2,0.7,0.2,1.4,0.1,2.1c-0.3,2.1-1.3,3.7-3.1,5.1
	c-0.7,0.5-1.5,1-2.3,1.3s-1.8,0.6-3,0.7s-2.5,0.1-4.1-0.1l-6.4-0.8L435,423.4z M452.2,417.6c0.1-1.3-0.2-2.5-0.9-3.8
	c-0.7-1.2-1.6-2.2-2.9-3.1c-1.3-0.8-2.6-1.3-4.2-1.5c-1.8-0.2-3.2-0.2-4.1,0l-1.8,14c1,0.5,2.5,0.8,4.3,1.1c1.6,0.2,3,0,4.4-0.5
	c1.4-0.6,2.5-1.4,3.4-2.5C451.5,420.2,452,419,452.2,417.6 M464.9,429.7l-8.7-2.5l0.1-0.4l1.7,0.5l3.8-13.5c0.1-0.5,0.1-0.8-0.2-1
	c-0.3-0.2-0.7-0.4-1.3-0.6l0.1-0.4l8.8,2.5l0.3-1l0.5,0.1l-1.5,5.3l-0.5-0.1l0.2-0.8c0.4-1.3,0.2-2.2-0.4-2.8
	c-0.6-0.5-1.7-1-3.5-1.5l-0.7-0.2l-1.1,3.8l2.4,0.7l0.7-2.3l0.4,0.1l-1.6,5.7l-0.4-0.1c0.2-0.7,0.3-1.3,0.3-1.8s-0.2-0.9-0.7-1.2
	c-0.2-0.2-0.6-0.3-1.2-0.5l-2.9,10.3c1.2,0.3,2.3,0.6,3.4,0.8c0.8,0,1.5-0.2,1.9-0.6s0.8-1,1-1.7l0.3-1.2l0.5,0.1l-1.6,5.7l-0.5-0.1
	L464.9,429.7z M488.9,422.2l-0.2,0.4l-1.5-0.8l-7,13.6c0.9,0.4,1.6,0.8,2.3,1c0.7,0.2,1.4,0.3,2,0.2c0.6-0.1,1.1-0.4,1.5-1.1
	l1.8-3.5l0.5,0.2l-3.6,7l-0.5-0.2l0.4-0.9l-7.6-3.9l0.2-0.4l1.5,0.8l6.5-12.6c0.2-0.4,0.2-0.7,0-1s-0.6-0.6-1.1-0.8l0.2-0.4
	L488.9,422.2z M497.9,445.7l2.3-10.5l-2-1.3l-5.7,4.9c-0.5,0.4-0.9,0.9-1.2,1.3c-0.2,0.3-0.3,0.6-0.2,0.8c0.1,0.2,0.3,0.5,0.7,0.8
	c0.2,0.2,0.6,0.4,1.1,0.7l-0.2,0.4l-4.4-2.8l0.2-0.4l1,0.7l12.9-11.4l0.5,0.3l-3,14c-0.1,0.5-0.2,1-0.3,1.5c-0.1,0.5-0.1,1,0,1.5
	s0.4,0.8,0.8,1.1l-0.2,0.4l-4-2.6l0.2-0.4L497.9,445.7z M500.3,434.6l0.8-3.3l0,0l-2.5,2.2L500.3,434.6z M528.5,451.1l-4.6,4.3
	l-0.4-0.4l1.1-1c0.8-0.7,1.3-1.4,1.5-2.1c0.3-0.7,0-1.4-0.7-2.2c-0.4-0.3-0.8-0.6-1.2-0.8c-0.4-0.2-0.8-0.2-1.2-0.2
	c-0.4,0.1-0.8,0.2-1,0.5c-0.4,0.4-0.7,0.9-0.7,1.5c-0.1,0.6,0,1.2,0.2,1.8c0.2,0.6,0.4,1.4,0.8,2.5c0.4,1.1,0.7,2.1,0.9,2.9
	s0.2,1.6,0.1,2.4c-0.1,0.8-0.5,1.4-1,2c-0.6,0.6-1.3,0.9-2,1.1c-0.8,0.2-1.6,0.1-2.5,0c-0.9-0.2-1.7-0.5-2.5-1s-1.6-1.1-2.3-1.8
	c-0.9-1-1.6-2-2-3.1c-0.5-1.1-0.6-2.2-0.5-3.2s0.6-1.9,1.4-2.6c0.6-0.6,1.3-0.9,2.2-1.1c0.8-0.2,1.7-0.1,2.6,0.2
	c0.9,0.3,1.6,0.8,2.3,1.5c0.4,0.4,0.7,0.9,1,1.5s0.4,1.2,0.4,1.7c0,0.6-0.2,1-0.6,1.4c-0.4,0.4-0.8,0.5-1.4,0.5
	c-0.6,0-1.1-0.3-1.5-0.7c-0.1-0.1-0.2-0.3-0.4-0.6l0.4-0.3c0.7,0.5,1.3,0.5,1.9,0c0.2-0.2,0.4-0.5,0.5-0.9s0-0.8-0.1-1.2
	c-0.1-0.4-0.4-0.8-0.7-1.2c-0.5-0.5-1.1-0.9-1.7-1c-0.7-0.2-1.3-0.2-1.9,0c-0.6,0.2-1.2,0.5-1.6,0.8c-0.6,0.6-1.1,1.4-1.3,2.3
	s-0.2,1.9,0.1,2.9s0.9,1.9,1.7,2.8c0.7,0.8,1.6,1.4,2.5,1.8c1,0.4,1.9,0.6,2.8,0.5c0.9-0.1,1.6-0.4,2.3-1c0.5-0.5,0.7-1.1,0.8-1.8
	c0.1-0.7,0-1.4-0.2-2.1s-0.5-1.6-0.8-2.7c-0.4-1-0.6-1.8-0.8-2.4c-0.2-0.7-0.2-1.3-0.1-2c0.1-0.6,0.4-1.2,0.9-1.7
	c0.7-0.6,1.5-0.8,2.5-0.6c1,0.2,1.9,0.7,2.8,1.5c0.3,0.4,0.7,1,1.1,1.8l0.7-0.7L528.5,451.1z M525.5,475.4l-5.3-7.4l0.4-0.3l1,1.4
	l11.5-8.2c0.4-0.3,0.6-0.6,0.5-0.9s-0.3-0.8-0.6-1.3l0.4-0.3l5.3,7.5l0.8-0.6l0.3,0.4l-4.4,3.2l-0.3-0.4l0.7-0.5
	c1.1-0.8,1.6-1.6,1.4-2.4c-0.1-0.8-0.7-1.9-1.8-3.4l-0.4-0.6l-3.2,2.3l1.5,2.1l2-1.4l0.3,0.4l-4.8,3.4l-0.3-0.4
	c0.6-0.4,1-0.8,1.4-1.2c0.3-0.4,0.4-0.9,0.2-1.4c-0.1-0.3-0.3-0.6-0.6-1.1l-8.8,6.2c0.7,1,1.4,1.9,2.2,2.7c0.7,0.5,1.3,0.8,1.9,0.7
	c0.6,0,1.2-0.3,1.8-0.7l1-0.7l0.3,0.4l-4.8,3.4l-0.3-0.4L525.5,475.4z M542.7,471.4l1.6,3.1l-1.4,0.7c1.8,1.2,3.2,2.6,4.1,4.3
	c0.6,1.3,1,2.6,1.1,4s-0.2,2.7-0.7,3.9c-0.5,1.2-1.3,2-2.4,2.6c-1.1,0.6-2.4,0.8-3.6,0.6c-1.3-0.2-2.5-0.8-3.6-1.6
	c-1.1-0.9-2.1-2-2.8-3.3l0,0c0.1,0.4,0.1,1.3,0.2,2.5c0.1,1.3,0.2,2.3,0.4,3.2c0.2,0.9,0.4,1.6,0.8,2.4c0.3,0.5,0.6,0.9,0.8,1.1
	l-0.1,0.3c-0.6-0.3-1.1-0.8-1.5-1.7c-0.3-0.7-0.6-1.4-0.8-2.1c-0.2-0.8-0.4-1.4-0.5-2s-0.3-1.6-0.5-2.9c-0.2-2.5-0.4-4.6-0.4-6.3
	l-2,1c-0.3,0.2-0.5,0.3-0.6,0.5s-0.1,0.3-0.1,0.6c0.1,0.3,0.2,0.6,0.4,1c0.1,0.2,0.3,0.4,0.4,0.8l-0.4,0.2l-2.7-5.2l0.4-0.2l0.7,1.5
	l12.6-6.5c0.6-0.3,0.7-1,0.2-1.9l-0.1-0.2L542.7,471.4z M542.1,475.7l-7.9,4l0.5,0.1c-0.2,2.4,0.1,4.3,0.8,5.7
	c0.5,1.1,1.3,1.9,2.2,2.6c1,0.7,2,1.1,3,1.2c1.1,0.1,2.1,0,3-0.5c1-0.5,1.7-1.3,2.3-2.4s0.8-2.2,0.8-3.5s-0.3-2.5-0.9-3.7
	C545.2,477.4,543.8,476.2,542.1,475.7 M540.3,506.9l-2.9-8.6l0.4-0.1l0.6,1.7l13.3-4.5c0.5-0.2,0.7-0.4,0.7-0.8c0-0.3,0-0.8-0.2-1.4
	l0.4-0.1l2.9,8.7l1-0.3l0.2,0.5l-5.2,1.7l-0.2-0.5l0.8-0.3c1.3-0.4,2-1.1,2.1-1.9s-0.1-2-0.7-3.7l-0.2-0.7l-3.8,1.3l0.8,2.4l2.3-0.8
	l0.1,0.4l-5.6,1.9l-0.1-0.4c0.7-0.2,1.2-0.5,1.7-0.8c0.4-0.3,0.6-0.7,0.6-1.3c0-0.3-0.1-0.7-0.3-1.3l-10.2,3.4
	c0.4,1.2,0.8,2.2,1.3,3.2c0.5,0.7,1,1.1,1.6,1.2s1.2,0.1,2-0.2l1.2-0.4l0.2,0.5l-5.6,1.9l-0.2-0.5L540.3,506.9z M542.3,511.3
	l0.3,1.5l12.8-2.3c0.7-0.1,1.2-0.3,1.5-0.5c0.4-0.3,0.6-1,0.4-2l0.4-0.1l0.5,2.7l-11.9,9.7v0.1l11.1-2c0.5-0.1,0.8-0.3,1.1-0.8
	c0.2-0.4,0.3-0.9,0.2-1.5l0.4-0.1l0.7,4.1l-0.4,0.1l-0.2-1.4l-16.3,2.9l-0.1-0.5l12-9.9l0,0l-10.1,1.8c-0.8,0.1-1.3,0.4-1.5,0.9
	c-0.1,0.4-0.1,0.9,0,1.6l-0.4,0.1l-0.8-4.5L542.3,511.3z M545.7,537.3l9.7-4.5l-0.2-2.4l-7.3-1.6c-0.7-0.1-1.3-0.2-1.8-0.2
	c-0.4,0-0.6,0.1-0.8,0.4c-0.1,0.2-0.2,0.6-0.2,1c0,0.3,0,0.7,0,1.3h-0.5l-0.4-5.2h0.5l0.1,1.2l16.9,3.4v0.5l-12.9,6
	c-0.5,0.2-0.9,0.4-1.4,0.6c-0.5,0.2-0.9,0.5-1.2,0.9s-0.4,0.8-0.4,1.3h-0.5l-0.4-4.8h0.4L545.7,537.3z M556,532.5l3.1-1.4V531
	l-3.3-0.6L556,532.5z"/>
<path class="st1" d="M407.4,657.1l0.3-1.4l0.5,0.1l-1.4,6.3l-0.5-0.1c0.3-1.1,0.4-2,0.4-2.6s-0.2-1.2-0.6-1.7s-1-1-1.8-1.4
	s-1.7-0.8-2.6-1c-1.7-0.4-3.4-0.4-4.9,0s-2.8,1.1-3.7,2.1c-1,1-1.6,2.1-1.9,3.4c-0.2,1-0.2,2.1,0,3.2c0.2,1.1,0.7,2.1,1.3,3.1
	c0.6,1,1.5,1.8,2.5,2.5s2.2,1.2,3.4,1.5c1.3,0.3,2.6,0.4,3.7,0.2c1.2-0.2,2.2-0.5,3.1-1l0.4,0.7c-1.1,0.5-2.4,0.8-3.7,0.9
	c-1.4,0.1-2.7,0-4-0.2c-1.9-0.4-3.5-1.2-4.9-2.3s-2.4-2.4-3.1-3.9c-0.6-1.5-0.8-3-0.4-4.5c0.3-1.2,0.8-2.3,1.7-3.2
	c0.8-0.9,1.9-1.7,3.1-2.2s2.5-0.9,4-1c1.4-0.1,2.8,0,4.2,0.3C404.3,655.2,405.9,655.9,407.4,657.1 M429.8,674.4h1.7l-0.4-14.4
	c0-0.5-0.2-0.8-0.5-0.9c-0.3-0.1-0.8-0.2-1.5-0.2v-0.5l5.3-0.1v0.5h-1.7l0.4,14c0,0.4,0,0.7,0.1,0.8c0.1,0.3,0.2,0.4,0.4,0.6
	c0.2,0.1,0.7,0.1,1.5,0.1v0.5l-5.3,0.1V674.4z M443.5,657.7l0.1,0.5l-1.7,0.2l2,15.4c1-0.1,1.8-0.3,2.5-0.5s1.3-0.5,1.8-1
	c0.5-0.4,0.7-1,0.6-1.7l-0.5-4l0.5-0.1l1,8l-0.5,0.1l-0.1-1l-8.6,1.1l-0.1-0.5l1.7-0.2l-1.8-14.3c-0.1-0.4-0.3-0.7-0.6-0.8
	c-0.3-0.1-0.8-0.1-1.4,0l-0.1-0.5L443.5,657.7z M464.8,670.4l-9,2.1l-0.1-0.5l1.7-0.4l-3.2-13.9c-0.1-0.5-0.3-0.7-0.7-0.8
	c-0.3-0.1-0.8-0.1-1.4,0.1l-0.1-0.4l9.1-2.1l-0.2-1l0.5-0.1l1.2,5.4l-0.5,0.1l-0.2-0.9c-0.3-1.3-0.9-2.1-1.7-2.3
	c-0.8-0.2-2.1-0.1-3.9,0.3l-0.7,0.2l0.9,3.9l2.5-0.6l-0.6-2.4l0.5-0.1l1.4,5.9l-0.5,0.1c-0.2-0.7-0.4-1.3-0.6-1.8
	c-0.3-0.5-0.7-0.7-1.2-0.7c-0.3,0-0.7,0-1.3,0.1l2.5,10.6c1.2-0.3,2.3-0.6,3.4-1c0.7-0.4,1.2-0.9,1.4-1.5c0.2-0.6,0.2-1.2,0-2
	l-0.3-1.2l0.5-0.1l1.3,5.8l-0.5,0.1L464.8,670.4z M423.1,658.6l-1.1,14.2c0,0.5,0,0.8,0.2,1s0.6,0.3,1.2,0.4c0.1,0,0.3,0,0.5,0v0.5
	l-5.3-0.4v-0.5l1.7,0.1l0.8-10.8l-6.3-0.5l-0.7,9.6c0,0.6,0.1,1,0.4,1.2c0.2,0.1,0.7,0.2,1.4,0.2v0.5l-5.3-0.4v-0.5l1.7,0.1
	l1.1-14.3c0.1-0.8-0.5-1.2-1.5-1.3h-0.4v-0.5l5.3,0.4v0.5l-1.7-0.1l-0.3,4.1l6.3,0.5l0.2-2.9c0-0.4-0.1-0.7-0.4-0.9
	s-0.6-0.3-1.1-0.4h-0.4v-0.5l5.3,0.4v0.5L423.1,658.6z"/>
<path class="st0" d="M673.5,521c0,11,7.8,18.6,19.6,18.6c11.7,0,19.5-7.6,19.5-18.6v-22.7c0-1,0.6-1.5,1.5-1.5h3V489h-9
	c-3.4,0-4.8,1.5-4.8,4.8v26.9c0,6.6-4.1,10.4-10.4,10.4c-6.2,0-10.4-3.8-10.4-10.3v-27c0-3.3-1.4-4.8-4.8-4.8h-9v7.8h3
	c1,0,1.5,0.6,1.5,1.5V521H673.5z M721,538.7h9c3.4,0,4.8-1.4,4.8-4.8v-22.7c0-2.9-0.5-7-0.5-7h0.1c0,0,2.2,4.2,4.1,7l18.9,27.4h8.2
	v-40.4c0-1,0.6-1.5,1.5-1.5h3V489h-9c-3.4,0-4.8,1.5-4.8,4.8v22.8c0,2.9,0.5,7,0.5,7h-0.1c0,0-2.2-4.1-4.1-7L733.8,489h-8.3v40.4
	c0,1-0.6,1.5-1.5,1.5h-3V538.7z M775.2,538.7h18.6v-7.8h-5v-34.2h5V489h-18.6v7.8h5V531h-5V538.7z M815.6,538.7h9.7l14.8-40.4
	c0.4-1.2,1-1.5,2.2-1.5h1.3V489h-5.9c-3.5,0-4.7,0.9-5.8,4.1l-9.5,27.7c-1,2.8-1.9,7.3-1.9,7.3h-0.1c0,0-0.9-4.5-1.9-7.3L809,493
	c-1.1-3.2-2.4-4.1-5.9-4.1h-5.8v7.8h1.3c1.2,0,1.7,0.3,2.2,1.5L815.6,538.7z M851.3,533.9c0,3.4,1.4,4.8,4.8,4.8h22.5
	c3.3,0,4.8-1.4,4.8-4.8v-7.6h-8.3v3c0,1-0.6,1.5-1.5,1.5H862c-1,0-1.5-0.6-1.5-1.5v-11.8h16.1v-7.8h-16.1v-13h11.2
	c1,0,1.5,0.6,1.5,1.5v3h8.3v-7.6c0-3.3-1.5-4.8-4.8-4.8h-30v7.8h4.6V533.9z M891.8,538.7h9.2v-18.6h4.6c2.6,0,3.6,0.3,4.7,2.3
	l6.4,12.5c1.6,3.2,3.2,3.7,6.9,3.7h4.8v-7.8h-0.9c-1.5,0-2.7-0.1-3.5-1.6l-4.8-9.6c-0.9-1.8-2.5-2.5-2.5-2.5V517
	c2.1-0.4,8.3-4.1,8.3-13.1c0-9.4-6.4-15-15.5-15h-22.3v7.8h4.6V538.7z M901,512.3v-15.5h7.4c4.5,0,7.2,2.8,7.2,7.7
	c0,5-2.7,7.8-7.4,7.8H901z M931.3,531.8c0,0,6.1,7.7,17.1,7.7c10.4,0,16.5-6.7,16.5-14.6c0-16.3-23.4-14.6-23.4-23.1
	c0-3.2,3.1-5.3,7.3-5.3c3.3,0,6.6,1.5,6.6,3.8v2.2h8.3v-4.6c0-7.1-9-9.8-14.8-9.8c-9.6,0-16.6,6-16.6,14c0,15.5,23.4,14.8,23.4,23.2
	c0,3.8-3.4,5.9-7.1,5.9c-6.9,0-12-5.9-12-5.9L931.3,531.8z M970.2,538.7h18.6v-7.8h-5v-34.2h5V489h-18.6v7.8h5V531h-5V538.7z
	 M998.4,533.9c0,3.4,1.4,4.8,4.8,4.8h10.9c15.3,0,25.3-9.2,25.3-24.9s-10-24.8-25.3-24.8h-20.2v7.8h4.5V533.9z M1007.6,529.4v-32.6
	h6c9.8,0,16.3,6,16.3,17c0,11.2-6.4,17.2-16.3,17.2h-4.5C1008.1,530.9,1007.6,530.4,1007.6,529.4 M1041.4,538.7h5.5
	c3.5,0,4.7-0.9,5.8-4.1l3.1-8.7h16.8l3.1,8.7c1.1,3.2,2.4,4.1,5.9,4.1h5.5v-7.8h-1.1c-1.2,0-1.7-0.3-2.2-1.5l-14.7-40.4h-9.6
	l-14.8,40.4c-0.4,1.3-1,1.5-2.2,1.5h-1.1L1041.4,538.7L1041.4,538.7z M1057.9,518.4l4.3-12.5c0.9-2.7,2-7.4,2-7.4h0.1
	c0,0,1.1,4.7,2,7.4l4.3,12.5H1057.9z M1094.8,533.9c0,3.4,1.4,4.8,4.8,4.8h10.9c15.3,0,25.3-9.2,25.3-24.9s-10-24.8-25.3-24.8h-20.2
	v7.8h4.6v37.1H1094.8z M1103.9,529.4v-32.6h6c9.8,0,16.3,6,16.3,17c0,11.2-6.4,17.2-16.3,17.2h-4.5
	C1104.5,530.9,1103.9,530.4,1103.9,529.4 M1163.4,533.9c0,3.4,1.4,4.8,4.8,4.8h10.9c15.3,0,25.3-9.2,25.3-24.9s-10-24.8-25.3-24.8
	h-20.2v7.8h4.6v37.1H1163.4z M1172.5,529.4v-32.6h6c9.8,0,16.3,6,16.3,17c0,11.2-6.4,17.2-16.3,17.2h-4.5
	C1173.1,530.9,1172.5,530.4,1172.5,529.4 M1213.4,533.9c0,3.4,1.4,4.8,4.8,4.8h22.5c3.3,0,4.8-1.4,4.8-4.8v-7.6h-8.3v3
	c0,1-0.6,1.5-1.5,1.5h-11.5c-1,0-1.5-0.6-1.5-1.5v-11.8h16.1v-7.8h-16.1v-13h11.2c1,0,1.5,0.6,1.5,1.5v3h8.3v-7.6
	c0-3.3-1.5-4.8-4.8-4.8h-30v7.8h4.5V533.9z M1272.5,533.9c0,3.4,1.4,4.8,4.8,4.8h21.9c3.4,0,4.8-1.4,4.8-4.8v-7.6h-8.3v3
	c0,1-0.6,1.5-1.5,1.5h-10.8c-1,0-1.5-0.6-1.5-1.5v-35.6c0-3.3-1.4-4.8-4.8-4.8h-9v7.8h3c1,0,1.5,0.6,1.5,1.5L1272.5,533.9
	L1272.5,533.9z M1306.1,538.7h5.5c3.5,0,4.7-0.9,5.8-4.1l3.1-8.7h16.8l3.1,8.7c1.1,3.2,2.4,4.1,5.9,4.1h5.5v-7.8h-1.1
	c-1.2,0-1.7-0.3-2.2-1.5l-14.7-40.4h-9.6l-14.8,40.4c-0.4,1.3-1,1.5-2.2,1.5h-1.1L1306.1,538.7L1306.1,538.7z M1322.6,518.4
	l4.3-12.5c0.9-2.7,2-7.4,2-7.4h0.1c0,0,1.1,4.7,2,7.4l4.3,12.5H1322.6z M1373.3,531.8c0,0,6.1,7.7,17.1,7.7
	c10.4,0,16.5-6.7,16.5-14.6c0-16.3-23.4-14.6-23.4-23.1c0-3.2,3.1-5.3,7.3-5.3c3.3,0,6.6,1.5,6.6,3.8v2.2h8.3v-4.6
	c0-7.1-9-9.8-14.8-9.8c-9.6,0-16.6,6-16.6,14c0,15.5,23.4,14.8,23.4,23.2c0,3.8-3.4,5.9-7.1,5.9c-6.9,0-12-5.9-12-5.9L1373.3,531.8z
	 M1416.4,533.9c0,3.4,1.4,4.8,4.8,4.8h22.5c3.3,0,4.8-1.4,4.8-4.8v-7.6h-8.3v3c0,1-0.6,1.5-1.5,1.5h-11.5c-1,0-1.5-0.6-1.5-1.5
	v-11.8h16.1v-7.8h-16.1v-13h11.2c1,0,1.5,0.6,1.5,1.5v3h8.3v-7.6c0-3.3-1.5-4.8-4.8-4.8h-30v7.8h4.6L1416.4,533.9L1416.4,533.9z
	 M1456.9,538.7h9.2v-18.6h4.6c2.6,0,3.6,0.3,4.7,2.3l6.4,12.5c1.6,3.2,3.2,3.7,6.9,3.7h4.8v-7.8h-0.9c-1.5,0-2.7-0.1-3.5-1.6
	l-4.8-9.6c-0.9-1.8-2.4-2.5-2.4-2.5V517c2.1-0.4,8.3-4.1,8.3-13.1c0-9.4-6.4-15-15.5-15h-22.3v7.8h4.6L1456.9,538.7L1456.9,538.7z
	 M1466.1,512.3v-15.5h7.4c4.5,0,7.2,2.8,7.2,7.7c0,5-2.7,7.8-7.4,7.8H1466.1z M1501.1,533.9c0,3.4,1.4,4.8,4.8,4.8h22.5
	c3.3,0,4.8-1.4,4.8-4.8v-7.6h-8.3v3c0,1-0.6,1.5-1.5,1.5h-11.5c-1,0-1.5-0.6-1.5-1.5v-11.8h16.1v-7.8h-16.1v-13h11.2
	c1,0,1.5,0.6,1.5,1.5v3h8.3v-7.6c0-3.3-1.5-4.8-4.8-4.8h-30v7.8h4.6L1501.1,533.9L1501.1,533.9z M1537.1,538.7h9
	c3.4,0,4.8-1.4,4.8-4.8v-22.7c0-2.9-0.5-7-0.5-7h0.1c0,0,2.2,4.2,4.1,7l18.9,27.4h8.2v-40.4c0-1,0.6-1.5,1.5-1.5h3V489h-9
	c-3.4,0-4.8,1.5-4.8,4.8v22.8c0,2.9,0.5,7,0.5,7h-0.1c0,0-2.2-4.1-4.1-7l-18.8-27.5h-8.3v40.4c0,1-0.6,1.5-1.5,1.5h-3L1537.1,538.7
	L1537.1,538.7z M1589.4,538.7h5.5c3.5,0,4.7-0.9,5.8-4.1l3.1-8.7h16.8l3.1,8.7c1.1,3.2,2.4,4.1,5.9,4.1h5.5v-7.8h-1.1
	c-1.2,0-1.8-0.3-2.2-1.5L1617,489h-9.6l-14.8,40.4c-0.4,1.3-1,1.5-2.2,1.5h-1.1L1589.4,538.7L1589.4,538.7z M1605.9,518.4l4.3-12.5
	c0.9-2.7,2-7.4,2-7.4h0.1c0,0,1.1,4.7,2,7.4l4.3,12.5H1605.9z"/>
<path class="st0" d="M679,590.2h3v-27.6h7.5c0.6,0,0.9,0.3,0.9,0.9v2h2.8v-3.2c0-1.9-0.6-2.5-2.5-2.5h-20.5c-1.9,0-2.5,0.6-2.5,2.5
	v3.2h2.8v-2c0-0.7,0.3-0.9,0.9-0.9h7.5L679,590.2L679,590.2z M695.6,582.3c0,5.6,2.2,8.4,7.3,8.4c4.7,0,7.6-3.4,8.4-5.5h0.1
	c0,0-0.1,0.7-0.1,1.6v1c0,1.6,0.8,2.4,2.6,2.4h3v-2.5h-1.8c-0.6,0-0.9-0.3-0.9-1v-18.2h-2.9v10.4c0,4.7-3.1,9-8,9
	c-4.2,0-4.7-3-4.7-6.4V571c0-1.8-0.8-2.5-2.6-2.5h-3.1v2.5h1.8c0.6,0,0.9,0.3,0.9,0.9V582.3z M733.9,579.8c0,6.5,4.5,10.9,11.2,10.9
	s11.2-4.4,11.2-10.9v-16.3c0-0.6,0.3-0.9,1-0.9h1.9v-2.7H756c-1.9,0-2.6,0.8-2.6,2.6v17.1c0,5.1-3.2,8.3-8.2,8.3s-8.1-3.1-8.1-8.2
	v-17.1c0-1.9-0.8-2.6-2.6-2.6h-3.2v2.7h1.9c0.6,0,0.9,0.3,0.9,0.9v16.2H733.9z M764.3,590.2h2.9v-10.4c0-1,0.1-2,0.3-2.9
	c1-3.6,4.2-6.1,7.9-6.1c4.2,0,4.7,3,4.7,6.4v10.4c0,1.9,0.8,2.6,2.6,2.6h3.1v-2.5H784c-0.6,0-0.9-0.3-0.9-1v-10.3
	c0-5.3-1.9-8.4-7.3-8.4c-5.1,0-7.8,3.5-8.6,5.5h-0.1c0,0,0.1-0.7,0.1-1.6v-1c0-1.6-0.8-2.4-2.6-2.4h-3v2.5h1.8
	c0.6,0,0.9,0.3,0.9,0.9L764.3,590.2L764.3,590.2z M790.6,563.6h2.8v-3.7h-2.8V563.6z M790.7,587.6c0,1.9,0.8,2.6,2.6,2.6h3.1v-2.5
	h-1.8c-0.6,0-0.9-0.3-0.9-1v-15.6c0-1.9-0.8-2.6-2.6-2.6H788v2.5h1.8c0.6,0,0.9,0.3,0.9,0.9V587.6z M807.1,590.2h3.2l7.1-18.1
	c0.3-0.8,0.7-1,1.5-1h0.4v-2.5h-1.1c-2,0-2.7,0.4-3.4,2.4l-5.2,13.5c-0.4,1.1-0.7,2.5-0.7,2.5h-0.1c0,0-0.3-1.5-0.7-2.5l-5.2-13.5
	c-0.7-1.9-1.4-2.4-3.4-2.4h-1.2v2.5h0.4c0.8,0,1.2,0.2,1.5,1L807.1,590.2z M821.2,579.4c0,6.7,4.9,11.3,11.3,11.3
	c4.9,0,8.1-3.1,8.1-3.1l-1.4-2.2c0,0-2.5,2.7-6.5,2.7c-4.5,0-8.3-3.1-8.4-8.6h16.6c0,0,0.1-0.9,0.1-1.5c0-5.4-3.1-10-9.1-10
	C826,568,821.2,572.3,821.2,579.4 M824.4,577.1c0.7-4.4,3.9-6.7,7.5-6.7c3.2,0,5.9,2.2,6.1,6.7H824.4z M846.8,590.2h2.9v-9.1
	c0-1.4,0.2-2.8,0.6-4.2c1-3.2,3.2-5.6,6.3-5.6c0.6,0,1.1,0.1,1.1,0.1v-2.9c0,0-0.6-0.1-1.2-0.1c-3.4,0-5.8,2.5-6.9,5.8h-0.1
	c0,0,0.1-0.7,0.1-1.6V571c0-1.7-0.8-2.5-2.6-2.5h-3v2.5h1.8c0.6,0,0.9,0.3,0.9,0.9v18.3H846.8z M859.9,586.9c0,0,2.7,3.8,8.3,3.8
	c4.3,0,7.6-2.5,7.6-6.1c0-7.2-12.2-6.1-12.2-10.9c0-2.1,1.8-3.1,4.8-3.1c1.4,0,3.7,0.6,3.7,2.2v1h2.8v-1.9c0-3.1-4.4-3.9-6.6-3.9
	c-4.4,0-7.7,1.9-7.7,5.9c0,7,12.1,6.1,12.1,10.9c0,2.3-2.2,3.4-4.6,3.4c-4.3,0-6.7-3.3-6.7-3.3L859.9,586.9z M881.5,563.6h2.8v-3.7
	h-2.8V563.6z M881.6,587.6c0,1.9,0.8,2.6,2.6,2.6h3.1v-2.5h-1.8c-0.6,0-0.9-0.3-0.9-1v-15.6c0-1.9-0.8-2.6-2.6-2.6h-3.1v2.5h1.8
	c0.6,0,1,0.3,1,0.9L881.6,587.6L881.6,587.6z M890.3,579.4c0,6.7,3.6,11.4,9.4,11.4c5.7,0,7.5-4.3,7.5-4.3h0.1c0,0-0.1,0.6-0.1,1.4
	c0,1.6,0.8,2.4,2.6,2.4h3v-2.5H911c-0.6,0-0.9-0.3-0.9-1v-24.2c0-1.9-0.8-2.6-2.6-2.6h-3.1v2.5h1.8c0.6,0,0.9,0.3,0.9,0.9v7
	c0,0.9,0.1,1.6,0.1,1.6h-0.1c0,0-1.8-4.1-7.1-4.1C894.3,568,890.3,572.5,890.3,579.4 M900.1,588.1c-4,0-6.9-3.4-6.9-8.7
	c0-5.5,3.1-8.7,7-8.7c4.7,0,6.9,4.3,6.9,8.7C907.1,585.5,903.7,588.1,900.1,588.1 M915.5,584.3c0,4.3,3.7,6.4,7.4,6.4
	c5.4,0,7.2-4.7,7.2-4.7h0.1c0,0,0,0.6,0,1.6c0,1.8,0.7,2.6,2.6,2.6h3v-2.5H934c-0.6,0-0.9-0.3-0.9-1v-10.4c0-4.7-1.6-8.3-8.5-8.3
	c-1.9,0-7.1,0.6-7.1,3.7v2.1h2.8v-1.4c0-1.6,3.1-1.9,4.2-1.9c4,0,5.6,1.6,5.6,6.1v0.3h-1.2C925,576.9,915.5,577.1,915.5,584.3
	 M918.5,584.1c0-4.9,6.8-5,10.2-5h1.2v1c0,3.7-2.5,8.1-6.6,8.1C920.1,588.2,918.5,586.2,918.5,584.1 M938.4,579.4
	c0,6.7,3.6,11.4,9.4,11.4c5.7,0,7.5-4.3,7.5-4.3h0.1c0,0-0.1,0.6-0.1,1.4c0,1.6,0.8,2.4,2.6,2.4h3v-2.5h-1.8c-0.6,0-0.9-0.3-0.9-1
	v-24.2c0-1.9-0.8-2.6-2.6-2.6h-3.1v2.5h1.8c0.6,0,0.9,0.3,0.9,0.9v7c0,0.9,0.1,1.6,0.1,1.6h-0.1c0,0-1.8-4.1-7.1-4.1
	C942.4,568,938.4,572.5,938.4,579.4 M948.3,588.1c-4,0-6.9-3.4-6.9-8.7c0-5.5,3.1-8.7,7-8.7c4.7,0,6.9,4.3,6.9,8.7
	C955.3,585.5,951.9,588.1,948.3,588.1 M978.2,587.6c0,1.9,0.8,2.6,2.6,2.6H994c1.9,0,2.6-0.8,2.6-2.6v-3h-2.8v2
	c0,0.6-0.3,0.9-0.9,0.9h-10.6c-0.6,0-1-0.3-1-0.9v-10.3h11.4v-2.7h-11.4v-11h10.3c0.6,0,0.9,0.3,0.9,0.9v2h2.8v-3
	c0-1.9-0.8-2.6-2.6-2.6h-17.3v2.7h2.8V587.6z M998.9,586.9c0,0,2.7,3.8,8.3,3.8c4.3,0,7.6-2.5,7.6-6.1c0-7.2-12.1-6.1-12.1-10.9
	c0-2.1,1.8-3.1,4.8-3.1c1.4,0,3.7,0.6,3.7,2.2v1h2.8v-1.9c0-3.1-4.4-3.9-6.6-3.9c-4.4,0-7.7,1.9-7.7,5.9c0,7,12.2,6.1,12.2,10.9
	c0,2.3-2.2,3.4-4.6,3.4c-4.3,0-6.7-3.3-6.7-3.3L998.9,586.9z M1020.6,582.3c0,7.2,5,8.1,7.5,8.1c0.7,0,1.2-0.1,1.2-0.1v-2.6
	c0,0-0.4,0.1-1,0.1c-1.6,0-4.9-0.6-4.9-5.7v-11h5.4v-2.5h-5.4v-6h-2.9v6h-2.9v2.5h2.8v11.2H1020.6z M1032.5,584.3
	c0,4.3,3.7,6.4,7.4,6.4c5.4,0,7.2-4.7,7.2-4.7h0.1c0,0,0,0.6,0,1.6c0,1.8,0.7,2.6,2.6,2.6h3v-2.5h-1.8c-0.6,0-0.9-0.3-0.9-1v-10.4
	c0-4.7-1.6-8.3-8.5-8.3c-1.9,0-7.1,0.6-7.1,3.7v2.1h2.8v-1.4c0-1.6,3.1-1.9,4.2-1.9c4,0,5.6,1.6,5.6,6.1v0.3h-1.2
	C1042,576.9,1032.5,577.1,1032.5,584.3 M1035.5,584.1c0-4.9,6.8-5,10.2-5h1.3v1c0,3.7-2.5,8.1-6.6,8.1
	C1037.1,588.2,1035.5,586.2,1035.5,584.1 M1057.6,582.3c0,7.2,5,8.1,7.5,8.1c0.7,0,1.2-0.1,1.2-0.1v-2.6c0,0-0.4,0.1-1,0.1
	c-1.6,0-4.9-0.6-4.9-5.7v-11h5.4v-2.5h-5.4v-6h-2.9v6h-2.9v2.5h2.8v11.2H1057.6z M1069.7,584.3c0,4.3,3.7,6.4,7.4,6.4
	c5.4,0,7.2-4.7,7.2-4.7h0.1c0,0,0,0.6,0,1.6c0,1.8,0.7,2.6,2.6,2.6h3v-2.5h-1.8c-0.6,0-1-0.3-1-1v-10.4c0-4.7-1.6-8.3-8.5-8.3
	c-1.9,0-7.1,0.6-7.1,3.7v2.1h2.8v-1.4c0-1.6,3.1-1.9,4.2-1.9c4,0,5.6,1.6,5.6,6.1v0.3h-1.2C1079.2,576.9,1069.7,577.1,1069.7,584.3
	 M1072.7,584.1c0-4.9,6.8-5,10.2-5h1.2v1c0,3.7-2.5,8.1-6.6,8.1C1074.3,588.2,1072.7,586.2,1072.7,584.1 M1094.5,587.6
	c0,1.9,0.8,2.6,2.6,2.6h3.1v-2.5h-1.8c-0.6,0-0.9-0.3-0.9-1v-24.2c0-1.9-0.8-2.6-2.6-2.6h-3.1v2.5h1.8c0.6,0,0.9,0.3,0.9,0.9V587.6z
	 M1114.8,579.4c0,6.7,4.9,11.3,11.3,11.3c4.9,0,8.1-3.1,8.1-3.1l-1.4-2.2c0,0-2.5,2.7-6.5,2.7c-4.5,0-8.3-3.1-8.4-8.6h16.6
	c0,0,0.1-0.9,0.1-1.5c0-5.4-3.1-10-9.1-10C1119.7,568,1114.8,572.3,1114.8,579.4 M1118,577.1c0.7-4.4,3.9-6.7,7.5-6.7
	c3.2,0,5.9,2.2,6.1,6.7H1118z M1140.4,590.2h2.9v-10.4c0-1,0.1-2,0.3-2.9c1-3.6,4.2-6.1,7.9-6.1c4.2,0,4.7,3,4.7,6.4v10.4
	c0,1.9,0.8,2.6,2.6,2.6h3.1v-2.5h-1.8c-0.6,0-0.9-0.3-0.9-1v-10.3c0-5.3-1.9-8.4-7.3-8.4c-5.1,0-7.8,3.5-8.6,5.5h-0.1
	c0,0,0.1-0.7,0.1-1.6v-1c0-1.6-0.8-2.4-2.6-2.4h-3v2.5h1.8c0.6,0,1,0.3,1,0.9L1140.4,590.2L1140.4,590.2z M1178.3,587.6
	c0,1.9,0.8,2.6,2.6,2.6h3.1v-2.5h-1.8c-0.6,0-0.9-0.3-0.9-1v-24.2c0-1.9-0.8-2.6-2.6-2.6h-3.1v2.5h1.8c0.6,0,1,0.3,1,0.9
	L1178.3,587.6L1178.3,587.6z M1186.9,584.3c0,4.3,3.7,6.4,7.4,6.4c5.4,0,7.2-4.7,7.2-4.7h0.1c0,0,0,0.6,0,1.6c0,1.8,0.7,2.6,2.6,2.6
	h3v-2.5h-1.8c-0.6,0-1-0.3-1-1v-10.4c0-4.7-1.6-8.3-8.5-8.3c-1.9,0-7.1,0.6-7.1,3.7v2.1h2.8v-1.4c0-1.6,3.1-1.9,4.2-1.9
	c4,0,5.6,1.6,5.6,6.1v0.3h-1.2C1196.4,576.9,1186.9,577.1,1186.9,584.3 M1189.9,584.1c0-4.9,6.8-5,10.2-5h1.2v1
	c0,3.7-2.5,8.1-6.6,8.1C1191.5,588.2,1189.9,586.2,1189.9,584.1 M1224.3,590.2h3v-12.8h5.1c1.7,0,2.2,0.2,3.1,1.8l4.4,8.7
	c1,2,1.7,2.3,4.2,2.3h1.3v-2.7h-0.6c-1.1,0-1.7-0.1-2.2-1l-4.4-8.6c-0.4-0.9-1-1.2-1-1.2v-0.1c3-0.6,5.9-3.4,5.9-8.1
	c0-5.3-3.6-8.6-8.7-8.6h-12.8v2.7h2.8v27.6H1224.3z M1227.3,574.8v-12.2h6.8c3.6,0,5.8,2.3,5.8,6c0,3.8-2.2,6.2-5.9,6.2H1227.3z
	 M1247.2,579.4c0,6.7,4.9,11.3,11.3,11.3c4.9,0,8.1-3.1,8.1-3.1l-1.4-2.2c0,0-2.5,2.7-6.5,2.7c-4.5,0-8.3-3.1-8.4-8.6h16.6
	c0,0,0.1-0.9,0.1-1.5c0-5.4-3.1-10-9.1-10C1252,568,1247.2,572.3,1247.2,579.4 M1250.4,577.1c0.7-4.4,3.9-6.7,7.5-6.7
	c3.2,0,6,2.2,6.1,6.7H1250.4z M1270.9,579c0,6.5,3.8,11.1,9.7,11.1c3.4,0,5.5-1.4,6.8-3.7h0.1c0,0,0,0.7,0,1.6v1.9
	c0,4.8-3.4,6.8-7.6,6.8c-3.2,0-5.9-1.5-5.9-1.5l-1.1,2.5c2.1,1.1,4.6,1.7,7.1,1.7c5.3,0,10.4-2.7,10.4-9.6V572
	c0-0.6,0.3-0.9,0.9-0.9h1.8v-2.5h-3c-1.8,0-2.5,0.8-2.5,2.4v0.8h-0.1c0,0-1.4-3.7-7.2-3.7S1270.9,572.5,1270.9,579 M1281,587.5
	c-4.3,0-7.1-3.4-7.1-8.5c0-5.2,2.5-8.2,6.7-8.2c3.8,0,6.9,1.9,6.9,8.3C1287.4,585.3,1284.4,587.5,1281,587.5 M1297.9,563.6h2.8v-3.7
	h-2.8V563.6z M1298,587.6c0,1.9,0.8,2.6,2.6,2.6h3.1v-2.5h-1.8c-0.6,0-0.9-0.3-0.9-1v-15.6c0-1.9-0.8-2.6-2.6-2.6h-3.1v2.5h1.8
	c0.6,0,0.9,0.3,0.9,0.9V587.6z M1306.5,579.3c0,6.5,5.1,11.5,11.5,11.5c6.3,0,11.4-4.9,11.4-11.5c0-6.4-5.1-11.2-11.5-11.2
	C1311.7,568,1306.5,572.8,1306.5,579.3 M1309.6,579.3c0-4.9,3.8-8.6,8.4-8.6s8.4,3.7,8.4,8.6c0,5-3.8,8.8-8.4,8.8
	S1309.6,584.3,1309.6,579.3 M1316.7,565h2.5l3.7-5.1h-3.3L1316.7,565z M1334.9,590.2h2.9v-10.4c0-1,0.1-2,0.3-2.9
	c1-3.6,4.2-6.1,7.9-6.1c4.2,0,4.7,3,4.7,6.4v10.4c0,1.9,0.8,2.6,2.6,2.6h3.1v-2.5h-1.8c-0.6,0-1-0.3-1-1v-10.3
	c0-5.3-1.9-8.4-7.3-8.4c-5.1,0-7.8,3.5-8.6,5.5h-0.1c0,0,0.1-0.7,0.1-1.6v-1c0-1.6-0.8-2.4-2.6-2.4h-3v2.5h1.8c0.6,0,1,0.3,1,0.9
	V590.2z M1370.9,579.4c0,6.7,3.6,11.4,9.4,11.4c5.7,0,7.5-4.3,7.5-4.3h0.1c0,0-0.1,0.6-0.1,1.4c0,1.6,0.8,2.4,2.6,2.4h3v-2.5h-1.8
	c-0.6,0-0.9-0.3-0.9-1v-24.2c0-1.9-0.8-2.6-2.6-2.6h-3.1v2.5h1.8c0.6,0,0.9,0.3,0.9,0.9v7c0,0.9,0.1,1.6,0.1,1.6h-0.1
	c0,0-1.8-4.1-7.1-4.1C1374.9,568,1370.9,572.5,1370.9,579.4 M1380.8,588.1c-4,0-6.9-3.4-6.9-8.7c0-5.5,3.1-8.7,7-8.7
	c4.7,0,6.9,4.3,6.9,8.7C1387.8,585.5,1384.4,588.1,1380.8,588.1 M1396.1,579.4c0,6.7,4.9,11.3,11.3,11.3c4.9,0,8.1-3.1,8.1-3.1
	l-1.4-2.2c0,0-2.5,2.7-6.5,2.7c-4.5,0-8.3-3.1-8.4-8.6h16.6c0,0,0.1-0.9,0.1-1.5c0-5.4-3.1-10-9.1-10
	C1401,568,1396.1,572.3,1396.1,579.4 M1399.3,577.1c0.7-4.4,3.9-6.7,7.5-6.7c3.2,0,5.9,2.2,6.1,6.7H1399.3z M1431.4,574.8
	c0,8.8,6.2,15.9,15.1,15.9c7.5,0,11.7-4.9,11.7-4.9l-1.7-2.2c0,0-3.7,4.3-9.9,4.3c-6.9,0-12-5.8-12-13.1s5.2-12.6,11.9-12.6
	c3.5,0,8.4,1.6,8.4,4.4v1.7h2.8v-2.5c0-4.6-7-6.4-11.3-6.4C1437.8,559.4,1431.4,566.1,1431.4,574.8 M1461.4,579.3
	c0,6.5,5.1,11.5,11.5,11.5c6.3,0,11.4-4.9,11.4-11.5c0-6.4-5.1-11.2-11.5-11.2C1466.5,568,1461.4,572.8,1461.4,579.3 M1464.4,579.3
	c0-4.9,3.8-8.6,8.4-8.6s8.4,3.7,8.4,8.6c0,5-3.8,8.8-8.4,8.8C1468.2,588.1,1464.4,584.3,1464.4,579.3 M1487.8,579.4
	c0,6.7,3.6,11.4,9.4,11.4c5.6,0,7.4-4.2,7.4-4.2h0.1c0,0-0.1,0.8-0.1,1.9v10.4h2.9V572c0-0.6,0.3-0.9,0.9-0.9h1.8v-2.5h-3
	c-1.8,0-2.6,0.7-2.6,2.2c0,0.8,0,1.4,0,1.4h-0.1c0,0-1.9-4.2-7.2-4.2C1491.9,568,1487.8,572.5,1487.8,579.4 M1497.7,588.1
	c-4.1,0-6.9-3.4-6.9-8.7c0-5.5,3.2-8.7,7-8.7c4.6,0,6.9,4.3,6.9,8.7C1504.7,585.5,1501.3,588.1,1497.7,588.1 M1515,582.3
	c0,5.6,2.2,8.4,7.3,8.4c4.7,0,7.6-3.4,8.4-5.5h0.1c0,0-0.1,0.7-0.1,1.6v1c0,1.6,0.8,2.4,2.6,2.4h3v-2.5h-1.8c-0.6,0-0.9-0.3-0.9-1
	v-18.2h-2.9v10.4c0,4.7-3.1,9-8,9c-4.2,0-4.7-3-4.7-6.4V571c0-1.8-0.8-2.5-2.6-2.5h-3.1v2.5h1.8c0.6,0,1,0.3,1,0.9v10.4H1515z
	 M1541.2,563.6h2.8v-3.7h-2.8V563.6z M1541.3,587.6c0,1.9,0.8,2.6,2.6,2.6h3.1v-2.5h-1.8c-0.6,0-0.9-0.3-0.9-1v-15.6
	c0-1.9-0.8-2.6-2.6-2.6h-3.1v2.5h1.8c0.6,0,1,0.3,1,0.9L1541.3,587.6L1541.3,587.6z M1551.9,590.2h2.9V580c0-1,0.1-2,0.3-2.9
	c0.9-3.3,3.5-6.4,7.1-6.4c4.1,0,4.6,3.2,4.6,6.5v13.1h2.9V580c0-1.2,0.1-2.2,0.4-3.1c0.9-3.2,3.6-6.1,6.9-6.1c4,0,4.7,2.9,4.7,6.5
	v10.4c0,1.9,0.8,2.6,2.6,2.6h3.1v-2.5h-1.8c-0.6,0-0.9-0.3-0.9-1v-10.3c0-5.3-1.9-8.4-7.2-8.4c-3.7,0-6.8,2.5-8,5.4h-0.1
	c-0.6-3.6-2.7-5.4-6.7-5.4c-3.4,0-6.8,2.5-7.8,5.5h-0.1c0,0,0.1-0.7,0.1-1.6v-1c0-1.6-0.8-2.4-2.6-2.4h-3v2.5h1.8c0.6,0,1,0.3,1,0.9
	v18.2H1551.9z M1591.9,590.2h2.8v-1.9c0-1-0.1-1.8-0.1-1.8h0.1c0,0,1.9,4.2,7.1,4.2c5.7,0,9.8-4.5,9.8-11.3c0-6.7-3.6-11.4-9.4-11.4
	c-5.6,0-7.4,4.1-7.4,4.1h-0.1c0,0,0.1-0.8,0.1-1.8v-7.8c0-1.9-0.8-2.6-2.6-2.6h-3.1v2.5h1.8c0.6,0,1,0.3,1,0.9L1591.9,590.2
	L1591.9,590.2z M1594.7,579.4c0-6.2,3.4-8.7,7-8.7c4,0,6.9,3.4,6.9,8.7c0,5.5-3.1,8.7-7,8.7C1596.9,588.1,1594.7,583.8,1594.7,579.4
	 M1615.1,579.3c0,6.5,5.1,11.5,11.5,11.5c6.3,0,11.4-4.9,11.4-11.5c0-6.4-5.1-11.2-11.5-11.2C1620.2,568,1615.1,572.8,1615.1,579.3
	 M1618.1,579.3c0-4.9,3.8-8.6,8.4-8.6s8.4,3.7,8.4,8.6c0,5-3.8,8.8-8.4,8.8S1618.1,584.3,1618.1,579.3"/>
<rect x="635.3" y="436.1" class="st0" width="3.2" height="208.9"/>
</svg>
