<?xml version="1.0" encoding="utf-8"?>
<!-- Generator: Adobe Illustrator 21.1.0, SVG Export Plug-In . SVG Version: 6.00 Build 0)  -->
<svg version="1.1" id="Capa_1" xmlns="http://www.w3.org/2000/svg" xmlns:xlink="http://www.w3.org/1999/xlink" x="0px" y="0px"
	 viewBox="0 0 503 115" style="enable-background:new 0 0 503 115;" xml:space="preserve">
<style type="text/css">
	.st0{enable-background:new    ;}
	.st1{fill:#F1F1F1;}
</style>
<g class="st0">
	<path class="st1" d="M10,102.1c-3.3-4.3-4.9-10.5-4.9-18.6V54.4c0-8,1.6-14,4.9-18.1c3.3-4.1,8.7-6.2,16.1-6.2
		c7.5,0,12.8,2.1,16.1,6.2s4.9,10.2,4.9,18.1v29.3c0,8-1.6,14.1-4.9,18.4c-3.3,4.3-8.6,6.5-16.1,6.5C18.6,108.5,13.2,106.4,10,102.1
		z M34.2,96.5c1.4-2.3,2.1-5.9,2.1-10.6V52.2c0-4.7-0.7-8.2-2.1-10.4c-1.4-2.2-4.1-3.4-8.1-3.4c-4.1,0-6.8,1.1-8.2,3.4
		c-1.4,2.2-2.1,5.7-2.1,10.4v33.7c0,4.8,0.7,8.3,2.1,10.6c1.4,2.3,4.1,3.5,8.2,3.5C30.1,100.1,32.8,98.9,34.2,96.5z"/>
	<path class="st1" d="M57.7,30.7h16.7c8.3,0,14.2,1.9,17.6,5.7c3.5,3.8,5.2,9.7,5.2,17.8v28.3c0,8.5-1.7,14.8-5.1,19
		c-3.4,4.1-9,6.2-16.9,6.2H57.6v-77H57.7z M74.5,100c3.7,0,6.4-0.7,8.1-2.2c1.7-1.5,2.7-3.4,3.1-5.9c0.4-2.5,0.6-6.3,0.6-11.4v-25
		c0-4.4-0.3-7.7-0.8-10s-1.7-4-3.4-5.1s-4.4-1.7-8-1.7h-5.8V100H74.5z"/>
	<path class="st1" d="M111.2,102.1c-3.3-4.3-4.9-10.5-4.9-18.6V54.4c0-8,1.6-14,4.9-18.1c3.3-4.1,8.7-6.2,16.2-6.2
		s12.8,2.1,16.1,6.2c3.3,4.1,4.9,10.2,4.9,18.1v29.3c0,8-1.6,14.1-4.9,18.4s-8.6,6.5-16.1,6.5C119.9,108.5,114.5,106.4,111.2,102.1z
		 M135.5,96.5c1.4-2.3,2.1-5.9,2.1-10.6V52.2c0-4.7-0.7-8.2-2.1-10.4c-1.4-2.2-4.1-3.4-8.1-3.4c-4.1,0-6.8,1.1-8.2,3.4
		c-1.4,2.2-2.1,5.7-2.1,10.4v33.7c0,4.8,0.7,8.3,2.1,10.6c1.4,2.3,4.1,3.5,8.2,3.5C131.4,100.1,134.1,98.9,135.5,96.5z"/>
	<path class="st1" d="M159,30.7h7.3l21.9,51.1V30.7h8.9v77h-6.8l-22.1-52.5v52.5H159V30.7z"/>
	<path class="st1" d="M217.6,38.7h-13v-8H241v8h-12.6v69h-10.7L217.6,38.7L217.6,38.7z"/>
	<path class="st1" d="M251.8,102.1c-3.3-4.3-4.9-10.5-4.9-18.6V54.4c0-8,1.6-14,4.9-18.1s8.7-6.2,16.2-6.2s12.8,2.1,16.1,6.2
		c3.3,4.1,4.9,10.2,4.9,18.1v29.3c0,8-1.6,14.1-4.9,18.4s-8.6,6.5-16.1,6.5C260.5,108.5,255.1,106.4,251.8,102.1z M276.1,96.5
		c1.4-2.3,2.1-5.9,2.1-10.6V52.2c0-4.7-0.7-8.2-2.1-10.4c-1.4-2.2-4.1-3.4-8.1-3.4c-4.1,0-6.8,1.1-8.2,3.4
		c-1.4,2.2-2.1,5.7-2.1,10.4v33.7c0,4.8,0.7,8.3,2.1,10.6c1.4,2.3,4.1,3.5,8.2,3.5C272,100.1,274.7,98.9,276.1,96.5z"/>
	<path class="st1" d="M299.6,30.7h10.7V100H330v7.7h-30.4V30.7z"/>
	<path class="st1" d="M340.2,102.1c-3.3-4.3-4.9-10.5-4.9-18.6V54.4c0-8,1.6-14,4.9-18.1s8.7-6.2,16.2-6.2s12.8,2.1,16.1,6.2
		c3.3,4.1,4.9,10.2,4.9,18.1v29.3c0,8-1.6,14.1-4.9,18.4s-8.6,6.5-16.1,6.5C348.8,108.5,343.4,106.4,340.2,102.1z M364.4,96.5
		c1.4-2.3,2.1-5.9,2.1-10.6V52.2c0-4.7-0.7-8.2-2.1-10.4c-1.4-2.2-4.1-3.4-8.1-3.4c-4.1,0-6.8,1.1-8.2,3.4
		c-1.4,2.2-2.1,5.7-2.1,10.4v33.7c0,4.8,0.7,8.3,2.1,10.6c1.4,2.3,4.1,3.5,8.2,3.5C360.4,100.1,363,98.9,364.4,96.5z"/>
	<path class="st1" d="M391.1,102c-3.1-4.4-4.7-10.9-4.7-19.6V56.6c0-6,0.6-10.8,1.9-14.7c1.2-3.8,3.4-6.8,6.4-8.8
		c3-2.1,7.1-3.1,12.4-3.1c7.1,0,12.2,1.8,15.3,5.4s4.7,9.3,4.7,17v2.9H417v-2.4c0-3.7-0.2-6.5-0.7-8.5c-0.4-2-1.4-3.5-2.8-4.5
		c-1.4-1-3.5-1.5-6.3-1.5c-3,0-5.2,0.7-6.7,2c-1.5,1.4-2.4,3.2-2.8,5.5c-0.4,2.3-0.6,5.3-0.6,9.1v28.5c0,5.9,0.7,10.1,2.1,12.7
		c1.4,2.6,4.2,3.8,8.2,3.8s6.7-1.4,8.2-4.2c1.5-2.8,2.2-7.3,2.2-13.4v-5.3H408v-7.6h19.5v38.1H421l-1-8.8c-2.4,6.5-7,9.8-13.7,9.8
		C399.3,108.6,394.2,106.4,391.1,102z"/>
	<path class="st1" d="M439.3,30.7h10.5v77h-10.5V30.7z M447.5,7.3h10.2L447,26.2h-5.1L447.5,7.3z"/>
	<path class="st1" d="M474.4,30.7h10.4l16.4,77H491l-3.5-19.4h-15.7l-3.7,19.4H458L474.4,30.7z M486.1,80.6l-6.5-34.7l-6.4,34.7
		H486.1z"/>
</g>
</svg>
