<?xml version="1.0" encoding="utf-8"?>
<!-- Generator: Adobe Illustrator 21.1.0, SVG Export Plug-In . SVG Version: 6.00 Build 0)  -->
<svg version="1.1" id="Capa_1" xmlns="http://www.w3.org/2000/svg" xmlns:xlink="http://www.w3.org/1999/xlink" x="0px" y="0px"
	 viewBox="0 0 840 410" style="enable-background:new 0 0 840 410;" xml:space="preserve">
<style type="text/css">
	.st0{fill:#3D93C1;}
	.st1{fill:#214E83;}
	.st2{fill:#FFFFFF;}
	.st3{font-family:'Oswald-Regular';}
	.st4{font-size:14px;}
	.st5{fill:none;stroke:#214E83;stroke-miterlimit:10;}
</style>
<g>
	<rect x="360.5" y="5.5" class="st0" width="119" height="54"/>
	<path class="st1" d="M479,6v53H361V6H479 M480,5H360v55h120V5L480,5z"/>
</g>
<g>
	<path class="st2" d="M386.5,19.3h2.5c1.2,0,2.1,0.3,2.6,0.8s0.8,1.4,0.8,2.6v4.2c0,1.3-0.2,2.2-0.7,2.8c-0.5,0.6-1.3,0.9-2.5,0.9
		h-2.6V19.3z M389,29.5c0.6,0,0.9-0.1,1.2-0.3c0.2-0.2,0.4-0.5,0.5-0.9c0.1-0.4,0.1-0.9,0.1-1.7v-3.7c0-0.6,0-1.1-0.1-1.5
		c-0.1-0.3-0.2-0.6-0.5-0.8c-0.3-0.2-0.6-0.2-1.2-0.2h-0.9v9H389z"/>
	<path class="st2" d="M394,19.3h1.6v11.3H394V19.3z"/>
	<path class="st2" d="M397.3,19.3h2.3c1.1,0,2,0.2,2.5,0.7s0.8,1.2,0.8,2.3c0,1.5-0.5,2.3-1.4,2.6l1.6,5.7h-1.5l-1.5-5.3h-1.2v5.3
		h-1.6V19.3z M399.5,24.2c0.7,0,1.2-0.1,1.5-0.4c0.3-0.3,0.4-0.8,0.4-1.5c0-0.5-0.1-0.8-0.2-1.1c-0.1-0.3-0.3-0.5-0.5-0.6
		s-0.6-0.2-1.1-0.2h-0.7v3.8H399.5z"/>
	<path class="st2" d="M404.6,19.3h4.4v1.2h-2.8v3.8h2.3v1.1h-2.3v4.2h2.8v1.1h-4.4V19.3z"/>
	<path class="st2" d="M410.8,29.7c-0.5-0.7-0.7-1.6-0.7-2.8v-4c0-1.2,0.2-2.2,0.7-2.8c0.4-0.6,1.2-1,2.4-1c1,0,1.7,0.3,2.2,0.8
		s0.7,1.4,0.7,2.4v0.9h-1.5v-0.8c0-0.5,0-0.9-0.1-1.2c0-0.3-0.2-0.5-0.4-0.7s-0.5-0.3-0.9-0.3c-0.4,0-0.7,0.1-1,0.3
		s-0.3,0.4-0.4,0.8c-0.1,0.3-0.1,0.8-0.1,1.3v4.5c0,0.6,0,1,0.1,1.4c0.1,0.3,0.2,0.6,0.5,0.7c0.2,0.1,0.5,0.2,0.9,0.2
		c0.4,0,0.7-0.1,0.9-0.3c0.2-0.2,0.3-0.4,0.4-0.7c0.1-0.3,0.1-0.7,0.1-1.3v-0.8h1.5v0.8c0,1.1-0.2,2-0.6,2.6s-1.2,0.9-2.2,0.9
		C412,30.7,411.2,30.4,410.8,29.7z"/>
	<path class="st2" d="M418.8,20.4h-1.9v-1.2h5.4v1.2h-1.9v10.2h-1.6V20.4z"/>
	<path class="st2" d="M423.8,29.8c-0.5-0.6-0.7-1.5-0.7-2.7v-4.3c0-1.2,0.2-2.1,0.7-2.7c0.5-0.6,1.3-0.9,2.4-0.9
		c1.1,0,1.9,0.3,2.4,0.9c0.5,0.6,0.7,1.5,0.7,2.7v4.3c0,1.2-0.2,2.1-0.7,2.7c-0.5,0.6-1.3,1-2.4,1C425.1,30.7,424.3,30.4,423.8,29.8
		z M427.4,29c0.2-0.3,0.3-0.9,0.3-1.6v-5c0-0.7-0.1-1.2-0.3-1.5c-0.2-0.3-0.6-0.5-1.2-0.5c-0.6,0-1,0.2-1.2,0.5
		c-0.2,0.3-0.3,0.8-0.3,1.5v5c0,0.7,0.1,1.2,0.3,1.6c0.2,0.3,0.6,0.5,1.2,0.5C426.8,29.5,427.2,29.3,427.4,29z"/>
	<path class="st2" d="M430.8,19.3h2.3c1.1,0,2,0.2,2.5,0.7s0.8,1.2,0.8,2.3c0,1.5-0.5,2.3-1.4,2.6l1.6,5.7h-1.5l-1.5-5.3h-1.2v5.3
		h-1.6V19.3z M433,24.2c0.7,0,1.2-0.1,1.5-0.4c0.3-0.3,0.4-0.8,0.4-1.5c0-0.5-0.1-0.8-0.2-1.1c-0.1-0.3-0.3-0.5-0.5-0.6
		s-0.6-0.2-1.1-0.2h-0.7v3.8H433z"/>
	<path class="st2" d="M441.3,19.3h2.5c1.2,0,2.1,0.3,2.6,0.8s0.8,1.4,0.8,2.6v4.2c0,1.3-0.2,2.2-0.7,2.8c-0.5,0.6-1.3,0.9-2.5,0.9
		h-2.6V19.3z M443.8,29.5c0.6,0,0.9-0.1,1.2-0.3c0.2-0.2,0.4-0.5,0.5-0.9c0.1-0.4,0.1-0.9,0.1-1.7v-3.7c0-0.6,0-1.1-0.1-1.5
		c-0.1-0.3-0.2-0.6-0.5-0.8c-0.3-0.2-0.6-0.2-1.2-0.2h-0.9v9H443.8z"/>
	<path class="st2" d="M448.7,19.3h4.4v1.2h-2.8v3.8h2.3v1.1h-2.3v4.2h2.8v1.1h-4.4V19.3z"/>
	<path class="st2" d="M396.7,46.5c-0.5-0.7-0.7-1.6-0.7-2.8v-4c0-1.2,0.2-2.2,0.7-2.8c0.4-0.6,1.2-1,2.4-1c1,0,1.7,0.3,2.2,0.8
		s0.7,1.4,0.7,2.4v0.9h-1.5v-0.8c0-0.5,0-0.9-0.1-1.2c0-0.3-0.2-0.5-0.4-0.7s-0.5-0.3-0.9-0.3c-0.4,0-0.7,0.1-1,0.3
		s-0.3,0.4-0.4,0.8c-0.1,0.3-0.1,0.8-0.1,1.3V44c0,0.6,0,1,0.1,1.4c0.1,0.3,0.2,0.6,0.5,0.7c0.2,0.1,0.5,0.2,0.9,0.2
		c0.4,0,0.7-0.1,0.9-0.3c0.2-0.2,0.3-0.4,0.4-0.7c0.1-0.3,0.1-0.7,0.1-1.3v-0.8h1.5V44c0,1.1-0.2,2-0.6,2.6s-1.2,0.9-2.2,0.9
		C397.9,47.5,397.1,47.2,396.7,46.5z"/>
	<path class="st2" d="M405.2,36.1h1.5l2.4,11.3h-1.5l-0.5-2.9h-2.3l-0.5,2.9h-1.5L405.2,36.1z M406.9,43.4l-1-5.1l-0.9,5.1H406.9z"
		/>
	<path class="st2" d="M410.3,36.1h2.3c1.1,0,2,0.2,2.5,0.7s0.8,1.2,0.8,2.3c0,1.5-0.5,2.3-1.4,2.6l1.6,5.7h-1.5l-1.5-5.3h-1.2v5.3
		h-1.6V36.1z M412.5,41c0.7,0,1.2-0.1,1.5-0.4c0.3-0.3,0.4-0.8,0.4-1.5c0-0.5-0.1-0.8-0.2-1.1c-0.1-0.3-0.3-0.5-0.5-0.6
		s-0.6-0.2-1.1-0.2h-0.7V41H412.5z"/>
	<path class="st2" d="M417.6,36.1h2.3c1.1,0,2,0.2,2.5,0.7s0.8,1.2,0.8,2.3c0,1.5-0.5,2.3-1.4,2.6l1.6,5.7h-1.5l-1.5-5.3h-1.2v5.3
		h-1.6V36.1z M419.7,41c0.7,0,1.2-0.1,1.5-0.4c0.3-0.3,0.4-0.8,0.4-1.5c0-0.5-0.1-0.8-0.2-1.1c-0.1-0.3-0.3-0.5-0.5-0.6
		s-0.6-0.2-1.1-0.2h-0.7V41H419.7z"/>
	<path class="st2" d="M424.8,36.1h4.4v1.2h-2.8V41h2.3v1.1h-2.3v4.2h2.8v1.1h-4.4V36.1z"/>
	<path class="st2" d="M430.5,36.1h2.3c1.1,0,2,0.2,2.5,0.7s0.8,1.2,0.8,2.3c0,1.5-0.5,2.3-1.4,2.6l1.6,5.7h-1.5l-1.5-5.3h-1.2v5.3
		h-1.6V36.1z M432.7,41c0.7,0,1.2-0.1,1.5-0.4c0.3-0.3,0.4-0.8,0.4-1.5c0-0.5-0.1-0.8-0.2-1.1c-0.1-0.3-0.3-0.5-0.5-0.6
		s-0.6-0.2-1.1-0.2h-0.7V41H432.7z"/>
	<path class="st2" d="M439.6,36.1h1.5l2.4,11.3H442l-0.5-2.9h-2.3l-0.5,2.9h-1.5L439.6,36.1z M441.3,43.4l-1-5.1l-0.9,5.1H441.3z"/>
</g>
<g>
	<rect x="10.5" y="99.5" class="st0" width="119" height="77"/>
	<path class="st1" d="M129,100v76H11v-76H129 M130,99H10v78h120V99L130,99z"/>
</g>
<text transform="matrix(1 0 0 1 29.54 126.4769)"><tspan x="0" y="0" class="st2 st3 st4">ENCARGADO DE</tspan><tspan x="5.5" y="16.8" class="st2 st3 st4">DOCENCIA DE</tspan><tspan x="7.7" y="33.6" class="st2 st3 st4">CS. BÁSICAS</tspan></text>
<g>
	<rect x="150.5" y="99.5" class="st0" width="119" height="77"/>
	<path class="st1" d="M269,100v76H151v-76H269 M270,99H150v78h120V99L270,99z"/>
</g>
<text transform="matrix(1 0 0 1 169.54 134.8771)"><tspan x="0" y="0" class="st2 st3 st4">ENCARGADO DE</tspan><tspan x="9.2" y="16.8" class="st2 st3 st4">PRECLÍNICO</tspan></text>
<g>
	<rect x="290.5" y="99.5" class="st0" width="119" height="77"/>
	<path class="st1" d="M409,100v76H291v-76H409 M410,99H290v78h120V99L410,99z"/>
</g>
<text transform="matrix(1 0 0 1 309.54 118.077)"><tspan x="0" y="0" class="st2 st3 st4">ENCARGADO DE</tspan><tspan x="-0.1" y="16.8" class="st2 st3 st4">COORDINACIÓN</tspan><tspan x="1.4" y="33.6" class="st2 st3 st4">ACADEMICA DE</tspan><tspan x="19.4" y="50.4" class="st2 st3 st4">CLÍNICA</tspan></text>
<g>
	<rect x="430.5" y="99.5" class="st0" width="119" height="77"/>
	<path class="st1" d="M549,100v76H431v-76H549 M550,99H430v78h120V99L550,99z"/>
</g>
<text transform="matrix(1 0 0 1 463.75 126.4769)"><tspan x="0" y="0" class="st2 st3 st4">DIRECTOR</tspan><tspan x="-4.5" y="16.8" class="st2 st3 st4">TÉCNICO DE</tspan><tspan x="5.2" y="33.6" class="st2 st3 st4">CLÍNICA</tspan></text>
<g>
	<rect x="570.5" y="99.5" class="st0" width="119" height="77"/>
	<path class="st1" d="M689,100v76H571v-76H689 M690,99H570v78h120V99L690,99z"/>
</g>
<text transform="matrix(1 0 0 1 586.2642 134.8771)"><tspan x="0" y="0" class="st2 st3 st4">ADMINISTRADOR</tspan><tspan x="3.1" y="16.8" class="st2 st3 st4">DE LA CARRERA</tspan></text>
<g>
	<rect x="710.5" y="99.5" class="st0" width="119" height="77"/>
	<path class="st1" d="M829,100v76H711v-76H829 M830,99H710v78h120V99L830,99z"/>
</g>
<text transform="matrix(1 0 0 1 738.1641 134.8771)"><tspan x="0" y="0" class="st2 st3 st4">SECRETARIA</tspan><tspan x="-3.1" y="16.8" class="st2 st3 st4">DE DOCENCIA</tspan></text>
<g>
	<rect x="10.5" y="217.5" class="st0" width="119" height="77"/>
	<path class="st1" d="M129,218v76H11v-76H129 M130,217H10v78h120V217L130,217z"/>
</g>
<text transform="matrix(1 0 0 1 33.103 252.3104)"><tspan x="0" y="0" class="st2 st3 st4">ASIGNATURAS</tspan><tspan x="-4" y="16.8" class="st2 st3 st4">DE CS. BÁSICAS</tspan></text>
<g>
	<rect x="150.5" y="217.5" class="st0" width="119" height="77"/>
	<path class="st1" d="M269,218v76H151v-76H269 M270,217H150v78h120V217L270,217z"/>
</g>
<text transform="matrix(1 0 0 1 173.103 252.3104)"><tspan x="0" y="0" class="st2 st3 st4">ASIGNATURAS</tspan><tspan x="-2.5" y="16.8" class="st2 st3 st4">DE PRECLÍNICO</tspan></text>
<g>
	<rect x="290.5" y="218.5" class="st0" width="119" height="77"/>
	<path class="st1" d="M409,219v76H291v-76H409 M410,218H290v78h120V218L410,218z"/>
</g>
<text transform="matrix(1 0 0 1 313.103 243.9103)"><tspan x="0" y="0" class="st2 st3 st4">ASIGNATURAS</tspan><tspan x="7.7" y="16.8" class="st2 st3 st4">DE CLÍNICA</tspan><tspan x="-4.2" y="33.6" class="st2 st3 st4">ODONTOLÓGICA</tspan></text>
<g>
	<rect x="430.5" y="218.5" class="st0" width="119" height="77"/>
	<path class="st1" d="M549,219v76H431v-76H549 M550,218H430v78h120V218L550,218z"/>
</g>
<text transform="matrix(1 0 0 1 455.938 243.9103)"><tspan x="0" y="0" class="st2 st3 st4">ENFERMERAS</tspan><tspan x="-11.6" y="16.8" class="st2 st3 st4">COORDINADORAS</tspan><tspan x="4.9" y="33.6" class="st2 st3 st4">DE CLÍNICA</tspan></text>
<g>
	<rect x="290.5" y="337.5" class="st0" width="119" height="61"/>
	<path class="st1" d="M409,338v60H291v-60H409 M410,337H290v62h120V337L410,337z"/>
</g>
<text transform="matrix(1 0 0 1 324.0928 364.6104)"><tspan x="0" y="0" class="st2 st3 st4">TÉCNICOS</tspan><tspan x="0" y="16.8" class="st2 st3 st4">DENTALES</tspan></text>
<g>
	<rect x="430.5" y="337.5" class="st0" width="119" height="61"/>
	<path class="st1" d="M549,338v60H431v-60H549 M550,337H430v62h120V337L550,337z"/>
</g>
<text transform="matrix(1 0 0 1 459.4521 364.6104)"><tspan x="0" y="0" class="st2 st3 st4">AUXILIARES</tspan><tspan x="-2.2" y="16.8" class="st2 st3 st4">DE SERVICIO</tspan></text>
<g>
	<rect x="570.5" y="337.5" class="st0" width="119" height="61"/>
	<path class="st1" d="M689,338v60H571v-60H689 M690,337H570v62h120V337L690,337z"/>
</g>
<text transform="matrix(1 0 0 1 594.853 364.6104)"><tspan x="0" y="0" class="st2 st3 st4">SECRETARIAS</tspan><tspan x="-12.4" y="16.8" class="st2 st3 st4">ADMINISTRATIVAS</tspan></text>
<g>
	<line class="st5" x1="419.5" y1="59.5" x2="419.5" y2="79.5"/>
</g>
<line class="st5" x1="69.5" y1="79.5" x2="629.5" y2="79.5"/>
<line class="st5" x1="69.5" y1="79.5" x2="69.5" y2="98.5"/>
<line class="st5" x1="209.5" y1="79.5" x2="209.5" y2="98.5"/>
<line class="st5" x1="349.5" y1="79.5" x2="349.5" y2="98.5"/>
<line class="st5" x1="489.5" y1="79.5" x2="489.5" y2="98.5"/>
<line class="st5" x1="629.5" y1="79.5" x2="629.5" y2="98.5"/>
<line class="st5" x1="770.5" y1="32.5" x2="770.5" y2="98.5"/>
<line class="st5" x1="479.5" y1="32.5" x2="770.5" y2="32.5"/>
<line class="st5" x1="69.5" y1="177.5" x2="69.5" y2="216.5"/>
<line class="st5" x1="209.5" y1="177.5" x2="209.5" y2="216.5"/>
<line class="st5" x1="349.5" y1="177.5" x2="349.5" y2="217.5"/>
<line class="st5" x1="490.5" y1="177.5" x2="490.5" y2="218.5"/>
<line class="st5" x1="489.5" y1="296.5" x2="489.5" y2="317.5"/>
<line class="st5" x1="349.5" y1="317.5" x2="630.5" y2="317.5"/>
<line class="st5" x1="349.5" y1="336.5" x2="349.5" y2="317.5"/>
<line class="st5" x1="489.5" y1="337.5" x2="489.5" y2="317.5"/>
<line class="st5" x1="630.5" y1="336.5" x2="630.5" y2="317.5"/>
</svg>
