<?xml version="1.0" encoding="utf-8"?>
<!-- Generator: Adobe Illustrator 21.1.0, SVG Export Plug-In . SVG Version: 6.00 Build 0)  -->
<svg version="1.1" id="Capa_1" xmlns="http://www.w3.org/2000/svg" xmlns:xlink="http://www.w3.org/1999/xlink" x="0px" y="0px"
	 viewBox="0 0 840 410" style="enable-background:new 0 0 840 410;" xml:space="preserve">
<style type="text/css">
	.st0{fill:#3D93C1;}
	.st1{fill:#214E83;}
	.st2{fill:#FFFFFF;}
	.st3{fill:none;stroke:#214E83;stroke-miterlimit:10;}
</style>
<g>
	<rect x="360.5" y="5.5" class="st0" width="119" height="54"/>
	<path class="st1" d="M479,6v53H361V6H479 M480,5H360v55h120V5L480,5z"/>
</g>
<g>
	<path class="st2" d="M386.5,19.3h2.5c1.2,0,2.1,0.3,2.6,0.8s0.8,1.4,0.8,2.6v4.2c0,1.3-0.2,2.2-0.7,2.8c-0.5,0.6-1.3,0.9-2.5,0.9
		h-2.6V19.3z M389,29.5c0.6,0,0.9-0.1,1.2-0.3c0.2-0.2,0.4-0.5,0.5-0.9c0.1-0.4,0.1-0.9,0.1-1.7v-3.7c0-0.6,0-1.1-0.1-1.5
		c-0.1-0.3-0.2-0.6-0.5-0.8c-0.3-0.2-0.6-0.2-1.2-0.2h-0.9v9H389z"/>
	<path class="st2" d="M394,19.3h1.6v11.3H394V19.3z"/>
	<path class="st2" d="M397.3,19.3h2.3c1.1,0,2,0.2,2.5,0.7s0.8,1.2,0.8,2.3c0,1.5-0.5,2.3-1.4,2.6l1.6,5.7h-1.5l-1.5-5.3h-1.2v5.3
		h-1.6V19.3z M399.5,24.2c0.7,0,1.2-0.1,1.5-0.4c0.3-0.3,0.4-0.8,0.4-1.5c0-0.5-0.1-0.8-0.2-1.1c-0.1-0.3-0.3-0.5-0.5-0.6
		s-0.6-0.2-1.1-0.2h-0.7v3.8H399.5z"/>
	<path class="st2" d="M404.6,19.3h4.4v1.2h-2.8v3.8h2.3v1.1h-2.3v4.2h2.8v1.1h-4.4V19.3z"/>
	<path class="st2" d="M410.8,29.7c-0.5-0.7-0.7-1.6-0.7-2.8v-4c0-1.2,0.2-2.2,0.7-2.8c0.4-0.6,1.2-1,2.4-1c1,0,1.7,0.3,2.2,0.8
		s0.7,1.4,0.7,2.4v0.9h-1.5v-0.8c0-0.5,0-0.9-0.1-1.2c0-0.3-0.2-0.5-0.4-0.7s-0.5-0.3-0.9-0.3c-0.4,0-0.7,0.1-1,0.3
		s-0.3,0.4-0.4,0.8c-0.1,0.3-0.1,0.8-0.1,1.3v4.5c0,0.6,0,1,0.1,1.4c0.1,0.3,0.2,0.6,0.5,0.7c0.2,0.1,0.5,0.2,0.9,0.2
		c0.4,0,0.7-0.1,0.9-0.3c0.2-0.2,0.3-0.4,0.4-0.7c0.1-0.3,0.1-0.7,0.1-1.3v-0.8h1.5v0.8c0,1.1-0.2,2-0.6,2.6s-1.2,0.9-2.2,0.9
		C412,30.7,411.2,30.4,410.8,29.7z"/>
	<path class="st2" d="M418.8,20.4h-1.9v-1.2h5.4v1.2h-1.9v10.2h-1.6V20.4z"/>
	<path class="st2" d="M423.8,29.8c-0.5-0.6-0.7-1.5-0.7-2.7v-4.3c0-1.2,0.2-2.1,0.7-2.7c0.5-0.6,1.3-0.9,2.4-0.9
		c1.1,0,1.9,0.3,2.4,0.9c0.5,0.6,0.7,1.5,0.7,2.7v4.3c0,1.2-0.2,2.1-0.7,2.7c-0.5,0.6-1.3,1-2.4,1C425.1,30.7,424.3,30.4,423.8,29.8
		z M427.4,29c0.2-0.3,0.3-0.9,0.3-1.6v-5c0-0.7-0.1-1.2-0.3-1.5c-0.2-0.3-0.6-0.5-1.2-0.5c-0.6,0-1,0.2-1.2,0.5
		c-0.2,0.3-0.3,0.8-0.3,1.5v5c0,0.7,0.1,1.2,0.3,1.6c0.2,0.3,0.6,0.5,1.2,0.5C426.8,29.5,427.2,29.3,427.4,29z"/>
	<path class="st2" d="M430.8,19.3h2.3c1.1,0,2,0.2,2.5,0.7s0.8,1.2,0.8,2.3c0,1.5-0.5,2.3-1.4,2.6l1.6,5.7h-1.5l-1.5-5.3h-1.2v5.3
		h-1.6V19.3z M433,24.2c0.7,0,1.2-0.1,1.5-0.4c0.3-0.3,0.4-0.8,0.4-1.5c0-0.5-0.1-0.8-0.2-1.1c-0.1-0.3-0.3-0.5-0.5-0.6
		s-0.6-0.2-1.1-0.2h-0.7v3.8H433z"/>
	<path class="st2" d="M441.3,19.3h2.5c1.2,0,2.1,0.3,2.6,0.8s0.8,1.4,0.8,2.6v4.2c0,1.3-0.2,2.2-0.7,2.8c-0.5,0.6-1.3,0.9-2.5,0.9
		h-2.6V19.3z M443.8,29.5c0.6,0,0.9-0.1,1.2-0.3c0.2-0.2,0.4-0.5,0.5-0.9c0.1-0.4,0.1-0.9,0.1-1.7v-3.7c0-0.6,0-1.1-0.1-1.5
		c-0.1-0.3-0.2-0.6-0.5-0.8c-0.3-0.2-0.6-0.2-1.2-0.2h-0.9v9H443.8z"/>
	<path class="st2" d="M448.7,19.3h4.4v1.2h-2.8v3.8h2.3v1.1h-2.3v4.2h2.8v1.1h-4.4V19.3z"/>
	<path class="st2" d="M396.7,46.5c-0.5-0.7-0.7-1.6-0.7-2.8v-4c0-1.2,0.2-2.2,0.7-2.8c0.4-0.6,1.2-1,2.4-1c1,0,1.7,0.3,2.2,0.8
		s0.7,1.4,0.7,2.4v0.9h-1.5v-0.8c0-0.5,0-0.9-0.1-1.2c0-0.3-0.2-0.5-0.4-0.7s-0.5-0.3-0.9-0.3c-0.4,0-0.7,0.1-1,0.3
		s-0.3,0.4-0.4,0.8c-0.1,0.3-0.1,0.8-0.1,1.3V44c0,0.6,0,1,0.1,1.4c0.1,0.3,0.2,0.6,0.5,0.7c0.2,0.1,0.5,0.2,0.9,0.2
		c0.4,0,0.7-0.1,0.9-0.3c0.2-0.2,0.3-0.4,0.4-0.7c0.1-0.3,0.1-0.7,0.1-1.3v-0.8h1.5V44c0,1.1-0.2,2-0.6,2.6s-1.2,0.9-2.2,0.9
		C397.9,47.5,397.1,47.2,396.7,46.5z"/>
	<path class="st2" d="M405.2,36.1h1.5l2.4,11.3h-1.5l-0.5-2.9h-2.3l-0.5,2.9h-1.5L405.2,36.1z M406.9,43.4l-1-5.1l-0.9,5.1H406.9z"
		/>
	<path class="st2" d="M410.3,36.1h2.3c1.1,0,2,0.2,2.5,0.7s0.8,1.2,0.8,2.3c0,1.5-0.5,2.3-1.4,2.6l1.6,5.7h-1.5l-1.5-5.3h-1.2v5.3
		h-1.6V36.1z M412.5,41c0.7,0,1.2-0.1,1.5-0.4c0.3-0.3,0.4-0.8,0.4-1.5c0-0.5-0.1-0.8-0.2-1.1c-0.1-0.3-0.3-0.5-0.5-0.6
		s-0.6-0.2-1.1-0.2h-0.7V41H412.5z"/>
	<path class="st2" d="M417.6,36.1h2.3c1.1,0,2,0.2,2.5,0.7s0.8,1.2,0.8,2.3c0,1.5-0.5,2.3-1.4,2.6l1.6,5.7h-1.5l-1.5-5.3h-1.2v5.3
		h-1.6V36.1z M419.7,41c0.7,0,1.2-0.1,1.5-0.4c0.3-0.3,0.4-0.8,0.4-1.5c0-0.5-0.1-0.8-0.2-1.1c-0.1-0.3-0.3-0.5-0.5-0.6
		s-0.6-0.2-1.1-0.2h-0.7V41H419.7z"/>
	<path class="st2" d="M424.8,36.1h4.4v1.2h-2.8V41h2.3v1.1h-2.3v4.2h2.8v1.1h-4.4V36.1z"/>
	<path class="st2" d="M430.5,36.1h2.3c1.1,0,2,0.2,2.5,0.7s0.8,1.2,0.8,2.3c0,1.5-0.5,2.3-1.4,2.6l1.6,5.7h-1.5l-1.5-5.3h-1.2v5.3
		h-1.6V36.1z M432.7,41c0.7,0,1.2-0.1,1.5-0.4c0.3-0.3,0.4-0.8,0.4-1.5c0-0.5-0.1-0.8-0.2-1.1c-0.1-0.3-0.3-0.5-0.5-0.6
		s-0.6-0.2-1.1-0.2h-0.7V41H432.7z"/>
	<path class="st2" d="M439.6,36.1h1.5l2.4,11.3H442l-0.5-2.9h-2.3l-0.5,2.9h-1.5L439.6,36.1z M441.3,43.4l-1-5.1l-0.9,5.1H441.3z"/>
</g>
<g>
	<rect x="10.5" y="99.5" class="st0" width="119" height="77"/>
	<path class="st1" d="M129,100v76H11v-76H129 M130,99H10v78h120V99L130,99z"/>
</g>
<g>
	<path class="st2" d="M30.4,115.1h4.4v1.2H32v3.8h2.3v1.1H32v4.2h2.8v1.1h-4.4V115.1z"/>
	<path class="st2" d="M36.1,115.1h1.1l3.2,7.5v-7.5h1.3v11.3h-1l-3.3-7.7v7.7h-1.3V115.1z"/>
	<path class="st2" d="M44,125.6c-0.5-0.7-0.7-1.6-0.7-2.8v-4c0-1.2,0.2-2.2,0.7-2.8c0.4-0.6,1.2-1,2.4-1c1,0,1.7,0.3,2.2,0.8
		s0.7,1.4,0.7,2.4v0.9h-1.5v-0.8c0-0.5,0-0.9-0.1-1.2c0-0.3-0.2-0.5-0.4-0.7s-0.5-0.3-0.9-0.3c-0.4,0-0.7,0.1-1,0.3
		s-0.3,0.4-0.4,0.8c-0.1,0.3-0.1,0.8-0.1,1.3v4.5c0,0.6,0,1,0.1,1.4c0.1,0.3,0.2,0.6,0.5,0.7c0.2,0.1,0.5,0.2,0.9,0.2
		c0.4,0,0.7-0.1,0.9-0.3c0.2-0.2,0.3-0.4,0.4-0.7c0.1-0.3,0.1-0.7,0.1-1.3v-0.8h1.5v0.8c0,1.1-0.2,2-0.6,2.6s-1.2,0.9-2.2,0.9
		C45.2,126.6,44.4,126.3,44,125.6z"/>
	<path class="st2" d="M52.5,115.1H54l2.4,11.3H55l-0.5-2.9h-2.3l-0.5,2.9h-1.5L52.5,115.1z M54.2,122.5l-1-5.1l-0.9,5.1H54.2z"/>
	<path class="st2" d="M57.6,115.1h2.3c1.1,0,2,0.2,2.5,0.7s0.8,1.2,0.8,2.3c0,1.5-0.5,2.3-1.4,2.6l1.6,5.7h-1.5l-1.5-5.3h-1.2v5.3
		h-1.6V115.1z M59.8,120c0.7,0,1.2-0.1,1.5-0.4c0.3-0.3,0.4-0.8,0.4-1.5c0-0.5-0.1-0.8-0.2-1.1c-0.1-0.3-0.3-0.5-0.5-0.6
		s-0.6-0.2-1.1-0.2h-0.7v3.8H59.8z"/>
	<path class="st2" d="M65.4,125.6c-0.5-0.6-0.7-1.6-0.7-2.9V119c0-0.9,0.1-1.6,0.3-2.2c0.2-0.6,0.5-1,0.9-1.3s1.1-0.5,1.8-0.5
		c1,0,1.8,0.3,2.3,0.8c0.5,0.5,0.7,1.4,0.7,2.5v0.4h-1.5v-0.4c0-0.5,0-1-0.1-1.3c-0.1-0.3-0.2-0.5-0.4-0.7s-0.5-0.2-0.9-0.2
		c-0.4,0-0.8,0.1-1,0.3s-0.4,0.5-0.4,0.8c-0.1,0.3-0.1,0.8-0.1,1.3v4.2c0,0.9,0.1,1.5,0.3,1.9s0.6,0.6,1.2,0.6c0.6,0,1-0.2,1.2-0.6
		c0.2-0.4,0.3-1.1,0.3-2V122h-1.4v-1.1h2.9v5.6h-1l-0.2-1.3c-0.4,1-1,1.4-2,1.4C66.6,126.6,65.8,126.3,65.4,125.6z"/>
	<path class="st2" d="M74.2,115.1h1.5l2.4,11.3h-1.5l-0.5-2.9h-2.3l-0.5,2.9h-1.5L74.2,115.1z M75.9,122.5l-1-5.1l-0.9,5.1H75.9z"/>
	<path class="st2" d="M79.3,115.1h2.5c1.2,0,2.1,0.3,2.6,0.8s0.8,1.4,0.8,2.6v4.2c0,1.3-0.2,2.2-0.7,2.8c-0.5,0.6-1.3,0.9-2.5,0.9
		h-2.6V115.1z M81.7,125.3c0.6,0,0.9-0.1,1.2-0.3c0.2-0.2,0.4-0.5,0.5-0.9c0.1-0.4,0.1-0.9,0.1-1.7v-3.7c0-0.6,0-1.1-0.1-1.5
		c-0.1-0.3-0.2-0.6-0.5-0.8c-0.3-0.2-0.6-0.2-1.2-0.2h-0.9v9H81.7z"/>
	<path class="st2" d="M87.1,125.7c-0.5-0.6-0.7-1.5-0.7-2.7v-4.3c0-1.2,0.2-2.1,0.7-2.7c0.5-0.6,1.3-0.9,2.4-0.9
		c1.1,0,1.9,0.3,2.4,0.9c0.5,0.6,0.7,1.5,0.7,2.7v4.3c0,1.2-0.2,2.1-0.7,2.7c-0.5,0.6-1.3,1-2.4,1C88.4,126.6,87.6,126.3,87.1,125.7
		z M90.7,124.8c0.2-0.3,0.3-0.9,0.3-1.6v-5c0-0.7-0.1-1.2-0.3-1.5c-0.2-0.3-0.6-0.5-1.2-0.5c-0.6,0-1,0.2-1.2,0.5
		c-0.2,0.3-0.3,0.8-0.3,1.5v5c0,0.7,0.1,1.2,0.3,1.6c0.2,0.3,0.6,0.5,1.2,0.5C90.1,125.4,90.5,125.2,90.7,124.8z"/>
	<path class="st2" d="M97.4,115.1h2.5c1.2,0,2.1,0.3,2.6,0.8s0.8,1.4,0.8,2.6v4.2c0,1.3-0.2,2.2-0.7,2.8c-0.5,0.6-1.3,0.9-2.5,0.9
		h-2.6V115.1z M99.9,125.3c0.6,0,0.9-0.1,1.2-0.3c0.2-0.2,0.4-0.5,0.5-0.9c0.1-0.4,0.1-0.9,0.1-1.7v-3.7c0-0.6,0-1.1-0.1-1.5
		c-0.1-0.3-0.2-0.6-0.5-0.8c-0.3-0.2-0.6-0.2-1.2-0.2H99v9H99.9z"/>
	<path class="st2" d="M104.8,115.1h4.4v1.2h-2.8v3.8h2.3v1.1h-2.3v4.2h2.8v1.1h-4.4V115.1z"/>
	<path class="st2" d="M35.9,131.9h2.5c1.2,0,2.1,0.3,2.6,0.8s0.8,1.4,0.8,2.6v4.2c0,1.3-0.2,2.2-0.7,2.8c-0.5,0.6-1.3,0.9-2.5,0.9
		h-2.6V131.9z M38.4,142.1c0.6,0,0.9-0.1,1.2-0.3c0.2-0.2,0.4-0.5,0.5-0.9c0.1-0.4,0.1-0.9,0.1-1.7v-3.7c0-0.6,0-1.1-0.1-1.5
		c-0.1-0.3-0.2-0.6-0.5-0.8c-0.3-0.2-0.6-0.2-1.2-0.2h-0.9v9H38.4z"/>
	<path class="st2" d="M43.8,142.5c-0.5-0.6-0.7-1.5-0.7-2.7v-4.3c0-1.2,0.2-2.1,0.7-2.7c0.5-0.6,1.3-0.9,2.4-0.9
		c1.1,0,1.9,0.3,2.4,0.9c0.5,0.6,0.7,1.5,0.7,2.7v4.3c0,1.2-0.2,2.1-0.7,2.7c-0.5,0.6-1.3,1-2.4,1C45.1,143.4,44.3,143.1,43.8,142.5
		z M47.4,141.6c0.2-0.3,0.3-0.9,0.3-1.6v-5c0-0.7-0.1-1.2-0.3-1.5c-0.2-0.3-0.6-0.5-1.2-0.5c-0.6,0-1,0.2-1.2,0.5
		c-0.2,0.3-0.3,0.8-0.3,1.5v5c0,0.7,0.1,1.2,0.3,1.6c0.2,0.3,0.6,0.5,1.2,0.5C46.8,142.2,47.2,142,47.4,141.6z"/>
	<path class="st2" d="M51.3,142.4c-0.5-0.7-0.7-1.6-0.7-2.8v-4c0-1.2,0.2-2.2,0.7-2.8c0.4-0.6,1.2-1,2.4-1c1,0,1.7,0.3,2.2,0.8
		s0.7,1.4,0.7,2.4v0.9H55v-0.8c0-0.5,0-0.9-0.1-1.2c0-0.3-0.2-0.5-0.4-0.7s-0.5-0.3-0.9-0.3c-0.4,0-0.7,0.1-1,0.3s-0.3,0.4-0.4,0.8
		c-0.1,0.3-0.1,0.8-0.1,1.3v4.5c0,0.6,0,1,0.1,1.4c0.1,0.3,0.2,0.6,0.5,0.7c0.2,0.1,0.5,0.2,0.9,0.2c0.4,0,0.7-0.1,0.9-0.3
		c0.2-0.2,0.3-0.4,0.4-0.7c0.1-0.3,0.1-0.7,0.1-1.3v-0.8h1.5v0.8c0,1.1-0.2,2-0.6,2.6s-1.2,0.9-2.2,0.9
		C52.5,143.4,51.8,143.1,51.3,142.4z"/>
	<path class="st2" d="M58,131.9h4.4v1.2h-2.8v3.8h2.3v1.1h-2.3v4.2h2.8v1.1H58V131.9z"/>
	<path class="st2" d="M63.7,131.9h1.1l3.2,7.5v-7.5h1.3v11.3h-1l-3.3-7.7v7.7h-1.3V131.9z"/>
	<path class="st2" d="M71.6,142.4c-0.5-0.7-0.7-1.6-0.7-2.8v-4c0-1.2,0.2-2.2,0.7-2.8c0.4-0.6,1.2-1,2.4-1c1,0,1.7,0.3,2.2,0.8
		s0.7,1.4,0.7,2.4v0.9h-1.5v-0.8c0-0.5,0-0.9-0.1-1.2c0-0.3-0.2-0.5-0.4-0.7s-0.5-0.3-0.9-0.3c-0.4,0-0.7,0.1-1,0.3
		s-0.3,0.4-0.4,0.8c-0.1,0.3-0.1,0.8-0.1,1.3v4.5c0,0.6,0,1,0.1,1.4c0.1,0.3,0.2,0.6,0.5,0.7c0.2,0.1,0.5,0.2,0.9,0.2
		c0.4,0,0.7-0.1,0.9-0.3c0.2-0.2,0.3-0.4,0.4-0.7c0.1-0.3,0.1-0.7,0.1-1.3v-0.8h1.5v0.8c0,1.1-0.2,2-0.6,2.6s-1.2,0.9-2.2,0.9
		C72.8,143.4,72.1,143.1,71.6,142.4z"/>
	<path class="st2" d="M78.4,131.9H80v11.3h-1.6V131.9z"/>
	<path class="st2" d="M83.6,131.9h1.5l2.4,11.3h-1.5l-0.5-2.9h-2.3l-0.5,2.9h-1.5L83.6,131.9z M85.3,139.3l-1-5.1l-0.9,5.1H85.3z"/>
	<path class="st2" d="M91.9,131.9h2.5c1.2,0,2.1,0.3,2.6,0.8s0.8,1.4,0.8,2.6v4.2c0,1.3-0.2,2.2-0.7,2.8c-0.5,0.6-1.3,0.9-2.5,0.9
		h-2.6V131.9z M94.4,142.1c0.6,0,0.9-0.1,1.2-0.3c0.2-0.2,0.4-0.5,0.5-0.9c0.1-0.4,0.1-0.9,0.1-1.7v-3.7c0-0.6,0-1.1-0.1-1.5
		c-0.1-0.3-0.2-0.6-0.5-0.8c-0.3-0.2-0.6-0.2-1.2-0.2h-0.9v9H94.4z"/>
	<path class="st2" d="M99.3,131.9h4.4v1.2h-2.8v3.8h2.3v1.1h-2.3v4.2h2.8v1.1h-4.4V131.9z"/>
	<path class="st2" d="M38.6,159.2c-0.5-0.7-0.7-1.6-0.7-2.8v-4c0-1.2,0.2-2.2,0.7-2.8c0.4-0.6,1.2-1,2.4-1c1,0,1.7,0.3,2.2,0.8
		s0.7,1.4,0.7,2.4v0.9h-1.5V152c0-0.5,0-0.9-0.1-1.2c0-0.3-0.2-0.5-0.4-0.7s-0.5-0.3-0.9-0.3c-0.4,0-0.7,0.1-1,0.3s-0.3,0.4-0.4,0.8
		c-0.1,0.3-0.1,0.8-0.1,1.3v4.5c0,0.6,0,1,0.1,1.4c0.1,0.3,0.2,0.6,0.5,0.7c0.2,0.1,0.5,0.2,0.9,0.2c0.4,0,0.7-0.1,0.9-0.3
		c0.2-0.2,0.3-0.4,0.4-0.7c0.1-0.3,0.1-0.7,0.1-1.3v-0.8h1.5v0.8c0,1.1-0.2,2-0.6,2.6s-1.2,0.9-2.2,0.9
		C39.8,160.2,39,159.9,38.6,159.2z"/>
	<path class="st2" d="M45.8,159.3c-0.5-0.6-0.8-1.4-0.8-2.4l1.4-0.4c0,0.7,0.2,1.3,0.4,1.8c0.2,0.4,0.6,0.7,1.2,0.7
		c0.4,0,0.7-0.1,0.9-0.3s0.3-0.6,0.3-1c0-0.5-0.1-0.9-0.3-1.2c-0.2-0.3-0.5-0.6-0.9-1l-1.9-1.7c-0.4-0.3-0.7-0.7-0.8-1.1
		c-0.2-0.4-0.3-0.9-0.3-1.4c0-0.8,0.2-1.5,0.7-1.9c0.5-0.5,1.1-0.7,1.9-0.7c0.9,0,1.6,0.2,2,0.7c0.5,0.5,0.7,1.2,0.8,2.2l-1.3,0.4
		c0-0.7-0.2-1.2-0.4-1.5c-0.2-0.4-0.6-0.5-1.1-0.5c-0.4,0-0.7,0.1-0.9,0.3c-0.2,0.2-0.3,0.5-0.3,0.9c0,0.3,0.1,0.6,0.2,0.8
		c0.1,0.2,0.3,0.5,0.6,0.7l1.9,1.7c0.5,0.4,0.9,0.9,1.2,1.4c0.3,0.5,0.4,1.1,0.4,1.8c0,0.8-0.3,1.5-0.8,2s-1.2,0.7-2,0.7
		C47,160.2,46.3,159.9,45.8,159.3z"/>
	<path class="st2" d="M51.7,158.4h1.5v1.7h-1.5V158.4z"/>
	<path class="st2" d="M57.8,148.7h2.6c1,0,1.8,0.2,2.3,0.7c0.5,0.5,0.7,1.2,0.7,2.1c0,1.4-0.5,2.2-1.6,2.4c0.7,0.2,1.2,0.5,1.5,0.9
		c0.3,0.5,0.5,1.1,0.5,1.9c0,1-0.2,1.8-0.7,2.4c-0.5,0.6-1.2,0.9-2.2,0.9h-3V148.7z M60.3,153.5c0.7,0,1.1-0.1,1.4-0.4
		c0.3-0.3,0.4-0.8,0.4-1.5c0-0.5-0.1-0.9-0.2-1.1c-0.2-0.2-0.4-0.4-0.7-0.5s-0.8-0.1-1.4-0.1h-0.4v3.6H60.3z M60.4,158.9
		c0.5,0,0.8-0.1,1.1-0.2c0.3-0.1,0.4-0.4,0.5-0.7c0.1-0.3,0.2-0.7,0.2-1.2c0-0.7-0.1-1.3-0.4-1.6c-0.3-0.4-0.8-0.5-1.5-0.5h-0.9v4.3
		H60.4z"/>
	<path class="st2" d="M66.9,148.7h1.5l2.4,11.3h-1.5l-0.5-2.9h-2.3l-0.5,2.9h-1.5L66.9,148.7z M68.6,156.1l-1-5.1l-0.9,5.1H68.6z
		 M68.1,145.3h1.5l-1.6,2.8h-0.8L68.1,145.3z"/>
	<path class="st2" d="M72.5,159.3c-0.5-0.6-0.8-1.4-0.8-2.4l1.4-0.4c0,0.7,0.2,1.3,0.4,1.8c0.2,0.4,0.6,0.7,1.2,0.7
		c0.4,0,0.7-0.1,0.9-0.3s0.3-0.6,0.3-1c0-0.5-0.1-0.9-0.3-1.2c-0.2-0.3-0.5-0.6-0.9-1l-1.9-1.7c-0.4-0.3-0.7-0.7-0.8-1.1
		c-0.2-0.4-0.3-0.9-0.3-1.4c0-0.8,0.2-1.5,0.7-1.9c0.5-0.5,1.1-0.7,1.9-0.7c0.9,0,1.6,0.2,2,0.7c0.5,0.5,0.7,1.2,0.8,2.2l-1.3,0.4
		c0-0.7-0.2-1.2-0.4-1.5c-0.2-0.4-0.6-0.5-1.1-0.5c-0.4,0-0.7,0.1-0.9,0.3c-0.2,0.2-0.3,0.5-0.3,0.9c0,0.3,0.1,0.6,0.2,0.8
		c0.1,0.2,0.3,0.5,0.6,0.7l1.9,1.7c0.5,0.4,0.9,0.9,1.2,1.4c0.3,0.5,0.4,1.1,0.4,1.8c0,0.8-0.3,1.5-0.8,2s-1.2,0.7-2,0.7
		C73.7,160.2,73,159.9,72.5,159.3z"/>
	<path class="st2" d="M78.7,148.7h1.6v11.3h-1.6V148.7z"/>
	<path class="st2" d="M82.5,159.2c-0.5-0.7-0.7-1.6-0.7-2.8v-4c0-1.2,0.2-2.2,0.7-2.8c0.4-0.6,1.2-1,2.4-1c1,0,1.7,0.3,2.2,0.8
		s0.7,1.4,0.7,2.4v0.9h-1.5V152c0-0.5,0-0.9-0.1-1.2c0-0.3-0.2-0.5-0.4-0.7s-0.5-0.3-0.9-0.3c-0.4,0-0.7,0.1-1,0.3s-0.3,0.4-0.4,0.8
		c-0.1,0.3-0.1,0.8-0.1,1.3v4.5c0,0.6,0,1,0.1,1.4c0.1,0.3,0.2,0.6,0.5,0.7c0.2,0.1,0.5,0.2,0.9,0.2c0.4,0,0.7-0.1,0.9-0.3
		c0.2-0.2,0.3-0.4,0.4-0.7c0.1-0.3,0.1-0.7,0.1-1.3v-0.8h1.5v0.8c0,1.1-0.2,2-0.6,2.6s-1.2,0.9-2.2,0.9
		C83.8,160.2,83,159.9,82.5,159.2z"/>
	<path class="st2" d="M91.1,148.7h1.5l2.4,11.3h-1.5l-0.5-2.9h-2.3l-0.5,2.9h-1.5L91.1,148.7z M92.8,156.1l-1-5.1l-0.9,5.1H92.8z"/>
	<path class="st2" d="M96.7,159.3c-0.5-0.6-0.8-1.4-0.8-2.4l1.4-0.4c0,0.7,0.2,1.3,0.4,1.8c0.2,0.4,0.6,0.7,1.2,0.7
		c0.4,0,0.7-0.1,0.9-0.3s0.3-0.6,0.3-1c0-0.5-0.1-0.9-0.3-1.2c-0.2-0.3-0.5-0.6-0.9-1l-1.9-1.7c-0.4-0.3-0.7-0.7-0.8-1.1
		c-0.2-0.4-0.3-0.9-0.3-1.4c0-0.8,0.2-1.5,0.7-1.9c0.5-0.5,1.1-0.7,1.9-0.7c0.9,0,1.6,0.2,2,0.7c0.5,0.5,0.7,1.2,0.8,2.2l-1.3,0.4
		c0-0.7-0.2-1.2-0.4-1.5c-0.2-0.4-0.6-0.5-1.1-0.5c-0.4,0-0.7,0.1-0.9,0.3c-0.2,0.2-0.3,0.5-0.3,0.9c0,0.3,0.1,0.6,0.2,0.8
		c0.1,0.2,0.3,0.5,0.6,0.7l1.9,1.7c0.5,0.4,0.9,0.9,1.2,1.4c0.3,0.5,0.4,1.1,0.4,1.8c0,0.8-0.3,1.5-0.8,2s-1.2,0.7-2,0.7
		C97.9,160.2,97.2,159.9,96.7,159.3z"/>
</g>
<g>
	<rect x="150.5" y="99.5" class="st0" width="119" height="77"/>
	<path class="st1" d="M269,100v76H151v-76H269 M270,99H150v78h120V99L270,99z"/>
</g>
<g>
	<path class="st2" d="M170.4,123.5h4.4v1.2H172v3.8h2.3v1.1H172v4.2h2.8v1.1h-4.4V123.5z"/>
	<path class="st2" d="M176.1,123.5h1.1l3.2,7.5v-7.5h1.3v11.3h-1l-3.3-7.7v7.7h-1.3V123.5z"/>
	<path class="st2" d="M184,134c-0.5-0.7-0.7-1.6-0.7-2.8v-4c0-1.2,0.2-2.2,0.7-2.8c0.4-0.6,1.2-1,2.4-1c1,0,1.7,0.3,2.2,0.8
		s0.7,1.4,0.7,2.4v0.9h-1.5v-0.8c0-0.5,0-0.9-0.1-1.2c0-0.3-0.2-0.5-0.4-0.7s-0.5-0.3-0.9-0.3c-0.4,0-0.7,0.1-1,0.3
		s-0.3,0.4-0.4,0.8c-0.1,0.3-0.1,0.8-0.1,1.3v4.5c0,0.6,0,1,0.1,1.4c0.1,0.3,0.2,0.6,0.5,0.7c0.2,0.1,0.5,0.2,0.9,0.2
		c0.4,0,0.7-0.1,0.9-0.3c0.2-0.2,0.3-0.4,0.4-0.7c0.1-0.3,0.1-0.7,0.1-1.3v-0.8h1.5v0.8c0,1.1-0.2,2-0.6,2.6s-1.2,0.9-2.2,0.9
		C185.2,135,184.4,134.7,184,134z"/>
	<path class="st2" d="M192.5,123.5h1.5l2.4,11.3H195l-0.5-2.9h-2.3l-0.5,2.9h-1.5L192.5,123.5z M194.2,130.9l-1-5.1l-0.9,5.1H194.2z
		"/>
	<path class="st2" d="M197.6,123.5h2.3c1.1,0,2,0.2,2.5,0.7s0.8,1.2,0.8,2.3c0,1.5-0.5,2.3-1.4,2.6l1.6,5.7h-1.5l-1.5-5.3h-1.2v5.3
		h-1.6V123.5z M199.8,128.4c0.7,0,1.2-0.1,1.5-0.4c0.3-0.3,0.4-0.8,0.4-1.5c0-0.5-0.1-0.8-0.2-1.1c-0.1-0.3-0.3-0.5-0.5-0.6
		s-0.6-0.2-1.1-0.2h-0.7v3.8H199.8z"/>
	<path class="st2" d="M205.4,134c-0.5-0.6-0.7-1.6-0.7-2.9v-3.8c0-0.9,0.1-1.6,0.3-2.2c0.2-0.6,0.5-1,0.9-1.3s1.1-0.5,1.8-0.5
		c1,0,1.8,0.3,2.3,0.8c0.5,0.5,0.7,1.4,0.7,2.5v0.4h-1.5v-0.4c0-0.5,0-1-0.1-1.3c-0.1-0.3-0.2-0.5-0.4-0.7s-0.5-0.2-0.9-0.2
		c-0.4,0-0.8,0.1-1,0.3s-0.4,0.5-0.4,0.8c-0.1,0.3-0.1,0.8-0.1,1.3v4.2c0,0.9,0.1,1.5,0.3,1.9s0.6,0.6,1.2,0.6c0.6,0,1-0.2,1.2-0.6
		c0.2-0.4,0.3-1.1,0.3-2v-0.8h-1.4v-1.1h2.9v5.6h-1l-0.2-1.3c-0.4,1-1,1.4-2,1.4C206.6,135,205.8,134.7,205.4,134z"/>
	<path class="st2" d="M214.2,123.5h1.5l2.4,11.3h-1.5l-0.5-2.9h-2.3l-0.5,2.9h-1.5L214.2,123.5z M215.9,130.9l-1-5.1l-0.9,5.1H215.9
		z"/>
	<path class="st2" d="M219.3,123.5h2.5c1.2,0,2.1,0.3,2.6,0.8s0.8,1.4,0.8,2.6v4.2c0,1.3-0.2,2.2-0.7,2.8c-0.5,0.6-1.3,0.9-2.5,0.9
		h-2.6V123.5z M221.7,133.7c0.6,0,0.9-0.1,1.2-0.3c0.2-0.2,0.4-0.5,0.5-0.9c0.1-0.4,0.1-0.9,0.1-1.7v-3.7c0-0.6,0-1.1-0.1-1.5
		c-0.1-0.3-0.2-0.6-0.5-0.8c-0.3-0.2-0.6-0.2-1.2-0.2h-0.9v9H221.7z"/>
	<path class="st2" d="M227.1,134.1c-0.5-0.6-0.7-1.5-0.7-2.7V127c0-1.2,0.2-2.1,0.7-2.7c0.5-0.6,1.3-0.9,2.4-0.9
		c1.1,0,1.9,0.3,2.4,0.9c0.5,0.6,0.7,1.5,0.7,2.7v4.3c0,1.2-0.2,2.1-0.7,2.7c-0.5,0.6-1.3,1-2.4,1
		C228.4,135,227.6,134.7,227.1,134.1z M230.7,133.2c0.2-0.3,0.3-0.9,0.3-1.6v-5c0-0.7-0.1-1.2-0.3-1.5c-0.2-0.3-0.6-0.5-1.2-0.5
		c-0.6,0-1,0.2-1.2,0.5c-0.2,0.3-0.3,0.8-0.3,1.5v5c0,0.7,0.1,1.2,0.3,1.6c0.2,0.3,0.6,0.5,1.2,0.5
		C230.1,133.8,230.5,133.6,230.7,133.2z"/>
	<path class="st2" d="M237.4,123.5h2.5c1.2,0,2.1,0.3,2.6,0.8s0.8,1.4,0.8,2.6v4.2c0,1.3-0.2,2.2-0.7,2.8c-0.5,0.6-1.3,0.9-2.5,0.9
		h-2.6V123.5z M239.9,133.7c0.6,0,0.9-0.1,1.2-0.3c0.2-0.2,0.4-0.5,0.5-0.9c0.1-0.4,0.1-0.9,0.1-1.7v-3.7c0-0.6,0-1.1-0.1-1.5
		c-0.1-0.3-0.2-0.6-0.5-0.8c-0.3-0.2-0.6-0.2-1.2-0.2H239v9H239.9z"/>
	<path class="st2" d="M244.8,123.5h4.4v1.2h-2.8v3.8h2.3v1.1h-2.3v4.2h2.8v1.1h-4.4V123.5z"/>
	<path class="st2" d="M179.7,140.3h2.8c1,0,1.7,0.3,2.1,0.8s0.7,1.3,0.7,2.3c0,0.9-0.2,1.6-0.7,2.2c-0.5,0.5-1.2,0.8-2.1,0.8h-1.2
		v5.3h-1.6V140.3z M182,145.3c0.5,0,0.8-0.1,1.1-0.2s0.4-0.3,0.6-0.5c0.1-0.3,0.2-0.6,0.2-1.1c0-0.6,0-1-0.1-1.3s-0.2-0.5-0.5-0.6
		c-0.2-0.1-0.6-0.2-1.2-0.2h-0.7v3.8H182z"/>
	<path class="st2" d="M186.4,140.3h2.3c1.1,0,2,0.2,2.5,0.7s0.8,1.2,0.8,2.3c0,1.5-0.5,2.3-1.4,2.6l1.6,5.7h-1.5l-1.5-5.3H188v5.3
		h-1.6V140.3z M188.6,145.2c0.7,0,1.2-0.1,1.5-0.4c0.3-0.3,0.4-0.8,0.4-1.5c0-0.5-0.1-0.8-0.2-1.1c-0.1-0.3-0.3-0.5-0.5-0.6
		s-0.6-0.2-1.1-0.2H188v3.8H188.6z"/>
	<path class="st2" d="M193.7,140.3h4.4v1.2h-2.8v3.8h2.3v1.1h-2.3v4.2h2.8v1.1h-4.4V140.3z"/>
	<path class="st2" d="M199.8,150.8c-0.5-0.7-0.7-1.6-0.7-2.8v-4c0-1.2,0.2-2.2,0.7-2.8c0.4-0.6,1.2-1,2.4-1c1,0,1.7,0.3,2.2,0.8
		s0.7,1.4,0.7,2.4v0.9h-1.5v-0.8c0-0.5,0-0.9-0.1-1.2c0-0.3-0.2-0.5-0.4-0.7s-0.5-0.3-0.9-0.3c-0.4,0-0.7,0.1-1,0.3
		s-0.3,0.4-0.4,0.8c-0.1,0.3-0.1,0.8-0.1,1.3v4.5c0,0.6,0,1,0.1,1.4c0.1,0.3,0.2,0.6,0.5,0.7c0.2,0.1,0.5,0.2,0.9,0.2
		c0.4,0,0.7-0.1,0.9-0.3c0.2-0.2,0.3-0.4,0.4-0.7c0.1-0.3,0.1-0.7,0.1-1.3v-0.8h1.5v0.8c0,1.1-0.2,2-0.6,2.6s-1.2,0.9-2.2,0.9
		C201.1,151.8,200.3,151.5,199.8,150.8z"/>
	<path class="st2" d="M206.6,140.3h1.6v10.2h2.9v1.1h-4.5V140.3z"/>
	<path class="st2" d="M212.2,140.3h1.6v11.3h-1.6V140.3z M213.4,136.9h1.5l-1.6,2.8h-0.8L213.4,136.9z"/>
	<path class="st2" d="M215.6,140.3h1.1l3.2,7.5v-7.5h1.3v11.3h-1l-3.3-7.7v7.7h-1.3V140.3z"/>
	<path class="st2" d="M223.1,140.3h1.6v11.3h-1.6V140.3z"/>
	<path class="st2" d="M226.9,150.8c-0.5-0.7-0.7-1.6-0.7-2.8v-4c0-1.2,0.2-2.2,0.7-2.8c0.4-0.6,1.2-1,2.4-1c1,0,1.7,0.3,2.2,0.8
		s0.7,1.4,0.7,2.4v0.9h-1.5v-0.8c0-0.5,0-0.9-0.1-1.2c0-0.3-0.2-0.5-0.4-0.7s-0.5-0.3-0.9-0.3c-0.4,0-0.7,0.1-1,0.3
		s-0.3,0.4-0.4,0.8c-0.1,0.3-0.1,0.8-0.1,1.3v4.5c0,0.6,0,1,0.1,1.4c0.1,0.3,0.2,0.6,0.5,0.7c0.2,0.1,0.5,0.2,0.9,0.2
		c0.4,0,0.7-0.1,0.9-0.3c0.2-0.2,0.3-0.4,0.4-0.7c0.1-0.3,0.1-0.7,0.1-1.3v-0.8h1.5v0.8c0,1.1-0.2,2-0.6,2.6s-1.2,0.9-2.2,0.9
		C228.2,151.8,227.4,151.5,226.9,150.8z"/>
	<path class="st2" d="M234.2,150.9c-0.5-0.6-0.7-1.5-0.7-2.7v-4.3c0-1.2,0.2-2.1,0.7-2.7c0.5-0.6,1.3-0.9,2.4-0.9
		c1.1,0,1.9,0.3,2.4,0.9c0.5,0.6,0.7,1.5,0.7,2.7v4.3c0,1.2-0.2,2.1-0.7,2.7c-0.5,0.6-1.3,1-2.4,1
		C235.5,151.8,234.7,151.5,234.2,150.9z M237.8,150c0.2-0.3,0.3-0.9,0.3-1.6v-5c0-0.7-0.1-1.2-0.3-1.5c-0.2-0.3-0.6-0.5-1.2-0.5
		c-0.6,0-1,0.2-1.2,0.5c-0.2,0.3-0.3,0.8-0.3,1.5v5c0,0.7,0.1,1.2,0.3,1.6c0.2,0.3,0.6,0.5,1.2,0.5
		C237.2,150.6,237.5,150.4,237.8,150z"/>
</g>
<g>
	<rect x="290.5" y="99.5" class="st0" width="119" height="77"/>
	<path class="st1" d="M409,100v76H291v-76H409 M410,99H290v78h120V99L410,99z"/>
</g>
<g>
	<path class="st2" d="M310.4,106.7h4.4v1.2H312v3.8h2.3v1.1H312v4.2h2.8v1.1h-4.4V106.7z"/>
	<path class="st2" d="M316.1,106.7h1.1l3.2,7.5v-7.5h1.3v11.3h-1l-3.3-7.7v7.7h-1.3V106.7z"/>
	<path class="st2" d="M324,117.2c-0.5-0.7-0.7-1.6-0.7-2.8v-4c0-1.2,0.2-2.2,0.7-2.8c0.4-0.6,1.2-1,2.4-1c1,0,1.7,0.3,2.2,0.8
		s0.7,1.4,0.7,2.4v0.9h-1.5V110c0-0.5,0-0.9-0.1-1.2c0-0.3-0.2-0.5-0.4-0.7s-0.5-0.3-0.9-0.3c-0.4,0-0.7,0.1-1,0.3s-0.3,0.4-0.4,0.8
		c-0.1,0.3-0.1,0.8-0.1,1.3v4.5c0,0.6,0,1,0.1,1.4c0.1,0.3,0.2,0.6,0.5,0.7c0.2,0.1,0.5,0.2,0.9,0.2c0.4,0,0.7-0.1,0.9-0.3
		c0.2-0.2,0.3-0.4,0.4-0.7c0.1-0.3,0.1-0.7,0.1-1.3v-0.8h1.5v0.8c0,1.1-0.2,2-0.6,2.6s-1.2,0.9-2.2,0.9
		C325.2,118.2,324.4,117.9,324,117.2z"/>
	<path class="st2" d="M332.5,106.7h1.5l2.4,11.3H335l-0.5-2.9h-2.3l-0.5,2.9h-1.5L332.5,106.7z M334.2,114.1l-1-5.1l-0.9,5.1H334.2z
		"/>
	<path class="st2" d="M337.6,106.7h2.3c1.1,0,2,0.2,2.5,0.7s0.8,1.2,0.8,2.3c0,1.5-0.5,2.3-1.4,2.6l1.6,5.7h-1.5l-1.5-5.3h-1.2v5.3
		h-1.6V106.7z M339.8,111.6c0.7,0,1.2-0.1,1.5-0.4c0.3-0.3,0.4-0.8,0.4-1.5c0-0.5-0.1-0.8-0.2-1.1c-0.1-0.3-0.3-0.5-0.5-0.6
		s-0.6-0.2-1.1-0.2h-0.7v3.8H339.8z"/>
	<path class="st2" d="M345.4,117.2c-0.5-0.6-0.7-1.6-0.7-2.9v-3.8c0-0.9,0.1-1.6,0.3-2.2c0.2-0.6,0.5-1,0.9-1.3s1.1-0.5,1.8-0.5
		c1,0,1.8,0.3,2.3,0.8c0.5,0.5,0.7,1.4,0.7,2.5v0.4h-1.5V110c0-0.5,0-1-0.1-1.3c-0.1-0.3-0.2-0.5-0.4-0.7s-0.5-0.2-0.9-0.2
		c-0.4,0-0.8,0.1-1,0.3s-0.4,0.5-0.4,0.8c-0.1,0.3-0.1,0.8-0.1,1.3v4.2c0,0.9,0.1,1.5,0.3,1.9s0.6,0.6,1.2,0.6c0.6,0,1-0.2,1.2-0.6
		c0.2-0.4,0.3-1.1,0.3-2v-0.8h-1.4v-1.1h2.9v5.6h-1l-0.2-1.3c-0.4,1-1,1.4-2,1.4C346.6,118.2,345.8,117.9,345.4,117.2z"/>
	<path class="st2" d="M354.2,106.7h1.5l2.4,11.3h-1.5l-0.5-2.9h-2.3l-0.5,2.9h-1.5L354.2,106.7z M355.9,114.1l-1-5.1l-0.9,5.1H355.9
		z"/>
	<path class="st2" d="M359.3,106.7h2.5c1.2,0,2.1,0.3,2.6,0.8s0.8,1.4,0.8,2.6v4.2c0,1.3-0.2,2.2-0.7,2.8c-0.5,0.6-1.3,0.9-2.5,0.9
		h-2.6V106.7z M361.7,116.9c0.6,0,0.9-0.1,1.2-0.3c0.2-0.2,0.4-0.5,0.5-0.9c0.1-0.4,0.1-0.9,0.1-1.7v-3.7c0-0.6,0-1.1-0.1-1.5
		c-0.1-0.3-0.2-0.6-0.5-0.8c-0.3-0.2-0.6-0.2-1.2-0.2h-0.9v9H361.7z"/>
	<path class="st2" d="M367.1,117.3c-0.5-0.6-0.7-1.5-0.7-2.7v-4.3c0-1.2,0.2-2.1,0.7-2.7c0.5-0.6,1.3-0.9,2.4-0.9
		c1.1,0,1.9,0.3,2.4,0.9c0.5,0.6,0.7,1.5,0.7,2.7v4.3c0,1.2-0.2,2.1-0.7,2.7c-0.5,0.6-1.3,1-2.4,1
		C368.4,118.2,367.6,117.9,367.1,117.3z M370.7,116.4c0.2-0.3,0.3-0.9,0.3-1.6v-5c0-0.7-0.1-1.2-0.3-1.5c-0.2-0.3-0.6-0.5-1.2-0.5
		c-0.6,0-1,0.2-1.2,0.5c-0.2,0.3-0.3,0.8-0.3,1.5v5c0,0.7,0.1,1.2,0.3,1.6c0.2,0.3,0.6,0.5,1.2,0.5
		C370.1,117,370.5,116.8,370.7,116.4z"/>
	<path class="st2" d="M377.4,106.7h2.5c1.2,0,2.1,0.3,2.6,0.8s0.8,1.4,0.8,2.6v4.2c0,1.3-0.2,2.2-0.7,2.8c-0.5,0.6-1.3,0.9-2.5,0.9
		h-2.6V106.7z M379.9,116.9c0.6,0,0.9-0.1,1.2-0.3c0.2-0.2,0.4-0.5,0.5-0.9c0.1-0.4,0.1-0.9,0.1-1.7v-3.7c0-0.6,0-1.1-0.1-1.5
		c-0.1-0.3-0.2-0.6-0.5-0.8c-0.3-0.2-0.6-0.2-1.2-0.2H379v9H379.9z"/>
	<path class="st2" d="M384.8,106.7h4.4v1.2h-2.8v3.8h2.3v1.1h-2.3v4.2h2.8v1.1h-4.4V106.7z"/>
	<path class="st2" d="M310.8,134c-0.5-0.7-0.7-1.6-0.7-2.8v-4c0-1.2,0.2-2.2,0.7-2.8c0.4-0.6,1.2-1,2.4-1c1,0,1.7,0.3,2.2,0.8
		s0.7,1.4,0.7,2.4v0.9h-1.5v-0.8c0-0.5,0-0.9-0.1-1.2c0-0.3-0.2-0.5-0.4-0.7s-0.5-0.3-0.9-0.3c-0.4,0-0.7,0.1-1,0.3
		s-0.3,0.4-0.4,0.8c-0.1,0.3-0.1,0.8-0.1,1.3v4.5c0,0.6,0,1,0.1,1.4c0.1,0.3,0.2,0.6,0.5,0.7c0.2,0.1,0.5,0.2,0.9,0.2
		c0.4,0,0.7-0.1,0.9-0.3c0.2-0.2,0.3-0.4,0.4-0.7c0.1-0.3,0.1-0.7,0.1-1.3v-0.8h1.5v0.8c0,1.1-0.2,2-0.6,2.6s-1.2,0.9-2.2,0.9
		C312,135,311.2,134.7,310.8,134z"/>
	<path class="st2" d="M318,134.1c-0.5-0.6-0.7-1.5-0.7-2.7V127c0-1.2,0.2-2.1,0.7-2.7c0.5-0.6,1.3-0.9,2.4-0.9
		c1.1,0,1.9,0.3,2.4,0.9c0.5,0.6,0.7,1.5,0.7,2.7v4.3c0,1.2-0.2,2.1-0.7,2.7c-0.5,0.6-1.3,1-2.4,1C319.3,135,318.5,134.7,318,134.1z
		 M321.6,133.2c0.2-0.3,0.3-0.9,0.3-1.6v-5c0-0.7-0.1-1.2-0.3-1.5c-0.2-0.3-0.6-0.5-1.2-0.5c-0.6,0-1,0.2-1.2,0.5
		c-0.2,0.3-0.3,0.8-0.3,1.5v5c0,0.7,0.1,1.2,0.3,1.6c0.2,0.3,0.6,0.5,1.2,0.5C321,133.8,321.4,133.6,321.6,133.2z"/>
	<path class="st2" d="M325.6,134.1c-0.5-0.6-0.7-1.5-0.7-2.7V127c0-1.2,0.2-2.1,0.7-2.7c0.5-0.6,1.3-0.9,2.4-0.9
		c1.1,0,1.9,0.3,2.4,0.9c0.5,0.6,0.7,1.5,0.7,2.7v4.3c0,1.2-0.2,2.1-0.7,2.7c-0.5,0.6-1.3,1-2.4,1
		C326.9,135,326.1,134.7,325.6,134.1z M329.2,133.2c0.2-0.3,0.3-0.9,0.3-1.6v-5c0-0.7-0.1-1.2-0.3-1.5c-0.2-0.3-0.6-0.5-1.2-0.5
		c-0.6,0-1,0.2-1.2,0.5c-0.2,0.3-0.3,0.8-0.3,1.5v5c0,0.7,0.1,1.2,0.3,1.6c0.2,0.3,0.6,0.5,1.2,0.5
		C328.6,133.8,328.9,133.6,329.2,133.2z"/>
	<path class="st2" d="M332.6,123.5h2.3c1.1,0,2,0.2,2.5,0.7s0.8,1.2,0.8,2.3c0,1.5-0.5,2.3-1.4,2.6l1.6,5.7h-1.5l-1.5-5.3h-1.2v5.3
		h-1.6V123.5z M334.8,128.4c0.7,0,1.2-0.1,1.5-0.4c0.3-0.3,0.4-0.8,0.4-1.5c0-0.5-0.1-0.8-0.2-1.1c-0.1-0.3-0.3-0.5-0.5-0.6
		s-0.6-0.2-1.1-0.2h-0.7v3.8H334.8z"/>
	<path class="st2" d="M339.9,123.5h2.5c1.2,0,2.1,0.3,2.6,0.8s0.8,1.4,0.8,2.6v4.2c0,1.3-0.2,2.2-0.7,2.8c-0.5,0.6-1.3,0.9-2.5,0.9
		h-2.6V123.5z M342.4,133.7c0.6,0,0.9-0.1,1.2-0.3c0.2-0.2,0.4-0.5,0.5-0.9c0.1-0.4,0.1-0.9,0.1-1.7v-3.7c0-0.6,0-1.1-0.1-1.5
		c-0.1-0.3-0.2-0.6-0.5-0.8c-0.3-0.2-0.6-0.2-1.2-0.2h-0.9v9H342.4z"/>
	<path class="st2" d="M347.3,123.5h1.6v11.3h-1.6V123.5z"/>
	<path class="st2" d="M350.7,123.5h1.1l3.2,7.5v-7.5h1.3v11.3h-1l-3.3-7.7v7.7h-1.3V123.5z"/>
	<path class="st2" d="M359.9,123.5h1.5l2.4,11.3h-1.5l-0.5-2.9h-2.3l-0.5,2.9h-1.5L359.9,123.5z M361.6,130.9l-1-5.1l-0.9,5.1H361.6
		z"/>
	<path class="st2" d="M365.4,134c-0.5-0.7-0.7-1.6-0.7-2.8v-4c0-1.2,0.2-2.2,0.7-2.8c0.4-0.6,1.2-1,2.4-1c1,0,1.7,0.3,2.2,0.8
		s0.7,1.4,0.7,2.4v0.9h-1.5v-0.8c0-0.5,0-0.9-0.1-1.2c0-0.3-0.2-0.5-0.4-0.7s-0.5-0.3-0.9-0.3c-0.4,0-0.7,0.1-1,0.3
		s-0.3,0.4-0.4,0.8c-0.1,0.3-0.1,0.8-0.1,1.3v4.5c0,0.6,0,1,0.1,1.4c0.1,0.3,0.2,0.6,0.5,0.7c0.2,0.1,0.5,0.2,0.9,0.2
		c0.4,0,0.7-0.1,0.9-0.3c0.2-0.2,0.3-0.4,0.4-0.7c0.1-0.3,0.1-0.7,0.1-1.3v-0.8h1.5v0.8c0,1.1-0.2,2-0.6,2.6s-1.2,0.9-2.2,0.9
		C366.7,135,365.9,134.7,365.4,134z"/>
	<path class="st2" d="M372.2,123.5h1.6v11.3h-1.6V123.5z"/>
	<path class="st2" d="M376.1,134.1c-0.5-0.6-0.7-1.5-0.7-2.7V127c0-1.2,0.2-2.1,0.7-2.7c0.5-0.6,1.3-0.9,2.4-0.9
		c1.1,0,1.9,0.3,2.4,0.9c0.5,0.6,0.7,1.5,0.7,2.7v4.3c0,1.2-0.2,2.1-0.7,2.7c-0.5,0.6-1.3,1-2.4,1
		C377.4,135,376.6,134.7,376.1,134.1z M379.7,133.2c0.2-0.3,0.3-0.9,0.3-1.6v-5c0-0.7-0.1-1.2-0.3-1.5c-0.2-0.3-0.6-0.5-1.2-0.5
		c-0.6,0-1,0.2-1.2,0.5c-0.2,0.3-0.3,0.8-0.3,1.5v5c0,0.7,0.1,1.2,0.3,1.6c0.2,0.3,0.6,0.5,1.2,0.5
		C379.1,133.8,379.5,133.6,379.7,133.2z M379,120.1h1.5l-1.6,2.8h-0.8L379,120.1z"/>
	<path class="st2" d="M383.2,123.5h1.1l3.2,7.5v-7.5h1.3v11.3h-1l-3.3-7.7v7.7h-1.3V123.5z"/>
	<path class="st2" d="M313.7,140.3h1.5l2.4,11.3h-1.5l-0.5-2.9h-2.3l-0.5,2.9h-1.5L313.7,140.3z M315.4,147.7l-1-5.1l-0.9,5.1H315.4
		z"/>
	<path class="st2" d="M319.2,150.8c-0.5-0.7-0.7-1.6-0.7-2.8v-4c0-1.2,0.2-2.2,0.7-2.8c0.4-0.6,1.2-1,2.4-1c1,0,1.7,0.3,2.2,0.8
		s0.7,1.4,0.7,2.4v0.9h-1.5v-0.8c0-0.5,0-0.9-0.1-1.2c0-0.3-0.2-0.5-0.4-0.7s-0.5-0.3-0.9-0.3c-0.4,0-0.7,0.1-1,0.3
		s-0.3,0.4-0.4,0.8c-0.1,0.3-0.1,0.8-0.1,1.3v4.5c0,0.6,0,1,0.1,1.4c0.1,0.3,0.2,0.6,0.5,0.7c0.2,0.1,0.5,0.2,0.9,0.2
		c0.4,0,0.7-0.1,0.9-0.3c0.2-0.2,0.3-0.4,0.4-0.7c0.1-0.3,0.1-0.7,0.1-1.3v-0.8h1.5v0.8c0,1.1-0.2,2-0.6,2.6s-1.2,0.9-2.2,0.9
		C320.4,151.8,319.7,151.5,319.2,150.8z"/>
	<path class="st2" d="M327.7,140.3h1.5l2.4,11.3h-1.5l-0.5-2.9h-2.3l-0.5,2.9h-1.5L327.7,140.3z M329.4,147.7l-1-5.1l-0.9,5.1H329.4
		z"/>
	<path class="st2" d="M332.8,140.3h2.5c1.2,0,2.1,0.3,2.6,0.8s0.8,1.4,0.8,2.6v4.2c0,1.3-0.2,2.2-0.7,2.8c-0.5,0.6-1.3,0.9-2.5,0.9
		h-2.6V140.3z M335.3,150.5c0.6,0,0.9-0.1,1.2-0.3c0.2-0.2,0.4-0.5,0.5-0.9c0.1-0.4,0.1-0.9,0.1-1.7V144c0-0.6,0-1.1-0.1-1.5
		c-0.1-0.3-0.2-0.6-0.5-0.8c-0.3-0.2-0.6-0.2-1.2-0.2h-0.9v9H335.3z"/>
	<path class="st2" d="M340.2,140.3h4.4v1.2h-2.8v3.8h2.3v1.1h-2.3v4.2h2.8v1.1h-4.4V140.3z"/>
	<path class="st2" d="M346.1,140.3h1.6l2,9.2l2-9.2h1.5l0.2,11.3h-1.3l-0.1-8.2l-1.9,8.2h-0.9l-1.9-8.2l-0.1,8.2h-1.3L346.1,140.3z"
		/>
	<path class="st2" d="M355.2,140.3h1.6v11.3h-1.6V140.3z"/>
	<path class="st2" d="M359.1,150.8c-0.5-0.7-0.7-1.6-0.7-2.8v-4c0-1.2,0.2-2.2,0.7-2.8c0.4-0.6,1.2-1,2.4-1c1,0,1.7,0.3,2.2,0.8
		s0.7,1.4,0.7,2.4v0.9h-1.5v-0.8c0-0.5,0-0.9-0.1-1.2c0-0.3-0.2-0.5-0.4-0.7s-0.5-0.3-0.9-0.3c-0.4,0-0.7,0.1-1,0.3
		s-0.3,0.4-0.4,0.8c-0.1,0.3-0.1,0.8-0.1,1.3v4.5c0,0.6,0,1,0.1,1.4c0.1,0.3,0.2,0.6,0.5,0.7c0.2,0.1,0.5,0.2,0.9,0.2
		c0.4,0,0.7-0.1,0.9-0.3c0.2-0.2,0.3-0.4,0.4-0.7c0.1-0.3,0.1-0.7,0.1-1.3v-0.8h1.5v0.8c0,1.1-0.2,2-0.6,2.6s-1.2,0.9-2.2,0.9
		C360.3,151.8,359.5,151.5,359.1,150.8z"/>
	<path class="st2" d="M367.6,140.3h1.5l2.4,11.3h-1.5l-0.5-2.9h-2.3l-0.5,2.9h-1.5L367.6,140.3z M369.3,147.7l-1-5.1l-0.9,5.1H369.3
		z"/>
	<path class="st2" d="M375.9,140.3h2.5c1.2,0,2.1,0.3,2.6,0.8s0.8,1.4,0.8,2.6v4.2c0,1.3-0.2,2.2-0.7,2.8c-0.5,0.6-1.3,0.9-2.5,0.9
		h-2.6V140.3z M378.4,150.5c0.6,0,0.9-0.1,1.2-0.3c0.2-0.2,0.4-0.5,0.5-0.9c0.1-0.4,0.1-0.9,0.1-1.7V144c0-0.6,0-1.1-0.1-1.5
		c-0.1-0.3-0.2-0.6-0.5-0.8c-0.3-0.2-0.6-0.2-1.2-0.2h-0.9v9H378.4z"/>
	<path class="st2" d="M383.3,140.3h4.4v1.2h-2.8v3.8h2.3v1.1h-2.3v4.2h2.8v1.1h-4.4V140.3z"/>
	<path class="st2" d="M330.3,167.6c-0.5-0.7-0.7-1.6-0.7-2.8v-4c0-1.2,0.2-2.2,0.7-2.8c0.4-0.6,1.2-1,2.4-1c1,0,1.7,0.3,2.2,0.8
		s0.7,1.4,0.7,2.4v0.9H334v-0.8c0-0.5,0-0.9-0.1-1.2c0-0.3-0.2-0.5-0.4-0.7s-0.5-0.3-0.9-0.3c-0.4,0-0.7,0.1-1,0.3s-0.3,0.4-0.4,0.8
		c-0.1,0.3-0.1,0.8-0.1,1.3v4.5c0,0.6,0,1,0.1,1.4c0.1,0.3,0.2,0.6,0.5,0.7c0.2,0.1,0.5,0.2,0.9,0.2c0.4,0,0.7-0.1,0.9-0.3
		c0.2-0.2,0.3-0.4,0.4-0.7c0.1-0.3,0.1-0.7,0.1-1.3v-0.8h1.5v0.8c0,1.1-0.2,2-0.6,2.6s-1.2,0.9-2.2,0.9
		C331.6,168.6,330.8,168.3,330.3,167.6z"/>
	<path class="st2" d="M337,157.1h1.6v10.2h2.9v1.1H337V157.1z"/>
	<path class="st2" d="M342.7,157.1h1.6v11.3h-1.6V157.1z M343.9,153.7h1.5l-1.6,2.8h-0.8L343.9,153.7z"/>
	<path class="st2" d="M346.1,157.1h1.1l3.2,7.5v-7.5h1.3v11.3h-1l-3.3-7.7v7.7h-1.3V157.1z"/>
	<path class="st2" d="M353.6,157.1h1.6v11.3h-1.6V157.1z"/>
	<path class="st2" d="M357.4,167.6c-0.5-0.7-0.7-1.6-0.7-2.8v-4c0-1.2,0.2-2.2,0.7-2.8c0.4-0.6,1.2-1,2.4-1c1,0,1.7,0.3,2.2,0.8
		s0.7,1.4,0.7,2.4v0.9h-1.5v-0.8c0-0.5,0-0.9-0.1-1.2c0-0.3-0.2-0.5-0.4-0.7s-0.5-0.3-0.9-0.3c-0.4,0-0.7,0.1-1,0.3
		s-0.3,0.4-0.4,0.8c-0.1,0.3-0.1,0.8-0.1,1.3v4.5c0,0.6,0,1,0.1,1.4c0.1,0.3,0.2,0.6,0.5,0.7c0.2,0.1,0.5,0.2,0.9,0.2
		c0.4,0,0.7-0.1,0.9-0.3c0.2-0.2,0.3-0.4,0.4-0.7c0.1-0.3,0.1-0.7,0.1-1.3v-0.8h1.5v0.8c0,1.1-0.2,2-0.6,2.6s-1.2,0.9-2.2,0.9
		C358.7,168.6,357.9,168.3,357.4,167.6z"/>
	<path class="st2" d="M365.9,157.1h1.5l2.4,11.3h-1.5l-0.5-2.9h-2.3l-0.5,2.9h-1.5L365.9,157.1z M367.7,164.5l-1-5.1l-0.9,5.1H367.7
		z"/>
</g>
<g>
	<rect x="430.5" y="99.5" class="st0" width="119" height="77"/>
	<path class="st1" d="M549,100v76H431v-76H549 M550,99H430v78h120V99L550,99z"/>
</g>
<g>
	<path class="st2" d="M464.6,115.1h2.5c1.2,0,2.1,0.3,2.6,0.8s0.8,1.4,0.8,2.6v4.2c0,1.3-0.2,2.2-0.7,2.8c-0.5,0.6-1.3,0.9-2.5,0.9
		h-2.6V115.1z M467.1,125.3c0.6,0,0.9-0.1,1.2-0.3c0.2-0.2,0.4-0.5,0.5-0.9c0.1-0.4,0.1-0.9,0.1-1.7v-3.7c0-0.6,0-1.1-0.1-1.5
		c-0.1-0.3-0.2-0.6-0.5-0.8c-0.3-0.2-0.6-0.2-1.2-0.2h-0.9v9H467.1z"/>
	<path class="st2" d="M472.1,115.1h1.6v11.3h-1.6V115.1z"/>
	<path class="st2" d="M475.5,115.1h2.3c1.1,0,2,0.2,2.5,0.7s0.8,1.2,0.8,2.3c0,1.5-0.5,2.3-1.4,2.6l1.6,5.7h-1.5l-1.5-5.3h-1.2v5.3
		h-1.6V115.1z M477.7,120c0.7,0,1.2-0.1,1.5-0.4c0.3-0.3,0.4-0.8,0.4-1.5c0-0.5-0.1-0.8-0.2-1.1c-0.1-0.3-0.3-0.5-0.5-0.6
		s-0.6-0.2-1.1-0.2h-0.7v3.8H477.7z"/>
	<path class="st2" d="M482.7,115.1h4.4v1.2h-2.8v3.8h2.3v1.1h-2.3v4.2h2.8v1.1h-4.4V115.1z"/>
	<path class="st2" d="M488.9,125.6c-0.5-0.7-0.7-1.6-0.7-2.8v-4c0-1.2,0.2-2.2,0.7-2.8c0.4-0.6,1.2-1,2.4-1c1,0,1.7,0.3,2.2,0.8
		s0.7,1.4,0.7,2.4v0.9h-1.5v-0.8c0-0.5,0-0.9-0.1-1.2c0-0.3-0.2-0.5-0.4-0.7s-0.5-0.3-0.9-0.3c-0.4,0-0.7,0.1-1,0.3
		s-0.3,0.4-0.4,0.8c-0.1,0.3-0.1,0.8-0.1,1.3v4.5c0,0.6,0,1,0.1,1.4c0.1,0.3,0.2,0.6,0.5,0.7c0.2,0.1,0.5,0.2,0.9,0.2
		c0.4,0,0.7-0.1,0.9-0.3c0.2-0.2,0.3-0.4,0.4-0.7c0.1-0.3,0.1-0.7,0.1-1.3v-0.8h1.5v0.8c0,1.1-0.2,2-0.6,2.6s-1.2,0.9-2.2,0.9
		C490.2,126.6,489.4,126.3,488.9,125.6z"/>
	<path class="st2" d="M496.9,116.3H495v-1.2h5.4v1.2h-1.9v10.2h-1.6V116.3z"/>
	<path class="st2" d="M501.9,125.7c-0.5-0.6-0.7-1.5-0.7-2.7v-4.3c0-1.2,0.2-2.1,0.7-2.7c0.5-0.6,1.3-0.9,2.4-0.9s1.9,0.3,2.4,0.9
		s0.7,1.5,0.7,2.7v4.3c0,1.2-0.2,2.1-0.7,2.7c-0.5,0.6-1.3,1-2.4,1C503.2,126.6,502.4,126.3,501.9,125.7z M505.5,124.8
		c0.2-0.3,0.3-0.9,0.3-1.6v-5c0-0.7-0.1-1.2-0.3-1.5c-0.2-0.3-0.6-0.5-1.2-0.5c-0.6,0-1,0.2-1.2,0.5c-0.2,0.3-0.3,0.8-0.3,1.5v5
		c0,0.7,0.1,1.2,0.3,1.6c0.2,0.3,0.6,0.5,1.2,0.5C504.9,125.4,505.3,125.2,505.5,124.8z"/>
	<path class="st2" d="M509,115.1h2.3c1.1,0,2,0.2,2.5,0.7c0.5,0.5,0.8,1.2,0.8,2.3c0,1.5-0.5,2.3-1.4,2.6l1.6,5.7h-1.5l-1.5-5.3
		h-1.2v5.3H509V115.1z M511.2,120c0.7,0,1.2-0.1,1.5-0.4c0.3-0.3,0.4-0.8,0.4-1.5c0-0.5-0.1-0.8-0.2-1.1c-0.1-0.3-0.3-0.5-0.5-0.6
		c-0.3-0.1-0.6-0.2-1.1-0.2h-0.7v3.8H511.2z"/>
	<path class="st2" d="M461.4,133.1h-1.9v-1.2h5.4v1.2H463v10.2h-1.6V133.1z"/>
	<path class="st2" d="M465.9,131.9h4.4v1.2h-2.8v3.8h2.3v1.1h-2.3v4.2h2.8v1.1h-4.4V131.9z M468.6,128.5h1.5l-1.6,2.8h-0.8
		L468.6,128.5z"/>
	<path class="st2" d="M472.1,142.4c-0.5-0.7-0.7-1.6-0.7-2.8v-4c0-1.2,0.2-2.2,0.7-2.8c0.4-0.6,1.2-1,2.4-1c1,0,1.7,0.3,2.2,0.8
		s0.7,1.4,0.7,2.4v0.9h-1.5v-0.8c0-0.5,0-0.9-0.1-1.2c0-0.3-0.2-0.5-0.4-0.7s-0.5-0.3-0.9-0.3c-0.4,0-0.7,0.1-1,0.3
		s-0.3,0.4-0.4,0.8c-0.1,0.3-0.1,0.8-0.1,1.3v4.5c0,0.6,0,1,0.1,1.4c0.1,0.3,0.2,0.6,0.5,0.7c0.2,0.1,0.5,0.2,0.9,0.2
		c0.4,0,0.7-0.1,0.9-0.3c0.2-0.2,0.3-0.4,0.4-0.7c0.1-0.3,0.1-0.7,0.1-1.3v-0.8h1.5v0.8c0,1.1-0.2,2-0.6,2.6s-1.2,0.9-2.2,0.9
		C473.3,143.4,472.6,143.1,472.1,142.4z"/>
	<path class="st2" d="M478.8,131.9h1.1l3.2,7.5v-7.5h1.3v11.3h-1l-3.3-7.7v7.7h-1.3V131.9z"/>
	<path class="st2" d="M486.3,131.9h1.6v11.3h-1.6V131.9z"/>
	<path class="st2" d="M490.2,142.4c-0.5-0.7-0.7-1.6-0.7-2.8v-4c0-1.2,0.2-2.2,0.7-2.8c0.4-0.6,1.2-1,2.4-1c1,0,1.7,0.3,2.2,0.8
		s0.7,1.4,0.7,2.4v0.9h-1.5v-0.8c0-0.5,0-0.9-0.1-1.2c0-0.3-0.2-0.5-0.4-0.7s-0.5-0.3-0.9-0.3c-0.4,0-0.7,0.1-1,0.3
		s-0.3,0.4-0.4,0.8c-0.1,0.3-0.1,0.8-0.1,1.3v4.5c0,0.6,0,1,0.1,1.4c0.1,0.3,0.2,0.6,0.5,0.7c0.2,0.1,0.5,0.2,0.9,0.2
		c0.4,0,0.7-0.1,0.9-0.3c0.2-0.2,0.3-0.4,0.4-0.7c0.1-0.3,0.1-0.7,0.1-1.3v-0.8h1.5v0.8c0,1.1-0.2,2-0.6,2.6s-1.2,0.9-2.2,0.9
		C491.4,143.4,490.6,143.1,490.2,142.4z"/>
	<path class="st2" d="M497.4,142.5c-0.5-0.6-0.7-1.5-0.7-2.7v-4.3c0-1.2,0.2-2.1,0.7-2.7c0.5-0.6,1.3-0.9,2.4-0.9
		c1.1,0,1.9,0.3,2.4,0.9s0.7,1.5,0.7,2.7v4.3c0,1.2-0.2,2.1-0.7,2.7c-0.5,0.6-1.3,1-2.4,1C498.7,143.4,497.9,143.1,497.4,142.5z
		 M501,141.6c0.2-0.3,0.3-0.9,0.3-1.6v-5c0-0.7-0.1-1.2-0.3-1.5c-0.2-0.3-0.6-0.5-1.2-0.5c-0.6,0-1,0.2-1.2,0.5
		c-0.2,0.3-0.3,0.8-0.3,1.5v5c0,0.7,0.1,1.2,0.3,1.6c0.2,0.3,0.6,0.5,1.2,0.5C500.4,142.2,500.8,142,501,141.6z"/>
	<path class="st2" d="M507.7,131.9h2.5c1.2,0,2.1,0.3,2.6,0.8c0.5,0.6,0.8,1.4,0.8,2.6v4.2c0,1.3-0.2,2.2-0.7,2.8s-1.3,0.9-2.5,0.9
		h-2.6V131.9z M510.1,142.1c0.6,0,0.9-0.1,1.2-0.3c0.2-0.2,0.4-0.5,0.5-0.9s0.1-0.9,0.1-1.7v-3.7c0-0.6,0-1.1-0.1-1.5
		c-0.1-0.3-0.2-0.6-0.5-0.8c-0.3-0.2-0.6-0.2-1.2-0.2h-0.9v9H510.1z"/>
	<path class="st2" d="M515,131.9h4.4v1.2h-2.8v3.8h2.3v1.1h-2.3v4.2h2.8v1.1H515V131.9z"/>
	<path class="st2" d="M470.3,159.2c-0.5-0.7-0.7-1.6-0.7-2.8v-4c0-1.2,0.2-2.2,0.7-2.8c0.4-0.6,1.2-1,2.4-1c1,0,1.7,0.3,2.2,0.8
		s0.7,1.4,0.7,2.4v0.9H474V152c0-0.5,0-0.9-0.1-1.2c0-0.3-0.2-0.5-0.4-0.7s-0.5-0.3-0.9-0.3c-0.4,0-0.7,0.1-1,0.3s-0.3,0.4-0.4,0.8
		c-0.1,0.3-0.1,0.8-0.1,1.3v4.5c0,0.6,0,1,0.1,1.4c0.1,0.3,0.2,0.6,0.5,0.7c0.2,0.1,0.5,0.2,0.9,0.2c0.4,0,0.7-0.1,0.9-0.3
		c0.2-0.2,0.3-0.4,0.4-0.7c0.1-0.3,0.1-0.7,0.1-1.3v-0.8h1.5v0.8c0,1.1-0.2,2-0.6,2.6s-1.2,0.9-2.2,0.9
		C471.6,160.2,470.8,159.9,470.3,159.2z"/>
	<path class="st2" d="M477,148.7h1.6v10.2h2.9v1.1H477V148.7z"/>
	<path class="st2" d="M482.7,148.7h1.6v11.3h-1.6V148.7z M483.9,145.3h1.5l-1.6,2.8h-0.8L483.9,145.3z"/>
	<path class="st2" d="M486.1,148.7h1.1l3.2,7.5v-7.5h1.3v11.3h-1l-3.3-7.7v7.7h-1.3V148.7z"/>
	<path class="st2" d="M493.6,148.7h1.6v11.3h-1.6V148.7z"/>
	<path class="st2" d="M497.4,159.2c-0.5-0.7-0.7-1.6-0.7-2.8v-4c0-1.2,0.2-2.2,0.7-2.8c0.4-0.6,1.2-1,2.4-1c1,0,1.7,0.3,2.2,0.8
		s0.7,1.4,0.7,2.4v0.9h-1.5V152c0-0.5,0-0.9-0.1-1.2c0-0.3-0.2-0.5-0.4-0.7s-0.5-0.3-0.9-0.3c-0.4,0-0.7,0.1-1,0.3s-0.3,0.4-0.4,0.8
		c-0.1,0.3-0.1,0.8-0.1,1.3v4.5c0,0.6,0,1,0.1,1.4c0.1,0.3,0.2,0.6,0.5,0.7c0.2,0.1,0.5,0.2,0.9,0.2c0.4,0,0.7-0.1,0.9-0.3
		c0.2-0.2,0.3-0.4,0.4-0.7c0.1-0.3,0.1-0.7,0.1-1.3v-0.8h1.5v0.8c0,1.1-0.2,2-0.6,2.6c-0.4,0.6-1.2,0.9-2.2,0.9
		C498.7,160.2,497.9,159.9,497.4,159.2z"/>
	<path class="st2" d="M505.9,148.7h1.5l2.4,11.3h-1.5l-0.5-2.9h-2.3l-0.5,2.9h-1.5L505.9,148.7z M507.7,156.1l-1-5.1l-0.9,5.1H507.7
		z"/>
</g>
<g>
	<rect x="570.5" y="99.5" class="st0" width="119" height="77"/>
	<path class="st1" d="M689,100v76H571v-76H689 M690,99H570v78h120V99L690,99z"/>
</g>
<g>
	<path class="st2" d="M588.9,123.5h1.5l2.4,11.3h-1.5l-0.5-2.9h-2.3l-0.5,2.9h-1.5L588.9,123.5z M590.7,130.9l-1-5.1l-0.9,5.1H590.7
		z"/>
	<path class="st2" d="M594,123.5h2.5c1.2,0,2.1,0.3,2.6,0.8s0.8,1.4,0.8,2.6v4.2c0,1.3-0.2,2.2-0.7,2.8c-0.5,0.6-1.3,0.9-2.5,0.9
		H594V123.5z M596.5,133.7c0.6,0,0.9-0.1,1.2-0.3c0.2-0.2,0.4-0.5,0.5-0.9c0.1-0.4,0.1-0.9,0.1-1.7v-3.7c0-0.6,0-1.1-0.1-1.5
		c-0.1-0.3-0.2-0.6-0.5-0.8c-0.3-0.2-0.6-0.2-1.2-0.2h-0.9v9H596.5z"/>
	<path class="st2" d="M601.6,123.5h1.6l2,9.2l2-9.2h1.5l0.2,11.3h-1.3l-0.1-8.2l-1.9,8.2h-0.9l-1.9-8.2l-0.1,8.2h-1.3L601.6,123.5z"
		/>
	<path class="st2" d="M610.7,123.5h1.6v11.3h-1.6V123.5z"/>
	<path class="st2" d="M614.1,123.5h1.1l3.2,7.5v-7.5h1.3v11.3h-1l-3.3-7.7v7.7h-1.3V123.5z"/>
	<path class="st2" d="M621.6,123.5h1.6v11.3h-1.6V123.5z"/>
	<path class="st2" d="M625.5,134.1c-0.5-0.6-0.8-1.4-0.8-2.4l1.4-0.4c0,0.7,0.2,1.3,0.4,1.8c0.2,0.4,0.6,0.7,1.2,0.7
		c0.4,0,0.7-0.1,0.9-0.3c0.2-0.2,0.3-0.6,0.3-1c0-0.5-0.1-0.9-0.3-1.2c-0.2-0.3-0.5-0.6-0.9-1l-1.9-1.7c-0.4-0.3-0.7-0.7-0.8-1.1
		s-0.3-0.9-0.3-1.4c0-0.8,0.2-1.5,0.7-1.9c0.5-0.5,1.1-0.7,1.9-0.7c0.9,0,1.6,0.2,2,0.7s0.7,1.2,0.8,2.2l-1.3,0.4
		c0-0.7-0.2-1.2-0.4-1.5c-0.2-0.4-0.6-0.5-1.1-0.5c-0.4,0-0.7,0.1-0.9,0.3c-0.2,0.2-0.3,0.5-0.3,0.9c0,0.3,0.1,0.6,0.2,0.8
		c0.1,0.2,0.3,0.5,0.6,0.7l1.9,1.7c0.5,0.4,0.9,0.9,1.2,1.4c0.3,0.5,0.4,1.1,0.4,1.8c0,0.8-0.3,1.5-0.8,2s-1.2,0.7-2,0.7
		C626.7,135,626,134.7,625.5,134.1z"/>
	<path class="st2" d="M632.9,124.7h-1.9v-1.2h5.4v1.2h-1.9v10.2h-1.6V124.7z"/>
	<path class="st2" d="M637.4,123.5h2.3c1.1,0,2,0.2,2.5,0.7s0.8,1.2,0.8,2.3c0,1.5-0.5,2.3-1.4,2.6l1.6,5.7h-1.5l-1.5-5.3H639v5.3
		h-1.6V123.5z M639.6,128.4c0.7,0,1.2-0.1,1.5-0.4s0.4-0.8,0.4-1.5c0-0.5-0.1-0.8-0.2-1.1c-0.1-0.3-0.3-0.5-0.5-0.6
		s-0.6-0.2-1.1-0.2H639v3.8H639.6z"/>
	<path class="st2" d="M646.4,123.5h1.5l2.4,11.3h-1.5l-0.5-2.9h-2.3l-0.5,2.9H644L646.4,123.5z M648.2,130.9l-1-5.1l-0.9,5.1H648.2z
		"/>
	<path class="st2" d="M651.5,123.5h2.5c1.2,0,2.1,0.3,2.6,0.8c0.5,0.6,0.8,1.4,0.8,2.6v4.2c0,1.3-0.2,2.2-0.7,2.8s-1.3,0.9-2.5,0.9
		h-2.6V123.5z M654,133.7c0.6,0,0.9-0.1,1.2-0.3c0.2-0.2,0.4-0.5,0.5-0.9s0.1-0.9,0.1-1.7v-3.7c0-0.6,0-1.1-0.1-1.5
		c-0.1-0.3-0.2-0.6-0.5-0.8c-0.3-0.2-0.6-0.2-1.2-0.2h-0.9v9H654z"/>
	<path class="st2" d="M659.4,134.1c-0.5-0.6-0.7-1.5-0.7-2.7V127c0-1.2,0.2-2.1,0.7-2.7c0.5-0.6,1.3-0.9,2.4-0.9
		c1.1,0,1.9,0.3,2.4,0.9c0.5,0.6,0.7,1.5,0.7,2.7v4.3c0,1.2-0.2,2.1-0.7,2.7c-0.5,0.6-1.3,1-2.4,1
		C660.7,135,659.9,134.7,659.4,134.1z M663,133.2c0.2-0.3,0.3-0.9,0.3-1.6v-5c0-0.7-0.1-1.2-0.3-1.5c-0.2-0.3-0.6-0.5-1.2-0.5
		c-0.6,0-1,0.2-1.2,0.5c-0.2,0.3-0.3,0.8-0.3,1.5v5c0,0.7,0.1,1.2,0.3,1.6c0.2,0.3,0.6,0.5,1.2,0.5
		C662.4,133.8,662.8,133.6,663,133.2z"/>
	<path class="st2" d="M666.5,123.5h2.3c1.1,0,2,0.2,2.5,0.7c0.5,0.5,0.8,1.2,0.8,2.3c0,1.5-0.5,2.3-1.4,2.6l1.6,5.7h-1.5l-1.5-5.3
		h-1.2v5.3h-1.6V123.5z M668.7,128.4c0.7,0,1.2-0.1,1.5-0.4c0.3-0.3,0.4-0.8,0.4-1.5c0-0.5-0.1-0.8-0.2-1.1
		c-0.1-0.3-0.3-0.5-0.5-0.6c-0.3-0.1-0.6-0.2-1.1-0.2h-0.7v3.8H668.7z"/>
	<path class="st2" d="M590.2,140.3h2.5c1.2,0,2.1,0.3,2.6,0.8s0.8,1.4,0.8,2.6v4.2c0,1.3-0.2,2.2-0.7,2.8c-0.5,0.6-1.3,0.9-2.5,0.9
		h-2.6V140.3z M592.7,150.5c0.6,0,0.9-0.1,1.2-0.3c0.2-0.2,0.4-0.5,0.5-0.9c0.1-0.4,0.1-0.9,0.1-1.7V144c0-0.6,0-1.1-0.1-1.5
		c-0.1-0.3-0.2-0.6-0.5-0.8c-0.3-0.2-0.6-0.2-1.2-0.2h-0.9v9H592.7z"/>
	<path class="st2" d="M597.6,140.3h4.4v1.2h-2.8v3.8h2.3v1.1h-2.3v4.2h2.8v1.1h-4.4V140.3z"/>
	<path class="st2" d="M606.5,140.3h1.6v10.2h2.9v1.1h-4.5V140.3z"/>
	<path class="st2" d="M613.9,140.3h1.5l2.4,11.3h-1.5l-0.5-2.9h-2.3l-0.5,2.9h-1.5L613.9,140.3z M615.6,147.7l-1-5.1l-0.9,5.1H615.6
		z"/>
	<path class="st2" d="M622.6,150.8c-0.5-0.7-0.7-1.6-0.7-2.8v-4c0-1.2,0.2-2.2,0.7-2.8c0.4-0.6,1.2-1,2.4-1c1,0,1.7,0.3,2.2,0.8
		s0.7,1.4,0.7,2.4v0.9h-1.5v-0.8c0-0.5,0-0.9-0.1-1.2c0-0.3-0.2-0.5-0.4-0.7s-0.5-0.3-0.9-0.3c-0.4,0-0.7,0.1-1,0.3
		c-0.2,0.2-0.3,0.4-0.4,0.8c-0.1,0.3-0.1,0.8-0.1,1.3v4.5c0,0.6,0,1,0.1,1.4c0.1,0.3,0.2,0.6,0.5,0.7c0.2,0.1,0.5,0.2,0.9,0.2
		c0.4,0,0.7-0.1,0.9-0.3c0.2-0.2,0.3-0.4,0.4-0.7c0.1-0.3,0.1-0.7,0.1-1.3v-0.8h1.5v0.8c0,1.1-0.2,2-0.6,2.6
		c-0.4,0.6-1.2,0.9-2.2,0.9C623.9,151.8,623.1,151.5,622.6,150.8z"/>
	<path class="st2" d="M631.2,140.3h1.5l2.4,11.3h-1.5l-0.5-2.9h-2.3l-0.5,2.9h-1.5L631.2,140.3z M632.9,147.7l-1-5.1l-0.9,5.1H632.9
		z"/>
	<path class="st2" d="M636.3,140.3h2.3c1.1,0,2,0.2,2.5,0.7s0.8,1.2,0.8,2.3c0,1.5-0.5,2.3-1.4,2.6l1.6,5.7h-1.5l-1.5-5.3h-1.2v5.3
		h-1.6V140.3z M638.4,145.2c0.7,0,1.2-0.1,1.5-0.4s0.4-0.8,0.4-1.5c0-0.5-0.1-0.8-0.2-1.1c-0.1-0.3-0.3-0.5-0.5-0.6
		s-0.6-0.2-1.1-0.2h-0.7v3.8H638.4z"/>
	<path class="st2" d="M643.5,140.3h2.3c1.1,0,2,0.2,2.5,0.7s0.8,1.2,0.8,2.3c0,1.5-0.5,2.3-1.4,2.6l1.6,5.7h-1.5l-1.5-5.3h-1.2v5.3
		h-1.6V140.3z M645.7,145.2c0.7,0,1.2-0.1,1.5-0.4s0.4-0.8,0.4-1.5c0-0.5-0.1-0.8-0.2-1.1c-0.1-0.3-0.3-0.5-0.5-0.6
		s-0.6-0.2-1.1-0.2h-0.7v3.8H645.7z"/>
	<path class="st2" d="M650.8,140.3h4.4v1.2h-2.8v3.8h2.3v1.1h-2.3v4.2h2.8v1.1h-4.4V140.3z"/>
	<path class="st2" d="M656.5,140.3h2.3c1.1,0,2,0.2,2.5,0.7s0.8,1.2,0.8,2.3c0,1.5-0.5,2.3-1.4,2.6l1.6,5.7h-1.5l-1.5-5.3h-1.2v5.3
		h-1.6V140.3z M658.7,145.2c0.7,0,1.2-0.1,1.5-0.4c0.3-0.3,0.4-0.8,0.4-1.5c0-0.5-0.1-0.8-0.2-1.1c-0.1-0.3-0.3-0.5-0.5-0.6
		s-0.6-0.2-1.1-0.2h-0.7v3.8H658.7z"/>
	<path class="st2" d="M665.6,140.3h1.5l2.4,11.3H668l-0.5-2.9h-2.3l-0.5,2.9h-1.5L665.6,140.3z M667.3,147.7l-1-5.1l-0.9,5.1H667.3z
		"/>
</g>
<g>
	<rect x="710.5" y="99.5" class="st0" width="119" height="77"/>
	<path class="st1" d="M829,100v76H711v-76H829 M830,99H710v78h120V99L830,99z"/>
</g>
<g>
	<path class="st2" d="M739.6,134.1c-0.5-0.6-0.8-1.4-0.8-2.4l1.4-0.4c0,0.7,0.2,1.3,0.4,1.8c0.2,0.4,0.6,0.7,1.2,0.7
		c0.4,0,0.7-0.1,0.9-0.3s0.3-0.6,0.3-1c0-0.5-0.1-0.9-0.3-1.2c-0.2-0.3-0.5-0.6-0.9-1l-1.9-1.7c-0.4-0.3-0.7-0.7-0.8-1.1
		c-0.2-0.4-0.3-0.9-0.3-1.4c0-0.8,0.2-1.5,0.7-1.9c0.5-0.5,1.1-0.7,1.9-0.7c0.9,0,1.6,0.2,2,0.7c0.5,0.5,0.7,1.2,0.8,2.2l-1.3,0.4
		c0-0.7-0.2-1.2-0.4-1.5c-0.2-0.4-0.6-0.5-1.1-0.5c-0.4,0-0.7,0.1-0.9,0.3c-0.2,0.2-0.3,0.5-0.3,0.9c0,0.3,0.1,0.6,0.2,0.8
		c0.1,0.2,0.3,0.5,0.6,0.7l1.9,1.7c0.5,0.4,0.9,0.9,1.2,1.4c0.3,0.5,0.4,1.1,0.4,1.8c0,0.8-0.3,1.5-0.8,2s-1.2,0.7-2,0.7
		C740.8,135,740.1,134.7,739.6,134.1z"/>
	<path class="st2" d="M745.7,123.5h4.4v1.2h-2.8v3.8h2.3v1.1h-2.3v4.2h2.8v1.1h-4.4V123.5z"/>
	<path class="st2" d="M751.9,134c-0.5-0.7-0.7-1.6-0.7-2.8v-4c0-1.2,0.2-2.2,0.7-2.8c0.4-0.6,1.2-1,2.4-1c1,0,1.7,0.3,2.2,0.8
		s0.7,1.4,0.7,2.4v0.9h-1.5v-0.8c0-0.5,0-0.9-0.1-1.2c0-0.3-0.2-0.5-0.4-0.7s-0.5-0.3-0.9-0.3c-0.4,0-0.8,0.1-1,0.3
		c-0.2,0.2-0.3,0.4-0.4,0.8c-0.1,0.3-0.1,0.8-0.1,1.3v4.5c0,0.6,0,1,0.1,1.4c0.1,0.3,0.2,0.6,0.5,0.7c0.2,0.1,0.5,0.2,0.9,0.2
		c0.4,0,0.7-0.1,0.9-0.3c0.2-0.2,0.3-0.4,0.4-0.7c0.1-0.3,0.1-0.7,0.1-1.3v-0.8h1.5v0.8c0,1.1-0.2,2-0.6,2.6
		c-0.4,0.6-1.2,0.9-2.2,0.9C753.1,135,752.3,134.7,751.9,134z"/>
	<path class="st2" d="M758.6,123.5h2.3c1.1,0,2,0.2,2.5,0.7c0.5,0.5,0.8,1.2,0.8,2.3c0,1.5-0.5,2.3-1.4,2.6l1.6,5.7h-1.5l-1.5-5.3
		h-1.2v5.3h-1.6V123.5z M760.8,128.4c0.7,0,1.2-0.1,1.5-0.4c0.3-0.3,0.4-0.8,0.4-1.5c0-0.5-0.1-0.8-0.2-1.1
		c-0.1-0.3-0.3-0.5-0.5-0.6c-0.3-0.1-0.6-0.2-1.1-0.2h-0.7v3.8H760.8z"/>
	<path class="st2" d="M765.9,123.5h4.4v1.2h-2.8v3.8h2.3v1.1h-2.3v4.2h2.8v1.1h-4.4V123.5z"/>
	<path class="st2" d="M772.8,124.7h-1.9v-1.2h5.4v1.2h-1.9v10.2h-1.6V124.7z"/>
	<path class="st2" d="M779.1,123.5h1.5l2.4,11.3h-1.5L781,132h-2.3l-0.5,2.9h-1.5L779.1,123.5z M780.8,130.9l-1-5.1l-0.9,5.1H780.8z
		"/>
	<path class="st2" d="M784.2,123.5h2.3c1.1,0,2,0.2,2.5,0.7s0.8,1.2,0.8,2.3c0,1.5-0.5,2.3-1.4,2.6l1.6,5.7h-1.5l-1.5-5.3h-1.2v5.3
		h-1.6V123.5z M786.4,128.4c0.7,0,1.2-0.1,1.5-0.4s0.4-0.8,0.4-1.5c0-0.5-0.1-0.8-0.2-1.1c-0.1-0.3-0.3-0.5-0.5-0.6
		s-0.6-0.2-1.1-0.2h-0.7v3.8H786.4z"/>
	<path class="st2" d="M791.5,123.5h1.6v11.3h-1.6V123.5z"/>
	<path class="st2" d="M796.7,123.5h1.5l2.4,11.3h-1.5l-0.5-2.9h-2.3l-0.5,2.9h-1.5L796.7,123.5z M798.4,130.9l-1-5.1l-0.9,5.1H798.4
		z"/>
	<path class="st2" d="M735.9,140.3h2.5c1.2,0,2.1,0.3,2.6,0.8s0.8,1.4,0.8,2.6v4.2c0,1.3-0.2,2.2-0.7,2.8c-0.5,0.6-1.3,0.9-2.5,0.9
		h-2.6V140.3z M738.4,150.5c0.6,0,0.9-0.1,1.2-0.3c0.2-0.2,0.4-0.5,0.5-0.9c0.1-0.4,0.1-0.9,0.1-1.7V144c0-0.6,0-1.1-0.1-1.5
		c-0.1-0.3-0.2-0.6-0.5-0.8c-0.3-0.2-0.6-0.2-1.2-0.2h-0.9v9H738.4z"/>
	<path class="st2" d="M743.3,140.3h4.4v1.2h-2.8v3.8h2.3v1.1h-2.3v4.2h2.8v1.1h-4.4V140.3z"/>
	<path class="st2" d="M752.2,140.3h2.5c1.2,0,2.1,0.3,2.6,0.8c0.5,0.6,0.8,1.4,0.8,2.6v4.2c0,1.3-0.2,2.2-0.7,2.8
		c-0.5,0.6-1.3,0.9-2.5,0.9h-2.6V140.3z M754.7,150.5c0.6,0,1-0.1,1.2-0.3c0.2-0.2,0.4-0.5,0.5-0.9c0.1-0.4,0.1-0.9,0.1-1.7V144
		c0-0.6,0-1.1-0.1-1.5c-0.1-0.3-0.2-0.6-0.5-0.8c-0.3-0.2-0.6-0.2-1.2-0.2h-0.9v9H754.7z"/>
	<path class="st2" d="M760.1,150.9c-0.5-0.6-0.7-1.5-0.7-2.7v-4.3c0-1.2,0.2-2.1,0.7-2.7c0.5-0.6,1.3-0.9,2.4-0.9s1.9,0.3,2.4,0.9
		s0.7,1.5,0.7,2.7v4.3c0,1.2-0.2,2.1-0.7,2.7c-0.5,0.6-1.3,1-2.4,1C761.3,151.8,760.6,151.5,760.1,150.9z M763.7,150
		c0.2-0.3,0.3-0.9,0.3-1.6v-5c0-0.7-0.1-1.2-0.3-1.5c-0.2-0.3-0.6-0.5-1.2-0.5c-0.6,0-1,0.2-1.2,0.5c-0.2,0.3-0.3,0.8-0.3,1.5v5
		c0,0.7,0.1,1.2,0.3,1.6c0.2,0.3,0.6,0.5,1.2,0.5C763,150.6,763.4,150.4,763.7,150z"/>
	<path class="st2" d="M767.6,150.8c-0.5-0.7-0.7-1.6-0.7-2.8v-4c0-1.2,0.2-2.2,0.7-2.8c0.4-0.6,1.2-1,2.4-1c1,0,1.7,0.3,2.2,0.8
		s0.7,1.4,0.7,2.4v0.9h-1.5v-0.8c0-0.5,0-0.9-0.1-1.2c0-0.3-0.2-0.5-0.4-0.7s-0.5-0.3-0.9-0.3c-0.4,0-0.8,0.1-1,0.3
		c-0.2,0.2-0.3,0.4-0.4,0.8c-0.1,0.3-0.1,0.8-0.1,1.3v4.5c0,0.6,0,1,0.1,1.4c0.1,0.3,0.2,0.6,0.5,0.7c0.2,0.1,0.5,0.2,0.9,0.2
		c0.4,0,0.7-0.1,0.9-0.3c0.2-0.2,0.3-0.4,0.4-0.7c0.1-0.3,0.1-0.7,0.1-1.3v-0.8h1.5v0.8c0,1.1-0.2,2-0.6,2.6
		c-0.4,0.6-1.2,0.9-2.2,0.9C768.8,151.8,768,151.5,767.6,150.8z"/>
	<path class="st2" d="M774.3,140.3h4.4v1.2h-2.8v3.8h2.3v1.1h-2.3v4.2h2.8v1.1h-4.4V140.3z"/>
	<path class="st2" d="M780,140.3h1.1l3.2,7.5v-7.5h1.3v11.3h-1l-3.3-7.7v7.7H780V140.3z"/>
	<path class="st2" d="M787.9,150.8c-0.5-0.7-0.7-1.6-0.7-2.8v-4c0-1.2,0.2-2.2,0.7-2.8c0.4-0.6,1.2-1,2.4-1c1,0,1.7,0.3,2.2,0.8
		s0.7,1.4,0.7,2.4v0.9h-1.5v-0.8c0-0.5,0-0.9-0.1-1.2c0-0.3-0.2-0.5-0.4-0.7s-0.5-0.3-0.9-0.3c-0.4,0-0.7,0.1-1,0.3
		c-0.2,0.2-0.3,0.4-0.4,0.8c-0.1,0.3-0.1,0.8-0.1,1.3v4.5c0,0.6,0,1,0.1,1.4c0.1,0.3,0.2,0.6,0.5,0.7c0.2,0.1,0.5,0.2,0.9,0.2
		c0.4,0,0.7-0.1,0.9-0.3c0.2-0.2,0.3-0.4,0.4-0.7c0.1-0.3,0.1-0.7,0.1-1.3v-0.8h1.5v0.8c0,1.1-0.2,2-0.6,2.6
		c-0.4,0.6-1.2,0.9-2.2,0.9C789.1,151.8,788.3,151.5,787.9,150.8z"/>
	<path class="st2" d="M794.7,140.3h1.6v11.3h-1.6V140.3z"/>
	<path class="st2" d="M799.9,140.3h1.5l2.4,11.3h-1.5l-0.5-2.9h-2.3l-0.5,2.9h-1.5L799.9,140.3z M801.6,147.7l-1-5.1l-0.9,5.1H801.6
		z"/>
</g>
<g>
	<rect x="10.5" y="217.5" class="st0" width="119" height="77"/>
	<path class="st1" d="M129,218v76H11v-76H129 M130,217H10v78h120V217L130,217z"/>
</g>
<g>
	<path class="st2" d="M36,241h1.5l2.4,11.3h-1.5l-0.5-2.9h-2.3l-0.5,2.9h-1.5L36,241z M37.7,248.3l-1-5.1l-0.9,5.1H37.7z"/>
	<path class="st2" d="M41.6,251.6c-0.5-0.6-0.8-1.4-0.8-2.4l1.4-0.4c0,0.7,0.2,1.3,0.4,1.8c0.2,0.4,0.6,0.7,1.2,0.7
		c0.4,0,0.7-0.1,0.9-0.3s0.3-0.6,0.3-1c0-0.5-0.1-0.9-0.3-1.2c-0.2-0.3-0.5-0.6-0.9-1l-1.9-1.7c-0.4-0.3-0.7-0.7-0.8-1.1
		c-0.2-0.4-0.3-0.9-0.3-1.4c0-0.8,0.2-1.5,0.7-1.9c0.5-0.5,1.1-0.7,1.9-0.7c0.9,0,1.6,0.2,2,0.7c0.5,0.5,0.7,1.2,0.8,2.2l-1.3,0.4
		c0-0.7-0.2-1.2-0.4-1.5c-0.2-0.4-0.6-0.5-1.1-0.5c-0.4,0-0.7,0.1-0.9,0.3c-0.2,0.2-0.3,0.5-0.3,0.9c0,0.3,0.1,0.6,0.2,0.8
		c0.1,0.2,0.3,0.5,0.6,0.7l1.9,1.7c0.5,0.4,0.9,0.9,1.2,1.4c0.3,0.5,0.4,1.1,0.4,1.8c0,0.8-0.3,1.5-0.8,2s-1.2,0.7-2,0.7
		C42.8,252.4,42.1,252.1,41.6,251.6z"/>
	<path class="st2" d="M47.8,241h1.6v11.3h-1.6V241z"/>
	<path class="st2" d="M51.7,251.5c-0.5-0.6-0.7-1.6-0.7-2.9v-3.8c0-0.9,0.1-1.6,0.3-2.2c0.2-0.6,0.5-1,0.9-1.3s1.1-0.5,1.8-0.5
		c1,0,1.8,0.3,2.3,0.8c0.5,0.5,0.7,1.4,0.7,2.5v0.4h-1.5v-0.4c0-0.5,0-1-0.1-1.3c-0.1-0.3-0.2-0.5-0.4-0.7s-0.5-0.2-0.9-0.2
		c-0.4,0-0.8,0.1-1,0.3s-0.4,0.5-0.4,0.8c-0.1,0.3-0.1,0.8-0.1,1.3v4.2c0,0.9,0.1,1.5,0.3,1.9s0.6,0.6,1.2,0.6c0.6,0,1-0.2,1.2-0.6
		c0.2-0.4,0.3-1.1,0.3-2v-0.8h-1.4v-1.1h2.9v5.6h-1l-0.2-1.3c-0.4,1-1,1.4-2,1.4C52.9,252.5,52.1,252.1,51.7,251.5z"/>
	<path class="st2" d="M58.7,241h1.1l3.2,7.5V241h1.3v11.3h-1l-3.3-7.7v7.7h-1.3V241z"/>
	<path class="st2" d="M67.9,241h1.5l2.4,11.3h-1.5l-0.5-2.9h-2.3l-0.5,2.9h-1.5L67.9,241z M69.6,248.3l-1-5.1l-0.9,5.1H69.6z"/>
	<path class="st2" d="M73.8,242.1h-1.9V241h5.4v1.2h-1.9v10.2h-1.6V242.1z"/>
	<path class="st2" d="M79.4,252c-0.4-0.3-0.7-0.8-0.9-1.3c-0.2-0.6-0.3-1.3-0.3-2.1V241h1.5v7.6c0,0.9,0.1,1.5,0.3,2
		c0.2,0.4,0.6,0.7,1.2,0.7c0.6,0,1-0.2,1.2-0.7c0.2-0.4,0.3-1.1,0.3-2V241h1.5v7.5c0,0.9-0.1,1.6-0.3,2.1c-0.2,0.6-0.5,1-0.9,1.3
		c-0.4,0.3-1.1,0.5-1.8,0.5C80.4,252.4,79.8,252.3,79.4,252z"/>
	<path class="st2" d="M85.9,241h2.3c1.1,0,2,0.2,2.5,0.7s0.8,1.2,0.8,2.3c0,1.5-0.5,2.3-1.4,2.6l1.6,5.7h-1.5l-1.5-5.3h-1.2v5.3
		h-1.6V241z M88.1,245.9c0.7,0,1.2-0.1,1.5-0.4c0.3-0.3,0.4-0.8,0.4-1.5c0-0.5-0.1-0.8-0.2-1.1c-0.1-0.3-0.3-0.5-0.5-0.6
		s-0.6-0.2-1.1-0.2h-0.7v3.8H88.1z"/>
	<path class="st2" d="M95,241h1.5l2.4,11.3h-1.5l-0.5-2.9h-2.3l-0.5,2.9h-1.5L95,241z M96.7,248.3l-1-5.1l-0.9,5.1H96.7z"/>
	<path class="st2" d="M100.5,251.6c-0.5-0.6-0.8-1.4-0.8-2.4l1.4-0.4c0,0.7,0.2,1.3,0.4,1.8c0.2,0.4,0.6,0.7,1.2,0.7
		c0.4,0,0.7-0.1,0.9-0.3s0.3-0.6,0.3-1c0-0.5-0.1-0.9-0.3-1.2c-0.2-0.3-0.5-0.6-0.9-1l-1.9-1.7c-0.4-0.3-0.7-0.7-0.8-1.1
		c-0.2-0.4-0.3-0.9-0.3-1.4c0-0.8,0.2-1.5,0.7-1.9c0.5-0.5,1.1-0.7,1.9-0.7c0.9,0,1.6,0.2,2,0.7c0.5,0.5,0.7,1.2,0.8,2.2l-1.3,0.4
		c0-0.7-0.2-1.2-0.4-1.5c-0.2-0.4-0.6-0.5-1.1-0.5c-0.4,0-0.7,0.1-0.9,0.3c-0.2,0.2-0.3,0.5-0.3,0.9c0,0.3,0.1,0.6,0.2,0.8
		c0.1,0.2,0.3,0.5,0.6,0.7l1.9,1.7c0.5,0.4,0.9,0.9,1.2,1.4c0.3,0.5,0.4,1.1,0.4,1.8c0,0.8-0.3,1.5-0.8,2s-1.2,0.7-2,0.7
		C101.8,252.4,101,252.1,100.5,251.6z"/>
	<path class="st2" d="M29.9,257.8h2.5c1.2,0,2.1,0.3,2.6,0.8s0.8,1.4,0.8,2.6v4.2c0,1.3-0.2,2.2-0.7,2.8c-0.5,0.6-1.3,0.9-2.5,0.9
		h-2.6V257.8z M32.4,268c0.6,0,0.9-0.1,1.2-0.3c0.2-0.2,0.4-0.5,0.5-0.9c0.1-0.4,0.1-0.9,0.1-1.7v-3.7c0-0.6,0-1.1-0.1-1.5
		c-0.1-0.3-0.2-0.6-0.5-0.8c-0.3-0.2-0.6-0.2-1.2-0.2h-0.9v9H32.4z"/>
	<path class="st2" d="M37.3,257.8h4.4v1.2h-2.8v3.8h2.3v1.1h-2.3v4.2h2.8v1.1h-4.4V257.8z"/>
	<path class="st2" d="M46.7,268.2c-0.5-0.7-0.7-1.6-0.7-2.8v-4c0-1.2,0.2-2.2,0.7-2.8c0.4-0.6,1.2-1,2.4-1c1,0,1.7,0.3,2.2,0.8
		s0.7,1.4,0.7,2.4v0.9h-1.5V261c0-0.5,0-0.9-0.1-1.2c0-0.3-0.2-0.5-0.4-0.7s-0.5-0.3-0.9-0.3c-0.4,0-0.7,0.1-1,0.3s-0.3,0.4-0.4,0.8
		c-0.1,0.3-0.1,0.8-0.1,1.3v4.5c0,0.6,0,1,0.1,1.4c0.1,0.3,0.2,0.6,0.5,0.7c0.2,0.1,0.5,0.2,0.9,0.2c0.4,0,0.7-0.1,0.9-0.3
		c0.2-0.2,0.3-0.4,0.4-0.7c0.1-0.3,0.1-0.7,0.1-1.3v-0.8h1.5v0.8c0,1.1-0.2,2-0.6,2.6s-1.2,0.9-2.2,0.9
		C48,269.2,47.2,268.9,46.7,268.2z"/>
	<path class="st2" d="M53.9,268.4c-0.5-0.6-0.8-1.4-0.8-2.4l1.4-0.4c0,0.7,0.2,1.3,0.4,1.8c0.2,0.4,0.6,0.7,1.2,0.7
		c0.4,0,0.7-0.1,0.9-0.3s0.3-0.6,0.3-1c0-0.5-0.1-0.9-0.3-1.2c-0.2-0.3-0.5-0.6-0.9-1l-1.9-1.7c-0.4-0.3-0.7-0.7-0.8-1.1
		c-0.2-0.4-0.3-0.9-0.3-1.4c0-0.8,0.2-1.5,0.7-1.9c0.5-0.5,1.1-0.7,1.9-0.7c0.9,0,1.6,0.2,2,0.7c0.5,0.5,0.7,1.2,0.8,2.2l-1.3,0.4
		c0-0.7-0.2-1.2-0.4-1.5c-0.2-0.4-0.6-0.5-1.1-0.5c-0.4,0-0.7,0.1-0.9,0.3c-0.2,0.2-0.3,0.5-0.3,0.9c0,0.3,0.1,0.6,0.2,0.8
		c0.1,0.2,0.3,0.5,0.6,0.7l1.9,1.7c0.5,0.4,0.9,0.9,1.2,1.4c0.3,0.5,0.4,1.1,0.4,1.8c0,0.8-0.3,1.5-0.8,2s-1.2,0.7-2,0.7
		C55.2,269.2,54.4,268.9,53.9,268.4z"/>
	<path class="st2" d="M59.9,267.4h1.5v1.7h-1.5V267.4z"/>
	<path class="st2" d="M65.9,257.8h2.6c1,0,1.8,0.2,2.3,0.7c0.5,0.5,0.7,1.2,0.7,2.1c0,1.4-0.5,2.2-1.6,2.4c0.7,0.2,1.2,0.5,1.5,0.9
		c0.3,0.5,0.5,1.1,0.5,1.9c0,1-0.2,1.8-0.7,2.4c-0.5,0.6-1.2,0.9-2.2,0.9h-3V257.8z M68.4,262.5c0.7,0,1.1-0.1,1.4-0.4
		c0.3-0.3,0.4-0.8,0.4-1.5c0-0.5-0.1-0.9-0.2-1.1c-0.2-0.2-0.4-0.4-0.7-0.5s-0.8-0.1-1.4-0.1h-0.4v3.6H68.4z M68.5,268
		c0.5,0,0.8-0.1,1.1-0.2c0.3-0.1,0.4-0.4,0.5-0.7c0.1-0.3,0.2-0.7,0.2-1.2c0-0.7-0.1-1.3-0.4-1.6c-0.3-0.4-0.8-0.5-1.5-0.5h-0.9v4.3
		H68.5z"/>
	<path class="st2" d="M75,257.8h1.5l2.4,11.3h-1.5l-0.5-2.9h-2.3l-0.5,2.9h-1.5L75,257.8z M76.7,265.1l-1-5.1l-0.9,5.1H76.7z
		 M76.2,254.3h1.5l-1.6,2.8h-0.8L76.2,254.3z"/>
	<path class="st2" d="M80.6,268.4c-0.5-0.6-0.8-1.4-0.8-2.4l1.4-0.4c0,0.7,0.2,1.3,0.4,1.8c0.2,0.4,0.6,0.7,1.2,0.7
		c0.4,0,0.7-0.1,0.9-0.3s0.3-0.6,0.3-1c0-0.5-0.1-0.9-0.3-1.2c-0.2-0.3-0.5-0.6-0.9-1l-1.9-1.7c-0.4-0.3-0.7-0.7-0.8-1.1
		c-0.2-0.4-0.3-0.9-0.3-1.4c0-0.8,0.2-1.5,0.7-1.9c0.5-0.5,1.1-0.7,1.9-0.7c0.9,0,1.6,0.2,2,0.7c0.5,0.5,0.7,1.2,0.8,2.2L84,261
		c0-0.7-0.2-1.2-0.4-1.5c-0.2-0.4-0.6-0.5-1.1-0.5c-0.4,0-0.7,0.1-0.9,0.3c-0.2,0.2-0.3,0.5-0.3,0.9c0,0.3,0.1,0.6,0.2,0.8
		c0.1,0.2,0.3,0.5,0.6,0.7l1.9,1.7c0.5,0.4,0.9,0.9,1.2,1.4c0.3,0.5,0.4,1.1,0.4,1.8c0,0.8-0.3,1.5-0.8,2s-1.2,0.7-2,0.7
		C81.8,269.2,81.1,268.9,80.6,268.4z"/>
	<path class="st2" d="M86.8,257.8h1.6v11.3h-1.6V257.8z"/>
	<path class="st2" d="M90.7,268.2c-0.5-0.7-0.7-1.6-0.7-2.8v-4c0-1.2,0.2-2.2,0.7-2.8c0.4-0.6,1.2-1,2.4-1c1,0,1.7,0.3,2.2,0.8
		s0.7,1.4,0.7,2.4v0.9h-1.5V261c0-0.5,0-0.9-0.1-1.2c0-0.3-0.2-0.5-0.4-0.7s-0.5-0.3-0.9-0.3c-0.4,0-0.7,0.1-1,0.3s-0.3,0.4-0.4,0.8
		c-0.1,0.3-0.1,0.8-0.1,1.3v4.5c0,0.6,0,1,0.1,1.4c0.1,0.3,0.2,0.6,0.5,0.7c0.2,0.1,0.5,0.2,0.9,0.2c0.4,0,0.7-0.1,0.9-0.3
		c0.2-0.2,0.3-0.4,0.4-0.7c0.1-0.3,0.1-0.7,0.1-1.3v-0.8h1.5v0.8c0,1.1-0.2,2-0.6,2.6s-1.2,0.9-2.2,0.9
		C91.9,269.2,91.1,268.9,90.7,268.2z"/>
	<path class="st2" d="M99.2,257.8h1.5l2.4,11.3h-1.5l-0.5-2.9h-2.3l-0.5,2.9h-1.5L99.2,257.8z M100.9,265.1l-1-5.1l-0.9,5.1H100.9z"
		/>
	<path class="st2" d="M104.8,268.4c-0.5-0.6-0.8-1.4-0.8-2.4l1.4-0.4c0,0.7,0.2,1.3,0.4,1.8c0.2,0.4,0.6,0.7,1.2,0.7
		c0.4,0,0.7-0.1,0.9-0.3s0.3-0.6,0.3-1c0-0.5-0.1-0.9-0.3-1.2c-0.2-0.3-0.5-0.6-0.9-1l-1.9-1.7c-0.4-0.3-0.7-0.7-0.8-1.1
		c-0.2-0.4-0.3-0.9-0.3-1.4c0-0.8,0.2-1.5,0.7-1.9c0.5-0.5,1.1-0.7,1.9-0.7c0.9,0,1.6,0.2,2,0.7c0.5,0.5,0.7,1.2,0.8,2.2l-1.3,0.4
		c0-0.7-0.2-1.2-0.4-1.5c-0.2-0.4-0.6-0.5-1.1-0.5c-0.4,0-0.7,0.1-0.9,0.3c-0.2,0.2-0.3,0.5-0.3,0.9c0,0.3,0.1,0.6,0.2,0.8
		c0.1,0.2,0.3,0.5,0.6,0.7l1.9,1.7c0.5,0.4,0.9,0.9,1.2,1.4c0.3,0.5,0.4,1.1,0.4,1.8c0,0.8-0.3,1.5-0.8,2s-1.2,0.7-2,0.7
		C106,269.2,105.3,268.9,104.8,268.4z"/>
</g>
<g>
	<rect x="150.5" y="217.5" class="st0" width="119" height="77"/>
	<path class="st1" d="M269,218v76H151v-76H269 M270,217H150v78h120V217L270,217z"/>
</g>
<g>
	<path class="st2" d="M176,241h1.5l2.4,11.3h-1.5l-0.5-2.9h-2.3l-0.5,2.9h-1.5L176,241z M177.7,248.3l-1-5.1l-0.9,5.1H177.7z"/>
	<path class="st2" d="M181.6,251.6c-0.5-0.6-0.8-1.4-0.8-2.4l1.4-0.4c0,0.7,0.2,1.3,0.4,1.8c0.2,0.4,0.6,0.7,1.2,0.7
		c0.4,0,0.7-0.1,0.9-0.3s0.3-0.6,0.3-1c0-0.5-0.1-0.9-0.3-1.2c-0.2-0.3-0.5-0.6-0.9-1l-1.9-1.7c-0.4-0.3-0.7-0.7-0.8-1.1
		c-0.2-0.4-0.3-0.9-0.3-1.4c0-0.8,0.2-1.5,0.7-1.9c0.5-0.5,1.1-0.7,1.9-0.7c0.9,0,1.6,0.2,2,0.7c0.5,0.5,0.7,1.2,0.8,2.2l-1.3,0.4
		c0-0.7-0.2-1.2-0.4-1.5c-0.2-0.4-0.6-0.5-1.1-0.5c-0.4,0-0.7,0.1-0.9,0.3c-0.2,0.2-0.3,0.5-0.3,0.9c0,0.3,0.1,0.6,0.2,0.8
		c0.1,0.2,0.3,0.5,0.6,0.7l1.9,1.7c0.5,0.4,0.9,0.9,1.2,1.4c0.3,0.5,0.4,1.1,0.4,1.8c0,0.8-0.3,1.5-0.8,2s-1.2,0.7-2,0.7
		C182.8,252.4,182.1,252.1,181.6,251.6z"/>
	<path class="st2" d="M187.8,241h1.6v11.3h-1.6V241z"/>
	<path class="st2" d="M191.7,251.5c-0.5-0.6-0.7-1.6-0.7-2.9v-3.8c0-0.9,0.1-1.6,0.3-2.2c0.2-0.6,0.5-1,0.9-1.3s1.1-0.5,1.8-0.5
		c1,0,1.8,0.3,2.3,0.8c0.5,0.5,0.7,1.4,0.7,2.5v0.4h-1.5v-0.4c0-0.5,0-1-0.1-1.3c-0.1-0.3-0.2-0.5-0.4-0.7s-0.5-0.2-0.9-0.2
		c-0.4,0-0.8,0.1-1,0.3s-0.4,0.5-0.4,0.8c-0.1,0.3-0.1,0.8-0.1,1.3v4.2c0,0.9,0.1,1.5,0.3,1.9s0.6,0.6,1.2,0.6c0.6,0,1-0.2,1.2-0.6
		c0.2-0.4,0.3-1.1,0.3-2v-0.8h-1.4v-1.1h2.9v5.6h-1l-0.2-1.3c-0.4,1-1,1.4-2,1.4C192.9,252.5,192.1,252.1,191.7,251.5z"/>
	<path class="st2" d="M198.7,241h1.1l3.2,7.5V241h1.3v11.3h-1l-3.3-7.7v7.7h-1.3V241z"/>
	<path class="st2" d="M207.9,241h1.5l2.4,11.3h-1.5l-0.5-2.9h-2.3l-0.5,2.9h-1.5L207.9,241z M209.6,248.3l-1-5.1l-0.9,5.1H209.6z"/>
	<path class="st2" d="M213.8,242.1h-1.9V241h5.4v1.2h-1.9v10.2h-1.6V242.1z"/>
	<path class="st2" d="M219.4,252c-0.4-0.3-0.7-0.8-0.9-1.3c-0.2-0.6-0.3-1.3-0.3-2.1V241h1.5v7.6c0,0.9,0.1,1.5,0.3,2
		c0.2,0.4,0.6,0.7,1.2,0.7c0.6,0,1-0.2,1.2-0.7c0.2-0.4,0.3-1.1,0.3-2V241h1.5v7.5c0,0.9-0.1,1.6-0.3,2.1c-0.2,0.6-0.5,1-0.9,1.3
		c-0.4,0.3-1.1,0.5-1.8,0.5C220.4,252.4,219.8,252.3,219.4,252z"/>
	<path class="st2" d="M225.9,241h2.3c1.1,0,2,0.2,2.5,0.7s0.8,1.2,0.8,2.3c0,1.5-0.5,2.3-1.4,2.6l1.6,5.7h-1.5l-1.5-5.3h-1.2v5.3
		h-1.6V241z M228.1,245.9c0.7,0,1.2-0.1,1.5-0.4c0.3-0.3,0.4-0.8,0.4-1.5c0-0.5-0.1-0.8-0.2-1.1c-0.1-0.3-0.3-0.5-0.5-0.6
		s-0.6-0.2-1.1-0.2h-0.7v3.8H228.1z"/>
	<path class="st2" d="M235,241h1.5l2.4,11.3h-1.5l-0.5-2.9h-2.3l-0.5,2.9h-1.5L235,241z M236.7,248.3l-1-5.1l-0.9,5.1H236.7z"/>
	<path class="st2" d="M240.5,251.6c-0.5-0.6-0.8-1.4-0.8-2.4l1.4-0.4c0,0.7,0.2,1.3,0.4,1.8c0.2,0.4,0.6,0.7,1.2,0.7
		c0.4,0,0.7-0.1,0.9-0.3s0.3-0.6,0.3-1c0-0.5-0.1-0.9-0.3-1.2c-0.2-0.3-0.5-0.6-0.9-1l-1.9-1.7c-0.4-0.3-0.7-0.7-0.8-1.1
		c-0.2-0.4-0.3-0.9-0.3-1.4c0-0.8,0.2-1.5,0.7-1.9c0.5-0.5,1.1-0.7,1.9-0.7c0.9,0,1.6,0.2,2,0.7c0.5,0.5,0.7,1.2,0.8,2.2l-1.3,0.4
		c0-0.7-0.2-1.2-0.4-1.5c-0.2-0.4-0.6-0.5-1.1-0.5c-0.4,0-0.7,0.1-0.9,0.3c-0.2,0.2-0.3,0.5-0.3,0.9c0,0.3,0.1,0.6,0.2,0.8
		c0.1,0.2,0.3,0.5,0.6,0.7l1.9,1.7c0.5,0.4,0.9,0.9,1.2,1.4c0.3,0.5,0.4,1.1,0.4,1.8c0,0.8-0.3,1.5-0.8,2s-1.2,0.7-2,0.7
		C241.8,252.4,241,252.1,240.5,251.6z"/>
	<path class="st2" d="M171.5,257.8h2.5c1.2,0,2.1,0.3,2.6,0.8s0.8,1.4,0.8,2.6v4.2c0,1.3-0.2,2.2-0.7,2.8c-0.5,0.6-1.3,0.9-2.5,0.9
		h-2.6V257.8z M174,268c0.6,0,0.9-0.1,1.2-0.3c0.2-0.2,0.4-0.5,0.5-0.9c0.1-0.4,0.1-0.9,0.1-1.7v-3.7c0-0.6,0-1.1-0.1-1.5
		c-0.1-0.3-0.2-0.6-0.5-0.8c-0.3-0.2-0.6-0.2-1.2-0.2h-0.9v9H174z"/>
	<path class="st2" d="M178.9,257.8h4.4v1.2h-2.8v3.8h2.3v1.1h-2.3v4.2h2.8v1.1h-4.4V257.8z"/>
	<path class="st2" d="M187.8,257.8h2.8c1,0,1.7,0.3,2.1,0.8s0.7,1.3,0.7,2.3c0,0.9-0.2,1.6-0.7,2.2c-0.5,0.5-1.2,0.8-2.1,0.8h-1.2
		v5.3h-1.6V257.8z M190.1,262.7c0.5,0,0.8-0.1,1.1-0.2s0.4-0.3,0.6-0.5c0.1-0.3,0.2-0.6,0.2-1.1c0-0.6,0-1-0.1-1.3s-0.2-0.5-0.5-0.6
		c-0.2-0.1-0.6-0.2-1.2-0.2h-0.7v3.8H190.1z"/>
	<path class="st2" d="M194.5,257.8h2.3c1.1,0,2,0.2,2.5,0.7s0.8,1.2,0.8,2.3c0,1.5-0.5,2.3-1.4,2.6l1.6,5.7h-1.5l-1.5-5.3h-1.2v5.3
		h-1.6V257.8z M196.7,262.7c0.7,0,1.2-0.1,1.5-0.4c0.3-0.3,0.4-0.8,0.4-1.5c0-0.5-0.1-0.8-0.2-1.1c-0.1-0.3-0.3-0.5-0.5-0.6
		s-0.6-0.2-1.1-0.2h-0.7v3.8H196.7z"/>
	<path class="st2" d="M201.8,257.8h4.4v1.2h-2.8v3.8h2.3v1.1h-2.3v4.2h2.8v1.1h-4.4V257.8z"/>
	<path class="st2" d="M208,268.2c-0.5-0.7-0.7-1.6-0.7-2.8v-4c0-1.2,0.2-2.2,0.7-2.8c0.4-0.6,1.2-1,2.4-1c1,0,1.7,0.3,2.2,0.8
		s0.7,1.4,0.7,2.4v0.9h-1.5V261c0-0.5,0-0.9-0.1-1.2c0-0.3-0.2-0.5-0.4-0.7s-0.5-0.3-0.9-0.3c-0.4,0-0.7,0.1-1,0.3s-0.3,0.4-0.4,0.8
		c-0.1,0.3-0.1,0.8-0.1,1.3v4.5c0,0.6,0,1,0.1,1.4c0.1,0.3,0.2,0.6,0.5,0.7c0.2,0.1,0.5,0.2,0.9,0.2c0.4,0,0.7-0.1,0.9-0.3
		c0.2-0.2,0.3-0.4,0.4-0.7c0.1-0.3,0.1-0.7,0.1-1.3v-0.8h1.5v0.8c0,1.1-0.2,2-0.6,2.6s-1.2,0.9-2.2,0.9
		C209.2,269.2,208.4,268.9,208,268.2z"/>
	<path class="st2" d="M214.7,257.8h1.6V268h2.9v1.1h-4.5V257.8z"/>
	<path class="st2" d="M220.3,257.8h1.6v11.3h-1.6V257.8z M221.5,254.3h1.5l-1.6,2.8h-0.8L221.5,254.3z"/>
	<path class="st2" d="M223.7,257.8h1.1l3.2,7.5v-7.5h1.3v11.3h-1l-3.3-7.7v7.7h-1.3V257.8z"/>
	<path class="st2" d="M231.2,257.8h1.6v11.3h-1.6V257.8z"/>
	<path class="st2" d="M235.1,268.2c-0.5-0.7-0.7-1.6-0.7-2.8v-4c0-1.2,0.2-2.2,0.7-2.8c0.4-0.6,1.2-1,2.4-1c1,0,1.7,0.3,2.2,0.8
		s0.7,1.4,0.7,2.4v0.9h-1.5V261c0-0.5,0-0.9-0.1-1.2c0-0.3-0.2-0.5-0.4-0.7s-0.5-0.3-0.9-0.3c-0.4,0-0.7,0.1-1,0.3s-0.3,0.4-0.4,0.8
		c-0.1,0.3-0.1,0.8-0.1,1.3v4.5c0,0.6,0,1,0.1,1.4c0.1,0.3,0.2,0.6,0.5,0.7c0.2,0.1,0.5,0.2,0.9,0.2c0.4,0,0.7-0.1,0.9-0.3
		c0.2-0.2,0.3-0.4,0.4-0.7c0.1-0.3,0.1-0.7,0.1-1.3v-0.8h1.5v0.8c0,1.1-0.2,2-0.6,2.6s-1.2,0.9-2.2,0.9
		C236.3,269.2,235.5,268.9,235.1,268.2z"/>
	<path class="st2" d="M242.3,268.3c-0.5-0.6-0.7-1.5-0.7-2.7v-4.3c0-1.2,0.2-2.1,0.7-2.7c0.5-0.6,1.3-0.9,2.4-0.9
		c1.1,0,1.9,0.3,2.4,0.9c0.5,0.6,0.7,1.5,0.7,2.7v4.3c0,1.2-0.2,2.1-0.7,2.7c-0.5,0.6-1.3,1-2.4,1
		C243.6,269.2,242.8,268.9,242.3,268.3z M245.9,267.5c0.2-0.3,0.3-0.9,0.3-1.6v-5c0-0.7-0.1-1.2-0.3-1.5c-0.2-0.3-0.6-0.5-1.2-0.5
		c-0.6,0-1,0.2-1.2,0.5c-0.2,0.3-0.3,0.8-0.3,1.5v5c0,0.7,0.1,1.2,0.3,1.6c0.2,0.3,0.6,0.5,1.2,0.5
		C245.3,268,245.7,267.8,245.9,267.5z"/>
</g>
<g>
	<rect x="290.5" y="218.5" class="st0" width="119" height="77"/>
	<path class="st1" d="M409,219v76H291v-76H409 M410,218H290v78h120V218L410,218z"/>
</g>
<g>
	<path class="st2" d="M316,232.6h1.5l2.4,11.3h-1.5l-0.5-2.9h-2.3l-0.5,2.9h-1.5L316,232.6z M317.7,239.9l-1-5.1l-0.9,5.1H317.7z"/>
	<path class="st2" d="M321.6,243.2c-0.5-0.6-0.8-1.4-0.8-2.4l1.4-0.4c0,0.7,0.2,1.3,0.4,1.8c0.2,0.4,0.6,0.7,1.2,0.7
		c0.4,0,0.7-0.1,0.9-0.3s0.3-0.6,0.3-1c0-0.5-0.1-0.9-0.3-1.2c-0.2-0.3-0.5-0.6-0.9-1l-1.9-1.7c-0.4-0.3-0.7-0.7-0.8-1.1
		c-0.2-0.4-0.3-0.9-0.3-1.4c0-0.8,0.2-1.5,0.7-1.9c0.5-0.5,1.1-0.7,1.9-0.7c0.9,0,1.6,0.2,2,0.7c0.5,0.5,0.7,1.2,0.8,2.2l-1.3,0.4
		c0-0.7-0.2-1.2-0.4-1.5c-0.2-0.4-0.6-0.5-1.1-0.5c-0.4,0-0.7,0.1-0.9,0.3c-0.2,0.2-0.3,0.5-0.3,0.9c0,0.3,0.1,0.6,0.2,0.8
		c0.1,0.2,0.3,0.5,0.6,0.7l1.9,1.7c0.5,0.4,0.9,0.9,1.2,1.4c0.3,0.5,0.4,1.1,0.4,1.8c0,0.8-0.3,1.5-0.8,2s-1.2,0.7-2,0.7
		C322.8,244,322.1,243.7,321.6,243.2z"/>
	<path class="st2" d="M327.8,232.6h1.6v11.3h-1.6V232.6z"/>
	<path class="st2" d="M331.7,243.1c-0.5-0.6-0.7-1.6-0.7-2.9v-3.8c0-0.9,0.1-1.6,0.3-2.2c0.2-0.6,0.5-1,0.9-1.3s1.1-0.5,1.8-0.5
		c1,0,1.8,0.3,2.3,0.8c0.5,0.5,0.7,1.4,0.7,2.5v0.4h-1.5v-0.4c0-0.5,0-1-0.1-1.3c-0.1-0.3-0.2-0.5-0.4-0.7s-0.5-0.2-0.9-0.2
		c-0.4,0-0.8,0.1-1,0.3s-0.4,0.5-0.4,0.8c-0.1,0.3-0.1,0.8-0.1,1.3v4.2c0,0.9,0.1,1.5,0.3,1.9s0.6,0.6,1.2,0.6c0.6,0,1-0.2,1.2-0.6
		c0.2-0.4,0.3-1.1,0.3-2v-0.8h-1.4v-1.1h2.9v5.6h-1l-0.2-1.3c-0.4,1-1,1.4-2,1.4C332.9,244.1,332.1,243.7,331.7,243.1z"/>
	<path class="st2" d="M338.7,232.6h1.1l3.2,7.5v-7.5h1.3v11.3h-1l-3.3-7.7v7.7h-1.3V232.6z"/>
	<path class="st2" d="M347.9,232.6h1.5l2.4,11.3h-1.5l-0.5-2.9h-2.3l-0.5,2.9h-1.5L347.9,232.6z M349.6,239.9l-1-5.1l-0.9,5.1H349.6
		z"/>
	<path class="st2" d="M353.8,233.7h-1.9v-1.2h5.4v1.2h-1.9v10.2h-1.6V233.7z"/>
	<path class="st2" d="M359.4,243.6c-0.4-0.3-0.7-0.8-0.9-1.3c-0.2-0.6-0.3-1.3-0.3-2.1v-7.5h1.5v7.6c0,0.9,0.1,1.5,0.3,2
		c0.2,0.4,0.6,0.7,1.2,0.7c0.6,0,1-0.2,1.2-0.7c0.2-0.4,0.3-1.1,0.3-2v-7.6h1.5v7.5c0,0.9-0.1,1.6-0.3,2.1c-0.2,0.6-0.5,1-0.9,1.3
		c-0.4,0.3-1.1,0.5-1.8,0.5C360.4,244,359.8,243.9,359.4,243.6z"/>
	<path class="st2" d="M365.9,232.6h2.3c1.1,0,2,0.2,2.5,0.7s0.8,1.2,0.8,2.3c0,1.5-0.5,2.3-1.4,2.6l1.6,5.7h-1.5l-1.5-5.3h-1.2v5.3
		h-1.6V232.6z M368.1,237.5c0.7,0,1.2-0.1,1.5-0.4c0.3-0.3,0.4-0.8,0.4-1.5c0-0.5-0.1-0.8-0.2-1.1c-0.1-0.3-0.3-0.5-0.5-0.6
		s-0.6-0.2-1.1-0.2h-0.7v3.8H368.1z"/>
	<path class="st2" d="M375,232.6h1.5l2.4,11.3h-1.5l-0.5-2.9h-2.3l-0.5,2.9h-1.5L375,232.6z M376.7,239.9l-1-5.1l-0.9,5.1H376.7z"/>
	<path class="st2" d="M380.5,243.2c-0.5-0.6-0.8-1.4-0.8-2.4l1.4-0.4c0,0.7,0.2,1.3,0.4,1.8c0.2,0.4,0.6,0.7,1.2,0.7
		c0.4,0,0.7-0.1,0.9-0.3s0.3-0.6,0.3-1c0-0.5-0.1-0.9-0.3-1.2c-0.2-0.3-0.5-0.6-0.9-1l-1.9-1.7c-0.4-0.3-0.7-0.7-0.8-1.1
		c-0.2-0.4-0.3-0.9-0.3-1.4c0-0.8,0.2-1.5,0.7-1.9c0.5-0.5,1.1-0.7,1.9-0.7c0.9,0,1.6,0.2,2,0.7c0.5,0.5,0.7,1.2,0.8,2.2l-1.3,0.4
		c0-0.7-0.2-1.2-0.4-1.5c-0.2-0.4-0.6-0.5-1.1-0.5c-0.4,0-0.7,0.1-0.9,0.3c-0.2,0.2-0.3,0.5-0.3,0.9c0,0.3,0.1,0.6,0.2,0.8
		c0.1,0.2,0.3,0.5,0.6,0.7l1.9,1.7c0.5,0.4,0.9,0.9,1.2,1.4c0.3,0.5,0.4,1.1,0.4,1.8c0,0.8-0.3,1.5-0.8,2s-1.2,0.7-2,0.7
		C381.8,244,381,243.7,380.5,243.2z"/>
	<path class="st2" d="M321.7,249.4h2.5c1.2,0,2.1,0.3,2.6,0.8s0.8,1.4,0.8,2.6v4.2c0,1.3-0.2,2.2-0.7,2.8c-0.5,0.6-1.3,0.9-2.5,0.9
		h-2.6V249.4z M324.2,259.6c0.6,0,0.9-0.1,1.2-0.3c0.2-0.2,0.4-0.5,0.5-0.9c0.1-0.4,0.1-0.9,0.1-1.7V253c0-0.6,0-1.1-0.1-1.5
		c-0.1-0.3-0.2-0.6-0.5-0.8c-0.3-0.2-0.6-0.2-1.2-0.2h-0.9v9H324.2z"/>
	<path class="st2" d="M329.1,249.4h4.4v1.2h-2.8v3.8h2.3v1.1h-2.3v4.2h2.8v1.1h-4.4V249.4z"/>
	<path class="st2" d="M338.5,259.8c-0.5-0.7-0.7-1.6-0.7-2.8v-4c0-1.2,0.2-2.2,0.7-2.8c0.4-0.6,1.2-1,2.4-1c1,0,1.7,0.3,2.2,0.8
		s0.7,1.4,0.7,2.4v0.9h-1.5v-0.8c0-0.5,0-0.9-0.1-1.2c0-0.3-0.2-0.5-0.4-0.7s-0.5-0.3-0.9-0.3c-0.4,0-0.7,0.1-1,0.3
		s-0.3,0.4-0.4,0.8c-0.1,0.3-0.1,0.8-0.1,1.3v4.5c0,0.6,0,1,0.1,1.4c0.1,0.3,0.2,0.6,0.5,0.7c0.2,0.1,0.5,0.2,0.9,0.2
		c0.4,0,0.7-0.1,0.9-0.3c0.2-0.2,0.3-0.4,0.4-0.7c0.1-0.3,0.1-0.7,0.1-1.3v-0.8h1.5v0.8c0,1.1-0.2,2-0.6,2.6s-1.2,0.9-2.2,0.9
		C339.7,260.8,338.9,260.5,338.5,259.8z"/>
	<path class="st2" d="M345.2,249.4h1.6v10.2h2.9v1.1h-4.5V249.4z"/>
	<path class="st2" d="M350.8,249.4h1.6v11.3h-1.6V249.4z M352,245.9h1.5l-1.6,2.8h-0.8L352,245.9z"/>
	<path class="st2" d="M354.2,249.4h1.1l3.2,7.5v-7.5h1.3v11.3h-1l-3.3-7.7v7.7h-1.3V249.4z"/>
	<path class="st2" d="M361.7,249.4h1.6v11.3h-1.6V249.4z"/>
	<path class="st2" d="M365.6,259.8c-0.5-0.7-0.7-1.6-0.7-2.8v-4c0-1.2,0.2-2.2,0.7-2.8c0.4-0.6,1.2-1,2.4-1c1,0,1.7,0.3,2.2,0.8
		s0.7,1.4,0.7,2.4v0.9h-1.5v-0.8c0-0.5,0-0.9-0.1-1.2c0-0.3-0.2-0.5-0.4-0.7s-0.5-0.3-0.9-0.3c-0.4,0-0.7,0.1-1,0.3
		s-0.3,0.4-0.4,0.8c-0.1,0.3-0.1,0.8-0.1,1.3v4.5c0,0.6,0,1,0.1,1.4c0.1,0.3,0.2,0.6,0.5,0.7c0.2,0.1,0.5,0.2,0.9,0.2
		c0.4,0,0.7-0.1,0.9-0.3c0.2-0.2,0.3-0.4,0.4-0.7c0.1-0.3,0.1-0.7,0.1-1.3v-0.8h1.5v0.8c0,1.1-0.2,2-0.6,2.6s-1.2,0.9-2.2,0.9
		C366.8,260.8,366,260.5,365.6,259.8z"/>
	<path class="st2" d="M374.1,249.4h1.5l2.4,11.3h-1.5l-0.5-2.9h-2.3l-0.5,2.9h-1.5L374.1,249.4z M375.8,256.7l-1-5.1l-0.9,5.1H375.8
		z"/>
	<path class="st2" d="M310.3,276.7c-0.5-0.6-0.7-1.5-0.7-2.7v-4.3c0-1.2,0.2-2.1,0.7-2.7c0.5-0.6,1.3-0.9,2.4-0.9
		c1.1,0,1.9,0.3,2.4,0.9c0.5,0.6,0.7,1.5,0.7,2.7v4.3c0,1.2-0.2,2.1-0.7,2.7c-0.5,0.6-1.3,1-2.4,1
		C311.6,277.6,310.8,277.3,310.3,276.7z M313.9,275.9c0.2-0.3,0.3-0.9,0.3-1.6v-5c0-0.7-0.1-1.2-0.3-1.5c-0.2-0.3-0.6-0.5-1.2-0.5
		c-0.6,0-1,0.2-1.2,0.5c-0.2,0.3-0.3,0.8-0.3,1.5v5c0,0.7,0.1,1.2,0.3,1.6c0.2,0.3,0.6,0.5,1.2,0.5
		C313.3,276.4,313.7,276.2,313.9,275.9z"/>
	<path class="st2" d="M317.4,266.2h2.5c1.2,0,2.1,0.3,2.6,0.8s0.8,1.4,0.8,2.6v4.2c0,1.3-0.2,2.2-0.7,2.8c-0.5,0.6-1.3,0.9-2.5,0.9
		h-2.6V266.2z M319.8,276.4c0.6,0,0.9-0.1,1.2-0.3c0.2-0.2,0.4-0.5,0.5-0.9c0.1-0.4,0.1-0.9,0.1-1.7v-3.7c0-0.6,0-1.1-0.1-1.5
		c-0.1-0.3-0.2-0.6-0.5-0.8c-0.3-0.2-0.6-0.2-1.2-0.2h-0.9v9H319.8z"/>
	<path class="st2" d="M325.2,276.7c-0.5-0.6-0.7-1.5-0.7-2.7v-4.3c0-1.2,0.2-2.1,0.7-2.7c0.5-0.6,1.3-0.9,2.4-0.9
		c1.1,0,1.9,0.3,2.4,0.9c0.5,0.6,0.7,1.5,0.7,2.7v4.3c0,1.2-0.2,2.1-0.7,2.7c-0.5,0.6-1.3,1-2.4,1
		C326.5,277.6,325.7,277.3,325.2,276.7z M328.8,275.9c0.2-0.3,0.3-0.9,0.3-1.6v-5c0-0.7-0.1-1.2-0.3-1.5c-0.2-0.3-0.6-0.5-1.2-0.5
		c-0.6,0-1,0.2-1.2,0.5c-0.2,0.3-0.3,0.8-0.3,1.5v5c0,0.7,0.1,1.2,0.3,1.6c0.2,0.3,0.6,0.5,1.2,0.5
		C328.2,276.4,328.6,276.2,328.8,275.9z"/>
	<path class="st2" d="M332.3,266.2h1.1l3.2,7.5v-7.5h1.3v11.3h-1l-3.3-7.7v7.7h-1.3V266.2z"/>
	<path class="st2" d="M340.9,267.3H339v-1.2h5.4v1.2h-1.9v10.2h-1.6V267.3z"/>
	<path class="st2" d="M346,276.7c-0.5-0.6-0.7-1.5-0.7-2.7v-4.3c0-1.2,0.2-2.1,0.7-2.7c0.5-0.6,1.3-0.9,2.4-0.9
		c1.1,0,1.9,0.3,2.4,0.9c0.5,0.6,0.7,1.5,0.7,2.7v4.3c0,1.2-0.2,2.1-0.7,2.7c-0.5,0.6-1.3,1-2.4,1
		C347.2,277.6,346.4,277.3,346,276.7z M349.5,275.9c0.2-0.3,0.3-0.9,0.3-1.6v-5c0-0.7-0.1-1.2-0.3-1.5c-0.2-0.3-0.6-0.5-1.2-0.5
		c-0.6,0-1,0.2-1.2,0.5c-0.2,0.3-0.3,0.8-0.3,1.5v5c0,0.7,0.1,1.2,0.3,1.6c0.2,0.3,0.6,0.5,1.2,0.5
		C348.9,276.4,349.3,276.2,349.5,275.9z"/>
	<path class="st2" d="M353,266.2h1.6v10.2h2.9v1.1H353V266.2z"/>
	<path class="st2" d="M359,276.7c-0.5-0.6-0.7-1.5-0.7-2.7v-4.3c0-1.2,0.2-2.1,0.7-2.7c0.5-0.6,1.3-0.9,2.4-0.9
		c1.1,0,1.9,0.3,2.4,0.9c0.5,0.6,0.7,1.5,0.7,2.7v4.3c0,1.2-0.2,2.1-0.7,2.7c-0.5,0.6-1.3,1-2.4,1
		C360.3,277.6,359.5,277.3,359,276.7z M362.6,275.9c0.2-0.3,0.3-0.9,0.3-1.6v-5c0-0.7-0.1-1.2-0.3-1.5c-0.2-0.3-0.6-0.5-1.2-0.5
		c-0.6,0-1,0.2-1.2,0.5c-0.2,0.3-0.3,0.8-0.3,1.5v5c0,0.7,0.1,1.2,0.3,1.6c0.2,0.3,0.6,0.5,1.2,0.5
		C362,276.4,362.4,276.2,362.6,275.9z M361.8,262.7h1.5l-1.6,2.8H361L361.8,262.7z"/>
	<path class="st2" d="M366.5,276.7c-0.5-0.6-0.7-1.6-0.7-2.9V270c0-0.9,0.1-1.6,0.3-2.2c0.2-0.6,0.5-1,0.9-1.3s1.1-0.5,1.8-0.5
		c1,0,1.8,0.3,2.3,0.8c0.5,0.5,0.7,1.4,0.7,2.5v0.4h-1.5v-0.4c0-0.5,0-1-0.1-1.3c-0.1-0.3-0.2-0.5-0.4-0.7s-0.5-0.2-0.9-0.2
		c-0.4,0-0.8,0.1-1,0.3s-0.4,0.5-0.4,0.8c-0.1,0.3-0.1,0.8-0.1,1.3v4.2c0,0.9,0.1,1.5,0.3,1.9s0.6,0.6,1.2,0.6c0.6,0,1-0.2,1.2-0.6
		c0.2-0.4,0.3-1.1,0.3-2V273H369v-1.1h2.9v5.6h-1l-0.2-1.3c-0.4,1-1,1.4-2,1.4C367.7,277.7,366.9,277.3,366.5,276.7z"/>
	<path class="st2" d="M373.6,266.2h1.6v11.3h-1.6V266.2z"/>
	<path class="st2" d="M377.5,276.6c-0.5-0.7-0.7-1.6-0.7-2.8v-4c0-1.2,0.2-2.2,0.7-2.8c0.4-0.6,1.2-1,2.4-1c1,0,1.7,0.3,2.2,0.8
		s0.7,1.4,0.7,2.4v0.9h-1.5v-0.8c0-0.5,0-0.9-0.1-1.2c0-0.3-0.2-0.5-0.4-0.7s-0.5-0.3-0.9-0.3c-0.4,0-0.7,0.1-1,0.3
		s-0.3,0.4-0.4,0.8c-0.1,0.3-0.1,0.8-0.1,1.3v4.5c0,0.6,0,1,0.1,1.4c0.1,0.3,0.2,0.6,0.5,0.7c0.2,0.1,0.5,0.2,0.9,0.2
		c0.4,0,0.7-0.1,0.9-0.3c0.2-0.2,0.3-0.4,0.4-0.7c0.1-0.3,0.1-0.7,0.1-1.3v-0.8h1.5v0.8c0,1.1-0.2,2-0.6,2.6s-1.2,0.9-2.2,0.9
		C378.7,277.6,377.9,277.3,377.5,276.6z"/>
	<path class="st2" d="M386,266.2h1.5l2.4,11.3h-1.5l-0.5-2.9h-2.3l-0.5,2.9h-1.5L386,266.2z M387.7,273.5l-1-5.1l-0.9,5.1H387.7z"/>
</g>
<g>
	<rect x="430.5" y="218.5" class="st0" width="119" height="77"/>
	<path class="st1" d="M549,219v76H431v-76H549 M550,218H430v78h120V218L550,218z"/>
</g>
<g>
	<path class="st2" d="M456.8,232.6h4.4v1.2h-2.8v3.8h2.3v1.1h-2.3v4.2h2.8v1.1h-4.4V232.6z"/>
	<path class="st2" d="M462.5,232.6h1.1l3.2,7.5v-7.5h1.3v11.3h-1l-3.3-7.7v7.7h-1.3V232.6z"/>
	<path class="st2" d="M469.9,232.6h4.4v1.1h-2.8v3.8h2.2v1.1h-2.2v5.3h-1.6V232.6z"/>
	<path class="st2" d="M475.4,232.6h4.4v1.2H477v3.8h2.3v1.1H477v4.2h2.8v1.1h-4.4V232.6z"/>
	<path class="st2" d="M481.1,232.6h2.3c1.1,0,2,0.2,2.5,0.7s0.8,1.2,0.8,2.3c0,1.5-0.5,2.3-1.4,2.6l1.6,5.7h-1.5l-1.5-5.3h-1.2v5.3
		h-1.6V232.6z M483.3,237.5c0.7,0,1.2-0.1,1.5-0.4c0.3-0.3,0.4-0.8,0.4-1.5c0-0.5-0.1-0.8-0.2-1.1c-0.1-0.3-0.3-0.5-0.5-0.6
		s-0.6-0.2-1.1-0.2h-0.7v3.8H483.3z"/>
	<path class="st2" d="M488.5,232.6h1.6l2,9.2l2-9.2h1.5l0.2,11.3h-1.3l-0.1-8.2l-1.9,8.2h-0.9l-1.9-8.2l-0.1,8.2h-1.3L488.5,232.6z"
		/>
	<path class="st2" d="M497.6,232.6h4.4v1.2h-2.8v3.8h2.3v1.1h-2.3v4.2h2.8v1.1h-4.4V232.6z"/>
	<path class="st2" d="M503.3,232.6h2.3c1.1,0,2,0.2,2.5,0.7c0.5,0.5,0.8,1.2,0.8,2.3c0,1.5-0.5,2.3-1.4,2.6l1.6,5.7h-1.5l-1.5-5.3
		h-1.2v5.3h-1.6V232.6z M505.5,237.5c0.7,0,1.2-0.1,1.5-0.4c0.3-0.3,0.4-0.8,0.4-1.5c0-0.5-0.1-0.8-0.2-1.1
		c-0.1-0.3-0.3-0.5-0.5-0.6c-0.3-0.1-0.6-0.2-1.1-0.2h-0.7v3.8H505.5z"/>
	<path class="st2" d="M512.3,232.6h1.5l2.4,11.3h-1.5l-0.5-2.9H512l-0.5,2.9h-1.5L512.3,232.6z M514.1,239.9l-1-5.1l-0.9,5.1H514.1z
		"/>
	<path class="st2" d="M517.9,243.2c-0.5-0.6-0.8-1.4-0.8-2.4l1.4-0.4c0,0.7,0.2,1.3,0.4,1.8c0.2,0.4,0.6,0.7,1.2,0.7
		c0.4,0,0.7-0.1,0.9-0.3c0.2-0.2,0.3-0.6,0.3-1c0-0.5-0.1-0.9-0.3-1.2c-0.2-0.3-0.5-0.6-0.9-1l-1.9-1.7c-0.4-0.3-0.7-0.7-0.8-1.1
		c-0.2-0.4-0.3-0.9-0.3-1.4c0-0.8,0.2-1.5,0.7-1.9c0.5-0.5,1.1-0.7,1.9-0.7c0.9,0,1.6,0.2,2,0.7c0.5,0.5,0.7,1.2,0.8,2.2l-1.3,0.4
		c0-0.7-0.2-1.2-0.4-1.5c-0.2-0.4-0.6-0.5-1.1-0.5c-0.4,0-0.7,0.1-0.9,0.3c-0.2,0.2-0.3,0.5-0.3,0.9c0,0.3,0.1,0.6,0.2,0.8
		c0.1,0.2,0.3,0.5,0.6,0.7l1.9,1.7c0.5,0.4,0.9,0.9,1.2,1.4c0.3,0.5,0.4,1.1,0.4,1.8c0,0.8-0.3,1.5-0.8,2s-1.2,0.7-2,0.7
		C519.2,244,518.4,243.7,517.9,243.2z"/>
	<path class="st2" d="M445.7,259.8c-0.5-0.7-0.7-1.6-0.7-2.8v-4c0-1.2,0.2-2.2,0.7-2.8c0.4-0.6,1.2-1,2.4-1c1,0,1.7,0.3,2.2,0.8
		s0.7,1.4,0.7,2.4v0.9h-1.5v-0.8c0-0.5,0-0.9-0.1-1.2c0-0.3-0.2-0.5-0.4-0.7s-0.5-0.3-0.9-0.3c-0.4,0-0.7,0.1-1,0.3
		s-0.3,0.4-0.4,0.8c-0.1,0.3-0.1,0.8-0.1,1.3v4.5c0,0.6,0,1,0.1,1.4c0.1,0.3,0.2,0.6,0.5,0.7c0.2,0.1,0.5,0.2,0.9,0.2
		c0.4,0,0.7-0.1,0.9-0.3c0.2-0.2,0.3-0.4,0.4-0.7c0.1-0.3,0.1-0.7,0.1-1.3v-0.8h1.5v0.8c0,1.1-0.2,2-0.6,2.6s-1.2,0.9-2.2,0.9
		C447,260.8,446.2,260.5,445.7,259.8z"/>
	<path class="st2" d="M453,259.9c-0.5-0.6-0.7-1.5-0.7-2.7v-4.3c0-1.2,0.2-2.1,0.7-2.7c0.5-0.6,1.3-0.9,2.4-0.9
		c1.1,0,1.9,0.3,2.4,0.9c0.5,0.6,0.7,1.5,0.7,2.7v4.3c0,1.2-0.2,2.1-0.7,2.7c-0.5,0.6-1.3,1-2.4,1
		C454.2,260.8,453.4,260.5,453,259.9z M456.5,259.1c0.2-0.3,0.3-0.9,0.3-1.6v-5c0-0.7-0.1-1.2-0.3-1.5c-0.2-0.3-0.6-0.5-1.2-0.5
		c-0.6,0-1,0.2-1.2,0.5c-0.2,0.3-0.3,0.8-0.3,1.5v5c0,0.7,0.1,1.2,0.3,1.6c0.2,0.3,0.6,0.5,1.2,0.5
		C455.9,259.6,456.3,259.4,456.5,259.1z"/>
	<path class="st2" d="M460.5,259.9c-0.5-0.6-0.7-1.5-0.7-2.7v-4.3c0-1.2,0.2-2.1,0.7-2.7c0.5-0.6,1.3-0.9,2.4-0.9
		c1.1,0,1.9,0.3,2.4,0.9c0.5,0.6,0.7,1.5,0.7,2.7v4.3c0,1.2-0.2,2.1-0.7,2.7c-0.5,0.6-1.3,1-2.4,1
		C461.8,260.8,461,260.5,460.5,259.9z M464.1,259.1c0.2-0.3,0.3-0.9,0.3-1.6v-5c0-0.7-0.1-1.2-0.3-1.5c-0.2-0.3-0.6-0.5-1.2-0.5
		c-0.6,0-1,0.2-1.2,0.5c-0.2,0.3-0.3,0.8-0.3,1.5v5c0,0.7,0.1,1.2,0.3,1.6c0.2,0.3,0.6,0.5,1.2,0.5
		C463.5,259.6,463.9,259.4,464.1,259.1z"/>
	<path class="st2" d="M467.5,249.4h2.3c1.1,0,2,0.2,2.5,0.7s0.8,1.2,0.8,2.3c0,1.5-0.5,2.3-1.4,2.6l1.6,5.7h-1.5l-1.5-5.3h-1.2v5.3
		h-1.6V249.4z M469.7,254.3c0.7,0,1.2-0.1,1.5-0.4c0.3-0.3,0.4-0.8,0.4-1.5c0-0.5-0.1-0.8-0.2-1.1c-0.1-0.3-0.3-0.5-0.5-0.6
		s-0.6-0.2-1.1-0.2h-0.7v3.8H469.7z"/>
	<path class="st2" d="M474.8,249.4h2.5c1.2,0,2.1,0.3,2.6,0.8s0.8,1.4,0.8,2.6v4.2c0,1.3-0.2,2.2-0.7,2.8c-0.5,0.6-1.3,0.9-2.5,0.9
		h-2.6V249.4z M477.3,259.6c0.6,0,0.9-0.1,1.2-0.3c0.2-0.2,0.4-0.5,0.5-0.9c0.1-0.4,0.1-0.9,0.1-1.7V253c0-0.6,0-1.1-0.1-1.5
		c-0.1-0.3-0.2-0.6-0.5-0.8c-0.3-0.2-0.6-0.2-1.2-0.2h-0.9v9H477.3z"/>
	<path class="st2" d="M482.3,249.4h1.6v11.3h-1.6V249.4z"/>
	<path class="st2" d="M485.7,249.4h1.1l3.2,7.5v-7.5h1.3v11.3h-1L487,253v7.7h-1.3V249.4z"/>
	<path class="st2" d="M494.8,249.4h1.5l2.4,11.3h-1.5l-0.5-2.9h-2.3l-0.5,2.9h-1.5L494.8,249.4z M496.6,256.7l-1-5.1l-0.9,5.1H496.6
		z"/>
	<path class="st2" d="M499.9,249.4h2.5c1.2,0,2.1,0.3,2.6,0.8c0.5,0.6,0.8,1.4,0.8,2.6v4.2c0,1.3-0.2,2.2-0.7,2.8s-1.3,0.9-2.5,0.9
		h-2.6V249.4z M502.4,259.6c0.6,0,0.9-0.1,1.2-0.3c0.2-0.2,0.4-0.5,0.5-0.9s0.1-0.9,0.1-1.7V253c0-0.6,0-1.1-0.1-1.5
		c-0.1-0.3-0.2-0.6-0.5-0.8c-0.3-0.2-0.6-0.2-1.2-0.2h-0.9v9H502.4z"/>
	<path class="st2" d="M507.8,259.9c-0.5-0.6-0.7-1.5-0.7-2.7v-4.3c0-1.2,0.2-2.1,0.7-2.7c0.5-0.6,1.3-0.9,2.4-0.9
		c1.1,0,1.9,0.3,2.4,0.9c0.5,0.6,0.7,1.5,0.7,2.7v4.3c0,1.2-0.2,2.1-0.7,2.7c-0.5,0.6-1.3,1-2.4,1
		C509.1,260.8,508.3,260.5,507.8,259.9z M511.4,259.1c0.2-0.3,0.3-0.9,0.3-1.6v-5c0-0.7-0.1-1.2-0.3-1.5c-0.2-0.3-0.6-0.5-1.2-0.5
		c-0.6,0-1,0.2-1.2,0.5c-0.2,0.3-0.3,0.8-0.3,1.5v5c0,0.7,0.1,1.2,0.3,1.6c0.2,0.3,0.6,0.5,1.2,0.5
		C510.8,259.6,511.2,259.4,511.4,259.1z"/>
	<path class="st2" d="M514.9,249.4h2.3c1.1,0,2,0.2,2.5,0.7s0.8,1.2,0.8,2.3c0,1.5-0.5,2.3-1.4,2.6l1.6,5.7h-1.5l-1.5-5.3h-1.2v5.3
		h-1.6V249.4z M517,254.3c0.7,0,1.2-0.1,1.5-0.4c0.3-0.3,0.4-0.8,0.4-1.5c0-0.5-0.1-0.8-0.2-1.1c-0.1-0.3-0.3-0.5-0.5-0.6
		s-0.6-0.2-1.1-0.2h-0.7v3.8H517z"/>
	<path class="st2" d="M523.9,249.4h1.5l2.4,11.3h-1.5l-0.5-2.9h-2.3l-0.5,2.9h-1.5L523.9,249.4z M525.6,256.7l-1-5.1l-0.9,5.1H525.6
		z"/>
	<path class="st2" d="M529.5,260c-0.5-0.6-0.8-1.4-0.8-2.4l1.4-0.4c0,0.7,0.2,1.3,0.4,1.8c0.2,0.4,0.6,0.7,1.2,0.7
		c0.4,0,0.7-0.1,0.9-0.3c0.2-0.2,0.3-0.6,0.3-1c0-0.5-0.1-0.9-0.3-1.2c-0.2-0.3-0.5-0.6-0.9-1l-1.9-1.7c-0.4-0.3-0.7-0.7-0.8-1.1
		s-0.3-0.9-0.3-1.4c0-0.8,0.2-1.5,0.7-1.9c0.5-0.5,1.1-0.7,1.9-0.7c0.9,0,1.6,0.2,2,0.7s0.7,1.2,0.8,2.2l-1.3,0.4
		c0-0.7-0.2-1.2-0.4-1.5c-0.2-0.4-0.6-0.5-1.1-0.5c-0.4,0-0.7,0.1-0.9,0.3c-0.2,0.2-0.3,0.5-0.3,0.9c0,0.3,0.1,0.6,0.2,0.8
		c0.1,0.2,0.3,0.5,0.6,0.7l1.9,1.7c0.5,0.4,0.9,0.9,1.2,1.4c0.3,0.5,0.4,1.1,0.4,1.8c0,0.8-0.3,1.5-0.8,2s-1.2,0.7-2,0.7
		C530.7,260.8,530,260.5,529.5,260z"/>
	<path class="st2" d="M461.7,266.2h2.5c1.2,0,2.1,0.3,2.6,0.8s0.8,1.4,0.8,2.6v4.2c0,1.3-0.2,2.2-0.7,2.8c-0.5,0.6-1.3,0.9-2.5,0.9
		h-2.6V266.2z M464.2,276.4c0.6,0,0.9-0.1,1.2-0.3c0.2-0.2,0.4-0.5,0.5-0.9c0.1-0.4,0.1-0.9,0.1-1.7v-3.7c0-0.6,0-1.1-0.1-1.5
		c-0.1-0.3-0.2-0.6-0.5-0.8c-0.3-0.2-0.6-0.2-1.2-0.2h-0.9v9H464.2z"/>
	<path class="st2" d="M469.1,266.2h4.4v1.2h-2.8v3.8h2.3v1.1h-2.3v4.2h2.8v1.1h-4.4V266.2z"/>
	<path class="st2" d="M478.5,276.6c-0.5-0.7-0.7-1.6-0.7-2.8v-4c0-1.2,0.2-2.2,0.7-2.8c0.4-0.6,1.2-1,2.4-1c1,0,1.7,0.3,2.2,0.8
		s0.7,1.4,0.7,2.4v0.9h-1.5v-0.8c0-0.5,0-0.9-0.1-1.2c0-0.3-0.2-0.5-0.4-0.7s-0.5-0.3-0.9-0.3c-0.4,0-0.7,0.1-1,0.3
		s-0.3,0.4-0.4,0.8c-0.1,0.3-0.1,0.8-0.1,1.3v4.5c0,0.6,0,1,0.1,1.4c0.1,0.3,0.2,0.6,0.5,0.7c0.2,0.1,0.5,0.2,0.9,0.2
		c0.4,0,0.7-0.1,0.9-0.3c0.2-0.2,0.3-0.4,0.4-0.7c0.1-0.3,0.1-0.7,0.1-1.3v-0.8h1.5v0.8c0,1.1-0.2,2-0.6,2.6s-1.2,0.9-2.2,0.9
		C479.7,277.6,478.9,277.3,478.5,276.6z"/>
	<path class="st2" d="M485.2,266.2h1.6v10.2h2.9v1.1h-4.5V266.2z"/>
	<path class="st2" d="M490.8,266.2h1.6v11.3h-1.6V266.2z M492,262.7h1.5l-1.6,2.8h-0.8L492,262.7z"/>
	<path class="st2" d="M494.2,266.2h1.1l3.2,7.5v-7.5h1.3v11.3h-1l-3.3-7.7v7.7h-1.3V266.2z"/>
	<path class="st2" d="M501.7,266.2h1.6v11.3h-1.6V266.2z"/>
	<path class="st2" d="M505.6,276.6c-0.5-0.7-0.7-1.6-0.7-2.8v-4c0-1.2,0.2-2.2,0.7-2.8c0.4-0.6,1.2-1,2.4-1c1,0,1.7,0.3,2.2,0.8
		s0.7,1.4,0.7,2.4v0.9h-1.5v-0.8c0-0.5,0-0.9-0.1-1.2c0-0.3-0.2-0.5-0.4-0.7s-0.5-0.3-0.9-0.3c-0.4,0-0.7,0.1-1,0.3
		c-0.2,0.2-0.3,0.4-0.4,0.8c-0.1,0.3-0.1,0.8-0.1,1.3v4.5c0,0.6,0,1,0.1,1.4c0.1,0.3,0.2,0.6,0.5,0.7c0.2,0.1,0.5,0.2,0.9,0.2
		c0.4,0,0.7-0.1,0.9-0.3c0.2-0.2,0.3-0.4,0.4-0.7c0.1-0.3,0.1-0.7,0.1-1.3v-0.8h1.5v0.8c0,1.1-0.2,2-0.6,2.6
		c-0.4,0.6-1.2,0.9-2.2,0.9C506.8,277.6,506,277.3,505.6,276.6z"/>
	<path class="st2" d="M514.1,266.2h1.5l2.4,11.3h-1.5l-0.5-2.9h-2.3l-0.5,2.9h-1.5L514.1,266.2z M515.8,273.5l-1-5.1l-0.9,5.1H515.8
		z"/>
</g>
<g>
	<rect x="290.5" y="337.5" class="st0" width="119" height="61"/>
	<path class="st1" d="M409,338v60H291v-60H409 M410,337H290v62h120V337L410,337z"/>
</g>
<g>
	<path class="st2" d="M326.2,354.4h-1.9v-1.2h5.4v1.2h-1.9v10.2h-1.6V354.4z"/>
	<path class="st2" d="M330.8,353.3h4.4v1.2h-2.8v3.8h2.3v1.1h-2.3v4.2h2.8v1.1h-4.4V353.3z M333.4,349.8h1.5l-1.6,2.8h-0.8
		L333.4,349.8z"/>
	<path class="st2" d="M336.9,363.7c-0.5-0.7-0.7-1.6-0.7-2.8v-4c0-1.2,0.2-2.2,0.7-2.8c0.4-0.6,1.2-1,2.4-1c1,0,1.7,0.3,2.2,0.8
		s0.7,1.4,0.7,2.4v0.9h-1.5v-0.8c0-0.5,0-0.9-0.1-1.2c0-0.3-0.2-0.5-0.4-0.7s-0.5-0.3-0.9-0.3c-0.4,0-0.7,0.1-1,0.3
		s-0.3,0.4-0.4,0.8c-0.1,0.3-0.1,0.8-0.1,1.3v4.5c0,0.6,0,1,0.1,1.4c0.1,0.3,0.2,0.6,0.5,0.7c0.2,0.1,0.5,0.2,0.9,0.2
		c0.4,0,0.7-0.1,0.9-0.3c0.2-0.2,0.3-0.4,0.4-0.7c0.1-0.3,0.1-0.7,0.1-1.3v-0.8h1.5v0.8c0,1.1-0.2,2-0.6,2.6s-1.2,0.9-2.2,0.9
		C338.2,364.7,337.4,364.4,336.9,363.7z"/>
	<path class="st2" d="M343.7,353.3h1.1l3.2,7.5v-7.5h1.3v11.3h-1l-3.3-7.7v7.7h-1.3V353.3z"/>
	<path class="st2" d="M351.1,353.3h1.6v11.3h-1.6V353.3z"/>
	<path class="st2" d="M355,363.7c-0.5-0.7-0.7-1.6-0.7-2.8v-4c0-1.2,0.2-2.2,0.7-2.8c0.4-0.6,1.2-1,2.4-1c1,0,1.7,0.3,2.2,0.8
		s0.7,1.4,0.7,2.4v0.9h-1.5v-0.8c0-0.5,0-0.9-0.1-1.2c0-0.3-0.2-0.5-0.4-0.7s-0.5-0.3-0.9-0.3c-0.4,0-0.7,0.1-1,0.3
		s-0.3,0.4-0.4,0.8c-0.1,0.3-0.1,0.8-0.1,1.3v4.5c0,0.6,0,1,0.1,1.4c0.1,0.3,0.2,0.6,0.5,0.7c0.2,0.1,0.5,0.2,0.9,0.2
		c0.4,0,0.7-0.1,0.9-0.3c0.2-0.2,0.3-0.4,0.4-0.7c0.1-0.3,0.1-0.7,0.1-1.3v-0.8h1.5v0.8c0,1.1-0.2,2-0.6,2.6s-1.2,0.9-2.2,0.9
		C356.3,364.7,355.5,364.4,355,363.7z"/>
	<path class="st2" d="M362.2,363.8c-0.5-0.6-0.7-1.5-0.7-2.7v-4.3c0-1.2,0.2-2.1,0.7-2.7c0.5-0.6,1.3-0.9,2.4-0.9
		c1.1,0,1.9,0.3,2.4,0.9c0.5,0.6,0.7,1.5,0.7,2.7v4.3c0,1.2-0.2,2.1-0.7,2.7c-0.5,0.6-1.3,1-2.4,1
		C363.5,364.7,362.7,364.4,362.2,363.8z M365.8,363c0.2-0.3,0.3-0.9,0.3-1.6v-5c0-0.7-0.1-1.2-0.3-1.5c-0.2-0.3-0.6-0.5-1.2-0.5
		c-0.6,0-1,0.2-1.2,0.5c-0.2,0.3-0.3,0.8-0.3,1.5v5c0,0.7,0.1,1.2,0.3,1.6c0.2,0.3,0.6,0.5,1.2,0.5
		C365.2,363.5,365.6,363.3,365.8,363z"/>
	<path class="st2" d="M369.8,363.9c-0.5-0.6-0.8-1.4-0.8-2.4l1.4-0.4c0,0.7,0.2,1.3,0.4,1.8c0.2,0.4,0.6,0.7,1.2,0.7
		c0.4,0,0.7-0.1,0.9-0.3s0.3-0.6,0.3-1c0-0.5-0.1-0.9-0.3-1.2c-0.2-0.3-0.5-0.6-0.9-1l-1.9-1.7c-0.4-0.3-0.7-0.7-0.8-1.1
		c-0.2-0.4-0.3-0.9-0.3-1.4c0-0.8,0.2-1.5,0.7-1.9c0.5-0.5,1.1-0.7,1.9-0.7c0.9,0,1.6,0.2,2,0.7c0.5,0.5,0.7,1.2,0.8,2.2l-1.3,0.4
		c0-0.7-0.2-1.2-0.4-1.5c-0.2-0.4-0.6-0.5-1.1-0.5c-0.4,0-0.7,0.1-0.9,0.3c-0.2,0.2-0.3,0.5-0.3,0.9c0,0.3,0.1,0.6,0.2,0.8
		c0.1,0.2,0.3,0.5,0.6,0.7l1.9,1.7c0.5,0.4,0.9,0.9,1.2,1.4c0.3,0.5,0.4,1.1,0.4,1.8c0,0.8-0.3,1.5-0.8,2s-1.2,0.7-2,0.7
		C371,364.7,370.3,364.4,369.8,363.9z"/>
	<path class="st2" d="M324.9,370.1h2.5c1.2,0,2.1,0.3,2.6,0.8s0.8,1.4,0.8,2.6v4.2c0,1.3-0.2,2.2-0.7,2.8c-0.5,0.6-1.3,0.9-2.5,0.9
		h-2.6V370.1z M327.4,380.3c0.6,0,0.9-0.1,1.2-0.3c0.2-0.2,0.4-0.5,0.5-0.9c0.1-0.4,0.1-0.9,0.1-1.7v-3.7c0-0.6,0-1.1-0.1-1.5
		c-0.1-0.3-0.2-0.6-0.5-0.8c-0.3-0.2-0.6-0.2-1.2-0.2h-0.9v9H327.4z"/>
	<path class="st2" d="M332.3,370.1h4.4v1.2h-2.8v3.8h2.3v1.1h-2.3v4.2h2.8v1.1h-4.4V370.1z"/>
	<path class="st2" d="M338,370.1h1.1l3.2,7.5v-7.5h1.3v11.3h-1l-3.3-7.7v7.7H338V370.1z"/>
	<path class="st2" d="M346.7,371.2h-1.9v-1.2h5.4v1.2h-1.9v10.2h-1.6V371.2z"/>
	<path class="st2" d="M353,370.1h1.5l2.4,11.3h-1.5l-0.5-2.9h-2.3l-0.5,2.9h-1.5L353,370.1z M354.7,377.4l-1-5.1l-0.9,5.1H354.7z"/>
	<path class="st2" d="M358.1,370.1h1.6v10.2h2.9v1.1h-4.5V370.1z"/>
	<path class="st2" d="M363.6,370.1h4.4v1.2h-2.8v3.8h2.3v1.1h-2.3v4.2h2.8v1.1h-4.4V370.1z"/>
	<path class="st2" d="M369.8,380.7c-0.5-0.6-0.8-1.4-0.8-2.4l1.4-0.4c0,0.7,0.2,1.3,0.4,1.8c0.2,0.4,0.6,0.7,1.2,0.7
		c0.4,0,0.7-0.1,0.9-0.3s0.3-0.6,0.3-1c0-0.5-0.1-0.9-0.3-1.2c-0.2-0.3-0.5-0.6-0.9-1l-1.9-1.7c-0.4-0.3-0.7-0.7-0.8-1.1
		c-0.2-0.4-0.3-0.9-0.3-1.4c0-0.8,0.2-1.5,0.7-1.9c0.5-0.5,1.1-0.7,1.9-0.7c0.9,0,1.6,0.2,2,0.7c0.5,0.5,0.7,1.2,0.8,2.2l-1.3,0.4
		c0-0.7-0.2-1.2-0.4-1.5c-0.2-0.4-0.6-0.5-1.1-0.5c-0.4,0-0.7,0.1-0.9,0.3c-0.2,0.2-0.3,0.5-0.3,0.9c0,0.3,0.1,0.6,0.2,0.8
		c0.1,0.2,0.3,0.5,0.6,0.7l1.9,1.7c0.5,0.4,0.9,0.9,1.2,1.4c0.3,0.5,0.4,1.1,0.4,1.8c0,0.8-0.3,1.5-0.8,2s-1.2,0.7-2,0.7
		C371,381.5,370.3,381.2,369.8,380.7z"/>
</g>
<g>
	<rect x="430.5" y="337.5" class="st0" width="119" height="61"/>
	<path class="st1" d="M549,338v60H431v-60H549 M550,337H430v62h120V337L550,337z"/>
</g>
<g>
	<path class="st2" d="M462.1,353.3h1.5l2.4,11.3h-1.5l-0.5-2.9h-2.3l-0.5,2.9h-1.5L462.1,353.3z M463.8,360.6l-1-5.1l-0.9,5.1H463.8
		z"/>
	<path class="st2" d="M468.3,364.3c-0.4-0.3-0.7-0.8-0.9-1.3c-0.2-0.6-0.3-1.3-0.3-2.1v-7.5h1.5v7.6c0,0.9,0.1,1.5,0.3,2
		c0.2,0.4,0.6,0.7,1.2,0.7c0.6,0,1-0.2,1.2-0.7c0.2-0.4,0.3-1.1,0.3-2v-7.6h1.5v7.5c0,0.9-0.1,1.6-0.3,2.1c-0.2,0.6-0.5,1-0.9,1.3
		c-0.4,0.3-1.1,0.5-1.8,0.5C469.4,364.7,468.7,364.6,468.3,364.3z"/>
	<path class="st2" d="M476.5,358.7l-2.3-5.4h1.5l1.7,4l1.6-4h1.5l-2.4,5.5l2.5,5.8H479l-1.8-4.3l-1.6,4.3h-1.5L476.5,358.7z"/>
	<path class="st2" d="M481.7,353.3h1.6v11.3h-1.6V353.3z"/>
	<path class="st2" d="M485,353.3h1.6v10.2h2.9v1.1H485V353.3z"/>
	<path class="st2" d="M490.7,353.3h1.6v11.3h-1.6V353.3z"/>
	<path class="st2" d="M495.9,353.3h1.5l2.4,11.3h-1.5l-0.5-2.9h-2.3l-0.5,2.9h-1.5L495.9,353.3z M497.6,360.6l-1-5.1l-0.9,5.1H497.6
		z"/>
	<path class="st2" d="M501,353.3h2.3c1.1,0,2,0.2,2.5,0.7c0.5,0.5,0.8,1.2,0.8,2.3c0,1.5-0.5,2.3-1.4,2.6l1.6,5.7h-1.5l-1.5-5.3
		h-1.2v5.3H501V353.3z M503.1,358.2c0.7,0,1.2-0.1,1.5-0.4c0.3-0.3,0.4-0.8,0.4-1.5c0-0.5-0.1-0.8-0.2-1.1c-0.1-0.3-0.3-0.5-0.5-0.6
		c-0.3-0.1-0.6-0.2-1.1-0.2h-0.7v3.8H503.1z"/>
	<path class="st2" d="M508.2,353.3h4.4v1.2h-2.8v3.8h2.3v1.1h-2.3v4.2h2.8v1.1h-4.4V353.3z"/>
	<path class="st2" d="M514.4,363.9c-0.5-0.6-0.8-1.4-0.8-2.4l1.4-0.4c0,0.7,0.2,1.3,0.4,1.8c0.2,0.4,0.6,0.7,1.2,0.7
		c0.4,0,0.7-0.1,0.9-0.3c0.2-0.2,0.3-0.6,0.3-1c0-0.5-0.1-0.9-0.3-1.2c-0.2-0.3-0.5-0.6-0.9-1l-1.9-1.7c-0.4-0.3-0.7-0.7-0.8-1.1
		s-0.3-0.9-0.3-1.4c0-0.8,0.2-1.5,0.7-1.9c0.5-0.5,1.1-0.7,1.9-0.7c0.9,0,1.6,0.2,2,0.7s0.7,1.2,0.8,2.2l-1.3,0.4
		c0-0.7-0.2-1.2-0.4-1.5c-0.2-0.4-0.6-0.5-1.1-0.5c-0.4,0-0.7,0.1-0.9,0.3c-0.2,0.2-0.3,0.5-0.3,0.9c0,0.3,0.1,0.6,0.2,0.8
		c0.1,0.2,0.3,0.5,0.6,0.7l1.9,1.7c0.5,0.4,0.9,0.9,1.2,1.4c0.3,0.5,0.4,1.1,0.4,1.8c0,0.8-0.3,1.5-0.8,2s-1.2,0.7-2,0.7
		C515.6,364.7,514.9,364.4,514.4,363.9z"/>
	<path class="st2" d="M458.1,370.1h2.5c1.2,0,2.1,0.3,2.6,0.8s0.8,1.4,0.8,2.6v4.2c0,1.3-0.2,2.2-0.7,2.8c-0.5,0.6-1.3,0.9-2.5,0.9
		h-2.6V370.1z M460.6,380.3c0.6,0,0.9-0.1,1.2-0.3c0.2-0.2,0.4-0.5,0.5-0.9c0.1-0.4,0.1-0.9,0.1-1.7v-3.7c0-0.6,0-1.1-0.1-1.5
		c-0.1-0.3-0.2-0.6-0.5-0.8c-0.3-0.2-0.6-0.2-1.2-0.2h-0.9v9H460.6z"/>
	<path class="st2" d="M465.5,370.1h4.4v1.2h-2.8v3.8h2.3v1.1h-2.3v4.2h2.8v1.1h-4.4V370.1z"/>
	<path class="st2" d="M474.9,380.7c-0.5-0.6-0.8-1.4-0.8-2.4l1.4-0.4c0,0.7,0.2,1.3,0.4,1.8c0.2,0.4,0.6,0.7,1.2,0.7
		c0.4,0,0.7-0.1,0.9-0.3s0.3-0.6,0.3-1c0-0.5-0.1-0.9-0.3-1.2c-0.2-0.3-0.5-0.6-0.9-1l-1.9-1.7c-0.4-0.3-0.7-0.7-0.8-1.1
		c-0.2-0.4-0.3-0.9-0.3-1.4c0-0.8,0.2-1.5,0.7-1.9c0.5-0.5,1.1-0.7,1.9-0.7c0.9,0,1.6,0.2,2,0.7c0.5,0.5,0.7,1.2,0.8,2.2l-1.3,0.4
		c0-0.7-0.2-1.2-0.4-1.5c-0.2-0.4-0.6-0.5-1.1-0.5c-0.4,0-0.7,0.1-0.9,0.3c-0.2,0.2-0.3,0.5-0.3,0.9c0,0.3,0.1,0.6,0.2,0.8
		c0.1,0.2,0.3,0.5,0.6,0.7l1.9,1.7c0.5,0.4,0.9,0.9,1.2,1.4c0.3,0.5,0.4,1.1,0.4,1.8c0,0.8-0.3,1.5-0.8,2s-1.2,0.7-2,0.7
		C476.1,381.5,475.4,381.2,474.9,380.7z"/>
	<path class="st2" d="M481,370.1h4.4v1.2h-2.8v3.8h2.3v1.1h-2.3v4.2h2.8v1.1H481V370.1z"/>
	<path class="st2" d="M486.7,370.1h2.3c1.1,0,2,0.2,2.5,0.7s0.8,1.2,0.8,2.3c0,1.5-0.5,2.3-1.4,2.6l1.6,5.7H491l-1.5-5.3h-1.2v5.3
		h-1.6V370.1z M488.9,375c0.7,0,1.2-0.1,1.5-0.4c0.3-0.3,0.4-0.8,0.4-1.5c0-0.5-0.1-0.8-0.2-1.1c-0.1-0.3-0.3-0.5-0.5-0.6
		s-0.6-0.2-1.1-0.2h-0.7v3.8H488.9z"/>
	<path class="st2" d="M493.4,370.1h1.5l1.8,8.4l1.7-8.4h1.4l-2.5,11.3H496L493.4,370.1z"/>
	<path class="st2" d="M501.1,370.1h1.6v11.3h-1.6V370.1z"/>
	<path class="st2" d="M505,380.5c-0.5-0.7-0.7-1.6-0.7-2.8v-4c0-1.2,0.2-2.2,0.7-2.8c0.4-0.6,1.2-1,2.4-1c1,0,1.7,0.3,2.2,0.8
		s0.7,1.4,0.7,2.4v0.9h-1.5v-0.8c0-0.5,0-0.9-0.1-1.2c0-0.3-0.2-0.5-0.4-0.7s-0.5-0.3-0.9-0.3c-0.4,0-0.7,0.1-1,0.3
		c-0.2,0.2-0.3,0.4-0.4,0.8c-0.1,0.3-0.1,0.8-0.1,1.3v4.5c0,0.6,0,1,0.1,1.4c0.1,0.3,0.2,0.6,0.5,0.7c0.2,0.1,0.5,0.2,0.9,0.2
		c0.4,0,0.7-0.1,0.9-0.3c0.2-0.2,0.3-0.4,0.4-0.7c0.1-0.3,0.1-0.7,0.1-1.3v-0.8h1.5v0.8c0,1.1-0.2,2-0.6,2.6
		c-0.4,0.6-1.2,0.9-2.2,0.9C506.3,381.5,505.5,381.2,505,380.5z"/>
	<path class="st2" d="M511.8,370.1h1.6v11.3h-1.6V370.1z"/>
	<path class="st2" d="M515.7,380.6c-0.5-0.6-0.7-1.5-0.7-2.7v-4.3c0-1.2,0.2-2.1,0.7-2.7c0.5-0.6,1.3-0.9,2.4-0.9s1.9,0.3,2.4,0.9
		s0.7,1.5,0.7,2.7v4.3c0,1.2-0.2,2.1-0.7,2.7c-0.5,0.6-1.3,1-2.4,1C517,381.5,516.2,381.2,515.7,380.6z M519.3,379.8
		c0.2-0.3,0.3-0.9,0.3-1.6v-5c0-0.7-0.1-1.2-0.3-1.5c-0.2-0.3-0.6-0.5-1.2-0.5c-0.6,0-1,0.2-1.2,0.5c-0.2,0.3-0.3,0.8-0.3,1.5v5
		c0,0.7,0.1,1.2,0.3,1.6c0.2,0.3,0.6,0.5,1.2,0.5C518.7,380.3,519.1,380.1,519.3,379.8z"/>
</g>
<g>
	<rect x="570.5" y="337.5" class="st0" width="119" height="61"/>
	<path class="st1" d="M689,338v60H571v-60H689 M690,337H570v62h120V337L690,337z"/>
</g>
<g>
	<path class="st2" d="M596.2,363.9c-0.5-0.6-0.8-1.4-0.8-2.4l1.4-0.4c0,0.7,0.2,1.3,0.4,1.8c0.2,0.4,0.6,0.7,1.2,0.7
		c0.4,0,0.7-0.1,0.9-0.3c0.2-0.2,0.3-0.6,0.3-1c0-0.5-0.1-0.9-0.3-1.2c-0.2-0.3-0.5-0.6-0.9-1l-1.9-1.7c-0.4-0.3-0.7-0.7-0.8-1.1
		s-0.3-0.9-0.3-1.4c0-0.8,0.2-1.5,0.7-1.9c0.5-0.5,1.1-0.7,1.9-0.7c0.9,0,1.6,0.2,2,0.7s0.7,1.2,0.8,2.2l-1.3,0.4
		c0-0.7-0.2-1.2-0.4-1.5c-0.2-0.4-0.6-0.5-1.1-0.5c-0.4,0-0.7,0.1-0.9,0.3c-0.2,0.2-0.3,0.5-0.3,0.9c0,0.3,0.1,0.6,0.2,0.8
		c0.1,0.2,0.3,0.5,0.6,0.7l1.9,1.7c0.5,0.4,0.9,0.9,1.2,1.4c0.3,0.5,0.4,1.1,0.4,1.8c0,0.8-0.3,1.5-0.8,2s-1.2,0.7-2,0.7
		C597.5,364.7,596.7,364.4,596.2,363.9z"/>
	<path class="st2" d="M602.4,353.3h4.4v1.2H604v3.8h2.3v1.1H604v4.2h2.8v1.1h-4.4V353.3z"/>
	<path class="st2" d="M608.5,363.7c-0.5-0.7-0.7-1.6-0.7-2.8v-4c0-1.2,0.2-2.2,0.7-2.8c0.4-0.6,1.2-1,2.4-1c1,0,1.7,0.3,2.2,0.8
		s0.7,1.4,0.7,2.4v0.9h-1.5v-0.8c0-0.5,0-0.9-0.1-1.2c0-0.3-0.2-0.5-0.4-0.7s-0.5-0.3-0.9-0.3c-0.4,0-0.7,0.1-1,0.3
		s-0.3,0.4-0.4,0.8c-0.1,0.3-0.1,0.8-0.1,1.3v4.5c0,0.6,0,1,0.1,1.4c0.1,0.3,0.2,0.6,0.5,0.7s0.5,0.2,0.9,0.2c0.4,0,0.7-0.1,0.9-0.3
		c0.2-0.2,0.3-0.4,0.4-0.7c0.1-0.3,0.1-0.7,0.1-1.3v-0.8h1.5v0.8c0,1.1-0.2,2-0.6,2.6s-1.2,0.9-2.2,0.9
		C609.8,364.7,609,364.4,608.5,363.7z"/>
	<path class="st2" d="M615.3,353.3h2.3c1.1,0,2,0.2,2.5,0.7s0.8,1.2,0.8,2.3c0,1.5-0.5,2.3-1.4,2.6l1.6,5.7h-1.5l-1.5-5.3h-1.2v5.3
		h-1.6V353.3z M617.5,358.2c0.7,0,1.2-0.1,1.5-0.4c0.3-0.3,0.4-0.8,0.4-1.5c0-0.5-0.1-0.8-0.2-1.1c-0.1-0.3-0.3-0.5-0.5-0.6
		s-0.6-0.2-1.1-0.2h-0.7v3.8H617.5z"/>
	<path class="st2" d="M622.5,353.3h4.4v1.2h-2.8v3.8h2.3v1.1h-2.3v4.2h2.8v1.1h-4.4V353.3z"/>
	<path class="st2" d="M629.5,354.4h-1.9v-1.2h5.4v1.2h-1.9v10.2h-1.6V354.4z"/>
	<path class="st2" d="M635.8,353.3h1.5l2.4,11.3h-1.5l-0.5-2.9h-2.3l-0.5,2.9h-1.5L635.8,353.3z M637.5,360.6l-1-5.1l-0.9,5.1H637.5
		z"/>
	<path class="st2" d="M640.9,353.3h2.3c1.1,0,2,0.2,2.5,0.7c0.5,0.5,0.8,1.2,0.8,2.3c0,1.5-0.5,2.3-1.4,2.6l1.6,5.7h-1.5l-1.5-5.3
		h-1.2v5.3h-1.6V353.3z M643.1,358.2c0.7,0,1.2-0.1,1.5-0.4c0.3-0.3,0.4-0.8,0.4-1.5c0-0.5-0.1-0.8-0.2-1.1
		c-0.1-0.3-0.3-0.5-0.5-0.6c-0.3-0.1-0.6-0.2-1.1-0.2h-0.7v3.8H643.1z"/>
	<path class="st2" d="M648.2,353.3h1.6v11.3h-1.6V353.3z"/>
	<path class="st2" d="M653.4,353.3h1.5l2.4,11.3h-1.5l-0.5-2.9H653l-0.5,2.9H651L653.4,353.3z M655.1,360.6l-1-5.1l-0.9,5.1H655.1z"
		/>
	<path class="st2" d="M659,363.9c-0.5-0.6-0.8-1.4-0.8-2.4l1.4-0.4c0,0.7,0.2,1.3,0.4,1.8c0.2,0.4,0.6,0.7,1.2,0.7
		c0.4,0,0.7-0.1,0.9-0.3s0.3-0.6,0.3-1c0-0.5-0.1-0.9-0.3-1.2c-0.2-0.3-0.5-0.6-0.9-1l-1.9-1.7c-0.4-0.3-0.7-0.7-0.8-1.1
		c-0.2-0.4-0.3-0.9-0.3-1.4c0-0.8,0.2-1.5,0.7-1.9c0.5-0.5,1.1-0.7,1.9-0.7c0.9,0,1.6,0.2,2,0.7s0.7,1.2,0.8,2.2l-1.3,0.4
		c0-0.7-0.2-1.2-0.4-1.5c-0.2-0.4-0.6-0.5-1.1-0.5c-0.4,0-0.7,0.1-0.9,0.3c-0.2,0.2-0.3,0.5-0.3,0.9c0,0.3,0.1,0.6,0.2,0.8
		c0.1,0.2,0.3,0.5,0.6,0.7l1.9,1.7c0.5,0.4,0.9,0.9,1.2,1.4c0.3,0.5,0.4,1.1,0.4,1.8c0,0.8-0.3,1.5-0.8,2s-1.2,0.7-2,0.7
		C660.2,364.7,659.5,364.4,659,363.9z"/>
	<path class="st2" d="M585.5,370.1h1.5l2.4,11.3H588l-0.5-2.9h-2.3l-0.5,2.9h-1.5L585.5,370.1z M587.3,377.4l-1-5.1l-0.9,5.1H587.3z
		"/>
	<path class="st2" d="M590.6,370.1h2.5c1.2,0,2.1,0.3,2.6,0.8c0.5,0.6,0.8,1.4,0.8,2.6v4.2c0,1.3-0.2,2.2-0.7,2.8
		c-0.5,0.6-1.3,0.9-2.5,0.9h-2.6V370.1z M593.1,380.3c0.6,0,1-0.1,1.2-0.3c0.2-0.2,0.4-0.5,0.5-0.9c0.1-0.4,0.1-0.9,0.1-1.7v-3.7
		c0-0.6,0-1.1-0.1-1.5c-0.1-0.3-0.2-0.6-0.5-0.8c-0.3-0.2-0.6-0.2-1.2-0.2h-0.9v9H593.1z"/>
	<path class="st2" d="M598.2,370.1h1.6l2,9.2l2-9.2h1.5l0.2,11.3h-1.3l-0.1-8.2l-1.9,8.2h-0.9l-1.9-8.2l-0.1,8.2H598L598.2,370.1z"
		/>
	<path class="st2" d="M607.3,370.1h1.6v11.3h-1.6V370.1z"/>
	<path class="st2" d="M610.7,370.1h1.1l3.2,7.5v-7.5h1.3v11.3h-1l-3.3-7.7v7.7h-1.3V370.1z"/>
	<path class="st2" d="M618.2,370.1h1.6v11.3h-1.6V370.1z"/>
	<path class="st2" d="M622.1,380.7c-0.5-0.6-0.8-1.4-0.8-2.4l1.4-0.4c0,0.7,0.2,1.3,0.4,1.8c0.2,0.4,0.6,0.7,1.2,0.7
		c0.4,0,0.7-0.1,0.9-0.3s0.3-0.6,0.3-1c0-0.5-0.1-0.9-0.3-1.2c-0.2-0.3-0.5-0.6-0.9-1l-1.9-1.7c-0.4-0.3-0.7-0.7-0.8-1.1
		c-0.2-0.4-0.3-0.9-0.3-1.4c0-0.8,0.2-1.5,0.7-1.9c0.5-0.5,1.1-0.7,1.9-0.7c0.9,0,1.6,0.2,2,0.7c0.5,0.5,0.7,1.2,0.8,2.2l-1.3,0.4
		c0-0.7-0.2-1.2-0.4-1.5c-0.2-0.4-0.6-0.5-1.1-0.5c-0.4,0-0.7,0.1-0.9,0.3c-0.2,0.2-0.3,0.5-0.3,0.9c0,0.3,0.1,0.6,0.2,0.8
		c0.1,0.2,0.3,0.5,0.6,0.7l1.9,1.7c0.5,0.4,0.9,0.9,1.2,1.4c0.3,0.5,0.4,1.1,0.4,1.8c0,0.8-0.3,1.5-0.8,2s-1.2,0.7-2,0.7
		C623.3,381.5,622.6,381.2,622.1,380.7z"/>
	<path class="st2" d="M629.5,371.2h-1.9v-1.2h5.4v1.2H631v10.2h-1.6V371.2z"/>
	<path class="st2" d="M634,370.1h2.3c1.1,0,2,0.2,2.5,0.7c0.5,0.5,0.8,1.2,0.8,2.3c0,1.5-0.5,2.3-1.4,2.6l1.6,5.7h-1.5l-1.5-5.3
		h-1.2v5.3H634V370.1z M636.2,375c0.7,0,1.2-0.1,1.5-0.4c0.3-0.3,0.4-0.8,0.4-1.5c0-0.5-0.1-0.8-0.2-1.1c-0.1-0.3-0.3-0.5-0.5-0.6
		c-0.3-0.1-0.6-0.2-1.1-0.2h-0.7v3.8H636.2z"/>
	<path class="st2" d="M643,370.1h1.5l2.4,11.3h-1.5l-0.5-2.9h-2.3l-0.5,2.9h-1.5L643,370.1z M644.8,377.4l-1-5.1l-0.9,5.1H644.8z"/>
	<path class="st2" d="M648.9,371.2H647v-1.2h5.4v1.2h-1.9v10.2h-1.6V371.2z"/>
	<path class="st2" d="M653.6,370.1h1.6v11.3h-1.6V370.1z"/>
	<path class="st2" d="M656.4,370.1h1.5l1.8,8.4l1.7-8.4h1.4l-2.5,11.3h-1.4L656.4,370.1z"/>
	<path class="st2" d="M665.4,370.1h1.5l2.4,11.3h-1.5l-0.5-2.9H665l-0.5,2.9H663L665.4,370.1z M667.1,377.4l-1-5.1l-0.9,5.1H667.1z"
		/>
	<path class="st2" d="M671,380.7c-0.5-0.6-0.8-1.4-0.8-2.4l1.4-0.4c0,0.7,0.2,1.3,0.4,1.8c0.2,0.4,0.6,0.7,1.2,0.7
		c0.4,0,0.7-0.1,0.9-0.3c0.2-0.2,0.3-0.6,0.3-1c0-0.5-0.1-0.9-0.3-1.2c-0.2-0.3-0.5-0.6-0.9-1l-1.9-1.7c-0.4-0.3-0.7-0.7-0.8-1.1
		s-0.3-0.9-0.3-1.4c0-0.8,0.2-1.5,0.7-1.9c0.5-0.5,1.1-0.7,1.9-0.7c0.9,0,1.6,0.2,2,0.7s0.7,1.2,0.8,2.2l-1.3,0.4
		c0-0.7-0.2-1.2-0.4-1.5c-0.2-0.4-0.6-0.5-1.1-0.5c-0.4,0-0.7,0.1-0.9,0.3c-0.2,0.2-0.3,0.5-0.3,0.9c0,0.3,0.1,0.6,0.2,0.8
		c0.1,0.2,0.3,0.5,0.6,0.7l1.9,1.7c0.5,0.4,0.9,0.9,1.2,1.4c0.3,0.5,0.4,1.1,0.4,1.8c0,0.8-0.3,1.5-0.8,2s-1.2,0.7-2,0.7
		C672.2,381.5,671.5,381.2,671,380.7z"/>
</g>
<g>
	<line class="st3" x1="419.5" y1="59.5" x2="419.5" y2="79.5"/>
</g>
<line class="st3" x1="69.5" y1="79.5" x2="629.5" y2="79.5"/>
<line class="st3" x1="69.5" y1="79.5" x2="69.5" y2="98.5"/>
<line class="st3" x1="209.5" y1="79.5" x2="209.5" y2="98.5"/>
<line class="st3" x1="349.5" y1="79.5" x2="349.5" y2="98.5"/>
<line class="st3" x1="489.5" y1="79.5" x2="489.5" y2="98.5"/>
<line class="st3" x1="629.5" y1="79.5" x2="629.5" y2="98.5"/>
<line class="st3" x1="770.5" y1="32.5" x2="770.5" y2="98.5"/>
<line class="st3" x1="479.5" y1="32.5" x2="770.5" y2="32.5"/>
<line class="st3" x1="69.5" y1="177.5" x2="69.5" y2="216.5"/>
<line class="st3" x1="209.5" y1="177.5" x2="209.5" y2="216.5"/>
<line class="st3" x1="349.5" y1="177.5" x2="349.5" y2="217.5"/>
<line class="st3" x1="490.5" y1="177.5" x2="490.5" y2="218.5"/>
<line class="st3" x1="489.5" y1="296.5" x2="489.5" y2="317.5"/>
<line class="st3" x1="349.5" y1="317.5" x2="630.5" y2="317.5"/>
<line class="st3" x1="349.5" y1="336.5" x2="349.5" y2="317.5"/>
<line class="st3" x1="489.5" y1="337.5" x2="489.5" y2="317.5"/>
<line class="st3" x1="630.5" y1="336.5" x2="630.5" y2="317.5"/>
</svg>
