<?xml version="1.0" encoding="utf-8"?>
<!-- Generator: Adobe Illustrator 21.1.0, SVG Export Plug-In . SVG Version: 6.00 Build 0)  -->
<svg version="1.1" id="Capa_1" xmlns="http://www.w3.org/2000/svg" xmlns:xlink="http://www.w3.org/1999/xlink" x="0px" y="0px"
	 viewBox="0 0 500 500" style="enable-background:new 0 0 500 500;" xml:space="preserve">
<style type="text/css">
	.st0{fill:#3D93C1;}
	.st1{fill:none;}
	.st2{fill:#BFE2EF;}
	.st3{enable-background:new    ;}
	.st4{fill:#FFFFFF;}
</style>
<g>
	<g>
		<path class="st0" d="M147.8,125.9h10.4c0-0.9,0-1.8,0-2.7h-10.4C147.8,124.1,147.8,125,147.8,125.9z"/>
		<path class="st0" d="M158.3,102h-10.4c0,1.2,0,2.5,0,3.7h10.4C158.3,104.5,158.3,103.2,158.3,102z"/>
		<path class="st0" d="M147.8,112.5h10.4c0-0.9,0-1.8,0-2.7h-10.4C147.8,110.6,147.8,111.5,147.8,112.5z"/>
		<path class="st0" d="M147.8,122.5h10.4c0-0.9,0-1.8,0-2.7h-10.4C147.8,120.7,147.8,121.6,147.8,122.5z"/>
		<path class="st0" d="M147.8,119.2h10.4c0-0.9,0-1.8,0-2.7h-10.4C147.8,117.4,147.8,118.3,147.8,119.2z"/>
		<path class="st0" d="M147.8,109.1h10.4c0-0.9,0-1.8,0-2.7h-10.4C147.8,107.3,147.8,108.2,147.8,109.1z"/>
		<path class="st0" d="M147.8,115.8h10.4c0-0.9,0-1.8,0-2.7h-10.4C147.8,114,147.8,114.9,147.8,115.8z"/>
		<path class="st0" d="M147.8,162.8h10.4c0-0.9,0-1.8,0-2.7h-10.4C147.8,161,147.8,161.9,147.8,162.8z"/>
		<path class="st0" d="M147.8,169.5h10.4c0-0.9,0-1.8,0-2.7h-10.4C147.8,167.7,147.8,168.6,147.8,169.5z"/>
		<path class="st0" d="M147.8,166.2h10.4c0-0.9,0-1.8,0-2.7h-10.4C147.8,164.3,147.8,165.2,147.8,166.2z"/>
		<path class="st0" d="M147.8,159.4h10.4c0-0.9,0-1.8,0-2.7h-10.4C147.8,157.6,147.8,158.5,147.8,159.4z"/>
		<path class="st0" d="M147.8,129.2h10.4c0-0.9,0-1.8,0-2.7h-10.4C147.8,127.4,147.8,128.3,147.8,129.2z"/>
		<path class="st0" d="M155.8,20.3c1.7,1.3,3.4,2.9,4.4,4.6c0.2,0.4,0.4,0.9,0.5,1.3c0,0.2,0.1,0.4,0,0.6l-0.1,0.7
			c0,0.7-0.3,0.9-0.4,1.3c-0.2,0.4-0.3,0.9-0.6,1.3c-0.4,0.9-1,1.7-1.5,2.4c-3,4.8-5,4.4-5.7,7.2c-0.4,1.7-0.9,4.2-1.4,7.3
			c-0.6,3.2-1.3,7-2,11.4c-0.4,2.2-0.7,4.5-1.2,7c-0.2,1.2-0.3,2.5-0.1,3.8c0.1,1.3,0,2.6,0,4c0,7.5,0,15.9,0,24.8h10.4
			c0-8.9,0-17.3,0-24.8c0-1.3,0-2.7,0-4c0.1-1.3,0.1-2.6-0.1-3.8c-0.4-2.5-0.8-4.8-1.2-7c-0.7-4.4-1.4-8.2-2-11.4
			c-0.6-3.1-1.1-5.6-1.4-7.3c0-0.2-0.1-0.4-0.1-0.6c0.9-0.3,2.7-1.1,4.8-2.7c0.4-0.3,0.7-0.6,1.1-0.9c0.4-0.4,0.7-0.7,1.1-1.1
			c0.7-0.8,1.4-1.7,2-2.9c0.3-0.5,0.5-1.2,0.7-1.8c0.1-0.7,0.3-1.5,0.3-2v-0.4v-0.2V27l0,0c0,0,0-0.2,0-0.1l0,0v-0.1
			c0-0.4-0.1-0.8-0.2-1.1c-0.2-0.7-0.5-1.3-0.9-1.9c-1.5-2.2-3.6-3.6-5.5-4.8s-3.8-2.1-5.4-2.8c-3.2-1.4-5.5-2.1-5.5-2.1l-0.1,0.3
			c0,0,2.1,1,5.1,2.8C152.4,17.9,154.1,19.1,155.8,20.3z"/>
		<path class="st0" d="M147.8,176.2h10.4c0-0.9,0-1.8,0-2.7h-10.4C147.8,174.4,147.8,175.3,147.8,176.2z"/>
		<path class="st0" d="M147.8,172.9h10.4c0-0.9,0-1.8,0-2.7h-10.4C147.8,171.1,147.8,172,147.8,172.9z"/>
		<path class="st0" d="M147.8,156.1h10.4c0-0.9,0-1.8,0-2.7h-10.4C147.8,154.3,147.8,155.2,147.8,156.1z"/>
		<path class="st0" d="M147.8,135.9h10.4c0-0.9,0-1.8,0-2.7h-10.4C147.8,134.1,147.8,135,147.8,135.9z"/>
		<path class="st0" d="M147.8,139.3h10.4c0-0.9,0-1.8,0-2.7h-10.4C147.8,137.5,147.8,138.4,147.8,139.3z"/>
		<path class="st0" d="M147.8,132.6h10.4c0-0.9,0-1.8,0-2.7h-10.4C147.8,130.8,147.8,131.7,147.8,132.6z"/>
		<path class="st0" d="M147.8,146h10.4c0-0.9,0-1.8,0-2.7h-10.4C147.8,144.2,147.8,145.1,147.8,146z"/>
		<path class="st0" d="M147.8,149.4h10.4c0-0.9,0-1.8,0-2.7h-10.4C147.8,147.6,147.8,148.5,147.8,149.4z"/>
		<path class="st0" d="M147.8,152.7h10.4c0-0.9,0-1.8,0-2.7h-10.4C147.8,150.9,147.8,151.8,147.8,152.7z"/>
		<path class="st0" d="M147.8,142.7h10.4c0-0.9,0-1.8,0-2.7h-10.4C147.8,140.9,147.8,141.8,147.8,142.7z"/>
	</g>
	<g>
		<path class="st0" d="M352.2,169.9h-10.4c0,0.9,0,1.8,0,2.7h10.4C352.2,171.7,352.2,170.8,352.2,169.9z"/>
		<path class="st0" d="M341.8,176h10.4c0-0.9,0-1.8,0-2.7h-10.4C341.8,174.2,341.8,175.1,341.8,176z"/>
		<path class="st0" d="M348.8,53.6h-3.7c-0.1,0.8,0,32.9,0,38.5h3.8C348.9,86.5,348.9,54.4,348.8,53.6z"/>
		<path class="st0" d="M352.2,166.6h-10.4c0,0.9,0,1.8,0,2.7h10.4C352.2,168.4,352.2,167.5,352.2,166.6z"/>
		<circle class="st0" cx="347" cy="32.8" r="18.8"/>
		<path class="st0" d="M341.8,155h10.4c0-8.9,0.2-60.1-0.1-61.3h-10.3C341.6,94.9,341.8,146,341.8,155z"/>
		<path class="st0" d="M352.2,158.9h-10.4c0,1.2,0,2.5,0,3.7h10.4C352.2,161.3,352.2,160.1,352.2,158.9z"/>
		<path class="st0" d="M352.2,163.2h-10.4c0,0.9,0,1.8,0,2.7h10.4C352.2,165,352.2,164.1,352.2,163.2z"/>
	</g>
	<g>
		<path class="st0" d="M308,96.2h-10.4c0,1.2,0,2.5,0,3.7H308C308,98.6,308,97.4,308,96.2z"/>
		<path class="st0" d="M297.6,174.4c0,0.6,0,1.3,0,1.9H308c0-0.6,0-1.3,0-1.9H297.6z"/>
		<path class="st0" d="M297.6,103.2H308c0-0.9,0-1.8,0-2.7h-10.4C297.6,101.4,297.6,102.3,297.6,103.2z"/>
		<path class="st0" d="M297.6,106.6H308c0-0.9,0-1.8,0-2.7h-10.4C297.6,104.8,297.6,105.7,297.6,106.6z"/>
		<path class="st0" d="M297.6,116.7H308c0-0.9,0-1.8,0-2.7h-10.4C297.6,114.9,297.6,115.8,297.6,116.7z"/>
		<path class="st0" d="M297.6,110H308c0-0.9,0-1.8,0-2.7h-10.4C297.6,108.1,297.6,109,297.6,110z"/>
		<path class="st0" d="M297.6,120H308c0-0.9,0-1.8,0-2.7h-10.4C297.6,118.2,297.6,119.1,297.6,120z"/>
		<path class="st0" d="M297.6,113.3H308c0-0.9,0-1.8,0-2.7h-10.4C297.6,111.5,297.6,112.4,297.6,113.3z"/>
		<path class="st0" d="M297.6,123.4H308c0-0.9,0-1.8,0-2.7h-10.4C297.6,121.6,297.6,122.5,297.6,123.4z"/>
		<path class="st0" d="M297.6,160.3H308c0-0.9,0-1.8,0-2.7h-10.4C297.6,158.5,297.6,159.4,297.6,160.3z"/>
		<path class="st0" d="M297.6,167H308c0-0.9,0-1.8,0-2.7h-10.4C297.6,165.2,297.6,166.1,297.6,167z"/>
		<path class="st0" d="M297.6,126.7H308c0-0.9,0-1.8,0-2.7h-10.4C297.6,124.9,297.6,125.8,297.6,126.7z"/>
		<path class="st0" d="M297.6,156.9H308c0-0.9,0-1.8,0-2.7h-10.4C297.6,155.1,297.6,156,297.6,156.9z"/>
		<path class="st0" d="M297.6,173.7H308c0-0.9,0-1.8,0-2.7h-10.4C297.6,171.9,297.6,172.8,297.6,173.7z"/>
		<path class="st0" d="M297.6,170.4H308c0-0.9,0-1.8,0-2.7h-10.4C297.6,168.6,297.6,169.5,297.6,170.4z"/>
		<path class="st0" d="M297.6,67.4c0,7.5,0,15.9,0,24.8H308c0-8.9,0-17.3,0-24.8c0-1.3,0-2.7,0-4c0.1-1.3,0.1-2.6-0.1-3.8
			c-0.4-2.5-0.8-4.8-1.2-7c-0.7-4.4-1.4-8.2-2-11.4c-0.6-3.1-1.1-5.6-1.4-7.3v-0.1c0.2,0,0.4,0.1,0.7,0.1c0.5,0,1,0,1.7,0
			c0.6-0.1,1.4-0.3,2.1-0.6c0.8-0.3,1.6-0.8,2.3-1.5c0.4-0.3,0.7-0.7,1-1.1s0.6-0.8,0.8-1.3c0.5-0.9,0.7-2,0.9-3
			c0.1-0.5,0.1-1.1,0.2-1.6v-1.5v-0.4v-0.2v-0.2l-0.1-0.8c0-0.5-0.1-1-0.2-1.5s-0.2-1-0.5-1.5c-0.2-0.5-0.4-1-0.7-1.4
			c-0.1-0.2-0.3-0.4-0.4-0.6l-0.5-0.5c-0.3-0.4-0.7-0.6-1.1-0.9c-0.4-0.3-0.8-0.4-1.2-0.6c-0.4-0.1-0.8-0.3-1.2-0.4
			c-1.5-0.4-2.8-0.3-3.6-0.3c-0.9,0.1-1.4,0.2-1.4,0.2v0.3c0,0,0.5,0,1.3,0c0.8,0.1,2,0.2,3.3,0.7c0.3,0.1,0.6,0.3,1,0.5
			c0.3,0.2,0.6,0.4,0.9,0.6c0.3,0.3,0.6,0.5,0.8,0.8l0.4,0.5c0.1,0.2,0.2,0.4,0.3,0.5c0.2,0.3,0.3,0.7,0.5,1.2
			c0.2,0.4,0.2,0.8,0.2,1.3c0.1,0.4,0.1,0.9,0.1,1.3v0.7v0.2v0.1v0.4l-0.2,1.5c-0.1,0.4-0.2,0.8-0.3,1.3c-0.3,0.8-0.6,1.6-0.9,2.3
			c-0.3,0.7-0.8,1.3-1.2,1.9c-0.4,0.6-1,1-1.5,1.4c-0.3,0.2-0.5,0.4-0.8,0.5s-0.5,0.3-0.8,0.4c-1.1,0.7-2.6-0.7-3.1,1.5
			c-0.3,1.7-0.9,4.2-1.4,7.3c-0.6,3.2-1.3,7-2,11.4c-0.4,2.2-0.7,4.5-1.2,7c-0.2,1.2-0.3,2.5-0.1,3.8
			C297.6,64.7,297.6,66,297.6,67.4z"/>
		<path class="st0" d="M297.6,153.6H308c0-0.9,0-1.8,0-2.7h-10.4C297.6,151.8,297.6,152.7,297.6,153.6z"/>
		<path class="st0" d="M297.6,163.7H308c0-0.9,0-1.8,0-2.7h-10.4C297.6,161.8,297.6,162.8,297.6,163.7z"/>
		<path class="st0" d="M297.6,133.5H308c0-0.9,0-1.8,0-2.7h-10.4C297.6,131.6,297.6,132.5,297.6,133.5z"/>
		<path class="st0" d="M297.6,136.8H308c0-0.9,0-1.8,0-2.7h-10.4C297.6,135,297.6,135.9,297.6,136.8z"/>
		<path class="st0" d="M297.6,130.1H308c0-0.9,0-1.8,0-2.7h-10.4C297.6,128.3,297.6,129.2,297.6,130.1z"/>
		<path class="st0" d="M297.6,146.9H308c0-0.9,0-1.8,0-2.7h-10.4C297.6,145.1,297.6,146,297.6,146.9z"/>
		<path class="st0" d="M297.6,150.2H308c0-0.9,0-1.8,0-2.7h-10.4C297.6,148.4,297.6,149.3,297.6,150.2z"/>
		<path class="st0" d="M297.6,140.2H308c0-0.9,0-1.8,0-2.7h-10.4C297.6,138.4,297.6,139.3,297.6,140.2z"/>
		<path class="st0" d="M297.6,143.5H308c0-0.9,0-1.8,0-2.7h-10.4C297.6,141.7,297.6,142.6,297.6,143.5z"/>
	</g>
	<g>
		<rect x="248" y="74.3" class="st0" width="15.5" height="2.5"/>
		<rect x="248.2" y="86.1" class="st0" width="15.5" height="90.2"/>
		<path class="st0" d="M256.8,70.5h14.4c0.6,0,1-0.5,1-1c0-0.6-0.5-1-1-1h-14.4V67h14.4c0.6,0,1-0.5,1-1c0-0.6-0.5-1-1-1h-14.4v-1.4
			h14.4c0.6,0,1-0.5,1-1c0-0.6-0.5-1-1-1h-14.4V60h14.4c0.6,0,1-0.5,1-1c0-0.6-0.5-1-1-1h-14.4v-1.4h14.4c0.6,0,1-0.5,1-1
			c0-0.6-0.5-1-1-1h-14.4v-1.4h14.4c0.6,0,1-0.5,1-1c0-0.6-0.5-1-1-1h-14.4v-1.4h14.4c0.6,0,1-0.5,1-1c0-0.6-0.5-1-1-1h-14.4v-1.4
			h14.4c0.6,0,1-0.5,1-1c0-0.6-0.5-1-1-1h-14.4V43h14.4c0.6,0,1-0.5,1-1c0-0.6-0.5-1-1-1h-14.4v-1.4h14.4c0.6,0,1-0.5,1-1
			c0-0.6-0.5-1-1-1h-14.4v-1.4h14.4c0.6,0,1-0.5,1-1c0-0.6-0.5-1-1-1h-14.4v-1.4h14.4c0.6,0,1-0.5,1-1c0-0.6-0.5-1-1-1h-14.4v-1.4
			h14.4c0.6,0,1-0.5,1-1c0-0.6-0.5-1-1-1h-14.4V26h14.4c0.6,0,1-0.5,1-1c0-0.6-0.5-1-1-1h-14.4v-1.4h14.4c0.6,0,1-0.5,1-1
			c0-0.6-0.5-1-1-1h-14.4v-1.3c0-2.4-2-4.4-4.4-4.4s-4.4,2-4.4,4.4v53.2h8.8V70.5z"/>
		<path class="st0" d="M244.4,67.7c0,0.9,0.3,1.7,0.7,2v0.7h1.9V20.5h-1.9v0.7c-0.4,0.3-0.7,1.1-0.7,2s0.3,1.7,0.7,2v1.6
			c-0.4,0.3-0.7,1.1-0.7,2s0.3,1.7,0.7,2v1.6c-0.4,0.3-0.7,1.1-0.7,2s0.3,1.7,0.7,2V38c-0.4,0.3-0.7,1.1-0.7,2s0.3,1.7,0.7,2v1.6
			c-0.4,0.3-0.7,1.1-0.7,2s0.3,1.7,0.7,2V49c-0.4,0.3-0.7,1.1-0.7,2s0.3,1.7,0.7,2v1.6c-0.4,0.3-0.7,1.1-0.7,2s0.3,1.7,0.7,2v1.6
			c-0.4,0.3-0.7,1.1-0.7,2s0.3,1.7,0.7,2v1.6C244.7,66,244.4,66.8,244.4,67.7z"/>
		<rect x="248" y="82.2" class="st0" width="15.5" height="2.5"/>
		<rect x="248" y="78.2" class="st0" width="15.5" height="2.5"/>
	</g>
	<rect x="175.8" y="45.6" class="st1" width="25.7" height="23.3"/>
	<polygon class="st1" points="205.6,67.8 213.1,64.4 213.1,50.1 205.6,46.8 	"/>
	<rect x="180.3" y="45.6" class="st1" width="25.7" height="23.3"/>
	<polygon class="st1" points="210.1,67.8 217.6,64.4 217.6,50.1 210.1,46.8 	"/>
	<path class="st0" d="M221.5,58.6v-7c0-0.8-0.5-1.5-1.2-1.8c0,0-11.7-5.3-12.2-5.3h-29.8c-1.1,0-1.9,0.9-1.9,1.9v27.2
		c0,0.7,0.4,1.3,1,1.7c-0.1,0.6-0.1,1.2-0.1,1.8v1.7h-0.1v96.3h32.1V78.8l0,0v-1.7c0-0.6-0.1-1.3-0.1-1.9c2.9-1.2,11.3-5,11.3-5
		c0.7-0.3,1.2-1,1.2-1.8v-7h16.4v-2.9L221.5,58.6z M206,71.7h-25.7V48.4H206V71.7z M217.6,67.2l-7.6,3.4v-21l7.6,3.4V67.2z"/>
	<g>
		<rect x="84.9" y="175" class="st0" width="330.2" height="99.9"/>
		<rect x="171.8" y="190.7" class="st2" width="156.3" height="7.2"/>
	</g>
	<g>
		<rect x="84.9" y="279" class="st0" width="330.2" height="99.9"/>
		<rect x="171.8" y="294.7" class="st2" width="156.3" height="7.2"/>
	</g>
	<g>
		<rect x="84.9" y="383.1" class="st0" width="330.2" height="99.9"/>
		<rect x="171.8" y="398.7" class="st2" width="156.3" height="7.2"/>
	</g>
</g>
<g class="st3">
	<path class="st4" d="M168.9,239.2c-0.6-0.9-0.9-2.1-0.9-3.6v-5.2c0-1.6,0.3-2.8,0.9-3.7c0.6-0.8,1.6-1.3,3.1-1.3
		c1.3,0,2.3,0.4,2.8,1.1c0.6,0.7,0.9,1.8,0.9,3.2v1.2h-1.9v-1c0-0.7,0-1.2-0.1-1.6c-0.1-0.4-0.2-0.7-0.5-0.9s-0.6-0.3-1.2-0.3
		c-0.6,0-1,0.1-1.2,0.4c-0.3,0.2-0.5,0.6-0.5,1s-0.1,1-0.1,1.7v5.8c0,0.8,0.1,1.3,0.2,1.8c0.1,0.4,0.3,0.7,0.6,0.9
		c0.3,0.2,0.6,0.3,1.1,0.3c0.5,0,0.9-0.1,1.2-0.3c0.3-0.2,0.4-0.5,0.5-0.9c0.1-0.4,0.1-0.9,0.1-1.6v-1.1h1.9v1.1
		c0,1.5-0.3,2.6-0.8,3.4s-1.5,1.2-2.9,1.2C170.5,240.5,169.5,240.1,168.9,239.2z"/>
	<path class="st4" d="M177.8,225.7h2v14.7h-2V225.7z"/>
	<path class="st4" d="M182.1,225.7h5.7v1.5h-3.6v4.9h3v1.5h-3v5.4h3.7v1.5h-5.7V225.7z"/>
	<path class="st4" d="M189.5,225.7h1.4l4.2,9.8v-9.8h1.7v14.7h-1.3l-4.2-10v10h-1.7V225.7z"/>
	<path class="st4" d="M199.7,239.2c-0.6-0.9-0.9-2.1-0.9-3.6v-5.2c0-1.6,0.3-2.8,0.9-3.7c0.6-0.8,1.6-1.3,3.1-1.3
		c1.3,0,2.3,0.4,2.8,1.1c0.6,0.7,0.9,1.8,0.9,3.2v1.2h-1.9v-1c0-0.7,0-1.2-0.1-1.6c-0.1-0.4-0.2-0.7-0.5-0.9s-0.6-0.3-1.2-0.3
		c-0.6,0-1,0.1-1.2,0.4c-0.3,0.2-0.5,0.6-0.5,1s-0.1,1-0.1,1.7v5.8c0,0.8,0.1,1.3,0.2,1.8c0.1,0.4,0.3,0.7,0.6,0.9
		c0.3,0.2,0.6,0.3,1.1,0.3c0.5,0,0.9-0.1,1.2-0.3c0.3-0.2,0.4-0.5,0.5-0.9c0.1-0.4,0.1-0.9,0.1-1.6v-1.1h1.9v1.1
		c0,1.5-0.3,2.6-0.8,3.4s-1.5,1.2-2.9,1.2C201.3,240.5,200.3,240.1,199.7,239.2z"/>
	<path class="st4" d="M208.6,225.7h2v14.7h-2V225.7z"/>
	<path class="st4" d="M215.3,225.7h2l3.1,14.7h-1.9l-0.7-3.7h-3l-0.7,3.7h-1.9L215.3,225.7z M217.5,235.2l-1.2-6.6l-1.2,6.6H217.5z"
		/>
	<path class="st4" d="M222.5,239.4c-0.6-0.8-1-1.8-1.1-3.1l1.8-0.5c0.1,0.9,0.2,1.7,0.6,2.3c0.3,0.6,0.8,0.9,1.5,0.9
		c0.5,0,0.9-0.1,1.2-0.4c0.3-0.3,0.4-0.7,0.4-1.3c0-0.6-0.1-1.1-0.4-1.5c-0.3-0.4-0.7-0.8-1.2-1.3l-2.5-2.2
		c-0.5-0.4-0.9-0.9-1.1-1.4c-0.2-0.5-0.3-1.1-0.3-1.8c0-1.1,0.3-1.9,0.9-2.5c0.6-0.6,1.5-0.9,2.5-0.9c1.2,0,2,0.3,2.6,0.9
		c0.6,0.6,0.9,1.6,1.1,2.9l-1.7,0.5c-0.1-0.9-0.2-1.5-0.5-2c-0.3-0.5-0.8-0.7-1.5-0.7c-0.5,0-0.9,0.1-1.2,0.4
		c-0.3,0.3-0.4,0.7-0.4,1.2c0,0.4,0.1,0.8,0.2,1.1c0.1,0.3,0.4,0.6,0.7,0.9l2.5,2.2c0.6,0.6,1.2,1.2,1.5,1.8
		c0.4,0.7,0.6,1.4,0.6,2.3c0,1.1-0.3,1.9-1,2.6c-0.7,0.6-1.5,0.9-2.5,0.9C224.1,240.5,223.2,240.2,222.5,239.4z"/>
	<path class="st4" d="M236.9,235.2l-3.2-9.5h1.9l2.2,7.1l2.2-7.1h1.9l-3.2,9.5v5.2h-2V235.2z"/>
	<path class="st4" d="M249.1,227.2h-2.5v-1.5h6.9v1.5h-2.4v13.2h-2V227.2z"/>
	<path class="st4" d="M255,225.7h5.7v1.5H257v4.9h3v1.5h-3v5.4h3.7v1.5H255V225.7z"/>
	<path class="st4" d="M263,239.2c-0.6-0.9-0.9-2.1-0.9-3.6v-5.2c0-1.6,0.3-2.8,0.9-3.7c0.6-0.8,1.6-1.3,3.1-1.3
		c1.3,0,2.3,0.4,2.8,1.1c0.6,0.7,0.9,1.8,0.9,3.2v1.2h-1.9v-1c0-0.7,0-1.2-0.1-1.6c-0.1-0.4-0.2-0.7-0.5-0.9s-0.6-0.3-1.2-0.3
		c-0.6,0-1,0.1-1.2,0.4c-0.3,0.2-0.5,0.6-0.5,1s-0.1,1-0.1,1.7v5.8c0,0.8,0.1,1.3,0.2,1.8c0.1,0.4,0.3,0.7,0.6,0.9
		c0.3,0.2,0.6,0.3,1.1,0.3c0.5,0,0.9-0.1,1.2-0.3s0.4-0.5,0.5-0.9c0.1-0.4,0.1-0.9,0.1-1.6v-1.1h1.9v1.1c0,1.5-0.3,2.6-0.8,3.4
		c-0.6,0.8-1.5,1.2-2.9,1.2C264.6,240.5,263.6,240.1,263,239.2z"/>
	<path class="st4" d="M271.7,225.7h1.4l4.2,9.8v-9.8h1.7v14.7h-1.3l-4.2-10v10h-1.7V225.7z"/>
	<path class="st4" d="M281.9,239.3c-0.6-0.8-0.9-2-0.9-3.5v-5.6c0-1.5,0.3-2.7,0.9-3.5s1.7-1.2,3.1-1.2s2.5,0.4,3.1,1.2
		c0.6,0.8,0.9,1.9,0.9,3.5v5.6c0,1.5-0.3,2.7-0.9,3.5s-1.7,1.2-3.1,1.2C283.6,240.5,282.6,240.1,281.9,239.3z M286.6,238.3
		c0.3-0.4,0.4-1.1,0.4-2v-6.4c0-0.9-0.1-1.6-0.4-2c-0.3-0.4-0.8-0.6-1.5-0.6c-0.8,0-1.3,0.2-1.6,0.6c-0.3,0.4-0.4,1.1-0.4,2v6.4
		c0,0.9,0.1,1.6,0.4,2c0.3,0.4,0.8,0.7,1.6,0.7C285.8,238.9,286.3,238.7,286.6,238.3z"/>
	<path class="st4" d="M291,225.7h2v13.2h3.8v1.5H291V225.7z"/>
	<path class="st4" d="M298.8,239.3c-0.6-0.8-0.9-2-0.9-3.5v-5.6c0-1.5,0.3-2.7,0.9-3.5s1.7-1.2,3.1-1.2s2.5,0.4,3.1,1.2
		c0.6,0.8,0.9,1.9,0.9,3.5v5.6c0,1.5-0.3,2.7-0.9,3.5s-1.7,1.2-3.1,1.2C300.5,240.5,299.4,240.1,298.8,239.3z M303.4,238.3
		c0.3-0.4,0.4-1.1,0.4-2v-6.4c0-0.9-0.1-1.6-0.4-2c-0.3-0.4-0.8-0.6-1.5-0.6c-0.8,0-1.3,0.2-1.6,0.6c-0.3,0.4-0.4,1.1-0.4,2v6.4
		c0,0.9,0.1,1.6,0.4,2c0.3,0.4,0.8,0.7,1.6,0.7C302.7,238.9,303.2,238.7,303.4,238.3z"/>
	<path class="st4" d="M308.5,239.3c-0.6-0.8-0.9-2.1-0.9-3.7v-4.9c0-1.1,0.1-2.1,0.4-2.8c0.2-0.7,0.6-1.3,1.2-1.7
		c0.6-0.4,1.4-0.6,2.4-0.6c1.4,0,2.3,0.3,2.9,1s0.9,1.8,0.9,3.2v0.5h-1.9v-0.5c0-0.7,0-1.2-0.1-1.6c-0.1-0.4-0.3-0.7-0.5-0.9
		c-0.3-0.2-0.7-0.3-1.2-0.3c-0.6,0-1,0.1-1.3,0.4c-0.3,0.3-0.5,0.6-0.5,1c-0.1,0.4-0.1,1-0.1,1.7v5.4c0,1.1,0.1,1.9,0.4,2.4
		c0.3,0.5,0.8,0.7,1.6,0.7c0.8,0,1.3-0.3,1.6-0.8s0.4-1.4,0.4-2.6v-1h-1.9v-1.5h3.7v7.3h-1.3l-0.2-1.7c-0.5,1.2-1.3,1.9-2.6,1.9
		C310.1,240.6,309.1,240.1,308.5,239.3z"/>
	<path class="st4" d="M317.7,225.7h2v14.7h-2V225.7z M319.3,221.2h1.9l-2,3.6h-1L319.3,221.2z"/>
	<path class="st4" d="M324.4,225.7h2l3.1,14.7h-1.9l-0.7-3.7h-3l-0.7,3.7h-1.9L324.4,225.7z M326.7,235.2l-1.2-6.6l-1.2,6.6H326.7z"
		/>
</g>
<g class="st3">
	<path class="st4" d="M162.8,346.7c-0.6-0.9-0.9-2.1-0.9-3.6V338c0-1.6,0.3-2.8,0.9-3.7c0.6-0.8,1.6-1.3,3.1-1.3
		c1.3,0,2.3,0.4,2.8,1.1c0.6,0.7,0.9,1.8,0.9,3.2v1.2h-1.9v-1c0-0.7,0-1.2-0.1-1.6c-0.1-0.4-0.2-0.7-0.5-0.9s-0.6-0.3-1.2-0.3
		c-0.6,0-1,0.1-1.2,0.4c-0.3,0.2-0.5,0.6-0.5,1s-0.1,1-0.1,1.7v5.8c0,0.8,0.1,1.3,0.2,1.8c0.1,0.4,0.3,0.7,0.6,0.9
		c0.3,0.2,0.6,0.3,1.1,0.3c0.5,0,0.9-0.1,1.2-0.3c0.3-0.2,0.4-0.5,0.5-0.9c0.1-0.4,0.1-0.9,0.1-1.6v-1.1h1.9v1.1
		c0,1.5-0.3,2.6-0.8,3.4s-1.5,1.2-2.9,1.2C164.4,348,163.4,347.6,162.8,346.7z"/>
	<path class="st4" d="M172.2,346.8c-0.6-0.8-0.9-2-0.9-3.5v-5.6c0-1.5,0.3-2.7,0.9-3.5c0.6-0.8,1.7-1.2,3.1-1.2s2.5,0.4,3.1,1.2
		c0.6,0.8,0.9,1.9,0.9,3.5v5.6c0,1.5-0.3,2.7-0.9,3.5c-0.6,0.8-1.7,1.2-3.1,1.2C173.8,348,172.8,347.6,172.2,346.8z M176.8,345.7
		c0.3-0.4,0.4-1.1,0.4-2v-6.4c0-0.9-0.1-1.6-0.4-2c-0.3-0.4-0.8-0.6-1.5-0.6c-0.8,0-1.3,0.2-1.6,0.6c-0.3,0.4-0.4,1.1-0.4,2v6.4
		c0,0.9,0.1,1.6,0.4,2c0.3,0.4,0.8,0.7,1.6,0.7C176,346.4,176.5,346.2,176.8,345.7z"/>
	<path class="st4" d="M181.5,333.2h2l2.6,11.9l2.6-11.9h2l0.3,14.7h-1.7l-0.2-10.7l-2.5,10.7h-1.2l-2.5-10.7l-0.2,10.7h-1.7
		L181.5,333.2z"/>
	<path class="st4" d="M193.3,333.2h3.6c1.3,0,2.2,0.3,2.8,1c0.6,0.7,0.9,1.7,0.9,3c0,1.2-0.3,2.1-0.9,2.8s-1.5,1-2.7,1h-1.6v6.8h-2
		V333.2z M196.2,339.6c0.6,0,1.1-0.1,1.4-0.2c0.3-0.1,0.6-0.4,0.7-0.7c0.1-0.3,0.2-0.8,0.2-1.4c0-0.8-0.1-1.3-0.2-1.7
		c-0.1-0.4-0.3-0.6-0.6-0.7s-0.8-0.2-1.5-0.2h-1v4.9H196.2z"/>
	<path class="st4" d="M202.6,346.8c-0.6-0.8-0.9-2-0.9-3.5v-5.6c0-1.5,0.3-2.7,0.9-3.5c0.6-0.8,1.7-1.2,3.1-1.2s2.5,0.4,3.1,1.2
		c0.6,0.8,0.9,1.9,0.9,3.5v5.6c0,1.5-0.3,2.7-0.9,3.5c-0.6,0.8-1.7,1.2-3.1,1.2C204.3,348,203.2,347.6,202.6,346.8z M207.3,345.7
		c0.3-0.4,0.4-1.1,0.4-2v-6.4c0-0.9-0.1-1.6-0.4-2c-0.3-0.4-0.8-0.6-1.5-0.6c-0.8,0-1.3,0.2-1.6,0.6c-0.3,0.4-0.4,1.1-0.4,2v6.4
		c0,0.9,0.1,1.6,0.4,2c0.3,0.4,0.8,0.7,1.6,0.7C206.5,346.4,207,346.2,207.3,345.7z"/>
	<path class="st4" d="M211.7,333.2h1.4l4.2,9.8v-9.8h1.7v14.7h-1.3l-4.2-10v10h-1.7V333.2z"/>
	<path class="st4" d="M221.3,333.2h5.7v1.5h-3.6v4.9h3v1.5h-3v5.4h3.7v1.5h-5.7V333.2z"/>
	<path class="st4" d="M228.7,333.2h1.4l4.2,9.8v-9.8h1.7v14.7h-1.3l-4.2-10v10h-1.7V333.2z"/>
	<path class="st4" d="M239.9,334.7h-2.5v-1.5h6.9v1.5h-2.4v13.2h-2V334.7z"/>
	<path class="st4" d="M245.8,333.2h5.7v1.5h-3.6v4.9h3v1.5h-3v5.4h3.7v1.5h-5.7V333.2z"/>
	<path class="st4" d="M257.3,333.2h2v6.3h3.8v-6.3h2v14.7h-2V341h-3.8v6.9h-2V333.2z"/>
	<path class="st4" d="M268.9,347.4c-0.6-0.4-1-1-1.2-1.7c-0.2-0.7-0.3-1.7-0.3-2.8v-9.7h2v9.8c0,1.1,0.1,2,0.4,2.5
		c0.3,0.6,0.8,0.9,1.6,0.9s1.3-0.3,1.6-0.9c0.3-0.6,0.4-1.4,0.4-2.5v-9.8h1.9v9.7c0,1.1-0.1,2-0.3,2.8c-0.2,0.7-0.6,1.3-1.2,1.7
		s-1.4,0.6-2.4,0.6C270.2,348,269.4,347.8,268.9,347.4z"/>
	<path class="st4" d="M277.6,333.2h2l2.6,11.9l2.6-11.9h2l0.3,14.7h-1.7l-0.2-10.7l-2.5,10.7h-1.2l-2.5-10.7l-0.2,10.7h-1.7
		L277.6,333.2z"/>
	<path class="st4" d="M291.6,333.2h2l3.1,14.7h-1.9l-0.7-3.7h-3l-0.7,3.7h-1.9L291.6,333.2z M293.9,342.7l-1.2-6.6l-1.2,6.6H293.9z"
		/>
	<path class="st4" d="M298.2,333.2h1.4l4.2,9.8v-9.8h1.7v14.7h-1.3l-4.2-10v10h-1.7V333.2z"/>
	<path class="st4" d="M307.9,333.2h2v14.7h-2V333.2z"/>
	<path class="st4" d="M312.9,346.9c-0.6-0.8-1-1.8-1.1-3.1l1.8-0.5c0.1,0.9,0.2,1.7,0.6,2.3c0.3,0.6,0.8,0.9,1.5,0.9
		c0.5,0,0.9-0.1,1.2-0.4c0.3-0.3,0.4-0.7,0.4-1.3c0-0.6-0.1-1.1-0.4-1.5c-0.3-0.4-0.7-0.8-1.2-1.3l-2.5-2.2
		c-0.5-0.4-0.9-0.9-1.1-1.4c-0.2-0.5-0.3-1.1-0.3-1.8c0-1.1,0.3-1.9,0.9-2.5c0.6-0.6,1.5-0.9,2.5-0.9c1.2,0,2,0.3,2.6,0.9
		c0.6,0.6,0.9,1.6,1.1,2.9l-1.7,0.5c-0.1-0.9-0.2-1.5-0.5-2c-0.3-0.5-0.8-0.7-1.5-0.7c-0.5,0-0.9,0.1-1.2,0.4
		c-0.3,0.3-0.4,0.7-0.4,1.2c0,0.4,0.1,0.8,0.2,1.1c0.1,0.3,0.4,0.6,0.7,0.9l2.5,2.2c0.6,0.6,1.2,1.2,1.5,1.8
		c0.4,0.7,0.6,1.4,0.6,2.3c0,1.1-0.3,1.9-1,2.6c-0.7,0.6-1.5,0.9-2.5,0.9C314.5,348,313.6,347.6,312.9,346.9z"/>
	<path class="st4" d="M322.5,334.7H320v-1.5h6.9v1.5h-2.4v13.2h-2V334.7z"/>
	<path class="st4" d="M330.7,333.2h2l3.1,14.7h-1.9l-0.7-3.7h-3l-0.7,3.7h-1.9L330.7,333.2z M332.9,342.7l-1.2-6.6l-1.2,6.6H332.9z"
		/>
</g>
<g class="st3">
	<path class="st4" d="M143.5,427.5h5.7v1.5h-3.6v4.9h2.8v1.5h-2.8v6.9h-2V427.5z"/>
	<path class="st4" d="M151.2,441.1c-0.6-0.8-0.9-2-0.9-3.5V432c0-1.5,0.3-2.7,0.9-3.5c0.6-0.8,1.7-1.2,3.1-1.2s2.5,0.4,3.1,1.2
		c0.6,0.8,0.9,1.9,0.9,3.5v5.6c0,1.5-0.3,2.7-0.9,3.5c-0.6,0.8-1.7,1.2-3.1,1.2C152.9,442.3,151.8,441.9,151.2,441.1z M155.9,440.1
		c0.3-0.4,0.4-1.1,0.4-2v-6.4c0-0.9-0.1-1.6-0.4-2c-0.3-0.4-0.8-0.6-1.5-0.6c-0.8,0-1.3,0.2-1.6,0.6c-0.3,0.4-0.4,1.1-0.4,2v6.4
		c0,0.9,0.1,1.6,0.4,2c0.3,0.4,0.8,0.7,1.6,0.7C155.1,440.7,155.6,440.5,155.9,440.1z"/>
	<path class="st4" d="M160.3,427.5h3c1.5,0,2.6,0.3,3.3,0.9c0.7,0.6,1,1.6,1,3c0,1.9-0.6,3-1.8,3.4l2.1,7.4h-2l-1.9-6.9h-1.6v6.9h-2
		V427.5z M163.2,433.8c0.9,0,1.5-0.2,1.9-0.5c0.4-0.4,0.6-1,0.6-1.9c0-0.6-0.1-1.1-0.2-1.4c-0.1-0.3-0.4-0.6-0.7-0.8
		c-0.3-0.2-0.8-0.2-1.4-0.2h-0.9v4.9H163.2z"/>
	<path class="st4" d="M170,427.5h2l2.6,11.9l2.6-11.9h2l0.3,14.7h-1.7l-0.2-10.7l-2.5,10.7H174l-2.5-10.7l-0.2,10.7h-1.7L170,427.5z
		"/>
	<path class="st4" d="M184,427.5h2l3.1,14.7h-1.9l-0.7-3.7h-3l-0.7,3.7h-1.9L184,427.5z M186.3,437l-1.2-6.6l-1.2,6.6H186.3z"/>
	<path class="st4" d="M191.2,441c-0.6-0.9-0.9-2.1-0.9-3.6v-5.2c0-1.6,0.3-2.8,0.9-3.7c0.6-0.8,1.6-1.3,3.1-1.3
		c1.3,0,2.3,0.4,2.8,1.1c0.6,0.7,0.9,1.8,0.9,3.2v1.2H196v-1c0-0.7,0-1.2-0.1-1.6c-0.1-0.4-0.2-0.7-0.5-0.9s-0.6-0.3-1.2-0.3
		c-0.6,0-1,0.1-1.2,0.4c-0.3,0.2-0.5,0.6-0.5,1s-0.1,1-0.1,1.7v5.8c0,0.8,0.1,1.3,0.2,1.8c0.1,0.4,0.3,0.7,0.6,0.9
		c0.3,0.2,0.6,0.3,1.1,0.3c0.5,0,0.9-0.1,1.2-0.3c0.3-0.2,0.4-0.5,0.5-0.9c0.1-0.4,0.1-0.9,0.1-1.6v-1.1h1.9v1.1
		c0,1.5-0.3,2.6-0.8,3.4s-1.5,1.2-2.9,1.2C192.8,442.3,191.8,441.9,191.2,441z"/>
	<path class="st4" d="M200,427.5h2v14.7h-2V427.5z"/>
	<path class="st4" d="M205.1,441.1c-0.6-0.8-0.9-2-0.9-3.5V432c0-1.5,0.3-2.7,0.9-3.5c0.6-0.8,1.7-1.2,3.1-1.2s2.5,0.4,3.1,1.2
		c0.6,0.8,0.9,1.9,0.9,3.5v5.6c0,1.5-0.3,2.7-0.9,3.5c-0.6,0.8-1.7,1.2-3.1,1.2C206.7,442.3,205.7,441.9,205.1,441.1z M209.7,440.1
		c0.3-0.4,0.4-1.1,0.4-2v-6.4c0-0.9-0.1-1.6-0.4-2c-0.3-0.4-0.8-0.6-1.5-0.6c-0.8,0-1.3,0.2-1.6,0.6c-0.3,0.4-0.4,1.1-0.4,2v6.4
		c0,0.9,0.1,1.6,0.4,2c0.3,0.4,0.8,0.7,1.6,0.7C208.9,440.7,209.4,440.5,209.7,440.1z M208.7,423h1.9l-2,3.6h-1L208.7,423z"/>
	<path class="st4" d="M214.2,427.5h1.4l4.2,9.8v-9.8h1.7v14.7h-1.3l-4.2-10v10h-1.7V427.5z"/>
	<path class="st4" d="M227.9,427.5h3.2c1.6,0,2.7,0.4,3.4,1.1c0.7,0.7,1,1.9,1,3.4v5.4c0,1.6-0.3,2.8-1,3.6
		c-0.6,0.8-1.7,1.2-3.2,1.2h-3.4V427.5z M231.1,440.7c0.7,0,1.2-0.1,1.6-0.4c0.3-0.3,0.5-0.7,0.6-1.1c0.1-0.5,0.1-1.2,0.1-2.2v-4.8
		c0-0.8-0.1-1.5-0.2-1.9c-0.1-0.4-0.3-0.8-0.6-1c-0.3-0.2-0.8-0.3-1.5-0.3H230v11.7H231.1z"/>
	<path class="st4" d="M237.5,427.5h5.7v1.5h-3.6v4.9h3v1.5h-3v5.4h3.7v1.5h-5.7V427.5z"/>
	<path class="st4" d="M249,427.5h3.6c1.3,0,2.2,0.3,2.8,1s0.9,1.7,0.9,3c0,1.2-0.3,2.1-0.9,2.8c-0.6,0.7-1.5,1-2.7,1h-1.6v6.8h-2
		V427.5z M252,433.9c0.6,0,1.1-0.1,1.4-0.2c0.3-0.1,0.6-0.4,0.7-0.7c0.1-0.3,0.2-0.8,0.2-1.4c0-0.8-0.1-1.3-0.2-1.7
		c-0.1-0.4-0.3-0.6-0.6-0.7c-0.3-0.1-0.8-0.2-1.5-0.2h-1v4.9H252z"/>
	<path class="st4" d="M257.7,427.5h3c1.5,0,2.6,0.3,3.3,0.9c0.7,0.6,1,1.6,1,3c0,1.9-0.6,3-1.8,3.4l2.1,7.4h-2l-1.9-6.9h-1.6v6.9h-2
		V427.5z M260.6,433.8c0.9,0,1.5-0.2,1.9-0.5c0.4-0.4,0.6-1,0.6-1.9c0-0.6-0.1-1.1-0.2-1.4c-0.1-0.3-0.4-0.6-0.7-0.8
		s-0.8-0.2-1.4-0.2h-0.9v4.9H260.6z"/>
	<path class="st4" d="M267.8,441.1c-0.6-0.8-0.9-2-0.9-3.5V432c0-1.5,0.3-2.7,0.9-3.5s1.7-1.2,3.1-1.2s2.5,0.4,3.1,1.2
		c0.6,0.8,0.9,1.9,0.9,3.5v5.6c0,1.5-0.3,2.7-0.9,3.5s-1.7,1.2-3.1,1.2C269.5,442.3,268.4,441.9,267.8,441.1z M272.4,440.1
		c0.3-0.4,0.4-1.1,0.4-2v-6.4c0-0.9-0.1-1.6-0.4-2c-0.3-0.4-0.8-0.6-1.5-0.6c-0.8,0-1.3,0.2-1.6,0.6c-0.3,0.4-0.4,1.1-0.4,2v6.4
		c0,0.9,0.1,1.6,0.4,2c0.3,0.4,0.8,0.7,1.6,0.7C271.7,440.7,272.2,440.5,272.4,440.1z"/>
	<path class="st4" d="M276.9,427.5h5.7v1.5H279v4.9h2.8v1.5H279v6.9h-2V427.5z"/>
	<path class="st4" d="M284,427.5h5.7v1.5h-3.6v4.9h3v1.5h-3v5.4h3.7v1.5H284V427.5z"/>
	<path class="st4" d="M292,441.2c-0.6-0.8-1-1.8-1.1-3.1l1.8-0.5c0.1,0.9,0.2,1.7,0.6,2.3c0.3,0.6,0.8,0.9,1.5,0.9
		c0.5,0,0.9-0.1,1.2-0.4c0.3-0.3,0.4-0.7,0.4-1.3c0-0.6-0.1-1.1-0.4-1.5c-0.3-0.4-0.7-0.8-1.2-1.3l-2.5-2.2
		c-0.5-0.4-0.9-0.9-1.1-1.4c-0.2-0.5-0.3-1.1-0.3-1.8c0-1.1,0.3-1.9,0.9-2.5c0.6-0.6,1.5-0.9,2.5-0.9c1.2,0,2,0.3,2.6,0.9
		c0.6,0.6,0.9,1.6,1.1,2.9l-1.7,0.5c-0.1-0.9-0.2-1.5-0.5-2c-0.3-0.5-0.8-0.7-1.5-0.7c-0.5,0-0.9,0.1-1.2,0.4
		c-0.3,0.3-0.4,0.7-0.4,1.2c0,0.4,0.1,0.8,0.2,1.1c0.1,0.3,0.4,0.6,0.7,0.9l2.5,2.2c0.6,0.6,1.2,1.2,1.5,1.8
		c0.4,0.7,0.6,1.4,0.6,2.3c0,1.1-0.3,1.9-1,2.6c-0.7,0.6-1.5,0.9-2.5,0.9C293.6,442.3,292.7,442,292,441.2z"/>
	<path class="st4" d="M300.1,427.5h2v14.7h-2V427.5z"/>
	<path class="st4" d="M305.1,441.1c-0.6-0.8-0.9-2-0.9-3.5V432c0-1.5,0.3-2.7,0.9-3.5s1.7-1.2,3.1-1.2s2.5,0.4,3.1,1.2
		c0.6,0.8,0.9,1.9,0.9,3.5v5.6c0,1.5-0.3,2.7-0.9,3.5s-1.7,1.2-3.1,1.2C306.8,442.3,305.8,441.9,305.1,441.1z M309.8,440.1
		c0.3-0.4,0.4-1.1,0.4-2v-6.4c0-0.9-0.1-1.6-0.4-2c-0.3-0.4-0.8-0.6-1.5-0.6c-0.8,0-1.3,0.2-1.6,0.6c-0.3,0.4-0.4,1.1-0.4,2v6.4
		c0,0.9,0.1,1.6,0.4,2c0.3,0.4,0.8,0.7,1.6,0.7C309,440.7,309.5,440.5,309.8,440.1z"/>
	<path class="st4" d="M314.2,427.5h1.4l4.2,9.8v-9.8h1.7v14.7h-1.3l-4.2-10v10h-1.7V427.5z"/>
	<path class="st4" d="M326.1,427.5h2l3.1,14.7h-1.9l-0.7-3.7h-3l-0.7,3.7H323L326.1,427.5z M328.4,437l-1.2-6.6l-1.2,6.6H328.4z"/>
	<path class="st4" d="M332.8,427.5h2v13.2h3.8v1.5h-5.8V427.5z"/>
	<path class="st4" d="M340,427.5h5.7v1.5H342v4.9h3v1.5h-3v5.4h3.7v1.5H340V427.5z"/>
	<path class="st4" d="M348,441.2c-0.6-0.8-1-1.8-1.1-3.1l1.8-0.5c0.1,0.9,0.2,1.7,0.6,2.3c0.3,0.6,0.8,0.9,1.5,0.9
		c0.5,0,0.9-0.1,1.2-0.4c0.3-0.3,0.4-0.7,0.4-1.3c0-0.6-0.1-1.1-0.4-1.5c-0.3-0.4-0.7-0.8-1.2-1.3l-2.5-2.2
		c-0.5-0.4-0.9-0.9-1.1-1.4c-0.2-0.5-0.3-1.1-0.3-1.8c0-1.1,0.3-1.9,0.9-2.5c0.6-0.6,1.5-0.9,2.5-0.9c1.2,0,2,0.3,2.6,0.9
		c0.6,0.6,0.9,1.6,1.1,2.9l-1.7,0.5c-0.1-0.9-0.2-1.5-0.5-2c-0.3-0.5-0.8-0.7-1.5-0.7c-0.5,0-0.9,0.1-1.2,0.4
		c-0.3,0.3-0.4,0.7-0.4,1.2c0,0.4,0.1,0.8,0.2,1.1c0.1,0.3,0.4,0.6,0.7,0.9l2.5,2.2c0.6,0.6,1.2,1.2,1.5,1.8
		c0.4,0.7,0.6,1.4,0.6,2.3c0,1.1-0.3,1.9-1,2.6c-0.7,0.6-1.5,0.9-2.5,0.9C349.6,442.3,348.6,442,348,441.2z"/>
</g>
<g class="st3">
	<path class="st4" d="M187.5,449.3h3.6c1.3,0,2.2,0.3,2.8,1c0.6,0.7,0.9,1.7,0.9,3c0,1.2-0.3,2.1-0.9,2.8s-1.5,1-2.7,1h-1.6v6.8h-2
		V449.3z M190.5,455.7c0.6,0,1.1-0.1,1.4-0.2c0.3-0.1,0.6-0.4,0.7-0.7c0.1-0.3,0.2-0.8,0.2-1.4c0-0.8-0.1-1.3-0.2-1.7
		c-0.1-0.4-0.3-0.6-0.6-0.7s-0.8-0.2-1.5-0.2h-1v4.9H190.5z"/>
	<path class="st4" d="M196.2,449.3h3c1.5,0,2.6,0.3,3.3,0.9c0.7,0.6,1,1.6,1,3c0,1.9-0.6,3-1.8,3.4l2.1,7.4h-2l-1.9-6.9h-1.6v6.9h-2
		V449.3z M199,455.6c0.9,0,1.5-0.2,1.9-0.5c0.4-0.4,0.6-1,0.6-1.9c0-0.6-0.1-1.1-0.2-1.4c-0.1-0.3-0.4-0.6-0.7-0.8
		c-0.3-0.2-0.8-0.2-1.4-0.2h-0.9v4.9H199z"/>
	<path class="st4" d="M205.6,449.3h5.7v1.5h-3.6v4.9h3v1.5h-3v5.4h3.7v1.5h-5.7V449.3z"/>
	<path class="st4" d="M219.4,458.8l-3.2-9.5h1.9l2.2,7.1l2.2-7.1h1.9l-3.2,9.5v5.2h-2V458.8z"/>
	<path class="st4" d="M230,449.3h3.6c1.3,0,2.2,0.3,2.8,1c0.6,0.7,0.9,1.7,0.9,3c0,1.2-0.3,2.1-0.9,2.8s-1.5,1-2.7,1h-1.6v6.8h-2
		V449.3z M233,455.7c0.6,0,1.1-0.1,1.4-0.2c0.3-0.1,0.6-0.4,0.7-0.7c0.1-0.3,0.2-0.8,0.2-1.4c0-0.8-0.1-1.3-0.2-1.7
		c-0.1-0.4-0.3-0.6-0.6-0.7s-0.8-0.2-1.5-0.2h-1v4.9H233z"/>
	<path class="st4" d="M239.4,462.9c-0.6-0.8-0.9-2-0.9-3.5v-5.6c0-1.5,0.3-2.7,0.9-3.5c0.6-0.8,1.7-1.2,3.1-1.2s2.5,0.4,3.1,1.2
		c0.6,0.8,0.9,1.9,0.9,3.5v5.6c0,1.5-0.3,2.7-0.9,3.5c-0.6,0.8-1.7,1.2-3.1,1.2C241,464.1,240,463.7,239.4,462.9z M244,461.9
		c0.3-0.4,0.4-1.1,0.4-2v-6.4c0-0.9-0.1-1.6-0.4-2c-0.3-0.4-0.8-0.6-1.5-0.6c-0.8,0-1.3,0.2-1.6,0.6c-0.3,0.4-0.4,1.1-0.4,2v6.4
		c0,0.9,0.1,1.6,0.4,2c0.3,0.4,0.8,0.7,1.6,0.7C243.2,462.5,243.7,462.3,244,461.9z"/>
	<path class="st4" d="M249.1,463c-0.6-0.8-1-1.8-1.1-3.1l1.8-0.5c0.1,0.9,0.2,1.7,0.6,2.3c0.3,0.6,0.8,0.9,1.5,0.9
		c0.5,0,0.9-0.1,1.2-0.4c0.3-0.3,0.4-0.7,0.4-1.3c0-0.6-0.1-1.1-0.4-1.5c-0.3-0.4-0.7-0.8-1.2-1.3l-2.5-2.2
		c-0.5-0.4-0.9-0.9-1.1-1.4c-0.2-0.5-0.3-1.1-0.3-1.8c0-1.1,0.3-1.9,0.9-2.5c0.6-0.6,1.5-0.9,2.5-0.9c1.2,0,2,0.3,2.6,0.9
		c0.6,0.6,0.9,1.6,1.1,2.9l-1.7,0.5c-0.1-0.9-0.2-1.5-0.5-2c-0.3-0.5-0.8-0.7-1.5-0.7c-0.5,0-0.9,0.1-1.2,0.4
		c-0.3,0.3-0.4,0.7-0.4,1.2c0,0.4,0.1,0.8,0.2,1.1c0.1,0.3,0.4,0.6,0.7,0.9l2.5,2.2c0.6,0.6,1.2,1.2,1.5,1.8
		c0.4,0.7,0.6,1.4,0.6,2.3c0,1.1-0.3,1.9-1,2.6c-0.7,0.6-1.5,0.9-2.5,0.9C250.7,464.1,249.8,463.8,249.1,463z"/>
	<path class="st4" d="M258.7,450.8h-2.5v-1.5h6.9v1.5h-2.4V464h-2V450.8z"/>
	<path class="st4" d="M265.2,462.9c-0.6-0.8-0.9-2.1-0.9-3.7v-4.9c0-1.1,0.1-2.1,0.4-2.8c0.2-0.7,0.6-1.3,1.2-1.7
		c0.6-0.4,1.4-0.6,2.4-0.6c1.4,0,2.3,0.3,2.9,1s0.9,1.8,0.9,3.2v0.5h-1.9v-0.5c0-0.7,0-1.2-0.1-1.6c-0.1-0.4-0.3-0.7-0.5-0.9
		c-0.3-0.2-0.7-0.3-1.2-0.3c-0.6,0-1,0.1-1.3,0.4c-0.3,0.3-0.5,0.6-0.5,1c-0.1,0.4-0.1,1-0.1,1.7v5.4c0,1.1,0.1,1.9,0.4,2.4
		c0.3,0.5,0.8,0.7,1.6,0.7c0.8,0,1.3-0.3,1.6-0.8c0.3-0.5,0.4-1.4,0.4-2.6v-1h-1.9v-1.5h3.7v7.3h-1.3l-0.2-1.7
		c-0.5,1.2-1.3,1.9-2.6,1.9C266.7,464.2,265.8,463.7,265.2,462.9z"/>
	<path class="st4" d="M274.3,449.3h3c1.5,0,2.6,0.3,3.3,0.9c0.7,0.6,1,1.6,1,3c0,1.9-0.6,3-1.8,3.4l2.1,7.4h-2l-1.9-6.9h-1.6v6.9h-2
		V449.3z M277.1,455.6c0.9,0,1.5-0.2,1.9-0.5c0.4-0.4,0.6-1,0.6-1.9c0-0.6-0.1-1.1-0.2-1.4s-0.4-0.6-0.7-0.8
		c-0.3-0.2-0.8-0.2-1.4-0.2h-0.9v4.9H277.1z"/>
	<path class="st4" d="M286,449.3h2l3.1,14.7h-1.9l-0.7-3.7h-3l-0.7,3.7h-1.9L286,449.3z M288.2,458.8l-1.2-6.6l-1.2,6.6H288.2z"/>
	<path class="st4" d="M292.6,449.3h3.2c1.6,0,2.7,0.4,3.4,1.1s1,1.9,1,3.4v5.4c0,1.6-0.3,2.8-1,3.6c-0.6,0.8-1.7,1.2-3.2,1.2h-3.4
		V449.3z M295.8,462.5c0.7,0,1.2-0.1,1.6-0.4c0.3-0.3,0.5-0.7,0.6-1.1c0.1-0.5,0.1-1.2,0.1-2.2V454c0-0.8-0.1-1.5-0.2-1.9
		s-0.3-0.8-0.6-1c-0.3-0.2-0.8-0.3-1.5-0.3h-1.1v11.7H295.8z"/>
	<path class="st4" d="M302.8,462.9c-0.6-0.8-0.9-2-0.9-3.5v-5.6c0-1.5,0.3-2.7,0.9-3.5s1.7-1.2,3.1-1.2s2.5,0.4,3.1,1.2
		c0.6,0.8,0.9,1.9,0.9,3.5v5.6c0,1.5-0.3,2.7-0.9,3.5s-1.7,1.2-3.1,1.2C304.5,464.1,303.4,463.7,302.8,462.9z M307.5,461.9
		c0.3-0.4,0.4-1.1,0.4-2v-6.4c0-0.9-0.1-1.6-0.4-2c-0.3-0.4-0.8-0.6-1.5-0.6c-0.8,0-1.3,0.2-1.6,0.6c-0.3,0.4-0.4,1.1-0.4,2v6.4
		c0,0.9,0.1,1.6,0.4,2c0.3,0.4,0.8,0.7,1.6,0.7C306.7,462.5,307.2,462.3,307.5,461.9z"/>
</g>
</svg>
