<?xml version="1.0" encoding="utf-8"?>
<!-- Generator: Adobe Illustrator 21.1.0, SVG Export Plug-In . SVG Version: 6.00 Build 0)  -->
<svg version="1.1" id="Capa_1" xmlns="http://www.w3.org/2000/svg" xmlns:xlink="http://www.w3.org/1999/xlink" x="0px" y="0px"
	 viewBox="0 0 840 410" style="enable-background:new 0 0 840 410;" xml:space="preserve">
<defs>
  	<style type="text/css">
    	@import url('https://fonts.googleapis.com/css?family=Oswald');
 	</style>
</defs>
<style type="text/css">
	.st0{fill:#3D93C1;}
	.st1{fill:#214E83;}
	.st2{fill:#FFFFFF;}
	.st3{font-family:'Oswald';}
	.st4{font-size:14px;}
	.st5{opacity:0;}
	.st6{fill:#266987;}
	.st7{fill:none;stroke:#214E83;stroke-miterlimit:10;}
	.st8{opacity:0;fill:none;stroke:#214E83;stroke-miterlimit:10;}
	.st9{opacity:0;fill:#3D93C1;stroke:#214E83;stroke-miterlimit:10;}
	.st10{opacity:0;fill:#266987;stroke:#214E83;stroke-miterlimit:10;}
	.st11{font-size:10px;}
</style>
<g>
	<rect x="360.5" y="5.5" class="st0" width="119" height="54"/>
	<path class="st1" d="M479,6v53H361V6H479 M480,5H360v55h120V5L480,5z"/>
</g>
<text transform="matrix(1 0 0 1 385.6089 30.6104)"><tspan x="0" y="0" class="st2 st3 st4">DIRECTOR DE</tspan><tspan x="9.7" y="16.8" class="st2 st3 st4">CARRERA</tspan></text>
<g class="st5">
	<rect x="10.5" y="99.5" class="st0" width="119" height="77"/>
	<path class="st1" d="M129,100v76H11v-76H129 M130,99H10v78h120V99L130,99z"/>
</g>
<text transform="matrix(1 0 0 1 29.54 126.4769)" class="st5"><tspan x="0" y="0" class="st2 st3 st4">ENCARGADO DE</tspan><tspan x="5.5" y="16.8" class="st2 st3 st4">DOCENCIA DE</tspan><tspan x="7.7" y="33.6" class="st2 st3 st4">CS. BÁSICAS</tspan></text>
<g class="st5">
	<rect x="150.5" y="99.5" class="st0" width="119" height="77"/>
	<path class="st1" d="M269,100v76H151v-76H269 M270,99H150v78h120V99L270,99z"/>
</g>
<text transform="matrix(1 0 0 1 169.54 134.8771)" class="st5"><tspan x="0" y="0" class="st2 st3 st4">ENCARGADO DE</tspan><tspan x="9.2" y="16.8" class="st2 st3 st4">PRECLÍNICO</tspan></text>
<g class="st5">
	<rect x="290.5" y="99.5" class="st0" width="119" height="77"/>
	<path class="st1" d="M409,100v76H291v-76H409 M410,99H290v78h120V99L410,99z"/>
</g>
<text transform="matrix(1 0 0 1 309.54 118.077)" class="st5"><tspan x="0" y="0" class="st2 st3 st4">ENCARGADO DE</tspan><tspan x="-0.1" y="16.8" class="st2 st3 st4">COORDINACIÓN</tspan><tspan x="1.4" y="33.6" class="st2 st3 st4">ACADEMICA DE</tspan><tspan x="19.4" y="50.4" class="st2 st3 st4">CLÍNICA</tspan></text>
<g>
	<rect x="430.5" y="99.5" class="st6" width="119" height="77"/>
	<path class="st1" d="M549,100v76H431v-76H549 M550,99H430v78h120V99L550,99z"/>
</g>
<text transform="matrix(1 0 0 1 463.75 126.4769)"><tspan x="0" y="0" class="st2 st3 st4">DIRECTOR</tspan><tspan x="-4.5" y="16.8" class="st2 st3 st4">TÉCNICO DE</tspan><tspan x="5.2" y="33.6" class="st2 st3 st4">CLÍNICA</tspan></text>
<g class="st5">
	<rect x="570.5" y="99.5" class="st0" width="119" height="77"/>
	<path class="st1" d="M689,100v76H571v-76H689 M690,99H570v78h120V99L690,99z"/>
</g>
<text transform="matrix(1 0 0 1 586.2642 134.8771)" class="st5"><tspan x="0" y="0" class="st2 st3 st4">ADMINISTRADOR</tspan><tspan x="3.1" y="16.8" class="st2 st3 st4">DE LA CARRERA</tspan></text>
<g>
	<rect x="710.5" y="99.5" class="st0" width="119" height="77"/>
	<path class="st1" d="M829,100v76H711v-76H829 M830,99H710v78h120V99L830,99z"/>
</g>
<text transform="matrix(1 0 0 1 738.1641 134.8771)"><tspan x="0" y="0" class="st2 st3 st4">SECRETARIA</tspan><tspan x="-3.1" y="16.8" class="st2 st3 st4">DE DOCENCIA</tspan></text>
<g class="st5">
	<rect x="10.5" y="217.5" class="st0" width="119" height="77"/>
	<path class="st1" d="M129,218v76H11v-76H129 M130,217H10v78h120V217L130,217z"/>
</g>
<text transform="matrix(1 0 0 1 33.103 252.3104)" class="st5"><tspan x="0" y="0" class="st2 st3 st4">ASIGNATURAS</tspan><tspan x="-4" y="16.8" class="st2 st3 st4">DE CS. BÁSICAS</tspan></text>
<g class="st5">
	<rect x="150.5" y="217.5" class="st0" width="119" height="77"/>
	<path class="st1" d="M269,218v76H151v-76H269 M270,217H150v78h120V217L270,217z"/>
</g>
<text transform="matrix(1 0 0 1 173.103 252.3104)" class="st5"><tspan x="0" y="0" class="st2 st3 st4">ASIGNATURAS</tspan><tspan x="-2.5" y="16.8" class="st2 st3 st4">DE PRECLÍNICO</tspan></text>
<g class="st5">
	<rect x="290.5" y="218.5" class="st0" width="119" height="77"/>
	<path class="st1" d="M409,219v76H291v-76H409 M410,218H290v78h120V218L410,218z"/>
</g>
<text transform="matrix(1 0 0 1 313.103 243.9103)" class="st5"><tspan x="0" y="0" class="st2 st3 st4">ASIGNATURAS</tspan><tspan x="7.7" y="16.8" class="st2 st3 st4">DE CLÍNICA</tspan><tspan x="-4.2" y="33.6" class="st2 st3 st4">ODONTOLÓGICA</tspan></text>
<g>
	<rect x="430.5" y="218.5" class="st6" width="119" height="77"/>
	<path class="st1" d="M549,219v76H431v-76H549 M550,218H430v78h120V218L550,218z"/>
</g>
<text transform="matrix(1 0 0 1 455.938 243.9103)"><tspan x="0" y="0" class="st2 st3 st4">ENFERMERAS</tspan><tspan x="-11.6" y="16.8" class="st2 st3 st4">COORDINADORAS</tspan><tspan x="4.9" y="33.6" class="st2 st3 st4">DE CLÍNICA</tspan></text>
<g>
	<rect x="290.5" y="337.5" class="st6" width="119" height="61"/>
	<path class="st1" d="M409,338v60H291v-60H409 M410,337H290v62h120V337L410,337z"/>
</g>
<text transform="matrix(1 0 0 1 324.0928 364.6104)"><tspan x="0" y="0" class="st2 st3 st4">TÉCNICOS</tspan><tspan x="0" y="16.8" class="st2 st3 st4">DENTALES</tspan></text>
<g>
	<rect x="430.5" y="337.5" class="st6" width="119" height="61"/>
	<path class="st1" d="M549,338v60H431v-60H549 M550,337H430v62h120V337L550,337z"/>
</g>
<text transform="matrix(1 0 0 1 459.4521 364.6104)"><tspan x="0" y="0" class="st2 st3 st4">AUXILIARES</tspan><tspan x="-2.2" y="16.8" class="st2 st3 st4">DE SERVICIO</tspan></text>
<g>
	<rect x="570.5" y="337.5" class="st6" width="119" height="61"/>
	<path class="st1" d="M689,338v60H571v-60H689 M690,337H570v62h120V337L690,337z"/>
</g>
<text transform="matrix(1 0 0 1 594.853 364.6104)"><tspan x="0" y="0" class="st2 st3 st4">SECRETARIAS</tspan><tspan x="-12.4" y="16.8" class="st2 st3 st4">ADMINISTRATIVAS</tspan></text>
<g>
	<line class="st7" x1="419.5" y1="59.5" x2="419.5" y2="79.5"/>
</g>
<line class="st8" x1="69.5" y1="79.5" x2="629.5" y2="79.5"/>
<line class="st8" x1="69.5" y1="79.5" x2="69.5" y2="98.5"/>
<line class="st8" x1="209.5" y1="79.5" x2="209.5" y2="98.5"/>
<line class="st8" x1="349.5" y1="79.5" x2="349.5" y2="98.5"/>
<line class="st7" x1="489.5" y1="79.5" x2="489.5" y2="98.5"/>
<line class="st8" x1="629.5" y1="79.5" x2="629.5" y2="98.5"/>
<line class="st7" x1="770.5" y1="32.5" x2="770.5" y2="98.5"/>
<line class="st7" x1="479.5" y1="32.5" x2="770.5" y2="32.5"/>
<line class="st8" x1="69.5" y1="177.5" x2="69.5" y2="216.5"/>
<line class="st8" x1="209.5" y1="177.5" x2="209.5" y2="216.5"/>
<line class="st8" x1="349.5" y1="177.5" x2="349.5" y2="217.5"/>
<line class="st7" x1="490.5" y1="177.5" x2="490.5" y2="218.5"/>
<line class="st7" x1="489.5" y1="296.5" x2="489.5" y2="317.5"/>
<line class="st7" x1="349.5" y1="317.5" x2="630.5" y2="317.5"/>
<line class="st7" x1="349.5" y1="336.5" x2="349.5" y2="317.5"/>
<line class="st7" x1="489.5" y1="337.5" x2="489.5" y2="317.5"/>
<line class="st7" x1="630.5" y1="336.5" x2="630.5" y2="317.5"/>
<line class="st7" x1="419.5" y1="79.5" x2="489.5" y2="79.5"/>
<rect x="9.5" y="311.5" class="st8" width="120" height="88"/>
<rect x="20.5" y="324.5" class="st9" width="27" height="27"/>
<rect x="20.5" y="364.5" class="st10" width="27" height="27"/>
<text transform="matrix(1 0 0 1 54.1577 335.9883)" class="st5"><tspan x="0" y="0" class="st1 st3 st11">CARRERA</tspan><tspan x="0" y="12" class="st1 st3 st11">ODONTOLOGÍA</tspan></text>
<text transform="matrix(1 0 0 1 54.1577 376.9883)" class="st5"><tspan x="0" y="0" class="st1 st3 st11">CLÍNICA</tspan><tspan x="0" y="12" class="st1 st3 st11">ODONTOLÓGICA</tspan></text>
</svg>
