<?xml version="1.0" encoding="utf-8"?>
<!-- Generator: Adobe Illustrator 21.1.0, SVG Export Plug-In . SVG Version: 6.00 Build 0)  -->
<svg version="1.1" id="Capa_1" xmlns="http://www.w3.org/2000/svg" xmlns:xlink="http://www.w3.org/1999/xlink" x="0px" y="0px"
	 viewBox="0 0 1877 600" style="enable-background:new 0 0 1877 600;" xml:space="preserve">
<style type="text/css">
	.st0{fill:#3D93C1;}
	.st1{fill:#214E83;}
	.st2{fill:#FFFFFF;}
	.st3{font-family:'Oswald-Regular';}
	.st4{font-size:17px;}
	.st5{fill:none;stroke:#214E83;stroke-miterlimit:10;}
	.st6{fill:none;stroke:#214E83;stroke-miterlimit:10;stroke-dasharray:4.9474,4.9474;}
	.st7{fill:none;stroke:#214E83;stroke-miterlimit:10;stroke-dasharray:5.0526,5.0526;}
	.st8{fill:none;stroke:#214E83;stroke-miterlimit:10;stroke-dasharray:5;}
</style>
<g>
	<rect x="940.5" y="5.5" class="st0" width="119" height="54"/>
	<path class="st1" d="M1059,6v53H941V6H1059 M1060,5H940v55h120V5L1060,5z"/>
</g>
<text transform="matrix(1 0 0 1 958.334 30.6104)"><tspan x="0" y="0" class="st2 st3 st4">DIRECTOR DE</tspan><tspan x="11.8" y="20.4" class="st2 st3 st4">CARRERA</tspan></text>
<g>
	<rect x="900.5" y="186.5" class="st0" width="199" height="28"/>
	<path class="st1" d="M1099,187v27H901v-27H1099 M1100,186H900v29h200V186L1100,186z"/>
</g>
<text transform="matrix(1 0 0 1 912.8628 208.6104)" class="st2 st3 st4">SUBDIRECTOR DE CARRERA</text>
<g>
	<rect x="1100.5" y="68.5" class="st0" width="161" height="28"/>
	<path class="st1" d="M1261,69v27h-160V69H1261 M1262,68h-162v29h162V68L1262,68z"/>
</g>
<text transform="matrix(1 0 0 1 1111.2251 90.6104)" class="st2 st3 st4">CONSEJO DE CARRERA</text>
<g>
	<rect x="1100.5" y="104.5" class="st0" width="331" height="28"/>
	<path class="st1" d="M1431,105v27h-330v-27H1431 M1432,104h-332v29h332V104L1432,104z"/>
</g>
<text transform="matrix(1 0 0 1 1110.3994 126.6104)" class="st2 st3 st4">UNIDAD DE ACREDITACIÓN Y GESTIÓN DE CALIDAD</text>
<g>
	<rect x="1100.5" y="141.5" class="st0" width="188" height="28"/>
	<path class="st1" d="M1288,142v27h-187v-27H1288 M1289,141h-189v29h189V141L1289,141z"/>
</g>
<text transform="matrix(1 0 0 1 1110.104 163.6104)" class="st2 st3 st4">UNIDAD DE INVESTIGACIÓN</text>
<g>
	<rect x="723.5" y="76.5" class="st0" width="176" height="28"/>
	<path class="st1" d="M899,77v27H724V77H899 M900,76H723v29h177V76L900,76z"/>
</g>
<text transform="matrix(1 0 0 1 731.1694 98.6104)" class="st2 st3 st4">SECRETARIA DE CARRERA</text>
<g>
	<rect x="628.5" y="113.5" class="st0" width="271" height="28"/>
	<path class="st1" d="M899,114v27H629v-27H899 M900,113H628v29h272V113L900,113z"/>
</g>
<text transform="matrix(1 0 0 1 639.0244 135.6104)" class="st2 st3 st4">UNIDAD DE VINCULACIÓN CON EL MEDIO</text>
<g>
	<rect x="543.5" y="149.5" class="st0" width="356" height="28"/>
	<path class="st1" d="M899,150v27H544v-27H899 M900,149H543v29h357V149L900,149z"/>
</g>
<text transform="matrix(1 0 0 1 553.4829 171.6104)" class="st2 st3 st4">UNIDAD DE GESTIÓN Y PLANIFICACIÓN INSTITUCIONAL</text>
<g>
	<rect x="940.5" y="232.5" class="st0" width="119" height="54"/>
	<path class="st1" d="M1059,233v53H941v-53H1059 M1060,232H940v55h120V232L1060,232z"/>
</g>
<text transform="matrix(1 0 0 1 955.2827 257.6104)"><tspan x="0" y="0" class="st2 st3 st4">DIRECCIÓN DE</tspan><tspan x="4.8" y="20.4" class="st2 st3 st4">GRADUADOS</tspan></text>
<g>
	<rect x="1060.5" y="296.5" class="st0" width="213" height="28"/>
	<path class="st1" d="M1273,297v27h-212v-27H1273 M1274,296h-214v29h214V296L1274,296z"/>
</g>
<text transform="matrix(1 0 0 1 1068.8018 318.6104)" class="st2 st3 st4">COORDINACIÓN DE EGRESADOS</text>
<g>
	<rect x="729.5" y="296.5" class="st0" width="210" height="28"/>
	<path class="st1" d="M939,297v27H730v-27H939 M940,296H729v29h211V296L940,296z"/>
</g>
<text transform="matrix(1 0 0 1 739.5815 318.6104)" class="st2 st3 st4">COORDINACIÓN DE POSTÍTULO</text>
<g>
	<rect x="696.5" y="332.5" class="st0" width="243" height="28"/>
	<path class="st1" d="M939,333v27H697v-27H939 M940,332H696v29h244V332L940,332z"/>
</g>
<text transform="matrix(1 0 0 1 705.1733 354.6104)" class="st2 st3 st4">COORDINACIÓN DE ESPECIALIDADES</text>
<g>
	<rect x="735.5" y="369.5" class="st0" width="204" height="28"/>
	<path class="st1" d="M939,370v27H736v-27H939 M940,369H735v29h205V369L940,369z"/>
</g>
<text transform="matrix(1 0 0 1 745.1143 391.6104)" class="st2 st3 st4">COORDINACIÓN DE MAGISTER</text>
<g>
	<rect x="1529.5" y="232.5" class="st0" width="140" height="54"/>
	<path class="st1" d="M1669,233v53h-139v-53H1669 M1670,232h-141v55h141V232L1670,232z"/>
</g>
<text transform="matrix(1 0 0 1 1538.2065 258.6104)"><tspan x="0" y="0" class="st2 st3 st4">DIRECCIÓN CLINICA</tspan><tspan x="12" y="20.4" class="st2 st3 st4">ODONTOLÓGICA</tspan></text>
<g>
	<rect x="327.5" y="232.5" class="st0" width="140" height="54"/>
	<path class="st1" d="M467,233v53H328v-53H467 M468,232H327v55h141V232L468,232z"/>
</g>
<text transform="matrix(1 0 0 1 353.2827 258.6104)"><tspan x="0" y="0" class="st2 st3 st4">DIRECCIÓN DE</tspan><tspan x="10.1" y="20.4" class="st2 st3 st4">PREGRADO</tspan></text>
<g>
	<rect x="120.5" y="296.5" class="st0" width="206" height="28"/>
	<path class="st1" d="M326,297v27H121v-27H326 M327,296H120v29h207V296L327,296z"/>
</g>
<text transform="matrix(1 0 0 1 128.9639 318.6104)" class="st2 st3 st4">UNIDAD DE CIENCIAS BÁSICAS</text>
<g>
	<rect x="39.5" y="332.5" class="st0" width="287" height="28"/>
	<path class="st1" d="M326,333v27H40v-27H326 M327,332H39v29h288V332L327,332z"/>
</g>
<text transform="matrix(1 0 0 1 48.9463 354.6104)" class="st2 st3 st4">UNIDAD DE ODONTOLOGÍA CONSERVADORA</text>
<g>
	<rect x="43.5" y="369.5" class="st0" width="283" height="28"/>
	<path class="st1" d="M326,370v27H44v-27H326 M327,369H43v29h284V369L327,369z"/>
</g>
<text transform="matrix(1 0 0 1 50.9663 391.6104)" class="st2 st3 st4">UNIDAD DE ODONTOLOGÍA RESTAURADORA</text>
<g>
	<rect x="136.5" y="405.5" class="st0" width="190" height="28"/>
	<path class="st1" d="M326,406v27H137v-27H326 M327,405H136v29h191V405L327,405z"/>
</g>
<text transform="matrix(1 0 0 1 145.5654 427.6104)" class="st2 st3 st4">UNIDAD DE SALUD PÚBLICA</text>
<g>
	<rect x="21.5" y="441.5" class="st0" width="305" height="28"/>
	<path class="st1" d="M326,442v27H22v-27H326 M327,441H21v29h306V441L327,441z"/>
</g>
<text transform="matrix(1 0 0 1 29.4609 463.6104)" class="st2 st3 st4">UNIDAD DE ODONTOLOGÍA INTEGRAL DEL NIÑO</text>
<g>
	<rect x="5.5" y="478.5" class="st0" width="321" height="28"/>
	<path class="st1" d="M326,479v27H6v-27H326 M327,478H5v29h322V478L327,478z"/>
</g>
<text transform="matrix(1 0 0 1 11.3833 500.6104)" class="st2 st3 st4">UNIDAD DE ODONTOLOGÍA INTEGRAL DEL ADULTO</text>
<g>
	<rect x="185.5" y="514.5" class="st0" width="141" height="28"/>
	<path class="st1" d="M326,515v27H186v-27H326 M327,514H185v29h142V514L327,514z"/>
</g>
<text transform="matrix(1 0 0 1 193.0254 536.6104)" class="st2 st3 st4">UNIDAD DE CIRUGÍA</text>
<g>
	<rect x="68.5" y="550.5" class="st0" width="258" height="28"/>
	<path class="st1" d="M326,551v27H69v-27H326 M327,550H68v29h259V550L327,550z"/>
</g>
<text transform="matrix(1 0 0 1 74.2632 572.6104)" class="st2 st3 st4">UNIDAD DE PATOLOGÍA Y DIAGNÓSTICO</text>
<g>
	<rect x="468.5" y="296.5" class="st0" width="177" height="28"/>
	<path class="st1" d="M645,297v27H469v-27H645 M646,296H468v29h178V296L646,296z"/>
</g>
<text transform="matrix(1 0 0 1 479.0737 318.6104)" class="st2 st3 st4">INTERNADO ASISTENCIAL</text>
<g>
	<rect x="1670.5" y="296.5" class="st0" width="170" height="28"/>
	<path class="st1" d="M1840,297v27h-169v-27H1840 M1841,296h-171v29h171V296L1841,296z"/>
</g>
<text transform="matrix(1 0 0 1 1679.8198 318.6104)" class="st2 st3 st4">UNIDAD DE RADIOLOGÍA</text>
<g>
	<rect x="1670.5" y="332.5" class="st0" width="197" height="28"/>
	<path class="st1" d="M1867,333v27h-196v-27H1867 M1868,332h-198v29h198V332L1868,332z"/>
</g>
<text transform="matrix(1 0 0 1 1680.1909 354.6104)" class="st2 st3 st4">CENTRAL DE ESTERILIZACIÓN</text>
<g>
	<rect x="1670.5" y="369.5" class="st0" width="95" height="28"/>
	<path class="st1" d="M1765,370v27h-94v-27H1765 M1766,369h-96v29h96V369L1766,369z"/>
</g>
<text transform="matrix(1 0 0 1 1679.646 391.6104)" class="st2 st3 st4">ENFERMERÍA</text>
<g>
	<rect x="1670.5" y="405.5" class="st0" width="120" height="28"/>
	<path class="st1" d="M1790,406v27h-119v-27H1790 M1791,405h-121v29h121V405L1791,405z"/>
</g>
<text transform="matrix(1 0 0 1 1679.3979 427.6104)" class="st2 st3 st4">PERSONAL (TAA)</text>
<g>
	<rect x="1382.5" y="296.5" class="st0" width="146" height="28"/>
	<path class="st1" d="M1528,297v27h-145v-27H1528 M1529,296h-147v29h147V296L1529,296z"/>
</g>
<text transform="matrix(1 0 0 1 1392.7446 318.6104)" class="st2 st3 st4">UNIDADES CLÍNICAS</text>
<g>
	<rect x="1307.5" y="332.5" class="st0" width="221" height="28"/>
	<path class="st1" d="M1528,333v27h-220v-27H1528 M1529,332h-222v29h222V332L1529,332z"/>
</g>
<text transform="matrix(1 0 0 1 1314.4072 354.6104)" class="st2 st3 st4">PABELLONES DE CIRUGÍA MENOR</text>
<g>
	<rect x="1371.5" y="369.5" class="st0" width="157" height="28"/>
	<path class="st1" d="M1528,370v27h-156v-27H1528 M1529,369h-158v29h158V369L1529,369z"/>
</g>
<text transform="matrix(1 0 0 1 1381.1855 391.6104)" class="st2 st3 st4">UNIDAD DE URGENCIA</text>
<g id="Capa_2">
</g>
<line class="st5" x1="998.5" y1="59.5" x2="998.5" y2="185.5"/>
<line class="st5" x1="998.5" y1="214.5" x2="998.5" y2="231.5"/>
<line class="st5" x1="397.5" y1="223.5" x2="998.5" y2="223.5"/>
<line class="st5" x1="1600.5" y1="223.5" x2="663.5" y2="223.5"/>
<line class="st5" x1="998.5" y1="286.5" x2="998.5" y2="383.5"/>
<line class="st5" x1="939.5" y1="310.5" x2="1059.5" y2="310.5"/>
<line class="st5" x1="939.5" y1="346.5" x2="998.5" y2="346.5"/>
<line class="st5" x1="939.5" y1="383.5" x2="998.5" y2="383.5"/>
<line class="st5" x1="1599.5" y1="286.5" x2="1599.5" y2="419.5"/>
<line class="st5" x1="1669.5" y1="419.5" x2="1599.5" y2="419.5"/>
<line class="st5" x1="1669.5" y1="383.5" x2="1528.5" y2="383.5"/>
<line class="st5" x1="1528.5" y1="346.5" x2="1669.5" y2="346.5"/>
<line class="st5" x1="1669.5" y1="310.5" x2="1528.5" y2="310.5"/>
<line class="st5" x1="397.5" y1="286.5" x2="397.5" y2="564.5"/>
<line class="st5" x1="326.5" y1="564.5" x2="397.5" y2="564.5"/>
<line class="st5" x1="326.5" y1="528.5" x2="397.5" y2="528.5"/>
<line class="st5" x1="326.5" y1="492.5" x2="397.5" y2="492.5"/>
<line class="st5" x1="326.5" y1="455.5" x2="397.5" y2="455.5"/>
<line class="st5" x1="326.5" y1="419.5" x2="397.5" y2="419.5"/>
<line class="st5" x1="326.5" y1="383.5" x2="397.5" y2="383.5"/>
<line class="st5" x1="326.5" y1="346.5" x2="397.5" y2="346.5"/>
<line class="st5" x1="326.5" y1="310.5" x2="467.5" y2="310.5"/>
<g>
	<g>
		<line class="st5" x1="899.5" y1="90.5" x2="902" y2="90.5"/>
		<line class="st6" x1="906.9" y1="90.5" x2="993.5" y2="90.5"/>
		<line class="st5" x1="996" y1="90.5" x2="998.5" y2="90.5"/>
	</g>
</g>
<g>
	<g>
		<line class="st5" x1="899.5" y1="127.5" x2="902" y2="127.5"/>
		<line class="st6" x1="906.9" y1="127.5" x2="993.5" y2="127.5"/>
		<line class="st5" x1="996" y1="127.5" x2="998.5" y2="127.5"/>
	</g>
</g>
<g>
	<g>
		<line class="st5" x1="899.5" y1="163.5" x2="902" y2="163.5"/>
		<line class="st6" x1="906.9" y1="163.5" x2="993.5" y2="163.5"/>
		<line class="st5" x1="996" y1="163.5" x2="998.5" y2="163.5"/>
	</g>
</g>
<g>
	<g>
		<line class="st5" x1="998.5" y1="82.5" x2="1001" y2="82.5"/>
		<line class="st7" x1="1006.1" y1="82.5" x2="1094.5" y2="82.5"/>
		<line class="st5" x1="1097" y1="82.5" x2="1099.5" y2="82.5"/>
	</g>
</g>
<g>
	<g>
		<line class="st5" x1="1099.5" y1="118.5" x2="1097" y2="118.5"/>
		<line class="st7" x1="1091.9" y1="118.5" x2="1003.5" y2="118.5"/>
		<line class="st5" x1="1001" y1="118.5" x2="998.5" y2="118.5"/>
	</g>
</g>
<g>
	<g>
		<line class="st5" x1="1099.5" y1="155.5" x2="1097" y2="155.5"/>
		<line class="st7" x1="1091.9" y1="155.5" x2="1003.5" y2="155.5"/>
		<line class="st5" x1="1001" y1="155.5" x2="998.5" y2="155.5"/>
	</g>
</g>
<line class="st5" x1="397.5" y1="231.5" x2="397.5" y2="223.5"/>
<line class="st5" x1="1600.5" y1="232" x2="1600.5" y2="224"/>
<line class="st8" x1="542.5" y1="163.5" x2="383.5" y2="163.5"/>
<line class="st8" x1="383.5" y1="231.5" x2="383.5" y2="163.5"/>
<line class="st8" x1="721.5" y1="177.5" x2="721.5" y2="259.5"/>
<line class="st8" x1="939.5" y1="258.5" x2="721.5" y2="258.5"/>
<line class="st8" x1="1060.5" y1="259.5" x2="1528.5" y2="259.5"/>
</svg>
