<svg id="Capa_1" data-name="Capa 1" xmlns="http://www.w3.org/2000/svg" viewBox="0 0 1560 755.24"><defs><style type="text/css">@import url('https://fonts.googleapis.com/css?family=Oswald');</style></defs><defs><style>.cls-1,.cls-17{fill:#266987;}.cls-12,.cls-18,.cls-2{fill:#214e83;}.cls-12,.cls-3{font-size:13px;}.cls-11,.cls-3{fill:#fff;}.cls-12,.cls-13,.cls-18,.cls-3{font-family:Oswald-Regular, Oswald;}.cls-16,.cls-4{fill:#3d93c1;}.cls-5{letter-spacing:-0.01em;}.cls-6{letter-spacing:-0.02em;}.cls-7{letter-spacing:-0.01em;}.cls-8{letter-spacing:-0.01em;}.cls-9{letter-spacing:0em;}.cls-10{letter-spacing:0em;}.cls-13{font-size:11px;fill:#353535;}.cls-14,.cls-15{fill:none;}.cls-15,.cls-16,.cls-17{stroke:#214e83;stroke-miterlimit:10;}.cls-18{font-size:10px;}.cls-19{letter-spacing:0em;}.cls-20{letter-spacing:0em;}</style></defs><title>malla_carrera</title><rect class="cls-1" x="11.5" y="58.74" width="100" height="62.14"/><path class="cls-2" d="M119,70v61.14H20V70h99m1-1H19v63.14H120V69Z" transform="translate(-8 -10.76)"/><text class="cls-3" transform="translate(28.4 77.23)">Introducción a<tspan x="-0.05" y="15.6">la Odontología</tspan><tspan x="23.34" y="31.2">CT:3</tspan></text><rect class="cls-4" x="142.5" y="58.74" width="100" height="62.14"/><path class="cls-2" d="M250,70v61.14H151V70h99m1-1H150v63.14H251V69Z" transform="translate(-8 -10.76)"/><text class="cls-3" transform="translate(171.14 77.23)">Fisiología<tspan x="3.87" y="15.6">General</tspan><tspan x="11.56" y="31.2">CT:4</tspan></text><rect class="cls-4" x="273.5" y="58.74" width="100" height="62.14"/><path class="cls-2" d="M381,70v61.14H282V70h99m1-1H281v63.14H382V69Z" transform="translate(-8 -10.76)"/><text class="cls-3" transform="translate(302.25 77.23)">P<tspan class="cls-5" x="6.24" y="0">a</tspan><tspan x="11.67" y="0">tología</tspan><tspan x="3.76" y="15.6">General</tspan><tspan x="12.73" y="31.2">CT4</tspan></text><rect class="cls-1" x="403.5" y="58.74" width="100" height="62.14"/><path class="cls-2" d="M511,70v61.14H412V70h99m1-1H411v63.14H512V69Z" transform="translate(-8 -10.76)"/><text class="cls-3" transform="translate(432.14 77.23)">Fisiología<tspan x="12.17" y="15.6">Oral</tspan><tspan x="11.56" y="31.2">CT:4</tspan></text><rect class="cls-1" x="534.5" y="58.74" width="100" height="62.14"/><path class="cls-2" d="M642,70v61.14H543V70h99m1-1H542v63.14H643V69Z" transform="translate(-8 -10.76)"/><text class="cls-3" transform="translate(561.82 77.23)">Preclínico<tspan x="-2.29" y="15.6">Integrado I</tspan><tspan x="10.34" y="31.2">CT:12</tspan></text><rect class="cls-1" x="664.5" y="58.74" width="100" height="62.14"/><path class="cls-2" d="M772,70v61.14H673V70h99m1-1H672v63.14H773V69Z" transform="translate(-8 -10.76)"/><text class="cls-3" transform="translate(691.68 77.23)">Preclínico<tspan x="-3.9" y="15.6">Integrado II</tspan><tspan x="10.34" y="31.2">CT:12</tspan></text><rect class="cls-4" x="11.5" y="179.74" width="100" height="62.14"/><path class="cls-2" d="M119,191v61.14H20V191h99m1-1H19v63.14H120V190Z" transform="translate(-8 -10.76)"/><text class="cls-3" transform="translate(43.19 198.23)">Biología<tspan x="2.18" y="15.6">Celular</tspan><tspan x="8.38" y="31.2">CT:6</tspan></text><rect class="cls-4" x="142.5" y="179.74" width="100" height="62.14"/><path class="cls-2" d="M250,191v61.14H151V191h99m1-1H150v63.14H251V190Z" transform="translate(-8 -10.76)"/><text class="cls-3" transform="translate(149.56 198.23)">Biología Molecular<tspan x="18.83" y="15.6">y Genética</tspan><tspan x="33.15" y="31.2">CT:4</tspan></text><rect class="cls-4" x="273.5" y="179.74" width="100" height="62.14"/><path class="cls-2" d="M381,191v61.14H282V191h99m1-1H281v63.14H382V190Z" transform="translate(-8 -10.76)"/><text class="cls-3" transform="translate(292.83 198.23)">Farmacología<tspan x="29.71" y="15.6">I</tspan><tspan x="20.87" y="31.2">CT:4</tspan></text><rect class="cls-4" x="403.5" y="179.74" width="100" height="62.14"/><path class="cls-2" d="M511,191v61.14H412V191h99m1-1H411v63.14H512V190Z" transform="translate(-8 -10.76)"/><text class="cls-3" transform="translate(422.83 198.23)">Farmacología<tspan x="28.1" y="15.6">II</tspan><tspan x="20.87" y="31.2">CT:4</tspan></text><rect class="cls-1" x="534.5" y="179.74" width="100" height="62.14"/><path class="cls-2" d="M642,191v61.14H543V191h99m1-1H542v63.14H643V190Z" transform="translate(-8 -10.76)"/><text class="cls-3" transform="translate(563.25 198.23)">P<tspan class="cls-5" x="6.24" y="0">a</tspan><tspan x="11.67" y="0">tología</tspan><tspan x="5.61" y="15.6">Bucal I</tspan><tspan x="11.45" y="31.2">CT:4</tspan></text><rect class="cls-1" x="664.5" y="179.74" width="100" height="62.14"/><path class="cls-2" d="M772,191v61.14H673V191h99m1-1H672v63.14H773V190Z" transform="translate(-8 -10.76)"/><text class="cls-3" transform="translate(693.11 198.23)">P<tspan class="cls-5" x="6.24" y="0">a</tspan><tspan x="11.67" y="0">tología</tspan><tspan x="4" y="15.6">Bucal II</tspan><tspan x="11.45" y="31.2">CT:4</tspan></text><rect class="cls-4" x="11.5" y="302.74" width="100" height="62.14"/><path class="cls-2" d="M119,314v61.14H20V314h99m1-1H19v63.14H120V313Z" transform="translate(-8 -10.76)"/><text class="cls-3" transform="translate(23.34 321.23)">Química General<tspan x="13.81" y="15.6">y Orgánica</tspan><tspan x="28.24" y="31.2">CT:9</tspan></text><rect class="cls-4" x="142.5" y="302.74" width="100" height="62.14"/><path class="cls-2" d="M250,314v61.14H151V314h99m1-1H150v63.14H251V313Z" transform="translate(-8 -10.76)"/><text class="cls-3" transform="translate(148.87 321.23)">Comunicación Oral<tspan x="24.3" y="15.6">y </tspan><tspan class="cls-6" x="32.37" y="15.6">E</tspan><tspan x="37.37" y="15.6">scrita</tspan><tspan x="33.83" y="31.2">CT:4</tspan></text><rect class="cls-4" x="273.5" y="302.74" width="100" height="62.14"/><path class="cls-2" d="M381,314v61.14H282V314h99m1-1H281v63.14H382V313Z" transform="translate(-8 -10.76)"/><text class="cls-3" transform="translate(292.4 321.23)">Microbiología<tspan x="-1.13" y="15.6">e Inmunología</tspan><tspan x="21.94" y="31.2">CT:7</tspan></text><rect class="cls-1" x="403.5" y="302.74" width="100" height="62.14"/><path class="cls-2" d="M511,314v61.14H412V314h99m1-1H411v63.14H512V313Z" transform="translate(-8 -10.76)"/><text class="cls-3" transform="translate(422.4 321.23)">Microbiología<tspan x="21.91" y="15.6">Oral</tspan><tspan x="21.94" y="31.2">CT:7</tspan></text><rect class="cls-1" x="534.5" y="302.74" width="100" height="62.14"/><path class="cls-2" d="M642,314v61.14H543V314h99m1-1H542v63.14H643V313Z" transform="translate(-8 -10.76)"/><text class="cls-3" x="-8" y="-10.76"><tspan x="561.4" y="336.83">Cariología</tspan><tspan x="575.99" y="352.43">CT4</tspan></text><rect class="cls-1" x="664.5" y="302.74" width="100" height="62.14"/><path class="cls-2" d="M772,314v61.14H673V314h99m1-1H672v63.14H773V313Z" transform="translate(-8 -10.76)"/><text class="cls-3" transform="translate(687.44 321.23)"><tspan class="cls-7">P</tspan><tspan x="6.16" y="0">eriodoncia</tspan><tspan x="25.96" y="15.6">I</tspan><tspan x="17.12" y="31.2">CT:4</tspan></text><rect class="cls-4" x="11.5" y="425.74" width="100" height="62.14"/><path class="cls-2" d="M119,437v61.14H20V437h99m1-1H19v63.14H120V436Z" transform="translate(-8 -10.76)"/><text class="cls-3" transform="translate(39.98 444.23)">An<tspan class="cls-8" x="12.1" y="0">a</tspan><tspan x="17.54" y="0">tomía</tspan><tspan x="4.03" y="15.6">General</tspan><tspan x="11.62" y="31.2">CT:8</tspan></text><rect class="cls-4" x="142.5" y="425.74" width="100" height="62.14"/><path class="cls-2" d="M250,437v61.14H151V437h99m1-1H150v63.14H251V436Z" transform="translate(-8 -10.76)"/><text class="cls-3" transform="translate(161.32 444.23)">Embriología e<tspan x="-11.43" y="15.6">Histología General</tspan><tspan x="21.25" y="31.2">CT:6</tspan></text><rect class="cls-1" x="273.5" y="425.74" width="100" height="62.14"/><path class="cls-2" d="M381,437v61.14H282V437h99m1-1H281v63.14H382V436Z" transform="translate(-8 -10.76)"/><text class="cls-3" transform="translate(291.63 444.23)">Biom<tspan class="cls-5" x="24.15" y="0">a</tspan><tspan x="29.59" y="0">teriales</tspan><tspan x="30.92" y="15.6">I</tspan><tspan x="22.71" y="31.2">CT:7</tspan></text><rect class="cls-1" x="403.5" y="425.74" width="100" height="62.14"/><path class="cls-2" d="M511,437v61.14H412V437h99m1-1H411v63.14H512V436Z" transform="translate(-8 -10.76)"/><text class="cls-3" transform="translate(421.63 444.23)">Biom<tspan class="cls-5" x="24.15" y="0">a</tspan><tspan x="29.59" y="0">teriales</tspan><tspan x="29.31" y="15.6">II</tspan><tspan x="22.71" y="31.2">CT:7</tspan></text><rect class="cls-4" x="534.5" y="425.74" width="100" height="62.14"/><path class="cls-2" d="M642,437v61.14H543V437h99m1-1H542v63.14H643V436Z" transform="translate(-8 -10.76)"/><text class="cls-3" x="-8" y="-10.76"><tspan x="551.87" y="459.83">Bioestadística</tspan><tspan x="574.74" y="475.43">CT:2</tspan></text><rect class="cls-4" x="664.5" y="425.74" width="100" height="62.14"/><path class="cls-2" d="M772,437v61.14H673V437h99m1-1H672v63.14H773V436Z" transform="translate(-8 -10.76)"/><text class="cls-3" transform="translate(682.4 444.23)">Epidemiología<tspan x="1.46" y="15.6">y Demografía</tspan><tspan x="22.2" y="31.2">CT:2</tspan></text><rect class="cls-4" x="11.5" y="548.74" width="100" height="62.14"/><path class="cls-2" d="M119,560v61.14H20V560h99m1-1H19v63.14H120V559Z" transform="translate(-8 -10.76)"/><text class="cls-3" transform="translate(27.15 567.23)">Física Aplicada<tspan x="11.93" y="15.6">a la Salud</tspan><tspan x="24.55" y="31.2">CT:4</tspan></text><rect class="cls-1" x="142.5" y="548.74" width="100" height="62.14"/><path class="cls-2" d="M250,560v61.14H151V560h99m1-1H150v63.14H251V559Z" transform="translate(-8 -10.76)"/><text class="cls-3" transform="translate(163.88 567.23)">An<tspan class="cls-8" x="12.1" y="0">a</tspan><tspan x="17.54" y="0">tomía de</tspan><tspan x="-7.72" y="15.6">Cabeza y Cuello</tspan><tspan x="16.03" y="31.2">CT:10</tspan></text><rect class="cls-1" x="273.5" y="548.74" width="100" height="62.14"/><path class="cls-2" d="M381,560v61.14H282V560h99m1-1H281v63.14H382V559Z" transform="translate(-8 -10.76)"/><text class="cls-3" transform="translate(291.53 562.23)">Crecimiento y<tspan x="8.59" y="15.6">Desarrollo</tspan><tspan x="0.26" y="31.2">Cráneo-Facial</tspan><tspan x="22.18" y="46.8">CT:4</tspan></text><rect class="cls-4" x="403.5" y="548.74" width="100" height="62.14"/><path class="cls-2" d="M511,560v61.14H412V560h99m1-1H411v63.14H512V559Z" transform="translate(-8 -10.76)"/><text class="cls-3" transform="translate(421.76 567.23)">Fisiop<tspan class="cls-5" x="27.22" y="0">a</tspan><tspan x="32.66" y="0">tología</tspan><tspan x="14.25" y="15.6">General</tspan><tspan x="21.94" y="31.2">CT:4</tspan></text><rect class="cls-1" x="534.5" y="548.74" width="100" height="62.14"/><path class="cls-2" d="M642,560v61.14H543V560h99m1-1H542v63.14H643V559Z" transform="translate(-8 -10.76)"/><text class="cls-3" x="-8" y="-10.76"><tspan x="565.1" y="582.83">Oclusión</tspan><tspan x="574.58" y="598.43">CT:6</tspan></text><rect class="cls-1" x="664.5" y="548.74" width="100" height="62.14"/><path class="cls-2" d="M772,560v61.14H673V560h99m1-1H672v63.14H773V559Z" transform="translate(-8 -10.76)"/><text class="cls-3" transform="translate(684.73 562.23)">Radiología e <tspan x="-3.74" y="15.6">Ima</tspan><tspan class="cls-9" x="13.86" y="15.6">g</tspan><tspan class="cls-10" x="19.47" y="15.6">eonología</tspan><tspan x="-11.88" y="31.2">Buco-Maxilofacial</tspan><tspan x="19.7" y="46.8">CT:6</tspan></text><rect class="cls-4" x="142.5" y="672.74" width="100" height="62.14"/><path class="cls-2" d="M250,684v61.14H151V684h99m1-1H150v63.14H251V683Z" transform="translate(-8 -10.76)"/><text class="cls-3" transform="translate(180.09 691.23)">Salud<tspan x="-4.24" y="15.6">Pública</tspan><tspan x="2.65" y="31.2">CT:2</tspan></text><rect class="cls-4" x="273.5" y="672.74" width="100" height="62.14"/><path class="cls-2" d="M381,684v61.14H282V684h99m1-1H281v63.14H382V683Z" transform="translate(-8 -10.76)"/><text class="cls-3" x="-8" y="-10.76"><tspan x="297.96" y="706.83">Bioquímica</tspan><tspan x="313.71" y="722.43">CT:4</tspan></text><rect class="cls-1" x="403.5" y="672.74" width="100" height="62.14"/><path class="cls-2" d="M511,684v61.14H412V684h99m1-1H411v63.14H512V683Z" transform="translate(-8 -10.76)"/><text class="cls-3" transform="translate(430.52 691.23)">Histología<tspan x="-7.64" y="15.6">Bucodentaria</tspan><tspan x="13.18" y="31.2">CT:4</tspan></text><rect class="cls-4" x="534.5" y="672.74" width="100" height="62.14"/><path class="cls-2" d="M642,684v61.14H543V684h99m1-1H542v63.14H643V683Z" transform="translate(-8 -10.76)"/><text class="cls-3" transform="translate(549.33 691.23)">Metodología de<tspan x="-0.92" y="15.6">la Investigación</tspan><tspan x="25.41" y="31.2">CT:2</tspan></text><rect class="cls-1" x="664.5" y="672.74" width="100" height="62.14"/><path class="cls-2" d="M772,684v61.14H673V684h99m1-1H672v63.14H773V683Z" transform="translate(-8 -10.76)"/><text class="cls-3" x="-8" y="-10.76"><tspan x="689.23" y="706.83">Semiología</tspan><tspan x="704.6" y="722.43">CT:2</tspan></text><rect class="cls-11" x="796.5" y="58.74" width="100" height="62.14"/><path class="cls-2" d="M904,70v61.14H805V70h99m1-1H804v63.14H905V69Z" transform="translate(-8 -10.76)"/><text class="cls-12" transform="translate(820.61 78.23)">Endodoncia<tspan x="24.94" y="15.6">I</tspan><tspan x="16.1" y="31.2">CT:4</tspan></text><rect class="cls-11" x="927.5" y="58.74" width="100" height="62.14"/><path class="cls-2" d="M1035,70v61.14H936V70h99m1-1H935v63.14h101V69Z" transform="translate(-8 -10.76)"/><text class="cls-12" transform="translate(951.46 78.23)">Endodoncia<tspan x="23.33" y="15.6">II</tspan><tspan x="16.1" y="31.2">CT:4</tspan></text><rect class="cls-11" x="1058.5" y="58.74" width="100" height="62.14"/><path class="cls-2" d="M1166,70v61.14h-99V70h99m1-1H1066v63.14h101V69Z" transform="translate(-8 -10.76)"/><text class="cls-12" transform="translate(1090.1 78.23)">Prótesis<tspan x="-8.46" y="15.6">Removible I</tspan><tspan x="8.65" y="31.2">CT:5</tspan></text><rect class="cls-11" x="1188.5" y="58.74" width="100" height="62.14"/><path class="cls-2" d="M1296,70v61.14h-99V70h99m1-1H1196v63.14h101V69Z" transform="translate(-8 -10.76)"/><text class="cls-12" transform="translate(1220.1 78.23)">Prótesis<tspan x="-10.07" y="15.6">Removible II</tspan><tspan x="8.61" y="31.2">CT:4</tspan></text><rect class="cls-11" x="1319.5" y="58.74" width="100" height="62.14"/><path class="cls-2" d="M1427,70v61.14h-99V70h99m1-1H1327v63.14h101V69Z" transform="translate(-8 -10.76)"/><text class="cls-12" transform="translate(1330.01 78.23)">Integrado Clínico<tspan x="11.42" y="15.6">Asistencial I</tspan><tspan x="26.3" y="31.2">CT:30</tspan></text><rect class="cls-11" x="1449.5" y="58.74" width="100" height="62.14"/><path class="cls-2" d="M1557,70v61.14h-99V70h99m1-1H1457v63.14h101V69Z" transform="translate(-8 -10.76)"/><text class="cls-12" transform="translate(1460.04 78.23)">Integrado Clínico<tspan x="9.81" y="15.6">Asistencial II</tspan><tspan x="26.42" y="31.2">CT:28</tspan></text><rect class="cls-11" x="796.5" y="179.74" width="100" height="62.14"/><path class="cls-2" d="M904,191v61.14H805V191h99m1-1H804v63.14H905V190Z" transform="translate(-8 -10.76)"/><text class="cls-12" transform="translate(813.47 199.23)">Rehabilitación<tspan x="20.74" y="15.6">Oral I</tspan><tspan x="23.13" y="31.2">CT:8</tspan></text><rect class="cls-11" x="927.5" y="179.74" width="100" height="62.14"/><path class="cls-2" d="M1035,191v61.14H936V191h99m1-1H935v63.14h101V190Z" transform="translate(-8 -10.76)"/><text class="cls-12" transform="translate(944.33 199.23)">Rehabilitación<tspan x="19.13" y="15.6">Oral II</tspan><tspan x="23.13" y="31.2">CT:8</tspan></text><rect class="cls-11" x="1058.5" y="179.74" width="100" height="62.14"/><path class="cls-2" d="M1166,191v61.14h-99V191h99m1-1H1066v63.14h101V190Z" transform="translate(-8 -10.76)"/><text class="cls-12" transform="translate(1073.22 199.23)">Clínica Integral<tspan x="9.07" y="15.6">del Adulto I</tspan><tspan x="25.38" y="31.2">CT:8</tspan></text><rect class="cls-11" x="1188.5" y="179.74" width="100" height="62.14"/><path class="cls-2" d="M1296,191v61.14h-99V191h99m1-1H1196v63.14h101V190Z" transform="translate(-8 -10.76)"/><text class="cls-12" transform="translate(1203.22 199.23)">Clínica Integral<tspan x="7.46" y="15.6">del Adulto II</tspan><tspan x="25.38" y="31.2">CT:8</tspan></text><rect class="cls-4" x="1449.5" y="179.74" width="100" height="62.14"/><path class="cls-2" d="M1557,191v61.14h-99V191h99m1-1H1457v63.14h101V190Z" transform="translate(-8 -10.76)"/><text class="cls-3" transform="translate(1457.44 199.23)">Informe y Defensa<tspan x="13.03" y="15.6">de Internado</tspan><tspan x="32.26" y="31.2">CT:2</tspan></text><rect class="cls-11" x="796.5" y="302.74" width="100" height="62.14"/><path class="cls-2" d="M904,314v61.14H805V314h99m1-1H804v63.14H905V313Z" transform="translate(-8 -10.76)"/><text class="cls-12" transform="translate(819.59 322.23)"><tspan class="cls-7">P</tspan><tspan x="6.16" y="0">eriodoncia</tspan><tspan x="24.35" y="15.6">II</tspan><tspan x="17.12" y="31.2">CT:4</tspan></text><rect class="cls-11" x="927.5" y="302.74" width="100" height="62.14"/><path class="cls-2" d="M1035,314v61.14H936V314h99m1-1H935v63.14h101V313Z" transform="translate(-8 -10.76)"/><text class="cls-12" transform="translate(950.44 322.23)"><tspan class="cls-7">P</tspan><tspan x="6.16" y="0">eriodoncia</tspan><tspan x="22.74" y="15.6">III</tspan><tspan x="17.12" y="31.2">CT:4</tspan></text><rect class="cls-11" x="1058.5" y="302.74" width="100" height="62.14"/><path class="cls-2" d="M1166,314v61.14h-99V314h99m1-1H1066v63.14h101V313Z" transform="translate(-8 -10.76)"/><text class="cls-12" transform="translate(1073.22 322.23)">Clínica Integral<tspan x="13.72" y="15.6">del Niño I</tspan><tspan x="25.38" y="31.2">CT:8</tspan></text><rect class="cls-11" x="1188.5" y="302.74" width="100" height="62.14"/><path class="cls-2" d="M1296,314v61.14h-99V314h99m1-1H1196v63.14h101V313Z" transform="translate(-8 -10.76)"/><text class="cls-12" transform="translate(1203.22 322.23)">Clínica Integral<tspan x="12.1" y="15.6">del Niño II</tspan><tspan x="25.38" y="31.2">CT:8</tspan></text><rect class="cls-11" x="796.5" y="425.74" width="100" height="62.14"/><path class="cls-2" d="M904,437v61.14H805V437h99m1-1H804v63.14H905V436Z" transform="translate(-8 -10.76)"/><text class="cls-12" transform="translate(830.32 445.23)">Cirugía<tspan x="15.22" y="15.6">I</tspan><tspan x="6.38" y="31.2">CT:4</tspan></text><rect class="cls-11" x="927.5" y="425.74" width="100" height="62.14"/><path class="cls-2" d="M1035,437v61.14H936V437h99m1-1H935v63.14h101V436Z" transform="translate(-8 -10.76)"/><text class="cls-12" transform="translate(961.18 445.23)">Cirugía<tspan x="13.61" y="15.6">II</tspan><tspan x="6.38" y="31.2">CT:4</tspan></text><rect class="cls-11" x="1058.5" y="425.74" width="100" height="62.14"/><path class="cls-2" d="M1166,437v61.14h-99V437h99m1-1H1066v63.14h101V436Z" transform="translate(-8 -10.76)"/><text class="cls-12" transform="translate(1092.32 445.23)">Cirugía<tspan x="-11.54" y="15.6">Maxilofacial</tspan><tspan x="6.43" y="31.2">CT:5</tspan></text><rect class="cls-11" x="1188.5" y="425.74" width="100" height="62.14"/><path class="cls-2" d="M1296,437v61.14h-99V437h99m1-1H1196v63.14h101V436Z" transform="translate(-8 -10.76)"/><text class="cls-12" transform="translate(1209.35 445.23)">Ortodoncia y<tspan x="6.69" y="15.6">Ortopedia</tspan><tspan x="19.36" y="31.2">CT:4</tspan></text><rect class="cls-11" x="796.5" y="548.74" width="100" height="62.14"/><path class="cls-2" d="M904,560v61.14H805V560h99m1-1H804v63.14H905V559Z" transform="translate(-8 -10.76)"/><text class="cls-12" transform="translate(830.4 568.23)">Odonto<tspan class="cls-7" x="-7.55" y="15.6">P</tspan><tspan x="-1.39" y="15.6">edi</tspan><tspan class="cls-5" x="12.8" y="15.6">a</tspan><tspan x="18.24" y="15.6">tría I</tspan><tspan x="6.35" y="31.2">CT:5</tspan></text><rect class="cls-11" x="927.5" y="548.74" width="100" height="62.14"/><path class="cls-2" d="M1035,560v61.14H936V560h99m1-1H935v63.14h101V559Z" transform="translate(-8 -10.76)"/><text class="cls-12" transform="translate(961.26 568.23)">Odonto<tspan class="cls-7" x="-9.16" y="15.6">P</tspan><tspan x="-3" y="15.6">edi</tspan><tspan class="cls-5" x="11.19" y="15.6">a</tspan><tspan x="16.63" y="15.6">tría II</tspan><tspan x="6.35" y="31.2">CT:5</tspan></text><rect class="cls-11" x="1058.5" y="548.74" width="100" height="62.14"/><path class="cls-2" d="M1166,560v61.14h-99V560h99m1-1H1066v63.14h101V559Z" transform="translate(-8 -10.76)"/><text class="cls-12" transform="translate(1081.1 568.23)">Odontología<tspan x="15.66" y="15.6">Legal</tspan><tspan x="17.64" y="31.2">CT:2</tspan></text><rect class="cls-11" x="1188.5" y="548.74" width="100" height="62.14"/><path class="cls-2" d="M1296,560v61.14h-99V560h99m1-1H1196v63.14h101V559Z" transform="translate(-8 -10.76)"/><text class="cls-12" transform="translate(1218.29 562.23)">Cirugía y<tspan x="-12.73" y="15.6">Traum</tspan><tspan class="cls-5" x="16.91" y="15.6">a</tspan><tspan x="22.34" y="15.6">tología</tspan><tspan x="-7.51" y="31.2">Maxilofacial</tspan><tspan x="10.42" y="46.8">CT:4</tspan></text><rect class="cls-11" x="927.5" y="672.74" width="100" height="62.14"/><path class="cls-2" d="M1035,684v61.14H936V684h99m1-1H935v63.14h101V683Z" transform="translate(-8 -10.76)"/><text class="cls-12" transform="translate(952.96 692.23)">Oper<tspan class="cls-5" x="22.45" y="0">a</tspan><tspan x="27.88" y="0">toria</tspan><tspan x="21.83" y="15.6">II</tspan><tspan x="14.64" y="31.2">CT:5</tspan></text><rect class="cls-4" x="1058.5" y="672.74" width="100" height="62.14"/><path class="cls-2" d="M1166,684v61.14h-99V684h99m1-1H1066v63.14h101V683Z" transform="translate(-8 -10.76)"/><text class="cls-3" transform="translate(1069.74 692.23)">Administración y<tspan x="0.04" y="15.6">Gestión en Salud</tspan><tspan x="29" y="31.2">CT:2</tspan></text><rect class="cls-1" x="1188.5" y="672.74" width="100" height="62.14"/><path class="cls-2" d="M1296,684v61.14h-99V684h99m1-1H1196v63.14h101V683Z" transform="translate(-8 -10.76)"/><text class="cls-3" transform="translate(1211.1 692.23)">Odontología<tspan x="4.54" y="15.6">Geri</tspan><tspan class="cls-5" x="24.11" y="15.6">á</tspan><tspan x="29.55" y="15.6">trica</tspan><tspan x="17.64" y="31.2">CT:2</tspan></text><rect class="cls-11" x="796.5" y="672.74" width="100" height="62.14"/><path class="cls-2" d="M904,684v61.14H805V684h99m1-1H804v63.14H905V683Z" transform="translate(-8 -10.76)"/><text class="cls-12" transform="translate(822.11 691.23)">Oper<tspan class="cls-5" x="22.45" y="0">a</tspan><tspan x="27.88" y="0">toria</tspan><tspan x="23.44" y="15.6">I</tspan><tspan x="14.64" y="31.2">CT:5</tspan></text><text class="cls-13" transform="translate(41.48 9.96)">SEMESTRE<tspan x="19.31" y="13.2">I</tspan></text><text class="cls-13" transform="translate(172.48 9.96)">SEMESTRE<tspan x="17.95" y="13.2">II</tspan></text><text class="cls-13" transform="translate(303.48 9.96)">SEMESTRE<tspan x="16.58" y="13.2">III</tspan></text><text class="cls-13" transform="translate(433.48 9.96)">SEMESTRE<tspan x="16.53" y="13.2">IV</tspan></text><text class="cls-13" transform="translate(564.48 9.96)">SEMESTRE<tspan x="17.9" y="13.2">V</tspan></text><text class="cls-13" transform="translate(694.34 9.96)">SEMESTRE<tspan x="16.53" y="13.2">VI</tspan></text><text class="cls-13" transform="translate(826.48 9.96)">SEMESTRE<tspan x="15.17" y="13.2">VII</tspan></text><text class="cls-13" transform="translate(957.34 9.96)">SEMESTRE<tspan x="13.81" y="13.2">VIII</tspan></text><text class="cls-13" transform="translate(1088.48 9.96)">SEMESTRE<tspan x="16.66" y="13.2">IX</tspan></text><text class="cls-13" transform="translate(1218.48 9.96)">SEMESTRE<tspan x="18.02" y="13.2">X</tspan></text><text class="cls-13" transform="translate(1349.42 9.96)">SEMESTRE<tspan x="16.66" y="13.2">XI</tspan></text><text class="cls-13" transform="translate(1479.45 9.96)">SEMESTRE<tspan x="15.3" y="13.2">XII</tspan></text><line class="cls-14" x1="192" y1="58.24" x2="192" y2="39.24"/><line class="cls-14" x1="779" y1="39.24" x2="192" y2="39.24"/><line class="cls-15" x1="191.5" y1="57.74" x2="191.5" y2="38.74"/><line class="cls-15" x1="454.5" y1="38.74" x2="191.5" y2="38.74"/><line class="cls-15" x1="779.5" y1="704.74" x2="779.5" y2="31.74"/><line class="cls-15" x1="770.47" y1="704.74" x2="779.5" y2="704.74"/><polygon class="cls-2" points="773.28 708.44 771.71 704.74 773.28 701.04 764.5 704.74 773.28 708.44"/><line class="cls-15" x1="318.5" y1="39.74" x2="318.5" y2="52.77"/><polygon class="cls-2" points="314.8 49.96 318.5 51.54 322.2 49.96 318.5 58.74 314.8 49.96"/><line class="cls-15" x1="454.5" y1="38.74" x2="454.5" y2="52.77"/><polygon class="cls-2" points="450.8 49.96 454.5 51.54 458.2 49.96 454.5 58.74 450.8 49.96"/><line class="cls-15" x1="584.5" y1="58.74" x2="584.5" y2="45.74"/><line class="cls-15" x1="714.5" y1="45.74" x2="584.5" y2="45.74"/><line class="cls-15" x1="714.5" y1="52.77" x2="714.5" y2="45.74"/><polygon class="cls-2" points="718.2 49.96 714.5 51.54 710.8 49.96 714.5 58.74 718.2 49.96"/><line class="cls-15" x1="847.5" y1="58.74" x2="847.5" y2="38.74"/><line class="cls-15" x1="978.5" y1="38.74" x2="847.5" y2="38.74"/><line class="cls-15" x1="978.5" y1="52.77" x2="978.5" y2="38.74"/><polygon class="cls-2" points="982.2 49.96 978.5 51.54 974.8 49.96 978.5 58.74 982.2 49.96"/><line class="cls-15" x1="1108.5" y1="59.74" x2="1108.5" y2="38.74"/><line class="cls-15" x1="1238.5" y1="38.74" x2="1108.5" y2="38.74"/><line class="cls-15" x1="1238.5" y1="53.77" x2="1238.5" y2="38.74"/><polygon class="cls-2" points="1242.2 50.96 1238.5 52.54 1234.8 50.96 1238.5 59.74 1242.2 50.96"/><line class="cls-15" x1="192.5" y1="735.74" x2="192.5" y2="754.74"/><line class="cls-15" x1="1108.5" y1="754.74" x2="1108.5" y2="742.71"/><polygon class="cls-2" points="1112.2 745.52 1108.5 743.95 1104.8 745.52 1108.5 736.74 1112.2 745.52"/><line class="cls-15" x1="192.5" y1="754.74" x2="1108.5" y2="754.74"/><line class="cls-15" x1="1419.5" y1="90.74" x2="1433.5" y2="90.74"/><line class="cls-15" x1="1433.5" y1="90.74" x2="1433.5" y2="259.74"/><line class="cls-15" x1="1499.5" y1="140.74" x2="1499.5" y2="126.71"/><polygon class="cls-2" points="1503.2 129.52 1499.5 127.95 1495.8 129.52 1499.5 120.74 1503.2 129.52"/><line class="cls-15" x1="1369.5" y1="128.71" x2="1369.5" y2="704.74"/><polygon class="cls-2" points="1365.8 131.52 1369.5 129.95 1373.2 131.52 1369.5 122.74 1365.8 131.52"/><line class="cls-15" x1="1289.5" y1="704.74" x2="1369.5" y2="704.74"/><line class="cls-15" x1="1289.5" y1="580.74" x2="1369.5" y2="580.74"/><line class="cls-15" x1="1289.5" y1="457.74" x2="1369.5" y2="457.74"/><line class="cls-15" x1="1289.5" y1="334.74" x2="1369.5" y2="334.74"/><line class="cls-15" x1="1289.5" y1="211.74" x2="1369.5" y2="211.74"/><line class="cls-15" x1="1289.5" y1="90.74" x2="1304.5" y2="90.74"/><line class="cls-15" x1="1304.5" y1="140.74" x2="1304.5" y2="90.74"/><line class="cls-15" x1="1158.5" y1="211.74" x2="1173.5" y2="211.74"/><line class="cls-15" x1="1173.5" y1="211.74" x2="1173.5" y2="159.74"/><line class="cls-15" x1="1158.5" y1="334.74" x2="1173.5" y2="334.74"/><line class="cls-15" x1="1173.5" y1="281.74" x2="1238.5" y2="281.74"/><line class="cls-15" x1="1173.5" y1="334.74" x2="1173.5" y2="281.74"/><line class="cls-15" x1="1238.5" y1="281.74" x2="1238.5" y2="295.77"/><polygon class="cls-2" points="1234.8 292.96 1238.5 294.54 1242.2 292.96 1238.5 301.74 1234.8 292.96"/><line class="cls-15" x1="1238.5" y1="172.77" x2="1238.5" y2="159.74"/><polygon class="cls-2" points="1242.2 169.96 1238.5 171.54 1234.8 169.96 1238.5 178.74 1242.2 169.96"/><line class="cls-15" x1="1173.5" y1="159.74" x2="1238.5" y2="159.74"/><line class="cls-15" x1="1433.5" y1="259.74" x2="1500.5" y2="259.74"/><line class="cls-15" x1="1500.5" y1="247.71" x2="1500.5" y2="259.74"/><polygon class="cls-2" points="1496.8 250.52 1500.5 248.95 1504.2 250.52 1500.5 241.74 1496.8 250.52"/><line class="cls-15" x1="1433.5" y1="140.74" x2="1499.5" y2="140.74"/><line class="cls-15" x1="1304.5" y1="140.74" x2="1369.5" y2="140.74"/><line class="cls-15" x1="1108.5" y1="365.74" x2="1108.5" y2="383.74"/><line class="cls-15" x1="1239.5" y1="383.74" x2="1108.5" y2="383.74"/><line class="cls-15" x1="1239.5" y1="418.77" x2="1239.5" y2="383.74"/><polygon class="cls-2" points="1243.2 415.96 1239.5 417.54 1235.8 415.96 1239.5 424.74 1243.2 415.96"/><line class="cls-15" x1="1158.5" y1="456.74" x2="1173.5" y2="456.74"/><line class="cls-15" x1="1173.5" y1="580.74" x2="1173.5" y2="456.74"/><line class="cls-15" x1="1181.53" y1="580.74" x2="1173.5" y2="580.74"/><polygon class="cls-2" points="1178.72 577.04 1180.3 580.74 1178.72 584.44 1187.5 580.74 1178.72 577.04"/><line class="cls-15" x1="1108.5" y1="126.71" x2="1108.5" y2="140.74"/><polygon class="cls-2" points="1104.8 129.52 1108.5 127.95 1112.2 129.52 1108.5 120.74 1104.8 129.52"/><line class="cls-15" x1="847" y1="157.74" x2="972.5" y2="157.74"/><line class="cls-15" x1="846.5" y1="178.74" x2="846.5" y2="157.74"/><line class="cls-15" x1="972.5" y1="157.74" x2="972.5" y2="172.77"/><polygon class="cls-2" points="968.8 169.96 972.5 171.54 976.2 169.96 972.5 178.74 968.8 169.96"/><line class="cls-15" x1="846.5" y1="301.74" x2="846.5" y2="281.74"/><line class="cls-15" x1="977.5" y1="295.77" x2="977.5" y2="281.74"/><polygon class="cls-2" points="981.2 292.96 977.5 294.54 973.8 292.96 977.5 301.74 981.2 292.96"/><line class="cls-15" x1="846.5" y1="281.74" x2="977.5" y2="281.74"/><line class="cls-15" x1="846.5" y1="424.74" x2="846.5" y2="403.74"/><line class="cls-15" x1="977.5" y1="418.77" x2="977.5" y2="403.74"/><polygon class="cls-2" points="981.2 415.96 977.5 417.54 973.8 415.96 977.5 424.74 981.2 415.96"/><line class="cls-15" x1="846.5" y1="403.74" x2="977.5" y2="403.74"/><line class="cls-15" x1="846.5" y1="548.74" x2="846.5" y2="527.74"/><line class="cls-15" x1="977.5" y1="542.77" x2="977.5" y2="527.74"/><polygon class="cls-2" points="981.2 539.96 977.5 541.54 973.8 539.96 977.5 548.74 981.2 539.96"/><line class="cls-15" x1="846.5" y1="527.74" x2="977.5" y2="527.74"/><line class="cls-15" x1="846.5" y1="672.74" x2="846.5" y2="649.74"/><line class="cls-15" x1="978.5" y1="666.77" x2="978.5" y2="649.74"/><polygon class="cls-2" points="982.2 663.96 978.5 665.54 974.8 663.96 978.5 672.74 982.2 663.96"/><line class="cls-15" x1="846.5" y1="649.74" x2="978.5" y2="649.74"/><line class="cls-15" x1="1108.5" y1="140.74" x2="982.5" y2="140.74"/><line class="cls-15" x1="982.5" y1="179.74" x2="982.5" y2="140.74"/><line class="cls-15" x1="1027.5" y1="89.74" x2="1037.5" y2="89.74"/><line class="cls-15" x1="1037.5" y1="210.74" x2="1051.53" y2="210.74"/><polygon class="cls-2" points="1048.72 214.44 1050.3 210.74 1048.72 207.04 1057.5 210.74 1048.72 214.44"/><line class="cls-15" x1="1037.5" y1="89.74" x2="1037.5" y2="703.74"/><line class="cls-15" x1="977.5" y1="242.74" x2="977.5" y2="259.74"/><line class="cls-15" x1="1027.5" y1="703.74" x2="1037.5" y2="703.74"/><line class="cls-15" x1="977.5" y1="259.74" x2="1037.5" y2="259.74"/><line class="cls-15" x1="1027.5" y1="579.74" x2="1046.5" y2="579.74"/><line class="cls-15" x1="1046.5" y1="281.74" x2="1046.5" y2="579.74"/><line class="cls-15" x1="1109.5" y1="281.74" x2="1109.5" y2="295.77"/><polygon class="cls-2" points="1105.8 292.96 1109.5 294.54 1113.2 292.96 1109.5 301.74 1105.8 292.96"/><line class="cls-15" x1="1046.5" y1="281.74" x2="1109.5" y2="281.74"/><line class="cls-15" x1="977.5" y1="487.74" x2="977.5" y2="506.74"/><line class="cls-15" x1="1109.5" y1="506.74" x2="977.5" y2="506.74"/><line class="cls-15" x1="1109.5" y1="493.71" x2="1109.5" y2="506.74"/><polygon class="cls-2" points="1105.8 496.52 1109.5 494.95 1113.2 496.52 1109.5 487.74 1105.8 496.52"/><line class="cls-15" x1="977.5" y1="365.74" x2="977.5" y2="383.74"/><line class="cls-15" x1="1037.5" y1="383.74" x2="977.5" y2="383.74"/><line class="cls-15" x1="61.5" y1="178.74" x2="61.5" y2="157.74"/><line class="cls-15" x1="61.5" y1="157.74" x2="121.5" y2="157.74"/><line class="cls-15" x1="197.5" y1="179.24" x2="197.5" y2="141.24"/><line class="cls-15" x1="319.5" y1="127.71" x2="319.5" y2="140.74"/><polygon class="cls-2" points="315.8 130.52 319.5 128.95 323.2 130.52 319.5 121.74 315.8 130.52"/><line class="cls-15" x1="197.5" y1="140.74" x2="319.5" y2="140.74"/><line class="cls-15" x1="241.5" y1="89.74" x2="257.5" y2="89.74"/><line class="cls-15" x1="257.5" y1="210.74" x2="266.53" y2="210.74"/><polygon class="cls-2" points="263.72 214.44 265.3 210.74 263.72 207.04 272.5 210.74 263.72 214.44"/><line class="cls-15" x1="257.5" y1="89.74" x2="257.5" y2="210.74"/><line class="cls-15" x1="329.5" y1="120.74" x2="329.5" y2="140.74"/><line class="cls-15" x1="580.5" y1="141.74" x2="580.5" y2="172.77"/><polygon class="cls-2" points="576.8 169.96 580.5 171.54 584.2 169.96 580.5 178.74 576.8 169.96"/><line class="cls-15" x1="329.5" y1="140.74" x2="580.5" y2="140.74"/><line class="cls-15" x1="373.5" y1="89.74" x2="388.5" y2="89.74"/><line class="cls-15" x1="388.5" y1="579.74" x2="388.5" y2="89.74"/><line class="cls-15" x1="397.53" y1="579.74" x2="388.5" y2="579.74"/><polygon class="cls-2" points="394.72 576.04 396.3 579.74 394.72 583.44 403.5 579.74 394.72 576.04"/><line class="cls-15" x1="329.5" y1="57.74" x2="329.5" y2="31.74"/><line class="cls-15" x1="779.5" y1="31.74" x2="329.5" y2="31.74"/><line class="cls-15" x1="453.5" y1="120.74" x2="453.5" y2="130.74"/><line class="cls-15" x1="524.5" y1="130.74" x2="453.5" y2="130.74"/><line class="cls-15" x1="524.5" y1="579.74" x2="524.5" y2="130.74"/><line class="cls-15" x1="528.53" y1="579.74" x2="524.5" y2="579.74"/><polygon class="cls-2" points="525.72 576.04 527.29 579.74 525.72 583.44 534.5 579.74 525.72 576.04"/><line class="cls-15" x1="503.5" y1="456.74" x2="511.5" y2="456.74"/><line class="cls-15" x1="511.5" y1="89.74" x2="511.5" y2="456.74"/><line class="cls-15" x1="528.53" y1="89.74" x2="511.5" y2="89.74"/><polygon class="cls-2" points="525.72 86.04 527.29 89.74 525.72 93.44 534.5 89.74 525.72 86.04"/><line class="cls-15" x1="503.5" y1="703.74" x2="517.5" y2="703.74"/><line class="cls-15" x1="517.5" y1="210.74" x2="517.5" y2="703.74"/><line class="cls-15" x1="528.53" y1="210.74" x2="517.5" y2="210.74"/><polygon class="cls-2" points="525.72 207.04 527.29 210.74 525.72 214.44 534.5 210.74 525.72 207.04"/><line class="cls-15" x1="463.5" y1="671.74" x2="463.5" y2="649.74"/><line class="cls-15" x1="507.5" y1="649.74" x2="463.5" y2="649.74"/><line class="cls-15" x1="507.5" y1="281.74" x2="507.5" y2="649.74"/><line class="cls-15" x1="710.5" y1="295.77" x2="710.5" y2="281.74"/><polygon class="cls-2" points="714.2 292.96 710.5 294.54 706.8 292.96 710.5 301.74 714.2 292.96"/><line class="cls-15" x1="507.5" y1="281.74" x2="710.5" y2="281.74"/><line class="cls-15" x1="458.5" y1="301.74" x2="458.5" y2="272.74"/><line class="cls-15" x1="719.5" y1="272.74" x2="458.5" y2="272.74"/><line class="cls-15" x1="719.5" y1="272.74" x2="719.5" y2="295.77"/><polygon class="cls-2" points="715.8 292.96 719.5 294.54 723.2 292.96 719.5 301.74 715.8 292.96"/><line class="cls-15" x1="61.5" y1="302.74" x2="61.5" y2="260.74"/><line class="cls-15" x1="328.5" y1="260.74" x2="61.5" y2="260.74"/><line class="cls-15" x1="328.5" y1="248.71" x2="328.5" y2="260.74"/><polygon class="cls-2" points="324.8 251.52 328.5 249.95 332.2 251.52 328.5 242.74 324.8 251.52"/><line class="cls-15" x1="61.5" y1="365.74" x2="61.5" y2="384.74"/><line class="cls-15" x1="319.5" y1="384.74" x2="319.5" y2="418.77"/><polygon class="cls-2" points="315.8 415.96 319.5 417.54 323.2 415.96 319.5 424.74 315.8 415.96"/><line class="cls-15" x1="61.5" y1="384.74" x2="319.5" y2="384.74"/><line class="cls-15" x1="10.5" y1="333.74" x2="0.5" y2="333.74"/><line class="cls-15" x1="0.5" y1="649.74" x2="0.5" y2="333.74"/><line class="cls-15" x1="323.5" y1="649.74" x2="0.5" y2="649.74"/><line class="cls-15" x1="323.5" y1="666.77" x2="323.5" y2="649.74"/><polygon class="cls-2" points="327.2 663.96 323.5 665.54 319.8 663.96 323.5 672.74 327.2 663.96"/><line class="cls-15" x1="121.5" y1="89.74" x2="135.53" y2="89.74"/><polygon class="cls-2" points="132.72 93.44 134.29 89.74 132.72 86.04 141.5 89.74 132.72 93.44"/><line class="cls-15" x1="121.5" y1="157.74" x2="121.5" y2="89.74"/><line class="cls-15" x1="55.5" y1="424.74" x2="55.5" y2="401.74"/><line class="cls-15" x1="121.5" y1="401.74" x2="121.5" y2="157.74"/><line class="cls-15" x1="56" y1="401.74" x2="122" y2="401.74"/><line class="cls-15" x1="141.5" y1="210.74" x2="131.5" y2="210.74"/><line class="cls-15" x1="131.5" y1="456.74" x2="136.53" y2="456.74"/><polygon class="cls-2" points="133.72 460.44 135.29 456.74 133.72 453.04 142.5 456.74 133.72 460.44"/><line class="cls-15" x1="131.5" y1="210.74" x2="131.5" y2="456.74"/><line class="cls-15" x1="67.5" y1="424.74" x2="67.5" y2="394.74"/><line class="cls-15" x1="67.5" y1="394.74" x2="115.5" y2="394.74"/><line class="cls-15" x1="115.5" y1="140.74" x2="115.5" y2="394.74"/><line class="cls-15" x1="189.5" y1="140.74" x2="115.5" y2="140.74"/><line class="cls-15" x1="189.5" y1="174.27" x2="189.5" y2="141.24"/><polygon class="cls-2" points="193.2 171.46 189.5 173.04 185.8 171.46 189.5 180.24 193.2 171.46"/><line class="cls-15" x1="188.5" y1="241.74" x2="188.5" y2="272.74"/><line class="cls-15" x1="257.5" y1="272.74" x2="188.5" y2="272.74"/><line class="cls-15" x1="257.5" y1="703.74" x2="257.5" y2="272.74"/><line class="cls-15" x1="266.53" y1="703.74" x2="257.5" y2="703.74"/><polygon class="cls-2" points="263.72 700.04 265.3 703.74 263.72 707.44 272.5 703.74 263.72 700.04"/><line class="cls-15" x1="197.5" y1="242.74" x2="197.5" y2="251.74"/><line class="cls-15" x1="317.5" y1="251.74" x2="197.5" y2="251.74"/><line class="cls-15" x1="317.5" y1="296.77" x2="317.5" y2="251.74"/><polygon class="cls-2" points="321.2 293.96 317.5 295.54 313.8 293.96 317.5 302.74 321.2 293.96"/><line class="cls-15" x1="323.5" y1="178.74" x2="323.5" y2="157.74"/><line class="cls-15" x1="454.5" y1="157.74" x2="454.5" y2="172.77"/><polygon class="cls-2" points="450.8 169.96 454.5 171.54 458.2 169.96 454.5 178.74 450.8 169.96"/><line class="cls-15" x1="323.5" y1="157.74" x2="454.5" y2="157.74"/><line class="cls-15" x1="590.5" y1="178.74" x2="590.5" y2="157.74"/><line class="cls-15" x1="590.5" y1="157.74" x2="714.5" y2="157.74"/><line class="cls-15" x1="714.5" y1="172.77" x2="714.5" y2="157.74"/><polygon class="cls-2" points="718.2 169.96 714.5 171.54 710.8 169.96 714.5 178.74 718.2 169.96"/><line class="cls-15" x1="328.5" y1="301.74" x2="328.5" y2="281.74"/><line class="cls-15" x1="448.5" y1="281.74" x2="328.5" y2="281.74"/><line class="cls-15" x1="448.5" y1="281.74" x2="448.5" y2="295.77"/><polygon class="cls-2" points="444.8 292.96 448.5 294.54 452.2 292.96 448.5 301.74 444.8 292.96"/><line class="cls-15" x1="454.5" y1="365.74" x2="454.5" y2="384.74"/><line class="cls-15" x1="584.5" y1="371.71" x2="584.5" y2="384.74"/><polygon class="cls-2" points="580.8 374.52 584.5 372.95 588.2 374.52 584.5 365.74 580.8 374.52"/><line class="cls-15" x1="454.5" y1="384.74" x2="584.5" y2="384.74"/><line class="cls-15" x1="66.5" y1="547.74" x2="66.5" y2="506.74"/><line class="cls-15" x1="323.5" y1="506.74" x2="66.5" y2="506.74"/><line class="cls-15" x1="323.5" y1="494.71" x2="323.5" y2="506.74"/><polygon class="cls-2" points="319.8 497.52 323.5 495.95 327.2 497.52 323.5 488.74 319.8 497.52"/><line class="cls-15" x1="56.5" y1="488.74" x2="56.5" y2="516.74"/><line class="cls-15" x1="187.5" y1="541.77" x2="187.5" y2="516.74"/><polygon class="cls-2" points="191.2 538.96 187.5 540.54 183.8 538.96 187.5 547.74 191.2 538.96"/><line class="cls-15" x1="56.5" y1="516.74" x2="187.5" y2="516.74"/><line class="cls-15" x1="61.5" y1="425.24" x2="61.5" y2="410.24"/><line class="cls-15" x1="61.5" y1="409.74" x2="192.5" y2="409.74"/><line class="cls-15" x1="192.5" y1="419.27" x2="192.5" y2="410.24"/><polygon class="cls-2" points="196.2 416.46 192.5 418.04 188.8 416.46 192.5 425.24 196.2 416.46"/><line class="cls-15" x1="243.5" y1="456.74" x2="249.5" y2="456.74"/><line class="cls-15" x1="249.5" y1="628.74" x2="453.5" y2="628.74"/><line class="cls-15" x1="249.5" y1="456.74" x2="249.5" y2="628.74"/><line class="cls-15" x1="453.5" y1="628.74" x2="453.5" y2="665.77"/><polygon class="cls-2" points="449.8 662.96 453.5 664.54 457.2 662.96 453.5 671.74 449.8 662.96"/><line class="cls-15" x1="141.5" y1="703.74" x2="124.5" y2="703.74"/><line class="cls-15" x1="124.5" y1="527.74" x2="124.5" y2="703.74"/><line class="cls-15" x1="585.5" y1="526.74" x2="124.5" y2="526.74"/><line class="cls-15" x1="585.5" y1="494.71" x2="585.5" y2="526.74"/><polygon class="cls-2" points="581.8 497.52 585.5 495.95 589.2 497.52 585.5 488.74 581.8 497.52"/><line class="cls-15" x1="197.5" y1="487.74" x2="197.5" y2="516.74"/><line class="cls-15" x1="319.5" y1="542.77" x2="319.5" y2="516.74"/><polygon class="cls-2" points="323.2 539.96 319.5 541.54 315.8 539.96 319.5 548.74 323.2 539.96"/><line class="cls-15" x1="197.5" y1="516.74" x2="319.5" y2="516.74"/><line class="cls-15" x1="328.5" y1="547.74" x2="328.5" y2="516.74"/><line class="cls-15" x1="715.5" y1="516.74" x2="328.5" y2="516.74"/><line class="cls-15" x1="715.5" y1="541.77" x2="715.5" y2="516.74"/><polygon class="cls-2" points="719.2 538.96 715.5 540.54 711.8 538.96 715.5 547.74 719.2 538.96"/><line class="cls-15" x1="328.5" y1="424.74" x2="328.5" y2="401.74"/><line class="cls-15" x1="454.5" y1="418.77" x2="454.5" y2="401.74"/><polygon class="cls-2" points="458.2 415.96 454.5 417.54 450.8 415.96 454.5 424.74 458.2 415.96"/><line class="cls-15" x1="328.5" y1="401.74" x2="454.5" y2="401.74"/><line class="cls-15" x1="585.5" y1="424.74" x2="585.5" y2="401.74"/><line class="cls-15" x1="715.5" y1="418.77" x2="715.5" y2="401.74"/><polygon class="cls-2" points="719.2 415.96 715.5 417.54 711.8 415.96 715.5 424.74 719.2 415.96"/><line class="cls-15" x1="585.5" y1="401.74" x2="715.5" y2="401.74"/><line class="cls-15" x1="197.5" y1="611.74" x2="197.5" y2="638.74"/><line class="cls-15" x1="324.5" y1="617.71" x2="324.5" y2="638.74"/><polygon class="cls-2" points="320.8 620.52 324.5 618.95 328.2 620.52 324.5 611.74 320.8 620.52"/><line class="cls-15" x1="197.5" y1="638.74" x2="324.5" y2="638.74"/><line class="cls-15" x1="188.5" y1="611.74" x2="188.5" y2="660.74"/><line class="cls-15" x1="443.5" y1="660.74" x2="443.5" y2="665.77"/><polygon class="cls-2" points="439.8 662.96 443.5 664.54 447.2 662.96 443.5 671.74 439.8 662.96"/><line class="cls-15" x1="188.5" y1="660.74" x2="443.5" y2="660.74"/><line class="cls-15" x1="463.5" y1="611.74" x2="463.5" y2="628.74"/><line class="cls-15" x1="715.5" y1="665.77" x2="715.5" y2="628.74"/><polygon class="cls-2" points="719.2 662.96 715.5 664.54 711.8 662.96 715.5 671.74 719.2 662.96"/><line class="cls-15" x1="463.5" y1="628.74" x2="715.5" y2="628.74"/><rect class="cls-15" x="1395.5" y="590.74" width="164" height="145"/><rect class="cls-16" x="1406.5" y="603.74" width="27" height="27"/><rect class="cls-17" x="1406.5" y="649.74" width="27" height="27"/><rect class="cls-15" x="1406.5" y="695.74" width="27" height="27"/><text class="cls-18" transform="translate(1440.16 615.23)">LÍNEA CURRICULAR DE<tspan x="0" y="12">FORM</tspan><tspan class="cls-19" x="21.09" y="12">A</tspan><tspan x="25.97" y="12">CÍON GENERAL</tspan></text><text class="cls-18" transform="translate(1440.16 662.23)">LÍNEA CURRICULAR DE<tspan x="0" y="12">ESPECIALIDAD DEL PROGRAMA</tspan></text><text class="cls-18" transform="translate(1440.16 708.23)">LÍNEA CURRICULAR DE<tspan x="0" y="12">PR</tspan><tspan class="cls-19" x="9.99" y="12">Á</tspan><tspan class="cls-20" x="14.87" y="12">CTICAS PROFESIONALES</tspan></text></svg>